<svg version="1.1" xmlns="http://www.w3.org/2000/svg" width="1000" height="1200"><defs><clipPath id="SpWNUwxNDpkt"><path fill="none" stroke="none" d="M 10.5 27.5 L 970.5 27.5 L 970.5 1190.5 L 10.5 1190.5 L 10.5 27.5"/></clipPath><clipPath id="aJfpusmwTTaO"><path fill="none" stroke="none" d="M 10.5 27.5 L 970.5 27.5 L 970.5 1190.5 L 10.5 1190.5 L 10.5 27.5"/></clipPath><clipPath id="QXgrrTdIrulq"><path fill="none" stroke="none" d="M 10.5 27.5 L 970.5 27.5 L 970.5 1190.5 L 10.5 1190.5 L 10.5 27.5"/></clipPath><clipPath id="qESDrqvBlfVT"><path fill="none" stroke="none" d="M 10.5 27.5 L 970.5 27.5 L 970.5 1190.5 L 10.5 1190.5 L 10.5 27.5"/></clipPath><clipPath id="GnKRGRTrDERF"><path fill="none" stroke="none" d="M 10.5 27.5 L 970.5 27.5 L 970.5 1190.5 L 10.5 1190.5 L 10.5 27.5"/></clipPath><clipPath id="FkoEtAmXnUKO"><path fill="none" stroke="none" d="M 10.5 27.5 L 970.5 27.5 L 970.5 1190.5 L 10.5 1190.5 L 10.5 27.5"/></clipPath></defs><path fill="rgb(255,255,255)" stroke="none" paint-order="stroke" d="M 0.5 0.5 L 1000.5 0.5 L 1000.5 1200.5 L 0.5 1200.5 L 0.5 0.5" fill-opacity="1"/><rect fill="#FFFFFF" stroke="none" x="10" y="27" width="960" height="1163" transform="matrix(1, 0, 0, 1, 0.5, 0.5)"/><path fill="rgb(255,250,250)" stroke="none" paint-order="stroke" d="M 10.5 27.5 L 970.5 27.5 L 970.5 1190.5 L 10.5 1190.5 L 10.5 27.5" fill-opacity="1"/><path fill="rgb(148,103,189)" stroke="rgb(148,103,189)" paint-order="fill" d="M 200.73818969726562 390.8997497558594 L 200.73818969726562 488.7729797363281 L 200.73818969726562 488.7729797363281 L 222.5517578125 488.7769470214844 L 243.4937744140625 488.7886657714844 L 263.601318359375 488.8077392578125 L 282.9114990234375 488.8338928222656 L 301.4613952636719 488.8667907714844 L 319.2880554199219 488.9060974121094 L 336.4286193847656 488.95147705078125 L 352.920166015625 489.0025939941406 L 368.79974365234375 489.0591735839844 L 384.1044921875 489.1208190917969 L 398.8714294433594 489.1872253417969 L 413.1377258300781 489.2580871582031 L 426.9404296875 489.3330383300781 L 440.3166198730469 489.4117736816406 L 453.3033752441406 489.4939880371094 L 465.9378356933594 489.57928466796875 L 478.25701904296875 489.6673889160156 L 490.2980651855469 489.7579650878906 L 502.0980529785156 489.8506774902344 L 513.6940307617188 489.9451904296875 L 525.1231079101562 490.04119873046875 L 536.4224243164062 490.1383361816406 L 547.6290283203125 490.2362976074219 L 558.7799682617188 490.3347473144531 L 569.912353515625 490.4333801269531 L 581.0632934570312 490.5318298339844 L 592.2698974609375 490.62982177734375 L 603.5691528320312 490.7269592285156 L 614.998291015625 490.82293701171875 L 626.59423828125 490.9174499511719 L 638.3942260742188 491.0101623535156 L 650.435302734375 491.1007385253906 L 662.7544555664062 491.1888427734375 L 675.388916015625 491.274169921875 L 688.3756713867188 491.3563537597656 L 701.7518920898438 491.4350891113281 L 715.5545654296875 491.51007080078125 L 729.8208618164062 491.5809020996094 L 744.5878295898438 491.6473388671875 L 759.892578125 491.708984375 L 775.7721557617188 491.7655334472656 L 792.263671875 491.816650390625 L 809.4042358398438 491.862060546875 L 827.2308959960938 491.9013366699219 L 845.7808227539062 491.9342346191406 L 865.0910034179688 491.96038818359375 L 885.1985473632812 491.9794921875 L 906.1405639648438 491.9911804199219 L 927.9541015625 491.9951477050781 L 927.9541015625 491.9951477050781 L 927.9541015625 394.1219177246094 L 927.9541015625 394.1219177246094 L 906.1405639648438 394.117919921875 L 885.1985473632812 394.1062316894531 L 865.0910034179688 394.087158203125 L 845.7808227539062 394.0610046386719 L 827.2308959960938 394.0281066894531 L 809.4042358398438 393.9888000488281 L 792.263671875 393.94342041015625 L 775.7721557617188 393.89227294921875 L 759.892578125 393.8357238769531 L 744.5878295898438 393.7740783691406 L 729.8208618164062 393.7076721191406 L 715.5545654296875 393.6368103027344 L 701.7518920898438 393.5618591308594 L 688.3756713867188 393.48309326171875 L 675.388916015625 393.4009094238281 L 662.7544555664062 393.31561279296875 L 650.435302734375 393.2275085449219 L 638.3942260742188 393.1369323730469 L 626.59423828125 393.0442199707031 L 614.998291015625 392.94970703125 L 603.5691528320312 392.85369873046875 L 592.2698974609375 392.7565612792969 L 581.0632934570312 392.6585998535156 L 569.912353515625 392.56011962890625 L 558.7799682617188 392.4615173339844 L 547.6290283203125 392.363037109375 L 536.4224243164062 392.26507568359375 L 525.1231079101562 392.1679382324219 L 513.6940307617188 392.0719299316406 L 502.0980529785156 391.9774169921875 L 490.2980651855469 391.8847351074219 L 478.25701904296875 391.7941589355469 L 465.9378356933594 391.7060546875 L 453.3033752441406 391.6207275390625 L 440.3166198730469 391.5385437011719 L 426.9404296875 391.4598083496094 L 413.1377258300781 391.38482666015625 L 398.8714294433594 391.3139953613281 L 384.1044921875 391.24755859375 L 368.79974365234375 391.1859130859375 L 352.920166015625 391.1293640136719 L 336.4286193847656 391.0782165527344 L 319.2880554199219 391.0328369140625 L 301.4613952636719 390.9935302734375 L 282.9114990234375 390.9606628417969 L 263.601318359375 390.93450927734375 L 243.4937744140625 390.9154052734375 L 222.5517578125 390.9037170410156 L 200.73818969726562 390.8997497558594 Z" fill-opacity="0.6" clip-path="url(#QXgrrTdIrulq)" stroke-opacity="1" stroke-linejoin="bevel" stroke-miterlimit="10" stroke-width="0.8" stroke-dasharray=""/><path fill="rgb(148,103,189)" stroke="rgb(148,103,189)" paint-order="fill" d="M 200.73818969726562 644.041015625 L 200.73818969726562 839.7875366210938 L 200.73818969726562 839.7875366210938 L 222.5517578125 839.7810668945312 L 243.4937744140625 839.7620849609375 L 263.601318359375 839.7310791015625 L 282.9114990234375 839.6885375976562 L 301.4613952636719 839.6351318359375 L 319.2880554199219 839.5712280273438 L 336.4286193847656 839.4974975585938 L 352.920166015625 839.4144287109375 L 368.79974365234375 839.322509765625 L 384.1044921875 839.2222900390625 L 398.8714294433594 839.1143798828125 L 413.1377258300781 838.999267578125 L 426.9404296875 838.87744140625 L 440.3166198730469 838.74951171875 L 453.3033752441406 838.6159057617188 L 465.9378356933594 838.477294921875 L 478.25701904296875 838.3341064453125 L 490.2980651855469 838.1869506835938 L 502.0980529785156 838.0363159179688 L 513.6940307617188 837.8826904296875 L 525.1231079101562 837.7266845703125 L 536.4224243164062 837.56884765625 L 547.6290283203125 837.40966796875 L 558.7799682617188 837.2496337890625 L 569.912353515625 837.0894165039062 L 581.0632934570312 836.9293823242188 L 592.2698974609375 836.7702026367188 L 603.5691528320312 836.6123657226562 L 614.998291015625 836.4563598632812 L 626.59423828125 836.302734375 L 638.3942260742188 836.152099609375 L 650.435302734375 836.0049438476562 L 662.7544555664062 835.8617553710938 L 675.388916015625 835.72314453125 L 688.3756713867188 835.5895385742188 L 701.7518920898438 835.4616088867188 L 715.5545654296875 835.3397827148438 L 729.8208618164062 835.2246704101562 L 744.5878295898438 835.1167602539062 L 759.892578125 835.0165405273438 L 775.7721557617188 834.9246215820312 L 792.263671875 834.841552734375 L 809.4042358398438 834.767822265625 L 827.2308959960938 834.7039184570312 L 845.7808227539062 834.6505126953125 L 865.0910034179688 834.6079711914062 L 885.1985473632812 834.5769653320312 L 906.1405639648438 834.5579833984375 L 927.9541015625 834.551513671875 L 927.9541015625 834.551513671875 L 927.9541015625 638.8049926757812 L 927.9541015625 638.8049926757812 L 906.1405639648438 638.8114624023438 L 885.1985473632812 638.8305053710938 L 865.0910034179688 638.8615112304688 L 845.7808227539062 638.9039916992188 L 827.2308959960938 638.9574584960938 L 809.4042358398438 639.0213012695312 L 792.263671875 639.0950927734375 L 775.7721557617188 639.1781616210938 L 759.892578125 639.2700805664062 L 744.5878295898438 639.3702392578125 L 729.8208618164062 639.4781494140625 L 715.5545654296875 639.5933227539062 L 701.7518920898438 639.715087890625 L 688.3756713867188 639.8430786132812 L 675.388916015625 639.9766235351562 L 662.7544555664062 640.115234375 L 650.435302734375 640.2584228515625 L 638.3942260742188 640.4056396484375 L 626.59423828125 640.5562744140625 L 614.998291015625 640.7098388671875 L 603.5691528320312 640.8658447265625 L 592.2698974609375 641.023681640625 L 581.0632934570312 641.1829223632812 L 569.912353515625 641.3428955078125 L 558.7799682617188 641.503173828125 L 547.6290283203125 641.6631469726562 L 536.4224243164062 641.8223266601562 L 525.1231079101562 641.980224609375 L 513.6940307617188 642.13623046875 L 502.0980529785156 642.289794921875 L 490.2980651855469 642.4404296875 L 478.25701904296875 642.587646484375 L 465.9378356933594 642.7307739257812 L 453.3033752441406 642.8694458007812 L 440.3166198730469 643.0029907226562 L 426.9404296875 643.1309204101562 L 413.1377258300781 643.2527465820312 L 398.8714294433594 643.367919921875 L 384.1044921875 643.475830078125 L 368.79974365234375 643.5759887695312 L 352.920166015625 643.6679077148438 L 336.4286193847656 643.7509765625 L 319.2880554199219 643.8247680664062 L 301.4613952636719 643.8886108398438 L 282.9114990234375 643.9420776367188 L 263.601318359375 643.9845581054688 L 243.4937744140625 644.0155639648438 L 222.5517578125 644.0346069335938 L 200.73818969726562 644.041015625 Z" fill-opacity="0.6" clip-path="url(#QXgrrTdIrulq)" stroke-opacity="1" stroke-linejoin="bevel" stroke-miterlimit="10" stroke-width="0.8" stroke-dasharray=""/><path fill="rgb(148,103,189)" stroke="rgb(148,103,189)" paint-order="fill" d="M 200.73818969726562 133.52935791015625 L 200.73818969726562 182.46597290039062 L 200.73818969726562 182.46597290039062 L 222.5517578125 182.48558044433594 L 243.4937744140625 182.54331970214844 L 263.601318359375 182.6375732421875 L 282.9114990234375 182.7667236328125 L 301.4613952636719 182.9291229248047 L 319.2880554199219 183.12318420410156 L 336.4286193847656 183.34725952148438 L 352.920166015625 183.5997314453125 L 368.79974365234375 183.87896728515625 L 384.1044921875 184.18336486816406 L 398.8714294433594 184.51129150390625 L 413.1377258300781 184.8611297607422 L 426.9404296875 185.2312469482422 L 440.3166198730469 185.62002563476562 L 453.3033752441406 186.02584838867188 L 465.9378356933594 186.44708251953125 L 478.25701904296875 186.88211059570312 L 490.2980651855469 187.32931518554688 L 502.0980529785156 187.7870635986328 L 513.6940307617188 188.2537384033203 L 525.1231079101562 188.7277069091797 L 536.4224243164062 189.20736694335938 L 547.6290283203125 189.69107055664062 L 558.7799682617188 190.17721557617188 L 569.912353515625 190.66416931152344 L 581.0632934570312 191.1503143310547 L 592.2698974609375 191.634033203125 L 603.5691528320312 192.11367797851562 L 614.998291015625 192.587646484375 L 626.59423828125 193.0543212890625 L 638.3942260742188 193.51206970214844 L 650.435302734375 193.9592742919922 L 662.7544555664062 194.39430236816406 L 675.388916015625 194.81553649902344 L 688.3756713867188 195.2213592529297 L 701.7518920898438 195.61013793945312 L 715.5545654296875 195.98025512695312 L 729.8208618164062 196.33009338378906 L 744.5878295898438 196.65802001953125 L 759.892578125 196.96241760253906 L 775.7721557617188 197.2416534423828 L 792.263671875 197.49412536621094 L 809.4042358398438 197.71820068359375 L 827.2308959960938 197.91226196289062 L 845.7808227539062 198.0746612548828 L 865.0910034179688 198.2038116455078 L 885.1985473632812 198.29806518554688 L 906.1405639648438 198.35580444335938 L 927.9541015625 198.3754119873047 L 927.9541015625 198.3754119873047 L 927.9541015625 149.43878173828125 L 927.9541015625 149.43878173828125 L 906.1405639648438 149.41917419433594 L 885.1985473632812 149.36143493652344 L 865.0910034179688 149.26718139648438 L 845.7808227539062 149.13804626464844 L 827.2308959960938 148.9756317138672 L 809.4042358398438 148.78158569335938 L 792.263671875 148.55751037597656 L 775.7721557617188 148.30503845214844 L 759.892578125 148.02578735351562 L 744.5878295898438 147.7213897705078 L 729.8208618164062 147.39346313476562 L 715.5545654296875 147.0436248779297 L 701.7518920898438 146.6735076904297 L 688.3756713867188 146.28472900390625 L 675.388916015625 145.87890625 L 662.7544555664062 145.45767211914062 L 650.435302734375 145.02264404296875 L 638.3942260742188 144.57545471191406 L 626.59423828125 144.11770629882812 L 614.998291015625 143.65103149414062 L 603.5691528320312 143.17706298828125 L 592.2698974609375 142.69740295410156 L 581.0632934570312 142.2136993408203 L 569.912353515625 141.72755432128906 L 558.7799682617188 141.24058532714844 L 547.6290283203125 140.7544403076172 L 536.4224243164062 140.27073669433594 L 525.1231079101562 139.79107666015625 L 513.6940307617188 139.31710815429688 L 502.0980529785156 138.85043334960938 L 490.2980651855469 138.39268493652344 L 478.25701904296875 137.94549560546875 L 465.9378356933594 137.51046752929688 L 453.3033752441406 137.0892333984375 L 440.3166198730469 136.68341064453125 L 426.9404296875 136.2946319580078 L 413.1377258300781 135.9245147705078 L 398.8714294433594 135.57467651367188 L 384.1044921875 135.2467498779297 L 368.79974365234375 134.94235229492188 L 352.920166015625 134.66310119628906 L 336.4286193847656 134.41062927246094 L 319.2880554199219 134.18655395507812 L 301.4613952636719 133.9925079345703 L 282.9114990234375 133.83009338378906 L 263.601318359375 133.70095825195312 L 243.4937744140625 133.60670471191406 L 222.5517578125 133.54896545410156 L 200.73818969726562 133.52935791015625 Z" fill-opacity="0.6" clip-path="url(#QXgrrTdIrulq)" stroke-opacity="1" stroke-linejoin="bevel" stroke-miterlimit="10" stroke-width="0.8" stroke-dasharray=""/><path fill="rgb(148,103,189)" stroke="rgb(148,103,189)" paint-order="fill" d="M 200.73818969726562 288.7973937988281 L 200.73818969726562 386.670654296875 L 200.73818969726562 386.670654296875 L 222.5517578125 386.6798400878906 L 243.4937744140625 386.7068786621094 L 263.601318359375 386.7510070800781 L 282.9114990234375 386.8114929199219 L 301.4613952636719 386.8875732421875 L 319.2880554199219 386.97845458984375 L 336.4286193847656 387.0834045410156 L 352.920166015625 387.20166015625 L 368.79974365234375 387.3324279785156 L 384.1044921875 387.4750061035156 L 398.8714294433594 387.6285705566406 L 413.1377258300781 387.79241943359375 L 426.9404296875 387.9657897949219 L 440.3166198730469 388.1478576660156 L 453.3033752441406 388.3379211425781 L 465.9378356933594 388.53521728515625 L 478.25701904296875 388.7389831542969 L 490.2980651855469 388.94842529296875 L 502.0980529785156 389.1628112792969 L 513.6940307617188 389.3813781738281 L 525.1231079101562 389.6033630371094 L 536.4224243164062 389.8280029296875 L 547.6290283203125 390.0545654296875 L 558.7799682617188 390.2822570800781 L 569.912353515625 390.51031494140625 L 581.0632934570312 390.7380065917969 L 592.2698974609375 390.96453857421875 L 603.5691528320312 391.189208984375 L 614.998291015625 391.41119384765625 L 626.59423828125 391.6297607421875 L 638.3942260742188 391.8441467285156 L 650.435302734375 392.0535888671875 L 662.7544555664062 392.25732421875 L 675.388916015625 392.4546203613281 L 688.3756713867188 392.6446838378906 L 701.7518920898438 392.8267822265625 L 715.5545654296875 393.0001220703125 L 729.8208618164062 393.1639709472656 L 744.5878295898438 393.31756591796875 L 759.892578125 393.4601135253906 L 775.7721557617188 393.5909118652344 L 792.263671875 393.70916748046875 L 809.4042358398438 393.8140869140625 L 827.2308959960938 393.9049987792969 L 845.7808227539062 393.9810485839844 L 865.0910034179688 394.0415344238281 L 885.1985473632812 394.0856628417969 L 906.1405639648438 394.11273193359375 L 927.9541015625 394.1219177246094 L 927.9541015625 394.1219177246094 L 927.9541015625 296.2486572265625 L 927.9541015625 296.2486572265625 L 906.1405639648438 296.2394714355469 L 885.1985473632812 296.2124328613281 L 865.0910034179688 296.16827392578125 L 845.7808227539062 296.1077880859375 L 827.2308959960938 296.03173828125 L 809.4042358398438 295.94085693359375 L 792.263671875 295.8359069824219 L 775.7721557617188 295.7176513671875 L 759.892578125 295.5868835449219 L 744.5878295898438 295.4443054199219 L 729.8208618164062 295.29071044921875 L 715.5545654296875 295.1268615722656 L 701.7518920898438 294.9535217285156 L 688.3756713867188 294.7714538574219 L 675.388916015625 294.58135986328125 L 662.7544555664062 294.38409423828125 L 650.435302734375 294.1803283691406 L 638.3942260742188 293.97088623046875 L 626.59423828125 293.7565002441406 L 614.998291015625 293.5379333496094 L 603.5691528320312 293.3159484863281 L 592.2698974609375 293.09130859375 L 581.0632934570312 292.86474609375 L 569.912353515625 292.6370544433594 L 558.7799682617188 292.40899658203125 L 547.6290283203125 292.1813049316406 L 536.4224243164062 291.95477294921875 L 525.1231079101562 291.7301025390625 L 513.6940307617188 291.50811767578125 L 502.0980529785156 291.28955078125 L 490.2980651855469 291.0751647949219 L 478.25701904296875 290.86572265625 L 465.9378356933594 290.6619873046875 L 453.3033752441406 290.4646911621094 L 440.3166198730469 290.2746276855469 L 426.9404296875 290.092529296875 L 413.1377258300781 289.919189453125 L 398.8714294433594 289.7553405761719 L 384.1044921875 289.60174560546875 L 368.79974365234375 289.4591979980469 L 352.920166015625 289.3283996582031 L 336.4286193847656 289.21014404296875 L 319.2880554199219 289.1051940917969 L 301.4613952636719 289.0143127441406 L 282.9114990234375 288.9382629394531 L 263.601318359375 288.8777770996094 L 243.4937744140625 288.8336181640625 L 222.5517578125 288.80657958984375 L 200.73818969726562 288.7973937988281 Z" fill-opacity="0.6" clip-path="url(#QXgrrTdIrulq)" stroke-opacity="1" stroke-linejoin="bevel" stroke-miterlimit="10" stroke-width="0.8" stroke-dasharray=""/><path fill="rgb(148,103,189)" stroke="rgb(148,103,189)" paint-order="fill" d="M 200.73818969726562 493.0020751953125 L 200.73818969726562 639.8119506835938 L 200.73818969726562 639.8119506835938 L 222.5517578125 639.8107299804688 L 243.4937744140625 639.8070678710938 L 263.601318359375 639.8010864257812 L 282.9114990234375 639.7929077148438 L 301.4613952636719 639.7826538085938 L 319.2880554199219 639.7703247070312 L 336.4286193847656 639.7561645507812 L 352.920166015625 639.7401733398438 L 368.79974365234375 639.7225341796875 L 384.1044921875 639.7032470703125 L 398.8714294433594 639.6824951171875 L 413.1377258300781 639.6603393554688 L 426.9404296875 639.6369018554688 L 440.3166198730469 639.6123046875 L 453.3033752441406 639.5866088867188 L 465.9378356933594 639.5599975585938 L 478.25701904296875 639.532470703125 L 490.2980651855469 639.504150390625 L 502.0980529785156 639.4751586914062 L 513.6940307617188 639.4456176757812 L 525.1231079101562 639.4156494140625 L 536.4224243164062 639.38525390625 L 547.6290283203125 639.3546752929688 L 558.7799682617188 639.3239135742188 L 569.912353515625 639.2930908203125 L 581.0632934570312 639.2623291015625 L 592.2698974609375 639.231689453125 L 603.5691528320312 639.2013549804688 L 614.998291015625 639.1713256835938 L 626.59423828125 639.1417846679688 L 638.3942260742188 639.1128540039062 L 650.435302734375 639.0845336914062 L 662.7544555664062 639.0570068359375 L 675.388916015625 639.0303344726562 L 688.3756713867188 639.004638671875 L 701.7518920898438 638.9800415039062 L 715.5545654296875 638.9566040039062 L 729.8208618164062 638.9344482421875 L 744.5878295898438 638.9136962890625 L 759.892578125 638.8944702148438 L 775.7721557617188 638.8767700195312 L 792.263671875 638.8607788085938 L 809.4042358398438 638.8466186523438 L 827.2308959960938 638.8343505859375 L 845.7808227539062 638.8240356445312 L 865.0910034179688 638.8158569335938 L 885.1985473632812 638.8099365234375 L 906.1405639648438 638.8062744140625 L 927.9541015625 638.8049926757812 L 927.9541015625 638.8049926757812 L 927.9541015625 491.9951477050781 L 927.9541015625 491.9951477050781 L 906.1405639648438 491.99639892578125 L 885.1985473632812 492.00006103515625 L 865.0910034179688 492.0060119628906 L 845.7808227539062 492.0141906738281 L 827.2308959960938 492.02447509765625 L 809.4042358398438 492.0367431640625 L 792.263671875 492.0509338378906 L 775.7721557617188 492.06689453125 L 759.892578125 492.0845947265625 L 744.5878295898438 492.1038513183594 L 729.8208618164062 492.1246032714844 L 715.5545654296875 492.1467590332031 L 701.7518920898438 492.170166015625 L 688.3756713867188 492.19476318359375 L 675.388916015625 492.220458984375 L 662.7544555664062 492.24713134765625 L 650.435302734375 492.274658203125 L 638.3942260742188 492.3029479980469 L 626.59423828125 492.3319396972656 L 614.998291015625 492.3614501953125 L 603.5691528320312 492.3914489746094 L 592.2698974609375 492.42181396484375 L 581.0632934570312 492.4524230957031 L 569.912353515625 492.48321533203125 L 558.7799682617188 492.5140380859375 L 547.6290283203125 492.5447998046875 L 536.4224243164062 492.5754089355469 L 525.1231079101562 492.60577392578125 L 513.6940307617188 492.6357727050781 L 502.0980529785156 492.6653137207031 L 490.2980651855469 492.69427490234375 L 478.25701904296875 492.7225646972656 L 465.9378356933594 492.7501220703125 L 453.3033752441406 492.7767639160156 L 440.3166198730469 492.8024597167969 L 426.9404296875 492.8270568847656 L 413.1377258300781 492.8504943847656 L 398.8714294433594 492.87261962890625 L 384.1044921875 492.89337158203125 L 368.79974365234375 492.91265869140625 L 352.920166015625 492.9303283691406 L 336.4286193847656 492.9462890625 L 319.2880554199219 492.9604797363281 L 301.4613952636719 492.9727783203125 L 282.9114990234375 492.9830322265625 L 263.601318359375 492.9912109375 L 243.4937744140625 492.9971923828125 L 222.5517578125 493.0008239746094 L 200.73818969726562 493.0020751953125 Z" fill-opacity="0.6" clip-path="url(#QXgrrTdIrulq)" stroke-opacity="1" stroke-linejoin="bevel" stroke-miterlimit="10" stroke-width="0.8" stroke-dasharray=""/><path fill="rgb(148,103,189)" stroke="rgb(148,103,189)" paint-order="fill" d="M 200.73818969726562 80.36363983154297 L 200.73818969726562 129.30026245117188 L 200.73818969726562 129.30026245117188 L 222.5517578125 129.3250732421875 L 243.4937744140625 129.39817810058594 L 263.601318359375 129.51748657226562 L 282.9114990234375 129.6809539794922 L 301.4613952636719 129.88653564453125 L 319.2880554199219 130.13217163085938 L 336.4286193847656 130.41580200195312 L 352.920166015625 130.73538208007812 L 368.79974365234375 131.0888671875 L 384.1044921875 131.47418212890625 L 398.8714294433594 131.8892822265625 L 413.1377258300781 132.3321075439453 L 426.9404296875 132.8006134033203 L 440.3166198730469 133.29273986816406 L 453.3033752441406 133.80642700195312 L 465.9378356933594 134.3396453857422 L 478.25701904296875 134.8903045654297 L 490.2980651855469 135.45639038085938 L 502.0980529785156 136.0358123779297 L 513.6940307617188 136.6265411376953 L 525.1231079101562 137.22650146484375 L 536.4224243164062 137.8336639404297 L 547.6290283203125 138.44595336914062 L 558.7799682617188 139.0613250732422 L 569.912353515625 139.67771911621094 L 581.0632934570312 140.2930908203125 L 592.2698974609375 140.9053955078125 L 603.5691528320312 141.51254272460938 L 614.998291015625 142.11251831054688 L 626.59423828125 142.70323181152344 L 638.3942260742188 143.2826690673828 L 650.435302734375 143.84873962402344 L 662.7544555664062 144.39939880371094 L 675.388916015625 144.9326171875 L 688.3756713867188 145.44630432128906 L 701.7518920898438 145.9384307861328 L 715.5545654296875 146.4069366455078 L 729.8208618164062 146.8497772216797 L 744.5878295898438 147.26486206054688 L 759.892578125 147.65017700195312 L 775.7721557617188 148.003662109375 L 792.263671875 148.3232421875 L 809.4042358398438 148.60687255859375 L 827.2308959960938 148.85250854492188 L 845.7808227539062 149.05809020996094 L 865.0910034179688 149.22157287597656 L 885.1985473632812 149.34088134765625 L 906.1405639648438 149.41397094726562 L 927.9541015625 149.43878173828125 L 927.9541015625 149.43878173828125 L 927.9541015625 100.50216674804688 L 927.9541015625 100.50216674804688 L 906.1405639648438 100.47734069824219 L 885.1985473632812 100.40425109863281 L 865.0910034179688 100.28494262695312 L 845.7808227539062 100.12147521972656 L 827.2308959960938 99.9158935546875 L 809.4042358398438 99.67025756835938 L 792.263671875 99.3866195678711 L 775.7721557617188 99.0670394897461 L 759.892578125 98.71356201171875 L 744.5878295898438 98.3282470703125 L 729.8208618164062 97.91314697265625 L 715.5545654296875 97.47032165527344 L 701.7518920898438 97.00181579589844 L 688.3756713867188 96.50968933105469 L 675.388916015625 95.9959945678711 L 662.7544555664062 95.46278381347656 L 650.435302734375 94.91211700439453 L 638.3942260742188 94.34603881835938 L 626.59423828125 93.76660919189453 L 614.998291015625 93.17588806152344 L 603.5691528320312 92.57592010498047 L 592.2698974609375 91.96876525878906 L 581.0632934570312 91.35647583007812 L 569.912353515625 90.74110412597656 L 558.7799682617188 90.12470245361328 L 547.6290283203125 89.50933074951172 L 536.4224243164062 88.89703369140625 L 525.1231079101562 88.28987884521484 L 513.6940307617188 87.68991088867188 L 502.0980529785156 87.09918975830078 L 490.2980651855469 86.51976013183594 L 478.25701904296875 85.95368957519531 L 465.9378356933594 85.40301513671875 L 453.3033752441406 84.86981201171875 L 440.3166198730469 84.35611724853516 L 426.9404296875 83.8639907836914 L 413.1377258300781 83.3954849243164 L 398.8714294433594 82.95265197753906 L 384.1044921875 82.53755187988281 L 368.79974365234375 82.15223693847656 L 352.920166015625 81.79876708984375 L 336.4286193847656 81.47917938232422 L 319.2880554199219 81.19554901123047 L 301.4613952636719 80.94991302490234 L 282.9114990234375 80.74433135986328 L 263.601318359375 80.58085632324219 L 243.4937744140625 80.4615478515625 L 222.5517578125 80.38845825195312 L 200.73818969726562 80.36363983154297 Z" fill-opacity="0.6" clip-path="url(#QXgrrTdIrulq)" stroke-opacity="1" stroke-linejoin="bevel" stroke-miterlimit="10" stroke-width="0.8" stroke-dasharray=""/><path fill="rgb(148,103,189)" stroke="rgb(148,103,189)" paint-order="fill" d="M 200.73818969726562 844.0166015625 L 200.73818969726562 1137.6363525390625 L 200.73818969726562 1137.6363525390625 L 222.5517578125 1137.624755859375 L 243.4937744140625 1137.59033203125 L 263.601318359375 1137.5343017578125 L 282.9114990234375 1137.4573974609375 L 301.4613952636719 1137.36083984375 L 319.2880554199219 1137.245361328125 L 336.4286193847656 1137.112060546875 L 352.920166015625 1136.9619140625 L 368.79974365234375 1136.7957763671875 L 384.1044921875 1136.6146240234375 L 398.8714294433594 1136.4195556640625 L 413.1377258300781 1136.21142578125 L 426.9404296875 1135.9912109375 L 440.3166198730469 1135.7598876953125 L 453.3033752441406 1135.5184326171875 L 465.9378356933594 1135.267822265625 L 478.25701904296875 1135.009033203125 L 490.2980651855469 1134.7430419921875 L 502.0980529785156 1134.470703125 L 513.6940307617188 1134.1929931640625 L 525.1231079101562 1133.9110107421875 L 536.4224243164062 1133.6256103515625 L 547.6290283203125 1133.337890625 L 558.7799682617188 1133.0487060546875 L 569.912353515625 1132.7589111328125 L 581.0632934570312 1132.4697265625 L 592.2698974609375 1132.1820068359375 L 603.5691528320312 1131.8966064453125 L 614.998291015625 1131.6146240234375 L 626.59423828125 1131.3369140625 L 638.3942260742188 1131.0645751953125 L 650.435302734375 1130.798583984375 L 662.7544555664062 1130.539794921875 L 675.388916015625 1130.2891845703125 L 688.3756713867188 1130.0477294921875 L 701.7518920898438 1129.81640625 L 715.5545654296875 1129.59619140625 L 729.8208618164062 1129.3880615234375 L 744.5878295898438 1129.1929931640625 L 759.892578125 1129.0118408203125 L 775.7721557617188 1128.8458251953125 L 792.263671875 1128.695556640625 L 809.4042358398438 1128.562255859375 L 827.2308959960938 1128.44677734375 L 845.7808227539062 1128.3502197265625 L 865.0910034179688 1128.2733154296875 L 885.1985473632812 1128.21728515625 L 906.1405639648438 1128.182861328125 L 927.9541015625 1128.1712646484375 L 927.9541015625 1128.1712646484375 L 927.9541015625 834.551513671875 L 927.9541015625 834.551513671875 L 906.1405639648438 834.5631713867188 L 885.1985473632812 834.5975341796875 L 865.0910034179688 834.6536254882812 L 845.7808227539062 834.73046875 L 827.2308959960938 834.8270874023438 L 809.4042358398438 834.9425048828125 L 792.263671875 835.0758056640625 L 775.7721557617188 835.2260131835938 L 759.892578125 835.3921508789062 L 744.5878295898438 835.5732421875 L 729.8208618164062 835.7683715820312 L 715.5545654296875 835.9765014648438 L 701.7518920898438 836.1966552734375 L 688.3756713867188 836.427978515625 L 675.388916015625 836.66943359375 L 662.7544555664062 836.9200439453125 L 650.435302734375 837.1788330078125 L 638.3942260742188 837.4448852539062 L 626.59423828125 837.7172241210938 L 614.998291015625 837.994873046875 L 603.5691528320312 838.27685546875 L 592.2698974609375 838.5621948242188 L 581.0632934570312 838.8499755859375 L 569.912353515625 839.1392211914062 L 558.7799682617188 839.4288940429688 L 547.6290283203125 839.7181396484375 L 536.4224243164062 840.0059204101562 L 525.1231079101562 840.291259765625 L 513.6940307617188 840.5733032226562 L 502.0980529785156 840.8508911132812 L 490.2980651855469 841.1232299804688 L 478.25701904296875 841.3892822265625 L 465.9378356933594 841.6481323242188 L 453.3033752441406 841.8987426757812 L 440.3166198730469 842.14013671875 L 426.9404296875 842.3714599609375 L 413.1377258300781 842.5916748046875 L 398.8714294433594 842.7998046875 L 384.1044921875 842.994873046875 L 368.79974365234375 843.1759643554688 L 352.920166015625 843.3421020507812 L 336.4286193847656 843.4923095703125 L 319.2880554199219 843.6256103515625 L 301.4613952636719 843.7410888671875 L 282.9114990234375 843.8377075195312 L 263.601318359375 843.91455078125 L 243.4937744140625 843.9705810546875 L 222.5517578125 844.0049438476562 L 200.73818969726562 844.0166015625 Z" fill-opacity="0.6" clip-path="url(#QXgrrTdIrulq)" stroke-opacity="1" stroke-linejoin="bevel" stroke-miterlimit="10" stroke-width="0.8" stroke-dasharray=""/><path fill="rgb(148,103,189)" stroke="rgb(148,103,189)" paint-order="fill" d="M 200.73818969726562 186.695068359375 L 200.73818969726562 284.56829833984375 L 200.73818969726562 284.56829833984375 L 222.5517578125 284.58270263671875 L 243.4937744140625 284.6250915527344 L 263.601318359375 284.6943054199219 L 282.9114990234375 284.78912353515625 L 301.4613952636719 284.9083557128906 L 319.2880554199219 285.0508117675781 L 336.4286193847656 285.21533203125 L 352.920166015625 285.40069580078125 L 368.79974365234375 285.605712890625 L 384.1044921875 285.8291931152344 L 398.8714294433594 286.0699462890625 L 413.1377258300781 286.3267822265625 L 426.9404296875 286.5985107421875 L 440.3166198730469 286.8839416503906 L 453.3033752441406 287.181884765625 L 465.9378356933594 287.49114990234375 L 478.25701904296875 287.810546875 L 490.2980651855469 288.13885498046875 L 502.0980529785156 288.4749450683594 L 513.6940307617188 288.81756591796875 L 525.1231079101562 289.16552734375 L 536.4224243164062 289.5176696777344 L 547.6290283203125 289.872802734375 L 558.7799682617188 290.229736328125 L 569.912353515625 290.5872497558594 L 581.0632934570312 290.94415283203125 L 592.2698974609375 291.2992858886719 L 603.5691528320312 291.65142822265625 L 614.998291015625 291.9994201660156 L 626.59423828125 292.342041015625 L 638.3942260742188 292.6781005859375 L 650.435302734375 293.0064392089844 L 662.7544555664062 293.3258056640625 L 675.388916015625 293.63507080078125 L 688.3756713867188 293.9330139160156 L 701.7518920898438 294.21844482421875 L 715.5545654296875 294.49017333984375 L 729.8208618164062 294.7470397949219 L 744.5878295898438 294.98779296875 L 759.892578125 295.2112731933594 L 775.7721557617188 295.4162902832031 L 792.263671875 295.6016540527344 L 809.4042358398438 295.7661437988281 L 827.2308959960938 295.90863037109375 L 845.7808227539062 296.0278625488281 L 865.0910034179688 296.1226806640625 L 885.1985473632812 296.1918640136719 L 906.1405639648438 296.2342529296875 L 927.9541015625 296.2486572265625 L 927.9541015625 296.2486572265625 L 927.9541015625 198.3754119873047 L 927.9541015625 198.3754119873047 L 906.1405639648438 198.36102294921875 L 885.1985473632812 198.31861877441406 L 865.0910034179688 198.24942016601562 L 845.7808227539062 198.15460205078125 L 827.2308959960938 198.03536987304688 L 809.4042358398438 197.8928985595703 L 792.263671875 197.7283935546875 L 775.7721557617188 197.54302978515625 L 759.892578125 197.33802795410156 L 744.5878295898438 197.11453247070312 L 729.8208618164062 196.873779296875 L 715.5545654296875 196.616943359375 L 701.7518920898438 196.34521484375 L 688.3756713867188 196.0597686767578 L 675.388916015625 195.76182556152344 L 662.7544555664062 195.45257568359375 L 650.435302734375 195.1331787109375 L 638.3942260742188 194.8048553466797 L 626.59423828125 194.4687957763672 L 614.998291015625 194.1261749267578 L 603.5691528320312 193.77818298339844 L 592.2698974609375 193.42604064941406 L 581.0632934570312 193.07090759277344 L 569.912353515625 192.7139892578125 L 558.7799682617188 192.35647583007812 L 547.6290283203125 191.99957275390625 L 536.4224243164062 191.64443969726562 L 525.1231079101562 191.2922821044922 L 513.6940307617188 190.94430541992188 L 502.0980529785156 190.6016845703125 L 490.2980651855469 190.265625 L 478.25701904296875 189.9373016357422 L 465.9378356933594 189.61790466308594 L 453.3033752441406 189.3086395263672 L 440.3166198730469 189.0106964111328 L 426.9404296875 188.7252655029297 L 413.1377258300781 188.4535369873047 L 398.8714294433594 188.1967010498047 L 384.1044921875 187.9559326171875 L 368.79974365234375 187.73245239257812 L 352.920166015625 187.52743530273438 L 336.4286193847656 187.3420867919922 L 319.2880554199219 187.1775665283203 L 301.4613952636719 187.0351104736328 L 282.9114990234375 186.91586303710938 L 263.601318359375 186.82106018066406 L 243.4937744140625 186.75184631347656 L 222.5517578125 186.70945739746094 L 200.73818969726562 186.695068359375 Z" fill-opacity="0.6" clip-path="url(#QXgrrTdIrulq)" stroke-opacity="1" stroke-linejoin="bevel" stroke-miterlimit="10" stroke-width="0.8" stroke-dasharray=""/><path fill="rgb(31,119,180)" stroke="rgb(0,0,0)" paint-order="fill" d="M 189.49258422851562 390.8997497558594 L 200.73818969726562 390.8997497558594 L 200.73818969726562 488.7729797363281 L 189.49258422851562 488.7729797363281 L 189.49258422851562 390.8997497558594" fill-opacity="0.9019607843137255" clip-path="url(#qESDrqvBlfVT)" stroke-opacity="0.2" stroke-linejoin="bevel" stroke-miterlimit="10" stroke-width="0.5" stroke-dasharray=""/><path fill="rgb(174,199,232)" stroke="rgb(0,0,0)" paint-order="fill" d="M 189.49258422851562 644.041015625 L 200.73818969726562 644.041015625 L 200.73818969726562 839.7875366210938 L 189.49258422851562 839.7875366210938 L 189.49258422851562 644.041015625" fill-opacity="0.9019607843137255" clip-path="url(#qESDrqvBlfVT)" stroke-opacity="0.2" stroke-linejoin="bevel" stroke-miterlimit="10" stroke-width="0.5" stroke-dasharray=""/><path fill="rgb(255,127,14)" stroke="rgb(0,0,0)" paint-order="fill" d="M 189.49258422851562 133.52935791015625 L 200.73818969726562 133.52935791015625 L 200.73818969726562 182.46597290039062 L 189.49258422851562 182.46597290039062 L 189.49258422851562 133.52935791015625" fill-opacity="0.9019607843137255" clip-path="url(#qESDrqvBlfVT)" stroke-opacity="0.2" stroke-linejoin="bevel" stroke-miterlimit="10" stroke-width="0.5" stroke-dasharray=""/><path fill="rgb(255,187,120)" stroke="rgb(0,0,0)" paint-order="fill" d="M 189.49258422851562 288.7973937988281 L 200.73818969726562 288.7973937988281 L 200.73818969726562 386.670654296875 L 189.49258422851562 386.670654296875 L 189.49258422851562 288.7973937988281" fill-opacity="0.9019607843137255" clip-path="url(#qESDrqvBlfVT)" stroke-opacity="0.2" stroke-linejoin="bevel" stroke-miterlimit="10" stroke-width="0.5" stroke-dasharray=""/><path fill="rgb(44,160,44)" stroke="rgb(0,0,0)" paint-order="fill" d="M 189.49258422851562 493.0020751953125 L 200.73818969726562 493.0020751953125 L 200.73818969726562 639.8119506835938 L 189.49258422851562 639.8119506835938 L 189.49258422851562 493.0020751953125" fill-opacity="0.9019607843137255" clip-path="url(#qESDrqvBlfVT)" stroke-opacity="0.2" stroke-linejoin="bevel" stroke-miterlimit="10" stroke-width="0.5" stroke-dasharray=""/><path fill="rgb(152,223,138)" stroke="rgb(0,0,0)" paint-order="fill" d="M 189.49258422851562 80.36363983154297 L 200.73818969726562 80.36363983154297 L 200.73818969726562 129.30026245117188 L 189.49258422851562 129.30026245117188 L 189.49258422851562 80.36363983154297" fill-opacity="0.9019607843137255" clip-path="url(#qESDrqvBlfVT)" stroke-opacity="0.2" stroke-linejoin="bevel" stroke-miterlimit="10" stroke-width="0.5" stroke-dasharray=""/><path fill="rgb(214,39,40)" stroke="rgb(0,0,0)" paint-order="fill" d="M 189.49258422851562 844.0166015625 L 200.73818969726562 844.0166015625 L 200.73818969726562 1137.6363525390625 L 189.49258422851562 1137.6363525390625 L 189.49258422851562 844.0166015625" fill-opacity="0.9019607843137255" clip-path="url(#qESDrqvBlfVT)" stroke-opacity="0.2" stroke-linejoin="bevel" stroke-miterlimit="10" stroke-width="0.5" stroke-dasharray=""/><path fill="rgb(255,152,150)" stroke="rgb(0,0,0)" paint-order="fill" d="M 189.49258422851562 186.695068359375 L 200.73818969726562 186.695068359375 L 200.73818969726562 284.56829833984375 L 189.49258422851562 284.56829833984375 L 189.49258422851562 186.695068359375" fill-opacity="0.9019607843137255" clip-path="url(#qESDrqvBlfVT)" stroke-opacity="0.2" stroke-linejoin="bevel" stroke-miterlimit="10" stroke-width="0.5" stroke-dasharray=""/><path fill="rgb(148,103,189)" stroke="rgb(0,0,0)" paint-order="fill" d="M 927.9541015625 100.50216674804688 L 939.19970703125 100.50216674804688 L 939.19970703125 1128.1712646484375 L 927.9541015625 1128.1712646484375 L 927.9541015625 100.50216674804688" fill-opacity="0.9019607843137255" clip-path="url(#qESDrqvBlfVT)" stroke-opacity="0.2" stroke-linejoin="bevel" stroke-miterlimit="10" stroke-width="0.5" stroke-dasharray=""/><g clip-path="url(#GnKRGRTrDERF)"><text fill="rgb(0,0,0)" stroke="none" font-family="helvetica" font-size="8pt" font-style="normal" font-weight="normal" text-decoration="normal" x="0" y="0" text-anchor="end" dominant-baseline="central" transform="matrix(1, 0, 0, 1, 186.68118286132812, 439.83636474609375)" fill-opacity="1">2015 - 2</text></g><g clip-path="url(#GnKRGRTrDERF)"><text fill="rgb(0,0,0)" stroke="none" font-family="helvetica" font-size="8pt" font-style="normal" font-weight="normal" text-decoration="normal" x="0" y="0" text-anchor="end" dominant-baseline="central" transform="matrix(1, 0, 0, 1, 186.68118286132812, 741.914306640625)" fill-opacity="1">2016 - 4</text></g><g clip-path="url(#GnKRGRTrDERF)"><text fill="rgb(0,0,0)" stroke="none" font-family="helvetica" font-size="8pt" font-style="normal" font-weight="normal" text-decoration="normal" x="0" y="0" text-anchor="end" dominant-baseline="central" transform="matrix(1, 0, 0, 1, 186.68118286132812, 157.99766540527344)" fill-opacity="1">2017 - 1</text></g><g clip-path="url(#GnKRGRTrDERF)"><text fill="rgb(0,0,0)" stroke="none" font-family="helvetica" font-size="8pt" font-style="normal" font-weight="normal" text-decoration="normal" x="0" y="0" text-anchor="end" dominant-baseline="central" transform="matrix(1, 0, 0, 1, 186.68118286132812, 337.7340393066406)" fill-opacity="1">2018 - 2</text></g><g clip-path="url(#GnKRGRTrDERF)"><text fill="rgb(0,0,0)" stroke="none" font-family="helvetica" font-size="8pt" font-style="normal" font-weight="normal" text-decoration="normal" x="0" y="0" text-anchor="end" dominant-baseline="central" transform="matrix(1, 0, 0, 1, 186.68118286132812, 566.4070434570312)" fill-opacity="1">2019 - 3</text></g><g clip-path="url(#GnKRGRTrDERF)"><text fill="rgb(0,0,0)" stroke="none" font-family="helvetica" font-size="8pt" font-style="normal" font-weight="normal" text-decoration="normal" x="0" y="0" text-anchor="end" dominant-baseline="central" transform="matrix(1, 0, 0, 1, 186.68118286132812, 104.83194732666016)" fill-opacity="1">2020 - 1</text></g><g clip-path="url(#GnKRGRTrDERF)"><text fill="rgb(0,0,0)" stroke="none" font-family="helvetica" font-size="8pt" font-style="normal" font-weight="normal" text-decoration="normal" x="0" y="0" text-anchor="end" dominant-baseline="central" transform="matrix(1, 0, 0, 1, 186.68118286132812, 990.8264770507812)" fill-opacity="1">2021 - 6</text></g><g clip-path="url(#GnKRGRTrDERF)"><text fill="rgb(0,0,0)" stroke="none" font-family="helvetica" font-size="8pt" font-style="normal" font-weight="normal" text-decoration="normal" x="0" y="0" text-anchor="end" dominant-baseline="central" transform="matrix(1, 0, 0, 1, 186.68118286132812, 235.63168334960938)" fill-opacity="1">2022 - 2</text></g><g clip-path="url(#GnKRGRTrDERF)"><text fill="rgb(0,0,0)" stroke="none" font-family="helvetica" font-size="8pt" font-style="normal" font-weight="normal" text-decoration="normal" x="0" y="0" text-anchor="end" dominant-baseline="central" transform="matrix(1, 0, 0, 1, 925.1427001953125, 614.3367309570312)" fill-opacity="1">New Shepard - 21</text></g><text fill="rgb(68,68,68)" stroke="none" font-family="helvetica" font-size="13px" font-style="normal" font-weight="bold" text-decoration="normal" x="10" y="19.1689453125" text-anchor="start" dominant-baseline="alphabetic" transform="matrix(1, 0, 0, 1, 0.5, 0.5)" fill-opacity="1">Blue Origin Rocket Successes</text></svg>