<svg version="1.1" xmlns="http://www.w3.org/2000/svg" width="1000" height="1200"><defs><clipPath id="hTpTTWqqPTfT"><path fill="none" stroke="none" d="M 10.5 27.5 L 970.5 27.5 L 970.5 1190.5 L 10.5 1190.5 L 10.5 27.5"/></clipPath><clipPath id="TFpRFdiaNzws"><path fill="none" stroke="none" d="M 10.5 27.5 L 970.5 27.5 L 970.5 1190.5 L 10.5 1190.5 L 10.5 27.5"/></clipPath><clipPath id="IDwtdofZXCNA"><path fill="none" stroke="none" d="M 10.5 27.5 L 970.5 27.5 L 970.5 1190.5 L 10.5 1190.5 L 10.5 27.5"/></clipPath><clipPath id="TlhTIwshuWXS"><path fill="none" stroke="none" d="M 10.5 27.5 L 970.5 27.5 L 970.5 1190.5 L 10.5 1190.5 L 10.5 27.5"/></clipPath><clipPath id="dHUTbqibGsFP"><path fill="none" stroke="none" d="M 10.5 27.5 L 970.5 27.5 L 970.5 1190.5 L 10.5 1190.5 L 10.5 27.5"/></clipPath><clipPath id="zrKeoJpDpThI"><path fill="none" stroke="none" d="M 10.5 27.5 L 970.5 27.5 L 970.5 1190.5 L 10.5 1190.5 L 10.5 27.5"/></clipPath></defs><path fill="rgb(255,255,255)" stroke="none" paint-order="stroke" d="M 0.5 0.5 L 1000.5 0.5 L 1000.5 1200.5 L 0.5 1200.5 L 0.5 0.5" fill-opacity="1"/><rect fill="#FFFFFF" stroke="none" x="10" y="27" width="960" height="1163" transform="matrix(1, 0, 0, 1, 0.5, 0.5)"/><path fill="rgb(255,250,250)" stroke="none" paint-order="stroke" d="M 10.5 27.5 L 970.5 27.5 L 970.5 1190.5 L 10.5 1190.5 L 10.5 27.5" fill-opacity="1"/><path fill="rgb(197,176,213)" stroke="rgb(197,176,213)" paint-order="fill" d="M 200.73818969726562 527.9424438476562 L 200.73818969726562 613.2290649414062 L 200.73818969726562 613.2290649414062 L 222.5517578125 613.227783203125 L 243.4937744140625 613.2239379882812 L 263.601318359375 613.2177124023438 L 282.9114990234375 613.2091064453125 L 301.4613952636719 613.1983032226562 L 319.2880554199219 613.1854248046875 L 336.4286193847656 613.1705322265625 L 352.920166015625 613.1537475585938 L 368.79974365234375 613.1351928710938 L 384.1044921875 613.114990234375 L 398.8714294433594 613.0931396484375 L 413.1377258300781 613.0699462890625 L 426.9404296875 613.0453491210938 L 440.3166198730469 613.0194702148438 L 453.3033752441406 612.9924926757812 L 465.9378356933594 612.9645385742188 L 478.25701904296875 612.9356079101562 L 490.2980651855469 612.9058837890625 L 502.0980529785156 612.87548828125 L 513.6940307617188 612.844482421875 L 525.1231079101562 612.81298828125 L 536.4224243164062 612.7810668945312 L 547.6290283203125 612.7489624023438 L 558.7799682617188 612.7166137695312 L 569.912353515625 612.6842651367188 L 581.0632934570312 612.6519775390625 L 592.2698974609375 612.6198120117188 L 603.5691528320312 612.5879516601562 L 614.998291015625 612.5564575195312 L 626.59423828125 612.5254516601562 L 638.3942260742188 612.4949951171875 L 650.435302734375 612.4652709960938 L 662.7544555664062 612.4364013671875 L 675.388916015625 612.4083862304688 L 688.3756713867188 612.3814086914062 L 701.7518920898438 612.3555908203125 L 715.5545654296875 612.3309936523438 L 729.8208618164062 612.3077392578125 L 744.5878295898438 612.2859497070312 L 759.892578125 612.2657470703125 L 775.7721557617188 612.2471923828125 L 792.263671875 612.2304077148438 L 809.4042358398438 612.2155151367188 L 827.2308959960938 612.2025756835938 L 845.7808227539062 612.1918334960938 L 865.0910034179688 612.1832275390625 L 885.1985473632812 612.1769409179688 L 906.1405639648438 612.173095703125 L 927.9541015625 612.1718139648438 L 927.9541015625 612.1718139648438 L 927.9541015625 526.8851318359375 L 927.9541015625 526.8851318359375 L 906.1405639648438 526.886474609375 L 885.1985473632812 526.8903198242188 L 865.0910034179688 526.8965454101562 L 845.7808227539062 526.9051513671875 L 827.2308959960938 526.9159545898438 L 809.4042358398438 526.9288330078125 L 792.263671875 526.9437255859375 L 775.7721557617188 526.9605102539062 L 759.892578125 526.9790649414062 L 744.5878295898438 526.999267578125 L 729.8208618164062 527.0210571289062 L 715.5545654296875 527.0443115234375 L 701.7518920898438 527.0689086914062 L 688.3756713867188 527.0947265625 L 675.388916015625 527.1217041015625 L 662.7544555664062 527.1497192382812 L 650.435302734375 527.1786499023438 L 638.3942260742188 527.2083740234375 L 626.59423828125 527.23876953125 L 614.998291015625 527.269775390625 L 603.5691528320312 527.30126953125 L 592.2698974609375 527.3331298828125 L 581.0632934570312 527.3652954101562 L 569.912353515625 527.3975830078125 L 558.7799682617188 527.4299926757812 L 547.6290283203125 527.4622802734375 L 536.4224243164062 527.4944458007812 L 525.1231079101562 527.5263061523438 L 513.6940307617188 527.5578002929688 L 502.0980529785156 527.5888061523438 L 490.2980651855469 527.6192016601562 L 478.25701904296875 527.64892578125 L 465.9378356933594 527.6778564453125 L 453.3033752441406 527.7058715820312 L 440.3166198730469 527.7328491210938 L 426.9404296875 527.7586669921875 L 413.1377258300781 527.7832641601562 L 398.8714294433594 527.8065185546875 L 384.1044921875 527.8283081054688 L 368.79974365234375 527.8485107421875 L 352.920166015625 527.8670654296875 L 336.4286193847656 527.8838500976562 L 319.2880554199219 527.8987426757812 L 301.4613952636719 527.91162109375 L 282.9114990234375 527.9224243164062 L 263.601318359375 527.9310302734375 L 243.4937744140625 527.937255859375 L 222.5517578125 527.9411010742188 L 200.73818969726562 527.9424438476562 Z" fill-opacity="0.6" clip-path="url(#IDwtdofZXCNA)" stroke-opacity="1" stroke-linejoin="bevel" stroke-miterlimit="10" stroke-width="0.8" stroke-dasharray=""/><path fill="rgb(197,176,213)" stroke="rgb(197,176,213)" paint-order="fill" d="M 200.73818969726562 967.0630493164062 L 200.73818969726562 1137.6363525390625 L 200.73818969726562 1137.6363525390625 L 222.5517578125 1137.619384765625 L 243.4937744140625 1137.569580078125 L 263.601318359375 1137.4881591796875 L 282.9114990234375 1137.3765869140625 L 301.4613952636719 1137.2362060546875 L 319.2880554199219 1137.068603515625 L 336.4286193847656 1136.875 L 352.920166015625 1136.6568603515625 L 368.79974365234375 1136.4156494140625 L 384.1044921875 1136.1527099609375 L 398.8714294433594 1135.869384765625 L 413.1377258300781 1135.567138671875 L 426.9404296875 1135.247314453125 L 440.3166198730469 1134.9114990234375 L 453.3033752441406 1134.5609130859375 L 465.9378356933594 1134.197021484375 L 478.25701904296875 1133.8211669921875 L 490.2980651855469 1133.434814453125 L 502.0980529785156 1133.039306640625 L 513.6940307617188 1132.63623046875 L 525.1231079101562 1132.2266845703125 L 536.4224243164062 1131.8123779296875 L 547.6290283203125 1131.3944091796875 L 558.7799682617188 1130.9744873046875 L 569.912353515625 1130.5537109375 L 581.0632934570312 1130.1337890625 L 592.2698974609375 1129.7158203125 L 603.5691528320312 1129.301513671875 L 614.998291015625 1128.8919677734375 L 626.59423828125 1128.4888916015625 L 638.3942260742188 1128.0933837890625 L 650.435302734375 1127.70703125 L 662.7544555664062 1127.3311767578125 L 675.388916015625 1126.96728515625 L 688.3756713867188 1126.61669921875 L 701.7518920898438 1126.28076171875 L 715.5545654296875 1125.9610595703125 L 729.8208618164062 1125.6588134765625 L 744.5878295898438 1125.37548828125 L 759.892578125 1125.112548828125 L 775.7721557617188 1124.871337890625 L 792.263671875 1124.6531982421875 L 809.4042358398438 1124.4595947265625 L 827.2308959960938 1124.2919921875 L 845.7808227539062 1124.151611328125 L 865.0910034179688 1124.0400390625 L 885.1985473632812 1123.9586181640625 L 906.1405639648438 1123.9088134765625 L 927.9541015625 1123.891845703125 L 927.9541015625 1123.891845703125 L 927.9541015625 953.3184814453125 L 927.9541015625 953.3184814453125 L 906.1405639648438 953.33544921875 L 885.1985473632812 953.3853149414062 L 865.0910034179688 953.4667358398438 L 845.7808227539062 953.5783081054688 L 827.2308959960938 953.7186279296875 L 809.4042358398438 953.8862915039062 L 792.263671875 954.079833984375 L 775.7721557617188 954.2979736328125 L 759.892578125 954.5391845703125 L 744.5878295898438 954.8021850585938 L 729.8208618164062 955.0855102539062 L 715.5545654296875 955.3876953125 L 701.7518920898438 955.7074584960938 L 688.3756713867188 956.0433349609375 L 675.388916015625 956.3939208984375 L 662.7544555664062 956.7578735351562 L 650.435302734375 957.1336669921875 L 638.3942260742188 957.52001953125 L 626.59423828125 957.91552734375 L 614.998291015625 958.3186645507812 L 603.5691528320312 958.7281494140625 L 592.2698974609375 959.1425170898438 L 581.0632934570312 959.5604248046875 L 569.912353515625 959.9804077148438 L 558.7799682617188 960.401123046875 L 547.6290283203125 960.8211059570312 L 536.4224243164062 961.239013671875 L 525.1231079101562 961.6533813476562 L 513.6940307617188 962.0628662109375 L 502.0980529785156 962.4660034179688 L 490.2980651855469 962.8614501953125 L 478.25701904296875 963.247802734375 L 465.9378356933594 963.6236572265625 L 453.3033752441406 963.987548828125 L 440.3166198730469 964.338134765625 L 426.9404296875 964.6740112304688 L 413.1377258300781 964.9937744140625 L 398.8714294433594 965.2960205078125 L 384.1044921875 965.579345703125 L 368.79974365234375 965.84228515625 L 352.920166015625 966.0835571289062 L 336.4286193847656 966.3016967773438 L 319.2880554199219 966.4952392578125 L 301.4613952636719 966.6629028320312 L 282.9114990234375 966.80322265625 L 263.601318359375 966.914794921875 L 243.4937744140625 966.9962158203125 L 222.5517578125 967.0460815429688 L 200.73818969726562 967.0630493164062 Z" fill-opacity="0.6" clip-path="url(#IDwtdofZXCNA)" stroke-opacity="1" stroke-linejoin="bevel" stroke-miterlimit="10" stroke-width="0.8" stroke-dasharray=""/><path fill="rgb(197,176,213)" stroke="rgb(197,176,213)" paint-order="fill" d="M 200.73818969726562 792.2606201171875 L 200.73818969726562 962.8339233398438 L 200.73818969726562 962.8339233398438 L 222.5517578125 962.8222045898438 L 243.4937744140625 962.7876586914062 L 263.601318359375 962.7313232421875 L 282.9114990234375 962.654052734375 L 301.4613952636719 962.5569458007812 L 319.2880554199219 962.4408569335938 L 336.4286193847656 962.3068237304688 L 352.920166015625 962.1558227539062 L 368.79974365234375 961.9888305664062 L 384.1044921875 961.8067626953125 L 398.8714294433594 961.6106567382812 L 413.1377258300781 961.4013671875 L 426.9404296875 961.1800537109375 L 440.3166198730469 960.947509765625 L 453.3033752441406 960.7047729492188 L 465.9378356933594 960.4528198242188 L 478.25701904296875 960.192626953125 L 490.2980651855469 959.9251708984375 L 502.0980529785156 959.6513671875 L 513.6940307617188 959.3722534179688 L 525.1231079101562 959.0888061523438 L 536.4224243164062 958.8018798828125 L 547.6290283203125 958.5125732421875 L 558.7799682617188 958.2218627929688 L 569.912353515625 957.9306030273438 L 581.0632934570312 957.6398315429688 L 592.2698974609375 957.3505249023438 L 603.5691528320312 957.0636596679688 L 614.998291015625 956.7801513671875 L 626.59423828125 956.5010375976562 L 638.3942260742188 956.2272338867188 L 650.435302734375 955.9597778320312 L 662.7544555664062 955.6995849609375 L 675.388916015625 955.4476318359375 L 688.3756713867188 955.2049560546875 L 701.7518920898438 954.972412109375 L 715.5545654296875 954.7510375976562 L 729.8208618164062 954.5418090820312 L 744.5878295898438 954.3456420898438 L 759.892578125 954.16357421875 L 775.7721557617188 953.99658203125 L 792.263671875 953.8455810546875 L 809.4042358398438 953.7115478515625 L 827.2308959960938 953.5955200195312 L 845.7808227539062 953.4983520507812 L 865.0910034179688 953.421142578125 L 885.1985473632812 953.36474609375 L 906.1405639648438 953.3302001953125 L 927.9541015625 953.3184814453125 L 927.9541015625 953.3184814453125 L 927.9541015625 782.7451782226562 L 927.9541015625 782.7451782226562 L 906.1405639648438 782.7568969726562 L 885.1985473632812 782.7914428710938 L 865.0910034179688 782.8477783203125 L 845.7808227539062 782.925048828125 L 827.2308959960938 783.0221557617188 L 809.4042358398438 783.1382446289062 L 792.263671875 783.272216796875 L 775.7721557617188 783.4232788085938 L 759.892578125 783.5902709960938 L 744.5878295898438 783.7723388671875 L 729.8208618164062 783.9684448242188 L 715.5545654296875 784.1776733398438 L 701.7518920898438 784.3990478515625 L 688.3756713867188 784.631591796875 L 675.388916015625 784.8743286132812 L 662.7544555664062 785.1262817382812 L 650.435302734375 785.386474609375 L 638.3942260742188 785.6539306640625 L 626.59423828125 785.9276733398438 L 614.998291015625 786.206787109375 L 603.5691528320312 786.4902954101562 L 592.2698974609375 786.7771606445312 L 581.0632934570312 787.0664672851562 L 569.912353515625 787.3572387695312 L 558.7799682617188 787.6484985351562 L 547.6290283203125 787.9392700195312 L 536.4224243164062 788.2285766601562 L 525.1231079101562 788.5154418945312 L 513.6940307617188 788.7989501953125 L 502.0980529785156 789.0780639648438 L 490.2980651855469 789.351806640625 L 478.25701904296875 789.6193237304688 L 465.9378356933594 789.8795166015625 L 453.3033752441406 790.1314697265625 L 440.3166198730469 790.3741455078125 L 426.9404296875 790.606689453125 L 413.1377258300781 790.8280639648438 L 398.8714294433594 791.0372924804688 L 384.1044921875 791.2334594726562 L 368.79974365234375 791.4154663085938 L 352.920166015625 791.58251953125 L 336.4286193847656 791.7335205078125 L 319.2880554199219 791.8675537109375 L 301.4613952636719 791.9835815429688 L 282.9114990234375 792.0807495117188 L 263.601318359375 792.157958984375 L 243.4937744140625 792.21435546875 L 222.5517578125 792.2489013671875 L 200.73818969726562 792.2606201171875 Z" fill-opacity="0.6" clip-path="url(#IDwtdofZXCNA)" stroke-opacity="1" stroke-linejoin="bevel" stroke-miterlimit="10" stroke-width="0.8" stroke-dasharray=""/><path fill="rgb(197,176,213)" stroke="rgb(197,176,213)" paint-order="fill" d="M 200.73818969726562 438.4266662597656 L 200.73818969726562 523.7133178710938 L 200.73818969726562 523.7133178710938 L 222.5517578125 523.7172241210938 L 243.4937744140625 523.728759765625 L 263.601318359375 523.74755859375 L 282.9114990234375 523.7733154296875 L 301.4613952636719 523.8056640625 L 319.2880554199219 523.8443603515625 L 336.4286193847656 523.8890380859375 L 352.920166015625 523.9393920898438 L 368.79974365234375 523.9950561523438 L 384.1044921875 524.0557250976562 L 398.8714294433594 524.12109375 L 413.1377258300781 524.1908569335938 L 426.9404296875 524.2646484375 L 440.3166198730469 524.3421630859375 L 453.3033752441406 524.4230346679688 L 465.9378356933594 524.5070190429688 L 478.25701904296875 524.59375 L 490.2980651855469 524.6829223632812 L 502.0980529785156 524.774169921875 L 513.6940307617188 524.8672485351562 L 525.1231079101562 524.9617309570312 L 536.4224243164062 525.057373046875 L 547.6290283203125 525.15380859375 L 558.7799682617188 525.2506713867188 L 569.912353515625 525.3477783203125 L 581.0632934570312 525.4447021484375 L 592.2698974609375 525.5411376953125 L 603.5691528320312 525.6367797851562 L 614.998291015625 525.7312622070312 L 626.59423828125 525.8242797851562 L 638.3942260742188 525.9155883789062 L 650.435302734375 526.0046997070312 L 662.7544555664062 526.0914306640625 L 675.388916015625 526.1754150390625 L 688.3756713867188 526.25634765625 L 701.7518920898438 526.3338623046875 L 715.5545654296875 526.4076538085938 L 729.8208618164062 526.4773559570312 L 744.5878295898438 526.5427856445312 L 759.892578125 526.6034545898438 L 775.7721557617188 526.6591186523438 L 792.263671875 526.70947265625 L 809.4042358398438 526.754150390625 L 827.2308959960938 526.7927856445312 L 845.7808227539062 526.8251953125 L 865.0910034179688 526.8509521484375 L 885.1985473632812 526.8697509765625 L 906.1405639648438 526.8812255859375 L 927.9541015625 526.8851318359375 L 927.9541015625 526.8851318359375 L 927.9541015625 441.5984802246094 L 927.9541015625 441.5984802246094 L 906.1405639648438 441.5945739746094 L 885.1985473632812 441.58306884765625 L 865.0910034179688 441.56427001953125 L 845.7808227539062 441.53851318359375 L 827.2308959960938 441.5061340332031 L 809.4042358398438 441.46746826171875 L 792.263671875 441.42279052734375 L 775.7721557617188 441.3724670410156 L 759.892578125 441.3167724609375 L 744.5878295898438 441.256103515625 L 729.8208618164062 441.1907043457031 L 715.5545654296875 441.1209716796875 L 701.7518920898438 441.04718017578125 L 688.3756713867188 440.96966552734375 L 675.388916015625 440.8887634277344 L 662.7544555664062 440.8047790527344 L 650.435302734375 440.7180480957031 L 638.3942260742188 440.62890625 L 626.59423828125 440.5376281738281 L 614.998291015625 440.4446105957031 L 603.5691528320312 440.35009765625 L 592.2698974609375 440.2544860839844 L 581.0632934570312 440.1580505371094 L 569.912353515625 440.0611267089844 L 558.7799682617188 439.9640197753906 L 547.6290283203125 439.86712646484375 L 536.4224243164062 439.77069091796875 L 525.1231079101562 439.675048828125 L 513.6940307617188 439.58056640625 L 502.0980529785156 439.4875183105469 L 490.2980651855469 439.3962707519531 L 478.25701904296875 439.3070983886719 L 465.9378356933594 439.2203674316406 L 453.3033752441406 439.1363830566406 L 440.3166198730469 439.05548095703125 L 426.9404296875 438.97796630859375 L 413.1377258300781 438.9041748046875 L 398.8714294433594 438.8344421386719 L 384.1044921875 438.7690734863281 L 368.79974365234375 438.7083740234375 L 352.920166015625 438.6527099609375 L 336.4286193847656 438.60235595703125 L 319.2880554199219 438.55767822265625 L 301.4613952636719 438.5190124511719 L 282.9114990234375 438.48663330078125 L 263.601318359375 438.46087646484375 L 243.4937744140625 438.44207763671875 L 222.5517578125 438.4305725097656 L 200.73818969726562 438.4266662597656 Z" fill-opacity="0.6" clip-path="url(#IDwtdofZXCNA)" stroke-opacity="1" stroke-linejoin="bevel" stroke-miterlimit="10" stroke-width="0.8" stroke-dasharray=""/><path fill="rgb(197,176,213)" stroke="rgb(197,176,213)" paint-order="fill" d="M 200.73818969726562 617.4581909179688 L 200.73818969726562 788.031494140625 L 200.73818969726562 788.031494140625 L 222.5517578125 788.0250244140625 L 243.4937744140625 788.0057983398438 L 263.601318359375 787.9744873046875 L 282.9114990234375 787.9315795898438 L 301.4613952636719 787.8776245117188 L 319.2880554199219 787.8131103515625 L 336.4286193847656 787.7387084960938 L 352.920166015625 787.65478515625 L 368.79974365234375 787.56201171875 L 384.1044921875 787.4608764648438 L 398.8714294433594 787.3519287109375 L 413.1377258300781 787.2356567382812 L 426.9404296875 787.1126708984375 L 440.3166198730469 786.9834594726562 L 453.3033752441406 786.8486328125 L 465.9378356933594 786.7086791992188 L 478.25701904296875 786.5641479492188 L 490.2980651855469 786.41552734375 L 502.0980529785156 786.263427734375 L 513.6940307617188 786.1083374023438 L 525.1231079101562 785.9508666992188 L 536.4224243164062 785.79150390625 L 547.6290283203125 785.6307983398438 L 558.7799682617188 785.46923828125 L 569.912353515625 785.3074340820312 L 581.0632934570312 785.1458740234375 L 592.2698974609375 784.9851684570312 L 603.5691528320312 784.8258056640625 L 614.998291015625 784.6682739257812 L 626.59423828125 784.5132446289062 L 638.3942260742188 784.3611450195312 L 650.435302734375 784.2125244140625 L 662.7544555664062 784.0679931640625 L 675.388916015625 783.9280395507812 L 688.3756713867188 783.7931518554688 L 701.7518920898438 783.6640014648438 L 715.5545654296875 783.541015625 L 729.8208618164062 783.4247436523438 L 744.5878295898438 783.3157958984375 L 759.892578125 783.2146606445312 L 775.7721557617188 783.1218872070312 L 792.263671875 783.0379638671875 L 809.4042358398438 782.9635009765625 L 827.2308959960938 782.8990478515625 L 845.7808227539062 782.8450927734375 L 865.0910034179688 782.8021850585938 L 885.1985473632812 782.7708740234375 L 906.1405639648438 782.7516479492188 L 927.9541015625 782.7451782226562 L 927.9541015625 782.7451782226562 L 927.9541015625 612.1718139648438 L 927.9541015625 612.1718139648438 L 906.1405639648438 612.1783447265625 L 885.1985473632812 612.197509765625 L 865.0910034179688 612.2288208007812 L 845.7808227539062 612.271728515625 L 827.2308959960938 612.3257446289062 L 809.4042358398438 612.3901977539062 L 792.263671875 612.4646606445312 L 775.7721557617188 612.5485229492188 L 759.892578125 612.6412963867188 L 744.5878295898438 612.7424926757812 L 729.8208618164062 612.8514404296875 L 715.5545654296875 612.9676513671875 L 701.7518920898438 613.0906372070312 L 688.3756713867188 613.2198486328125 L 675.388916015625 613.3546752929688 L 662.7544555664062 613.49462890625 L 650.435302734375 613.6392211914062 L 638.3942260742188 613.7877807617188 L 626.59423828125 613.9398803710938 L 614.998291015625 614.094970703125 L 603.5691528320312 614.25244140625 L 592.2698974609375 614.411865234375 L 581.0632934570312 614.5725708007812 L 569.912353515625 614.7340698242188 L 558.7799682617188 614.8958740234375 L 547.6290283203125 615.0574340820312 L 536.4224243164062 615.2181396484375 L 525.1231079101562 615.3775634765625 L 513.6940307617188 615.5350341796875 L 502.0980529785156 615.6901245117188 L 490.2980651855469 615.8422241210938 L 478.25701904296875 615.9907836914062 L 465.9378356933594 616.1353149414062 L 453.3033752441406 616.2753295898438 L 440.3166198730469 616.41015625 L 426.9404296875 616.5393676757812 L 413.1377258300781 616.6622924804688 L 398.8714294433594 616.778564453125 L 384.1044921875 616.8875122070312 L 368.79974365234375 616.9886474609375 L 352.920166015625 617.0814819335938 L 336.4286193847656 617.1653442382812 L 319.2880554199219 617.2398071289062 L 301.4613952636719 617.3042602539062 L 282.9114990234375 617.3582763671875 L 263.601318359375 617.4011840820312 L 243.4937744140625 617.4324951171875 L 222.5517578125 617.45166015625 L 200.73818969726562 617.4581909179688 Z" fill-opacity="0.6" clip-path="url(#IDwtdofZXCNA)" stroke-opacity="1" stroke-linejoin="bevel" stroke-miterlimit="10" stroke-width="0.8" stroke-dasharray=""/><path fill="rgb(197,176,213)" stroke="rgb(197,176,213)" paint-order="fill" d="M 200.73818969726562 348.9109191894531 L 200.73818969726562 434.19757080078125 L 200.73818969726562 434.19757080078125 L 222.5517578125 434.2066955566406 L 243.4937744140625 434.2335510253906 L 263.601318359375 434.27740478515625 L 282.9114990234375 434.3374938964844 L 301.4613952636719 434.41302490234375 L 319.2880554199219 434.5032958984375 L 336.4286193847656 434.6075439453125 L 352.920166015625 434.7249755859375 L 368.79974365234375 434.8548889160156 L 384.1044921875 434.9964904785156 L 398.8714294433594 435.1490478515625 L 413.1377258300781 435.311767578125 L 426.9404296875 435.48394775390625 L 440.3166198730469 435.6648254394531 L 453.3033752441406 435.8536071777344 L 465.9378356933594 436.049560546875 L 478.25701904296875 436.2519226074219 L 490.2980651855469 436.4599609375 L 502.0980529785156 436.6728820800781 L 513.6940307617188 436.8899841308594 L 525.1231079101562 437.1104736328125 L 536.4224243164062 437.3335876464844 L 547.6290283203125 437.5586242675781 L 558.7799682617188 437.7847595214844 L 569.912353515625 438.01129150390625 L 581.0632934570312 438.2374572753906 L 592.2698974609375 438.46246337890625 L 603.5691528320312 438.6855773925781 L 614.998291015625 438.90606689453125 L 626.59423828125 439.1231689453125 L 638.3942260742188 439.33612060546875 L 650.435302734375 439.54412841796875 L 662.7544555664062 439.74652099609375 L 675.388916015625 439.9424743652344 L 688.3756713867188 440.1312561035156 L 701.7518920898438 440.3121032714844 L 715.5545654296875 440.4842834472656 L 729.8208618164062 440.64703369140625 L 744.5878295898438 440.799560546875 L 759.892578125 440.941162109375 L 775.7721557617188 441.0710754394531 L 792.263671875 441.1885070800781 L 809.4042358398438 441.2927551269531 L 827.2308959960938 441.3830261230469 L 845.7808227539062 441.4585876464844 L 865.0910034179688 441.5186462402344 L 885.1985473632812 441.5625 L 906.1405639648438 441.58935546875 L 927.9541015625 441.5984802246094 L 927.9541015625 441.5984802246094 L 927.9541015625 356.31182861328125 L 927.9541015625 356.31182861328125 L 906.1405639648438 356.3027038574219 L 885.1985473632812 356.2758483886719 L 865.0910034179688 356.23199462890625 L 845.7808227539062 356.1719055175781 L 827.2308959960938 356.09637451171875 L 809.4042358398438 356.006103515625 L 792.263671875 355.90185546875 L 775.7721557617188 355.7843933105469 L 759.892578125 355.6545104980469 L 744.5878295898438 355.5129089355469 L 729.8208618164062 355.3603515625 L 715.5545654296875 355.1976013183594 L 701.7518920898438 355.02545166015625 L 688.3756713867188 354.8445739746094 L 675.388916015625 354.6557922363281 L 662.7544555664062 354.4598388671875 L 650.435302734375 354.2574768066406 L 638.3942260742188 354.0494384765625 L 626.59423828125 353.8365173339844 L 614.998291015625 353.6194152832031 L 603.5691528320312 353.39892578125 L 592.2698974609375 353.17578125 L 581.0632934570312 352.9507751464844 L 569.912353515625 352.7246398925781 L 558.7799682617188 352.49810791015625 L 547.6290283203125 352.2719421386719 L 536.4224243164062 352.04693603515625 L 525.1231079101562 351.82379150390625 L 513.6940307617188 351.6033020019531 L 502.0980529785156 351.38623046875 L 490.2980651855469 351.17327880859375 L 478.25701904296875 350.9652404785156 L 465.9378356933594 350.76287841796875 L 453.3033752441406 350.5669250488281 L 440.3166198730469 350.3781433105469 L 426.9404296875 350.1972961425781 L 413.1377258300781 350.0251159667969 L 398.8714294433594 349.86236572265625 L 384.1044921875 349.7098388671875 L 368.79974365234375 349.5682067871094 L 352.920166015625 349.4383239746094 L 336.4286193847656 349.32086181640625 L 319.2880554199219 349.2166442871094 L 301.4613952636719 349.1263732910156 L 282.9114990234375 349.0508117675781 L 263.601318359375 348.99072265625 L 243.4937744140625 348.9468994140625 L 222.5517578125 348.9200439453125 L 200.73818969726562 348.9109191894531 Z" fill-opacity="0.6" clip-path="url(#IDwtdofZXCNA)" stroke-opacity="1" stroke-linejoin="bevel" stroke-miterlimit="10" stroke-width="0.8" stroke-dasharray=""/><path fill="rgb(197,176,213)" stroke="rgb(197,176,213)" paint-order="fill" d="M 200.73818969726562 259.3951416015625 L 200.73818969726562 344.68182373046875 L 200.73818969726562 344.68182373046875 L 222.5517578125 344.6961669921875 L 243.4937744140625 344.7383728027344 L 263.601318359375 344.8072509765625 L 282.9114990234375 344.90167236328125 L 301.4613952636719 345.0203857421875 L 319.2880554199219 345.1622314453125 L 336.4286193847656 345.3260498046875 L 352.920166015625 345.5105895996094 L 368.79974365234375 345.7147521972656 L 384.1044921875 345.937255859375 L 398.8714294433594 346.1769714355469 L 413.1377258300781 346.4327087402344 L 426.9404296875 346.7032775878906 L 440.3166198730469 346.98748779296875 L 453.3033752441406 347.28411865234375 L 465.9378356933594 347.5920715332031 L 478.25701904296875 347.9100646972656 L 490.2980651855469 348.2369689941406 L 502.0980529785156 348.57159423828125 L 513.6940307617188 348.9127502441406 L 525.1231079101562 349.25921630859375 L 536.4224243164062 349.60986328125 L 547.6290283203125 349.96343994140625 L 558.7799682617188 350.31884765625 L 569.912353515625 350.6748046875 L 581.0632934570312 351.0301818847656 L 592.2698974609375 351.3837890625 L 603.5691528320312 351.7344055175781 L 614.998291015625 352.0809020996094 L 626.59423828125 352.4220275878906 L 638.3942260742188 352.75665283203125 L 650.435302734375 353.08355712890625 L 662.7544555664062 353.4015808105469 L 675.388916015625 353.7095031738281 L 688.3756713867188 354.00616455078125 L 701.7518920898438 354.2903747558594 L 715.5545654296875 354.5609130859375 L 729.8208618164062 354.816650390625 L 744.5878295898438 355.0563659667969 L 759.892578125 355.2789001464844 L 775.7721557617188 355.4830322265625 L 792.263671875 355.6676025390625 L 809.4042358398438 355.8313903808594 L 827.2308959960938 355.9732360839844 L 845.7808227539062 356.09197998046875 L 865.0910034179688 356.1863708496094 L 885.1985473632812 356.2552795410156 L 906.1405639648438 356.2974853515625 L 927.9541015625 356.31182861328125 L 927.9541015625 356.31182861328125 L 927.9541015625 271.025146484375 L 927.9541015625 271.025146484375 L 906.1405639648438 271.01080322265625 L 885.1985473632812 270.9685974121094 L 865.0910034179688 270.89971923828125 L 845.7808227539062 270.8052978515625 L 827.2308959960938 270.68658447265625 L 809.4042358398438 270.54473876953125 L 792.263671875 270.38092041015625 L 775.7721557617188 270.19635009765625 L 759.892578125 269.9922180175781 L 744.5878295898438 269.76971435546875 L 729.8208618164062 269.5299987792969 L 715.5545654296875 269.2742614746094 L 701.7518920898438 269.0036926269531 L 688.3756713867188 268.719482421875 L 675.388916015625 268.4228515625 L 662.7544555664062 268.1148986816406 L 650.435302734375 267.7969055175781 L 638.3942260742188 267.4700012207031 L 626.59423828125 267.1353759765625 L 614.998291015625 266.7942199707031 L 603.5691528320312 266.44775390625 L 592.2698974609375 266.09710693359375 L 581.0632934570312 265.7434997558594 L 569.912353515625 265.38812255859375 L 558.7799682617188 265.03216552734375 L 547.6290283203125 264.6767883300781 L 536.4224243164062 264.32318115234375 L 525.1231079101562 263.9725646972656 L 513.6940307617188 263.6260681152344 L 502.0980529785156 263.2849426269531 L 490.2980651855469 262.9503173828125 L 478.25701904296875 262.6234130859375 L 465.9378356933594 262.3053894042969 L 453.3033752441406 261.9974670410156 L 440.3166198730469 261.7008056640625 L 426.9404296875 261.4165954589844 L 413.1377258300781 261.14605712890625 L 398.8714294433594 260.89031982421875 L 384.1044921875 260.6506042480469 L 368.79974365234375 260.4280700683594 L 352.920166015625 260.22393798828125 L 336.4286193847656 260.03936767578125 L 319.2880554199219 259.8755798339844 L 301.4613952636719 259.7337341308594 L 282.9114990234375 259.614990234375 L 263.601318359375 259.5205993652344 L 243.4937744140625 259.4516906738281 L 222.5517578125 259.40948486328125 L 200.73818969726562 259.3951416015625 Z" fill-opacity="0.6" clip-path="url(#IDwtdofZXCNA)" stroke-opacity="1" stroke-linejoin="bevel" stroke-miterlimit="10" stroke-width="0.8" stroke-dasharray=""/><path fill="rgb(197,176,213)" stroke="rgb(197,176,213)" paint-order="fill" d="M 200.73818969726562 169.87939453125 L 200.73818969726562 255.1660614013672 L 200.73818969726562 255.1660614013672 L 222.5517578125 255.18560791015625 L 243.4937744140625 255.2431640625 L 263.601318359375 255.33712768554688 L 282.9114990234375 255.46585083007812 L 301.4613952636719 255.62774658203125 L 319.2880554199219 255.82118225097656 L 336.4286193847656 256.0445556640625 L 352.920166015625 256.2962188720703 L 368.79974365234375 256.5745849609375 L 384.1044921875 256.8780212402344 L 398.8714294433594 257.2049255371094 L 413.1377258300781 257.55364990234375 L 426.9404296875 257.9225769042969 L 440.3166198730469 258.3101501464844 L 453.3033752441406 258.71466064453125 L 465.9378356933594 259.13458251953125 L 478.25701904296875 259.5682373046875 L 490.2980651855469 260.0140075683594 L 502.0980529785156 260.4703063964844 L 513.6940307617188 260.9355163574219 L 525.1231079101562 261.4079895019531 L 536.4224243164062 261.8861083984375 L 547.6290283203125 262.3682861328125 L 558.7799682617188 262.8529052734375 L 569.912353515625 263.33831787109375 L 581.0632934570312 263.8229064941406 L 592.2698974609375 264.30511474609375 L 603.5691528320312 264.7832336425781 L 614.998291015625 265.2557067871094 L 626.59423828125 265.7209167480469 L 638.3942260742188 266.1772155761719 L 650.435302734375 266.62298583984375 L 662.7544555664062 267.056640625 L 675.388916015625 267.4765319824219 L 688.3756713867188 267.8810729980469 L 701.7518920898438 268.26861572265625 L 715.5545654296875 268.6375732421875 L 729.8208618164062 268.9862976074219 L 744.5878295898438 269.3132019042969 L 759.892578125 269.61663818359375 L 775.7721557617188 269.8949890136719 L 792.263671875 270.14666748046875 L 809.4042358398438 270.3700256347656 L 827.2308959960938 270.5634765625 L 845.7808227539062 270.725341796875 L 865.0910034179688 270.8540954589844 L 885.1985473632812 270.94805908203125 L 906.1405639648438 271.005615234375 L 927.9541015625 271.025146484375 L 927.9541015625 271.025146484375 L 927.9541015625 185.7384796142578 L 927.9541015625 185.7384796142578 L 906.1405639648438 185.71893310546875 L 885.1985473632812 185.661376953125 L 865.0910034179688 185.5674285888672 L 845.7808227539062 185.43869018554688 L 827.2308959960938 185.27679443359375 L 809.4042358398438 185.08335876464844 L 792.263671875 184.8599853515625 L 775.7721557617188 184.6083221435547 L 759.892578125 184.3299560546875 L 744.5878295898438 184.02651977539062 L 729.8208618164062 183.6996307373047 L 715.5545654296875 183.3509063720703 L 701.7518920898438 182.98196411132812 L 688.3756713867188 182.5944061279297 L 675.388916015625 182.18988037109375 L 662.7544555664062 181.7699737548828 L 650.435302734375 181.33631896972656 L 638.3942260742188 180.89053344726562 L 626.59423828125 180.43423461914062 L 614.998291015625 179.9690399169922 L 603.5691528320312 179.49656677246094 L 592.2698974609375 179.0184326171875 L 581.0632934570312 178.5362548828125 L 569.912353515625 178.05165100097656 L 558.7799682617188 177.5662384033203 L 547.6290283203125 177.0816192626953 L 536.4224243164062 176.5994415283203 L 525.1231079101562 176.12130737304688 L 513.6940307617188 175.64883422851562 L 502.0980529785156 175.1836395263672 L 490.2980651855469 174.7273406982422 L 478.25701904296875 174.28155517578125 L 465.9378356933594 173.847900390625 L 453.3033752441406 173.42800903320312 L 440.3166198730469 173.02346801757812 L 426.9404296875 172.63592529296875 L 413.1377258300781 172.2669677734375 L 398.8714294433594 171.91824340820312 L 384.1044921875 171.5913543701172 L 368.79974365234375 171.2879180908203 L 352.920166015625 171.00955200195312 L 336.4286193847656 170.7578887939453 L 319.2880554199219 170.53451538085938 L 301.4613952636719 170.34107971191406 L 282.9114990234375 170.17918395996094 L 263.601318359375 170.0504608154297 L 243.4937744140625 169.9564971923828 L 222.5517578125 169.89894104003906 L 200.73818969726562 169.87939453125 Z" fill-opacity="0.6" clip-path="url(#IDwtdofZXCNA)" stroke-opacity="1" stroke-linejoin="bevel" stroke-miterlimit="10" stroke-width="0.8" stroke-dasharray=""/><path fill="rgb(197,176,213)" stroke="rgb(197,176,213)" paint-order="fill" d="M 200.73818969726562 80.36363983154297 L 200.73818969726562 165.65029907226562 L 200.73818969726562 165.65029907226562 L 222.5517578125 165.67506408691406 L 243.4937744140625 165.7479705810547 L 263.601318359375 165.86697387695312 L 282.9114990234375 166.03004455566406 L 301.4613952636719 166.235107421875 L 319.2880554199219 166.48013305664062 L 336.4286193847656 166.7630615234375 L 352.920166015625 167.08184814453125 L 368.79974365234375 167.43443298339844 L 384.1044921875 167.81878662109375 L 398.8714294433594 168.23284912109375 L 413.1377258300781 168.67457580566406 L 426.9404296875 169.14190673828125 L 440.3166198730469 169.63279724121094 L 453.3033752441406 170.1452178955078 L 465.9378356933594 170.67709350585938 L 478.25701904296875 171.22637939453125 L 490.2980651855469 171.79103088378906 L 502.0980529785156 172.3690185546875 L 513.6940307617188 172.95826721191406 L 525.1231079101562 173.55673217773438 L 536.4224243164062 174.16236877441406 L 547.6290283203125 174.77313232421875 L 558.7799682617188 175.386962890625 L 569.912353515625 176.00181579589844 L 581.0632934570312 176.61566162109375 L 592.2698974609375 177.22642517089844 L 603.5691528320312 177.83206176757812 L 614.998291015625 178.43052673339844 L 626.59423828125 179.019775390625 L 638.3942260742188 179.59774780273438 L 650.435302734375 180.16241455078125 L 662.7544555664062 180.71170043945312 L 675.388916015625 181.2435760498047 L 688.3756713867188 181.7559814453125 L 701.7518920898438 182.24688720703125 L 715.5545654296875 182.71421813964844 L 729.8208618164062 183.15594482421875 L 744.5878295898438 183.57000732421875 L 759.892578125 183.954345703125 L 775.7721557617188 184.30694580078125 L 792.263671875 184.625732421875 L 809.4042358398438 184.90866088867188 L 827.2308959960938 185.15367126464844 L 845.7808227539062 185.35874938964844 L 865.0910034179688 185.5218048095703 L 885.1985473632812 185.6408233642578 L 906.1405639648438 185.71372985839844 L 927.9541015625 185.7384796142578 L 927.9541015625 185.7384796142578 L 927.9541015625 100.45182037353516 L 927.9541015625 100.45182037353516 L 906.1405639648438 100.42706298828125 L 885.1985473632812 100.3541488647461 L 865.0910034179688 100.23513793945312 L 845.7808227539062 100.07207489013672 L 827.2308959960938 99.86701202392578 L 809.4042358398438 99.62198638916016 L 792.263671875 99.33906555175781 L 775.7721557617188 99.02027893066406 L 759.892578125 98.66768646240234 L 744.5878295898438 98.28333282470703 L 729.8208618164062 97.86927032470703 L 715.5545654296875 97.42755126953125 L 701.7518920898438 96.96022033691406 L 688.3756713867188 96.46932220458984 L 675.388916015625 95.9569091796875 L 662.7544555664062 95.42503356933594 L 650.435302734375 94.87574005126953 L 638.3942260742188 94.31108093261719 L 626.59423828125 93.73310852050781 L 614.998291015625 93.14385986328125 L 603.5691528320312 92.5453872680664 L 592.2698974609375 91.93975067138672 L 581.0632934570312 91.32899475097656 L 569.912353515625 90.71515655517578 L 558.7799682617188 90.10029602050781 L 547.6290283203125 89.48646545410156 L 536.4224243164062 88.87570190429688 L 525.1231079101562 88.27006530761719 L 513.6940307617188 87.67159271240234 L 502.0980529785156 87.08235168457031 L 490.2980651855469 86.5043716430664 L 478.25701904296875 85.93971252441406 L 465.9378356933594 85.39041900634766 L 453.3033752441406 84.8585433959961 L 440.3166198730469 84.34613037109375 L 426.9404296875 83.85523986816406 L 413.1377258300781 83.38790130615234 L 398.8714294433594 82.94618225097656 L 384.1044921875 82.53211975097656 L 368.79974365234375 82.14776611328125 L 352.920166015625 81.79517364501953 L 336.4286193847656 81.47639465332031 L 319.2880554199219 81.19346618652344 L 301.4613952636719 80.94844055175781 L 282.9114990234375 80.74337768554688 L 263.601318359375 80.58031463623047 L 243.4937744140625 80.4613037109375 L 222.5517578125 80.38839721679688 L 200.73818969726562 80.36363983154297 Z" fill-opacity="0.6" clip-path="url(#IDwtdofZXCNA)" stroke-opacity="1" stroke-linejoin="bevel" stroke-miterlimit="10" stroke-width="0.8" stroke-dasharray=""/><path fill="rgb(31,119,180)" stroke="rgb(0,0,0)" paint-order="fill" d="M 189.49258422851562 527.9424438476562 L 200.73818969726562 527.9424438476562 L 200.73818969726562 613.2290649414062 L 189.49258422851562 613.2290649414062 L 189.49258422851562 527.9424438476562" fill-opacity="0.9019607843137255" clip-path="url(#TlhTIwshuWXS)" stroke-opacity="0.2" stroke-linejoin="bevel" stroke-miterlimit="10" stroke-width="0.5" stroke-dasharray=""/><path fill="rgb(174,199,232)" stroke="rgb(0,0,0)" paint-order="fill" d="M 189.49258422851562 967.0630493164062 L 200.73818969726562 967.0630493164062 L 200.73818969726562 1137.6363525390625 L 189.49258422851562 1137.6363525390625 L 189.49258422851562 967.0630493164062" fill-opacity="0.9019607843137255" clip-path="url(#TlhTIwshuWXS)" stroke-opacity="0.2" stroke-linejoin="bevel" stroke-miterlimit="10" stroke-width="0.5" stroke-dasharray=""/><path fill="rgb(255,127,14)" stroke="rgb(0,0,0)" paint-order="fill" d="M 189.49258422851562 792.2606201171875 L 200.73818969726562 792.2606201171875 L 200.73818969726562 962.8339233398438 L 189.49258422851562 962.8339233398438 L 189.49258422851562 792.2606201171875" fill-opacity="0.9019607843137255" clip-path="url(#TlhTIwshuWXS)" stroke-opacity="0.2" stroke-linejoin="bevel" stroke-miterlimit="10" stroke-width="0.5" stroke-dasharray=""/><path fill="rgb(255,187,120)" stroke="rgb(0,0,0)" paint-order="fill" d="M 189.49258422851562 438.4266662597656 L 200.73818969726562 438.4266662597656 L 200.73818969726562 523.7133178710938 L 189.49258422851562 523.7133178710938 L 189.49258422851562 438.4266662597656" fill-opacity="0.9019607843137255" clip-path="url(#TlhTIwshuWXS)" stroke-opacity="0.2" stroke-linejoin="bevel" stroke-miterlimit="10" stroke-width="0.5" stroke-dasharray=""/><path fill="rgb(44,160,44)" stroke="rgb(0,0,0)" paint-order="fill" d="M 189.49258422851562 617.4581909179688 L 200.73818969726562 617.4581909179688 L 200.73818969726562 788.031494140625 L 189.49258422851562 788.031494140625 L 189.49258422851562 617.4581909179688" fill-opacity="0.9019607843137255" clip-path="url(#TlhTIwshuWXS)" stroke-opacity="0.2" stroke-linejoin="bevel" stroke-miterlimit="10" stroke-width="0.5" stroke-dasharray=""/><path fill="rgb(152,223,138)" stroke="rgb(0,0,0)" paint-order="fill" d="M 189.49258422851562 348.9109191894531 L 200.73818969726562 348.9109191894531 L 200.73818969726562 434.19757080078125 L 189.49258422851562 434.19757080078125 L 189.49258422851562 348.9109191894531" fill-opacity="0.9019607843137255" clip-path="url(#TlhTIwshuWXS)" stroke-opacity="0.2" stroke-linejoin="bevel" stroke-miterlimit="10" stroke-width="0.5" stroke-dasharray=""/><path fill="rgb(214,39,40)" stroke="rgb(0,0,0)" paint-order="fill" d="M 189.49258422851562 259.3951416015625 L 200.73818969726562 259.3951416015625 L 200.73818969726562 344.68182373046875 L 189.49258422851562 344.68182373046875 L 189.49258422851562 259.3951416015625" fill-opacity="0.9019607843137255" clip-path="url(#TlhTIwshuWXS)" stroke-opacity="0.2" stroke-linejoin="bevel" stroke-miterlimit="10" stroke-width="0.5" stroke-dasharray=""/><path fill="rgb(255,152,150)" stroke="rgb(0,0,0)" paint-order="fill" d="M 189.49258422851562 169.87939453125 L 200.73818969726562 169.87939453125 L 200.73818969726562 255.1660614013672 L 189.49258422851562 255.1660614013672 L 189.49258422851562 169.87939453125" fill-opacity="0.9019607843137255" clip-path="url(#TlhTIwshuWXS)" stroke-opacity="0.2" stroke-linejoin="bevel" stroke-miterlimit="10" stroke-width="0.5" stroke-dasharray=""/><path fill="rgb(148,103,189)" stroke="rgb(0,0,0)" paint-order="fill" d="M 189.49258422851562 80.36363983154297 L 200.73818969726562 80.36363983154297 L 200.73818969726562 165.65029907226562 L 189.49258422851562 165.65029907226562 L 189.49258422851562 80.36363983154297" fill-opacity="0.9019607843137255" clip-path="url(#TlhTIwshuWXS)" stroke-opacity="0.2" stroke-linejoin="bevel" stroke-miterlimit="10" stroke-width="0.5" stroke-dasharray=""/><path fill="rgb(197,176,213)" stroke="rgb(0,0,0)" paint-order="fill" d="M 927.9541015625 100.45182037353516 L 939.19970703125 100.45182037353516 L 939.19970703125 1123.891845703125 L 927.9541015625 1123.891845703125 L 927.9541015625 100.45182037353516" fill-opacity="0.9019607843137255" clip-path="url(#TlhTIwshuWXS)" stroke-opacity="0.2" stroke-linejoin="bevel" stroke-miterlimit="10" stroke-width="0.5" stroke-dasharray=""/><g clip-path="url(#dHUTbqibGsFP)"><text fill="rgb(0,0,0)" stroke="none" font-family="helvetica" font-size="8pt" font-style="normal" font-weight="normal" text-decoration="normal" x="0" y="0" text-anchor="end" dominant-baseline="central" transform="matrix(1, 0, 0, 1, 186.68118286132812, 570.5857543945312)" fill-opacity="1">2000 - 1</text></g><g clip-path="url(#dHUTbqibGsFP)"><text fill="rgb(0,0,0)" stroke="none" font-family="helvetica" font-size="8pt" font-style="normal" font-weight="normal" text-decoration="normal" x="0" y="0" text-anchor="end" dominant-baseline="central" transform="matrix(1, 0, 0, 1, 186.68118286132812, 1052.3497314453125)" fill-opacity="1">2002 - 2</text></g><g clip-path="url(#dHUTbqibGsFP)"><text fill="rgb(0,0,0)" stroke="none" font-family="helvetica" font-size="8pt" font-style="normal" font-weight="normal" text-decoration="normal" x="0" y="0" text-anchor="end" dominant-baseline="central" transform="matrix(1, 0, 0, 1, 186.68118286132812, 877.5473022460938)" fill-opacity="1">2003 - 2</text></g><g clip-path="url(#dHUTbqibGsFP)"><text fill="rgb(0,0,0)" stroke="none" font-family="helvetica" font-size="8pt" font-style="normal" font-weight="normal" text-decoration="normal" x="0" y="0" text-anchor="end" dominant-baseline="central" transform="matrix(1, 0, 0, 1, 186.68118286132812, 481.07000732421875)" fill-opacity="1">2006 - 1</text></g><g clip-path="url(#dHUTbqibGsFP)"><text fill="rgb(0,0,0)" stroke="none" font-family="helvetica" font-size="8pt" font-style="normal" font-weight="normal" text-decoration="normal" x="0" y="0" text-anchor="end" dominant-baseline="central" transform="matrix(1, 0, 0, 1, 186.68118286132812, 702.744873046875)" fill-opacity="1">2009 - 2</text></g><g clip-path="url(#dHUTbqibGsFP)"><text fill="rgb(0,0,0)" stroke="none" font-family="helvetica" font-size="8pt" font-style="normal" font-weight="normal" text-decoration="normal" x="0" y="0" text-anchor="end" dominant-baseline="central" transform="matrix(1, 0, 0, 1, 186.68118286132812, 391.5542297363281)" fill-opacity="1">2010 - 1</text></g><g clip-path="url(#dHUTbqibGsFP)"><text fill="rgb(0,0,0)" stroke="none" font-family="helvetica" font-size="8pt" font-style="normal" font-weight="normal" text-decoration="normal" x="0" y="0" text-anchor="end" dominant-baseline="central" transform="matrix(1, 0, 0, 1, 186.68118286132812, 302.0384826660156)" fill-opacity="1">2016 - 1</text></g><g clip-path="url(#dHUTbqibGsFP)"><text fill="rgb(0,0,0)" stroke="none" font-family="helvetica" font-size="8pt" font-style="normal" font-weight="normal" text-decoration="normal" x="0" y="0" text-anchor="end" dominant-baseline="central" transform="matrix(1, 0, 0, 1, 186.68118286132812, 212.52272033691406)" fill-opacity="1">2017 - 1</text></g><g clip-path="url(#dHUTbqibGsFP)"><text fill="rgb(0,0,0)" stroke="none" font-family="helvetica" font-size="8pt" font-style="normal" font-weight="normal" text-decoration="normal" x="0" y="0" text-anchor="end" dominant-baseline="central" transform="matrix(1, 0, 0, 1, 186.68118286132812, 123.00697326660156)" fill-opacity="1">2018 - 1</text></g><g clip-path="url(#dHUTbqibGsFP)"><text fill="rgb(0,0,0)" stroke="none" font-family="helvetica" font-size="8pt" font-style="normal" font-weight="normal" text-decoration="normal" x="0" y="0" text-anchor="end" dominant-baseline="central" transform="matrix(1, 0, 0, 1, 925.1427001953125, 612.1718139648438)" fill-opacity="1">Rokot/Briz KM - 12</text></g><text fill="rgb(68,68,68)" stroke="none" font-family="helvetica" font-size="13px" font-style="normal" font-weight="bold" text-decoration="normal" x="10" y="19.1689453125" text-anchor="start" dominant-baseline="alphabetic" transform="matrix(1, 0, 0, 1, 0.5, 0.5)" fill-opacity="1">Eurockot Rocket Successes</text></svg>