<svg version="1.1" xmlns="http://www.w3.org/2000/svg" width="1000" height="1200"><defs><clipPath id="KilGebyOducG"><path fill="none" stroke="none" d="M 10.5 27.5 L 970.5 27.5 L 970.5 1190.5 L 10.5 1190.5 L 10.5 27.5"/></clipPath><clipPath id="LzVRSDMbtceq"><path fill="none" stroke="none" d="M 10.5 27.5 L 970.5 27.5 L 970.5 1190.5 L 10.5 1190.5 L 10.5 27.5"/></clipPath><clipPath id="NXnMKsRRrnGM"><path fill="none" stroke="none" d="M 10.5 27.5 L 970.5 27.5 L 970.5 1190.5 L 10.5 1190.5 L 10.5 27.5"/></clipPath><clipPath id="kCTXZIWIqSMT"><path fill="none" stroke="none" d="M 10.5 27.5 L 970.5 27.5 L 970.5 1190.5 L 10.5 1190.5 L 10.5 27.5"/></clipPath><clipPath id="vdrhbKWyZENV"><path fill="none" stroke="none" d="M 10.5 27.5 L 970.5 27.5 L 970.5 1190.5 L 10.5 1190.5 L 10.5 27.5"/></clipPath><clipPath id="abrtBXcBJauK"><path fill="none" stroke="none" d="M 10.5 27.5 L 970.5 27.5 L 970.5 1190.5 L 10.5 1190.5 L 10.5 27.5"/></clipPath></defs><path fill="rgb(255,255,255)" stroke="none" paint-order="stroke" d="M 0.5 0.5 L 1000.5 0.5 L 1000.5 1200.5 L 0.5 1200.5 L 0.5 0.5" fill-opacity="1"/><rect fill="#FFFFFF" stroke="none" x="10" y="27" width="960" height="1163" transform="matrix(1, 0, 0, 1, 0.5, 0.5)"/><path fill="rgb(255,250,250)" stroke="none" paint-order="stroke" d="M 10.5 27.5 L 970.5 27.5 L 970.5 1190.5 L 10.5 1190.5 L 10.5 27.5" fill-opacity="1"/><path fill="rgb(152,223,138)" stroke="rgb(152,223,138)" paint-order="fill" d="M 200.73818969726562 171.28909301757812 L 200.73818969726562 257.9854431152344 L 200.73818969726562 257.9854431152344 L 222.5517578125 257.9949951171875 L 243.4937744140625 258.0231628417969 L 263.601318359375 258.069091796875 L 282.9114990234375 258.13201904296875 L 301.4613952636719 258.211181640625 L 319.2880554199219 258.30572509765625 L 336.4286193847656 258.4149475097656 L 352.920166015625 258.5379638671875 L 368.79974365234375 258.674072265625 L 384.1044921875 258.8224182128906 L 398.8714294433594 258.98223876953125 L 413.1377258300781 259.1527099609375 L 426.9404296875 259.3330993652344 L 440.3166198730469 259.5225524902344 L 453.3033752441406 259.7203369140625 L 465.9378356933594 259.9256286621094 L 478.25701904296875 260.13763427734375 L 490.2980651855469 260.3555603027344 L 502.0980529785156 260.5786437988281 L 513.6940307617188 260.8060607910156 L 525.1231079101562 261.03704833984375 L 536.4224243164062 261.27081298828125 L 547.6290283203125 261.50653076171875 L 558.7799682617188 261.74346923828125 L 569.912353515625 261.98077392578125 L 581.0632934570312 262.2176818847656 L 592.2698974609375 262.45343017578125 L 603.5691528320312 262.68719482421875 L 614.998291015625 262.9181823730469 L 626.59423828125 263.1455993652344 L 638.3942260742188 263.3686828613281 L 650.435302734375 263.58660888671875 L 662.7544555664062 263.7986145019531 L 675.388916015625 264.00390625 L 688.3756713867188 264.2016906738281 L 701.7518920898438 264.3911437988281 L 715.5545654296875 264.571533203125 L 729.8208618164062 264.74200439453125 L 744.5878295898438 264.9018249511719 L 759.892578125 265.0501708984375 L 775.7721557617188 265.1862487792969 L 792.263671875 265.3092956542969 L 809.4042358398438 265.41851806640625 L 827.2308959960938 265.5130615234375 L 845.7808227539062 265.59222412109375 L 865.0910034179688 265.6551513671875 L 885.1985473632812 265.7010803222656 L 906.1405639648438 265.7292175292969 L 927.9541015625 265.7388000488281 L 927.9541015625 265.7388000488281 L 927.9541015625 179.04241943359375 L 927.9541015625 179.04241943359375 L 906.1405639648438 179.03286743164062 L 885.1985473632812 179.00473022460938 L 865.0910034179688 178.95880126953125 L 845.7808227539062 178.89585876464844 L 827.2308959960938 178.81671142578125 L 809.4042358398438 178.72213745117188 L 792.263671875 178.61294555664062 L 775.7721557617188 178.48989868164062 L 759.892578125 178.3538055419922 L 744.5878295898438 178.20545959472656 L 729.8208618164062 178.045654296875 L 715.5545654296875 177.8751678466797 L 701.7518920898438 177.69479370117188 L 688.3756713867188 177.5053253173828 L 675.388916015625 177.3075408935547 L 662.7544555664062 177.10226440429688 L 650.435302734375 176.8902587890625 L 638.3942260742188 176.6723175048828 L 626.59423828125 176.44923400878906 L 614.998291015625 176.2218017578125 L 603.5691528320312 175.99081420898438 L 592.2698974609375 175.75706481933594 L 581.0632934570312 175.52133178710938 L 569.912353515625 175.28440856933594 L 558.7799682617188 175.04710388183594 L 547.6290283203125 174.8101806640625 L 536.4224243164062 174.57444763183594 L 525.1231079101562 174.3406982421875 L 513.6940307617188 174.10971069335938 L 502.0980529785156 173.8822784423828 L 490.2980651855469 173.65919494628906 L 478.25701904296875 173.44125366210938 L 465.9378356933594 173.229248046875 L 453.3033752441406 173.0239715576172 L 440.3166198730469 172.82620239257812 L 426.9404296875 172.63671875 L 413.1377258300781 172.4563446044922 L 398.8714294433594 172.28585815429688 L 384.1044921875 172.1260528564453 L 368.79974365234375 171.9777069091797 L 352.920166015625 171.84161376953125 L 336.4286193847656 171.7185821533203 L 319.2880554199219 171.609375 L 301.4613952636719 171.51480102539062 L 282.9114990234375 171.43565368652344 L 263.601318359375 171.3727264404297 L 243.4937744140625 171.3267822265625 L 222.5517578125 171.29864501953125 L 200.73818969726562 171.28909301757812 Z" fill-opacity="0.6" clip-path="url(#NXnMKsRRrnGM)" stroke-opacity="1" stroke-linejoin="bevel" stroke-miterlimit="10" stroke-width="0.8" stroke-dasharray=""/><path fill="rgb(152,223,138)" stroke="rgb(152,223,138)" paint-order="fill" d="M 200.73818969726562 80.36363983154297 L 200.73818969726562 167.05999755859375 L 200.73818969726562 167.05999755859375 L 222.5517578125 167.07476806640625 L 243.4937744140625 167.11825561523438 L 263.601318359375 167.18923950195312 L 282.9114990234375 167.28651428222656 L 301.4613952636719 167.40882873535156 L 319.2880554199219 167.55499267578125 L 336.4286193847656 167.7237548828125 L 352.920166015625 167.9138946533203 L 368.79974365234375 168.1242218017578 L 384.1044921875 168.35348510742188 L 398.8714294433594 168.6004638671875 L 413.1377258300781 168.86395263671875 L 426.9404296875 169.14271545410156 L 440.3166198730469 169.43553161621094 L 453.3033752441406 169.74118041992188 L 465.9378356933594 170.0584259033203 L 478.25701904296875 170.38607788085938 L 490.2980651855469 170.722900390625 L 502.0980529785156 171.06765747070312 L 513.6940307617188 171.41912841796875 L 525.1231079101562 171.77610778808594 L 536.4224243164062 172.1373748779297 L 547.6290283203125 172.50169372558594 L 558.7799682617188 172.86782836914062 L 569.912353515625 173.23458862304688 L 581.0632934570312 173.60073852539062 L 592.2698974609375 173.96505737304688 L 603.5691528320312 174.32630920410156 L 614.998291015625 174.68328857421875 L 626.59423828125 175.03477478027344 L 638.3942260742188 175.37953186035156 L 650.435302734375 175.71633911132812 L 662.7544555664062 176.0439910888672 L 675.388916015625 176.3612518310547 L 688.3756713867188 176.66690063476562 L 701.7518920898438 176.959716796875 L 715.5545654296875 177.2384796142578 L 729.8208618164062 177.501953125 L 744.5878295898438 177.7489471435547 L 759.892578125 177.97821044921875 L 775.7721557617188 178.1885223388672 L 792.263671875 178.37867736816406 L 809.4042358398438 178.5474395751953 L 827.2308959960938 178.69358825683594 L 845.7808227539062 178.81591796875 L 865.0910034179688 178.91317749023438 L 885.1985473632812 178.98416137695312 L 906.1405639648438 179.02764892578125 L 927.9541015625 179.04241943359375 L 927.9541015625 179.04241943359375 L 927.9541015625 92.34606170654297 L 927.9541015625 92.34606170654297 L 906.1405639648438 92.33129119873047 L 885.1985473632812 92.28780364990234 L 865.0910034179688 92.21681213378906 L 845.7808227539062 92.11954498291016 L 827.2308959960938 91.99723052978516 L 809.4042358398438 91.85107421875 L 792.263671875 91.68231201171875 L 775.7721557617188 91.49215698242188 L 759.892578125 91.2818374633789 L 744.5878295898438 91.05258178710938 L 729.8208618164062 90.80559539794922 L 715.5545654296875 90.5421142578125 L 701.7518920898438 90.26335144042969 L 688.3756713867188 89.97053527832031 L 675.388916015625 89.66488647460938 L 662.7544555664062 89.34762573242188 L 650.435302734375 89.01998138427734 L 638.3942260742188 88.68316650390625 L 626.59423828125 88.33840942382812 L 614.998291015625 87.98692321777344 L 603.5691528320312 87.62994384765625 L 592.2698974609375 87.26868438720703 L 581.0632934570312 86.90437316894531 L 569.912353515625 86.5382308959961 L 558.7799682617188 86.17147064208984 L 547.6290283203125 85.8053207397461 L 536.4224243164062 85.44100952148438 L 525.1231079101562 85.07975006103516 L 513.6940307617188 84.72277069091797 L 502.0980529785156 84.37129211425781 L 490.2980651855469 84.02652740478516 L 478.25701904296875 83.6897201538086 L 465.9378356933594 83.36206817626953 L 453.3033752441406 83.04480743408203 L 440.3166198730469 82.7391586303711 L 426.9404296875 82.44634246826172 L 413.1377258300781 82.16758728027344 L 398.8714294433594 81.90409851074219 L 384.1044921875 81.65711975097656 L 368.79974365234375 81.4278564453125 L 352.920166015625 81.21753692626953 L 336.4286193847656 81.02738952636719 L 319.2880554199219 80.8586196899414 L 301.4613952636719 80.71247100830078 L 282.9114990234375 80.59014892578125 L 263.601318359375 80.49288177490234 L 243.4937744140625 80.42189025878906 L 222.5517578125 80.37840270996094 L 200.73818969726562 80.36363983154297 Z" fill-opacity="0.6" clip-path="url(#NXnMKsRRrnGM)" stroke-opacity="1" stroke-linejoin="bevel" stroke-miterlimit="10" stroke-width="0.8" stroke-dasharray=""/><path fill="rgb(152,223,138)" stroke="rgb(152,223,138)" paint-order="fill" d="M 200.73818969726562 704.154541015625 L 200.73818969726562 1137.6363525390625 L 200.73818969726562 1137.6363525390625 L 222.5517578125 1137.6302490234375 L 243.4937744140625 1137.6124267578125 L 263.601318359375 1137.5831298828125 L 282.9114990234375 1137.5430908203125 L 301.4613952636719 1137.49267578125 L 319.2880554199219 1137.4324951171875 L 336.4286193847656 1137.363037109375 L 352.920166015625 1137.2847900390625 L 368.79974365234375 1137.1981201171875 L 384.1044921875 1137.103759765625 L 398.8714294433594 1137.0020751953125 L 413.1377258300781 1136.8935546875 L 426.9404296875 1136.77880859375 L 440.3166198730469 1136.658203125 L 453.3033752441406 1136.5323486328125 L 465.9378356933594 1136.4017333984375 L 478.25701904296875 1136.266845703125 L 490.2980651855469 1136.128173828125 L 502.0980529785156 1135.9862060546875 L 513.6940307617188 1135.8414306640625 L 525.1231079101562 1135.6944580078125 L 536.4224243164062 1135.545654296875 L 547.6290283203125 1135.3956298828125 L 558.7799682617188 1135.244873046875 L 569.912353515625 1135.0938720703125 L 581.0632934570312 1134.943115234375 L 592.2698974609375 1134.7930908203125 L 603.5691528320312 1134.6444091796875 L 614.998291015625 1134.497314453125 L 626.59423828125 1134.3526611328125 L 638.3942260742188 1134.210693359375 L 650.435302734375 1134.072021484375 L 662.7544555664062 1133.9371337890625 L 675.388916015625 1133.806396484375 L 688.3756713867188 1133.6805419921875 L 701.7518920898438 1133.56005859375 L 715.5545654296875 1133.4451904296875 L 729.8208618164062 1133.3367919921875 L 744.5878295898438 1133.2349853515625 L 759.892578125 1133.140625 L 775.7721557617188 1133.0540771484375 L 792.263671875 1132.9757080078125 L 809.4042358398438 1132.90625 L 827.2308959960938 1132.8460693359375 L 845.7808227539062 1132.795654296875 L 865.0910034179688 1132.755615234375 L 885.1985473632812 1132.7264404296875 L 906.1405639648438 1132.70849609375 L 927.9541015625 1132.702392578125 L 927.9541015625 1132.702392578125 L 927.9541015625 699.2205810546875 L 927.9541015625 699.2205810546875 L 906.1405639648438 699.2266845703125 L 885.1985473632812 699.2445678710938 L 865.0910034179688 699.2738037109375 L 845.7808227539062 699.3139038085938 L 827.2308959960938 699.3642578125 L 809.4042358398438 699.4244384765625 L 792.263671875 699.493896484375 L 775.7721557617188 699.5722045898438 L 759.892578125 699.6588134765625 L 744.5878295898438 699.7532348632812 L 729.8208618164062 699.8549194335938 L 715.5545654296875 699.96337890625 L 701.7518920898438 700.0781860351562 L 688.3756713867188 700.1987915039062 L 675.388916015625 700.3246459960938 L 662.7544555664062 700.4552612304688 L 650.435302734375 700.5901489257812 L 638.3942260742188 700.7288818359375 L 626.59423828125 700.8707885742188 L 614.998291015625 701.0155639648438 L 603.5691528320312 701.1625366210938 L 592.2698974609375 701.311279296875 L 581.0632934570312 701.4613037109375 L 569.912353515625 701.612060546875 L 558.7799682617188 701.7630615234375 L 547.6290283203125 701.9138793945312 L 536.4224243164062 702.0638427734375 L 525.1231079101562 702.2125854492188 L 513.6940307617188 702.359619140625 L 502.0980529785156 702.5043334960938 L 490.2980651855469 702.6463012695312 L 478.25701904296875 702.7849731445312 L 465.9378356933594 702.919921875 L 453.3033752441406 703.050537109375 L 440.3166198730469 703.1763916015625 L 426.9404296875 703.2969360351562 L 413.1377258300781 703.4117431640625 L 398.8714294433594 703.520263671875 L 384.1044921875 703.6219482421875 L 368.79974365234375 703.71630859375 L 352.920166015625 703.8029174804688 L 336.4286193847656 703.8812255859375 L 319.2880554199219 703.9507446289062 L 301.4613952636719 704.0109252929688 L 282.9114990234375 704.061279296875 L 263.601318359375 704.101318359375 L 243.4937744140625 704.1305541992188 L 222.5517578125 704.1484375 L 200.73818969726562 704.154541015625 Z" fill-opacity="0.6" clip-path="url(#NXnMKsRRrnGM)" stroke-opacity="1" stroke-linejoin="bevel" stroke-miterlimit="10" stroke-width="0.8" stroke-dasharray=""/><path fill="rgb(152,223,138)" stroke="rgb(152,223,138)" paint-order="fill" d="M 200.73818969726562 262.21453857421875 L 200.73818969726562 435.6072692871094 L 200.73818969726562 435.6072692871094 L 222.5517578125 435.6116027832031 L 243.4937744140625 435.6244201660156 L 263.601318359375 435.6452941894531 L 282.9114990234375 435.67388916015625 L 301.4613952636719 435.7098693847656 L 319.2880554199219 435.75286865234375 L 336.4286193847656 435.802490234375 L 352.920166015625 435.8584289550781 L 368.79974365234375 435.9202880859375 L 384.1044921875 435.9877014160156 L 398.8714294433594 436.06036376953125 L 413.1377258300781 436.1378479003906 L 426.9404296875 436.2198486328125 L 440.3166198730469 436.30596923828125 L 453.3033752441406 436.3958435058594 L 465.9378356933594 436.4891662597656 L 478.25701904296875 436.5855407714844 L 490.2980651855469 436.6846008300781 L 502.0980529785156 436.7859802246094 L 513.6940307617188 436.8893737792969 L 525.1231079101562 436.9943542480469 L 536.4224243164062 437.1006164550781 L 547.6290283203125 437.207763671875 L 558.7799682617188 437.3154602050781 L 569.912353515625 437.42333984375 L 581.0632934570312 437.531005859375 L 592.2698974609375 437.63818359375 L 603.5691528320312 437.7444152832031 L 614.998291015625 437.84942626953125 L 626.59423828125 437.9527893066406 L 638.3942260742188 438.05419921875 L 650.435302734375 438.15325927734375 L 662.7544555664062 438.2496337890625 L 675.388916015625 438.3429260253906 L 688.3756713867188 438.4328308105469 L 701.7518920898438 438.5189514160156 L 715.5545654296875 438.6009521484375 L 729.8208618164062 438.6784362792969 L 744.5878295898438 438.7510681152344 L 759.892578125 438.8185119628906 L 775.7721557617188 438.88037109375 L 792.263671875 438.9363098144531 L 809.4042358398438 438.9859313964844 L 827.2308959960938 439.0289306640625 L 845.7808227539062 439.06488037109375 L 865.0910034179688 439.093505859375 L 885.1985473632812 439.1143798828125 L 906.1405639648438 439.1271667480469 L 927.9541015625 439.1315002441406 L 927.9541015625 439.1315002441406 L 927.9541015625 265.7388000488281 L 927.9541015625 265.7388000488281 L 906.1405639648438 265.73443603515625 L 885.1985473632812 265.7216491699219 L 865.0910034179688 265.7007751464844 L 845.7808227539062 265.67218017578125 L 827.2308959960938 265.6361999511719 L 809.4042358398438 265.59320068359375 L 792.263671875 265.5435791015625 L 775.7721557617188 265.4876403808594 L 759.892578125 265.42578125 L 744.5878295898438 265.35833740234375 L 729.8208618164062 265.28570556640625 L 715.5545654296875 265.2082214355469 L 701.7518920898438 265.126220703125 L 688.3756713867188 265.04010009765625 L 675.388916015625 264.9501953125 L 662.7544555664062 264.8569030761719 L 650.435302734375 264.7605285644531 L 638.3942260742188 264.6614685058594 L 626.59423828125 264.56005859375 L 614.998291015625 264.4566955566406 L 603.5691528320312 264.3516845703125 L 592.2698974609375 264.2454528808594 L 581.0632934570312 264.1383056640625 L 569.912353515625 264.0306091308594 L 558.7799682617188 263.9227294921875 L 547.6290283203125 263.8150329589844 L 536.4224243164062 263.7078857421875 L 525.1231079101562 263.60162353515625 L 513.6940307617188 263.49664306640625 L 502.0980529785156 263.3932800292969 L 490.2980651855469 263.2918701171875 L 478.25701904296875 263.19281005859375 L 465.9378356933594 263.096435546875 L 453.3033752441406 263.00311279296875 L 440.3166198730469 262.9132385253906 L 426.9404296875 262.8271179199219 L 413.1377258300781 262.7451171875 L 398.8714294433594 262.6676330566406 L 384.1044921875 262.594970703125 L 368.79974365234375 262.5275573730469 L 352.920166015625 262.4656982421875 L 336.4286193847656 262.4097595214844 L 319.2880554199219 262.3601379394531 L 301.4613952636719 262.317138671875 L 282.9114990234375 262.2811584472656 L 263.601318359375 262.2525634765625 L 243.4937744140625 262.231689453125 L 222.5517578125 262.2189025878906 L 200.73818969726562 262.21453857421875 Z" fill-opacity="0.6" clip-path="url(#NXnMKsRRrnGM)" stroke-opacity="1" stroke-linejoin="bevel" stroke-miterlimit="10" stroke-width="0.8" stroke-dasharray=""/><path fill="rgb(152,223,138)" stroke="rgb(152,223,138)" paint-order="fill" d="M 200.73818969726562 439.83636474609375 L 200.73818969726562 699.9254760742188 L 200.73818969726562 699.9254760742188 L 222.5517578125 699.924560546875 L 243.4937744140625 699.9220581054688 L 263.601318359375 699.9178466796875 L 282.9114990234375 699.912109375 L 301.4613952636719 699.9049072265625 L 319.2880554199219 699.8963623046875 L 336.4286193847656 699.8864135742188 L 352.920166015625 699.875244140625 L 368.79974365234375 699.8628540039062 L 384.1044921875 699.849365234375 L 398.8714294433594 699.8348388671875 L 413.1377258300781 699.8193359375 L 426.9404296875 699.8029174804688 L 440.3166198730469 699.7857055664062 L 453.3033752441406 699.7677612304688 L 465.9378356933594 699.7490844726562 L 478.25701904296875 699.7297973632812 L 490.2980651855469 699.7099609375 L 502.0980529785156 699.689697265625 L 513.6940307617188 699.6690063476562 L 525.1231079101562 699.6480102539062 L 536.4224243164062 699.6267700195312 L 547.6290283203125 699.6053466796875 L 558.7799682617188 699.5838012695312 L 569.912353515625 699.562255859375 L 581.0632934570312 699.5407104492188 L 592.2698974609375 699.519287109375 L 603.5691528320312 699.498046875 L 614.998291015625 699.47705078125 L 626.59423828125 699.4563598632812 L 638.3942260742188 699.4360961914062 L 650.435302734375 699.416259765625 L 662.7544555664062 699.39697265625 L 675.388916015625 699.3782958984375 L 688.3756713867188 699.3603515625 L 701.7518920898438 699.3431396484375 L 715.5545654296875 699.3267211914062 L 729.8208618164062 699.3112182617188 L 744.5878295898438 699.2966918945312 L 759.892578125 699.283203125 L 775.7721557617188 699.2708129882812 L 792.263671875 699.2596435546875 L 809.4042358398438 699.2496948242188 L 827.2308959960938 699.2411499023438 L 845.7808227539062 699.2339477539062 L 865.0910034179688 699.2282104492188 L 885.1985473632812 699.2240600585938 L 906.1405639648438 699.2214965820312 L 927.9541015625 699.2205810546875 L 927.9541015625 699.2205810546875 L 927.9541015625 439.1315002441406 L 927.9541015625 439.1315002441406 L 906.1405639648438 439.13238525390625 L 885.1985473632812 439.13494873046875 L 865.0910034179688 439.1391296386719 L 845.7808227539062 439.14483642578125 L 827.2308959960938 439.15203857421875 L 809.4042358398438 439.16064453125 L 792.263671875 439.1705627441406 L 775.7721557617188 439.1817321777344 L 759.892578125 439.1941223144531 L 744.5878295898438 439.2076110839844 L 729.8208618164062 439.2221374511719 L 715.5545654296875 439.2376403808594 L 701.7518920898438 439.2540283203125 L 688.3756713867188 439.271240234375 L 675.388916015625 439.28924560546875 L 662.7544555664062 439.3078918457031 L 650.435302734375 439.3271789550781 L 638.3942260742188 439.34698486328125 L 626.59423828125 439.36724853515625 L 614.998291015625 439.387939453125 L 603.5691528320312 439.408935546875 L 592.2698974609375 439.43017578125 L 581.0632934570312 439.45159912109375 L 569.912353515625 439.47314453125 L 558.7799682617188 439.4947204589844 L 547.6290283203125 439.5162658691406 L 536.4224243164062 439.5376892089844 L 525.1231079101562 439.5589599609375 L 513.6940307617188 439.5799560546875 L 502.0980529785156 439.6006164550781 L 490.2980651855469 439.62091064453125 L 478.25701904296875 439.6407165527344 L 465.9378356933594 439.65997314453125 L 453.3033752441406 439.67864990234375 L 440.3166198730469 439.6966247558594 L 426.9404296875 439.7138366699219 L 413.1377258300781 439.7302551269531 L 398.8714294433594 439.7457580566406 L 384.1044921875 439.7602844238281 L 368.79974365234375 439.7737731933594 L 352.920166015625 439.7861328125 L 336.4286193847656 439.7973327636719 L 319.2880554199219 439.8072509765625 L 301.4613952636719 439.81585693359375 L 282.9114990234375 439.8230285644531 L 263.601318359375 439.8287658691406 L 243.4937744140625 439.83294677734375 L 222.5517578125 439.8354797363281 L 200.73818969726562 439.83636474609375 Z" fill-opacity="0.6" clip-path="url(#NXnMKsRRrnGM)" stroke-opacity="1" stroke-linejoin="bevel" stroke-miterlimit="10" stroke-width="0.8" stroke-dasharray=""/><path fill="rgb(31,119,180)" stroke="rgb(0,0,0)" paint-order="fill" d="M 189.49258422851562 171.28909301757812 L 200.73818969726562 171.28909301757812 L 200.73818969726562 257.9854431152344 L 189.49258422851562 257.9854431152344 L 189.49258422851562 171.28909301757812" fill-opacity="0.9019607843137255" clip-path="url(#kCTXZIWIqSMT)" stroke-opacity="0.2" stroke-linejoin="bevel" stroke-miterlimit="10" stroke-width="0.5" stroke-dasharray=""/><path fill="rgb(174,199,232)" stroke="rgb(0,0,0)" paint-order="fill" d="M 189.49258422851562 80.36363983154297 L 200.73818969726562 80.36363983154297 L 200.73818969726562 167.05999755859375 L 189.49258422851562 167.05999755859375 L 189.49258422851562 80.36363983154297" fill-opacity="0.9019607843137255" clip-path="url(#kCTXZIWIqSMT)" stroke-opacity="0.2" stroke-linejoin="bevel" stroke-miterlimit="10" stroke-width="0.5" stroke-dasharray=""/><path fill="rgb(255,127,14)" stroke="rgb(0,0,0)" paint-order="fill" d="M 189.49258422851562 704.154541015625 L 200.73818969726562 704.154541015625 L 200.73818969726562 1137.6363525390625 L 189.49258422851562 1137.6363525390625 L 189.49258422851562 704.154541015625" fill-opacity="0.9019607843137255" clip-path="url(#kCTXZIWIqSMT)" stroke-opacity="0.2" stroke-linejoin="bevel" stroke-miterlimit="10" stroke-width="0.5" stroke-dasharray=""/><path fill="rgb(255,187,120)" stroke="rgb(0,0,0)" paint-order="fill" d="M 189.49258422851562 262.21453857421875 L 200.73818969726562 262.21453857421875 L 200.73818969726562 435.6072692871094 L 189.49258422851562 435.6072692871094 L 189.49258422851562 262.21453857421875" fill-opacity="0.9019607843137255" clip-path="url(#kCTXZIWIqSMT)" stroke-opacity="0.2" stroke-linejoin="bevel" stroke-miterlimit="10" stroke-width="0.5" stroke-dasharray=""/><path fill="rgb(44,160,44)" stroke="rgb(0,0,0)" paint-order="fill" d="M 189.49258422851562 439.83636474609375 L 200.73818969726562 439.83636474609375 L 200.73818969726562 699.9254760742188 L 189.49258422851562 699.9254760742188 L 189.49258422851562 439.83636474609375" fill-opacity="0.9019607843137255" clip-path="url(#kCTXZIWIqSMT)" stroke-opacity="0.2" stroke-linejoin="bevel" stroke-miterlimit="10" stroke-width="0.5" stroke-dasharray=""/><path fill="rgb(152,223,138)" stroke="rgb(0,0,0)" paint-order="fill" d="M 927.9541015625 92.34606170654297 L 939.19970703125 92.34606170654297 L 939.19970703125 1132.702392578125 L 927.9541015625 1132.702392578125 L 927.9541015625 92.34606170654297" fill-opacity="0.9019607843137255" clip-path="url(#kCTXZIWIqSMT)" stroke-opacity="0.2" stroke-linejoin="bevel" stroke-miterlimit="10" stroke-width="0.5" stroke-dasharray=""/><g clip-path="url(#vdrhbKWyZENV)"><text fill="rgb(0,0,0)" stroke="none" font-family="helvetica" font-size="8pt" font-style="normal" font-weight="normal" text-decoration="normal" x="0" y="0" text-anchor="end" dominant-baseline="central" transform="matrix(1, 0, 0, 1, 186.68118286132812, 214.63726806640625)" fill-opacity="1">2017 - 1</text></g><g clip-path="url(#vdrhbKWyZENV)"><text fill="rgb(0,0,0)" stroke="none" font-family="helvetica" font-size="8pt" font-style="normal" font-weight="normal" text-decoration="normal" x="0" y="0" text-anchor="end" dominant-baseline="central" transform="matrix(1, 0, 0, 1, 186.68118286132812, 123.7118148803711)" fill-opacity="1">2018 - 1</text></g><g clip-path="url(#vdrhbKWyZENV)"><text fill="rgb(0,0,0)" stroke="none" font-family="helvetica" font-size="8pt" font-style="normal" font-weight="normal" text-decoration="normal" x="0" y="0" text-anchor="end" dominant-baseline="central" transform="matrix(1, 0, 0, 1, 186.68118286132812, 920.8954467773438)" fill-opacity="1">2019 - 5</text></g><g clip-path="url(#vdrhbKWyZENV)"><text fill="rgb(0,0,0)" stroke="none" font-family="helvetica" font-size="8pt" font-style="normal" font-weight="normal" text-decoration="normal" x="0" y="0" text-anchor="end" dominant-baseline="central" transform="matrix(1, 0, 0, 1, 186.68118286132812, 348.9109191894531)" fill-opacity="1">2020 - 2</text></g><g clip-path="url(#vdrhbKWyZENV)"><text fill="rgb(0,0,0)" stroke="none" font-family="helvetica" font-size="8pt" font-style="normal" font-weight="normal" text-decoration="normal" x="0" y="0" text-anchor="end" dominant-baseline="central" transform="matrix(1, 0, 0, 1, 186.68118286132812, 569.8809204101562)" fill-opacity="1">2021 - 3</text></g><g clip-path="url(#vdrhbKWyZENV)"><text fill="rgb(0,0,0)" stroke="none" font-family="helvetica" font-size="8pt" font-style="normal" font-weight="normal" text-decoration="normal" x="0" y="0" text-anchor="end" dominant-baseline="central" transform="matrix(1, 0, 0, 1, 925.1427001953125, 612.5242309570312)" fill-opacity="1">Kuaizhou 1A - 12</text></g><text fill="rgb(68,68,68)" stroke="none" font-family="helvetica" font-size="13px" font-style="normal" font-weight="bold" text-decoration="normal" x="10" y="19.1689453125" text-anchor="start" dominant-baseline="alphabetic" transform="matrix(1, 0, 0, 1, 0.5, 0.5)" fill-opacity="1">ExPace Rocket Successes</text></svg>