<svg version="1.1" xmlns="http://www.w3.org/2000/svg" width="1000" height="1200"><defs><clipPath id="aDOWOuTfFmCJ"><path fill="none" stroke="none" d="M 10.5 27.5 L 970.5 27.5 L 970.5 1190.5 L 10.5 1190.5 L 10.5 27.5"/></clipPath><clipPath id="iPPHMDaSFHEd"><path fill="none" stroke="none" d="M 10.5 27.5 L 970.5 27.5 L 970.5 1190.5 L 10.5 1190.5 L 10.5 27.5"/></clipPath><clipPath id="CwMAKDXEZTHC"><path fill="none" stroke="none" d="M 10.5 27.5 L 970.5 27.5 L 970.5 1190.5 L 10.5 1190.5 L 10.5 27.5"/></clipPath><clipPath id="LTmWTpyPoPDI"><path fill="none" stroke="none" d="M 10.5 27.5 L 970.5 27.5 L 970.5 1190.5 L 10.5 1190.5 L 10.5 27.5"/></clipPath><clipPath id="syKyCpqWcIJJ"><path fill="none" stroke="none" d="M 10.5 27.5 L 970.5 27.5 L 970.5 1190.5 L 10.5 1190.5 L 10.5 27.5"/></clipPath><clipPath id="zdgrSdhnooqJ"><path fill="none" stroke="none" d="M 10.5 27.5 L 970.5 27.5 L 970.5 1190.5 L 10.5 1190.5 L 10.5 27.5"/></clipPath></defs><path fill="rgb(255,255,255)" stroke="none" paint-order="stroke" d="M 0.5 0.5 L 1000.5 0.5 L 1000.5 1200.5 L 0.5 1200.5 L 0.5 0.5" fill-opacity="1"/><rect fill="#FFFFFF" stroke="none" x="10" y="27" width="960" height="1163" transform="matrix(1, 0, 0, 1, 0.5, 0.5)"/><path fill="rgb(255,250,250)" stroke="none" paint-order="stroke" d="M 10.5 27.5 L 970.5 27.5 L 970.5 1190.5 L 10.5 1190.5 L 10.5 27.5" fill-opacity="1"/><path fill="rgb(127,127,127)" stroke="rgb(127,127,127)" paint-order="fill" d="M 200.73818969726562 496.0228576660156 L 200.73818969726562 543.7511596679688 L 200.73818969726562 543.7511596679688 L 222.5517578125 543.7518920898438 L 243.4937744140625 543.7540893554688 L 263.601318359375 543.7576904296875 L 282.9114990234375 543.7625732421875 L 301.4613952636719 543.7687377929688 L 319.2880554199219 543.776123046875 L 336.4286193847656 543.7846069335938 L 352.920166015625 543.7942504882812 L 368.79974365234375 543.8048095703125 L 384.1044921875 543.81640625 L 398.8714294433594 543.828857421875 L 413.1377258300781 543.8421020507812 L 426.9404296875 543.856201171875 L 440.3166198730469 543.8709716796875 L 453.3033752441406 543.8863525390625 L 465.9378356933594 543.90234375 L 478.25701904296875 543.9188842773438 L 490.2980651855469 543.9358520507812 L 502.0980529785156 543.9532470703125 L 513.6940307617188 543.970947265625 L 525.1231079101562 543.9889526367188 L 536.4224243164062 544.0071411132812 L 547.6290283203125 544.0255126953125 L 558.7799682617188 544.0440063476562 L 569.912353515625 544.0625 L 581.0632934570312 544.0809326171875 L 592.2698974609375 544.0993041992188 L 603.5691528320312 544.1175537109375 L 614.998291015625 544.1355590820312 L 626.59423828125 544.1532592773438 L 638.3942260742188 544.170654296875 L 650.435302734375 544.1876220703125 L 662.7544555664062 544.2041625976562 L 675.388916015625 544.2201538085938 L 688.3756713867188 544.2355346679688 L 701.7518920898438 544.2503051757812 L 715.5545654296875 544.2643432617188 L 729.8208618164062 544.2776489257812 L 744.5878295898438 544.2901000976562 L 759.892578125 544.3016967773438 L 775.7721557617188 544.312255859375 L 792.263671875 544.3218383789062 L 809.4042358398438 544.3303833007812 L 827.2308959960938 544.3377075195312 L 845.7808227539062 544.3439331054688 L 865.0910034179688 544.3488159179688 L 885.1985473632812 544.3524169921875 L 906.1405639648438 544.3545532226562 L 927.9541015625 544.3553466796875 L 927.9541015625 544.3553466796875 L 927.9541015625 496.62701416015625 L 927.9541015625 496.62701416015625 L 906.1405639648438 496.62628173828125 L 885.1985473632812 496.62408447265625 L 865.0910034179688 496.6204833984375 L 845.7808227539062 496.6156005859375 L 827.2308959960938 496.60943603515625 L 809.4042358398438 496.60205078125 L 792.263671875 496.5935363769531 L 775.7721557617188 496.5839538574219 L 759.892578125 496.5733642578125 L 744.5878295898438 496.5617980957031 L 729.8208618164062 496.5493469238281 L 715.5545654296875 496.53607177734375 L 701.7518920898438 496.5220031738281 L 688.3756713867188 496.5072326660156 L 675.388916015625 496.4918212890625 L 662.7544555664062 496.475830078125 L 650.435302734375 496.4593200683594 L 638.3942260742188 496.44232177734375 L 626.59423828125 496.4249572753906 L 614.998291015625 496.4072265625 L 603.5691528320312 496.38922119140625 L 592.2698974609375 496.3710021972656 L 581.0632934570312 496.3526306152344 L 569.912353515625 496.33416748046875 L 558.7799682617188 496.315673828125 L 547.6290283203125 496.2972412109375 L 536.4224243164062 496.27886962890625 L 525.1231079101562 496.2606506347656 L 513.6940307617188 496.2426452636719 L 502.0980529785156 496.22491455078125 L 490.2980651855469 496.2075500488281 L 478.25701904296875 496.1905517578125 L 465.9378356933594 496.1740417480469 L 453.3033752441406 496.1580505371094 L 440.3166198730469 496.14263916015625 L 426.9404296875 496.12786865234375 L 413.1377258300781 496.1138000488281 L 398.8714294433594 496.10052490234375 L 384.1044921875 496.08807373046875 L 368.79974365234375 496.0765075683594 L 352.920166015625 496.06591796875 L 336.4286193847656 496.05633544921875 L 319.2880554199219 496.0478210449219 L 301.4613952636719 496.0404357910156 L 282.9114990234375 496.0342712402344 L 263.601318359375 496.0293884277344 L 243.4937744140625 496.0257873535156 L 222.5517578125 496.0235900878906 L 200.73818969726562 496.0228576660156 Z" fill-opacity="0.6" clip-path="url(#CwMAKDXEZTHC)" stroke-opacity="1" stroke-linejoin="bevel" stroke-miterlimit="10" stroke-width="0.8" stroke-dasharray=""/><path fill="rgb(127,127,127)" stroke="rgb(127,127,127)" paint-order="fill" d="M 200.73818969726562 444.0654602050781 L 200.73818969726562 491.79376220703125 L 200.73818969726562 491.79376220703125 L 222.5517578125 491.7997131347656 L 243.4937744140625 491.8172607421875 L 263.601318359375 491.84588623046875 L 282.9114990234375 491.8851318359375 L 301.4613952636719 491.9344787597656 L 319.2880554199219 491.9934387207031 L 336.4286193847656 492.0614929199219 L 352.920166015625 492.13818359375 L 368.79974365234375 492.2230224609375 L 384.1044921875 492.3155212402344 L 398.8714294433594 492.4151306152344 L 413.1377258300781 492.52142333984375 L 426.9404296875 492.63385009765625 L 440.3166198730469 492.751953125 L 453.3033752441406 492.875244140625 L 465.9378356933594 493.0032043457031 L 478.25701904296875 493.1353759765625 L 490.2980651855469 493.271240234375 L 502.0980529785156 493.4103088378906 L 513.6940307617188 493.55206298828125 L 525.1231079101562 493.6960754394531 L 536.4224243164062 493.841796875 L 547.6290283203125 493.9887390136719 L 558.7799682617188 494.13641357421875 L 569.912353515625 494.28436279296875 L 581.0632934570312 494.4320373535156 L 592.2698974609375 494.5790100097656 L 603.5691528320312 494.7247009277344 L 614.998291015625 494.86871337890625 L 626.59423828125 495.0104675292969 L 638.3942260742188 495.1495361328125 L 650.435302734375 495.285400390625 L 662.7544555664062 495.4175720214844 L 675.388916015625 495.5455322265625 L 688.3756713867188 495.6688232421875 L 701.7518920898438 495.78692626953125 L 715.5545654296875 495.8993835449219 L 729.8208618164062 496.0056457519531 L 744.5878295898438 496.10528564453125 L 759.892578125 496.19775390625 L 775.7721557617188 496.2825927734375 L 792.263671875 496.3592834472656 L 809.4042358398438 496.4273681640625 L 827.2308959960938 496.4862976074219 L 845.7808227539062 496.53564453125 L 865.0910034179688 496.57489013671875 L 885.1985473632812 496.603515625 L 906.1405639648438 496.6210632324219 L 927.9541015625 496.62701416015625 L 927.9541015625 496.62701416015625 L 927.9541015625 448.8987121582031 L 927.9541015625 448.8987121582031 L 906.1405639648438 448.8927307128906 L 885.1985473632812 448.8752136230469 L 865.0910034179688 448.8465576171875 L 845.7808227539062 448.8073425292969 L 827.2308959960938 448.75799560546875 L 809.4042358398438 448.69903564453125 L 792.263671875 448.6309814453125 L 775.7721557617188 448.55426025390625 L 759.892578125 448.46942138671875 L 744.5878295898438 448.376953125 L 729.8208618164062 448.27734375 L 715.5545654296875 448.1710510253906 L 701.7518920898438 448.0586242675781 L 688.3756713867188 447.9405212402344 L 675.388916015625 447.8172302246094 L 662.7544555664062 447.6892395019531 L 650.435302734375 447.5570983886719 L 638.3942260742188 447.4212341308594 L 626.59423828125 447.28216552734375 L 614.998291015625 447.140380859375 L 603.5691528320312 446.99639892578125 L 592.2698974609375 446.8506774902344 L 581.0632934570312 446.7037353515625 L 569.912353515625 446.5560607910156 L 558.7799682617188 446.4081115722656 L 547.6290283203125 446.2604064941406 L 536.4224243164062 446.11346435546875 L 525.1231079101562 445.9677429199219 L 513.6940307617188 445.8237609863281 L 502.0980529785156 445.6819763183594 L 490.2980651855469 445.5429382324219 L 478.25701904296875 445.4070739746094 L 465.9378356933594 445.27490234375 L 453.3033752441406 445.1469421386719 L 440.3166198730469 445.0236511230469 L 426.9404296875 444.9055480957031 L 413.1377258300781 444.7930908203125 L 398.8714294433594 444.68682861328125 L 384.1044921875 444.5871887207031 L 368.79974365234375 444.4947204589844 L 352.920166015625 444.4098815917969 L 336.4286193847656 444.33319091796875 L 319.2880554199219 444.2651062011719 L 301.4613952636719 444.2061462402344 L 282.9114990234375 444.1568298339844 L 263.601318359375 444.1175842285156 L 243.4937744140625 444.0889587402344 L 222.5517578125 444.0714111328125 L 200.73818969726562 444.0654602050781 Z" fill-opacity="0.6" clip-path="url(#CwMAKDXEZTHC)" stroke-opacity="1" stroke-linejoin="bevel" stroke-miterlimit="10" stroke-width="0.8" stroke-dasharray=""/><path fill="rgb(127,127,127)" stroke="rgb(127,127,127)" paint-order="fill" d="M 200.73818969726562 392.1080627441406 L 200.73818969726562 439.83636474609375 L 200.73818969726562 439.83636474609375 L 222.5517578125 439.8475341796875 L 243.4937744140625 439.88043212890625 L 263.601318359375 439.9341125488281 L 282.9114990234375 440.0076904296875 L 301.4613952636719 440.1001892089844 L 319.2880554199219 440.2107238769531 L 336.4286193847656 440.3383483886719 L 352.920166015625 440.482177734375 L 368.79974365234375 440.6412353515625 L 384.1044921875 440.81463623046875 L 398.8714294433594 441.0014343261719 L 413.1377258300781 441.20068359375 L 426.9404296875 441.4115295410156 L 440.3166198730469 441.6329650878906 L 453.3033752441406 441.8641357421875 L 465.9378356933594 442.1040954589844 L 478.25701904296875 442.3518981933594 L 490.2980651855469 442.60662841796875 L 502.0980529785156 442.86737060546875 L 513.6940307617188 443.1331787109375 L 525.1231079101562 443.4031677246094 L 536.4224243164062 443.6763916015625 L 547.6290283203125 443.9519348144531 L 558.7799682617188 444.2288513183594 L 569.912353515625 444.5062255859375 L 581.0632934570312 444.78314208984375 L 592.2698974609375 445.0586853027344 L 603.5691528320312 445.3318786621094 L 614.998291015625 445.60186767578125 L 626.59423828125 445.8677062988281 L 638.3942260742188 446.1284484863281 L 650.435302734375 446.3831787109375 L 662.7544555664062 446.6309814453125 L 675.388916015625 446.87091064453125 L 688.3756713867188 447.1020812988281 L 701.7518920898438 447.32354736328125 L 715.5545654296875 447.53436279296875 L 729.8208618164062 447.733642578125 L 744.5878295898438 447.9204406738281 L 759.892578125 448.0938415527344 L 775.7721557617188 448.2528991699219 L 792.263671875 448.3966979980469 L 809.4042358398438 448.52435302734375 L 827.2308959960938 448.6348876953125 L 845.7808227539062 448.7273864746094 L 865.0910034179688 448.80096435546875 L 885.1985473632812 448.8546447753906 L 906.1405639648438 448.8875427246094 L 927.9541015625 448.8987121582031 L 927.9541015625 448.8987121582031 L 927.9541015625 401.1703796386719 L 927.9541015625 401.1703796386719 L 906.1405639648438 401.1592102050781 L 885.1985473632812 401.1263427734375 L 865.0910034179688 401.0726318359375 L 845.7808227539062 400.99908447265625 L 827.2308959960938 400.90655517578125 L 809.4042358398438 400.7960205078125 L 792.263671875 400.66839599609375 L 775.7721557617188 400.5245666503906 L 759.892578125 400.3655090332031 L 744.5878295898438 400.192138671875 L 729.8208618164062 400.0053405761719 L 715.5545654296875 399.8060607910156 L 701.7518920898438 399.5952453613281 L 688.3756713867188 399.373779296875 L 675.388916015625 399.1426086425781 L 662.7544555664062 398.9026794433594 L 650.435302734375 398.6548767089844 L 638.3942260742188 398.400146484375 L 626.59423828125 398.139404296875 L 614.998291015625 397.8735656738281 L 603.5691528320312 397.60357666015625 L 592.2698974609375 397.3303527832031 L 581.0632934570312 397.0548400878906 L 569.912353515625 396.7779235839844 L 558.7799682617188 396.5005187988281 L 547.6290283203125 396.2236022949219 L 536.4224243164062 395.9480895996094 L 525.1231079101562 395.67486572265625 L 513.6940307617188 395.4048767089844 L 502.0980529785156 395.1390380859375 L 490.2980651855469 394.8782958984375 L 478.25701904296875 394.6235656738281 L 465.9378356933594 394.3757629394531 L 453.3033752441406 394.1358337402344 L 440.3166198730469 393.9046630859375 L 426.9404296875 393.6831970214844 L 413.1377258300781 393.4723815917969 L 398.8714294433594 393.2731018066406 L 384.1044921875 393.0863037109375 L 368.79974365234375 392.9129333496094 L 352.920166015625 392.75384521484375 L 336.4286193847656 392.61004638671875 L 319.2880554199219 392.482421875 L 301.4613952636719 392.37188720703125 L 282.9114990234375 392.27935791015625 L 263.601318359375 392.205810546875 L 243.4937744140625 392.152099609375 L 222.5517578125 392.1192321777344 L 200.73818969726562 392.1080627441406 Z" fill-opacity="0.6" clip-path="url(#CwMAKDXEZTHC)" stroke-opacity="1" stroke-linejoin="bevel" stroke-miterlimit="10" stroke-width="0.8" stroke-dasharray=""/><path fill="rgb(127,127,127)" stroke="rgb(127,127,127)" paint-order="fill" d="M 200.73818969726562 340.150634765625 L 200.73818969726562 387.87896728515625 L 200.73818969726562 387.87896728515625 L 222.5517578125 387.8953552246094 L 243.4937744140625 387.9435729980469 L 263.601318359375 388.0223388671875 L 282.9114990234375 388.1302185058594 L 301.4613952636719 388.2658996582031 L 319.2880554199219 388.4280090332031 L 336.4286193847656 388.615234375 L 352.920166015625 388.8261413574219 L 368.79974365234375 389.0594482421875 L 384.1044921875 389.3137512207031 L 398.8714294433594 389.58770751953125 L 413.1377258300781 389.8799743652344 L 426.9404296875 390.1891784667969 L 440.3166198730469 390.5140075683594 L 453.3033752441406 390.85302734375 L 465.9378356933594 391.2049560546875 L 478.25701904296875 391.5683898925781 L 490.2980651855469 391.9420166015625 L 502.0980529785156 392.3244323730469 L 513.6940307617188 392.71429443359375 L 525.1231079101562 393.11029052734375 L 536.4224243164062 393.5110168457031 L 547.6290283203125 393.9151306152344 L 558.7799682617188 394.3212585449219 L 569.912353515625 394.72808837890625 L 581.0632934570312 395.1342468261719 L 592.2698974609375 395.5383605957031 L 603.5691528320312 395.9390563964844 L 614.998291015625 396.3350524902344 L 626.59423828125 396.72491455078125 L 638.3942260742188 397.10736083984375 L 650.435302734375 397.48095703125 L 662.7544555664062 397.8443908691406 L 675.388916015625 398.1963195800781 L 688.3756713867188 398.53533935546875 L 701.7518920898438 398.86016845703125 L 715.5545654296875 399.16937255859375 L 729.8208618164062 399.4616394042969 L 744.5878295898438 399.735595703125 L 759.892578125 399.9898986816406 L 775.7721557617188 400.22320556640625 L 792.263671875 400.43414306640625 L 809.4042358398438 400.621337890625 L 827.2308959960938 400.783447265625 L 845.7808227539062 400.91912841796875 L 865.0910034179688 401.02703857421875 L 885.1985473632812 401.10577392578125 L 906.1405639648438 401.1540222167969 L 927.9541015625 401.1703796386719 L 927.9541015625 401.1703796386719 L 927.9541015625 353.44207763671875 L 927.9541015625 353.44207763671875 L 906.1405639648438 353.4256896972656 L 885.1985473632812 353.37744140625 L 865.0910034179688 353.2987060546875 L 845.7808227539062 353.1908264160156 L 827.2308959960938 353.0551452636719 L 809.4042358398438 352.89300537109375 L 792.263671875 352.705810546875 L 775.7721557617188 352.4949035644531 L 759.892578125 352.2615966796875 L 744.5878295898438 352.0072937011719 L 729.8208618164062 351.73333740234375 L 715.5545654296875 351.4410705566406 L 701.7518920898438 351.1318359375 L 688.3756713867188 350.8070373535156 L 675.388916015625 350.468017578125 L 662.7544555664062 350.1160888671875 L 650.435302734375 349.7526550292969 L 638.3942260742188 349.3790283203125 L 626.59423828125 348.9966125488281 L 614.998291015625 348.60675048828125 L 603.5691528320312 348.21075439453125 L 592.2698974609375 347.8100280761719 L 581.0632934570312 347.4059143066406 L 569.912353515625 346.9997863769531 L 558.7799682617188 346.59295654296875 L 547.6290283203125 346.1867980957031 L 536.4224243164062 345.7826843261719 L 525.1231079101562 345.3819580078125 L 513.6940307617188 344.9859924316406 L 502.0980529785156 344.5960998535156 L 490.2980651855469 344.21368408203125 L 478.25701904296875 343.840087890625 L 465.9378356933594 343.4766540527344 L 453.3033752441406 343.1247253417969 L 440.3166198730469 342.7856750488281 L 426.9404296875 342.46087646484375 L 413.1377258300781 342.15167236328125 L 398.8714294433594 341.8594055175781 L 384.1044921875 341.58544921875 L 368.79974365234375 341.33111572265625 L 352.920166015625 341.09783935546875 L 336.4286193847656 340.88690185546875 L 319.2880554199219 340.69970703125 L 301.4613952636719 340.53759765625 L 282.9114990234375 340.40191650390625 L 263.601318359375 340.29400634765625 L 243.4937744140625 340.21527099609375 L 222.5517578125 340.1670227050781 L 200.73818969726562 340.150634765625 Z" fill-opacity="0.6" clip-path="url(#CwMAKDXEZTHC)" stroke-opacity="1" stroke-linejoin="bevel" stroke-miterlimit="10" stroke-width="0.8" stroke-dasharray=""/><path fill="rgb(127,127,127)" stroke="rgb(127,127,127)" paint-order="fill" d="M 200.73818969726562 288.1932373046875 L 200.73818969726562 335.92156982421875 L 200.73818969726562 335.92156982421875 L 222.5517578125 335.9431457519531 L 243.4937744140625 336.0067443847656 L 263.601318359375 336.11053466796875 L 282.9114990234375 336.25274658203125 L 301.4613952636719 336.4316101074219 L 319.2880554199219 336.64532470703125 L 336.4286193847656 336.89208984375 L 352.920166015625 337.17010498046875 L 368.79974365234375 337.4776306152344 L 384.1044921875 337.8128662109375 L 398.8714294433594 338.17401123046875 L 413.1377258300781 338.55926513671875 L 426.9404296875 338.96685791015625 L 440.3166198730469 339.39501953125 L 453.3033752441406 339.8419189453125 L 465.9378356933594 340.3058166503906 L 478.25701904296875 340.784912109375 L 490.2980651855469 341.2773742675781 L 502.0980529785156 341.781494140625 L 513.6940307617188 342.29541015625 L 525.1231079101562 342.8173828125 L 536.4224243164062 343.3456115722656 L 547.6290283203125 343.8782958984375 L 558.7799682617188 344.4136962890625 L 569.912353515625 344.949951171875 L 581.0632934570312 345.4853210449219 L 592.2698974609375 346.01800537109375 L 603.5691528320312 346.5462341308594 L 614.998291015625 347.0682067871094 L 626.59423828125 347.5821533203125 L 638.3942260742188 348.08624267578125 L 650.435302734375 348.5787353515625 L 662.7544555664062 349.05780029296875 L 675.388916015625 349.5216979980469 L 688.3756713867188 349.9686279296875 L 701.7518920898438 350.3967590332031 L 715.5545654296875 350.80438232421875 L 729.8208618164062 351.18963623046875 L 744.5878295898438 351.55078125 L 759.892578125 351.885986328125 L 775.7721557617188 352.1935119628906 L 792.263671875 352.4715576171875 L 809.4042358398438 352.71832275390625 L 827.2308959960938 352.9320068359375 L 845.7808227539062 353.1108703613281 L 865.0910034179688 353.2530822753906 L 885.1985473632812 353.3569030761719 L 906.1405639648438 353.42047119140625 L 927.9541015625 353.44207763671875 L 927.9541015625 353.44207763671875 L 927.9541015625 305.7137756347656 L 927.9541015625 305.7137756347656 L 906.1405639648438 305.6921691894531 L 885.1985473632812 305.6285705566406 L 865.0910034179688 305.5247802734375 L 845.7808227539062 305.382568359375 L 827.2308959960938 305.2037048339844 L 809.4042358398438 304.9900207519531 L 792.263671875 304.7432556152344 L 775.7721557617188 304.4652099609375 L 759.892578125 304.1576843261719 L 744.5878295898438 303.82244873046875 L 729.8208618164062 303.4613342285156 L 715.5545654296875 303.0760498046875 L 701.7518920898438 302.66845703125 L 688.3756713867188 302.24029541015625 L 675.388916015625 301.79339599609375 L 662.7544555664062 301.3294982910156 L 650.435302734375 300.8504333496094 L 638.3942260742188 300.3579406738281 L 626.59423828125 299.8538513183594 L 614.998291015625 299.33990478515625 L 603.5691528320312 298.81793212890625 L 592.2698974609375 298.2897033691406 L 581.0632934570312 297.75701904296875 L 569.912353515625 297.2216491699219 L 558.7799682617188 296.68536376953125 L 547.6290283203125 296.1499938964844 L 536.4224243164062 295.6173095703125 L 525.1231079101562 295.0890808105469 L 513.6940307617188 294.5671081542969 L 502.0980529785156 294.0531921386719 L 490.2980651855469 293.549072265625 L 478.25701904296875 293.05657958984375 L 465.9378356933594 292.5775146484375 L 453.3033752441406 292.1136169433594 L 440.3166198730469 291.6667175292969 L 426.9404296875 291.2385559082031 L 413.1377258300781 290.8309631347656 L 398.8714294433594 290.4456787109375 L 384.1044921875 290.0845642089844 L 368.79974365234375 289.74932861328125 L 352.920166015625 289.4418029785156 L 336.4286193847656 289.16375732421875 L 319.2880554199219 288.9170227050781 L 301.4613952636719 288.70330810546875 L 282.9114990234375 288.5244445800781 L 263.601318359375 288.3822326660156 L 243.4937744140625 288.2784423828125 L 222.5517578125 288.21484375 L 200.73818969726562 288.1932373046875 Z" fill-opacity="0.6" clip-path="url(#CwMAKDXEZTHC)" stroke-opacity="1" stroke-linejoin="bevel" stroke-miterlimit="10" stroke-width="0.8" stroke-dasharray=""/><path fill="rgb(127,127,127)" stroke="rgb(127,127,127)" paint-order="fill" d="M 200.73818969726562 236.23583984375 L 200.73818969726562 283.9641418457031 L 200.73818969726562 283.9641418457031 L 222.5517578125 283.990966796875 L 243.4937744140625 284.0699157714844 L 263.601318359375 284.1987609863281 L 282.9114990234375 284.37530517578125 L 301.4613952636719 284.5973205566406 L 319.2880554199219 284.86260986328125 L 336.4286193847656 285.1689453125 L 352.920166015625 285.51409912109375 L 368.79974365234375 285.8958435058594 L 384.1044921875 286.3119812011719 L 398.8714294433594 286.7602844238281 L 413.1377258300781 287.2385559082031 L 426.9404296875 287.7445373535156 L 440.3166198730469 288.2760314941406 L 453.3033752441406 288.830810546875 L 465.9378356933594 289.40667724609375 L 478.25701904296875 290.00140380859375 L 490.2980651855469 290.6127624511719 L 502.0980529785156 291.2385559082031 L 513.6940307617188 291.87652587890625 L 525.1231079101562 292.5245056152344 L 536.4224243164062 293.18023681640625 L 547.6290283203125 293.84149169921875 L 558.7799682617188 294.506103515625 L 569.912353515625 295.17181396484375 L 581.0632934570312 295.83642578125 L 592.2698974609375 296.4976806640625 L 603.5691528320312 297.1534118652344 L 614.998291015625 297.8013916015625 L 626.59423828125 298.4393615722656 L 638.3942260742188 299.0651550292969 L 650.435302734375 299.676513671875 L 662.7544555664062 300.271240234375 L 675.388916015625 300.84710693359375 L 688.3756713867188 301.4018859863281 L 701.7518920898438 301.9333801269531 L 715.5545654296875 302.4393615722656 L 729.8208618164062 302.9176330566406 L 744.5878295898438 303.3659362792969 L 759.892578125 303.7820739746094 L 775.7721557617188 304.163818359375 L 792.263671875 304.50897216796875 L 809.4042358398438 304.8153076171875 L 827.2308959960938 305.0805969238281 L 845.7808227539062 305.3026123046875 L 865.0910034179688 305.4791564941406 L 885.1985473632812 305.6080322265625 L 906.1405639648438 305.68695068359375 L 927.9541015625 305.7137756347656 L 927.9541015625 305.7137756347656 L 927.9541015625 257.9854431152344 L 927.9541015625 257.9854431152344 L 906.1405639648438 257.9586486816406 L 885.1985473632812 257.87969970703125 L 865.0910034179688 257.7508544921875 L 845.7808227539062 257.5743103027344 L 827.2308959960938 257.3522644042969 L 809.4042358398438 257.0870056152344 L 792.263671875 256.7806701660156 L 775.7721557617188 256.4355163574219 L 759.892578125 256.0537567138672 L 744.5878295898438 255.6376190185547 L 729.8208618164062 255.18931579589844 L 715.5545654296875 254.7110595703125 L 701.7518920898438 254.205078125 L 688.3756713867188 253.673583984375 L 675.388916015625 253.11878967285156 L 662.7544555664062 252.5429229736328 L 650.435302734375 251.9481964111328 L 638.3942260742188 251.3368377685547 L 626.59423828125 250.7110595703125 L 614.998291015625 250.0730743408203 L 603.5691528320312 249.42510986328125 L 592.2698974609375 248.76937866210938 L 581.0632934570312 248.1081085205078 L 569.912353515625 247.44351196289062 L 558.7799682617188 246.7777862548828 L 547.6290283203125 246.11318969726562 L 536.4224243164062 245.45191955566406 L 525.1231079101562 244.7961883544922 L 513.6940307617188 244.14822387695312 L 502.0980529785156 243.51023864746094 L 490.2980651855469 242.88446044921875 L 478.25701904296875 242.27310180664062 L 465.9378356933594 241.67837524414062 L 453.3033752441406 241.10250854492188 L 440.3166198730469 240.54771423339844 L 426.9404296875 240.01622009277344 L 413.1377258300781 239.51023864746094 L 398.8714294433594 239.031982421875 L 384.1044921875 238.58367919921875 L 368.79974365234375 238.16754150390625 L 352.920166015625 237.78578186035156 L 336.4286193847656 237.4406280517578 L 319.2880554199219 237.13430786132812 L 301.4613952636719 236.8690185546875 L 282.9114990234375 236.64698791503906 L 263.601318359375 236.47044372558594 L 243.4937744140625 236.34158325195312 L 222.5517578125 236.2626495361328 L 200.73818969726562 236.23583984375 Z" fill-opacity="0.6" clip-path="url(#CwMAKDXEZTHC)" stroke-opacity="1" stroke-linejoin="bevel" stroke-miterlimit="10" stroke-width="0.8" stroke-dasharray=""/><path fill="rgb(127,127,127)" stroke="rgb(127,127,127)" paint-order="fill" d="M 200.73818969726562 994.451416015625 L 200.73818969726562 1137.6363525390625 L 200.73818969726562 1137.6363525390625 L 222.5517578125 1137.611083984375 L 243.4937744140625 1137.5364990234375 L 263.601318359375 1137.414794921875 L 282.9114990234375 1137.248046875 L 301.4613952636719 1137.038330078125 L 319.2880554199219 1136.787841796875 L 336.4286193847656 1136.49853515625 L 352.920166015625 1136.1724853515625 L 368.79974365234375 1135.81201171875 L 384.1044921875 1135.4189453125 L 398.8714294433594 1134.99560546875 L 413.1377258300781 1134.5438232421875 L 426.9404296875 1134.0660400390625 L 440.3166198730469 1133.5640869140625 L 453.3033752441406 1133.0400390625 L 465.9378356933594 1132.4962158203125 L 478.25701904296875 1131.9345703125 L 490.2980651855469 1131.3570556640625 L 502.0980529785156 1130.76611328125 L 513.6940307617188 1130.16357421875 L 525.1231079101562 1129.5516357421875 L 536.4224243164062 1128.9322509765625 L 547.6290283203125 1128.3077392578125 L 558.7799682617188 1127.6800537109375 L 569.912353515625 1127.0513916015625 L 581.0632934570312 1126.4237060546875 L 592.2698974609375 1125.799072265625 L 603.5691528320312 1125.1798095703125 L 614.998291015625 1124.56787109375 L 626.59423828125 1123.96533203125 L 638.3942260742188 1123.374267578125 L 650.435302734375 1122.796875 L 662.7544555664062 1122.2352294921875 L 675.388916015625 1121.69140625 L 688.3756713867188 1121.1673583984375 L 701.7518920898438 1120.6654052734375 L 715.5545654296875 1120.1875 L 729.8208618164062 1119.73583984375 L 744.5878295898438 1119.3125 L 759.892578125 1118.91943359375 L 775.7721557617188 1118.558837890625 L 792.263671875 1118.23291015625 L 809.4042358398438 1117.943603515625 L 827.2308959960938 1117.693115234375 L 845.7808227539062 1117.4833984375 L 865.0910034179688 1117.316650390625 L 885.1985473632812 1117.1949462890625 L 906.1405639648438 1117.120361328125 L 927.9541015625 1117.0950927734375 L 927.9541015625 1117.0950927734375 L 927.9541015625 973.91015625 L 927.9541015625 973.91015625 L 906.1405639648438 973.9354248046875 L 885.1985473632812 974.010009765625 L 865.0910034179688 974.1317138671875 L 845.7808227539062 974.2984619140625 L 827.2308959960938 974.5081176757812 L 809.4042358398438 974.7586669921875 L 792.263671875 975.0479736328125 L 775.7721557617188 975.3739624023438 L 759.892578125 975.7344970703125 L 744.5878295898438 976.1275024414062 L 729.8208618164062 976.5509033203125 L 715.5545654296875 977.0026245117188 L 701.7518920898438 977.48046875 L 688.3756713867188 977.9824829101562 L 675.388916015625 978.5064086914062 L 662.7544555664062 979.05029296875 L 650.435302734375 979.6119995117188 L 638.3942260742188 980.1893920898438 L 626.59423828125 980.7803955078125 L 614.998291015625 981.3829345703125 L 603.5691528320312 981.994873046875 L 592.2698974609375 982.6141967773438 L 581.0632934570312 983.2387084960938 L 569.912353515625 983.8663940429688 L 558.7799682617188 984.4951171875 L 547.6290283203125 985.122802734375 L 536.4224243164062 985.7473754882812 L 525.1231079101562 986.3666381835938 L 513.6940307617188 986.9786376953125 L 502.0980529785156 987.5811767578125 L 490.2980651855469 988.1721801757812 L 478.25701904296875 988.7495727539062 L 465.9378356933594 989.311279296875 L 453.3033752441406 989.8551025390625 L 440.3166198730469 990.3790893554688 L 426.9404296875 990.8810424804688 L 413.1377258300781 991.3589477539062 L 398.8714294433594 991.8106079101562 L 384.1044921875 992.2340087890625 L 368.79974365234375 992.6270751953125 L 352.920166015625 992.9876098632812 L 336.4286193847656 993.3135986328125 L 319.2880554199219 993.6029052734375 L 301.4613952636719 993.8534545898438 L 282.9114990234375 994.0631103515625 L 263.601318359375 994.2298583984375 L 243.4937744140625 994.3515625 L 222.5517578125 994.4260864257812 L 200.73818969726562 994.451416015625 Z" fill-opacity="0.6" clip-path="url(#CwMAKDXEZTHC)" stroke-opacity="1" stroke-linejoin="bevel" stroke-miterlimit="10" stroke-width="0.8" stroke-dasharray=""/><path fill="rgb(127,127,127)" stroke="rgb(127,127,127)" paint-order="fill" d="M 200.73818969726562 747.3516845703125 L 200.73818969726562 842.8082885742188 L 200.73818969726562 842.8082885742188 L 222.5517578125 842.7933959960938 L 243.4937744140625 842.7495727539062 L 263.601318359375 842.677978515625 L 282.9114990234375 842.5798950195312 L 301.4613952636719 842.45654296875 L 319.2880554199219 842.3091430664062 L 336.4286193847656 842.1389770507812 L 352.920166015625 841.9472045898438 L 368.79974365234375 841.7351684570312 L 384.1044921875 841.5039672851562 L 398.8714294433594 841.2548828125 L 413.1377258300781 840.9891967773438 L 426.9404296875 840.7081298828125 L 440.3166198730469 840.412841796875 L 453.3033752441406 840.1046142578125 L 465.9378356933594 839.78466796875 L 478.25701904296875 839.4542846679688 L 490.2980651855469 839.1146240234375 L 502.0980529785156 838.7669677734375 L 513.6940307617188 838.4125366210938 L 525.1231079101562 838.0525512695312 L 536.4224243164062 837.6882934570312 L 547.6290283203125 837.3209228515625 L 558.7799682617188 836.95166015625 L 569.912353515625 836.5818481445312 L 581.0632934570312 836.2125854492188 L 592.2698974609375 835.84521484375 L 603.5691528320312 835.48095703125 L 614.998291015625 835.1209716796875 L 626.59423828125 834.7665405273438 L 638.3942260742188 834.4188842773438 L 650.435302734375 834.0792236328125 L 662.7544555664062 833.7488403320312 L 675.388916015625 833.4288940429688 L 688.3756713867188 833.1206665039062 L 701.7518920898438 832.8253784179688 L 715.5545654296875 832.5443115234375 L 729.8208618164062 832.2786254882812 L 744.5878295898438 832.029541015625 L 759.892578125 831.79833984375 L 775.7721557617188 831.5862426757812 L 792.263671875 831.39453125 L 809.4042358398438 831.224365234375 L 827.2308959960938 831.0769653320312 L 845.7808227539062 830.95361328125 L 865.0910034179688 830.8555297851562 L 885.1985473632812 830.783935546875 L 906.1405639648438 830.7401123046875 L 927.9541015625 830.7252197265625 L 927.9541015625 830.7252197265625 L 927.9541015625 735.2685546875 L 927.9541015625 735.2685546875 L 906.1405639648438 735.283447265625 L 885.1985473632812 735.3273315429688 L 865.0910034179688 735.39892578125 L 845.7808227539062 735.4970092773438 L 827.2308959960938 735.620361328125 L 809.4042358398438 735.7677001953125 L 792.263671875 735.9379272460938 L 775.7721557617188 736.129638671875 L 759.892578125 736.3417358398438 L 744.5878295898438 736.5729370117188 L 729.8208618164062 736.8219604492188 L 715.5545654296875 737.0877075195312 L 701.7518920898438 737.3687744140625 L 688.3756713867188 737.6640625 L 675.388916015625 737.9722900390625 L 662.7544555664062 738.2921752929688 L 650.435302734375 738.6226196289062 L 638.3942260742188 738.9622192382812 L 626.59423828125 739.3098754882812 L 614.998291015625 739.664306640625 L 603.5691528320312 740.0242919921875 L 592.2698974609375 740.3886108398438 L 581.0632934570312 740.7559814453125 L 569.912353515625 741.1251831054688 L 558.7799682617188 741.4950561523438 L 547.6290283203125 741.8642578125 L 536.4224243164062 742.2316284179688 L 525.1231079101562 742.595947265625 L 513.6940307617188 742.9559326171875 L 502.0980529785156 743.3103637695312 L 490.2980651855469 743.6580200195312 L 478.25701904296875 743.9976806640625 L 465.9378356933594 744.3280639648438 L 453.3033752441406 744.6480102539062 L 440.3166198730469 744.9561767578125 L 426.9404296875 745.25146484375 L 413.1377258300781 745.5325927734375 L 398.8714294433594 745.7982788085938 L 384.1044921875 746.04736328125 L 368.79974365234375 746.2785034179688 L 352.920166015625 746.4906005859375 L 336.4286193847656 746.682373046875 L 319.2880554199219 746.8525390625 L 301.4613952636719 746.9999389648438 L 282.9114990234375 747.123291015625 L 263.601318359375 747.2213745117188 L 243.4937744140625 747.29296875 L 222.5517578125 747.3367919921875 L 200.73818969726562 747.3516845703125 Z" fill-opacity="0.6" clip-path="url(#CwMAKDXEZTHC)" stroke-opacity="1" stroke-linejoin="bevel" stroke-miterlimit="10" stroke-width="0.8" stroke-dasharray=""/><path fill="rgb(127,127,127)" stroke="rgb(127,127,127)" paint-order="fill" d="M 200.73818969726562 184.2784423828125 L 200.73818969726562 232.0067596435547 L 200.73818969726562 232.0067596435547 L 222.5517578125 232.0387725830078 L 243.4937744140625 232.133056640625 L 263.601318359375 232.28697204589844 L 282.9114990234375 232.4978485107422 L 301.4613952636719 232.76304626464844 L 319.2880554199219 233.0799102783203 L 336.4286193847656 233.44580078125 L 352.920166015625 233.85806274414062 L 368.79974365234375 234.31405639648438 L 384.1044921875 234.8111114501953 L 398.8714294433594 235.34658813476562 L 413.1377258300781 235.91783142089844 L 426.9404296875 236.52220153808594 L 440.3166198730469 237.15704345703125 L 453.3033752441406 237.81971740722656 L 465.9378356933594 238.50755310058594 L 478.25701904296875 239.21792602539062 L 490.2980651855469 239.94815063476562 L 502.0980529785156 240.69561767578125 L 513.6940307617188 241.4576416015625 L 525.1231079101562 242.2316131591797 L 536.4224243164062 243.01483154296875 L 547.6290283203125 243.8046875 L 558.7799682617188 244.59852600097656 L 569.912353515625 245.3936767578125 L 581.0632934570312 246.18751525878906 L 592.2698974609375 246.9773712158203 L 603.5691528320312 247.76060485839844 L 614.998291015625 248.53456115722656 L 626.59423828125 249.2965850830078 L 638.3942260742188 250.04405212402344 L 650.435302734375 250.7742919921875 L 662.7544555664062 251.48464965820312 L 675.388916015625 252.1724853515625 L 688.3756713867188 252.8351593017578 L 701.7518920898438 253.47000122070312 L 715.5545654296875 254.07437133789062 L 729.8208618164062 254.6456298828125 L 744.5878295898438 255.1811065673828 L 759.892578125 255.67816162109375 L 775.7721557617188 256.13414001464844 L 792.263671875 256.54638671875 L 809.4042358398438 256.91229248046875 L 827.2308959960938 257.2291564941406 L 845.7808227539062 257.4943542480469 L 865.0910034179688 257.7052307128906 L 885.1985473632812 257.8591613769531 L 906.1405639648438 257.95343017578125 L 927.9541015625 257.9854431152344 L 927.9541015625 257.9854431152344 L 927.9541015625 210.25714111328125 L 927.9541015625 210.25714111328125 L 906.1405639648438 210.22512817382812 L 885.1985473632812 210.13084411621094 L 865.0910034179688 209.9769287109375 L 845.7808227539062 209.76605224609375 L 827.2308959960938 209.5008544921875 L 809.4042358398438 209.18397521972656 L 792.263671875 208.81808471679688 L 775.7721557617188 208.40582275390625 L 759.892578125 207.94984436035156 L 744.5878295898438 207.45278930664062 L 729.8208618164062 206.9173126220703 L 715.5545654296875 206.3460693359375 L 701.7518920898438 205.74168395996094 L 688.3756713867188 205.10684204101562 L 675.388916015625 204.44418334960938 L 662.7544555664062 203.75633239746094 L 650.435302734375 203.0459747314453 L 638.3942260742188 202.31573486328125 L 626.59423828125 201.5682830810547 L 614.998291015625 200.80624389648438 L 603.5691528320312 200.03228759765625 L 592.2698974609375 199.24905395507812 L 581.0632934570312 198.45919799804688 L 569.912353515625 197.66537475585938 L 558.7799682617188 196.87020874023438 L 547.6290283203125 196.07638549804688 L 536.4224243164062 195.28652954101562 L 525.1231079101562 194.5032958984375 L 513.6940307617188 193.72933959960938 L 502.0980529785156 192.96730041503906 L 490.2980651855469 192.2198486328125 L 478.25701904296875 191.48960876464844 L 465.9378356933594 190.7792510986328 L 453.3033752441406 190.09140014648438 L 440.3166198730469 189.42874145507812 L 426.9404296875 188.7938995361328 L 413.1377258300781 188.1895294189453 L 398.8714294433594 187.61827087402344 L 384.1044921875 187.08279418945312 L 368.79974365234375 186.5857391357422 L 352.920166015625 186.1297607421875 L 336.4286193847656 185.71749877929688 L 319.2880554199219 185.3516082763672 L 301.4613952636719 185.03472900390625 L 282.9114990234375 184.76953125 L 263.601318359375 184.55865478515625 L 243.4937744140625 184.40475463867188 L 222.5517578125 184.31045532226562 L 200.73818969726562 184.2784423828125 Z" fill-opacity="0.6" clip-path="url(#CwMAKDXEZTHC)" stroke-opacity="1" stroke-linejoin="bevel" stroke-miterlimit="10" stroke-width="0.8" stroke-dasharray=""/><path fill="rgb(127,127,127)" stroke="rgb(127,127,127)" paint-order="fill" d="M 200.73818969726562 847.0374145507812 L 200.73818969726562 990.2223510742188 L 200.73818969726562 990.2223510742188 L 222.5517578125 990.2022094726562 L 243.4937744140625 990.1430053710938 L 263.601318359375 990.04638671875 L 282.9114990234375 989.9140014648438 L 301.4613952636719 989.7474365234375 L 319.2880554199219 989.5484619140625 L 336.4286193847656 989.3187255859375 L 352.920166015625 989.0598754882812 L 368.79974365234375 988.7735595703125 L 384.1044921875 988.4614868164062 L 398.8714294433594 988.125244140625 L 413.1377258300781 987.7665405273438 L 426.9404296875 987.3870239257812 L 440.3166198730469 986.9884033203125 L 453.3033752441406 986.5723266601562 L 465.9378356933594 986.1404418945312 L 478.25701904296875 985.6943969726562 L 490.2980651855469 985.2359008789062 L 502.0980529785156 984.7665405273438 L 513.6940307617188 984.2880249023438 L 525.1231079101562 983.8020629882812 L 536.4224243164062 983.310302734375 L 547.6290283203125 982.8143310546875 L 558.7799682617188 982.3158569335938 L 569.912353515625 981.8165893554688 L 581.0632934570312 981.318115234375 L 592.2698974609375 980.8222045898438 L 603.5691528320312 980.3303833007812 L 614.998291015625 979.8444213867188 L 626.59423828125 979.3659057617188 L 638.3942260742188 978.8966064453125 L 650.435302734375 978.4380493164062 L 662.7544555664062 977.9920043945312 L 675.388916015625 977.5601196289062 L 688.3756713867188 977.14404296875 L 701.7518920898438 976.7454223632812 L 715.5545654296875 976.3659057617188 L 729.8208618164062 976.0072631835938 L 744.5878295898438 975.6710205078125 L 759.892578125 975.35888671875 L 775.7721557617188 975.0725708007812 L 792.263671875 974.813720703125 L 809.4042358398438 974.583984375 L 827.2308959960938 974.385009765625 L 845.7808227539062 974.218505859375 L 865.0910034179688 974.0860595703125 L 885.1985473632812 973.9894409179688 L 906.1405639648438 973.9302368164062 L 927.9541015625 973.91015625 L 927.9541015625 973.91015625 L 927.9541015625 830.7252197265625 L 927.9541015625 830.7252197265625 L 906.1405639648438 830.7453002929688 L 885.1985473632812 830.8045043945312 L 865.0910034179688 830.901123046875 L 845.7808227539062 831.0335693359375 L 827.2308959960938 831.2000732421875 L 809.4042358398438 831.3990478515625 L 792.263671875 831.6287841796875 L 775.7721557617188 831.8876342773438 L 759.892578125 832.1739501953125 L 744.5878295898438 832.486083984375 L 729.8208618164062 832.8223266601562 L 715.5545654296875 833.1809692382812 L 701.7518920898438 833.5604858398438 L 688.3756713867188 833.9591064453125 L 675.388916015625 834.3751831054688 L 662.7544555664062 834.8070678710938 L 650.435302734375 835.2531127929688 L 638.3942260742188 835.711669921875 L 626.59423828125 836.1809692382812 L 614.998291015625 836.6594848632812 L 603.5691528320312 837.1454467773438 L 592.2698974609375 837.6372680664062 L 581.0632934570312 838.1331787109375 L 569.912353515625 838.6316528320312 L 558.7799682617188 839.1309204101562 L 547.6290283203125 839.62939453125 L 536.4224243164062 840.1253662109375 L 525.1231079101562 840.6171264648438 L 513.6940307617188 841.1031494140625 L 502.0980529785156 841.5816040039062 L 490.2980651855469 842.0509643554688 L 478.25701904296875 842.5094604492188 L 465.9378356933594 842.9555053710938 L 453.3033752441406 843.3873901367188 L 440.3166198730469 843.803466796875 L 426.9404296875 844.2021484375 L 413.1377258300781 844.5816040039062 L 398.8714294433594 844.9403076171875 L 384.1044921875 845.2765502929688 L 368.79974365234375 845.588623046875 L 352.920166015625 845.8749389648438 L 336.4286193847656 846.1337890625 L 319.2880554199219 846.3635864257812 L 301.4613952636719 846.5625 L 282.9114990234375 846.7290649414062 L 263.601318359375 846.8614501953125 L 243.4937744140625 846.9580688476562 L 222.5517578125 847.0172729492188 L 200.73818969726562 847.0374145507812 Z" fill-opacity="0.6" clip-path="url(#CwMAKDXEZTHC)" stroke-opacity="1" stroke-linejoin="bevel" stroke-miterlimit="10" stroke-width="0.8" stroke-dasharray=""/><path fill="rgb(127,127,127)" stroke="rgb(127,127,127)" paint-order="fill" d="M 200.73818969726562 132.321044921875 L 200.73818969726562 180.04934692382812 L 200.73818969726562 180.04934692382812 L 222.5517578125 180.08657836914062 L 243.4937744140625 180.1962127685547 L 263.601318359375 180.37518310546875 L 282.9114990234375 180.62039184570312 L 301.4613952636719 180.9287567138672 L 319.2880554199219 181.29721069335938 L 336.4286193847656 181.72267150878906 L 352.920166015625 182.20204162597656 L 368.79974365234375 182.7322540283203 L 384.1044921875 183.3102264404297 L 398.8714294433594 183.93287658691406 L 413.1377258300781 184.5971221923828 L 426.9404296875 185.2998809814453 L 440.3166198730469 186.03807067871094 L 453.3033752441406 186.80860900878906 L 465.9378356933594 187.60842895507812 L 478.25701904296875 188.43443298339844 L 490.2980651855469 189.28353881835938 L 502.0980529785156 190.15267944335938 L 513.6940307617188 191.03875732421875 L 525.1231079101562 191.938720703125 L 536.4224243164062 192.84945678710938 L 547.6290283203125 193.76788330078125 L 558.7799682617188 194.69094848632812 L 569.912353515625 195.61553955078125 L 581.0632934570312 196.53860473632812 L 592.2698974609375 197.45704650878906 L 603.5691528320312 198.36778259277344 L 614.998291015625 199.26773071289062 L 626.59423828125 200.15380859375 L 638.3942260742188 201.02294921875 L 650.435302734375 201.8720703125 L 662.7544555664062 202.6980743408203 L 675.388916015625 203.4978790283203 L 688.3756713867188 204.2684326171875 L 701.7518920898438 205.00662231445312 L 715.5545654296875 205.70938110351562 L 729.8208618164062 206.3736114501953 L 744.5878295898438 206.9962615966797 L 759.892578125 207.57423400878906 L 775.7721557617188 208.1044464111328 L 792.263671875 208.58383178710938 L 809.4042358398438 209.00927734375 L 827.2308959960938 209.3777313232422 L 845.7808227539062 209.6861114501953 L 865.0910034179688 209.93130493164062 L 885.1985473632812 210.1102752685547 L 906.1405639648438 210.21990966796875 L 927.9541015625 210.25714111328125 L 927.9541015625 210.25714111328125 L 927.9541015625 162.52882385253906 L 927.9541015625 162.52882385253906 L 906.1405639648438 162.49160766601562 L 885.1985473632812 162.3819580078125 L 865.0910034179688 162.2030029296875 L 845.7808227539062 161.95779418945312 L 827.2308959960938 161.6494140625 L 809.4042358398438 161.28097534179688 L 792.263671875 160.8555145263672 L 775.7721557617188 160.3761444091797 L 759.892578125 159.84593200683594 L 744.5878295898438 159.26795959472656 L 729.8208618164062 158.6453094482422 L 715.5545654296875 157.98106384277344 L 701.7518920898438 157.27830505371094 L 688.3756713867188 156.5401153564453 L 675.388916015625 155.7695770263672 L 662.7544555664062 154.96975708007812 L 650.435302734375 154.1437530517578 L 638.3942260742188 153.29464721679688 L 626.59423828125 152.42550659179688 L 614.998291015625 151.53941345214844 L 603.5691528320312 150.63946533203125 L 592.2698974609375 149.72872924804688 L 581.0632934570312 148.81028747558594 L 569.912353515625 147.88723754882812 L 558.7799682617188 146.96263122558594 L 547.6290283203125 146.03958129882812 L 536.4224243164062 145.1211395263672 L 525.1231079101562 144.2104034423828 L 513.6940307617188 143.31045532226562 L 502.0980529785156 142.4243621826172 L 490.2980651855469 141.5552215576172 L 478.25701904296875 140.70611572265625 L 465.9378356933594 139.88011169433594 L 453.3033752441406 139.08029174804688 L 440.3166198730469 138.30975341796875 L 426.9404296875 137.57156372070312 L 413.1377258300781 136.86880493164062 L 398.8714294433594 136.20455932617188 L 384.1044921875 135.5819091796875 L 368.79974365234375 135.0039520263672 L 352.920166015625 134.47372436523438 L 336.4286193847656 133.99435424804688 L 319.2880554199219 133.56890869140625 L 301.4613952636719 133.20045471191406 L 282.9114990234375 132.89207458496094 L 263.601318359375 132.64686584472656 L 243.4937744140625 132.46791076660156 L 222.5517578125 132.3582763671875 L 200.73818969726562 132.321044921875 Z" fill-opacity="0.6" clip-path="url(#CwMAKDXEZTHC)" stroke-opacity="1" stroke-linejoin="bevel" stroke-miterlimit="10" stroke-width="0.8" stroke-dasharray=""/><path fill="rgb(127,127,127)" stroke="rgb(127,127,127)" paint-order="fill" d="M 200.73818969726562 647.6659545898438 L 200.73818969726562 743.1226196289062 L 200.73818969726562 743.1226196289062 L 222.5517578125 743.1129150390625 L 243.4937744140625 743.0844116210938 L 263.601318359375 743.0379028320312 L 282.9114990234375 742.97412109375 L 301.4613952636719 742.8939208984375 L 319.2880554199219 742.7981567382812 L 336.4286193847656 742.6875610351562 L 352.920166015625 742.5629272460938 L 368.79974365234375 742.425048828125 L 384.1044921875 742.2747802734375 L 398.8714294433594 742.1128540039062 L 413.1377258300781 741.940185546875 L 426.9404296875 741.7574462890625 L 440.3166198730469 741.5655517578125 L 453.3033752441406 741.3651733398438 L 465.9378356933594 741.1572265625 L 478.25701904296875 740.9425048828125 L 490.2980651855469 740.7216796875 L 502.0980529785156 740.4957275390625 L 513.6940307617188 740.2653198242188 L 525.1231079101562 740.0313720703125 L 536.4224243164062 739.7945556640625 L 547.6290283203125 739.5557861328125 L 558.7799682617188 739.3157958984375 L 569.912353515625 739.0753784179688 L 581.0632934570312 738.8353881835938 L 592.2698974609375 738.5966186523438 L 603.5691528320312 738.3598022460938 L 614.998291015625 738.1257934570312 L 626.59423828125 737.8954467773438 L 638.3942260742188 737.66943359375 L 650.435302734375 737.4486694335938 L 662.7544555664062 737.2339477539062 L 675.388916015625 737.0260009765625 L 688.3756713867188 736.8256225585938 L 701.7518920898438 736.6337280273438 L 715.5545654296875 736.4509887695312 L 729.8208618164062 736.2782592773438 L 744.5878295898438 736.1163940429688 L 759.892578125 735.9661254882812 L 775.7721557617188 735.8282470703125 L 792.263671875 735.70361328125 L 809.4042358398438 735.593017578125 L 827.2308959960938 735.4971923828125 L 845.7808227539062 735.4170532226562 L 865.0910034179688 735.353271484375 L 885.1985473632812 735.3067626953125 L 906.1405639648438 735.2782592773438 L 927.9541015625 735.2685546875 L 927.9541015625 735.2685546875 L 927.9541015625 639.8119506835938 L 927.9541015625 639.8119506835938 L 906.1405639648438 639.8216552734375 L 885.1985473632812 639.8501586914062 L 865.0910034179688 639.8966674804688 L 845.7808227539062 639.9603881835938 L 827.2308959960938 640.0405883789062 L 809.4042358398438 640.1364135742188 L 792.263671875 640.2470092773438 L 775.7721557617188 640.3716430664062 L 759.892578125 640.509521484375 L 744.5878295898438 640.6597900390625 L 729.8208618164062 640.8216552734375 L 715.5545654296875 640.994384765625 L 701.7518920898438 641.1770629882812 L 688.3756713867188 641.3690185546875 L 675.388916015625 641.5693359375 L 662.7544555664062 641.7772827148438 L 650.435302734375 641.9920654296875 L 638.3942260742188 642.2128295898438 L 626.59423828125 642.4388427734375 L 614.998291015625 642.669189453125 L 603.5691528320312 642.9031982421875 L 592.2698974609375 643.1399536132812 L 581.0632934570312 643.3787841796875 L 569.912353515625 643.6187744140625 L 558.7799682617188 643.859130859375 L 547.6290283203125 644.0991821289062 L 536.4224243164062 644.3379516601562 L 525.1231079101562 644.5747680664062 L 513.6940307617188 644.8087158203125 L 502.0980529785156 645.0391235351562 L 490.2980651855469 645.2650756835938 L 478.25701904296875 645.48583984375 L 465.9378356933594 645.7006225585938 L 453.3033752441406 645.9085693359375 L 440.3166198730469 646.10888671875 L 426.9404296875 646.3008422851562 L 413.1377258300781 646.4835815429688 L 398.8714294433594 646.65625 L 384.1044921875 646.8181762695312 L 368.79974365234375 646.9684448242188 L 352.920166015625 647.1062622070312 L 336.4286193847656 647.2308959960938 L 319.2880554199219 647.341552734375 L 301.4613952636719 647.4373168945312 L 282.9114990234375 647.5175170898438 L 263.601318359375 647.5812377929688 L 243.4937744140625 647.6278076171875 L 222.5517578125 647.6563110351562 L 200.73818969726562 647.6659545898438 Z" fill-opacity="0.6" clip-path="url(#CwMAKDXEZTHC)" stroke-opacity="1" stroke-linejoin="bevel" stroke-miterlimit="10" stroke-width="0.8" stroke-dasharray=""/><path fill="rgb(127,127,127)" stroke="rgb(127,127,127)" paint-order="fill" d="M 200.73818969726562 547.9802856445312 L 200.73818969726562 643.4368896484375 L 200.73818969726562 643.4368896484375 L 222.5517578125 643.4324340820312 L 243.4937744140625 643.4192504882812 L 263.601318359375 643.3977661132812 L 282.9114990234375 643.3683471679688 L 301.4613952636719 643.3313598632812 L 319.2880554199219 643.287109375 L 336.4286193847656 643.236083984375 L 352.920166015625 643.1785888671875 L 368.79974365234375 643.1149291992188 L 384.1044921875 643.0455932617188 L 398.8714294433594 642.9708862304688 L 413.1377258300781 642.8911743164062 L 426.9404296875 642.8068237304688 L 440.3166198730469 642.71826171875 L 453.3033752441406 642.6257934570312 L 465.9378356933594 642.52978515625 L 478.25701904296875 642.4306640625 L 490.2980651855469 642.3287963867188 L 502.0980529785156 642.2244873046875 L 513.6940307617188 642.1181640625 L 525.1231079101562 642.0101318359375 L 536.4224243164062 641.90087890625 L 547.6290283203125 641.7906494140625 L 558.7799682617188 641.6798706054688 L 569.912353515625 641.5689697265625 L 581.0632934570312 641.4581909179688 L 592.2698974609375 641.3479614257812 L 603.5691528320312 641.2386474609375 L 614.998291015625 641.1306762695312 L 626.59423828125 641.0243530273438 L 638.3942260742188 640.9200439453125 L 650.435302734375 640.8181762695312 L 662.7544555664062 640.7190551757812 L 675.388916015625 640.623046875 L 688.3756713867188 640.5305786132812 L 701.7518920898438 640.4420166015625 L 715.5545654296875 640.357666015625 L 729.8208618164062 640.2779541015625 L 744.5878295898438 640.2032470703125 L 759.892578125 640.1339111328125 L 775.7721557617188 640.0702514648438 L 792.263671875 640.0127563476562 L 809.4042358398438 639.961669921875 L 827.2308959960938 639.91748046875 L 845.7808227539062 639.8804931640625 L 865.0910034179688 639.85107421875 L 885.1985473632812 639.82958984375 L 906.1405639648438 639.81640625 L 927.9541015625 639.8119506835938 L 927.9541015625 639.8119506835938 L 927.9541015625 544.3553466796875 L 927.9541015625 544.3553466796875 L 906.1405639648438 544.3598022460938 L 885.1985473632812 544.3729248046875 L 865.0910034179688 544.3944091796875 L 845.7808227539062 544.423828125 L 827.2308959960938 544.4608764648438 L 809.4042358398438 544.5050659179688 L 792.263671875 544.55615234375 L 775.7721557617188 544.6136474609375 L 759.892578125 544.67724609375 L 744.5878295898438 544.7466430664062 L 729.8208618164062 544.8213500976562 L 715.5545654296875 544.9010620117188 L 701.7518920898438 544.9854125976562 L 688.3756713867188 545.073974609375 L 675.388916015625 545.1664428710938 L 662.7544555664062 545.2623901367188 L 650.435302734375 545.3615112304688 L 638.3942260742188 545.4634399414062 L 626.59423828125 545.5677490234375 L 614.998291015625 545.674072265625 L 603.5691528320312 545.7820434570312 L 592.2698974609375 545.891357421875 L 581.0632934570312 546.0015258789062 L 569.912353515625 546.1123046875 L 558.7799682617188 546.2232666015625 L 547.6290283203125 546.3340454101562 L 536.4224243164062 546.4442749023438 L 525.1231079101562 546.5535278320312 L 513.6940307617188 546.6615600585938 L 502.0980529785156 546.7678833007812 L 490.2980651855469 546.8721313476562 L 478.25701904296875 546.9740600585938 L 465.9378356933594 547.0731811523438 L 453.3033752441406 547.1691284179688 L 440.3166198730469 547.2615966796875 L 426.9404296875 547.3502197265625 L 413.1377258300781 547.4345092773438 L 398.8714294433594 547.5142211914062 L 384.1044921875 547.5889282226562 L 368.79974365234375 547.6583251953125 L 352.920166015625 547.721923828125 L 336.4286193847656 547.7794799804688 L 319.2880554199219 547.8305053710938 L 301.4613952636719 547.874755859375 L 282.9114990234375 547.9117431640625 L 263.601318359375 547.941162109375 L 243.4937744140625 547.962646484375 L 222.5517578125 547.9757690429688 L 200.73818969726562 547.9802856445312 Z" fill-opacity="0.6" clip-path="url(#CwMAKDXEZTHC)" stroke-opacity="1" stroke-linejoin="bevel" stroke-miterlimit="10" stroke-width="0.8" stroke-dasharray=""/><path fill="rgb(127,127,127)" stroke="rgb(127,127,127)" paint-order="fill" d="M 200.73818969726562 80.36363983154297 L 200.73818969726562 128.09194946289062 L 200.73818969726562 128.09194946289062 L 222.5517578125 128.13439178466797 L 243.4937744140625 128.2593765258789 L 263.601318359375 128.46339416503906 L 282.9114990234375 128.74293518066406 L 301.4613952636719 129.094482421875 L 319.2880554199219 129.51451110839844 L 336.4286193847656 129.99952697753906 L 352.920166015625 130.5460205078125 L 368.79974365234375 131.1504669189453 L 384.1044921875 131.80934143066406 L 398.8714294433594 132.5191650390625 L 413.1377258300781 133.27639770507812 L 426.9404296875 134.07754516601562 L 440.3166198730469 134.91908264160156 L 453.3033752441406 135.79750061035156 L 465.9378356933594 136.70928955078125 L 478.25701904296875 137.65093994140625 L 490.2980651855469 138.61892700195312 L 502.0980529785156 139.6097412109375 L 513.6940307617188 140.619873046875 L 525.1231079101562 141.6458282470703 L 536.4224243164062 142.68406677246094 L 547.6290283203125 143.7310791015625 L 558.7799682617188 144.7833709716797 L 569.912353515625 145.83741760253906 L 581.0632934570312 146.8896942138672 L 592.2698974609375 147.9367218017578 L 603.5691528320312 148.97496032714844 L 614.998291015625 150.0009002685547 L 626.59423828125 151.0110321044922 L 638.3942260742188 152.00186157226562 L 650.435302734375 152.9698486328125 L 662.7544555664062 153.91148376464844 L 675.388916015625 154.82327270507812 L 688.3756713867188 155.70169067382812 L 701.7518920898438 156.54322814941406 L 715.5545654296875 157.34437561035156 L 729.8208618164062 158.1016082763672 L 744.5878295898438 158.81143188476562 L 759.892578125 159.47032165527344 L 775.7721557617188 160.07476806640625 L 792.263671875 160.62124633789062 L 809.4042358398438 161.10626220703125 L 827.2308959960938 161.52630615234375 L 845.7808227539062 161.8778533935547 L 865.0910034179688 162.15737915039062 L 885.1985473632812 162.3614044189453 L 906.1405639648438 162.48638916015625 L 927.9541015625 162.52882385253906 L 927.9541015625 162.52882385253906 L 927.9541015625 114.80052185058594 L 927.9541015625 114.80052185058594 L 906.1405639648438 114.7580795288086 L 885.1985473632812 114.63308715820312 L 865.0910034179688 114.42906951904297 L 845.7808227539062 114.1495361328125 L 827.2308959960938 113.79798889160156 L 809.4042358398438 113.3779525756836 L 792.263671875 112.89293670654297 L 775.7721557617188 112.34645080566406 L 759.892578125 111.74200439453125 L 744.5878295898438 111.08312225341797 L 729.8208618164062 110.37329864501953 L 715.5545654296875 109.6160659790039 L 701.7518920898438 108.8149185180664 L 688.3756713867188 107.97338104248047 L 675.388916015625 107.09496307373047 L 662.7544555664062 106.18317413330078 L 650.435302734375 105.24153137207031 L 638.3942260742188 104.27354431152344 L 626.59423828125 103.28272247314453 L 614.998291015625 102.27259063720703 L 603.5691528320312 101.24664306640625 L 592.2698974609375 100.20840454101562 L 581.0632934570312 99.16138458251953 L 569.912353515625 98.10910034179688 L 558.7799682617188 97.0550537109375 L 547.6290283203125 96.00276947021484 L 536.4224243164062 94.95574951171875 L 525.1231079101562 93.91751098632812 L 513.6940307617188 92.89157104492188 L 502.0980529785156 91.88143157958984 L 490.2980651855469 90.89060974121094 L 478.25701904296875 89.92262268066406 L 465.9378356933594 88.9809799194336 L 453.3033752441406 88.0691909790039 L 440.3166198730469 87.1907730102539 L 426.9404296875 86.34923553466797 L 413.1377258300781 85.548095703125 L 398.8714294433594 84.79085540771484 L 384.1044921875 84.08103942871094 L 368.79974365234375 83.42214965820312 L 352.920166015625 82.81770324707031 L 336.4286193847656 82.2712173461914 L 319.2880554199219 81.78620147705078 L 301.4613952636719 81.36616516113281 L 282.9114990234375 81.01461791992188 L 263.601318359375 80.7350845336914 L 243.4937744140625 80.53106689453125 L 222.5517578125 80.40608215332031 L 200.73818969726562 80.36363983154297 Z" fill-opacity="0.6" clip-path="url(#CwMAKDXEZTHC)" stroke-opacity="1" stroke-linejoin="bevel" stroke-miterlimit="10" stroke-width="0.8" stroke-dasharray=""/><path fill="rgb(31,119,180)" stroke="rgb(0,0,0)" paint-order="fill" d="M 189.49258422851562 496.0228576660156 L 200.73818969726562 496.0228576660156 L 200.73818969726562 543.7511596679688 L 189.49258422851562 543.7511596679688 L 189.49258422851562 496.0228576660156" fill-opacity="0.9019607843137255" clip-path="url(#LTmWTpyPoPDI)" stroke-opacity="0.2" stroke-linejoin="bevel" stroke-miterlimit="10" stroke-width="0.5" stroke-dasharray=""/><path fill="rgb(174,199,232)" stroke="rgb(0,0,0)" paint-order="fill" d="M 189.49258422851562 444.0654602050781 L 200.73818969726562 444.0654602050781 L 200.73818969726562 491.79376220703125 L 189.49258422851562 491.79376220703125 L 189.49258422851562 444.0654602050781" fill-opacity="0.9019607843137255" clip-path="url(#LTmWTpyPoPDI)" stroke-opacity="0.2" stroke-linejoin="bevel" stroke-miterlimit="10" stroke-width="0.5" stroke-dasharray=""/><path fill="rgb(255,127,14)" stroke="rgb(0,0,0)" paint-order="fill" d="M 189.49258422851562 392.1080627441406 L 200.73818969726562 392.1080627441406 L 200.73818969726562 439.83636474609375 L 189.49258422851562 439.83636474609375 L 189.49258422851562 392.1080627441406" fill-opacity="0.9019607843137255" clip-path="url(#LTmWTpyPoPDI)" stroke-opacity="0.2" stroke-linejoin="bevel" stroke-miterlimit="10" stroke-width="0.5" stroke-dasharray=""/><path fill="rgb(255,187,120)" stroke="rgb(0,0,0)" paint-order="fill" d="M 189.49258422851562 340.150634765625 L 200.73818969726562 340.150634765625 L 200.73818969726562 387.87896728515625 L 189.49258422851562 387.87896728515625 L 189.49258422851562 340.150634765625" fill-opacity="0.9019607843137255" clip-path="url(#LTmWTpyPoPDI)" stroke-opacity="0.2" stroke-linejoin="bevel" stroke-miterlimit="10" stroke-width="0.5" stroke-dasharray=""/><path fill="rgb(44,160,44)" stroke="rgb(0,0,0)" paint-order="fill" d="M 189.49258422851562 288.1932373046875 L 200.73818969726562 288.1932373046875 L 200.73818969726562 335.92156982421875 L 189.49258422851562 335.92156982421875 L 189.49258422851562 288.1932373046875" fill-opacity="0.9019607843137255" clip-path="url(#LTmWTpyPoPDI)" stroke-opacity="0.2" stroke-linejoin="bevel" stroke-miterlimit="10" stroke-width="0.5" stroke-dasharray=""/><path fill="rgb(152,223,138)" stroke="rgb(0,0,0)" paint-order="fill" d="M 189.49258422851562 236.23583984375 L 200.73818969726562 236.23583984375 L 200.73818969726562 283.9641418457031 L 189.49258422851562 283.9641418457031 L 189.49258422851562 236.23583984375" fill-opacity="0.9019607843137255" clip-path="url(#LTmWTpyPoPDI)" stroke-opacity="0.2" stroke-linejoin="bevel" stroke-miterlimit="10" stroke-width="0.5" stroke-dasharray=""/><path fill="rgb(214,39,40)" stroke="rgb(0,0,0)" paint-order="fill" d="M 189.49258422851562 994.451416015625 L 200.73818969726562 994.451416015625 L 200.73818969726562 1137.6363525390625 L 189.49258422851562 1137.6363525390625 L 189.49258422851562 994.451416015625" fill-opacity="0.9019607843137255" clip-path="url(#LTmWTpyPoPDI)" stroke-opacity="0.2" stroke-linejoin="bevel" stroke-miterlimit="10" stroke-width="0.5" stroke-dasharray=""/><path fill="rgb(255,152,150)" stroke="rgb(0,0,0)" paint-order="fill" d="M 189.49258422851562 747.3516845703125 L 200.73818969726562 747.3516845703125 L 200.73818969726562 842.8082885742188 L 189.49258422851562 842.8082885742188 L 189.49258422851562 747.3516845703125" fill-opacity="0.9019607843137255" clip-path="url(#LTmWTpyPoPDI)" stroke-opacity="0.2" stroke-linejoin="bevel" stroke-miterlimit="10" stroke-width="0.5" stroke-dasharray=""/><path fill="rgb(148,103,189)" stroke="rgb(0,0,0)" paint-order="fill" d="M 189.49258422851562 184.2784423828125 L 200.73818969726562 184.2784423828125 L 200.73818969726562 232.0067596435547 L 189.49258422851562 232.0067596435547 L 189.49258422851562 184.2784423828125" fill-opacity="0.9019607843137255" clip-path="url(#LTmWTpyPoPDI)" stroke-opacity="0.2" stroke-linejoin="bevel" stroke-miterlimit="10" stroke-width="0.5" stroke-dasharray=""/><path fill="rgb(197,176,213)" stroke="rgb(0,0,0)" paint-order="fill" d="M 189.49258422851562 847.0374145507812 L 200.73818969726562 847.0374145507812 L 200.73818969726562 990.2223510742188 L 189.49258422851562 990.2223510742188 L 189.49258422851562 847.0374145507812" fill-opacity="0.9019607843137255" clip-path="url(#LTmWTpyPoPDI)" stroke-opacity="0.2" stroke-linejoin="bevel" stroke-miterlimit="10" stroke-width="0.5" stroke-dasharray=""/><path fill="rgb(140,86,75)" stroke="rgb(0,0,0)" paint-order="fill" d="M 189.49258422851562 132.321044921875 L 200.73818969726562 132.321044921875 L 200.73818969726562 180.04934692382812 L 189.49258422851562 180.04934692382812 L 189.49258422851562 132.321044921875" fill-opacity="0.9019607843137255" clip-path="url(#LTmWTpyPoPDI)" stroke-opacity="0.2" stroke-linejoin="bevel" stroke-miterlimit="10" stroke-width="0.5" stroke-dasharray=""/><path fill="rgb(196,156,148)" stroke="rgb(0,0,0)" paint-order="fill" d="M 189.49258422851562 647.6659545898438 L 200.73818969726562 647.6659545898438 L 200.73818969726562 743.1226196289062 L 189.49258422851562 743.1226196289062 L 189.49258422851562 647.6659545898438" fill-opacity="0.9019607843137255" clip-path="url(#LTmWTpyPoPDI)" stroke-opacity="0.2" stroke-linejoin="bevel" stroke-miterlimit="10" stroke-width="0.5" stroke-dasharray=""/><path fill="rgb(227,119,194)" stroke="rgb(0,0,0)" paint-order="fill" d="M 189.49258422851562 547.9802856445312 L 200.73818969726562 547.9802856445312 L 200.73818969726562 643.4368896484375 L 189.49258422851562 643.4368896484375 L 189.49258422851562 547.9802856445312" fill-opacity="0.9019607843137255" clip-path="url(#LTmWTpyPoPDI)" stroke-opacity="0.2" stroke-linejoin="bevel" stroke-miterlimit="10" stroke-width="0.5" stroke-dasharray=""/><path fill="rgb(247,182,210)" stroke="rgb(0,0,0)" paint-order="fill" d="M 189.49258422851562 80.36363983154297 L 200.73818969726562 80.36363983154297 L 200.73818969726562 128.09194946289062 L 189.49258422851562 128.09194946289062 L 189.49258422851562 80.36363983154297" fill-opacity="0.9019607843137255" clip-path="url(#LTmWTpyPoPDI)" stroke-opacity="0.2" stroke-linejoin="bevel" stroke-miterlimit="10" stroke-width="0.5" stroke-dasharray=""/><path fill="rgb(127,127,127)" stroke="rgb(0,0,0)" paint-order="fill" d="M 927.9541015625 114.80052185058594 L 939.19970703125 114.80052185058594 L 939.19970703125 1117.0950927734375 L 927.9541015625 1117.0950927734375 L 927.9541015625 114.80052185058594" fill-opacity="0.9019607843137255" clip-path="url(#LTmWTpyPoPDI)" stroke-opacity="0.2" stroke-linejoin="bevel" stroke-miterlimit="10" stroke-width="0.5" stroke-dasharray=""/><g clip-path="url(#syKyCpqWcIJJ)"><text fill="rgb(0,0,0)" stroke="none" font-family="helvetica" font-size="8pt" font-style="normal" font-weight="normal" text-decoration="normal" x="0" y="0" text-anchor="end" dominant-baseline="central" transform="matrix(1, 0, 0, 1, 186.68118286132812, 519.8870239257812)" fill-opacity="1">1999 - 1</text></g><g clip-path="url(#syKyCpqWcIJJ)"><text fill="rgb(0,0,0)" stroke="none" font-family="helvetica" font-size="8pt" font-style="normal" font-weight="normal" text-decoration="normal" x="0" y="0" text-anchor="end" dominant-baseline="central" transform="matrix(1, 0, 0, 1, 186.68118286132812, 467.9295959472656)" fill-opacity="1">2000 - 1</text></g><g clip-path="url(#syKyCpqWcIJJ)"><text fill="rgb(0,0,0)" stroke="none" font-family="helvetica" font-size="8pt" font-style="normal" font-weight="normal" text-decoration="normal" x="0" y="0" text-anchor="end" dominant-baseline="central" transform="matrix(1, 0, 0, 1, 186.68118286132812, 415.9721984863281)" fill-opacity="1">2002 - 1</text></g><g clip-path="url(#syKyCpqWcIJJ)"><text fill="rgb(0,0,0)" stroke="none" font-family="helvetica" font-size="8pt" font-style="normal" font-weight="normal" text-decoration="normal" x="0" y="0" text-anchor="end" dominant-baseline="central" transform="matrix(1, 0, 0, 1, 186.68118286132812, 364.0148010253906)" fill-opacity="1">2004 - 1</text></g><g clip-path="url(#syKyCpqWcIJJ)"><text fill="rgb(0,0,0)" stroke="none" font-family="helvetica" font-size="8pt" font-style="normal" font-weight="normal" text-decoration="normal" x="0" y="0" text-anchor="end" dominant-baseline="central" transform="matrix(1, 0, 0, 1, 186.68118286132812, 312.0574035644531)" fill-opacity="1">2005 - 1</text></g><g clip-path="url(#syKyCpqWcIJJ)"><text fill="rgb(0,0,0)" stroke="none" font-family="helvetica" font-size="8pt" font-style="normal" font-weight="normal" text-decoration="normal" x="0" y="0" text-anchor="end" dominant-baseline="central" transform="matrix(1, 0, 0, 1, 186.68118286132812, 260.1000061035156)" fill-opacity="1">2006 - 1</text></g><g clip-path="url(#syKyCpqWcIJJ)"><text fill="rgb(0,0,0)" stroke="none" font-family="helvetica" font-size="8pt" font-style="normal" font-weight="normal" text-decoration="normal" x="0" y="0" text-anchor="end" dominant-baseline="central" transform="matrix(1, 0, 0, 1, 186.68118286132812, 1066.0439453125)" fill-opacity="1">2007 - 3</text></g><g clip-path="url(#syKyCpqWcIJJ)"><text fill="rgb(0,0,0)" stroke="none" font-family="helvetica" font-size="8pt" font-style="normal" font-weight="normal" text-decoration="normal" x="0" y="0" text-anchor="end" dominant-baseline="central" transform="matrix(1, 0, 0, 1, 186.68118286132812, 795.0800170898438)" fill-opacity="1">2008 - 2</text></g><g clip-path="url(#syKyCpqWcIJJ)"><text fill="rgb(0,0,0)" stroke="none" font-family="helvetica" font-size="8pt" font-style="normal" font-weight="normal" text-decoration="normal" x="0" y="0" text-anchor="end" dominant-baseline="central" transform="matrix(1, 0, 0, 1, 186.68118286132812, 208.14259338378906)" fill-opacity="1">2009 - 1</text></g><g clip-path="url(#syKyCpqWcIJJ)"><text fill="rgb(0,0,0)" stroke="none" font-family="helvetica" font-size="8pt" font-style="normal" font-weight="normal" text-decoration="normal" x="0" y="0" text-anchor="end" dominant-baseline="central" transform="matrix(1, 0, 0, 1, 186.68118286132812, 918.6298828125)" fill-opacity="1">2010 - 3</text></g><g clip-path="url(#syKyCpqWcIJJ)"><text fill="rgb(0,0,0)" stroke="none" font-family="helvetica" font-size="8pt" font-style="normal" font-weight="normal" text-decoration="normal" x="0" y="0" text-anchor="end" dominant-baseline="central" transform="matrix(1, 0, 0, 1, 186.68118286132812, 156.18519592285156)" fill-opacity="1">2011 - 1</text></g><g clip-path="url(#syKyCpqWcIJJ)"><text fill="rgb(0,0,0)" stroke="none" font-family="helvetica" font-size="8pt" font-style="normal" font-weight="normal" text-decoration="normal" x="0" y="0" text-anchor="end" dominant-baseline="central" transform="matrix(1, 0, 0, 1, 186.68118286132812, 695.394287109375)" fill-opacity="1">2013 - 2</text></g><g clip-path="url(#syKyCpqWcIJJ)"><text fill="rgb(0,0,0)" stroke="none" font-family="helvetica" font-size="8pt" font-style="normal" font-weight="normal" text-decoration="normal" x="0" y="0" text-anchor="end" dominant-baseline="central" transform="matrix(1, 0, 0, 1, 186.68118286132812, 595.7085571289062)" fill-opacity="1">2014 - 2</text></g><g clip-path="url(#syKyCpqWcIJJ)"><text fill="rgb(0,0,0)" stroke="none" font-family="helvetica" font-size="8pt" font-style="normal" font-weight="normal" text-decoration="normal" x="0" y="0" text-anchor="end" dominant-baseline="central" transform="matrix(1, 0, 0, 1, 186.68118286132812, 104.22779083251953)" fill-opacity="1">2015 - 1</text></g><g clip-path="url(#syKyCpqWcIJJ)"><text fill="rgb(0,0,0)" stroke="none" font-family="helvetica" font-size="8pt" font-style="normal" font-weight="normal" text-decoration="normal" x="0" y="0" text-anchor="end" dominant-baseline="central" transform="matrix(1, 0, 0, 1, 925.1427001953125, 615.9478149414062)" fill-opacity="1">Dnepr - 21</text></g><text fill="rgb(68,68,68)" stroke="none" font-family="helvetica" font-size="13px" font-style="normal" font-weight="bold" text-decoration="normal" x="10" y="19.1689453125" text-anchor="start" dominant-baseline="alphabetic" transform="matrix(1, 0, 0, 1, 0.5, 0.5)" fill-opacity="1">Kosmotras Rocket Successes</text></svg>