<svg version="1.1" xmlns="http://www.w3.org/2000/svg" width="1000" height="1200"><defs><clipPath id="KAMWIMMOkXII"><path fill="none" stroke="none" d="M 10.5 27.5 L 970.5 27.5 L 970.5 1190.5 L 10.5 1190.5 L 10.5 27.5"/></clipPath><clipPath id="kQVNvqhiqJBq"><path fill="none" stroke="none" d="M 10.5 27.5 L 970.5 27.5 L 970.5 1190.5 L 10.5 1190.5 L 10.5 27.5"/></clipPath><clipPath id="ERiKoxXBlBnb"><path fill="none" stroke="none" d="M 10.5 27.5 L 970.5 27.5 L 970.5 1190.5 L 10.5 1190.5 L 10.5 27.5"/></clipPath><clipPath id="wtxtgzDoJzmT"><path fill="none" stroke="none" d="M 10.5 27.5 L 970.5 27.5 L 970.5 1190.5 L 10.5 1190.5 L 10.5 27.5"/></clipPath><clipPath id="XrLoqQKdZumP"><path fill="none" stroke="none" d="M 10.5 27.5 L 970.5 27.5 L 970.5 1190.5 L 10.5 1190.5 L 10.5 27.5"/></clipPath><clipPath id="MAFXkLMTbkkP"><path fill="none" stroke="none" d="M 10.5 27.5 L 970.5 27.5 L 970.5 1190.5 L 10.5 1190.5 L 10.5 27.5"/></clipPath></defs><path fill="rgb(255,255,255)" stroke="none" paint-order="stroke" d="M 0.5 0.5 L 1000.5 0.5 L 1000.5 1200.5 L 0.5 1200.5 L 0.5 0.5" fill-opacity="1"/><rect fill="#FFFFFF" stroke="none" x="10" y="27" width="960" height="1163" transform="matrix(1, 0, 0, 1, 0.5, 0.5)"/><path fill="rgb(255,250,250)" stroke="none" paint-order="stroke" d="M 10.5 27.5 L 970.5 27.5 L 970.5 1190.5 L 10.5 1190.5 L 10.5 27.5" fill-opacity="1"/><path fill="rgb(152,223,138)" stroke="rgb(152,223,138)" paint-order="fill" d="M 200.73818969726562 758.8789672851562 L 200.73818969726562 883.7217407226562 L 200.73818969726562 883.7217407226562 L 222.5517578125 883.7113037109375 L 243.4937744140625 883.6806030273438 L 263.601318359375 883.6304931640625 L 282.9114990234375 883.5618286132812 L 301.4613952636719 883.4755249023438 L 319.2880554199219 883.372314453125 L 336.4286193847656 883.2532348632812 L 352.920166015625 883.1190185546875 L 368.79974365234375 882.9705200195312 L 384.1044921875 882.8087158203125 L 398.8714294433594 882.6343383789062 L 413.1377258300781 882.4483642578125 L 426.9404296875 882.2515869140625 L 440.3166198730469 882.044921875 L 453.3033752441406 881.8291625976562 L 465.9378356933594 881.605224609375 L 478.25701904296875 881.3739013671875 L 490.2980651855469 881.1361694335938 L 502.0980529785156 880.892822265625 L 513.6940307617188 880.6447143554688 L 525.1231079101562 880.3927001953125 L 536.4224243164062 880.1376953125 L 547.6290283203125 879.8805541992188 L 558.7799682617188 879.6220703125 L 569.912353515625 879.3632202148438 L 581.0632934570312 879.104736328125 L 592.2698974609375 878.8475952148438 L 603.5691528320312 878.5925903320312 L 614.998291015625 878.340576171875 L 626.59423828125 878.0924682617188 L 638.3942260742188 877.84912109375 L 650.435302734375 877.6113891601562 L 662.7544555664062 877.380126953125 L 675.388916015625 877.1561279296875 L 688.3756713867188 876.9404296875 L 701.7518920898438 876.7337036132812 L 715.5545654296875 876.5369262695312 L 729.8208618164062 876.3509521484375 L 744.5878295898438 876.1766357421875 L 759.892578125 876.0147705078125 L 775.7721557617188 875.8663330078125 L 792.263671875 875.7321166992188 L 809.4042358398438 875.6129760742188 L 827.2308959960938 875.5098266601562 L 845.7808227539062 875.4234619140625 L 865.0910034179688 875.3547973632812 L 885.1985473632812 875.3046875 L 906.1405639648438 875.2739868164062 L 927.9541015625 875.2635498046875 L 927.9541015625 875.2635498046875 L 927.9541015625 750.4207763671875 L 927.9541015625 750.4207763671875 L 906.1405639648438 750.4312133789062 L 885.1985473632812 750.4619140625 L 865.0910034179688 750.5120239257812 L 845.7808227539062 750.5806884765625 L 827.2308959960938 750.6670532226562 L 809.4042358398438 750.7702026367188 L 792.263671875 750.8893432617188 L 775.7721557617188 751.0235595703125 L 759.892578125 751.1719970703125 L 744.5878295898438 751.3338623046875 L 729.8208618164062 751.5081787109375 L 715.5545654296875 751.6941528320312 L 701.7518920898438 751.8909301757812 L 688.3756713867188 752.09765625 L 675.388916015625 752.3134155273438 L 662.7544555664062 752.537353515625 L 650.435302734375 752.7686157226562 L 638.3942260742188 753.00634765625 L 626.59423828125 753.249755859375 L 614.998291015625 753.4978637695312 L 603.5691528320312 753.7498168945312 L 592.2698974609375 754.0048217773438 L 581.0632934570312 754.261962890625 L 569.912353515625 754.5204467773438 L 558.7799682617188 754.7793579101562 L 547.6290283203125 755.0377807617188 L 536.4224243164062 755.2949829101562 L 525.1231079101562 755.5499877929688 L 513.6940307617188 755.8019409179688 L 502.0980529785156 756.050048828125 L 490.2980651855469 756.2933959960938 L 478.25701904296875 756.5311889648438 L 465.9378356933594 756.762451171875 L 453.3033752441406 756.9863891601562 L 440.3166198730469 757.2021484375 L 426.9404296875 757.4088134765625 L 413.1377258300781 757.6055908203125 L 398.8714294433594 757.7915649414062 L 384.1044921875 757.9659423828125 L 368.79974365234375 758.1277465820312 L 352.920166015625 758.2762451171875 L 336.4286193847656 758.4104614257812 L 319.2880554199219 758.5296020507812 L 301.4613952636719 758.6327514648438 L 282.9114990234375 758.7191162109375 L 263.601318359375 758.7877197265625 L 243.4937744140625 758.8378295898438 L 222.5517578125 758.8685302734375 L 200.73818969726562 758.8789672851562 Z" fill-opacity="0.6" clip-path="url(#ERiKoxXBlBnb)" stroke-opacity="1" stroke-linejoin="bevel" stroke-miterlimit="10" stroke-width="0.8" stroke-dasharray=""/><path fill="rgb(152,223,138)" stroke="rgb(152,223,138)" paint-order="fill" d="M 200.73818969726562 887.9508666992188 L 200.73818969726562 1137.6363525390625 L 200.73818969726562 1137.6363525390625 L 222.5517578125 1137.6207275390625 L 243.4937744140625 1137.57470703125 L 263.601318359375 1137.49951171875 L 282.9114990234375 1137.396484375 L 301.4613952636719 1137.2669677734375 L 319.2880554199219 1137.1123046875 L 336.4286193847656 1136.93359375 L 352.920166015625 1136.732177734375 L 368.79974365234375 1136.509521484375 L 384.1044921875 1136.266845703125 L 398.8714294433594 1136.0052490234375 L 413.1377258300781 1135.726318359375 L 426.9404296875 1135.43115234375 L 440.3166198730469 1135.12109375 L 453.3033752441406 1134.7974853515625 L 465.9378356933594 1134.4615478515625 L 478.25701904296875 1134.1146240234375 L 490.2980651855469 1133.758056640625 L 502.0980529785156 1133.3929443359375 L 513.6940307617188 1133.020751953125 L 525.1231079101562 1132.642822265625 L 536.4224243164062 1132.2603759765625 L 547.6290283203125 1131.8746337890625 L 558.7799682617188 1131.4869384765625 L 569.912353515625 1131.0985107421875 L 581.0632934570312 1130.7108154296875 L 592.2698974609375 1130.3250732421875 L 603.5691528320312 1129.942626953125 L 614.998291015625 1129.564697265625 L 626.59423828125 1129.1925048828125 L 638.3942260742188 1128.827392578125 L 650.435302734375 1128.4708251953125 L 662.7544555664062 1128.1239013671875 L 675.388916015625 1127.7879638671875 L 688.3756713867188 1127.46435546875 L 701.7518920898438 1127.154296875 L 715.5545654296875 1126.859130859375 L 729.8208618164062 1126.5802001953125 L 744.5878295898438 1126.318603515625 L 759.892578125 1126.075927734375 L 775.7721557617188 1125.853271484375 L 792.263671875 1125.65185546875 L 809.4042358398438 1125.47314453125 L 827.2308959960938 1125.3184814453125 L 845.7808227539062 1125.18896484375 L 865.0910034179688 1125.0859375 L 885.1985473632812 1125.0107421875 L 906.1405639648438 1124.9647216796875 L 927.9541015625 1124.9490966796875 L 927.9541015625 1124.9490966796875 L 927.9541015625 875.2635498046875 L 927.9541015625 875.2635498046875 L 906.1405639648438 875.2791748046875 L 885.1985473632812 875.3252563476562 L 865.0910034179688 875.400390625 L 845.7808227539062 875.50341796875 L 827.2308959960938 875.6329345703125 L 809.4042358398438 875.7876586914062 L 792.263671875 875.9663696289062 L 775.7721557617188 876.167724609375 L 759.892578125 876.390380859375 L 744.5878295898438 876.6331176757812 L 729.8208618164062 876.8946533203125 L 715.5545654296875 877.1736450195312 L 701.7518920898438 877.4688110351562 L 688.3756713867188 877.77880859375 L 675.388916015625 878.1024780273438 L 662.7544555664062 878.4383544921875 L 650.435302734375 878.7852783203125 L 638.3942260742188 879.1419067382812 L 626.59423828125 879.5069580078125 L 614.998291015625 879.8790893554688 L 603.5691528320312 880.257080078125 L 592.2698974609375 880.6395874023438 L 581.0632934570312 881.0253295898438 L 569.912353515625 881.4130249023438 L 558.7799682617188 881.8013916015625 L 547.6290283203125 882.1890258789062 L 536.4224243164062 882.5747680664062 L 525.1231079101562 882.957275390625 L 513.6940307617188 883.3352661132812 L 502.0980529785156 883.7074584960938 L 490.2980651855469 884.0724487304688 L 478.25701904296875 884.4290771484375 L 465.9378356933594 884.7760009765625 L 453.3033752441406 885.1119384765625 L 440.3166198730469 885.435546875 L 426.9404296875 885.74560546875 L 413.1377258300781 886.040771484375 L 398.8714294433594 886.3197631835938 L 384.1044921875 886.5812377929688 L 368.79974365234375 886.8240356445312 L 352.920166015625 887.0466918945312 L 336.4286193847656 887.248046875 L 319.2880554199219 887.4267578125 L 301.4613952636719 887.5814819335938 L 282.9114990234375 887.7109985351562 L 263.601318359375 887.81396484375 L 243.4937744140625 887.88916015625 L 222.5517578125 887.9351806640625 L 200.73818969726562 887.9508666992188 Z" fill-opacity="0.6" clip-path="url(#ERiKoxXBlBnb)" stroke-opacity="1" stroke-linejoin="bevel" stroke-miterlimit="10" stroke-width="0.8" stroke-dasharray=""/><path fill="rgb(152,223,138)" stroke="rgb(152,223,138)" paint-order="fill" d="M 200.73818969726562 546.57861328125 L 200.73818969726562 754.64990234375 L 200.73818969726562 754.64990234375 L 222.5517578125 754.6446533203125 L 243.4937744140625 754.6293334960938 L 263.601318359375 754.604248046875 L 282.9114990234375 754.5699462890625 L 301.4613952636719 754.5267944335938 L 319.2880554199219 754.4752197265625 L 336.4286193847656 754.4156494140625 L 352.920166015625 754.3485107421875 L 368.79974365234375 754.2742919921875 L 384.1044921875 754.193359375 L 398.8714294433594 754.106201171875 L 413.1377258300781 754.01318359375 L 426.9404296875 753.914794921875 L 440.3166198730469 753.8114624023438 L 453.3033752441406 753.70361328125 L 465.9378356933594 753.5916137695312 L 478.25701904296875 753.4759521484375 L 490.2980651855469 753.3571166992188 L 502.0980529785156 753.2354125976562 L 513.6940307617188 753.1113891601562 L 525.1231079101562 752.9853515625 L 536.4224243164062 752.8578491210938 L 547.6290283203125 752.7293090820312 L 558.7799682617188 752.60009765625 L 569.912353515625 752.4706420898438 L 581.0632934570312 752.3413696289062 L 592.2698974609375 752.2128295898438 L 603.5691528320312 752.0853271484375 L 614.998291015625 751.9592895507812 L 626.59423828125 751.8352661132812 L 638.3942260742188 751.7135620117188 L 650.435302734375 751.5947265625 L 662.7544555664062 751.4790649414062 L 675.388916015625 751.3671264648438 L 688.3756713867188 751.2592163085938 L 701.7518920898438 751.1558837890625 L 715.5545654296875 751.0574951171875 L 729.8208618164062 750.9644775390625 L 744.5878295898438 750.8773193359375 L 759.892578125 750.79638671875 L 775.7721557617188 750.72216796875 L 792.263671875 750.6550903320312 L 809.4042358398438 750.5955200195312 L 827.2308959960938 750.5439453125 L 845.7808227539062 750.500732421875 L 865.0910034179688 750.4664306640625 L 885.1985473632812 750.4413452148438 L 906.1405639648438 750.426025390625 L 927.9541015625 750.4207763671875 L 927.9541015625 750.4207763671875 L 927.9541015625 542.3495483398438 L 927.9541015625 542.3495483398438 L 906.1405639648438 542.354736328125 L 885.1985473632812 542.3701171875 L 865.0910034179688 542.3951416015625 L 845.7808227539062 542.429443359375 L 827.2308959960938 542.47265625 L 809.4042358398438 542.5242309570312 L 792.263671875 542.5838012695312 L 775.7721557617188 542.65087890625 L 759.892578125 542.7251586914062 L 744.5878295898438 542.8060302734375 L 729.8208618164062 542.8932495117188 L 715.5545654296875 542.9862060546875 L 701.7518920898438 543.0845947265625 L 688.3756713867188 543.1879272460938 L 675.388916015625 543.2958374023438 L 662.7544555664062 543.4077758789062 L 650.435302734375 543.5234375 L 638.3942260742188 543.642333984375 L 626.59423828125 543.7639770507812 L 614.998291015625 543.8880615234375 L 603.5691528320312 544.0140380859375 L 592.2698974609375 544.1415405273438 L 581.0632934570312 544.2701416015625 L 569.912353515625 544.3993530273438 L 558.7799682617188 544.52880859375 L 547.6290283203125 544.6580200195312 L 536.4224243164062 544.78662109375 L 525.1231079101562 544.9141235351562 L 513.6940307617188 545.0401000976562 L 502.0980529785156 545.1641235351562 L 490.2980651855469 545.2858276367188 L 478.25701904296875 545.4047241210938 L 465.9378356933594 545.5203247070312 L 453.3033752441406 545.63232421875 L 440.3166198730469 545.7401733398438 L 426.9404296875 545.8435668945312 L 413.1377258300781 545.9419555664062 L 398.8714294433594 546.034912109375 L 384.1044921875 546.1220703125 L 368.79974365234375 546.2030029296875 L 352.920166015625 546.2772216796875 L 336.4286193847656 546.3443603515625 L 319.2880554199219 546.4039306640625 L 301.4613952636719 546.4555053710938 L 282.9114990234375 546.4986572265625 L 263.601318359375 546.5330200195312 L 243.4937744140625 546.5580444335938 L 222.5517578125 546.5734252929688 L 200.73818969726562 546.57861328125 Z" fill-opacity="0.6" clip-path="url(#ERiKoxXBlBnb)" stroke-opacity="1" stroke-linejoin="bevel" stroke-miterlimit="10" stroke-width="0.8" stroke-dasharray=""/><path fill="rgb(214,39,40)" stroke="rgb(214,39,40)" paint-order="fill" d="M 200.73818969726562 504.96435546875 L 200.73818969726562 546.57861328125 L 200.73818969726562 546.57861328125 L 222.5517578125 546.1578979492188 L 243.4937744140625 544.9188842773438 L 263.601318359375 542.896484375 L 282.9114990234375 540.1254272460938 L 301.4613952636719 536.6405639648438 L 319.2880554199219 532.4767456054688 L 336.4286193847656 527.6687622070312 L 352.920166015625 522.25146484375 L 368.79974365234375 516.2596435546875 L 384.1044921875 509.72808837890625 L 398.8714294433594 502.6916809082031 L 413.1377258300781 495.1852111816406 L 426.9404296875 487.24346923828125 L 440.3166198730469 478.9013366699219 L 453.3033752441406 470.1935729980469 L 465.9378356933594 461.155029296875 L 478.25701904296875 451.820556640625 L 490.2980651855469 442.22491455078125 L 502.0980529785156 432.4029235839844 L 513.6940307617188 422.38946533203125 L 525.1231079101562 412.21929931640625 L 536.4224243164062 401.92724609375 L 547.6290283203125 391.5481872558594 L 558.7799682617188 381.11688232421875 L 569.912353515625 370.66815185546875 L 581.0632934570312 360.2368469238281 L 592.2698974609375 349.8577575683594 L 603.5691528320312 339.56573486328125 L 614.998291015625 329.39556884765625 L 626.59423828125 319.382080078125 L 638.3942260742188 309.56011962890625 L 650.435302734375 299.9644775390625 L 662.7544555664062 290.6299743652344 L 675.388916015625 281.5914306640625 L 688.3756713867188 272.8836975097656 L 701.7518920898438 264.5415344238281 L 715.5545654296875 256.5998229980469 L 729.8208618164062 249.0933380126953 L 744.5878295898438 242.0569305419922 L 759.892578125 235.525390625 L 775.7721557617188 229.53355407714844 L 792.263671875 224.11622619628906 L 809.4042358398438 219.30825805664062 L 827.2308959960938 215.14443969726562 L 845.7808227539062 211.6595916748047 L 865.0910034179688 208.8885498046875 L 885.1985473632812 206.86611938476562 L 906.1405639648438 205.62713623046875 L 927.9541015625 205.20640563964844 L 927.9541015625 205.20640563964844 L 927.9541015625 163.59214782714844 L 927.9541015625 163.59214782714844 L 906.1405639648438 164.01287841796875 L 885.1985473632812 165.2518768310547 L 865.0910034179688 167.2742919921875 L 845.7808227539062 170.0453338623047 L 827.2308959960938 173.53018188476562 L 809.4042358398438 177.69400024414062 L 792.263671875 182.50198364257812 L 775.7721557617188 187.91929626464844 L 759.892578125 193.9111328125 L 744.5878295898438 200.4426727294922 L 729.8208618164062 207.4790802001953 L 715.5545654296875 214.98556518554688 L 701.7518920898438 222.9272918701172 L 688.3756713867188 231.26943969726562 L 675.388916015625 239.97718811035156 L 662.7544555664062 249.01571655273438 L 650.435302734375 258.3502197265625 L 638.3942260742188 267.94586181640625 L 626.59423828125 277.767822265625 L 614.998291015625 287.78131103515625 L 603.5691528320312 297.95147705078125 L 592.2698974609375 308.2434997558594 L 581.0632934570312 318.6225891113281 L 569.912353515625 329.05389404296875 L 558.7799682617188 339.50262451171875 L 547.6290283203125 349.9339294433594 L 536.4224243164062 360.3130187988281 L 525.1231079101562 370.60504150390625 L 513.6940307617188 380.77520751953125 L 502.0980529785156 390.7886657714844 L 490.2980651855469 400.61065673828125 L 478.25701904296875 410.206298828125 L 465.9378356933594 419.5408020019531 L 453.3033752441406 428.5793151855469 L 440.3166198730469 437.2870788574219 L 426.9404296875 445.62921142578125 L 413.1377258300781 453.5709533691406 L 398.8714294433594 461.0774230957031 L 384.1044921875 468.11383056640625 L 368.79974365234375 474.6453857421875 L 352.920166015625 480.63720703125 L 336.4286193847656 486.0545349121094 L 319.2880554199219 490.8625183105469 L 301.4613952636719 495.0263366699219 L 282.9114990234375 498.51116943359375 L 263.601318359375 501.2822265625 L 243.4937744140625 503.30462646484375 L 222.5517578125 504.54364013671875 L 200.73818969726562 504.96435546875 Z" fill-opacity="0.6" clip-path="url(#ERiKoxXBlBnb)" stroke-opacity="1" stroke-linejoin="bevel" stroke-miterlimit="10" stroke-width="0.8" stroke-dasharray=""/><path fill="rgb(152,223,138)" stroke="rgb(152,223,138)" paint-order="fill" d="M 200.73818969726562 334.27825927734375 L 200.73818969726562 500.7352600097656 L 200.73818969726562 500.7352600097656 L 222.5517578125 500.78656005859375 L 243.4937744140625 500.9375915527344 L 263.601318359375 501.18414306640625 L 282.9114990234375 501.5219421386719 L 301.4613952636719 501.9467468261719 L 319.2880554199219 502.4543151855469 L 336.4286193847656 503.0404357910156 L 352.920166015625 503.7008361816406 L 368.79974365234375 504.4312438964844 L 384.1044921875 505.2274475097656 L 398.8714294433594 506.085205078125 L 413.1377258300781 507.0002746582031 L 426.9404296875 507.9683837890625 L 440.3166198730469 508.9853210449219 L 453.3033752441406 510.04681396484375 L 465.9378356933594 511.1486511230469 L 478.25701904296875 512.2865600585938 L 490.2980651855469 513.456298828125 L 502.0980529785156 514.6536254882812 L 513.6940307617188 515.874267578125 L 525.1231079101562 517.1140747070312 L 536.4224243164062 518.3687133789062 L 547.6290283203125 519.6339111328125 L 558.7799682617188 520.905517578125 L 569.912353515625 522.1792602539062 L 581.0632934570312 523.4508666992188 L 592.2698974609375 524.7161254882812 L 603.5691528320312 525.9707641601562 L 614.998291015625 527.2105102539062 L 626.59423828125 528.43115234375 L 638.3942260742188 529.6284790039062 L 650.435302734375 530.7982177734375 L 662.7544555664062 531.9361572265625 L 675.388916015625 533.0379638671875 L 688.3756713867188 534.0994873046875 L 701.7518920898438 535.1163940429688 L 715.5545654296875 536.0845336914062 L 729.8208618164062 536.9995727539062 L 744.5878295898438 537.8573608398438 L 759.892578125 538.653564453125 L 775.7721557617188 539.3839721679688 L 792.263671875 540.0443725585938 L 809.4042358398438 540.6304931640625 L 827.2308959960938 541.1380615234375 L 845.7808227539062 541.5628662109375 L 865.0910034179688 541.900634765625 L 885.1985473632812 542.147216796875 L 906.1405639648438 542.2982177734375 L 927.9541015625 542.3495483398438 L 927.9541015625 542.3495483398438 L 927.9541015625 375.89251708984375 L 927.9541015625 375.89251708984375 L 906.1405639648438 375.8412170410156 L 885.1985473632812 375.690185546875 L 865.0910034179688 375.4436340332031 L 845.7808227539062 375.1058349609375 L 827.2308959960938 374.6810302734375 L 809.4042358398438 374.1734619140625 L 792.263671875 373.58734130859375 L 775.7721557617188 372.9269714355469 L 759.892578125 372.196533203125 L 744.5878295898438 371.40032958984375 L 729.8208618164062 370.5425720214844 L 715.5545654296875 369.62750244140625 L 701.7518920898438 368.6593933105469 L 688.3756713867188 367.6424560546875 L 675.388916015625 366.5809631347656 L 662.7544555664062 365.4791259765625 L 650.435302734375 364.3412170410156 L 638.3942260742188 363.1714782714844 L 626.59423828125 361.9741516113281 L 614.998291015625 360.75347900390625 L 603.5691528320312 359.51373291015625 L 592.2698974609375 358.25909423828125 L 581.0632934570312 356.9938659667969 L 569.912353515625 355.7222595214844 L 558.7799682617188 354.4485168457031 L 547.6290283203125 353.1769104003906 L 536.4224243164062 351.91168212890625 L 525.1231079101562 350.65704345703125 L 513.6940307617188 349.4172668457031 L 502.0980529785156 348.19659423828125 L 490.2980651855469 346.999267578125 L 478.25701904296875 345.82952880859375 L 465.9378356933594 344.6916198730469 L 453.3033752441406 343.5898132324219 L 440.3166198730469 342.5283203125 L 426.9404296875 341.5113830566406 L 413.1377258300781 340.54327392578125 L 398.8714294433594 339.6282043457031 L 384.1044921875 338.77044677734375 L 368.79974365234375 337.9742126464844 L 352.920166015625 337.2438049316406 L 336.4286193847656 336.5834045410156 L 319.2880554199219 335.997314453125 L 301.4613952636719 335.4897155761719 L 282.9114990234375 335.0649108886719 L 263.601318359375 334.72711181640625 L 243.4937744140625 334.4805908203125 L 222.5517578125 334.32952880859375 L 200.73818969726562 334.27825927734375 Z" fill-opacity="0.6" clip-path="url(#ERiKoxXBlBnb)" stroke-opacity="1" stroke-linejoin="bevel" stroke-miterlimit="10" stroke-width="0.8" stroke-dasharray=""/><path fill="rgb(214,39,40)" stroke="rgb(214,39,40)" paint-order="fill" d="M 200.73818969726562 292.66400146484375 L 200.73818969726562 334.27825927734375 L 200.73818969726562 334.27825927734375 L 222.5517578125 334.0679016113281 L 243.4937744140625 333.4483947753906 L 263.601318359375 332.4371643066406 L 282.9114990234375 331.0516662597656 L 301.4613952636719 329.3092346191406 L 319.2880554199219 327.2273254394531 L 336.4286193847656 324.8233337402344 L 352.920166015625 322.11468505859375 L 368.79974365234375 319.1187744140625 L 384.1044921875 315.8529968261719 L 398.8714294433594 312.33477783203125 L 413.1377258300781 308.58154296875 L 426.9404296875 304.6106872558594 L 440.3166198730469 300.4396057128906 L 453.3033752441406 296.0857238769531 L 465.9378356933594 291.56646728515625 L 478.25701904296875 286.89923095703125 L 490.2980651855469 282.1014099121094 L 502.0980529785156 277.1903991699219 L 513.6940307617188 272.1836853027344 L 525.1231079101562 267.0986022949219 L 536.4224243164062 261.95257568359375 L 547.6290283203125 256.7630310058594 L 558.7799682617188 251.54737854003906 L 569.912353515625 246.32301330566406 L 581.0632934570312 241.10736083984375 L 592.2698974609375 235.91783142089844 L 603.5691528320312 230.7718048095703 L 614.998291015625 225.6867218017578 L 626.59423828125 220.67999267578125 L 638.3942260742188 215.7689971923828 L 650.435302734375 210.97117614746094 L 662.7544555664062 206.30393981933594 L 675.388916015625 201.78466796875 L 688.3756713867188 197.4307861328125 L 701.7518920898438 193.2597198486328 L 715.5545654296875 189.2888641357422 L 729.8208618164062 185.53561401367188 L 744.5878295898438 182.0174102783203 L 759.892578125 178.7516326904297 L 775.7721557617188 175.75572204589844 L 792.263671875 173.04705810546875 L 809.4042358398438 170.64306640625 L 827.2308959960938 168.5611572265625 L 845.7808227539062 166.81874084472656 L 865.0910034179688 165.4332275390625 L 885.1985473632812 164.42201232910156 L 906.1405639648438 163.80250549316406 L 927.9541015625 163.59214782714844 L 927.9541015625 163.59214782714844 L 927.9541015625 121.97789001464844 L 927.9541015625 121.97789001464844 L 906.1405639648438 122.1882553100586 L 885.1985473632812 122.80775451660156 L 865.0910034179688 123.8189697265625 L 845.7808227539062 125.2044906616211 L 827.2308959960938 126.94690704345703 L 809.4042358398438 129.02882385253906 L 792.263671875 131.43280029296875 L 775.7721557617188 134.14146423339844 L 759.892578125 137.13739013671875 L 744.5878295898438 140.4031524658203 L 729.8208618164062 143.92135620117188 L 715.5545654296875 147.6746063232422 L 701.7518920898438 151.6454620361328 L 688.3756713867188 155.81654357910156 L 675.388916015625 160.17041015625 L 662.7544555664062 164.68968200683594 L 650.435302734375 169.35693359375 L 638.3942260742188 174.15475463867188 L 626.59423828125 179.06573486328125 L 614.998291015625 184.07247924804688 L 603.5691528320312 189.15756225585938 L 592.2698974609375 194.30357360839844 L 581.0632934570312 199.4931182861328 L 569.912353515625 204.70877075195312 L 558.7799682617188 209.93312072753906 L 547.6290283203125 215.14877319335938 L 536.4224243164062 220.33831787109375 L 525.1231079101562 225.4843292236328 L 513.6940307617188 230.5694122314453 L 502.0980529785156 235.57615661621094 L 490.2980651855469 240.4871368408203 L 478.25701904296875 245.2849578857422 L 465.9378356933594 249.95220947265625 L 453.3033752441406 254.4714813232422 L 440.3166198730469 258.8253479003906 L 426.9404296875 262.9964294433594 L 413.1377258300781 266.96728515625 L 398.8714294433594 270.72052001953125 L 384.1044921875 274.2387390136719 L 368.79974365234375 277.5045166015625 L 352.920166015625 280.50042724609375 L 336.4286193847656 283.2090759277344 L 319.2880554199219 285.6130676269531 L 301.4613952636719 287.6949768066406 L 282.9114990234375 289.4374084472656 L 263.601318359375 290.82293701171875 L 243.4937744140625 291.8341369628906 L 222.5517578125 292.4536437988281 L 200.73818969726562 292.66400146484375 Z" fill-opacity="0.6" clip-path="url(#ERiKoxXBlBnb)" stroke-opacity="1" stroke-linejoin="bevel" stroke-miterlimit="10" stroke-width="0.8" stroke-dasharray=""/><path fill="rgb(152,223,138)" stroke="rgb(152,223,138)" paint-order="fill" d="M 200.73818969726562 121.97789001464844 L 200.73818969726562 288.4349060058594 L 200.73818969726562 288.4349060058594 L 222.5517578125 288.5426940917969 L 243.4937744140625 288.860107421875 L 263.601318359375 289.3782653808594 L 282.9114990234375 290.0881652832031 L 301.4613952636719 290.9809875488281 L 319.2880554199219 292.0477294921875 L 336.4286193847656 293.2795104980469 L 352.920166015625 294.6673889160156 L 368.79974365234375 296.20245361328125 L 384.1044921875 297.87579345703125 L 398.8714294433594 299.6784973144531 L 413.1377258300781 301.60162353515625 L 426.9404296875 303.63623046875 L 440.3166198730469 305.7734375 L 453.3033752441406 308.0043029785156 L 465.9378356933594 310.3199462890625 L 478.25701904296875 312.7113952636719 L 490.2980651855469 315.16973876953125 L 502.0980529785156 317.6860656738281 L 513.6940307617188 320.25146484375 L 525.1231079101562 322.85699462890625 L 536.4224243164062 325.4937438964844 L 547.6290283203125 328.1528015136719 L 558.7799682617188 330.82525634765625 L 569.912353515625 333.5021667480469 L 581.0632934570312 336.1745910644531 L 592.2698974609375 338.8336486816406 L 603.5691528320312 341.4704284667969 L 614.998291015625 344.0759582519531 L 626.59423828125 346.641357421875 L 638.3942260742188 349.1576843261719 L 650.435302734375 351.61602783203125 L 662.7544555664062 354.0074768066406 L 675.388916015625 356.3230895996094 L 688.3756713867188 358.5539855957031 L 701.7518920898438 360.6911926269531 L 715.5545654296875 362.7257995605469 L 729.8208618164062 364.64892578125 L 744.5878295898438 366.4516296386719 L 759.892578125 368.1249694824219 L 775.7721557617188 369.6600341796875 L 792.263671875 371.04791259765625 L 809.4042358398438 372.2796936035156 L 827.2308959960938 373.346435546875 L 845.7808227539062 374.2392272949219 L 865.0910034179688 374.94915771484375 L 885.1985473632812 375.46728515625 L 906.1405639648438 375.78472900390625 L 927.9541015625 375.89251708984375 L 927.9541015625 375.89251708984375 L 927.9541015625 209.43548583984375 L 927.9541015625 209.43548583984375 L 906.1405639648438 209.32769775390625 L 885.1985473632812 209.01028442382812 L 865.0910034179688 208.4921417236328 L 845.7808227539062 207.7822265625 L 827.2308959960938 206.88941955566406 L 809.4042358398438 205.8226776123047 L 792.263671875 204.5908966064453 L 775.7721557617188 203.20301818847656 L 759.892578125 201.66793823242188 L 744.5878295898438 199.99459838867188 L 729.8208618164062 198.19190979003906 L 715.5545654296875 196.268798828125 L 701.7518920898438 194.23416137695312 L 688.3756713867188 192.09695434570312 L 675.388916015625 189.8660888671875 L 662.7544555664062 187.5504608154297 L 650.435302734375 185.1590118408203 L 638.3942260742188 182.70066833496094 L 626.59423828125 180.18434143066406 L 614.998291015625 177.6189422607422 L 603.5691528320312 175.01339721679688 L 592.2698974609375 172.37664794921875 L 581.0632934570312 169.71759033203125 L 569.912353515625 167.04513549804688 L 558.7799682617188 164.3682403564453 L 547.6290283203125 161.69580078125 L 536.4224243164062 159.0367431640625 L 525.1231079101562 156.3999786376953 L 513.6940307617188 153.79443359375 L 502.0980529785156 151.2290496826172 L 490.2980651855469 148.71270751953125 L 478.25701904296875 146.25436401367188 L 465.9378356933594 143.8629150390625 L 453.3033752441406 141.54730224609375 L 440.3166198730469 139.31642150878906 L 426.9404296875 137.17921447753906 L 413.1377258300781 135.14459228515625 L 398.8714294433594 133.22146606445312 L 384.1044921875 131.4187774658203 L 368.79974365234375 129.7454376220703 L 352.920166015625 128.21036529541016 L 336.4286193847656 126.82247924804688 L 319.2880554199219 125.59070587158203 L 301.4613952636719 124.52395629882812 L 282.9114990234375 123.63116455078125 L 263.601318359375 122.92123413085938 L 243.4937744140625 122.4030990600586 L 222.5517578125 122.08567810058594 L 200.73818969726562 121.97789001464844 Z" fill-opacity="0.6" clip-path="url(#ERiKoxXBlBnb)" stroke-opacity="1" stroke-linejoin="bevel" stroke-miterlimit="10" stroke-width="0.8" stroke-dasharray=""/><path fill="rgb(214,39,40)" stroke="rgb(214,39,40)" paint-order="fill" d="M 200.73818969726562 80.36363983154297 L 200.73818969726562 121.97789001464844 L 200.73818969726562 121.97789001464844 L 222.5517578125 121.97789001464844 L 243.4937744140625 121.97789001464844 L 263.601318359375 121.97789001464844 L 282.9114990234375 121.97789001464844 L 301.4613952636719 121.97789001464844 L 319.2880554199219 121.97789001464844 L 336.4286193847656 121.97789001464844 L 352.920166015625 121.97789001464844 L 368.79974365234375 121.97789001464844 L 384.1044921875 121.97789001464844 L 398.8714294433594 121.97789001464844 L 413.1377258300781 121.97789001464844 L 426.9404296875 121.97789001464844 L 440.3166198730469 121.97789001464844 L 453.3033752441406 121.97789001464844 L 465.9378356933594 121.97789001464844 L 478.25701904296875 121.97789001464844 L 490.2980651855469 121.97789001464844 L 502.0980529785156 121.97789001464844 L 513.6940307617188 121.97789001464844 L 525.1231079101562 121.97789001464844 L 536.4224243164062 121.97789001464844 L 547.6290283203125 121.97789001464844 L 558.7799682617188 121.97789001464844 L 569.912353515625 121.97789001464844 L 581.0632934570312 121.97789001464844 L 592.2698974609375 121.97789001464844 L 603.5691528320312 121.97789001464844 L 614.998291015625 121.97789001464844 L 626.59423828125 121.97789001464844 L 638.3942260742188 121.97789001464844 L 650.435302734375 121.97789001464844 L 662.7544555664062 121.97789001464844 L 675.388916015625 121.97789001464844 L 688.3756713867188 121.97789001464844 L 701.7518920898438 121.97789001464844 L 715.5545654296875 121.97789001464844 L 729.8208618164062 121.97789001464844 L 744.5878295898438 121.97789001464844 L 759.892578125 121.97789001464844 L 775.7721557617188 121.97789001464844 L 792.263671875 121.97789001464844 L 809.4042358398438 121.97789001464844 L 827.2308959960938 121.97789001464844 L 845.7808227539062 121.97789001464844 L 865.0910034179688 121.97789001464844 L 885.1985473632812 121.97789001464844 L 906.1405639648438 121.97789001464844 L 927.9541015625 121.97789001464844 L 927.9541015625 121.97789001464844 L 927.9541015625 80.36363983154297 L 927.9541015625 80.36363983154297 L 906.1405639648438 80.36363983154297 L 885.1985473632812 80.36363983154297 L 865.0910034179688 80.36363983154297 L 845.7808227539062 80.36363983154297 L 827.2308959960938 80.36363983154297 L 809.4042358398438 80.36363983154297 L 792.263671875 80.36363983154297 L 775.7721557617188 80.36363983154297 L 759.892578125 80.36363983154297 L 744.5878295898438 80.36363983154297 L 729.8208618164062 80.36363983154297 L 715.5545654296875 80.36363983154297 L 701.7518920898438 80.36363983154297 L 688.3756713867188 80.36363983154297 L 675.388916015625 80.36363983154297 L 662.7544555664062 80.36363983154297 L 650.435302734375 80.36363983154297 L 638.3942260742188 80.36363983154297 L 626.59423828125 80.36363983154297 L 614.998291015625 80.36363983154297 L 603.5691528320312 80.36363983154297 L 592.2698974609375 80.36363983154297 L 581.0632934570312 80.36363983154297 L 569.912353515625 80.36363983154297 L 558.7799682617188 80.36363983154297 L 547.6290283203125 80.36363983154297 L 536.4224243164062 80.36363983154297 L 525.1231079101562 80.36363983154297 L 513.6940307617188 80.36363983154297 L 502.0980529785156 80.36363983154297 L 490.2980651855469 80.36363983154297 L 478.25701904296875 80.36363983154297 L 465.9378356933594 80.36363983154297 L 453.3033752441406 80.36363983154297 L 440.3166198730469 80.36363983154297 L 426.9404296875 80.36363983154297 L 413.1377258300781 80.36363983154297 L 398.8714294433594 80.36363983154297 L 384.1044921875 80.36363983154297 L 368.79974365234375 80.36363983154297 L 352.920166015625 80.36363983154297 L 336.4286193847656 80.36363983154297 L 319.2880554199219 80.36363983154297 L 301.4613952636719 80.36363983154297 L 282.9114990234375 80.36363983154297 L 263.601318359375 80.36363983154297 L 243.4937744140625 80.36363983154297 L 222.5517578125 80.36363983154297 L 200.73818969726562 80.36363983154297 Z" fill-opacity="0.6" clip-path="url(#ERiKoxXBlBnb)" stroke-opacity="1" stroke-linejoin="bevel" stroke-miterlimit="10" stroke-width="0.8" stroke-dasharray=""/><path fill="rgb(31,119,180)" stroke="rgb(0,0,0)" paint-order="fill" d="M 189.49258422851562 758.8789672851562 L 200.73818969726562 758.8789672851562 L 200.73818969726562 883.7217407226562 L 189.49258422851562 883.7217407226562 L 189.49258422851562 758.8789672851562" fill-opacity="0.9019607843137255" clip-path="url(#wtxtgzDoJzmT)" stroke-opacity="0.2" stroke-linejoin="bevel" stroke-miterlimit="10" stroke-width="0.5" stroke-dasharray=""/><path fill="rgb(174,199,232)" stroke="rgb(0,0,0)" paint-order="fill" d="M 189.49258422851562 887.9508666992188 L 200.73818969726562 887.9508666992188 L 200.73818969726562 1137.6363525390625 L 189.49258422851562 1137.6363525390625 L 189.49258422851562 887.9508666992188" fill-opacity="0.9019607843137255" clip-path="url(#wtxtgzDoJzmT)" stroke-opacity="0.2" stroke-linejoin="bevel" stroke-miterlimit="10" stroke-width="0.5" stroke-dasharray=""/><path fill="rgb(255,127,14)" stroke="rgb(0,0,0)" paint-order="fill" d="M 189.49258422851562 504.96435546875 L 200.73818969726562 504.96435546875 L 200.73818969726562 754.64990234375 L 189.49258422851562 754.64990234375 L 189.49258422851562 504.96435546875" fill-opacity="0.9019607843137255" clip-path="url(#wtxtgzDoJzmT)" stroke-opacity="0.2" stroke-linejoin="bevel" stroke-miterlimit="10" stroke-width="0.5" stroke-dasharray=""/><path fill="rgb(255,187,120)" stroke="rgb(0,0,0)" paint-order="fill" d="M 189.49258422851562 292.66400146484375 L 200.73818969726562 292.66400146484375 L 200.73818969726562 500.7352600097656 L 189.49258422851562 500.7352600097656 L 189.49258422851562 292.66400146484375" fill-opacity="0.9019607843137255" clip-path="url(#wtxtgzDoJzmT)" stroke-opacity="0.2" stroke-linejoin="bevel" stroke-miterlimit="10" stroke-width="0.5" stroke-dasharray=""/><path fill="rgb(44,160,44)" stroke="rgb(0,0,0)" paint-order="fill" d="M 189.49258422851562 80.36363983154297 L 200.73818969726562 80.36363983154297 L 200.73818969726562 288.4349060058594 L 189.49258422851562 288.4349060058594 L 189.49258422851562 80.36363983154297" fill-opacity="0.9019607843137255" clip-path="url(#wtxtgzDoJzmT)" stroke-opacity="0.2" stroke-linejoin="bevel" stroke-miterlimit="10" stroke-width="0.5" stroke-dasharray=""/><path fill="rgb(152,223,138)" stroke="rgb(0,0,0)" paint-order="fill" d="M 927.9541015625 209.43548583984375 L 939.19970703125 209.43548583984375 L 939.19970703125 1124.9490966796875 L 927.9541015625 1124.9490966796875 L 927.9541015625 209.43548583984375" fill-opacity="0.9019607843137255" clip-path="url(#wtxtgzDoJzmT)" stroke-opacity="0.2" stroke-linejoin="bevel" stroke-miterlimit="10" stroke-width="0.5" stroke-dasharray=""/><path fill="rgb(214,39,40)" stroke="rgb(0,0,0)" paint-order="fill" d="M 927.9541015625 80.36363983154297 L 939.19970703125 80.36363983154297 L 939.19970703125 205.20640563964844 L 927.9541015625 205.20640563964844 L 927.9541015625 80.36363983154297" fill-opacity="0.9019607843137255" clip-path="url(#wtxtgzDoJzmT)" stroke-opacity="0.2" stroke-linejoin="bevel" stroke-miterlimit="10" stroke-width="0.5" stroke-dasharray=""/><g clip-path="url(#XrLoqQKdZumP)"><text fill="rgb(0,0,0)" stroke="none" font-family="helvetica" font-size="8pt" font-style="normal" font-weight="normal" text-decoration="normal" x="0" y="0" text-anchor="end" dominant-baseline="central" transform="matrix(1, 0, 0, 1, 186.68118286132812, 821.3003540039062)" fill-opacity="1">2018 - 3</text></g><g clip-path="url(#XrLoqQKdZumP)"><text fill="rgb(0,0,0)" stroke="none" font-family="helvetica" font-size="8pt" font-style="normal" font-weight="normal" text-decoration="normal" x="0" y="0" text-anchor="end" dominant-baseline="central" transform="matrix(1, 0, 0, 1, 186.68118286132812, 1012.7935791015625)" fill-opacity="1">2019 - 6</text></g><g clip-path="url(#XrLoqQKdZumP)"><text fill="rgb(0,0,0)" stroke="none" font-family="helvetica" font-size="8pt" font-style="normal" font-weight="normal" text-decoration="normal" x="0" y="0" text-anchor="end" dominant-baseline="central" transform="matrix(1, 0, 0, 1, 186.68118286132812, 629.80712890625)" fill-opacity="1">2020 - 6</text></g><g clip-path="url(#XrLoqQKdZumP)"><text fill="rgb(0,0,0)" stroke="none" font-family="helvetica" font-size="8pt" font-style="normal" font-weight="normal" text-decoration="normal" x="0" y="0" text-anchor="end" dominant-baseline="central" transform="matrix(1, 0, 0, 1, 186.68118286132812, 396.69964599609375)" fill-opacity="1">2021 - 5</text></g><g clip-path="url(#XrLoqQKdZumP)"><text fill="rgb(0,0,0)" stroke="none" font-family="helvetica" font-size="8pt" font-style="normal" font-weight="normal" text-decoration="normal" x="0" y="0" text-anchor="end" dominant-baseline="central" transform="matrix(1, 0, 0, 1, 186.68118286132812, 184.39927673339844)" fill-opacity="1">2022 - 5</text></g><g clip-path="url(#XrLoqQKdZumP)"><text fill="rgb(0,0,0)" stroke="none" font-family="helvetica" font-size="8pt" font-style="normal" font-weight="normal" text-decoration="normal" x="0" y="0" text-anchor="end" dominant-baseline="central" transform="matrix(1, 0, 0, 1, 925.1427001953125, 667.1922607421875)" fill-opacity="1">Electron/Curie - 22</text></g><g clip-path="url(#XrLoqQKdZumP)"><text fill="rgb(0,0,0)" stroke="none" font-family="helvetica" font-size="8pt" font-style="normal" font-weight="normal" text-decoration="normal" x="0" y="0" text-anchor="end" dominant-baseline="central" transform="matrix(1, 0, 0, 1, 925.1427001953125, 142.78501892089844)" fill-opacity="1">Electron/Photon - 3</text></g><text fill="rgb(68,68,68)" stroke="none" font-family="helvetica" font-size="13px" font-style="normal" font-weight="bold" text-decoration="normal" x="10" y="19.1689453125" text-anchor="start" dominant-baseline="alphabetic" transform="matrix(1, 0, 0, 1, 0.5, 0.5)" fill-opacity="1">Rocket Lab Rocket Successes</text></svg>