<svg version="1.1" xmlns="http://www.w3.org/2000/svg" width="1000" height="1200"><defs><clipPath id="lMndVxbomKRT"><path fill="none" stroke="none" d="M 10.5 27.5 L 970.5 27.5 L 970.5 1190.5 L 10.5 1190.5 L 10.5 27.5"/></clipPath><clipPath id="DmvvCWIMmSIu"><path fill="none" stroke="none" d="M 10.5 27.5 L 970.5 27.5 L 970.5 1190.5 L 10.5 1190.5 L 10.5 27.5"/></clipPath><clipPath id="hlOsAshSkrdB"><path fill="none" stroke="none" d="M 10.5 27.5 L 970.5 27.5 L 970.5 1190.5 L 10.5 1190.5 L 10.5 27.5"/></clipPath><clipPath id="WRDCQgnOqXml"><path fill="none" stroke="none" d="M 10.5 27.5 L 970.5 27.5 L 970.5 1190.5 L 10.5 1190.5 L 10.5 27.5"/></clipPath><clipPath id="bAwwCZfwUiVQ"><path fill="none" stroke="none" d="M 10.5 27.5 L 970.5 27.5 L 970.5 1190.5 L 10.5 1190.5 L 10.5 27.5"/></clipPath><clipPath id="UKRWRqXcTrJP"><path fill="none" stroke="none" d="M 10.5 27.5 L 970.5 27.5 L 970.5 1190.5 L 10.5 1190.5 L 10.5 27.5"/></clipPath></defs><path fill="rgb(255,255,255)" stroke="none" paint-order="stroke" d="M 0.5 0.5 L 1000.5 0.5 L 1000.5 1200.5 L 0.5 1200.5 L 0.5 0.5" fill-opacity="1"/><rect fill="#FFFFFF" stroke="none" x="10" y="27" width="960" height="1163" transform="matrix(1, 0, 0, 1, 0.5, 0.5)"/><path fill="rgb(255,250,250)" stroke="none" paint-order="stroke" d="M 10.5 27.5 L 970.5 27.5 L 970.5 1190.5 L 10.5 1190.5 L 10.5 27.5" fill-opacity="1"/><path fill="rgb(247,182,210)" stroke="rgb(247,182,210)" paint-order="fill" d="M 200.73818969726562 349.7439270019531 L 200.73818969726562 410.7453308105469 L 200.73818969726562 410.7453308105469 L 222.5517578125 410.755615234375 L 243.4937744140625 410.7858581542969 L 263.601318359375 410.835205078125 L 282.9114990234375 410.9028015136719 L 301.4613952636719 410.98785400390625 L 319.2880554199219 411.0894470214844 L 336.4286193847656 411.206787109375 L 352.920166015625 411.3389587402344 L 368.79974365234375 411.48516845703125 L 384.1044921875 411.6445617675781 L 398.8714294433594 411.8162536621094 L 413.1377258300781 411.9994201660156 L 426.9404296875 412.1932067871094 L 440.3166198730469 412.39678955078125 L 453.3033752441406 412.6092529296875 L 465.9378356933594 412.8298034667969 L 478.25701904296875 413.0575866699219 L 490.2980651855469 413.291748046875 L 502.0980529785156 413.5314025878906 L 513.6940307617188 413.7757568359375 L 525.1231079101562 414.02392578125 L 536.4224243164062 414.2750549316406 L 547.6290283203125 414.5283203125 L 558.7799682617188 414.7828674316406 L 569.912353515625 415.037841796875 L 581.0632934570312 415.2923889160156 L 592.2698974609375 415.545654296875 L 603.5691528320312 415.7967834472656 L 614.998291015625 416.0449523925781 L 626.59423828125 416.289306640625 L 638.3942260742188 416.5289611816406 L 650.435302734375 416.76312255859375 L 662.7544555664062 416.99090576171875 L 675.388916015625 417.2114562988281 L 688.3756713867188 417.4239501953125 L 701.7518920898438 417.62750244140625 L 715.5545654296875 417.8212890625 L 729.8208618164062 418.00445556640625 L 744.5878295898438 418.1761474609375 L 759.892578125 418.3355407714844 L 775.7721557617188 418.48175048828125 L 792.263671875 418.61395263671875 L 809.4042358398438 418.73126220703125 L 827.2308959960938 418.8328552246094 L 845.7808227539062 418.91790771484375 L 865.0910034179688 418.98553466796875 L 885.1985473632812 419.0348815917969 L 906.1405639648438 419.0650939941406 L 927.9541015625 419.07537841796875 L 927.9541015625 419.07537841796875 L 927.9541015625 358.0739440917969 L 927.9541015625 358.0739440917969 L 906.1405639648438 358.06365966796875 L 885.1985473632812 358.033447265625 L 865.0910034179688 357.9841003417969 L 845.7808227539062 357.9164733886719 L 827.2308959960938 357.8314208984375 L 809.4042358398438 357.7298278808594 L 792.263671875 357.6125183105469 L 775.7721557617188 357.4803161621094 L 759.892578125 357.3341064453125 L 744.5878295898438 357.1747131347656 L 729.8208618164062 357.0030212402344 L 715.5545654296875 356.8198547363281 L 701.7518920898438 356.6260681152344 L 688.3756713867188 356.4225158691406 L 675.388916015625 356.21002197265625 L 662.7544555664062 355.9894714355469 L 650.435302734375 355.7616882324219 L 638.3942260742188 355.52752685546875 L 626.59423828125 355.2878723144531 L 614.998291015625 355.04351806640625 L 603.5691528320312 354.79534912109375 L 592.2698974609375 354.5442199707031 L 581.0632934570312 354.29095458984375 L 569.912353515625 354.0364074707031 L 558.7799682617188 353.78143310546875 L 547.6290283203125 353.52691650390625 L 536.4224243164062 353.2736511230469 L 525.1231079101562 353.0224914550781 L 513.6940307617188 352.7743225097656 L 502.0980529785156 352.52996826171875 L 490.2980651855469 352.2903137207031 L 478.25701904296875 352.05615234375 L 465.9378356933594 351.828369140625 L 453.3033752441406 351.6078186035156 L 440.3166198730469 351.3953552246094 L 426.9404296875 351.1917724609375 L 413.1377258300781 350.99798583984375 L 398.8714294433594 350.8148193359375 L 384.1044921875 350.64312744140625 L 368.79974365234375 350.4837341308594 L 352.920166015625 350.3375244140625 L 336.4286193847656 350.2053527832031 L 319.2880554199219 350.0880126953125 L 301.4613952636719 349.9864196777344 L 282.9114990234375 349.9013671875 L 263.601318359375 349.8337707519531 L 243.4937744140625 349.784423828125 L 222.5517578125 349.7541809082031 L 200.73818969726562 349.7439270019531 Z" fill-opacity="0.6" clip-path="url(#hlOsAshSkrdB)" stroke-opacity="1" stroke-linejoin="bevel" stroke-miterlimit="10" stroke-width="0.8" stroke-dasharray=""/><path fill="rgb(247,182,210)" stroke="rgb(247,182,210)" paint-order="fill" d="M 200.73818969726562 284.5133972167969 L 200.73818969726562 345.51483154296875 L 200.73818969726562 345.51483154296875 L 222.5517578125 345.5303039550781 L 243.4937744140625 345.5758972167969 L 263.601318359375 345.6502990722656 L 282.9114990234375 345.7522277832031 L 301.4613952636719 345.88043212890625 L 319.2880554199219 346.03363037109375 L 336.4286193847656 346.21051025390625 L 352.920166015625 346.4098205566406 L 368.79974365234375 346.6302490234375 L 384.1044921875 346.87054443359375 L 398.8714294433594 347.1294250488281 L 413.1377258300781 347.40557861328125 L 426.9404296875 347.69775390625 L 440.3166198730469 348.0046691894531 L 453.3033752441406 348.3250427246094 L 465.9378356933594 348.6575622558594 L 478.25701904296875 349.0009765625 L 490.2980651855469 349.35400390625 L 502.0980529785156 349.7153625488281 L 513.6940307617188 350.083740234375 L 525.1231079101562 350.4579162597656 L 536.4224243164062 350.8365478515625 L 547.6290283203125 351.2184143066406 L 558.7799682617188 351.6021728515625 L 569.912353515625 351.986572265625 L 581.0632934570312 352.370361328125 L 592.2698974609375 352.752197265625 L 603.5691528320312 353.130859375 L 614.998291015625 353.5050048828125 L 626.59423828125 353.8734130859375 L 638.3942260742188 354.2347412109375 L 650.435302734375 354.5877685546875 L 662.7544555664062 354.9311828613281 L 675.388916015625 355.26373291015625 L 688.3756713867188 355.5840759277344 L 701.7518920898438 355.8909912109375 L 715.5545654296875 356.18316650390625 L 729.8208618164062 356.4593200683594 L 744.5878295898438 356.71820068359375 L 759.892578125 356.95849609375 L 775.7721557617188 357.178955078125 L 792.263671875 357.37823486328125 L 809.4042358398438 357.5551452636719 L 827.2308959960938 357.70831298828125 L 845.7808227539062 357.8365173339844 L 865.0910034179688 357.9384765625 L 885.1985473632812 358.01287841796875 L 906.1405639648438 358.0584716796875 L 927.9541015625 358.0739440917969 L 927.9541015625 358.0739440917969 L 927.9541015625 297.072509765625 L 927.9541015625 297.072509765625 L 906.1405639648438 297.0570373535156 L 885.1985473632812 297.0114440917969 L 865.0910034179688 296.9370422363281 L 845.7808227539062 296.8350830078125 L 827.2308959960938 296.7068786621094 L 809.4042358398438 296.5537109375 L 792.263671875 296.3768005371094 L 775.7721557617188 296.1775207519531 L 759.892578125 295.9570617675781 L 744.5878295898438 295.7167663574219 L 729.8208618164062 295.4579162597656 L 715.5545654296875 295.1817321777344 L 701.7518920898438 294.8895568847656 L 688.3756713867188 294.5826416015625 L 675.388916015625 294.2622985839844 L 662.7544555664062 293.9297790527344 L 650.435302734375 293.5863342285156 L 638.3942260742188 293.23333740234375 L 626.59423828125 292.8719787597656 L 614.998291015625 292.5035705566406 L 603.5691528320312 292.1294250488281 L 592.2698974609375 291.7507629394531 L 581.0632934570312 291.3689270019531 L 569.912353515625 290.9851379394531 L 558.7799682617188 290.6007385253906 L 547.6290283203125 290.21697998046875 L 536.4224243164062 289.8351135253906 L 525.1231079101562 289.45648193359375 L 513.6940307617188 289.0823059082031 L 502.0980529785156 288.71392822265625 L 490.2980651855469 288.3525695800781 L 478.25701904296875 287.9995422363281 L 465.9378356933594 287.6561279296875 L 453.3033752441406 287.3236083984375 L 440.3166198730469 287.00323486328125 L 426.9404296875 286.6963195800781 L 413.1377258300781 286.4041442871094 L 398.8714294433594 286.12799072265625 L 384.1044921875 285.8691101074219 L 368.79974365234375 285.6288146972656 L 352.920166015625 285.40838623046875 L 336.4286193847656 285.2090759277344 L 319.2880554199219 285.0321960449219 L 301.4613952636719 284.8789978027344 L 282.9114990234375 284.75079345703125 L 263.601318359375 284.64886474609375 L 243.4937744140625 284.574462890625 L 222.5517578125 284.52886962890625 L 200.73818969726562 284.5133972167969 Z" fill-opacity="0.6" clip-path="url(#hlOsAshSkrdB)" stroke-opacity="1" stroke-linejoin="bevel" stroke-miterlimit="10" stroke-width="0.8" stroke-dasharray=""/><path fill="rgb(247,182,210)" stroke="rgb(247,182,210)" paint-order="fill" d="M 200.73818969726562 219.28286743164062 L 200.73818969726562 280.2843017578125 L 200.73818969726562 280.2843017578125 L 222.5517578125 280.30499267578125 L 243.4937744140625 280.36590576171875 L 263.601318359375 280.46539306640625 L 282.9114990234375 280.6016540527344 L 301.4613952636719 280.7730407714844 L 319.2880554199219 280.9778137207031 L 336.4286193847656 281.2142639160156 L 352.920166015625 281.4806823730469 L 368.79974365234375 281.77532958984375 L 384.1044921875 282.0965576171875 L 398.8714294433594 282.4425964355469 L 413.1377258300781 282.811767578125 L 426.9404296875 283.20233154296875 L 440.3166198730469 283.6125793457031 L 453.3033752441406 284.0408020019531 L 465.9378356933594 284.4853210449219 L 478.25701904296875 284.9443664550781 L 490.2980651855469 285.416259765625 L 502.0980529785156 285.8992919921875 L 513.6940307617188 286.3917541503906 L 525.1231079101562 286.89190673828125 L 536.4224243164062 287.3980407714844 L 547.6290283203125 287.9084777832031 L 558.7799682617188 288.4214782714844 L 569.912353515625 288.9353332519531 L 581.0632934570312 289.4483337402344 L 592.2698974609375 289.958740234375 L 603.5691528320312 290.46490478515625 L 614.998291015625 290.9650573730469 L 626.59423828125 291.45751953125 L 638.3942260742188 291.9405517578125 L 650.435302734375 292.4124450683594 L 662.7544555664062 292.8714904785156 L 675.388916015625 293.3160095214844 L 688.3756713867188 293.7442321777344 L 701.7518920898438 294.15447998046875 L 715.5545654296875 294.5450439453125 L 729.8208618164062 294.9142150878906 L 744.5878295898438 295.26025390625 L 759.892578125 295.5814514160156 L 775.7721557617188 295.8761291503906 L 792.263671875 296.1425476074219 L 809.4042358398438 296.3789978027344 L 827.2308959960938 296.5837707519531 L 845.7808227539062 296.7551574707031 L 865.0910034179688 296.89141845703125 L 885.1985473632812 296.9908752441406 L 906.1405639648438 297.05181884765625 L 927.9541015625 297.072509765625 L 927.9541015625 297.072509765625 L 927.9541015625 236.07107543945312 L 927.9541015625 236.07107543945312 L 906.1405639648438 236.05038452148438 L 885.1985473632812 235.9894561767578 L 865.0910034179688 235.88998413085938 L 845.7808227539062 235.7537078857422 L 827.2308959960938 235.58233642578125 L 809.4042358398438 235.3775634765625 L 792.263671875 235.14111328125 L 775.7721557617188 234.87469482421875 L 759.892578125 234.5800323486328 L 744.5878295898438 234.25881958007812 L 729.8208618164062 233.91278076171875 L 715.5545654296875 233.5436248779297 L 701.7518920898438 233.15306091308594 L 688.3756713867188 232.7427978515625 L 675.388916015625 232.31455993652344 L 662.7544555664062 231.87005615234375 L 650.435302734375 231.4110107421875 L 638.3942260742188 230.93910217285156 L 626.59423828125 230.45606994628906 L 614.998291015625 229.963623046875 L 603.5691528320312 229.46347045898438 L 592.2698974609375 228.9573211669922 L 581.0632934570312 228.4468994140625 L 569.912353515625 227.93389892578125 L 558.7799682617188 227.4200439453125 L 547.6290283203125 226.90704345703125 L 536.4224243164062 226.39662170410156 L 525.1231079101562 225.89047241210938 L 513.6940307617188 225.39031982421875 L 502.0980529785156 224.8978729248047 L 490.2980651855469 224.4148406982422 L 478.25701904296875 223.94293212890625 L 465.9378356933594 223.48387145996094 L 453.3033752441406 223.03936767578125 L 440.3166198730469 222.61114501953125 L 426.9404296875 222.2008819580078 L 413.1377258300781 221.81031799316406 L 398.8714294433594 221.441162109375 L 384.1044921875 221.09512329101562 L 368.79974365234375 220.77391052246094 L 352.920166015625 220.47923278808594 L 336.4286193847656 220.21282958984375 L 319.2880554199219 219.97637939453125 L 301.4613952636719 219.7716064453125 L 282.9114990234375 219.6002197265625 L 263.601318359375 219.4639434814453 L 243.4937744140625 219.36448669433594 L 222.5517578125 219.30355834960938 L 200.73818969726562 219.28286743164062 Z" fill-opacity="0.6" clip-path="url(#hlOsAshSkrdB)" stroke-opacity="1" stroke-linejoin="bevel" stroke-miterlimit="10" stroke-width="0.8" stroke-dasharray=""/><path fill="rgb(247,182,210)" stroke="rgb(247,182,210)" paint-order="fill" d="M 200.73818969726562 184.5530548095703 L 200.73818969726562 215.05377197265625 L 200.73818969726562 215.05377197265625 L 222.5517578125 215.07968139648438 L 243.4937744140625 215.1559600830078 L 263.601318359375 215.2804718017578 L 282.9114990234375 215.45108032226562 L 301.4613952636719 215.66563415527344 L 319.2880554199219 215.92198181152344 L 336.4286193847656 216.21800231933594 L 352.920166015625 216.55152893066406 L 368.79974365234375 216.92042541503906 L 384.1044921875 217.3225555419922 L 398.8714294433594 217.75576782226562 L 413.1377258300781 218.21792602539062 L 426.9404296875 218.7068634033203 L 440.3166198730469 219.22047424316406 L 453.3033752441406 219.75657653808594 L 465.9378356933594 220.31304931640625 L 478.25701904296875 220.88775634765625 L 490.2980651855469 221.47853088378906 L 502.0980529785156 222.08323669433594 L 513.6940307617188 222.69973754882812 L 525.1231079101562 223.3258819580078 L 536.4224243164062 223.95953369140625 L 547.6290283203125 224.5985565185547 L 558.7799682617188 225.2407684326172 L 569.912353515625 225.8840789794922 L 581.0632934570312 226.5262908935547 L 592.2698974609375 227.16531372070312 L 603.5691528320312 227.79896545410156 L 614.998291015625 228.42510986328125 L 626.59423828125 229.04161071777344 L 638.3942260742188 229.6463165283203 L 650.435302734375 230.23709106445312 L 662.7544555664062 230.81179809570312 L 675.388916015625 231.36827087402344 L 688.3756713867188 231.9043731689453 L 701.7518920898438 232.41798400878906 L 715.5545654296875 232.9069366455078 L 729.8208618164062 233.36907958984375 L 744.5878295898438 233.8022918701172 L 759.892578125 234.2044219970703 L 775.7721557617188 234.5733184814453 L 792.263671875 234.90684509277344 L 809.4042358398438 235.20286560058594 L 827.2308959960938 235.45921325683594 L 845.7808227539062 235.67376708984375 L 865.0910034179688 235.84437561035156 L 885.1985473632812 235.96888732910156 L 906.1405639648438 236.045166015625 L 927.9541015625 236.07107543945312 L 927.9541015625 236.07107543945312 L 927.9541015625 205.5703582763672 L 927.9541015625 205.5703582763672 L 906.1405639648438 205.54444885253906 L 885.1985473632812 205.46817016601562 L 865.0910034179688 205.34365844726562 L 845.7808227539062 205.1730499267578 L 827.2308959960938 204.95849609375 L 809.4042358398438 204.7021484375 L 792.263671875 204.4061279296875 L 775.7721557617188 204.07260131835938 L 759.892578125 203.70370483398438 L 744.5878295898438 203.30157470703125 L 729.8208618164062 202.8683624267578 L 715.5545654296875 202.40621948242188 L 701.7518920898438 201.91726684570312 L 688.3756713867188 201.40365600585938 L 675.388916015625 200.8675537109375 L 662.7544555664062 200.3110809326172 L 650.435302734375 199.7363739013672 L 638.3942260742188 199.14559936523438 L 626.59423828125 198.5408935546875 L 614.998291015625 197.9243927001953 L 603.5691528320312 197.29824829101562 L 592.2698974609375 196.6645965576172 L 581.0632934570312 196.0255889892578 L 569.912353515625 195.38336181640625 L 558.7799682617188 194.7400665283203 L 547.6290283203125 194.09783935546875 L 536.4224243164062 193.4588165283203 L 525.1231079101562 192.82518005371094 L 513.6940307617188 192.1990203857422 L 502.0980529785156 191.58251953125 L 490.2980651855469 190.97781372070312 L 478.25701904296875 190.3870391845703 L 465.9378356933594 189.81234741210938 L 453.3033752441406 189.255859375 L 440.3166198730469 188.71975708007812 L 426.9404296875 188.20614624023438 L 413.1377258300781 187.7172088623047 L 398.8714294433594 187.2550506591797 L 384.1044921875 186.82183837890625 L 368.79974365234375 186.41970825195312 L 352.920166015625 186.05081176757812 L 336.4286193847656 185.71728515625 L 319.2880554199219 185.4212646484375 L 301.4613952636719 185.1649169921875 L 282.9114990234375 184.9503631591797 L 263.601318359375 184.77975463867188 L 243.4937744140625 184.65524291992188 L 222.5517578125 184.57896423339844 L 200.73818969726562 184.5530548095703 Z" fill-opacity="0.6" clip-path="url(#hlOsAshSkrdB)" stroke-opacity="1" stroke-linejoin="bevel" stroke-miterlimit="10" stroke-width="0.8" stroke-dasharray=""/><path fill="rgb(247,182,210)" stroke="rgb(247,182,210)" paint-order="fill" d="M 200.73818969726562 606.4368896484375 L 200.73818969726562 697.9390869140625 L 200.73818969726562 697.9390869140625 L 222.5517578125 697.9337158203125 L 243.4937744140625 697.9179077148438 L 263.601318359375 697.89208984375 L 282.9114990234375 697.856689453125 L 301.4613952636719 697.8121948242188 L 319.2880554199219 697.7590942382812 L 336.4286193847656 697.6976928710938 L 352.920166015625 697.6285400390625 L 368.79974365234375 697.5520629882812 L 384.1044921875 697.4686889648438 L 398.8714294433594 697.37890625 L 413.1377258300781 697.2830810546875 L 426.9404296875 697.1817016601562 L 440.3166198730469 697.0752563476562 L 453.3033752441406 696.964111328125 L 465.9378356933594 696.8486938476562 L 478.25701904296875 696.7295532226562 L 490.2980651855469 696.6071166992188 L 502.0980529785156 696.4817504882812 L 513.6940307617188 696.3539428710938 L 525.1231079101562 696.22412109375 L 536.4224243164062 696.0927734375 L 547.6290283203125 695.9602661132812 L 558.7799682617188 695.8271484375 L 569.912353515625 695.6937866210938 L 581.0632934570312 695.5606079101562 L 592.2698974609375 695.4281616210938 L 603.5691528320312 695.2967529296875 L 614.998291015625 695.1669311523438 L 626.59423828125 695.0391235351562 L 638.3942260742188 694.9137573242188 L 650.435302734375 694.7913208007812 L 662.7544555664062 694.6721801757812 L 675.388916015625 694.5567626953125 L 688.3756713867188 694.4456176757812 L 701.7518920898438 694.3391723632812 L 715.5545654296875 694.23779296875 L 729.8208618164062 694.1419677734375 L 744.5878295898438 694.0521850585938 L 759.892578125 693.9688110351562 L 775.7721557617188 693.892333984375 L 792.263671875 693.8231811523438 L 809.4042358398438 693.7618408203125 L 827.2308959960938 693.7086791992188 L 845.7808227539062 693.6641845703125 L 865.0910034179688 693.6288452148438 L 885.1985473632812 693.60302734375 L 906.1405639648438 693.587158203125 L 927.9541015625 693.5818481445312 L 927.9541015625 693.5818481445312 L 927.9541015625 602.0796508789062 L 927.9541015625 602.0796508789062 L 906.1405639648438 602.0850219726562 L 885.1985473632812 602.100830078125 L 865.0910034179688 602.1266479492188 L 845.7808227539062 602.1620483398438 L 827.2308959960938 602.20654296875 L 809.4042358398438 602.2596435546875 L 792.263671875 602.321044921875 L 775.7721557617188 602.3901977539062 L 759.892578125 602.4666748046875 L 744.5878295898438 602.550048828125 L 729.8208618164062 602.6398315429688 L 715.5545654296875 602.7356567382812 L 701.7518920898438 602.8370361328125 L 688.3756713867188 602.9434814453125 L 675.388916015625 603.0546264648438 L 662.7544555664062 603.1699829101562 L 650.435302734375 603.2891235351562 L 638.3942260742188 603.41162109375 L 626.59423828125 603.5369873046875 L 614.998291015625 603.664794921875 L 603.5691528320312 603.7946166992188 L 592.2698974609375 603.9259643554688 L 581.0632934570312 604.0584716796875 L 569.912353515625 604.1915893554688 L 558.7799682617188 604.324951171875 L 547.6290283203125 604.4581298828125 L 536.4224243164062 604.590576171875 L 525.1231079101562 604.7219848632812 L 513.6940307617188 604.8517456054688 L 502.0980529785156 604.9796142578125 L 490.2980651855469 605.10498046875 L 478.25701904296875 605.2274169921875 L 465.9378356933594 605.3465576171875 L 453.3033752441406 605.4619140625 L 440.3166198730469 605.5730590820312 L 426.9404296875 605.6795654296875 L 413.1377258300781 605.7809448242188 L 398.8714294433594 605.8767700195312 L 384.1044921875 605.966552734375 L 368.79974365234375 606.0499267578125 L 352.920166015625 606.1264038085938 L 336.4286193847656 606.195556640625 L 319.2880554199219 606.2568969726562 L 301.4613952636719 606.31005859375 L 282.9114990234375 606.3545532226562 L 263.601318359375 606.389892578125 L 243.4937744140625 606.4157104492188 L 222.5517578125 606.4315185546875 L 200.73818969726562 606.4368896484375 Z" fill-opacity="0.6" clip-path="url(#hlOsAshSkrdB)" stroke-opacity="1" stroke-linejoin="bevel" stroke-miterlimit="10" stroke-width="0.8" stroke-dasharray=""/><path fill="rgb(247,182,210)" stroke="rgb(247,182,210)" paint-order="fill" d="M 200.73818969726562 510.7056884765625 L 200.73818969726562 602.2078247070312 L 200.73818969726562 602.2078247070312 L 222.5517578125 602.2076416015625 L 243.4937744140625 602.2072143554688 L 263.601318359375 602.2064208984375 L 282.9114990234375 602.2053833007812 L 301.4613952636719 602.2041015625 L 319.2880554199219 602.2025146484375 L 336.4286193847656 602.2007446289062 L 352.920166015625 602.1986694335938 L 368.79974365234375 602.1964721679688 L 384.1044921875 602.1939697265625 L 398.8714294433594 602.1913452148438 L 413.1377258300781 602.1885375976562 L 426.9404296875 602.185546875 L 440.3166198730469 602.1824340820312 L 453.3033752441406 602.1791381835938 L 465.9378356933594 602.17578125 L 478.25701904296875 602.1722412109375 L 490.2980651855469 602.1686401367188 L 502.0980529785156 602.1649780273438 L 513.6940307617188 602.1611938476562 L 525.1231079101562 602.1574096679688 L 536.4224243164062 602.1535034179688 L 547.6290283203125 602.1495971679688 L 558.7799682617188 602.1456909179688 L 569.912353515625 602.1417846679688 L 581.0632934570312 602.1378784179688 L 592.2698974609375 602.1339721679688 L 603.5691528320312 602.130126953125 L 614.998291015625 602.1262817382812 L 626.59423828125 602.12255859375 L 638.3942260742188 602.1188354492188 L 650.435302734375 602.115234375 L 662.7544555664062 602.1117553710938 L 675.388916015625 602.1083374023438 L 688.3756713867188 602.1051025390625 L 701.7518920898438 602.1019287109375 L 715.5545654296875 602.0989379882812 L 729.8208618164062 602.0961303710938 L 744.5878295898438 602.093505859375 L 759.892578125 602.091064453125 L 775.7721557617188 602.0888061523438 L 792.263671875 602.0867919921875 L 809.4042358398438 602.0849609375 L 827.2308959960938 602.0833740234375 L 845.7808227539062 602.0820922851562 L 865.0910034179688 602.0810546875 L 885.1985473632812 602.080322265625 L 906.1405639648438 602.079833984375 L 927.9541015625 602.0796508789062 L 927.9541015625 602.0796508789062 L 927.9541015625 510.5775146484375 L 927.9541015625 510.5775146484375 L 906.1405639648438 510.5776672363281 L 885.1985473632812 510.5781555175781 L 865.0910034179688 510.5788879394531 L 845.7808227539062 510.5799560546875 L 827.2308959960938 510.58123779296875 L 809.4042358398438 510.58282470703125 L 792.263671875 510.5846252441406 L 775.7721557617188 510.5866394042969 L 759.892578125 510.5888977050781 L 744.5878295898438 510.59136962890625 L 729.8208618164062 510.593994140625 L 715.5545654296875 510.5968017578125 L 701.7518920898438 510.59979248046875 L 688.3756713867188 510.6029357910156 L 675.388916015625 510.606201171875 L 662.7544555664062 510.6095886230469 L 650.435302734375 510.61309814453125 L 638.3942260742188 510.61669921875 L 626.59423828125 510.6203918457031 L 614.998291015625 510.6241455078125 L 603.5691528320312 510.6279602050781 L 592.2698974609375 510.6318359375 L 581.0632934570312 510.6357116699219 L 569.912353515625 510.6396484375 L 558.7799682617188 510.6435546875 L 547.6290283203125 510.6474609375 L 536.4224243164062 510.6513671875 L 525.1231079101562 510.6552429199219 L 513.6940307617188 510.6590576171875 L 502.0980529785156 510.6628112792969 L 490.2980651855469 510.66650390625 L 478.25701904296875 510.67010498046875 L 465.9378356933594 510.6736145019531 L 453.3033752441406 510.677001953125 L 440.3166198730469 510.6802673339844 L 426.9404296875 510.68341064453125 L 413.1377258300781 510.6863708496094 L 398.8714294433594 510.689208984375 L 384.1044921875 510.69183349609375 L 368.79974365234375 510.6943054199219 L 352.920166015625 510.696533203125 L 336.4286193847656 510.6985778808594 L 319.2880554199219 510.70037841796875 L 301.4613952636719 510.7019348144531 L 282.9114990234375 510.7032470703125 L 263.601318359375 510.70428466796875 L 243.4937744140625 510.7050476074219 L 222.5517578125 510.70550537109375 L 200.73818969726562 510.7056884765625 Z" fill-opacity="0.6" clip-path="url(#hlOsAshSkrdB)" stroke-opacity="1" stroke-linejoin="bevel" stroke-miterlimit="10" stroke-width="0.8" stroke-dasharray=""/><path fill="rgb(247,182,210)" stroke="rgb(247,182,210)" paint-order="fill" d="M 200.73818969726562 702.1681518554688 L 200.73818969726562 824.1710205078125 L 200.73818969726562 824.1710205078125 L 222.5517578125 824.1604614257812 L 243.4937744140625 824.1292724609375 L 263.601318359375 824.0784301757812 L 282.9114990234375 824.0087280273438 L 301.4613952636719 823.9210815429688 L 319.2880554199219 823.8163452148438 L 336.4286193847656 823.6953735351562 L 352.920166015625 823.5591430664062 L 368.79974365234375 823.408447265625 L 384.1044921875 823.244140625 L 398.8714294433594 823.067138671875 L 413.1377258300781 822.8783569335938 L 426.9404296875 822.6785888671875 L 440.3166198730469 822.46875 L 453.3033752441406 822.249755859375 L 465.9378356933594 822.0223999023438 L 478.25701904296875 821.78759765625 L 490.2980651855469 821.5462646484375 L 502.0980529785156 821.2992553710938 L 513.6940307617188 821.04736328125 L 525.1231079101562 820.7915649414062 L 536.4224243164062 820.53271484375 L 547.6290283203125 820.2716064453125 L 558.7799682617188 820.00927734375 L 569.912353515625 819.7464599609375 L 581.0632934570312 819.4840698242188 L 592.2698974609375 819.2230224609375 L 603.5691528320312 818.9641723632812 L 614.998291015625 818.7083129882812 L 626.59423828125 818.4564819335938 L 638.3942260742188 818.2094116210938 L 650.435302734375 817.9680786132812 L 662.7544555664062 817.7332763671875 L 675.388916015625 817.5059814453125 L 688.3756713867188 817.2869262695312 L 701.7518920898438 817.0770874023438 L 715.5545654296875 816.8773803710938 L 729.8208618164062 816.6885375976562 L 744.5878295898438 816.5115356445312 L 759.892578125 816.3472900390625 L 775.7721557617188 816.1965942382812 L 792.263671875 816.060302734375 L 809.4042358398438 815.9393920898438 L 827.2308959960938 815.8346557617188 L 845.7808227539062 815.7470092773438 L 865.0910034179688 815.6773071289062 L 885.1985473632812 815.6264038085938 L 906.1405639648438 815.5952758789062 L 927.9541015625 815.5846557617188 L 927.9541015625 815.5846557617188 L 927.9541015625 693.5818481445312 L 927.9541015625 693.5818481445312 L 906.1405639648438 693.5924072265625 L 885.1985473632812 693.62353515625 L 865.0910034179688 693.6744384765625 L 845.7808227539062 693.744140625 L 827.2308959960938 693.831787109375 L 809.4042358398438 693.9365234375 L 792.263671875 694.0574340820312 L 775.7721557617188 694.1937255859375 L 759.892578125 694.3444213867188 L 744.5878295898438 694.5087280273438 L 729.8208618164062 694.6856689453125 L 715.5545654296875 694.87451171875 L 701.7518920898438 695.07421875 L 688.3756713867188 695.2840576171875 L 675.388916015625 695.5031127929688 L 662.7544555664062 695.7304077148438 L 650.435302734375 695.9652099609375 L 638.3942260742188 696.20654296875 L 626.59423828125 696.45361328125 L 614.998291015625 696.7055053710938 L 603.5691528320312 696.9613037109375 L 592.2698974609375 697.2201538085938 L 581.0632934570312 697.481201171875 L 569.912353515625 697.7435913085938 L 558.7799682617188 698.0064086914062 L 547.6290283203125 698.2687377929688 L 536.4224243164062 698.5298461914062 L 525.1231079101562 698.7886962890625 L 513.6940307617188 699.0444946289062 L 502.0980529785156 699.29638671875 L 490.2980651855469 699.5433959960938 L 478.25701904296875 699.7847900390625 L 465.9378356933594 700.01953125 L 453.3033752441406 700.2468872070312 L 440.3166198730469 700.4658813476562 L 426.9404296875 700.6757202148438 L 413.1377258300781 700.87548828125 L 398.8714294433594 701.0642700195312 L 384.1044921875 701.2412719726562 L 368.79974365234375 701.4055786132812 L 352.920166015625 701.5562744140625 L 336.4286193847656 701.6925048828125 L 319.2880554199219 701.8134765625 L 301.4613952636719 701.918212890625 L 282.9114990234375 702.005859375 L 263.601318359375 702.0755615234375 L 243.4937744140625 702.1264038085938 L 222.5517578125 702.1575927734375 L 200.73818969726562 702.1681518554688 Z" fill-opacity="0.6" clip-path="url(#hlOsAshSkrdB)" stroke-opacity="1" stroke-linejoin="bevel" stroke-miterlimit="10" stroke-width="0.8" stroke-dasharray=""/><path fill="rgb(247,182,210)" stroke="rgb(247,182,210)" paint-order="fill" d="M 200.73818969726562 985.1328125 L 200.73818969726562 1137.6363525390625 L 200.73818969726562 1137.6363525390625 L 222.5517578125 1137.6153564453125 L 243.4937744140625 1137.553466796875 L 263.601318359375 1137.4525146484375 L 282.9114990234375 1137.314208984375 L 301.4613952636719 1137.14013671875 L 319.2880554199219 1136.9322509765625 L 336.4286193847656 1136.6922607421875 L 352.920166015625 1136.4217529296875 L 368.79974365234375 1136.12255859375 L 384.1044921875 1135.79638671875 L 398.8714294433594 1135.445068359375 L 413.1377258300781 1135.0703125 L 426.9404296875 1134.673828125 L 440.3166198730469 1134.25732421875 L 453.3033752441406 1133.822509765625 L 465.9378356933594 1133.3712158203125 L 478.25701904296875 1132.9051513671875 L 490.2980651855469 1132.426025390625 L 502.0980529785156 1131.9356689453125 L 513.6940307617188 1131.4356689453125 L 525.1231079101562 1130.9278564453125 L 536.4224243164062 1130.4140625 L 547.6290283203125 1129.895751953125 L 558.7799682617188 1129.375 L 569.912353515625 1128.853271484375 L 581.0632934570312 1128.3323974609375 L 592.2698974609375 1127.814208984375 L 603.5691528320312 1127.30029296875 L 614.998291015625 1126.79248046875 L 626.59423828125 1126.2926025390625 L 638.3942260742188 1125.8021240234375 L 650.435302734375 1125.3231201171875 L 662.7544555664062 1124.8570556640625 L 675.388916015625 1124.40576171875 L 688.3756713867188 1123.970947265625 L 701.7518920898438 1123.554443359375 L 715.5545654296875 1123.1578369140625 L 729.8208618164062 1122.7830810546875 L 744.5878295898438 1122.4317626953125 L 759.892578125 1122.105712890625 L 775.7721557617188 1121.8065185546875 L 792.263671875 1121.5360107421875 L 809.4042358398438 1121.2958984375 L 827.2308959960938 1121.0880126953125 L 845.7808227539062 1120.9140625 L 865.0910034179688 1120.775634765625 L 885.1985473632812 1120.6746826171875 L 906.1405639648438 1120.61279296875 L 927.9541015625 1120.591796875 L 927.9541015625 1120.591796875 L 927.9541015625 968.0882568359375 L 927.9541015625 968.0882568359375 L 906.1405639648438 968.1092529296875 L 885.1985473632812 968.171142578125 L 865.0910034179688 968.2720947265625 L 845.7808227539062 968.4104614257812 L 827.2308959960938 968.58447265625 L 809.4042358398438 968.7923583984375 L 792.263671875 969.0324096679688 L 775.7721557617188 969.3029174804688 L 759.892578125 969.60205078125 L 744.5878295898438 969.9281616210938 L 729.8208618164062 970.279541015625 L 715.5545654296875 970.654296875 L 701.7518920898438 971.0508422851562 L 688.3756713867188 971.4673461914062 L 675.388916015625 971.902099609375 L 662.7544555664062 972.3533935546875 L 650.435302734375 972.8194580078125 L 638.3942260742188 973.298583984375 L 626.59423828125 973.7890014648438 L 614.998291015625 974.2889404296875 L 603.5691528320312 974.7967529296875 L 592.2698974609375 975.3106079101562 L 581.0632934570312 975.828857421875 L 569.912353515625 976.3496704101562 L 558.7799682617188 976.8713989257812 L 547.6290283203125 977.3922119140625 L 536.4224243164062 977.910400390625 L 525.1231079101562 978.42431640625 L 513.6940307617188 978.9320678710938 L 502.0980529785156 979.4320678710938 L 490.2980651855469 979.9224853515625 L 478.25701904296875 980.4015502929688 L 465.9378356933594 980.8676147460938 L 453.3033752441406 981.3189086914062 L 440.3166198730469 981.7537231445312 L 426.9404296875 982.1702270507812 L 413.1377258300781 982.5667114257812 L 398.8714294433594 982.9415283203125 L 384.1044921875 983.2928466796875 L 368.79974365234375 983.6189575195312 L 352.920166015625 983.9181518554688 L 336.4286193847656 984.1885986328125 L 319.2880554199219 984.4287109375 L 301.4613952636719 984.6365966796875 L 282.9114990234375 984.8106079101562 L 263.601318359375 984.9489135742188 L 243.4937744140625 985.0499267578125 L 222.5517578125 985.1117553710938 L 200.73818969726562 985.1328125 Z" fill-opacity="0.6" clip-path="url(#hlOsAshSkrdB)" stroke-opacity="1" stroke-linejoin="bevel" stroke-miterlimit="10" stroke-width="0.8" stroke-dasharray=""/><path fill="rgb(247,182,210)" stroke="rgb(247,182,210)" paint-order="fill" d="M 200.73818969726562 828.4000854492188 L 200.73818969726562 980.9036865234375 L 200.73818969726562 980.9036865234375 L 222.5517578125 980.8878784179688 L 243.4937744140625 980.8413696289062 L 263.601318359375 980.7654418945312 L 282.9114990234375 980.6614379882812 L 301.4613952636719 980.5305786132812 L 319.2880554199219 980.374267578125 L 336.4286193847656 980.1937866210938 L 352.920166015625 979.9904174804688 L 368.79974365234375 979.7655029296875 L 384.1044921875 979.520263671875 L 398.8714294433594 979.2561645507812 L 413.1377258300781 978.974365234375 L 426.9404296875 978.6762084960938 L 440.3166198730469 978.363037109375 L 453.3033752441406 978.0361328125 L 465.9378356933594 977.6968383789062 L 478.25701904296875 977.3463745117188 L 490.2980651855469 976.9861450195312 L 502.0980529785156 976.617431640625 L 513.6940307617188 976.2415161132812 L 525.1231079101562 975.8597412109375 L 536.4224243164062 975.4733276367188 L 547.6290283203125 975.0836791992188 L 558.7799682617188 974.6920776367188 L 569.912353515625 974.2998657226562 L 581.0632934570312 973.9082641601562 L 592.2698974609375 973.5186157226562 L 603.5691528320312 973.1322631835938 L 614.998291015625 972.7504272460938 L 626.59423828125 972.37451171875 L 638.3942260742188 972.0057983398438 L 650.435302734375 971.6455688476562 L 662.7544555664062 971.295166015625 L 675.388916015625 970.955810546875 L 688.3756713867188 970.62890625 L 701.7518920898438 970.3157348632812 L 715.5545654296875 970.0176391601562 L 729.8208618164062 969.73583984375 L 744.5878295898438 969.4716796875 L 759.892578125 969.2264404296875 L 775.7721557617188 969.0015258789062 L 792.263671875 968.7981567382812 L 809.4042358398438 968.61767578125 L 827.2308959960938 968.4613647460938 L 845.7808227539062 968.3305053710938 L 865.0910034179688 968.2265014648438 L 885.1985473632812 968.1505737304688 L 906.1405639648438 968.1040649414062 L 927.9541015625 968.0882568359375 L 927.9541015625 968.0882568359375 L 927.9541015625 815.5846557617188 L 927.9541015625 815.5846557617188 L 906.1405639648438 815.6004638671875 L 885.1985473632812 815.64697265625 L 865.0910034179688 815.722900390625 L 845.7808227539062 815.8269653320312 L 827.2308959960938 815.957763671875 L 809.4042358398438 816.1140747070312 L 792.263671875 816.2945556640625 L 775.7721557617188 816.4979248046875 L 759.892578125 816.722900390625 L 744.5878295898438 816.9680786132812 L 729.8208618164062 817.2322387695312 L 715.5545654296875 817.5140380859375 L 701.7518920898438 817.8121948242188 L 688.3756713867188 818.1253662109375 L 675.388916015625 818.4522705078125 L 662.7544555664062 818.7915649414062 L 650.435302734375 819.1419677734375 L 638.3942260742188 819.502197265625 L 626.59423828125 819.8709716796875 L 614.998291015625 820.2468872070312 L 603.5691528320312 820.628662109375 L 592.2698974609375 821.0150146484375 L 581.0632934570312 821.4046630859375 L 569.912353515625 821.7962646484375 L 558.7799682617188 822.1885375976562 L 547.6290283203125 822.5801391601562 L 536.4224243164062 822.9697875976562 L 525.1231079101562 823.3561401367188 L 513.6940307617188 823.7379150390625 L 502.0980529785156 824.1138305664062 L 490.2980651855469 824.4826049804688 L 478.25701904296875 824.8428344726562 L 465.9378356933594 825.1932373046875 L 453.3033752441406 825.5325317382812 L 440.3166198730469 825.8594360351562 L 426.9404296875 826.172607421875 L 413.1377258300781 826.4707641601562 L 398.8714294433594 826.7525634765625 L 384.1044921875 827.0167236328125 L 368.79974365234375 827.2619018554688 L 352.920166015625 827.48681640625 L 336.4286193847656 827.6902465820312 L 319.2880554199219 827.8707275390625 L 301.4613952636719 828.0270385742188 L 282.9114990234375 828.1578369140625 L 263.601318359375 828.2619018554688 L 243.4937744140625 828.3378295898438 L 222.5517578125 828.3843383789062 L 200.73818969726562 828.4000854492188 Z" fill-opacity="0.6" clip-path="url(#hlOsAshSkrdB)" stroke-opacity="1" stroke-linejoin="bevel" stroke-miterlimit="10" stroke-width="0.8" stroke-dasharray=""/><path fill="rgb(247,182,210)" stroke="rgb(247,182,210)" paint-order="fill" d="M 200.73818969726562 149.82325744628906 L 200.73818969726562 180.32395935058594 L 200.73818969726562 180.32395935058594 L 222.5517578125 180.35508728027344 L 243.4937744140625 180.44671630859375 L 263.601318359375 180.59628295898438 L 282.9114990234375 180.8012237548828 L 301.4613952636719 181.05894470214844 L 319.2880554199219 181.36688232421875 L 336.4286193847656 181.7224578857422 L 352.920166015625 182.1230926513672 L 368.79974365234375 182.56622314453125 L 384.1044921875 183.0492706298828 L 398.8714294433594 183.5696563720703 L 413.1377258300781 184.1248016357422 L 426.9404296875 184.71212768554688 L 440.3166198730469 185.32908630371094 L 453.3033752441406 185.9730682373047 L 465.9378356933594 186.6415252685547 L 478.25701904296875 187.3318634033203 L 490.2980651855469 188.04150390625 L 502.0980529785156 188.7678985595703 L 513.6940307617188 189.50845336914062 L 525.1231079101562 190.26058959960938 L 536.4224243164062 191.02174377441406 L 547.6290283203125 191.78933715820312 L 558.7799682617188 192.560791015625 L 569.912353515625 193.33352661132812 L 581.0632934570312 194.10498046875 L 592.2698974609375 194.87257385253906 L 603.5691528320312 195.63372802734375 L 614.998291015625 196.38587951660156 L 626.59423828125 197.1264190673828 L 638.3942260742188 197.85281372070312 L 650.435302734375 198.56246948242188 L 662.7544555664062 199.2528076171875 L 675.388916015625 199.92124938964844 L 688.3756713867188 200.56524658203125 L 701.7518920898438 201.18218994140625 L 715.5545654296875 201.76953125 L 729.8208618164062 202.32467651367188 L 744.5878295898438 202.84506225585938 L 759.892578125 203.32809448242188 L 775.7721557617188 203.77122497558594 L 792.263671875 204.171875 L 809.4042358398438 204.52745056152344 L 827.2308959960938 204.83538818359375 L 845.7808227539062 205.09310913085938 L 865.0910034179688 205.2980499267578 L 885.1985473632812 205.44761657714844 L 906.1405639648438 205.53924560546875 L 927.9541015625 205.5703582763672 L 927.9541015625 205.5703582763672 L 927.9541015625 175.06964111328125 L 927.9541015625 175.06964111328125 L 906.1405639648438 175.0385284423828 L 885.1985473632812 174.9468994140625 L 865.0910034179688 174.79733276367188 L 845.7808227539062 174.59239196777344 L 827.2308959960938 174.3346710205078 L 809.4042358398438 174.0267333984375 L 792.263671875 173.67115783691406 L 775.7721557617188 173.2705078125 L 759.892578125 172.82737731933594 L 744.5878295898438 172.34434509277344 L 729.8208618164062 171.82395935058594 L 715.5545654296875 171.26881408691406 L 701.7518920898438 170.6814727783203 L 688.3756713867188 170.0645294189453 L 675.388916015625 169.4205322265625 L 662.7544555664062 168.75209045410156 L 650.435302734375 168.06175231933594 L 638.3942260742188 167.3520965576172 L 626.59423828125 166.62570190429688 L 614.998291015625 165.88516235351562 L 603.5691528320312 165.1330108642578 L 592.2698974609375 164.37185668945312 L 581.0632934570312 163.60426330566406 L 569.912353515625 162.8328094482422 L 558.7799682617188 162.06007385253906 L 547.6290283203125 161.2886199951172 L 536.4224243164062 160.52102661132812 L 525.1231079101562 159.75987243652344 L 513.6940307617188 159.0077362060547 L 502.0980529785156 158.26718139648438 L 490.2980651855469 157.54078674316406 L 478.25701904296875 156.83114624023438 L 465.9378356933594 156.14080810546875 L 453.3033752441406 155.47235107421875 L 440.3166198730469 154.828369140625 L 426.9404296875 154.21141052246094 L 413.1377258300781 153.62408447265625 L 398.8714294433594 153.06893920898438 L 384.1044921875 152.54855346679688 L 368.79974365234375 152.0655059814453 L 352.920166015625 151.62237548828125 L 336.4286193847656 151.22174072265625 L 319.2880554199219 150.8661651611328 L 301.4613952636719 150.5582275390625 L 282.9114990234375 150.30050659179688 L 263.601318359375 150.09556579589844 L 243.4937744140625 149.9459991455078 L 222.5517578125 149.8543701171875 L 200.73818969726562 149.82325744628906 Z" fill-opacity="0.6" clip-path="url(#hlOsAshSkrdB)" stroke-opacity="1" stroke-linejoin="bevel" stroke-miterlimit="10" stroke-width="0.8" stroke-dasharray=""/><path fill="rgb(247,182,210)" stroke="rgb(247,182,210)" paint-order="fill" d="M 200.73818969726562 115.09344482421875 L 200.73818969726562 145.5941619873047 L 200.73818969726562 145.5941619873047 L 222.5517578125 145.6304931640625 L 243.4937744140625 145.7374725341797 L 263.601318359375 145.91209411621094 L 282.9114990234375 146.15135192871094 L 301.4613952636719 146.45225524902344 L 319.2880554199219 146.811767578125 L 336.4286193847656 147.22691345214844 L 352.920166015625 147.69467163085938 L 368.79974365234375 148.21202087402344 L 384.1044921875 148.77598571777344 L 398.8714294433594 149.383544921875 L 413.1377258300781 150.03167724609375 L 426.9404296875 150.7174072265625 L 440.3166198730469 151.4376983642578 L 453.3033752441406 152.18955993652344 L 465.9378356933594 152.96998596191406 L 478.25701904296875 153.7759552001953 L 490.2980651855469 154.6044921875 L 502.0980529785156 155.4525604248047 L 513.6940307617188 156.31716918945312 L 525.1231079101562 157.19529724121094 L 536.4224243164062 158.08395385742188 L 547.6290283203125 158.98013305664062 L 558.7799682617188 159.8808135986328 L 569.912353515625 160.78298950195312 L 581.0632934570312 161.6836700439453 L 592.2698974609375 162.57984924316406 L 603.5691528320312 163.468505859375 L 614.998291015625 164.3466339111328 L 626.59423828125 165.21124267578125 L 638.3942260742188 166.05931091308594 L 650.435302734375 166.88783264160156 L 662.7544555664062 167.69381713867188 L 675.388916015625 168.4742431640625 L 688.3756713867188 169.22610473632812 L 701.7518920898438 169.94639587402344 L 715.5545654296875 170.6321258544922 L 729.8208618164062 171.28025817871094 L 744.5878295898438 171.8878173828125 L 759.892578125 172.4517822265625 L 775.7721557617188 172.96913146972656 L 792.263671875 173.4368896484375 L 809.4042358398438 173.85203552246094 L 827.2308959960938 174.2115478515625 L 845.7808227539062 174.512451171875 L 865.0910034179688 174.751708984375 L 885.1985473632812 174.92633056640625 L 906.1405639648438 175.03330993652344 L 927.9541015625 175.06964111328125 L 927.9541015625 175.06964111328125 L 927.9541015625 144.5689239501953 L 927.9541015625 144.5689239501953 L 906.1405639648438 144.5325927734375 L 885.1985473632812 144.4256134033203 L 865.0910034179688 144.25099182128906 L 845.7808227539062 144.01173400878906 L 827.2308959960938 143.71083068847656 L 809.4042358398438 143.351318359375 L 792.263671875 142.93617248535156 L 775.7721557617188 142.46841430664062 L 759.892578125 141.95106506347656 L 744.5878295898438 141.38710021972656 L 729.8208618164062 140.779541015625 L 715.5545654296875 140.13140869140625 L 701.7518920898438 139.4456787109375 L 688.3756713867188 138.7253875732422 L 675.388916015625 137.97352600097656 L 662.7544555664062 137.19309997558594 L 650.435302734375 136.3871307373047 L 638.3942260742188 135.55859375 L 626.59423828125 134.7105255126953 L 614.998291015625 133.84591674804688 L 603.5691528320312 132.96778869628906 L 592.2698974609375 132.07913208007812 L 581.0632934570312 131.18295288085938 L 569.912353515625 130.2822723388672 L 558.7799682617188 129.38009643554688 L 547.6290283203125 128.47940826416016 L 536.4224243164062 127.58323669433594 L 525.1231079101562 126.694580078125 L 513.6940307617188 125.81644439697266 L 502.0980529785156 124.95184326171875 L 490.2980651855469 124.10377502441406 L 478.25701904296875 123.2752456665039 L 465.9378356933594 122.46926879882812 L 453.3033752441406 121.6888427734375 L 440.3166198730469 120.93698120117188 L 426.9404296875 120.21668243408203 L 413.1377258300781 119.53096008300781 L 398.8714294433594 118.88282012939453 L 384.1044921875 118.2752685546875 L 368.79974365234375 117.71131134033203 L 352.920166015625 117.1939468383789 L 336.4286193847656 116.7261962890625 L 319.2880554199219 116.3110580444336 L 301.4613952636719 115.9515380859375 L 282.9114990234375 115.65064239501953 L 263.601318359375 115.411376953125 L 243.4937744140625 115.23674774169922 L 222.5517578125 115.12976837158203 L 200.73818969726562 115.09344482421875 Z" fill-opacity="0.6" clip-path="url(#hlOsAshSkrdB)" stroke-opacity="1" stroke-linejoin="bevel" stroke-miterlimit="10" stroke-width="0.8" stroke-dasharray=""/><path fill="rgb(247,182,210)" stroke="rgb(247,182,210)" paint-order="fill" d="M 200.73818969726562 414.97442626953125 L 200.73818969726562 506.4765930175781 L 200.73818969726562 506.4765930175781 L 222.5517578125 506.48162841796875 L 243.4937744140625 506.49652099609375 L 263.601318359375 506.52081298828125 L 282.9114990234375 506.5541076660156 L 301.4613952636719 506.5959777832031 L 319.2880554199219 506.64599609375 L 336.4286193847656 506.7037353515625 L 352.920166015625 506.7688293457031 L 368.79974365234375 506.8408203125 L 384.1044921875 506.9192810058594 L 398.8714294433594 507.0038146972656 L 413.1377258300781 507.0939636230469 L 426.9404296875 507.18939208984375 L 440.3166198730469 507.28961181640625 L 453.3033752441406 507.3941955566406 L 465.9378356933594 507.5027770996094 L 478.25701904296875 507.61492919921875 L 490.2980651855469 507.7301940917969 L 502.0980529785156 507.8481750488281 L 513.6940307617188 507.9684753417969 L 525.1231079101562 508.0906677246094 L 536.4224243164062 508.21429443359375 L 547.6290283203125 508.3389892578125 L 558.7799682617188 508.46429443359375 L 569.912353515625 508.5898132324219 L 581.0632934570312 508.7151184082031 L 592.2698974609375 508.8398132324219 L 603.5691528320312 508.96343994140625 L 614.998291015625 509.08563232421875 L 626.59423828125 509.2059326171875 L 638.3942260742188 509.32391357421875 L 650.435302734375 509.4391784667969 L 662.7544555664062 509.55133056640625 L 675.388916015625 509.659912109375 L 688.3756713867188 509.7644958496094 L 701.7518920898438 509.8647155761719 L 715.5545654296875 509.9601135253906 L 729.8208618164062 510.05029296875 L 744.5878295898438 510.13482666015625 L 759.892578125 510.2132873535156 L 775.7721557617188 510.2852783203125 L 792.263671875 510.350341796875 L 809.4042358398438 510.4081115722656 L 827.2308959960938 510.4581298828125 L 845.7808227539062 510.5 L 865.0910034179688 510.5332946777344 L 885.1985473632812 510.5575866699219 L 906.1405639648438 510.5724792480469 L 927.9541015625 510.5775146484375 L 927.9541015625 510.5775146484375 L 927.9541015625 419.07537841796875 L 927.9541015625 419.07537841796875 L 906.1405639648438 419.0703125 L 885.1985473632812 419.055419921875 L 865.0910034179688 419.0311279296875 L 845.7808227539062 418.99786376953125 L 827.2308959960938 418.95599365234375 L 809.4042358398438 418.9059753417969 L 792.263671875 418.84820556640625 L 775.7721557617188 418.78314208984375 L 759.892578125 418.7111511230469 L 744.5878295898438 418.6326904296875 L 729.8208618164062 418.54815673828125 L 715.5545654296875 418.4579772949219 L 701.7518920898438 418.3625793457031 L 688.3756713867188 418.2623596191406 L 675.388916015625 418.1577453613281 L 662.7544555664062 418.0491638183594 L 650.435302734375 417.9370422363281 L 638.3942260742188 417.8217468261719 L 626.59423828125 417.7037658691406 L 614.998291015625 417.5834655761719 L 603.5691528320312 417.4613037109375 L 592.2698974609375 417.337646484375 L 581.0632934570312 417.2129821777344 L 569.912353515625 417.0876770019531 L 558.7799682617188 416.9621276855469 L 547.6290283203125 416.8368225097656 L 536.4224243164062 416.712158203125 L 525.1231079101562 416.5885009765625 L 513.6940307617188 416.4663391113281 L 502.0980529785156 416.3460388183594 L 490.2980651855469 416.2280578613281 L 478.25701904296875 416.1127624511719 L 465.9378356933594 416.0006408691406 L 453.3033752441406 415.8920593261719 L 440.3166198730469 415.7874450683594 L 426.9404296875 415.6872253417969 L 413.1377258300781 415.5918273925781 L 398.8714294433594 415.50164794921875 L 384.1044921875 415.4171142578125 L 368.79974365234375 415.3386535644531 L 352.920166015625 415.2666931152344 L 336.4286193847656 415.20159912109375 L 319.2880554199219 415.1438293457031 L 301.4613952636719 415.09381103515625 L 282.9114990234375 415.0519714355469 L 263.601318359375 415.0186767578125 L 243.4937744140625 414.994384765625 L 222.5517578125 414.9794921875 L 200.73818969726562 414.97442626953125 Z" fill-opacity="0.6" clip-path="url(#hlOsAshSkrdB)" stroke-opacity="1" stroke-linejoin="bevel" stroke-miterlimit="10" stroke-width="0.8" stroke-dasharray=""/><path fill="rgb(247,182,210)" stroke="rgb(247,182,210)" paint-order="fill" d="M 200.73818969726562 80.36363983154297 L 200.73818969726562 110.86434936523438 L 200.73818969726562 110.86434936523438 L 222.5517578125 110.90589141845703 L 243.4937744140625 111.0282211303711 L 263.601318359375 111.22789764404297 L 282.9114990234375 111.50149536132812 L 301.4613952636719 111.8455581665039 L 319.2880554199219 112.25666809082031 L 336.4286193847656 112.73136901855469 L 352.920166015625 113.2662353515625 L 368.79974365234375 113.85782623291016 L 384.1044921875 114.50270080566406 L 398.8714294433594 115.19742584228516 L 413.1377258300781 115.93856048583984 L 426.9404296875 116.72266387939453 L 440.3166198730469 117.54631042480469 L 453.3033752441406 118.40604400634766 L 465.9378356933594 119.29844665527344 L 478.25701904296875 120.22006225585938 L 490.2980651855469 121.16746520996094 L 502.0980529785156 122.13721466064453 L 513.6940307617188 123.1258773803711 L 525.1231079101562 124.12999725341797 L 536.4224243164062 125.14616394042969 L 547.6290283203125 126.17091369628906 L 558.7799682617188 127.20082092285156 L 569.912353515625 128.23245239257812 L 581.0632934570312 129.26235961914062 L 592.2698974609375 130.28712463378906 L 603.5691528320312 131.30328369140625 L 614.998291015625 132.30740356445312 L 626.59423828125 133.2960662841797 L 638.3942260742188 134.26580810546875 L 650.435302734375 135.2132110595703 L 662.7544555664062 136.13482666015625 L 675.388916015625 137.02723693847656 L 688.3756713867188 137.886962890625 L 701.7518920898438 138.7106170654297 L 715.5545654296875 139.49472045898438 L 729.8208618164062 140.23585510253906 L 744.5878295898438 140.93057250976562 L 759.892578125 141.57545471191406 L 775.7721557617188 142.1670379638672 L 792.263671875 142.701904296875 L 809.4042358398438 143.17660522460938 L 827.2308959960938 143.5877227783203 L 845.7808227539062 143.93177795410156 L 865.0910034179688 144.20538330078125 L 885.1985473632812 144.40505981445312 L 906.1405639648438 144.5273895263672 L 927.9541015625 144.5689239501953 L 927.9541015625 144.5689239501953 L 927.9541015625 114.06820678710938 L 927.9541015625 114.06820678710938 L 906.1405639648438 114.02667236328125 L 885.1985473632812 113.90434265136719 L 865.0910034179688 113.70465850830078 L 845.7808227539062 113.43106842041016 L 827.2308959960938 113.08699798583984 L 809.4042358398438 112.67589569091797 L 792.263671875 112.2011947631836 L 775.7721557617188 111.66632843017578 L 759.892578125 111.07473754882812 L 744.5878295898438 110.42986297607422 L 729.8208618164062 109.73513793945312 L 715.5545654296875 108.99400329589844 L 701.7518920898438 108.20989227294922 L 688.3756713867188 107.3862533569336 L 675.388916015625 106.5265121459961 L 662.7544555664062 105.63411712646484 L 650.435302734375 104.71249389648438 L 638.3942260742188 103.76509094238281 L 626.59423828125 102.79534149169922 L 614.998291015625 101.80668640136719 L 603.5691528320312 100.80255889892578 L 592.2698974609375 99.7863998413086 L 581.0632934570312 98.76165008544922 L 569.912353515625 97.73173522949219 L 558.7799682617188 96.70011138916016 L 547.6290283203125 95.67019653320312 L 536.4224243164062 94.64544677734375 L 525.1231079101562 93.62928771972656 L 513.6940307617188 92.62516021728516 L 502.0980529785156 91.6364974975586 L 490.2980651855469 90.66675567626953 L 478.25701904296875 89.71935272216797 L 465.9378356933594 88.7977294921875 L 453.3033752441406 87.90533447265625 L 440.3166198730469 87.04559326171875 L 426.9404296875 86.22195434570312 L 413.1377258300781 85.4378433227539 L 398.8714294433594 84.69670867919922 L 384.1044921875 84.00198364257812 L 368.79974365234375 83.35710906982422 L 352.920166015625 82.76551818847656 L 336.4286193847656 82.23065185546875 L 319.2880554199219 81.75595092773438 L 301.4613952636719 81.34484100341797 L 282.9114990234375 81.00077819824219 L 263.601318359375 80.72718811035156 L 243.4937744140625 80.52750396728516 L 222.5517578125 80.4051742553711 L 200.73818969726562 80.36363983154297 Z" fill-opacity="0.6" clip-path="url(#hlOsAshSkrdB)" stroke-opacity="1" stroke-linejoin="bevel" stroke-miterlimit="10" stroke-width="0.8" stroke-dasharray=""/><path fill="rgb(31,119,180)" stroke="rgb(0,0,0)" paint-order="fill" d="M 189.49258422851562 349.7439270019531 L 200.73818969726562 349.7439270019531 L 200.73818969726562 410.7453308105469 L 189.49258422851562 410.7453308105469 L 189.49258422851562 349.7439270019531" fill-opacity="0.9019607843137255" clip-path="url(#WRDCQgnOqXml)" stroke-opacity="0.2" stroke-linejoin="bevel" stroke-miterlimit="10" stroke-width="0.5" stroke-dasharray=""/><path fill="rgb(174,199,232)" stroke="rgb(0,0,0)" paint-order="fill" d="M 189.49258422851562 284.5133972167969 L 200.73818969726562 284.5133972167969 L 200.73818969726562 345.51483154296875 L 189.49258422851562 345.51483154296875 L 189.49258422851562 284.5133972167969" fill-opacity="0.9019607843137255" clip-path="url(#WRDCQgnOqXml)" stroke-opacity="0.2" stroke-linejoin="bevel" stroke-miterlimit="10" stroke-width="0.5" stroke-dasharray=""/><path fill="rgb(255,127,14)" stroke="rgb(0,0,0)" paint-order="fill" d="M 189.49258422851562 219.28286743164062 L 200.73818969726562 219.28286743164062 L 200.73818969726562 280.2843017578125 L 189.49258422851562 280.2843017578125 L 189.49258422851562 219.28286743164062" fill-opacity="0.9019607843137255" clip-path="url(#WRDCQgnOqXml)" stroke-opacity="0.2" stroke-linejoin="bevel" stroke-miterlimit="10" stroke-width="0.5" stroke-dasharray=""/><path fill="rgb(255,187,120)" stroke="rgb(0,0,0)" paint-order="fill" d="M 189.49258422851562 184.5530548095703 L 200.73818969726562 184.5530548095703 L 200.73818969726562 215.05377197265625 L 189.49258422851562 215.05377197265625 L 189.49258422851562 184.5530548095703" fill-opacity="0.9019607843137255" clip-path="url(#WRDCQgnOqXml)" stroke-opacity="0.2" stroke-linejoin="bevel" stroke-miterlimit="10" stroke-width="0.5" stroke-dasharray=""/><path fill="rgb(44,160,44)" stroke="rgb(0,0,0)" paint-order="fill" d="M 189.49258422851562 606.4368896484375 L 200.73818969726562 606.4368896484375 L 200.73818969726562 697.9390869140625 L 189.49258422851562 697.9390869140625 L 189.49258422851562 606.4368896484375" fill-opacity="0.9019607843137255" clip-path="url(#WRDCQgnOqXml)" stroke-opacity="0.2" stroke-linejoin="bevel" stroke-miterlimit="10" stroke-width="0.5" stroke-dasharray=""/><path fill="rgb(152,223,138)" stroke="rgb(0,0,0)" paint-order="fill" d="M 189.49258422851562 510.7056884765625 L 200.73818969726562 510.7056884765625 L 200.73818969726562 602.2078247070312 L 189.49258422851562 602.2078247070312 L 189.49258422851562 510.7056884765625" fill-opacity="0.9019607843137255" clip-path="url(#WRDCQgnOqXml)" stroke-opacity="0.2" stroke-linejoin="bevel" stroke-miterlimit="10" stroke-width="0.5" stroke-dasharray=""/><path fill="rgb(214,39,40)" stroke="rgb(0,0,0)" paint-order="fill" d="M 189.49258422851562 702.1681518554688 L 200.73818969726562 702.1681518554688 L 200.73818969726562 824.1710205078125 L 189.49258422851562 824.1710205078125 L 189.49258422851562 702.1681518554688" fill-opacity="0.9019607843137255" clip-path="url(#WRDCQgnOqXml)" stroke-opacity="0.2" stroke-linejoin="bevel" stroke-miterlimit="10" stroke-width="0.5" stroke-dasharray=""/><path fill="rgb(255,152,150)" stroke="rgb(0,0,0)" paint-order="fill" d="M 189.49258422851562 985.1328125 L 200.73818969726562 985.1328125 L 200.73818969726562 1137.6363525390625 L 189.49258422851562 1137.6363525390625 L 189.49258422851562 985.1328125" fill-opacity="0.9019607843137255" clip-path="url(#WRDCQgnOqXml)" stroke-opacity="0.2" stroke-linejoin="bevel" stroke-miterlimit="10" stroke-width="0.5" stroke-dasharray=""/><path fill="rgb(148,103,189)" stroke="rgb(0,0,0)" paint-order="fill" d="M 189.49258422851562 828.4000854492188 L 200.73818969726562 828.4000854492188 L 200.73818969726562 980.9036865234375 L 189.49258422851562 980.9036865234375 L 189.49258422851562 828.4000854492188" fill-opacity="0.9019607843137255" clip-path="url(#WRDCQgnOqXml)" stroke-opacity="0.2" stroke-linejoin="bevel" stroke-miterlimit="10" stroke-width="0.5" stroke-dasharray=""/><path fill="rgb(197,176,213)" stroke="rgb(0,0,0)" paint-order="fill" d="M 189.49258422851562 149.82325744628906 L 200.73818969726562 149.82325744628906 L 200.73818969726562 180.32395935058594 L 189.49258422851562 180.32395935058594 L 189.49258422851562 149.82325744628906" fill-opacity="0.9019607843137255" clip-path="url(#WRDCQgnOqXml)" stroke-opacity="0.2" stroke-linejoin="bevel" stroke-miterlimit="10" stroke-width="0.5" stroke-dasharray=""/><path fill="rgb(140,86,75)" stroke="rgb(0,0,0)" paint-order="fill" d="M 189.49258422851562 115.09344482421875 L 200.73818969726562 115.09344482421875 L 200.73818969726562 145.5941619873047 L 189.49258422851562 145.5941619873047 L 189.49258422851562 115.09344482421875" fill-opacity="0.9019607843137255" clip-path="url(#WRDCQgnOqXml)" stroke-opacity="0.2" stroke-linejoin="bevel" stroke-miterlimit="10" stroke-width="0.5" stroke-dasharray=""/><path fill="rgb(196,156,148)" stroke="rgb(0,0,0)" paint-order="fill" d="M 189.49258422851562 414.97442626953125 L 200.73818969726562 414.97442626953125 L 200.73818969726562 506.4765930175781 L 189.49258422851562 506.4765930175781 L 189.49258422851562 414.97442626953125" fill-opacity="0.9019607843137255" clip-path="url(#WRDCQgnOqXml)" stroke-opacity="0.2" stroke-linejoin="bevel" stroke-miterlimit="10" stroke-width="0.5" stroke-dasharray=""/><path fill="rgb(227,119,194)" stroke="rgb(0,0,0)" paint-order="fill" d="M 189.49258422851562 80.36363983154297 L 200.73818969726562 80.36363983154297 L 200.73818969726562 110.86434936523438 L 189.49258422851562 110.86434936523438 L 189.49258422851562 80.36363983154297" fill-opacity="0.9019607843137255" clip-path="url(#WRDCQgnOqXml)" stroke-opacity="0.2" stroke-linejoin="bevel" stroke-miterlimit="10" stroke-width="0.5" stroke-dasharray=""/><path fill="rgb(247,182,210)" stroke="rgb(0,0,0)" paint-order="fill" d="M 927.9541015625 114.06820678710938 L 939.19970703125 114.06820678710938 L 939.19970703125 1120.591796875 L 927.9541015625 1120.591796875 L 927.9541015625 114.06820678710938" fill-opacity="0.9019607843137255" clip-path="url(#WRDCQgnOqXml)" stroke-opacity="0.2" stroke-linejoin="bevel" stroke-miterlimit="10" stroke-width="0.5" stroke-dasharray=""/><g clip-path="url(#bAwwCZfwUiVQ)"><text fill="rgb(0,0,0)" stroke="none" font-family="helvetica" font-size="8pt" font-style="normal" font-weight="normal" text-decoration="normal" x="0" y="0" text-anchor="end" dominant-baseline="central" transform="matrix(1, 0, 0, 1, 186.68118286132812, 380.24462890625)" fill-opacity="1">1999 - 2</text></g><g clip-path="url(#bAwwCZfwUiVQ)"><text fill="rgb(0,0,0)" stroke="none" font-family="helvetica" font-size="8pt" font-style="normal" font-weight="normal" text-decoration="normal" x="0" y="0" text-anchor="end" dominant-baseline="central" transform="matrix(1, 0, 0, 1, 186.68118286132812, 315.01409912109375)" fill-opacity="1">2000 - 2</text></g><g clip-path="url(#bAwwCZfwUiVQ)"><text fill="rgb(0,0,0)" stroke="none" font-family="helvetica" font-size="8pt" font-style="normal" font-weight="normal" text-decoration="normal" x="0" y="0" text-anchor="end" dominant-baseline="central" transform="matrix(1, 0, 0, 1, 186.68118286132812, 249.78358459472656)" fill-opacity="1">2001 - 2</text></g><g clip-path="url(#bAwwCZfwUiVQ)"><text fill="rgb(0,0,0)" stroke="none" font-family="helvetica" font-size="8pt" font-style="normal" font-weight="normal" text-decoration="normal" x="0" y="0" text-anchor="end" dominant-baseline="central" transform="matrix(1, 0, 0, 1, 186.68118286132812, 199.8034210205078)" fill-opacity="1">2002 - 1</text></g><g clip-path="url(#bAwwCZfwUiVQ)"><text fill="rgb(0,0,0)" stroke="none" font-family="helvetica" font-size="8pt" font-style="normal" font-weight="normal" text-decoration="normal" x="0" y="0" text-anchor="end" dominant-baseline="central" transform="matrix(1, 0, 0, 1, 186.68118286132812, 652.18798828125)" fill-opacity="1">2003 - 3</text></g><g clip-path="url(#bAwwCZfwUiVQ)"><text fill="rgb(0,0,0)" stroke="none" font-family="helvetica" font-size="8pt" font-style="normal" font-weight="normal" text-decoration="normal" x="0" y="0" text-anchor="end" dominant-baseline="central" transform="matrix(1, 0, 0, 1, 186.68118286132812, 556.4567260742188)" fill-opacity="1">2004 - 3</text></g><g clip-path="url(#bAwwCZfwUiVQ)"><text fill="rgb(0,0,0)" stroke="none" font-family="helvetica" font-size="8pt" font-style="normal" font-weight="normal" text-decoration="normal" x="0" y="0" text-anchor="end" dominant-baseline="central" transform="matrix(1, 0, 0, 1, 186.68118286132812, 763.1696166992188)" fill-opacity="1">2005 - 4</text></g><g clip-path="url(#bAwwCZfwUiVQ)"><text fill="rgb(0,0,0)" stroke="none" font-family="helvetica" font-size="8pt" font-style="normal" font-weight="normal" text-decoration="normal" x="0" y="0" text-anchor="end" dominant-baseline="central" transform="matrix(1, 0, 0, 1, 186.68118286132812, 1061.384521484375)" fill-opacity="1">2006 - 5</text></g><g clip-path="url(#bAwwCZfwUiVQ)"><text fill="rgb(0,0,0)" stroke="none" font-family="helvetica" font-size="8pt" font-style="normal" font-weight="normal" text-decoration="normal" x="0" y="0" text-anchor="end" dominant-baseline="central" transform="matrix(1, 0, 0, 1, 186.68118286132812, 904.6519165039062)" fill-opacity="1">2008 - 5</text></g><g clip-path="url(#bAwwCZfwUiVQ)"><text fill="rgb(0,0,0)" stroke="none" font-family="helvetica" font-size="8pt" font-style="normal" font-weight="normal" text-decoration="normal" x="0" y="0" text-anchor="end" dominant-baseline="central" transform="matrix(1, 0, 0, 1, 186.68118286132812, 165.0736083984375)" fill-opacity="1">2009 - 1</text></g><g clip-path="url(#bAwwCZfwUiVQ)"><text fill="rgb(0,0,0)" stroke="none" font-family="helvetica" font-size="8pt" font-style="normal" font-weight="normal" text-decoration="normal" x="0" y="0" text-anchor="end" dominant-baseline="central" transform="matrix(1, 0, 0, 1, 186.68118286132812, 130.3437957763672)" fill-opacity="1">2011 - 1</text></g><g clip-path="url(#bAwwCZfwUiVQ)"><text fill="rgb(0,0,0)" stroke="none" font-family="helvetica" font-size="8pt" font-style="normal" font-weight="normal" text-decoration="normal" x="0" y="0" text-anchor="end" dominant-baseline="central" transform="matrix(1, 0, 0, 1, 186.68118286132812, 460.7254943847656)" fill-opacity="1">2012 - 3</text></g><g clip-path="url(#bAwwCZfwUiVQ)"><text fill="rgb(0,0,0)" stroke="none" font-family="helvetica" font-size="8pt" font-style="normal" font-weight="normal" text-decoration="normal" x="0" y="0" text-anchor="end" dominant-baseline="central" transform="matrix(1, 0, 0, 1, 186.68118286132812, 95.6139907836914)" fill-opacity="1">2014 - 1</text></g><g clip-path="url(#bAwwCZfwUiVQ)"><text fill="rgb(0,0,0)" stroke="none" font-family="helvetica" font-size="8pt" font-style="normal" font-weight="normal" text-decoration="normal" x="0" y="0" text-anchor="end" dominant-baseline="central" transform="matrix(1, 0, 0, 1, 925.1427001953125, 617.3300170898438)" fill-opacity="1">Zenit-3 SL - 33</text></g><text fill="rgb(68,68,68)" stroke="none" font-family="helvetica" font-size="13px" font-style="normal" font-weight="bold" text-decoration="normal" x="10" y="19.1689453125" text-anchor="start" dominant-baseline="alphabetic" transform="matrix(1, 0, 0, 1, 0.5, 0.5)" fill-opacity="1">Sea Launch Rocket Successes</text></svg>