<svg version="1.1" xmlns="http://www.w3.org/2000/svg" width="1000" height="1200"><defs><clipPath id="UTKtSrDLmDTk"><path fill="none" stroke="none" d="M 10.5 27.5 L 970.5 27.5 L 970.5 1190.5 L 10.5 1190.5 L 10.5 27.5"/></clipPath><clipPath id="mrdhbNtpXLOu"><path fill="none" stroke="none" d="M 10.5 27.5 L 970.5 27.5 L 970.5 1190.5 L 10.5 1190.5 L 10.5 27.5"/></clipPath><clipPath id="klmcRHkqAAJP"><path fill="none" stroke="none" d="M 10.5 27.5 L 970.5 27.5 L 970.5 1190.5 L 10.5 1190.5 L 10.5 27.5"/></clipPath><clipPath id="IwuzSXZgqocr"><path fill="none" stroke="none" d="M 10.5 27.5 L 970.5 27.5 L 970.5 1190.5 L 10.5 1190.5 L 10.5 27.5"/></clipPath><clipPath id="JBTNJMxTFAaF"><path fill="none" stroke="none" d="M 10.5 27.5 L 970.5 27.5 L 970.5 1190.5 L 10.5 1190.5 L 10.5 27.5"/></clipPath><clipPath id="fobPUkRvCLEa"><path fill="none" stroke="none" d="M 10.5 27.5 L 970.5 27.5 L 970.5 1190.5 L 10.5 1190.5 L 10.5 27.5"/></clipPath></defs><path fill="rgb(255,255,255)" stroke="none" paint-order="stroke" d="M 0.5 0.5 L 1000.5 0.5 L 1000.5 1200.5 L 0.5 1200.5 L 0.5 0.5" fill-opacity="1"/><rect fill="#FFFFFF" stroke="none" x="10" y="27" width="960" height="1163" transform="matrix(1, 0, 0, 1, 0.5, 0.5)"/><path fill="rgb(255,250,250)" stroke="none" paint-order="stroke" d="M 10.5 27.5 L 970.5 27.5 L 970.5 1190.5 L 10.5 1190.5 L 10.5 27.5" fill-opacity="1"/><path fill="rgb(174,199,232)" stroke="rgb(174,199,232)" paint-order="fill" d="M 200.73818969726562 80.36363983154297 L 200.73818969726562 1137.6363525390625 L 200.73818969726562 1137.6363525390625 L 222.5517578125 1137.6363525390625 L 243.4937744140625 1137.6363525390625 L 263.601318359375 1137.6363525390625 L 282.9114990234375 1137.6363525390625 L 301.4613952636719 1137.6363525390625 L 319.2880554199219 1137.6363525390625 L 336.4286193847656 1137.6363525390625 L 352.920166015625 1137.6363525390625 L 368.79974365234375 1137.6363525390625 L 384.1044921875 1137.6363525390625 L 398.8714294433594 1137.6363525390625 L 413.1377258300781 1137.6363525390625 L 426.9404296875 1137.6363525390625 L 440.3166198730469 1137.6363525390625 L 453.3033752441406 1137.6363525390625 L 465.9378356933594 1137.6363525390625 L 478.25701904296875 1137.6363525390625 L 490.2980651855469 1137.6363525390625 L 502.0980529785156 1137.6363525390625 L 513.6940307617188 1137.6363525390625 L 525.1231079101562 1137.6363525390625 L 536.4224243164062 1137.6363525390625 L 547.6290283203125 1137.6363525390625 L 558.7799682617188 1137.6363525390625 L 569.912353515625 1137.6363525390625 L 581.0632934570312 1137.6363525390625 L 592.2698974609375 1137.6363525390625 L 603.5691528320312 1137.6363525390625 L 614.998291015625 1137.6363525390625 L 626.59423828125 1137.6363525390625 L 638.3942260742188 1137.6363525390625 L 650.435302734375 1137.6363525390625 L 662.7544555664062 1137.6363525390625 L 675.388916015625 1137.6363525390625 L 688.3756713867188 1137.6363525390625 L 701.7518920898438 1137.6363525390625 L 715.5545654296875 1137.6363525390625 L 729.8208618164062 1137.6363525390625 L 744.5878295898438 1137.6363525390625 L 759.892578125 1137.6363525390625 L 775.7721557617188 1137.6363525390625 L 792.263671875 1137.6363525390625 L 809.4042358398438 1137.6363525390625 L 827.2308959960938 1137.6363525390625 L 845.7808227539062 1137.6363525390625 L 865.0910034179688 1137.6363525390625 L 885.1985473632812 1137.6363525390625 L 906.1405639648438 1137.6363525390625 L 927.9541015625 1137.6363525390625 L 927.9541015625 1137.6363525390625 L 927.9541015625 80.36363983154297 L 927.9541015625 80.36363983154297 L 906.1405639648438 80.36363983154297 L 885.1985473632812 80.36363983154297 L 865.0910034179688 80.36363983154297 L 845.7808227539062 80.36363983154297 L 827.2308959960938 80.36363983154297 L 809.4042358398438 80.36363983154297 L 792.263671875 80.36363983154297 L 775.7721557617188 80.36363983154297 L 759.892578125 80.36363983154297 L 744.5878295898438 80.36363983154297 L 729.8208618164062 80.36363983154297 L 715.5545654296875 80.36363983154297 L 701.7518920898438 80.36363983154297 L 688.3756713867188 80.36363983154297 L 675.388916015625 80.36363983154297 L 662.7544555664062 80.36363983154297 L 650.435302734375 80.36363983154297 L 638.3942260742188 80.36363983154297 L 626.59423828125 80.36363983154297 L 614.998291015625 80.36363983154297 L 603.5691528320312 80.36363983154297 L 592.2698974609375 80.36363983154297 L 581.0632934570312 80.36363983154297 L 569.912353515625 80.36363983154297 L 558.7799682617188 80.36363983154297 L 547.6290283203125 80.36363983154297 L 536.4224243164062 80.36363983154297 L 525.1231079101562 80.36363983154297 L 513.6940307617188 80.36363983154297 L 502.0980529785156 80.36363983154297 L 490.2980651855469 80.36363983154297 L 478.25701904296875 80.36363983154297 L 465.9378356933594 80.36363983154297 L 453.3033752441406 80.36363983154297 L 440.3166198730469 80.36363983154297 L 426.9404296875 80.36363983154297 L 413.1377258300781 80.36363983154297 L 398.8714294433594 80.36363983154297 L 384.1044921875 80.36363983154297 L 368.79974365234375 80.36363983154297 L 352.920166015625 80.36363983154297 L 336.4286193847656 80.36363983154297 L 319.2880554199219 80.36363983154297 L 301.4613952636719 80.36363983154297 L 282.9114990234375 80.36363983154297 L 263.601318359375 80.36363983154297 L 243.4937744140625 80.36363983154297 L 222.5517578125 80.36363983154297 L 200.73818969726562 80.36363983154297 Z" fill-opacity="0.6" clip-path="url(#klmcRHkqAAJP)" stroke-opacity="1" stroke-linejoin="bevel" stroke-miterlimit="10" stroke-width="0.8" stroke-dasharray=""/><path fill="rgb(31,119,180)" stroke="rgb(0,0,0)" paint-order="fill" d="M 189.49258422851562 80.36363983154297 L 200.73818969726562 80.36363983154297 L 200.73818969726562 1137.6363525390625 L 189.49258422851562 1137.6363525390625 L 189.49258422851562 80.36363983154297" fill-opacity="0.9019607843137255" clip-path="url(#IwuzSXZgqocr)" stroke-opacity="0.2" stroke-linejoin="bevel" stroke-miterlimit="10" stroke-width="0.5" stroke-dasharray=""/><path fill="rgb(174,199,232)" stroke="rgb(0,0,0)" paint-order="fill" d="M 927.9541015625 80.36363983154297 L 939.19970703125 80.36363983154297 L 939.19970703125 1137.6363525390625 L 927.9541015625 1137.6363525390625 L 927.9541015625 80.36363983154297" fill-opacity="0.9019607843137255" clip-path="url(#IwuzSXZgqocr)" stroke-opacity="0.2" stroke-linejoin="bevel" stroke-miterlimit="10" stroke-width="0.5" stroke-dasharray=""/><g clip-path="url(#JBTNJMxTFAaF)"><text fill="rgb(0,0,0)" stroke="none" font-family="helvetica" font-size="8pt" font-style="normal" font-weight="normal" text-decoration="normal" x="0" y="0" text-anchor="end" dominant-baseline="central" transform="matrix(1, 0, 0, 1, 186.68118286132812, 609)" fill-opacity="1">ExPace - 12</text></g><g clip-path="url(#JBTNJMxTFAaF)"><text fill="rgb(0,0,0)" stroke="none" font-family="helvetica" font-size="8pt" font-style="normal" font-weight="normal" text-decoration="normal" x="0" y="0" text-anchor="end" dominant-baseline="central" transform="matrix(1, 0, 0, 1, 925.1427001953125, 609)" fill-opacity="1">Kuaizhou 1A - 12</text></g><text fill="rgb(68,68,68)" stroke="none" font-family="helvetica" font-size="13px" font-style="normal" font-weight="bold" text-decoration="normal" x="10" y="19.1689453125" text-anchor="start" dominant-baseline="alphabetic" transform="matrix(1, 0, 0, 1, 0.5, 0.5)" fill-opacity="1">ExPace Rocket Successes</text></svg>