<svg version="1.1" xmlns="http://www.w3.org/2000/svg" width="1000" height="1200"><defs><clipPath id="sGpWTGhOTFdO"><path fill="none" stroke="none" d="M 10.5 27.5 L 970.5 27.5 L 970.5 1190.5 L 10.5 1190.5 L 10.5 27.5"/></clipPath><clipPath id="NfEgzeZzEQpA"><path fill="none" stroke="none" d="M 10.5 27.5 L 970.5 27.5 L 970.5 1190.5 L 10.5 1190.5 L 10.5 27.5"/></clipPath><clipPath id="HTXGUAlugcBC"><path fill="none" stroke="none" d="M 10.5 27.5 L 970.5 27.5 L 970.5 1190.5 L 10.5 1190.5 L 10.5 27.5"/></clipPath><clipPath id="avIoZTbWhxAC"><path fill="none" stroke="none" d="M 10.5 27.5 L 970.5 27.5 L 970.5 1190.5 L 10.5 1190.5 L 10.5 27.5"/></clipPath><clipPath id="yltwirBccTVz"><path fill="none" stroke="none" d="M 10.5 27.5 L 970.5 27.5 L 970.5 1190.5 L 10.5 1190.5 L 10.5 27.5"/></clipPath><clipPath id="LIxoQsaroKQU"><path fill="none" stroke="none" d="M 10.5 27.5 L 970.5 27.5 L 970.5 1190.5 L 10.5 1190.5 L 10.5 27.5"/></clipPath></defs><path fill="rgb(255,255,255)" stroke="none" paint-order="stroke" d="M 0.5 0.5 L 1000.5 0.5 L 1000.5 1200.5 L 0.5 1200.5 L 0.5 0.5" fill-opacity="1"/><rect fill="#FFFFFF" stroke="none" x="10" y="27" width="960" height="1163" transform="matrix(1, 0, 0, 1, 0.5, 0.5)"/><path fill="rgb(255,250,250)" stroke="none" paint-order="stroke" d="M 10.5 27.5 L 970.5 27.5 L 970.5 1190.5 L 10.5 1190.5 L 10.5 27.5" fill-opacity="1"/><path fill="rgb(174,199,232)" stroke="rgb(174,199,232)" paint-order="fill" d="M 200.73818969726562 654.4862060546875 L 200.73818969726562 1130.117919921875 L 200.73818969726562 1130.117919921875 L 222.5517578125 1130.127197265625 L 243.4937744140625 1130.154541015625 L 263.601318359375 1130.1990966796875 L 282.9114990234375 1130.2601318359375 L 301.4613952636719 1130.3369140625 L 319.2880554199219 1130.4285888671875 L 336.4286193847656 1130.534423828125 L 352.920166015625 1130.65380859375 L 368.79974365234375 1130.7857666015625 L 384.1044921875 1130.9295654296875 L 398.8714294433594 1131.0845947265625 L 413.1377258300781 1131.2498779296875 L 426.9404296875 1131.4248046875 L 440.3166198730469 1131.6085205078125 L 453.3033752441406 1131.80029296875 L 465.9378356933594 1131.9993896484375 L 478.25701904296875 1132.2049560546875 L 490.2980651855469 1132.416259765625 L 502.0980529785156 1132.632568359375 L 513.6940307617188 1132.8531494140625 L 525.1231079101562 1133.0771484375 L 536.4224243164062 1133.3038330078125 L 547.6290283203125 1133.5323486328125 L 558.7799682617188 1133.7620849609375 L 569.912353515625 1133.9921875 L 581.0632934570312 1134.221923828125 L 592.2698974609375 1134.4505615234375 L 603.5691528320312 1134.67724609375 L 614.998291015625 1134.9012451171875 L 626.59423828125 1135.1217041015625 L 638.3942260742188 1135.338134765625 L 650.435302734375 1135.5494384765625 L 662.7544555664062 1135.7550048828125 L 675.388916015625 1135.9541015625 L 688.3756713867188 1136.1458740234375 L 701.7518920898438 1136.32958984375 L 715.5545654296875 1136.5045166015625 L 729.8208618164062 1136.6697998046875 L 744.5878295898438 1136.82470703125 L 759.892578125 1136.9686279296875 L 775.7721557617188 1137.1005859375 L 792.263671875 1137.2198486328125 L 809.4042358398438 1137.3258056640625 L 827.2308959960938 1137.41748046875 L 845.7808227539062 1137.4942626953125 L 865.0910034179688 1137.5552978515625 L 885.1985473632812 1137.599853515625 L 906.1405639648438 1137.6270751953125 L 927.9541015625 1137.6363525390625 L 927.9541015625 1137.6363525390625 L 927.9541015625 662.0045776367188 L 927.9541015625 662.0045776367188 L 906.1405639648438 661.995361328125 L 885.1985473632812 661.9680786132812 L 865.0910034179688 661.9235229492188 L 845.7808227539062 661.8624877929688 L 827.2308959960938 661.7857055664062 L 809.4042358398438 661.6940307617188 L 792.263671875 661.588134765625 L 775.7721557617188 661.4688110351562 L 759.892578125 661.3368530273438 L 744.5878295898438 661.1929931640625 L 729.8208618164062 661.0380249023438 L 715.5545654296875 660.8727416992188 L 701.7518920898438 660.6978149414062 L 688.3756713867188 660.5140991210938 L 675.388916015625 660.3223266601562 L 662.7544555664062 660.1232299804688 L 650.435302734375 659.9176635742188 L 638.3942260742188 659.706298828125 L 626.59423828125 659.489990234375 L 614.998291015625 659.2694702148438 L 603.5691528320312 659.0454711914062 L 592.2698974609375 658.8187866210938 L 581.0632934570312 658.5902099609375 L 569.912353515625 658.3604736328125 L 558.7799682617188 658.13037109375 L 547.6290283203125 657.900634765625 L 536.4224243164062 657.6719970703125 L 525.1231079101562 657.4453735351562 L 513.6940307617188 657.2213745117188 L 502.0980529785156 657.0008544921875 L 490.2980651855469 656.7844848632812 L 478.25701904296875 656.5731811523438 L 465.9378356933594 656.3676147460938 L 453.3033752441406 656.1685180664062 L 440.3166198730469 655.9767456054688 L 426.9404296875 655.7930297851562 L 413.1377258300781 655.6181030273438 L 398.8714294433594 655.4527587890625 L 384.1044921875 655.2977905273438 L 368.79974365234375 655.1539916992188 L 352.920166015625 655.0220336914062 L 336.4286193847656 654.9027099609375 L 319.2880554199219 654.7968139648438 L 301.4613952636719 654.705078125 L 282.9114990234375 654.6283569335938 L 263.601318359375 654.5673217773438 L 243.4937744140625 654.5227661132812 L 222.5517578125 654.4954833984375 L 200.73818969726562 654.4862060546875 Z" fill-opacity="0.6" clip-path="url(#HTXGUAlugcBC)" stroke-opacity="1" stroke-linejoin="bevel" stroke-miterlimit="10" stroke-width="0.8" stroke-dasharray=""/><path fill="rgb(255,127,14)" stroke="rgb(255,127,14)" paint-order="fill" d="M 200.73818969726562 495.9422912597656 L 200.73818969726562 654.4862060546875 L 200.73818969726562 654.4862060546875 L 222.5517578125 654.4902954101562 L 243.4937744140625 654.502197265625 L 263.601318359375 654.521728515625 L 282.9114990234375 654.5484008789062 L 301.4613952636719 654.5819702148438 L 319.2880554199219 654.6220703125 L 336.4286193847656 654.66845703125 L 352.920166015625 654.7206420898438 L 368.79974365234375 654.7783813476562 L 384.1044921875 654.84130859375 L 398.8714294433594 654.9091186523438 L 413.1377258300781 654.9814453125 L 426.9404296875 655.0579223632812 L 440.3166198730469 655.1383056640625 L 453.3033752441406 655.2222290039062 L 465.9378356933594 655.309326171875 L 478.25701904296875 655.3992919921875 L 490.2980651855469 655.49169921875 L 502.0980529785156 655.5863647460938 L 513.6940307617188 655.682861328125 L 525.1231079101562 655.7808227539062 L 536.4224243164062 655.8800048828125 L 547.6290283203125 655.9800415039062 L 558.7799682617188 656.0805053710938 L 569.912353515625 656.1812133789062 L 581.0632934570312 656.28173828125 L 592.2698974609375 656.3817138671875 L 603.5691528320312 656.4808959960938 L 614.998291015625 656.5789184570312 L 626.59423828125 656.6753540039062 L 638.3942260742188 656.77001953125 L 650.435302734375 656.8624877929688 L 662.7544555664062 656.952392578125 L 675.388916015625 657.0394897460938 L 688.3756713867188 657.1234130859375 L 701.7518920898438 657.2037963867188 L 715.5545654296875 657.2803344726562 L 729.8208618164062 657.3526611328125 L 744.5878295898438 657.4204711914062 L 759.892578125 657.4833984375 L 775.7721557617188 657.5411376953125 L 792.263671875 657.5933227539062 L 809.4042358398438 657.6396484375 L 827.2308959960938 657.6797485351562 L 845.7808227539062 657.7133178710938 L 865.0910034179688 657.7400512695312 L 885.1985473632812 657.759521484375 L 906.1405639648438 657.771484375 L 927.9541015625 657.7755126953125 L 927.9541015625 657.7755126953125 L 927.9541015625 499.2315979003906 L 927.9541015625 499.2315979003906 L 906.1405639648438 499.2275390625 L 885.1985473632812 499.2156066894531 L 865.0910034179688 499.19610595703125 L 845.7808227539062 499.1694030761719 L 827.2308959960938 499.1358337402344 L 809.4042358398438 499.095703125 L 792.263671875 499.04937744140625 L 775.7721557617188 498.9971923828125 L 759.892578125 498.939453125 L 744.5878295898438 498.87652587890625 L 729.8208618164062 498.8087158203125 L 715.5545654296875 498.73638916015625 L 701.7518920898438 498.6598815917969 L 688.3756713867188 498.5794982910156 L 675.388916015625 498.4955749511719 L 662.7544555664062 498.40850830078125 L 650.435302734375 498.31854248046875 L 638.3942260742188 498.2261047363281 L 626.59423828125 498.1314697265625 L 614.998291015625 498.03497314453125 L 603.5691528320312 497.9369812011719 L 592.2698974609375 497.8377990722656 L 581.0632934570312 497.73779296875 L 569.912353515625 497.6372985839844 L 558.7799682617188 497.53662109375 L 547.6290283203125 497.43609619140625 L 536.4224243164062 497.3360900878906 L 525.1231079101562 497.2369079589844 L 513.6940307617188 497.138916015625 L 502.0980529785156 497.0424499511719 L 490.2980651855469 496.94781494140625 L 478.25701904296875 496.8553466796875 L 465.9378356933594 496.7654113769531 L 453.3033752441406 496.6783142089844 L 440.3166198730469 496.59442138671875 L 426.9404296875 496.5140380859375 L 413.1377258300781 496.4375 L 398.8714294433594 496.36517333984375 L 384.1044921875 496.29736328125 L 368.79974365234375 496.23443603515625 L 352.920166015625 496.17669677734375 L 336.4286193847656 496.12451171875 L 319.2880554199219 496.07818603515625 L 301.4613952636719 496.0380554199219 L 282.9114990234375 496.0044860839844 L 263.601318359375 495.977783203125 L 243.4937744140625 495.9582824707031 L 222.5517578125 495.94635009765625 L 200.73818969726562 495.9422912597656 Z" fill-opacity="0.6" clip-path="url(#HTXGUAlugcBC)" stroke-opacity="1" stroke-linejoin="bevel" stroke-miterlimit="10" stroke-width="0.8" stroke-dasharray=""/><path fill="rgb(255,187,120)" stroke="rgb(255,187,120)" paint-order="fill" d="M 200.73818969726562 382.6966552734375 L 200.73818969726562 495.9422912597656 L 200.73818969726562 495.9422912597656 L 222.5517578125 495.9411315917969 L 243.4937744140625 495.937744140625 L 263.601318359375 495.9321594238281 L 282.9114990234375 495.9245300292969 L 301.4613952636719 495.9149475097656 L 319.2880554199219 495.9034729003906 L 336.4286193847656 495.8902587890625 L 352.920166015625 495.8753356933594 L 368.79974365234375 495.85882568359375 L 384.1044921875 495.8408508300781 L 398.8714294433594 495.82147216796875 L 413.1377258300781 495.8008117675781 L 426.9404296875 495.7789611816406 L 440.3166198730469 495.7559814453125 L 453.3033752441406 495.7320251464844 L 465.9378356933594 495.7071228027344 L 478.25701904296875 495.6814270019531 L 490.2980651855469 495.655029296875 L 502.0980529785156 495.62799072265625 L 513.6940307617188 495.60040283203125 L 525.1231079101562 495.5724182128906 L 536.4224243164062 495.5440673828125 L 547.6290283203125 495.5155029296875 L 558.7799682617188 495.4867858886719 L 569.912353515625 495.4580078125 L 581.0632934570312 495.4292907714844 L 592.2698974609375 495.4007263183594 L 603.5691528320312 495.3724060058594 L 614.998291015625 495.3443908691406 L 626.59423828125 495.31683349609375 L 638.3942260742188 495.289794921875 L 650.435302734375 495.26336669921875 L 662.7544555664062 495.2376708984375 L 675.388916015625 495.2127990722656 L 688.3756713867188 495.1888122558594 L 701.7518920898438 495.1658630371094 L 715.5545654296875 495.14398193359375 L 729.8208618164062 495.1233215332031 L 744.5878295898438 495.10394287109375 L 759.892578125 495.0859680175781 L 775.7721557617188 495.0694885253906 L 792.263671875 495.0545654296875 L 809.4042358398438 495.04132080078125 L 827.2308959960938 495.0298767089844 L 845.7808227539062 495.020263671875 L 865.0910034179688 495.01263427734375 L 885.1985473632812 495.007080078125 L 906.1405639648438 495.003662109375 L 927.9541015625 495.00250244140625 L 927.9541015625 495.00250244140625 L 927.9541015625 381.7568359375 L 927.9541015625 381.7568359375 L 906.1405639648438 381.75799560546875 L 885.1985473632812 381.76141357421875 L 865.0910034179688 381.7669982910156 L 845.7808227539062 381.7746276855469 L 827.2308959960938 381.7842102050781 L 809.4042358398438 381.7956848144531 L 792.263671875 381.80889892578125 L 775.7721557617188 381.8238220214844 L 759.892578125 381.8403015136719 L 744.5878295898438 381.8583068847656 L 729.8208618164062 381.8776550292969 L 715.5545654296875 381.8983459472656 L 701.7518920898438 381.9201965332031 L 688.3756713867188 381.94317626953125 L 675.388916015625 381.9671325683594 L 662.7544555664062 381.99200439453125 L 650.435302734375 382.0177307128906 L 638.3942260742188 382.04412841796875 L 626.59423828125 382.0711669921875 L 614.998291015625 382.0987548828125 L 603.5691528320312 382.1267395019531 L 592.2698974609375 382.1550598144531 L 581.0632934570312 382.18365478515625 L 569.912353515625 382.2123718261719 L 558.7799682617188 382.2411193847656 L 547.6290283203125 382.26983642578125 L 536.4224243164062 382.2984313964844 L 525.1231079101562 382.3267517089844 L 513.6940307617188 382.3547668457031 L 502.0980529785156 382.38232421875 L 490.2980651855469 382.40936279296875 L 478.25701904296875 382.435791015625 L 465.9378356933594 382.46148681640625 L 453.3033752441406 382.4863586425781 L 440.3166198730469 382.5103454589844 L 426.9404296875 382.5332946777344 L 413.1377258300781 382.5551452636719 L 398.8714294433594 382.5758361816406 L 384.1044921875 382.5951843261719 L 368.79974365234375 382.6131896972656 L 352.920166015625 382.6296691894531 L 336.4286193847656 382.64459228515625 L 319.2880554199219 382.6578369140625 L 301.4613952636719 382.6692810058594 L 282.9114990234375 382.67889404296875 L 263.601318359375 382.6865234375 L 243.4937744140625 382.69207763671875 L 222.5517578125 382.69549560546875 L 200.73818969726562 382.6966552734375 Z" fill-opacity="0.6" clip-path="url(#HTXGUAlugcBC)" stroke-opacity="1" stroke-linejoin="bevel" stroke-miterlimit="10" stroke-width="0.8" stroke-dasharray=""/><path fill="rgb(44,160,44)" stroke="rgb(44,160,44)" paint-order="fill" d="M 200.73818969726562 314.749267578125 L 200.73818969726562 382.6966552734375 L 200.73818969726562 382.6966552734375 L 222.5517578125 382.6902770996094 L 243.4937744140625 382.6715087890625 L 263.601318359375 382.6408996582031 L 282.9114990234375 382.59893798828125 L 301.4613952636719 382.5461730957031 L 319.2880554199219 382.4831237792969 L 336.4286193847656 382.4103088378906 L 352.920166015625 382.32830810546875 L 368.79974365234375 382.2375793457031 L 384.1044921875 382.138671875 L 398.8714294433594 382.0321350097656 L 413.1377258300781 381.9184875488281 L 426.9404296875 381.7982177734375 L 440.3166198730469 381.6719055175781 L 453.3033752441406 381.5400695800781 L 465.9378356933594 381.4031982421875 L 478.25701904296875 381.2618713378906 L 490.2980651855469 381.1165771484375 L 502.0980529785156 380.9678649902344 L 513.6940307617188 380.81622314453125 L 525.1231079101562 380.6622314453125 L 536.4224243164062 380.50640869140625 L 547.6290283203125 380.3492431640625 L 558.7799682617188 380.1913146972656 L 569.912353515625 380.0331115722656 L 581.0632934570312 379.8751525878906 L 592.2698974609375 379.7179870605469 L 603.5691528320312 379.5621643066406 L 614.998291015625 379.4081726074219 L 626.59423828125 379.2565612792969 L 638.3942260742188 379.1078186035156 L 650.435302734375 378.9625244140625 L 662.7544555664062 378.8211975097656 L 675.388916015625 378.6843566894531 L 688.3756713867188 378.552490234375 L 701.7518920898438 378.4261779785156 L 715.5545654296875 378.3059387207031 L 729.8208618164062 378.1922607421875 L 744.5878295898438 378.0857238769531 L 759.892578125 377.9868469238281 L 775.7721557617188 377.8961181640625 L 792.263671875 377.8140869140625 L 809.4042358398438 377.74127197265625 L 827.2308959960938 377.67822265625 L 845.7808227539062 377.6254577636719 L 865.0910034179688 377.58349609375 L 885.1985473632812 377.5528869628906 L 906.1405639648438 377.53411865234375 L 927.9541015625 377.52777099609375 L 927.9541015625 377.52777099609375 L 927.9541015625 309.5803527832031 L 927.9541015625 309.5803527832031 L 906.1405639648438 309.58673095703125 L 885.1985473632812 309.6054992675781 L 865.0910034179688 309.6361083984375 L 845.7808227539062 309.6780700683594 L 827.2308959960938 309.7308349609375 L 809.4042358398438 309.79388427734375 L 792.263671875 309.86669921875 L 775.7721557617188 309.9486999511719 L 759.892578125 310.0394287109375 L 744.5878295898438 310.1383361816406 L 729.8208618164062 310.244873046875 L 715.5545654296875 310.3585510253906 L 701.7518920898438 310.4787902832031 L 688.3756713867188 310.6051025390625 L 675.388916015625 310.7369384765625 L 662.7544555664062 310.8738098144531 L 650.435302734375 311.01513671875 L 638.3942260742188 311.1604309082031 L 626.59423828125 311.30914306640625 L 614.998291015625 311.4607849121094 L 603.5691528320312 311.6147766113281 L 592.2698974609375 311.7705993652344 L 581.0632934570312 311.9277648925781 L 569.912353515625 312.085693359375 L 558.7799682617188 312.2439270019531 L 547.6290283203125 312.40185546875 L 536.4224243164062 312.55902099609375 L 525.1231079101562 312.71484375 L 513.6940307617188 312.86883544921875 L 502.0980529785156 313.02044677734375 L 490.2980651855469 313.169189453125 L 478.25701904296875 313.3144836425781 L 465.9378356933594 313.455810546875 L 453.3033752441406 313.5926818847656 L 440.3166198730469 313.7245178222656 L 426.9404296875 313.850830078125 L 413.1377258300781 313.9710693359375 L 398.8714294433594 314.0847473144531 L 384.1044921875 314.1912841796875 L 368.79974365234375 314.2901916503906 L 352.920166015625 314.3808898925781 L 336.4286193847656 314.4629211425781 L 319.2880554199219 314.5357360839844 L 301.4613952636719 314.5987854003906 L 282.9114990234375 314.65155029296875 L 263.601318359375 314.6935119628906 L 243.4937744140625 314.72412109375 L 222.5517578125 314.7428894042969 L 200.73818969726562 314.749267578125 Z" fill-opacity="0.6" clip-path="url(#HTXGUAlugcBC)" stroke-opacity="1" stroke-linejoin="bevel" stroke-miterlimit="10" stroke-width="0.8" stroke-dasharray=""/><path fill="rgb(152,223,138)" stroke="rgb(152,223,138)" paint-order="fill" d="M 200.73818969726562 269.45098876953125 L 200.73818969726562 314.749267578125 L 200.73818969726562 314.749267578125 L 222.5517578125 314.7376708984375 L 243.4937744140625 314.70355224609375 L 263.601318359375 314.64788818359375 L 282.9114990234375 314.57159423828125 L 301.4613952636719 314.47564697265625 L 319.2880554199219 314.36102294921875 L 336.4286193847656 314.2286682128906 L 352.920166015625 314.07952880859375 L 368.79974365234375 313.9145812988281 L 384.1044921875 313.7347717285156 L 398.8714294433594 313.5410461425781 L 413.1377258300781 313.3343811035156 L 426.9404296875 313.1157531738281 L 440.3166198730469 312.8861083984375 L 453.3033752441406 312.6463623046875 L 465.9378356933594 312.3975524902344 L 478.25701904296875 312.14056396484375 L 490.2980651855469 311.87640380859375 L 502.0980529785156 311.6059875488281 L 513.6940307617188 311.330322265625 L 525.1231079101562 311.05035400390625 L 536.4224243164062 310.7669982910156 L 547.6290283203125 310.48126220703125 L 558.7799682617188 310.194091796875 L 569.912353515625 309.90643310546875 L 581.0632934570312 309.6192626953125 L 592.2698974609375 309.3335266113281 L 603.5691528320312 309.0501708984375 L 614.998291015625 308.77020263671875 L 626.59423828125 308.4945373535156 L 638.3942260742188 308.22412109375 L 650.435302734375 307.9599609375 L 662.7544555664062 307.7029724121094 L 675.388916015625 307.45416259765625 L 688.3756713867188 307.21441650390625 L 701.7518920898438 306.9847717285156 L 715.5545654296875 306.7661437988281 L 729.8208618164062 306.5594787597656 L 744.5878295898438 306.3657531738281 L 759.892578125 306.1859436035156 L 775.7721557617188 306.02099609375 L 792.263671875 305.8718566894531 L 809.4042358398438 305.739501953125 L 827.2308959960938 305.6248779296875 L 845.7808227539062 305.5289306640625 L 865.0910034179688 305.45263671875 L 885.1985473632812 305.39697265625 L 906.1405639648438 305.36285400390625 L 927.9541015625 305.3512878417969 L 927.9541015625 305.3512878417969 L 927.9541015625 260.0530090332031 L 927.9541015625 260.0530090332031 L 906.1405639648438 260.0646057128906 L 885.1985473632812 260.09869384765625 L 865.0910034179688 260.1543884277344 L 845.7808227539062 260.23065185546875 L 827.2308959960938 260.32659912109375 L 809.4042358398438 260.44122314453125 L 792.263671875 260.5736083984375 L 775.7721557617188 260.7227478027344 L 759.892578125 260.8876953125 L 744.5878295898438 261.0675048828125 L 729.8208618164062 261.26123046875 L 715.5545654296875 261.4678649902344 L 701.7518920898438 261.6864929199219 L 688.3756713867188 261.9161682128906 L 675.388916015625 262.1558837890625 L 662.7544555664062 262.40472412109375 L 650.435302734375 262.6617126464844 L 638.3942260742188 262.9258728027344 L 626.59423828125 263.1962585449219 L 614.998291015625 263.471923828125 L 603.5691528320312 263.7519226074219 L 592.2698974609375 264.0352783203125 L 581.0632934570312 264.3210144042969 L 569.912353515625 264.6081848144531 L 558.7799682617188 264.89581298828125 L 547.6290283203125 265.1830139160156 L 536.4224243164062 265.46875 L 525.1231079101562 265.7520751953125 L 513.6940307617188 266.0320739746094 L 502.0980529785156 266.3077392578125 L 490.2980651855469 266.578125 L 478.25701904296875 266.84228515625 L 465.9378356933594 267.0992736816406 L 453.3033752441406 267.3481140136719 L 440.3166198730469 267.58782958984375 L 426.9404296875 267.8175048828125 L 413.1377258300781 268.0361328125 L 398.8714294433594 268.2427673339844 L 384.1044921875 268.4364929199219 L 368.79974365234375 268.6163024902344 L 352.920166015625 268.78125 L 336.4286193847656 268.9303894042969 L 319.2880554199219 269.0627746582031 L 301.4613952636719 269.1773986816406 L 282.9114990234375 269.2733459472656 L 263.601318359375 269.349609375 L 243.4937744140625 269.4053039550781 L 222.5517578125 269.43939208984375 L 200.73818969726562 269.45098876953125 Z" fill-opacity="0.6" clip-path="url(#HTXGUAlugcBC)" stroke-opacity="1" stroke-linejoin="bevel" stroke-miterlimit="10" stroke-width="0.8" stroke-dasharray=""/><path fill="rgb(214,39,40)" stroke="rgb(214,39,40)" paint-order="fill" d="M 200.73818969726562 224.15272521972656 L 200.73818969726562 269.45098876953125 L 200.73818969726562 269.45098876953125 L 222.5517578125 269.4342041015625 L 243.4937744140625 269.3847351074219 L 263.601318359375 269.30401611328125 L 282.9114990234375 269.1933898925781 L 301.4613952636719 269.0542907714844 L 319.2880554199219 268.8880615234375 L 336.4286193847656 268.6961364746094 L 352.920166015625 268.4798889160156 L 368.79974365234375 268.2406921386719 L 384.1044921875 267.97998046875 L 398.8714294433594 267.6990966796875 L 413.1377258300781 267.3994445800781 L 426.9404296875 267.0824279785156 L 440.3166198730469 266.7494201660156 L 453.3033752441406 266.4018249511719 L 465.9378356933594 266.041015625 L 478.25701904296875 265.66839599609375 L 490.2980651855469 265.28533935546875 L 502.0980529785156 264.8932800292969 L 513.6940307617188 264.4935302734375 L 525.1231079101562 264.0875549316406 L 536.4224243164062 263.6767272949219 L 547.6290283203125 263.2624206542969 L 558.7799682617188 262.84600830078125 L 569.912353515625 262.42889404296875 L 581.0632934570312 262.01251220703125 L 592.2698974609375 261.5981750488281 L 603.5691528320312 261.1873474121094 L 614.998291015625 260.7813720703125 L 626.59423828125 260.38165283203125 L 638.3942260742188 259.98956298828125 L 650.435302734375 259.60650634765625 L 662.7544555664062 259.23388671875 L 675.388916015625 258.87310791015625 L 688.3756713867188 258.5254821777344 L 701.7518920898438 258.1925048828125 L 715.5545654296875 257.8754577636719 L 729.8208618164062 257.5758056640625 L 744.5878295898438 257.2949523925781 L 759.892578125 257.0342102050781 L 775.7721557617188 256.7950134277344 L 792.263671875 256.5787658691406 L 809.4042358398438 256.3868408203125 L 827.2308959960938 256.2206268310547 L 845.7808227539062 256.08152770996094 L 865.0910034179688 255.9709014892578 L 885.1985473632812 255.89016723632812 L 906.1405639648438 255.84071350097656 L 927.9541015625 255.82391357421875 L 927.9541015625 255.82391357421875 L 927.9541015625 210.52565002441406 L 927.9541015625 210.52565002441406 L 906.1405639648438 210.54244995117188 L 885.1985473632812 210.59190368652344 L 865.0910034179688 210.67263793945312 L 845.7808227539062 210.78326416015625 L 827.2308959960938 210.92236328125 L 809.4042358398438 211.0885772705078 L 792.263671875 211.28050231933594 L 775.7721557617188 211.49676513671875 L 759.892578125 211.73594665527344 L 744.5878295898438 211.99667358398438 L 729.8208618164062 212.27755737304688 L 715.5545654296875 212.57720947265625 L 701.7518920898438 212.89422607421875 L 688.3756713867188 213.22723388671875 L 675.388916015625 213.5748291015625 L 662.7544555664062 213.93563842773438 L 650.435302734375 214.30825805664062 L 638.3942260742188 214.69129943847656 L 626.59423828125 215.0833740234375 L 614.998291015625 215.4831085205078 L 603.5691528320312 215.8890838623047 L 592.2698974609375 216.2999267578125 L 581.0632934570312 216.7142333984375 L 569.912353515625 217.13064575195312 L 558.7799682617188 217.54774475097656 L 547.6290283203125 217.96414184570312 L 536.4224243164062 218.3784637451172 L 525.1231079101562 218.789306640625 L 513.6940307617188 219.19528198242188 L 502.0980529785156 219.59500122070312 L 490.2980651855469 219.98707580566406 L 478.25701904296875 220.37013244628906 L 465.9378356933594 220.7427520751953 L 453.3033752441406 221.10354614257812 L 440.3166198730469 221.45115661621094 L 426.9404296875 221.78414916992188 L 413.1377258300781 222.10118103027344 L 398.8714294433594 222.4008331298828 L 384.1044921875 222.68170166015625 L 368.79974365234375 222.94244384765625 L 352.920166015625 223.18162536621094 L 336.4286193847656 223.3978729248047 L 319.2880554199219 223.5897979736328 L 301.4613952636719 223.75601196289062 L 282.9114990234375 223.89512634277344 L 263.601318359375 224.0057373046875 L 243.4937744140625 224.0864715576172 L 222.5517578125 224.13592529296875 L 200.73818969726562 224.15272521972656 Z" fill-opacity="0.6" clip-path="url(#HTXGUAlugcBC)" stroke-opacity="1" stroke-linejoin="bevel" stroke-miterlimit="10" stroke-width="0.8" stroke-dasharray=""/><path fill="rgb(255,152,150)" stroke="rgb(255,152,150)" paint-order="fill" d="M 200.73818969726562 178.85446166992188 L 200.73818969726562 224.15272521972656 L 200.73818969726562 224.15272521972656 L 222.5517578125 224.13072204589844 L 243.4937744140625 224.06591796875 L 263.601318359375 223.9601287841797 L 282.9114990234375 223.815185546875 L 301.4613952636719 223.63290405273438 L 319.2880554199219 223.41510009765625 L 336.4286193847656 223.16360473632812 L 352.920166015625 222.8802490234375 L 368.79974365234375 222.56683349609375 L 384.1044921875 222.22518920898438 L 398.8714294433594 221.8571319580078 L 413.1377258300781 221.46449279785156 L 426.9404296875 221.04908752441406 L 440.3166198730469 220.61273193359375 L 453.3033752441406 220.15725708007812 L 465.9378356933594 219.68447875976562 L 478.25701904296875 219.1962127685547 L 490.2980651855469 218.6942901611328 L 502.0980529785156 218.1805419921875 L 513.6940307617188 217.65676879882812 L 525.1231079101562 217.12478637695312 L 536.4224243164062 216.58644104003906 L 547.6290283203125 216.04354858398438 L 558.7799682617188 215.49790954589844 L 569.912353515625 214.9513702392578 L 581.0632934570312 214.40574645996094 L 592.2698974609375 213.86285400390625 L 603.5691528320312 213.32449340820312 L 614.998291015625 212.7925262451172 L 626.59423828125 212.2687530517578 L 638.3942260742188 211.75498962402344 L 650.435302734375 211.25308227539062 L 662.7544555664062 210.7648162841797 L 675.388916015625 210.2920379638672 L 688.3756713867188 209.83656311035156 L 701.7518920898438 209.40020751953125 L 715.5545654296875 208.98480224609375 L 729.8208618164062 208.5921630859375 L 744.5878295898438 208.22410583496094 L 759.892578125 207.88246154785156 L 775.7721557617188 207.5690460205078 L 792.263671875 207.28567504882812 L 809.4042358398438 207.03419494628906 L 827.2308959960938 206.81639099121094 L 845.7808227539062 206.6341094970703 L 865.0910034179688 206.48916625976562 L 885.1985473632812 206.3833770751953 L 906.1405639648438 206.31857299804688 L 927.9541015625 206.29656982421875 L 927.9541015625 206.29656982421875 L 927.9541015625 160.99830627441406 L 927.9541015625 160.99830627441406 L 906.1405639648438 161.0203094482422 L 885.1985473632812 161.08511352539062 L 865.0910034179688 161.19090270996094 L 845.7808227539062 161.33584594726562 L 827.2308959960938 161.51812744140625 L 809.4042358398438 161.73593139648438 L 792.263671875 161.9874267578125 L 775.7721557617188 162.27078247070312 L 759.892578125 162.58419799804688 L 744.5878295898438 162.92584228515625 L 729.8208618164062 163.2938995361328 L 715.5545654296875 163.68653869628906 L 701.7518920898438 164.10194396972656 L 688.3756713867188 164.53829956054688 L 675.388916015625 164.9937744140625 L 662.7544555664062 165.466552734375 L 650.435302734375 165.95481872558594 L 638.3942260742188 166.4567413330078 L 626.59423828125 166.97048950195312 L 614.998291015625 167.4942626953125 L 603.5691528320312 168.0262451171875 L 592.2698974609375 168.56459045410156 L 581.0632934570312 169.10748291015625 L 569.912353515625 169.65310668945312 L 558.7799682617188 170.1996612548828 L 547.6290283203125 170.7452850341797 L 536.4224243164062 171.28817749023438 L 525.1231079101562 171.82652282714844 L 513.6940307617188 172.35850524902344 L 502.0980529785156 172.8822784423828 L 490.2980651855469 173.39602661132812 L 478.25701904296875 173.89794921875 L 465.9378356933594 174.38621520996094 L 453.3033752441406 174.85899353027344 L 440.3166198730469 175.31446838378906 L 426.9404296875 175.75082397460938 L 413.1377258300781 176.16622924804688 L 398.8714294433594 176.55886840820312 L 384.1044921875 176.9269256591797 L 368.79974365234375 177.26856994628906 L 352.920166015625 177.5819854736328 L 336.4286193847656 177.86534118652344 L 319.2880554199219 178.11683654785156 L 301.4613952636719 178.3346405029297 L 282.9114990234375 178.5169219970703 L 263.601318359375 178.661865234375 L 243.4937744140625 178.7676544189453 L 222.5517578125 178.83245849609375 L 200.73818969726562 178.85446166992188 Z" fill-opacity="0.6" clip-path="url(#HTXGUAlugcBC)" stroke-opacity="1" stroke-linejoin="bevel" stroke-miterlimit="10" stroke-width="0.8" stroke-dasharray=""/><path fill="rgb(148,103,189)" stroke="rgb(148,103,189)" paint-order="fill" d="M 200.73818969726562 156.20533752441406 L 200.73818969726562 178.85446166992188 L 200.73818969726562 178.85446166992188 L 222.5517578125 178.82723999023438 L 243.4937744140625 178.74708557128906 L 263.601318359375 178.61624145507812 L 282.9114990234375 178.4369659423828 L 301.4613952636719 178.21151733398438 L 319.2880554199219 177.942138671875 L 336.4286193847656 177.63108825683594 L 352.920166015625 177.28060913085938 L 368.79974365234375 176.89295959472656 L 384.1044921875 176.47039794921875 L 398.8714294433594 176.0151824951172 L 413.1377258300781 175.529541015625 L 426.9404296875 175.0157470703125 L 440.3166198730469 174.47604370117188 L 453.3033752441406 173.91268920898438 L 465.9378356933594 173.32794189453125 L 478.25701904296875 172.7240447998047 L 490.2980651855469 172.10324096679688 L 502.0980529785156 171.46780395507812 L 513.6940307617188 170.81997680664062 L 525.1231079101562 170.16201782226562 L 536.4224243164062 169.4961700439453 L 547.6290283203125 168.82469177246094 L 558.7799682617188 168.1498260498047 L 569.912353515625 167.47384643554688 L 581.0632934570312 166.79898071289062 L 592.2698974609375 166.12750244140625 L 603.5691528320312 165.46165466308594 L 614.998291015625 164.80369567871094 L 626.59423828125 164.15586853027344 L 638.3942260742188 163.5204315185547 L 650.435302734375 162.89962768554688 L 662.7544555664062 162.2957305908203 L 675.388916015625 161.7109832763672 L 688.3756713867188 161.1476287841797 L 701.7518920898438 160.60792541503906 L 715.5545654296875 160.09413146972656 L 729.8208618164062 159.60850524902344 L 744.5878295898438 159.1532745361328 L 759.892578125 158.730712890625 L 775.7721557617188 158.3430633544922 L 792.263671875 157.9925994873047 L 809.4042358398438 157.68153381347656 L 827.2308959960938 157.4121551513672 L 845.7808227539062 157.18670654296875 L 865.0910034179688 157.00743103027344 L 885.1985473632812 156.8765869140625 L 906.1405639648438 156.7964324951172 L 927.9541015625 156.7692108154297 L 927.9541015625 156.7692108154297 L 927.9541015625 134.12008666992188 L 927.9541015625 134.12008666992188 L 906.1405639648438 134.1472930908203 L 885.1985473632812 134.2274627685547 L 865.0910034179688 134.35830688476562 L 845.7808227539062 134.53756713867188 L 827.2308959960938 134.76303100585938 L 809.4042358398438 135.03240966796875 L 792.263671875 135.3434600830078 L 775.7721557617188 135.69393920898438 L 759.892578125 136.0815887451172 L 744.5878295898438 136.504150390625 L 729.8208618164062 136.95936584472656 L 715.5545654296875 137.44500732421875 L 701.7518920898438 137.95880126953125 L 688.3756713867188 138.49850463867188 L 675.388916015625 139.0618438720703 L 662.7544555664062 139.6466064453125 L 650.435302734375 140.25050354003906 L 638.3942260742188 140.8712921142578 L 626.59423828125 141.50672912597656 L 614.998291015625 142.15455627441406 L 603.5691528320312 142.81253051757812 L 592.2698974609375 143.47837829589844 L 581.0632934570312 144.1498565673828 L 569.912353515625 144.82470703125 L 558.7799682617188 145.50070190429688 L 547.6290283203125 146.17555236816406 L 536.4224243164062 146.8470458984375 L 525.1231079101562 147.5128936767578 L 513.6940307617188 148.1708526611328 L 502.0980529785156 148.8186798095703 L 490.2980651855469 149.45411682128906 L 478.25701904296875 150.0749053955078 L 465.9378356933594 150.67881774902344 L 453.3033752441406 151.26356506347656 L 440.3166198730469 151.82691955566406 L 426.9404296875 152.3666229248047 L 413.1377258300781 152.8804168701172 L 398.8714294433594 153.3660430908203 L 384.1044921875 153.82127380371094 L 368.79974365234375 154.24383544921875 L 352.920166015625 154.6314697265625 L 336.4286193847656 154.98194885253906 L 319.2880554199219 155.29299926757812 L 301.4613952636719 155.56239318847656 L 282.9114990234375 155.787841796875 L 263.601318359375 155.9671173095703 L 243.4937744140625 156.09796142578125 L 222.5517578125 156.17811584472656 L 200.73818969726562 156.20533752441406 Z" fill-opacity="0.6" clip-path="url(#HTXGUAlugcBC)" stroke-opacity="1" stroke-linejoin="bevel" stroke-miterlimit="10" stroke-width="0.8" stroke-dasharray=""/><path fill="rgb(197,176,213)" stroke="rgb(197,176,213)" paint-order="fill" d="M 200.73818969726562 133.5561981201172 L 200.73818969726562 156.20533752441406 L 200.73818969726562 156.20533752441406 L 222.5517578125 156.1728973388672 L 243.4937744140625 156.077392578125 L 263.601318359375 155.92149353027344 L 282.9114990234375 155.70790100097656 L 301.4613952636719 155.43927001953125 L 319.2880554199219 155.11830139160156 L 336.4286193847656 154.7476806640625 L 352.920166015625 154.33009338378906 L 368.79974365234375 153.86822509765625 L 384.1044921875 153.36474609375 L 398.8714294433594 152.82235717773438 L 413.1377258300781 152.2437286376953 L 426.9404296875 151.6315460205078 L 440.3166198730469 150.98849487304688 L 453.3033752441406 150.3172607421875 L 465.9378356933594 149.62054443359375 L 478.25701904296875 148.9010009765625 L 490.2980651855469 148.1613311767578 L 502.0980529785156 147.40420532226562 L 513.6940307617188 146.63233947753906 L 525.1231079101562 145.84837341308594 L 536.4224243164062 145.05502319335938 L 547.6290283203125 144.2549591064453 L 558.7799682617188 143.4508819580078 L 569.912353515625 142.64544677734375 L 581.0632934570312 141.8413543701172 L 592.2698974609375 141.0413055419922 L 603.5691528320312 140.24794006347656 L 614.998291015625 139.4639892578125 L 626.59423828125 138.69210815429688 L 638.3942260742188 137.93499755859375 L 650.435302734375 137.19532775878906 L 662.7544555664062 136.4757843017578 L 675.388916015625 135.779052734375 L 688.3756713867188 135.1078338623047 L 701.7518920898438 134.46478271484375 L 715.5545654296875 133.85260009765625 L 729.8208618164062 133.2739715576172 L 744.5878295898438 132.73158264160156 L 759.892578125 132.2281036376953 L 775.7721557617188 131.76622009277344 L 792.263671875 131.3486328125 L 809.4042358398438 130.97801208496094 L 827.2308959960938 130.6570587158203 L 845.7808227539062 130.388427734375 L 865.0910034179688 130.17481994628906 L 885.1985473632812 130.0189208984375 L 906.1405639648438 129.9234161376953 L 927.9541015625 129.8909912109375 L 927.9541015625 129.8909912109375 L 927.9541015625 107.24185943603516 L 927.9541015625 107.24185943603516 L 906.1405639648438 107.2742919921875 L 885.1985473632812 107.36979675292969 L 865.0910034179688 107.52569580078125 L 845.7808227539062 107.73929595947266 L 827.2308959960938 108.00791931152344 L 809.4042358398438 108.32888793945312 L 792.263671875 108.69950103759766 L 775.7721557617188 109.11709594726562 L 759.892578125 109.57896423339844 L 744.5878295898438 110.08244323730469 L 729.8208618164062 110.62483978271484 L 715.5545654296875 111.2034683227539 L 701.7518920898438 111.8156509399414 L 688.3756713867188 112.45869445800781 L 675.388916015625 113.12992095947266 L 662.7544555664062 113.82665252685547 L 650.435302734375 114.54618835449219 L 638.3942260742188 115.2858657836914 L 626.59423828125 116.04297637939453 L 614.998291015625 116.81485748291016 L 603.5691528320312 117.59881591796875 L 592.2698974609375 118.39216613769531 L 581.0632934570312 119.19223022460938 L 569.912353515625 119.9963150024414 L 558.7799682617188 120.80174255371094 L 547.6290283203125 121.6058349609375 L 536.4224243164062 122.40589141845703 L 525.1231079101562 123.1992416381836 L 513.6940307617188 123.98320007324219 L 502.0980529785156 124.75508117675781 L 490.2980651855469 125.51219940185547 L 478.25701904296875 126.25186920166016 L 465.9378356933594 126.9714126586914 L 453.3033752441406 127.66813659667969 L 440.3166198730469 128.33936309814453 L 426.9404296875 128.98240661621094 L 413.1377258300781 129.59458923339844 L 398.8714294433594 130.1732177734375 L 384.1044921875 130.7156219482422 L 368.79974365234375 131.21908569335938 L 352.920166015625 131.68096923828125 L 336.4286193847656 132.0985565185547 L 319.2880554199219 132.46917724609375 L 301.4613952636719 132.79014587402344 L 282.9114990234375 133.0587615966797 L 263.601318359375 133.27236938476562 L 243.4937744140625 133.4282684326172 L 222.5517578125 133.52377319335938 L 200.73818969726562 133.5561981201172 Z" fill-opacity="0.6" clip-path="url(#HTXGUAlugcBC)" stroke-opacity="1" stroke-linejoin="bevel" stroke-miterlimit="10" stroke-width="0.8" stroke-dasharray=""/><path fill="rgb(140,86,75)" stroke="rgb(140,86,75)" paint-order="fill" d="M 200.73818969726562 110.90707397460938 L 200.73818969726562 133.5561981201172 L 200.73818969726562 133.5561981201172 L 222.5517578125 133.5185546875 L 243.4937744140625 133.40769958496094 L 263.601318359375 133.22674560546875 L 282.9114990234375 132.97882080078125 L 301.4613952636719 132.66702270507812 L 319.2880554199219 132.2944793701172 L 336.4286193847656 131.86428833007812 L 352.920166015625 131.3795928955078 L 368.79974365234375 130.84349060058594 L 384.1044921875 130.25909423828125 L 398.8714294433594 129.62953186035156 L 413.1377258300781 128.95790100097656 L 426.9404296875 128.2473373413086 L 440.3166198730469 127.50094604492188 L 453.3033752441406 126.72183990478516 L 465.9378356933594 125.91313934326172 L 478.25701904296875 125.07795715332031 L 490.2980651855469 124.21941375732422 L 502.0980529785156 123.34061431884766 L 513.6940307617188 122.44468688964844 L 525.1231079101562 121.53473663330078 L 536.4224243164062 120.61387634277344 L 547.6290283203125 119.68523406982422 L 558.7799682617188 118.75192260742188 L 569.912353515625 117.81704711914062 L 581.0632934570312 116.88373565673828 L 592.2698974609375 115.95509338378906 L 603.5691528320312 115.03423309326172 L 614.998291015625 114.12428283691406 L 626.59423828125 113.22835540771484 L 638.3942260742188 112.34955596923828 L 650.435302734375 111.49101257324219 L 662.7544555664062 110.65583038330078 L 675.388916015625 109.84712982177734 L 688.3756713867188 109.06802368164062 L 701.7518920898438 108.3216323852539 L 715.5545654296875 107.61106872558594 L 729.8208618164062 106.93944549560547 L 744.5878295898438 106.30987548828125 L 759.892578125 105.7254867553711 L 775.7721557617188 105.18937683105469 L 792.263671875 104.70468139648438 L 809.4042358398438 104.27449798583984 L 827.2308959960938 103.90194702148438 L 845.7808227539062 103.59014892578125 L 865.0910034179688 103.34221649169922 L 885.1985473632812 103.16127014160156 L 906.1405639648438 103.0504150390625 L 927.9541015625 103.01276397705078 L 927.9541015625 103.01276397705078 L 927.9541015625 80.36363983154297 L 927.9541015625 80.36363983154297 L 906.1405639648438 80.40128326416016 L 885.1985473632812 80.51213836669922 L 865.0910034179688 80.69308471679688 L 845.7808227539062 80.9410171508789 L 827.2308959960938 81.25281524658203 L 809.4042358398438 81.6253662109375 L 792.263671875 82.05554962158203 L 775.7721557617188 82.54024505615234 L 759.892578125 83.07635498046875 L 744.5878295898438 83.6607437133789 L 729.8208618164062 84.29031372070312 L 715.5545654296875 84.9619369506836 L 701.7518920898438 85.67250061035156 L 688.3756713867188 86.41889190673828 L 675.388916015625 87.197998046875 L 662.7544555664062 88.00669860839844 L 650.435302734375 88.84188079833984 L 638.3942260742188 89.70042419433594 L 626.59423828125 90.5792236328125 L 614.998291015625 91.47515106201172 L 603.5691528320312 92.38510131835938 L 592.2698974609375 93.30596160888672 L 581.0632934570312 94.23460388183594 L 569.912353515625 95.16791534423828 L 558.7799682617188 96.10279083251953 L 547.6290283203125 97.03610229492188 L 536.4224243164062 97.9647445678711 L 525.1231079101562 98.88560485839844 L 513.6940307617188 99.7955551147461 L 502.0980529785156 100.69148254394531 L 490.2980651855469 101.57028198242188 L 478.25701904296875 102.42882537841797 L 465.9378356933594 103.26400756835938 L 453.3033752441406 104.07270812988281 L 440.3166198730469 104.85181427001953 L 426.9404296875 105.59820556640625 L 413.1377258300781 106.30876922607422 L 398.8714294433594 106.98039245605469 L 384.1044921875 107.6099624633789 L 368.79974365234375 108.19435119628906 L 352.920166015625 108.73046112060547 L 336.4286193847656 109.21515655517578 L 319.2880554199219 109.64533996582031 L 301.4613952636719 110.01789093017578 L 282.9114990234375 110.3296890258789 L 263.601318359375 110.57762145996094 L 243.4937744140625 110.7585678100586 L 222.5517578125 110.86942291259766 L 200.73818969726562 110.90707397460938 Z" fill-opacity="0.6" clip-path="url(#HTXGUAlugcBC)" stroke-opacity="1" stroke-linejoin="bevel" stroke-miterlimit="10" stroke-width="0.8" stroke-dasharray=""/><path fill="rgb(31,119,180)" stroke="rgb(0,0,0)" paint-order="fill" d="M 189.49258422851562 110.90707397460938 L 200.73818969726562 110.90707397460938 L 200.73818969726562 1130.117919921875 L 189.49258422851562 1130.117919921875 L 189.49258422851562 110.90707397460938" fill-opacity="0.9019607843137255" clip-path="url(#avIoZTbWhxAC)" stroke-opacity="0.2" stroke-linejoin="bevel" stroke-miterlimit="10" stroke-width="0.5" stroke-dasharray=""/><path fill="rgb(174,199,232)" stroke="rgb(0,0,0)" paint-order="fill" d="M 927.9541015625 662.0045776367188 L 939.19970703125 662.0045776367188 L 939.19970703125 1137.6363525390625 L 927.9541015625 1137.6363525390625 L 927.9541015625 662.0045776367188" fill-opacity="0.9019607843137255" clip-path="url(#avIoZTbWhxAC)" stroke-opacity="0.2" stroke-linejoin="bevel" stroke-miterlimit="10" stroke-width="0.5" stroke-dasharray=""/><path fill="rgb(255,127,14)" stroke="rgb(0,0,0)" paint-order="fill" d="M 927.9541015625 499.2315979003906 L 939.19970703125 499.2315979003906 L 939.19970703125 657.7755126953125 L 927.9541015625 657.7755126953125 L 927.9541015625 499.2315979003906" fill-opacity="0.9019607843137255" clip-path="url(#avIoZTbWhxAC)" stroke-opacity="0.2" stroke-linejoin="bevel" stroke-miterlimit="10" stroke-width="0.5" stroke-dasharray=""/><path fill="rgb(255,187,120)" stroke="rgb(0,0,0)" paint-order="fill" d="M 927.9541015625 381.7568359375 L 939.19970703125 381.7568359375 L 939.19970703125 495.00250244140625 L 927.9541015625 495.00250244140625 L 927.9541015625 381.7568359375" fill-opacity="0.9019607843137255" clip-path="url(#avIoZTbWhxAC)" stroke-opacity="0.2" stroke-linejoin="bevel" stroke-miterlimit="10" stroke-width="0.5" stroke-dasharray=""/><path fill="rgb(44,160,44)" stroke="rgb(0,0,0)" paint-order="fill" d="M 927.9541015625 309.5803527832031 L 939.19970703125 309.5803527832031 L 939.19970703125 377.52777099609375 L 927.9541015625 377.52777099609375 L 927.9541015625 309.5803527832031" fill-opacity="0.9019607843137255" clip-path="url(#avIoZTbWhxAC)" stroke-opacity="0.2" stroke-linejoin="bevel" stroke-miterlimit="10" stroke-width="0.5" stroke-dasharray=""/><path fill="rgb(152,223,138)" stroke="rgb(0,0,0)" paint-order="fill" d="M 927.9541015625 260.0530090332031 L 939.19970703125 260.0530090332031 L 939.19970703125 305.3512878417969 L 927.9541015625 305.3512878417969 L 927.9541015625 260.0530090332031" fill-opacity="0.9019607843137255" clip-path="url(#avIoZTbWhxAC)" stroke-opacity="0.2" stroke-linejoin="bevel" stroke-miterlimit="10" stroke-width="0.5" stroke-dasharray=""/><path fill="rgb(214,39,40)" stroke="rgb(0,0,0)" paint-order="fill" d="M 927.9541015625 210.52565002441406 L 939.19970703125 210.52565002441406 L 939.19970703125 255.82391357421875 L 927.9541015625 255.82391357421875 L 927.9541015625 210.52565002441406" fill-opacity="0.9019607843137255" clip-path="url(#avIoZTbWhxAC)" stroke-opacity="0.2" stroke-linejoin="bevel" stroke-miterlimit="10" stroke-width="0.5" stroke-dasharray=""/><path fill="rgb(255,152,150)" stroke="rgb(0,0,0)" paint-order="fill" d="M 927.9541015625 160.99830627441406 L 939.19970703125 160.99830627441406 L 939.19970703125 206.29656982421875 L 927.9541015625 206.29656982421875 L 927.9541015625 160.99830627441406" fill-opacity="0.9019607843137255" clip-path="url(#avIoZTbWhxAC)" stroke-opacity="0.2" stroke-linejoin="bevel" stroke-miterlimit="10" stroke-width="0.5" stroke-dasharray=""/><path fill="rgb(148,103,189)" stroke="rgb(0,0,0)" paint-order="fill" d="M 927.9541015625 134.12008666992188 L 939.19970703125 134.12008666992188 L 939.19970703125 156.7692108154297 L 927.9541015625 156.7692108154297 L 927.9541015625 134.12008666992188" fill-opacity="0.9019607843137255" clip-path="url(#avIoZTbWhxAC)" stroke-opacity="0.2" stroke-linejoin="bevel" stroke-miterlimit="10" stroke-width="0.5" stroke-dasharray=""/><path fill="rgb(197,176,213)" stroke="rgb(0,0,0)" paint-order="fill" d="M 927.9541015625 107.24185943603516 L 939.19970703125 107.24185943603516 L 939.19970703125 129.8909912109375 L 927.9541015625 129.8909912109375 L 927.9541015625 107.24185943603516" fill-opacity="0.9019607843137255" clip-path="url(#avIoZTbWhxAC)" stroke-opacity="0.2" stroke-linejoin="bevel" stroke-miterlimit="10" stroke-width="0.5" stroke-dasharray=""/><path fill="rgb(140,86,75)" stroke="rgb(0,0,0)" paint-order="fill" d="M 927.9541015625 80.36363983154297 L 939.19970703125 80.36363983154297 L 939.19970703125 103.01276397705078 L 927.9541015625 103.01276397705078 L 927.9541015625 80.36363983154297" fill-opacity="0.9019607843137255" clip-path="url(#avIoZTbWhxAC)" stroke-opacity="0.2" stroke-linejoin="bevel" stroke-miterlimit="10" stroke-width="0.5" stroke-dasharray=""/><g clip-path="url(#yltwirBccTVz)"><text fill="rgb(0,0,0)" stroke="none" font-family="helvetica" font-size="8pt" font-style="normal" font-weight="normal" text-decoration="normal" x="0" y="0" text-anchor="end" dominant-baseline="central" transform="matrix(1, 0, 0, 1, 186.68118286132812, 620.5125122070312)" fill-opacity="1">ILS - 45</text></g><g clip-path="url(#yltwirBccTVz)"><text fill="rgb(0,0,0)" stroke="none" font-family="helvetica" font-size="8pt" font-style="normal" font-weight="normal" text-decoration="normal" x="0" y="0" text-anchor="end" dominant-baseline="central" transform="matrix(1, 0, 0, 1, 925.1427001953125, 899.8204956054688)" fill-opacity="1">Atlas IIAS - 21</text></g><g clip-path="url(#yltwirBccTVz)"><text fill="rgb(0,0,0)" stroke="none" font-family="helvetica" font-size="8pt" font-style="normal" font-weight="normal" text-decoration="normal" x="0" y="0" text-anchor="end" dominant-baseline="central" transform="matrix(1, 0, 0, 1, 925.1427001953125, 578.5035400390625)" fill-opacity="1">Atlas IIA - 7</text></g><g clip-path="url(#yltwirBccTVz)"><text fill="rgb(0,0,0)" stroke="none" font-family="helvetica" font-size="8pt" font-style="normal" font-weight="normal" text-decoration="normal" x="0" y="0" text-anchor="end" dominant-baseline="central" transform="matrix(1, 0, 0, 1, 925.1427001953125, 438.3796691894531)" fill-opacity="1">Proton-M/Briz-M - 5</text></g><g clip-path="url(#yltwirBccTVz)"><text fill="rgb(0,0,0)" stroke="none" font-family="helvetica" font-size="8pt" font-style="normal" font-weight="normal" text-decoration="normal" x="0" y="0" text-anchor="end" dominant-baseline="central" transform="matrix(1, 0, 0, 1, 925.1427001953125, 343.5540466308594)" fill-opacity="1">Atlas V 401 - 3</text></g><g clip-path="url(#yltwirBccTVz)"><text fill="rgb(0,0,0)" stroke="none" font-family="helvetica" font-size="8pt" font-style="normal" font-weight="normal" text-decoration="normal" x="0" y="0" text-anchor="end" dominant-baseline="central" transform="matrix(1, 0, 0, 1, 925.1427001953125, 282.7021484375)" fill-opacity="1">Atlas IIIA - 2</text></g><g clip-path="url(#yltwirBccTVz)"><text fill="rgb(0,0,0)" stroke="none" font-family="helvetica" font-size="8pt" font-style="normal" font-weight="normal" text-decoration="normal" x="0" y="0" text-anchor="end" dominant-baseline="central" transform="matrix(1, 0, 0, 1, 925.1427001953125, 233.17478942871094)" fill-opacity="1">Atlas IIIB - 2</text></g><g clip-path="url(#yltwirBccTVz)"><text fill="rgb(0,0,0)" stroke="none" font-family="helvetica" font-size="8pt" font-style="normal" font-weight="normal" text-decoration="normal" x="0" y="0" text-anchor="end" dominant-baseline="central" transform="matrix(1, 0, 0, 1, 925.1427001953125, 183.64743041992188)" fill-opacity="1">Atlas V 521 - 2</text></g><g clip-path="url(#yltwirBccTVz)"><text fill="rgb(0,0,0)" stroke="none" font-family="helvetica" font-size="8pt" font-style="normal" font-weight="normal" text-decoration="normal" x="0" y="0" text-anchor="end" dominant-baseline="central" transform="matrix(1, 0, 0, 1, 925.1427001953125, 145.44464111328125)" fill-opacity="1">Atlas V 411 - 1</text></g><g clip-path="url(#yltwirBccTVz)"><text fill="rgb(0,0,0)" stroke="none" font-family="helvetica" font-size="8pt" font-style="normal" font-weight="normal" text-decoration="normal" x="0" y="0" text-anchor="end" dominant-baseline="central" transform="matrix(1, 0, 0, 1, 925.1427001953125, 118.56642150878906)" fill-opacity="1">Atlas V 431 - 1</text></g><g clip-path="url(#yltwirBccTVz)"><text fill="rgb(0,0,0)" stroke="none" font-family="helvetica" font-size="8pt" font-style="normal" font-weight="normal" text-decoration="normal" x="0" y="0" text-anchor="end" dominant-baseline="central" transform="matrix(1, 0, 0, 1, 925.1427001953125, 91.68820190429688)" fill-opacity="1">Atlas V 551 - 1</text></g><text fill="rgb(68,68,68)" stroke="none" font-family="helvetica" font-size="13px" font-style="normal" font-weight="bold" text-decoration="normal" x="10" y="19.1689453125" text-anchor="start" dominant-baseline="alphabetic" transform="matrix(1, 0, 0, 1, 0.5, 0.5)" fill-opacity="1">ILS Rocket Successes</text></svg>