<svg version="1.1" xmlns="http://www.w3.org/2000/svg" width="1000" height="1200"><defs><clipPath id="PtfChDNCOMLy"><path fill="none" stroke="none" d="M 10.5 27.5 L 970.5 27.5 L 970.5 1190.5 L 10.5 1190.5 L 10.5 27.5"/></clipPath><clipPath id="eItpzWzQmxhd"><path fill="none" stroke="none" d="M 10.5 27.5 L 970.5 27.5 L 970.5 1190.5 L 10.5 1190.5 L 10.5 27.5"/></clipPath><clipPath id="HhQScDpsvfPD"><path fill="none" stroke="none" d="M 10.5 27.5 L 970.5 27.5 L 970.5 1190.5 L 10.5 1190.5 L 10.5 27.5"/></clipPath><clipPath id="TSOBJhgdLkJh"><path fill="none" stroke="none" d="M 10.5 27.5 L 970.5 27.5 L 970.5 1190.5 L 10.5 1190.5 L 10.5 27.5"/></clipPath><clipPath id="slrvxVOyQSfF"><path fill="none" stroke="none" d="M 10.5 27.5 L 970.5 27.5 L 970.5 1190.5 L 10.5 1190.5 L 10.5 27.5"/></clipPath><clipPath id="FfVcplkTfWyz"><path fill="none" stroke="none" d="M 10.5 27.5 L 970.5 27.5 L 970.5 1190.5 L 10.5 1190.5 L 10.5 27.5"/></clipPath></defs><path fill="rgb(255,255,255)" stroke="none" paint-order="stroke" d="M 0.5 0.5 L 1000.5 0.5 L 1000.5 1200.5 L 0.5 1200.5 L 0.5 0.5" fill-opacity="1"/><rect fill="#FFFFFF" stroke="none" x="10" y="27" width="960" height="1163" transform="matrix(1, 0, 0, 1, 0.5, 0.5)"/><path fill="rgb(255,250,250)" stroke="none" paint-order="stroke" d="M 10.5 27.5 L 970.5 27.5 L 970.5 1190.5 L 10.5 1190.5 L 10.5 27.5" fill-opacity="1"/><path fill="rgb(174,199,232)" stroke="rgb(174,199,232)" paint-order="fill" d="M 200.73818969726562 850.3834838867188 L 200.73818969726562 1128.2022705078125 L 200.73818969726562 1128.2022705078125 L 222.5517578125 1128.2138671875 L 243.4937744140625 1128.248046875 L 263.601318359375 1128.303955078125 L 282.9114990234375 1128.380615234375 L 301.4613952636719 1128.4769287109375 L 319.2880554199219 1128.5919189453125 L 336.4286193847656 1128.724853515625 L 352.920166015625 1128.87451171875 L 368.79974365234375 1129.0401611328125 L 384.1044921875 1129.2205810546875 L 398.8714294433594 1129.4150390625 L 413.1377258300781 1129.62255859375 L 426.9404296875 1129.842041015625 L 440.3166198730469 1130.072509765625 L 453.3033752441406 1130.313232421875 L 465.9378356933594 1130.56298828125 L 478.25701904296875 1130.8209228515625 L 490.2980651855469 1131.086181640625 L 502.0980529785156 1131.3575439453125 L 513.6940307617188 1131.63427734375 L 525.1231079101562 1131.9154052734375 L 536.4224243164062 1132.1998291015625 L 547.6290283203125 1132.4866943359375 L 558.7799682617188 1132.77490234375 L 569.912353515625 1133.063720703125 L 581.0632934570312 1133.3519287109375 L 592.2698974609375 1133.6387939453125 L 603.5691528320312 1133.9232177734375 L 614.998291015625 1134.204345703125 L 626.59423828125 1134.48095703125 L 638.3942260742188 1134.75244140625 L 650.435302734375 1135.0177001953125 L 662.7544555664062 1135.275634765625 L 675.388916015625 1135.525390625 L 688.3756713867188 1135.7659912109375 L 701.7518920898438 1135.99658203125 L 715.5545654296875 1136.216064453125 L 729.8208618164062 1136.4234619140625 L 744.5878295898438 1136.617919921875 L 759.892578125 1136.7984619140625 L 775.7721557617188 1136.964111328125 L 792.263671875 1137.11376953125 L 809.4042358398438 1137.2467041015625 L 827.2308959960938 1137.3616943359375 L 845.7808227539062 1137.4580078125 L 865.0910034179688 1137.5345458984375 L 885.1985473632812 1137.5904541015625 L 906.1405639648438 1137.624755859375 L 927.9541015625 1137.6363525390625 L 927.9541015625 1137.6363525390625 L 927.9541015625 859.817626953125 L 927.9541015625 859.817626953125 L 906.1405639648438 859.8059692382812 L 885.1985473632812 859.771728515625 L 865.0910034179688 859.7158813476562 L 845.7808227539062 859.6392822265625 L 827.2308959960938 859.54296875 L 809.4042358398438 859.4279174804688 L 792.263671875 859.2950439453125 L 775.7721557617188 859.1453247070312 L 759.892578125 858.979736328125 L 744.5878295898438 858.7992553710938 L 729.8208618164062 858.6047973632812 L 715.5545654296875 858.3973388671875 L 701.7518920898438 858.1778564453125 L 688.3756713867188 857.9473266601562 L 675.388916015625 857.7066650390625 L 662.7544555664062 857.4568481445312 L 650.435302734375 857.1989135742188 L 638.3942260742188 856.9337158203125 L 626.59423828125 856.6622924804688 L 614.998291015625 856.3855590820312 L 603.5691528320312 856.1044921875 L 592.2698974609375 855.820068359375 L 581.0632934570312 855.533203125 L 569.912353515625 855.2449340820312 L 558.7799682617188 854.9561767578125 L 547.6290283203125 854.6679077148438 L 536.4224243164062 854.3810424804688 L 525.1231079101562 854.0966186523438 L 513.6940307617188 853.8155517578125 L 502.0980529785156 853.538818359375 L 490.2980651855469 853.2673950195312 L 478.25701904296875 853.002197265625 L 465.9378356933594 852.7442626953125 L 453.3033752441406 852.4944458007812 L 440.3166198730469 852.2538452148438 L 426.9404296875 852.0232543945312 L 413.1377258300781 851.8037719726562 L 398.8714294433594 851.5963745117188 L 384.1044921875 851.4019165039062 L 368.79974365234375 851.2213745117188 L 352.920166015625 851.0557861328125 L 336.4286193847656 850.9060668945312 L 319.2880554199219 850.773193359375 L 301.4613952636719 850.6581420898438 L 282.9114990234375 850.5618286132812 L 263.601318359375 850.4852294921875 L 243.4937744140625 850.4293823242188 L 222.5517578125 850.3951416015625 L 200.73818969726562 850.3834838867188 Z" fill-opacity="0.6" clip-path="url(#HhQScDpsvfPD)" stroke-opacity="1" stroke-linejoin="bevel" stroke-miterlimit="10" stroke-width="0.8" stroke-dasharray=""/><path fill="rgb(255,127,14)" stroke="rgb(255,127,14)" paint-order="fill" d="M 200.73818969726562 691.6299438476562 L 200.73818969726562 850.3834838867188 L 200.73818969726562 850.3834838867188 L 222.5517578125 850.389892578125 L 243.4937744140625 850.4088134765625 L 263.601318359375 850.4396362304688 L 282.9114990234375 850.4818725585938 L 301.4613952636719 850.5350341796875 L 319.2880554199219 850.5985107421875 L 336.4286193847656 850.6718139648438 L 352.920166015625 850.75439453125 L 368.79974365234375 850.8457641601562 L 384.1044921875 850.9453735351562 L 398.8714294433594 851.0526733398438 L 413.1377258300781 851.1671142578125 L 426.9404296875 851.2882080078125 L 440.3166198730469 851.4154052734375 L 453.3033752441406 851.5481567382812 L 465.9378356933594 851.6859741210938 L 478.25701904296875 851.8283081054688 L 490.2980651855469 851.974609375 L 502.0980529785156 852.1243896484375 L 513.6940307617188 852.2770385742188 L 525.1231079101562 852.43212890625 L 536.4224243164062 852.5890502929688 L 547.6290283203125 852.747314453125 L 558.7799682617188 852.9063720703125 L 569.912353515625 853.065673828125 L 581.0632934570312 853.2247314453125 L 592.2698974609375 853.3829956054688 L 603.5691528320312 853.5399169921875 L 614.998291015625 853.6949462890625 L 626.59423828125 853.84765625 L 638.3942260742188 853.9974365234375 L 650.435302734375 854.1437377929688 L 662.7544555664062 854.2860717773438 L 675.388916015625 854.4238891601562 L 688.3756713867188 854.556640625 L 701.7518920898438 854.683837890625 L 715.5545654296875 854.804931640625 L 729.8208618164062 854.9193725585938 L 744.5878295898438 855.0266723632812 L 759.892578125 855.126220703125 L 775.7721557617188 855.2175903320312 L 792.263671875 855.3002319335938 L 809.4042358398438 855.37353515625 L 827.2308959960938 855.43701171875 L 845.7808227539062 855.4901123046875 L 865.0910034179688 855.5324096679688 L 885.1985473632812 855.563232421875 L 906.1405639648438 855.5820922851562 L 927.9541015625 855.5885009765625 L 927.9541015625 855.5885009765625 L 927.9541015625 696.8349609375 L 927.9541015625 696.8349609375 L 906.1405639648438 696.8285522460938 L 885.1985473632812 696.8096313476562 L 865.0910034179688 696.77880859375 L 845.7808227539062 696.736572265625 L 827.2308959960938 696.6834106445312 L 809.4042358398438 696.6199340820312 L 792.263671875 696.546630859375 L 775.7721557617188 696.4640502929688 L 759.892578125 696.3726806640625 L 744.5878295898438 696.2730712890625 L 729.8208618164062 696.1658325195312 L 715.5545654296875 696.0513305664062 L 701.7518920898438 695.9302368164062 L 688.3756713867188 695.8030395507812 L 675.388916015625 695.6702880859375 L 662.7544555664062 695.532470703125 L 650.435302734375 695.39013671875 L 638.3942260742188 695.2438354492188 L 626.59423828125 695.0940551757812 L 614.998291015625 694.94140625 L 603.5691528320312 694.7863159179688 L 592.2698974609375 694.62939453125 L 581.0632934570312 694.4711303710938 L 569.912353515625 694.3121337890625 L 558.7799682617188 694.1527709960938 L 547.6290283203125 693.9937133789062 L 536.4224243164062 693.8355102539062 L 525.1231079101562 693.6785888671875 L 513.6940307617188 693.5234985351562 L 502.0980529785156 693.3707885742188 L 490.2980651855469 693.2210693359375 L 478.25701904296875 693.0747680664062 L 465.9378356933594 692.9324340820312 L 453.3033752441406 692.7946166992188 L 440.3166198730469 692.6618041992188 L 426.9404296875 692.5346069335938 L 413.1377258300781 692.41357421875 L 398.8714294433594 692.299072265625 L 384.1044921875 692.1918334960938 L 368.79974365234375 692.0922241210938 L 352.920166015625 692.0008544921875 L 336.4286193847656 691.9182739257812 L 319.2880554199219 691.844970703125 L 301.4613952636719 691.7814331054688 L 282.9114990234375 691.7283325195312 L 263.601318359375 691.6860961914062 L 243.4937744140625 691.6552124023438 L 222.5517578125 691.6363525390625 L 200.73818969726562 691.6299438476562 Z" fill-opacity="0.6" clip-path="url(#HhQScDpsvfPD)" stroke-opacity="1" stroke-linejoin="bevel" stroke-miterlimit="10" stroke-width="0.8" stroke-dasharray=""/><path fill="rgb(255,187,120)" stroke="rgb(255,187,120)" paint-order="fill" d="M 200.73818969726562 532.8763427734375 L 200.73818969726562 691.6299438476562 L 200.73818969726562 691.6299438476562 L 222.5517578125 691.631103515625 L 243.4937744140625 691.6347045898438 L 263.601318359375 691.6404418945312 L 282.9114990234375 691.6483764648438 L 301.4613952636719 691.6583251953125 L 319.2880554199219 691.6702270507812 L 336.4286193847656 691.6840209960938 L 352.920166015625 691.699462890625 L 368.79974365234375 691.7166137695312 L 384.1044921875 691.7352905273438 L 398.8714294433594 691.75537109375 L 413.1377258300781 691.77685546875 L 426.9404296875 691.799560546875 L 440.3166198730469 691.8234252929688 L 453.3033752441406 691.8483276367188 L 465.9378356933594 691.8741455078125 L 478.25701904296875 691.9008178710938 L 490.2980651855469 691.9282836914062 L 502.0980529785156 691.9563598632812 L 513.6940307617188 691.9849853515625 L 525.1231079101562 692.0140380859375 L 536.4224243164062 692.04345703125 L 547.6290283203125 692.0731201171875 L 558.7799682617188 692.1029663085938 L 569.912353515625 692.1328125 L 581.0632934570312 692.1626586914062 L 592.2698974609375 692.1923217773438 L 603.5691528320312 692.2217407226562 L 614.998291015625 692.2508544921875 L 626.59423828125 692.2794799804688 L 638.3942260742188 692.3075561523438 L 650.435302734375 692.3349609375 L 662.7544555664062 692.3616333007812 L 675.388916015625 692.3875122070312 L 688.3756713867188 692.4124145507812 L 701.7518920898438 692.4362182617188 L 715.5545654296875 692.4589233398438 L 729.8208618164062 692.4804077148438 L 744.5878295898438 692.5005493164062 L 759.892578125 692.5192260742188 L 775.7721557617188 692.5363159179688 L 792.263671875 692.5518188476562 L 809.4042358398438 692.5655517578125 L 827.2308959960938 692.5774536132812 L 845.7808227539062 692.58740234375 L 865.0910034179688 692.5953369140625 L 885.1985473632812 692.6011352539062 L 906.1405639648438 692.6046752929688 L 927.9541015625 692.6058959960938 L 927.9541015625 692.6058959960938 L 927.9541015625 533.852294921875 L 927.9541015625 533.852294921875 L 906.1405639648438 533.8511352539062 L 885.1985473632812 533.8475341796875 L 865.0910034179688 533.841796875 L 845.7808227539062 533.8338623046875 L 827.2308959960938 533.8239135742188 L 809.4042358398438 533.81201171875 L 792.263671875 533.7982177734375 L 775.7721557617188 533.7827758789062 L 759.892578125 533.765625 L 744.5878295898438 533.7469482421875 L 729.8208618164062 533.7268676757812 L 715.5545654296875 533.7053833007812 L 701.7518920898438 533.6826782226562 L 688.3756713867188 533.6588134765625 L 675.388916015625 533.6339111328125 L 662.7544555664062 533.6080932617188 L 650.435302734375 533.5814208984375 L 638.3942260742188 533.553955078125 L 626.59423828125 533.52587890625 L 614.998291015625 533.4972534179688 L 603.5691528320312 533.4682006835938 L 592.2698974609375 533.4387817382812 L 581.0632934570312 533.4091186523438 L 569.912353515625 533.3792724609375 L 558.7799682617188 533.3494262695312 L 547.6290283203125 533.319580078125 L 536.4224243164062 533.2899169921875 L 525.1231079101562 533.260498046875 L 513.6940307617188 533.2313842773438 L 502.0980529785156 533.2027587890625 L 490.2980651855469 533.1746826171875 L 478.25701904296875 533.1472778320312 L 465.9378356933594 533.12060546875 L 453.3033752441406 533.0947265625 L 440.3166198730469 533.06982421875 L 426.9404296875 533.0460205078125 L 413.1377258300781 533.0233154296875 L 398.8714294433594 533.0018310546875 L 384.1044921875 532.981689453125 L 368.79974365234375 532.9630126953125 L 352.920166015625 532.9459228515625 L 336.4286193847656 532.930419921875 L 319.2880554199219 532.9166870117188 L 301.4613952636719 532.90478515625 L 282.9114990234375 532.8948364257812 L 263.601318359375 532.8869018554688 L 243.4937744140625 532.881103515625 L 222.5517578125 532.8775634765625 L 200.73818969726562 532.8763427734375 Z" fill-opacity="0.6" clip-path="url(#HhQScDpsvfPD)" stroke-opacity="1" stroke-linejoin="bevel" stroke-miterlimit="10" stroke-width="0.8" stroke-dasharray=""/><path fill="rgb(44,160,44)" stroke="rgb(44,160,44)" paint-order="fill" d="M 200.73818969726562 374.122802734375 L 200.73818969726562 532.8763427734375 L 200.73818969726562 532.8763427734375 L 222.5517578125 532.8723754882812 L 243.4937744140625 532.8605346679688 L 263.601318359375 532.8412475585938 L 282.9114990234375 532.8148803710938 L 301.4613952636719 532.7816772460938 L 319.2880554199219 532.7420043945312 L 336.4286193847656 532.6961669921875 L 352.920166015625 532.64453125 L 368.79974365234375 532.5874633789062 L 384.1044921875 532.5252075195312 L 398.8714294433594 532.4581298828125 L 413.1377258300781 532.3865966796875 L 426.9404296875 532.3109130859375 L 440.3166198730469 532.2314453125 L 453.3033752441406 532.1484375 L 465.9378356933594 532.0623168945312 L 478.25701904296875 531.9733276367188 L 490.2980651855469 531.8818969726562 L 502.0980529785156 531.788330078125 L 513.6940307617188 531.69287109375 L 525.1231079101562 531.595947265625 L 536.4224243164062 531.4978637695312 L 547.6290283203125 531.3989868164062 L 558.7799682617188 531.299560546875 L 569.912353515625 531.2000122070312 L 581.0632934570312 531.1005859375 L 592.2698974609375 531.001708984375 L 603.5691528320312 530.9036254882812 L 614.998291015625 530.8067016601562 L 626.59423828125 530.7112426757812 L 638.3942260742188 530.61767578125 L 650.435302734375 530.5262451171875 L 662.7544555664062 530.437255859375 L 675.388916015625 530.3511352539062 L 688.3756713867188 530.2681274414062 L 701.7518920898438 530.1886596679688 L 715.5545654296875 530.1129760742188 L 729.8208618164062 530.0414428710938 L 744.5878295898438 529.974365234375 L 759.892578125 529.9121704101562 L 775.7721557617188 529.8550415039062 L 792.263671875 529.8034057617188 L 809.4042358398438 529.7576293945312 L 827.2308959960938 529.7178955078125 L 845.7808227539062 529.6846923828125 L 865.0910034179688 529.6583251953125 L 885.1985473632812 529.6390380859375 L 906.1405639648438 529.627197265625 L 927.9541015625 529.6232299804688 L 927.9541015625 529.6232299804688 L 927.9541015625 370.8696594238281 L 927.9541015625 370.8696594238281 L 906.1405639648438 370.8736572265625 L 885.1985473632812 370.8854675292969 L 865.0910034179688 370.9047546386719 L 845.7808227539062 370.93115234375 L 827.2308959960938 370.96435546875 L 809.4042358398438 371.0040283203125 L 792.263671875 371.04986572265625 L 775.7721557617188 371.1014709472656 L 759.892578125 371.1585693359375 L 744.5878295898438 371.2208251953125 L 729.8208618164062 371.2878723144531 L 715.5545654296875 371.3594055175781 L 701.7518920898438 371.4350891113281 L 688.3756713867188 371.51458740234375 L 675.388916015625 371.5975646972656 L 662.7544555664062 371.6837158203125 L 650.435302734375 371.77264404296875 L 638.3942260742188 371.8641052246094 L 626.59423828125 371.95770263671875 L 614.998291015625 372.0531311035156 L 603.5691528320312 372.1500549316406 L 592.2698974609375 372.24810791015625 L 581.0632934570312 372.3470458984375 L 569.912353515625 372.4464416503906 L 558.7799682617188 372.5460205078125 L 547.6290283203125 372.6454162597656 L 536.4224243164062 372.74432373046875 L 525.1231079101562 372.8424072265625 L 513.6940307617188 372.9393310546875 L 502.0980529785156 373.0347595214844 L 490.2980651855469 373.12835693359375 L 478.25701904296875 373.21978759765625 L 465.9378356933594 373.3087463378906 L 453.3033752441406 373.3948669433594 L 440.3166198730469 373.47784423828125 L 426.9404296875 373.5573425292969 L 413.1377258300781 373.6330261230469 L 398.8714294433594 373.7045593261719 L 384.1044921875 373.7716369628906 L 368.79974365234375 373.8338623046875 L 352.920166015625 373.8909606933594 L 336.4286193847656 373.9425964355469 L 319.2880554199219 373.9884033203125 L 301.4613952636719 374.0281066894531 L 282.9114990234375 374.0613098144531 L 263.601318359375 374.08770751953125 L 243.4937744140625 374.10699462890625 L 222.5517578125 374.1187744140625 L 200.73818969726562 374.122802734375 Z" fill-opacity="0.6" clip-path="url(#HhQScDpsvfPD)" stroke-opacity="1" stroke-linejoin="bevel" stroke-miterlimit="10" stroke-width="0.8" stroke-dasharray=""/><path fill="rgb(152,223,138)" stroke="rgb(152,223,138)" paint-order="fill" d="M 200.73818969726562 255.0576171875 L 200.73818969726562 374.122802734375 L 200.73818969726562 374.122802734375 L 222.5517578125 374.11358642578125 L 243.4937744140625 374.08642578125 L 263.601318359375 374.0420837402344 L 282.9114990234375 373.9813537597656 L 301.4613952636719 373.90496826171875 L 319.2880554199219 373.813720703125 L 336.4286193847656 373.7083435058594 L 352.920166015625 373.589599609375 L 368.79974365234375 373.458251953125 L 384.1044921875 373.3150939941406 L 398.8714294433594 373.160888671875 L 413.1377258300781 372.996337890625 L 426.9404296875 372.8222961425781 L 440.3166198730469 372.6394348144531 L 453.3033752441406 372.4485778808594 L 465.9378356933594 372.2504577636719 L 478.25701904296875 372.0458679199219 L 490.2980651855469 371.8355712890625 L 502.0980529785156 371.6202697753906 L 513.6940307617188 371.40081787109375 L 525.1231079101562 371.1778869628906 L 536.4224243164062 370.9523010253906 L 547.6290283203125 370.7248229980469 L 558.7799682617188 370.4961853027344 L 569.912353515625 370.2671813964844 L 581.0632934570312 370.0385437011719 L 592.2698974609375 369.81103515625 L 603.5691528320312 369.58544921875 L 614.998291015625 369.362548828125 L 626.59423828125 369.14306640625 L 638.3942260742188 368.92779541015625 L 650.435302734375 368.71746826171875 L 662.7544555664062 368.51287841796875 L 675.388916015625 368.3147888183594 L 688.3756713867188 368.1239318847656 L 701.7518920898438 367.9410705566406 L 715.5545654296875 367.7669982910156 L 729.8208618164062 367.60247802734375 L 744.5878295898438 367.4482421875 L 759.892578125 367.3050842285156 L 775.7721557617188 367.17376708984375 L 792.263671875 367.0550231933594 L 809.4042358398438 366.94964599609375 L 827.2308959960938 366.8583679199219 L 845.7808227539062 366.7820129394531 L 865.0910034179688 366.72125244140625 L 885.1985473632812 366.67694091796875 L 906.1405639648438 366.6497802734375 L 927.9541015625 366.64056396484375 L 927.9541015625 366.64056396484375 L 927.9541015625 247.57537841796875 L 927.9541015625 247.57537841796875 L 906.1405639648438 247.58460998535156 L 885.1985473632812 247.61175537109375 L 865.0910034179688 247.65609741210938 L 845.7808227539062 247.71682739257812 L 827.2308959960938 247.793212890625 L 809.4042358398438 247.8844757080078 L 792.263671875 247.98985290527344 L 775.7721557617188 248.1085968017578 L 759.892578125 248.2399139404297 L 744.5878295898438 248.38307189941406 L 729.8208618164062 248.5373077392578 L 715.5545654296875 248.7018280029297 L 701.7518920898438 248.8759002685547 L 688.3756713867188 249.05874633789062 L 675.388916015625 249.24960327148438 L 662.7544555664062 249.4477081298828 L 650.435302734375 249.6522979736328 L 638.3942260742188 249.8626251220703 L 626.59423828125 250.07789611816406 L 614.998291015625 250.29737854003906 L 603.5691528320312 250.52029418945312 L 592.2698974609375 250.74586486816406 L 581.0632934570312 250.97335815429688 L 569.912353515625 251.20199584960938 L 558.7799682617188 251.43101501464844 L 547.6290283203125 251.65965270996094 L 536.4224243164062 251.8871307373047 L 525.1231079101562 252.1127166748047 L 513.6940307617188 252.33563232421875 L 502.0980529785156 252.5550994873047 L 490.2980651855469 252.7703857421875 L 478.25701904296875 252.98069763183594 L 465.9378356933594 253.185302734375 L 453.3033752441406 253.38340759277344 L 440.3166198730469 253.5742645263672 L 426.9404296875 253.75711059570312 L 413.1377258300781 253.93116760253906 L 398.8714294433594 254.095703125 L 384.1044921875 254.2499237060547 L 368.79974365234375 254.39308166503906 L 352.920166015625 254.5244140625 L 336.4286193847656 254.64315795898438 L 319.2880554199219 254.74853515625 L 301.4613952636719 254.8397979736328 L 282.9114990234375 254.9161834716797 L 263.601318359375 254.97691345214844 L 243.4937744140625 255.021240234375 L 222.5517578125 255.04840087890625 L 200.73818969726562 255.0576171875 Z" fill-opacity="0.6" clip-path="url(#HhQScDpsvfPD)" stroke-opacity="1" stroke-linejoin="bevel" stroke-miterlimit="10" stroke-width="0.8" stroke-dasharray=""/><path fill="rgb(214,39,40)" stroke="rgb(214,39,40)" paint-order="fill" d="M 200.73818969726562 175.6808319091797 L 200.73818969726562 255.0576171875 L 200.73818969726562 255.0576171875 L 222.5517578125 255.04318237304688 L 243.4937744140625 255.0006866455078 L 263.601318359375 254.93130493164062 L 282.9114990234375 254.83624267578125 L 301.4613952636719 254.7166748046875 L 319.2880554199219 254.57383728027344 L 336.4286193847656 254.4088897705078 L 352.920166015625 254.22303771972656 L 368.79974365234375 254.01748657226562 L 384.1044921875 253.7934112548828 L 398.8714294433594 253.552001953125 L 413.1377258300781 253.29449462890625 L 426.9404296875 253.02203369140625 L 440.3166198730469 252.73583984375 L 453.3033752441406 252.43710327148438 L 465.9378356933594 252.1270294189453 L 478.25701904296875 251.80679321289062 L 490.2980651855469 251.47760009765625 L 502.0980529785156 251.14064025878906 L 513.6940307617188 250.79710388183594 L 525.1231079101562 250.44821166992188 L 536.4224243164062 250.09512329101562 L 547.6290283203125 249.73904418945312 L 558.7799682617188 249.38119506835938 L 569.912353515625 249.02272033691406 L 581.0632934570312 248.6648712158203 L 592.2698974609375 248.3087921142578 L 603.5691528320312 247.95570373535156 L 614.998291015625 247.6068115234375 L 626.59423828125 247.26327514648438 L 638.3942260742188 246.9263153076172 L 650.435302734375 246.5971221923828 L 662.7544555664062 246.27688598632812 L 675.388916015625 245.96681213378906 L 688.3756713867188 245.66807556152344 L 701.7518920898438 245.3818817138672 L 715.5545654296875 245.10943603515625 L 729.8208618164062 244.85191345214844 L 744.5878295898438 244.61050415039062 L 759.892578125 244.3864288330078 L 775.7721557617188 244.18087768554688 L 792.263671875 243.99502563476562 L 809.4042358398438 243.830078125 L 827.2308959960938 243.68724060058594 L 845.7808227539062 243.56768798828125 L 865.0910034179688 243.4726104736328 L 885.1985473632812 243.40322875976562 L 906.1405639648438 243.36073303222656 L 927.9541015625 243.34629821777344 L 927.9541015625 243.34629821777344 L 927.9541015625 163.96951293945312 L 927.9541015625 163.96951293945312 L 906.1405639648438 163.98394775390625 L 885.1985473632812 164.0264434814453 L 865.0910034179688 164.0958251953125 L 845.7808227539062 164.19090270996094 L 827.2308959960938 164.31045532226562 L 809.4042358398438 164.4532928466797 L 792.263671875 164.6182403564453 L 775.7721557617188 164.80409240722656 L 759.892578125 165.00965881347656 L 744.5878295898438 165.23373413085938 L 729.8208618164062 165.47512817382812 L 715.5545654296875 165.73265075683594 L 701.7518920898438 166.00509643554688 L 688.3756713867188 166.29129028320312 L 675.388916015625 166.59002685546875 L 662.7544555664062 166.9001007080078 L 650.435302734375 167.2203369140625 L 638.3942260742188 167.54953002929688 L 626.59423828125 167.88648986816406 L 614.998291015625 168.2300262451172 L 603.5691528320312 168.57891845703125 L 592.2698974609375 168.9320068359375 L 581.0632934570312 169.2880859375 L 569.912353515625 169.6459503173828 L 558.7799682617188 170.00440979003906 L 547.6290283203125 170.36227416992188 L 536.4224243164062 170.7183380126953 L 525.1231079101562 171.07142639160156 L 513.6940307617188 171.4203338623047 L 502.0980529785156 171.76385498046875 L 490.2980651855469 172.10081481933594 L 478.25701904296875 172.4300079345703 L 465.9378356933594 172.750244140625 L 453.3033752441406 173.06033325195312 L 440.3166198730469 173.3590545654297 L 426.9404296875 173.64524841308594 L 413.1377258300781 173.91770935058594 L 398.8714294433594 174.17523193359375 L 384.1044921875 174.4166259765625 L 368.79974365234375 174.6407012939453 L 352.920166015625 174.84625244140625 L 336.4286193847656 175.0321044921875 L 319.2880554199219 175.19705200195312 L 301.4613952636719 175.33990478515625 L 282.9114990234375 175.45945739746094 L 263.601318359375 175.5545196533203 L 243.4937744140625 175.6239013671875 L 222.5517578125 175.66641235351562 L 200.73818969726562 175.6808319091797 Z" fill-opacity="0.6" clip-path="url(#HhQScDpsvfPD)" stroke-opacity="1" stroke-linejoin="bevel" stroke-miterlimit="10" stroke-width="0.8" stroke-dasharray=""/><path fill="rgb(255,152,150)" stroke="rgb(255,152,150)" paint-order="fill" d="M 200.73818969726562 96.3040542602539 L 200.73818969726562 175.6808319091797 L 200.73818969726562 175.6808319091797 L 222.5517578125 175.66119384765625 L 243.4937744140625 175.60333251953125 L 263.601318359375 175.50889587402344 L 282.9114990234375 175.37950134277344 L 301.4613952636719 175.21678161621094 L 319.2880554199219 175.02235412597656 L 336.4286193847656 174.79783630371094 L 352.920166015625 174.5448760986328 L 368.79974365234375 174.2650909423828 L 384.1044921875 173.96009826660156 L 398.8714294433594 173.63153076171875 L 413.1377258300781 173.28102111816406 L 426.9404296875 172.91017150878906 L 440.3166198730469 172.52064514160156 L 453.3033752441406 172.11402893066406 L 465.9378356933594 171.6919708251953 L 478.25701904296875 171.256103515625 L 490.2980651855469 170.8080291748047 L 502.0980529785156 170.34939575195312 L 513.6940307617188 169.88180541992188 L 525.1231079101562 169.4069061279297 L 536.4224243164062 168.92633056640625 L 547.6290283203125 168.44166564941406 L 558.7799682617188 167.95457458496094 L 569.912353515625 167.4666748046875 L 581.0632934570312 166.97958374023438 L 592.2698974609375 166.49493408203125 L 603.5691528320312 166.01434326171875 L 614.998291015625 165.53944396972656 L 626.59423828125 165.07186889648438 L 638.3942260742188 164.6132354736328 L 650.435302734375 164.1651611328125 L 662.7544555664062 163.72927856445312 L 675.388916015625 163.30723571777344 L 688.3756713867188 162.90061950683594 L 701.7518920898438 162.51107788085938 L 715.5545654296875 162.14024353027344 L 729.8208618164062 161.7897186279297 L 744.5878295898438 161.46116638183594 L 759.892578125 161.1561737060547 L 775.7721557617188 160.87637329101562 L 792.263671875 160.6234130859375 L 809.4042358398438 160.39891052246094 L 827.2308959960938 160.20448303222656 L 845.7808227539062 160.041748046875 L 865.0910034179688 159.912353515625 L 885.1985473632812 159.8179168701172 L 906.1405639648438 159.76007080078125 L 927.9541015625 159.74041748046875 L 927.9541015625 159.74041748046875 L 927.9541015625 80.36363983154297 L 927.9541015625 80.36363983154297 L 906.1405639648438 80.38328552246094 L 885.1985473632812 80.4411392211914 L 865.0910034179688 80.53557586669922 L 845.7808227539062 80.66497039794922 L 827.2308959960938 80.82769775390625 L 809.4042358398438 81.02212524414062 L 792.263671875 81.24663543701172 L 775.7721557617188 81.49959564208984 L 759.892578125 81.77938842773438 L 744.5878295898438 82.0843734741211 L 729.8208618164062 82.4129409790039 L 715.5545654296875 82.76345825195312 L 701.7518920898438 83.1343002319336 L 688.3756713867188 83.52383422851562 L 675.388916015625 83.9304428100586 L 662.7544555664062 84.35250091552734 L 650.435302734375 84.78837585449219 L 638.3942260742188 85.2364501953125 L 626.59423828125 85.69508361816406 L 614.998291015625 86.16266632080078 L 603.5691528320312 86.63756561279297 L 592.2698974609375 87.11814880371094 L 581.0632934570312 87.6028060913086 L 569.912353515625 88.08989715576172 L 558.7799682617188 88.57779693603516 L 547.6290283203125 89.06488800048828 L 536.4224243164062 89.54954528808594 L 525.1231079101562 90.0301284790039 L 513.6940307617188 90.5050277709961 L 502.0980529785156 90.97261047363281 L 490.2980651855469 91.43124389648438 L 478.25701904296875 91.87931823730469 L 465.9378356933594 92.31519317626953 L 453.3033752441406 92.73724365234375 L 440.3166198730469 93.14385986328125 L 426.9404296875 93.53339385986328 L 413.1377258300781 93.90423583984375 L 398.8714294433594 94.25475311279297 L 384.1044921875 94.58331298828125 L 368.79974365234375 94.8883056640625 L 352.920166015625 95.16809844970703 L 336.4286193847656 95.42105865478516 L 319.2880554199219 95.64556884765625 L 301.4613952636719 95.83999633789062 L 282.9114990234375 96.00272369384766 L 263.601318359375 96.13211822509766 L 243.4937744140625 96.22655487060547 L 222.5517578125 96.28440856933594 L 200.73818969726562 96.3040542602539 Z" fill-opacity="0.6" clip-path="url(#HhQScDpsvfPD)" stroke-opacity="1" stroke-linejoin="bevel" stroke-miterlimit="10" stroke-width="0.8" stroke-dasharray=""/><path fill="rgb(31,119,180)" stroke="rgb(0,0,0)" paint-order="fill" d="M 189.49258422851562 96.3040542602539 L 200.73818969726562 96.3040542602539 L 200.73818969726562 1128.2022705078125 L 189.49258422851562 1128.2022705078125 L 189.49258422851562 96.3040542602539" fill-opacity="0.9019607843137255" clip-path="url(#TSOBJhgdLkJh)" stroke-opacity="0.2" stroke-linejoin="bevel" stroke-miterlimit="10" stroke-width="0.5" stroke-dasharray=""/><path fill="rgb(174,199,232)" stroke="rgb(0,0,0)" paint-order="fill" d="M 927.9541015625 859.817626953125 L 939.19970703125 859.817626953125 L 939.19970703125 1137.6363525390625 L 927.9541015625 1137.6363525390625 L 927.9541015625 859.817626953125" fill-opacity="0.9019607843137255" clip-path="url(#TSOBJhgdLkJh)" stroke-opacity="0.2" stroke-linejoin="bevel" stroke-miterlimit="10" stroke-width="0.5" stroke-dasharray=""/><path fill="rgb(255,127,14)" stroke="rgb(0,0,0)" paint-order="fill" d="M 927.9541015625 696.8349609375 L 939.19970703125 696.8349609375 L 939.19970703125 855.5885009765625 L 927.9541015625 855.5885009765625 L 927.9541015625 696.8349609375" fill-opacity="0.9019607843137255" clip-path="url(#TSOBJhgdLkJh)" stroke-opacity="0.2" stroke-linejoin="bevel" stroke-miterlimit="10" stroke-width="0.5" stroke-dasharray=""/><path fill="rgb(255,187,120)" stroke="rgb(0,0,0)" paint-order="fill" d="M 927.9541015625 533.852294921875 L 939.19970703125 533.852294921875 L 939.19970703125 692.6058959960938 L 927.9541015625 692.6058959960938 L 927.9541015625 533.852294921875" fill-opacity="0.9019607843137255" clip-path="url(#TSOBJhgdLkJh)" stroke-opacity="0.2" stroke-linejoin="bevel" stroke-miterlimit="10" stroke-width="0.5" stroke-dasharray=""/><path fill="rgb(44,160,44)" stroke="rgb(0,0,0)" paint-order="fill" d="M 927.9541015625 370.8696594238281 L 939.19970703125 370.8696594238281 L 939.19970703125 529.6232299804688 L 927.9541015625 529.6232299804688 L 927.9541015625 370.8696594238281" fill-opacity="0.9019607843137255" clip-path="url(#TSOBJhgdLkJh)" stroke-opacity="0.2" stroke-linejoin="bevel" stroke-miterlimit="10" stroke-width="0.5" stroke-dasharray=""/><path fill="rgb(152,223,138)" stroke="rgb(0,0,0)" paint-order="fill" d="M 927.9541015625 247.57537841796875 L 939.19970703125 247.57537841796875 L 939.19970703125 366.64056396484375 L 927.9541015625 366.64056396484375 L 927.9541015625 247.57537841796875" fill-opacity="0.9019607843137255" clip-path="url(#TSOBJhgdLkJh)" stroke-opacity="0.2" stroke-linejoin="bevel" stroke-miterlimit="10" stroke-width="0.5" stroke-dasharray=""/><path fill="rgb(214,39,40)" stroke="rgb(0,0,0)" paint-order="fill" d="M 927.9541015625 163.96951293945312 L 939.19970703125 163.96951293945312 L 939.19970703125 243.34629821777344 L 927.9541015625 243.34629821777344 L 927.9541015625 163.96951293945312" fill-opacity="0.9019607843137255" clip-path="url(#TSOBJhgdLkJh)" stroke-opacity="0.2" stroke-linejoin="bevel" stroke-miterlimit="10" stroke-width="0.5" stroke-dasharray=""/><path fill="rgb(255,152,150)" stroke="rgb(0,0,0)" paint-order="fill" d="M 927.9541015625 80.36363983154297 L 939.19970703125 80.36363983154297 L 939.19970703125 159.74041748046875 L 927.9541015625 159.74041748046875 L 927.9541015625 80.36363983154297" fill-opacity="0.9019607843137255" clip-path="url(#TSOBJhgdLkJh)" stroke-opacity="0.2" stroke-linejoin="bevel" stroke-miterlimit="10" stroke-width="0.5" stroke-dasharray=""/><g clip-path="url(#slrvxVOyQSfF)"><text fill="rgb(0,0,0)" stroke="none" font-family="helvetica" font-size="8pt" font-style="normal" font-weight="normal" text-decoration="normal" x="0" y="0" text-anchor="end" dominant-baseline="central" transform="matrix(1, 0, 0, 1, 186.68118286132812, 612.253173828125)" fill-opacity="1">ISAS - 26</text></g><g clip-path="url(#slrvxVOyQSfF)"><text fill="rgb(0,0,0)" stroke="none" font-family="helvetica" font-size="8pt" font-style="normal" font-weight="normal" text-decoration="normal" x="0" y="0" text-anchor="end" dominant-baseline="central" transform="matrix(1, 0, 0, 1, 925.1427001953125, 998.7269897460938)" fill-opacity="1">Mu-III S2 - 7</text></g><g clip-path="url(#slrvxVOyQSfF)"><text fill="rgb(0,0,0)" stroke="none" font-family="helvetica" font-size="8pt" font-style="normal" font-weight="normal" text-decoration="normal" x="0" y="0" text-anchor="end" dominant-baseline="central" transform="matrix(1, 0, 0, 1, 925.1427001953125, 776.2117309570312)" fill-opacity="1">Mu-III H - 4</text></g><g clip-path="url(#slrvxVOyQSfF)"><text fill="rgb(0,0,0)" stroke="none" font-family="helvetica" font-size="8pt" font-style="normal" font-weight="normal" text-decoration="normal" x="0" y="0" text-anchor="end" dominant-baseline="central" transform="matrix(1, 0, 0, 1, 925.1427001953125, 613.2290649414062)" fill-opacity="1">Mu-III S - 4</text></g><g clip-path="url(#slrvxVOyQSfF)"><text fill="rgb(0,0,0)" stroke="none" font-family="helvetica" font-size="8pt" font-style="normal" font-weight="normal" text-decoration="normal" x="0" y="0" text-anchor="end" dominant-baseline="central" transform="matrix(1, 0, 0, 1, 925.1427001953125, 450.2464294433594)" fill-opacity="1">Mu-V / M-25 - 4</text></g><g clip-path="url(#slrvxVOyQSfF)"><text fill="rgb(0,0,0)" stroke="none" font-family="helvetica" font-size="8pt" font-style="normal" font-weight="normal" text-decoration="normal" x="0" y="0" text-anchor="end" dominant-baseline="central" transform="matrix(1, 0, 0, 1, 925.1427001953125, 307.10797119140625)" fill-opacity="1">Mu-IV S - 3</text></g><g clip-path="url(#slrvxVOyQSfF)"><text fill="rgb(0,0,0)" stroke="none" font-family="helvetica" font-size="8pt" font-style="normal" font-weight="normal" text-decoration="normal" x="0" y="0" text-anchor="end" dominant-baseline="central" transform="matrix(1, 0, 0, 1, 925.1427001953125, 203.65789794921875)" fill-opacity="1">Mu-III C - 2</text></g><g clip-path="url(#slrvxVOyQSfF)"><text fill="rgb(0,0,0)" stroke="none" font-family="helvetica" font-size="8pt" font-style="normal" font-weight="normal" text-decoration="normal" x="0" y="0" text-anchor="end" dominant-baseline="central" transform="matrix(1, 0, 0, 1, 925.1427001953125, 120.0520248413086)" fill-opacity="1">Mu-V / M-24 - 2</text></g><text fill="rgb(68,68,68)" stroke="none" font-family="helvetica" font-size="13px" font-style="normal" font-weight="bold" text-decoration="normal" x="10" y="19.1689453125" text-anchor="start" dominant-baseline="alphabetic" transform="matrix(1, 0, 0, 1, 0.5, 0.5)" fill-opacity="1">ISAS Rocket Successes</text></svg>