<svg version="1.1" xmlns="http://www.w3.org/2000/svg" width="1000" height="1200"><defs><clipPath id="vWPOSQrJPMze"><path fill="none" stroke="none" d="M 10.5 27.5 L 970.5 27.5 L 970.5 1190.5 L 10.5 1190.5 L 10.5 27.5"/></clipPath><clipPath id="QaXcmqOLTTAH"><path fill="none" stroke="none" d="M 10.5 27.5 L 970.5 27.5 L 970.5 1190.5 L 10.5 1190.5 L 10.5 27.5"/></clipPath><clipPath id="iTnsbvRJGpKo"><path fill="none" stroke="none" d="M 10.5 27.5 L 970.5 27.5 L 970.5 1190.5 L 10.5 1190.5 L 10.5 27.5"/></clipPath><clipPath id="nSShwHVvRhwh"><path fill="none" stroke="none" d="M 10.5 27.5 L 970.5 27.5 L 970.5 1190.5 L 10.5 1190.5 L 10.5 27.5"/></clipPath><clipPath id="gTVViUHtZcZO"><path fill="none" stroke="none" d="M 10.5 27.5 L 970.5 27.5 L 970.5 1190.5 L 10.5 1190.5 L 10.5 27.5"/></clipPath><clipPath id="WxChdNCcliyc"><path fill="none" stroke="none" d="M 10.5 27.5 L 970.5 27.5 L 970.5 1190.5 L 10.5 1190.5 L 10.5 27.5"/></clipPath></defs><path fill="rgb(255,255,255)" stroke="none" paint-order="stroke" d="M 0.5 0.5 L 1000.5 0.5 L 1000.5 1200.5 L 0.5 1200.5 L 0.5 0.5" fill-opacity="1"/><rect fill="#FFFFFF" stroke="none" x="10" y="27" width="960" height="1163" transform="matrix(1, 0, 0, 1, 0.5, 0.5)"/><path fill="rgb(255,250,250)" stroke="none" paint-order="stroke" d="M 10.5 27.5 L 970.5 27.5 L 970.5 1190.5 L 10.5 1190.5 L 10.5 27.5" fill-opacity="1"/><path fill="rgb(174,199,232)" stroke="rgb(174,199,232)" paint-order="fill" d="M 200.73818969726562 784.5072631835938 L 200.73818969726562 1129.2403564453125 L 200.73818969726562 1129.2403564453125 L 222.5517578125 1129.250732421875 L 243.4937744140625 1129.28125 L 263.601318359375 1129.3309326171875 L 282.9114990234375 1129.3990478515625 L 301.4613952636719 1129.4847412109375 L 319.2880554199219 1129.587158203125 L 336.4286193847656 1129.7054443359375 L 352.920166015625 1129.8387451171875 L 368.79974365234375 1129.986083984375 L 384.1044921875 1130.146728515625 L 398.8714294433594 1130.31982421875 L 413.1377258300781 1130.50439453125 L 426.9404296875 1130.69970703125 L 440.3166198730469 1130.9049072265625 L 453.3033752441406 1131.1190185546875 L 465.9378356933594 1131.34130859375 L 478.25701904296875 1131.5709228515625 L 490.2980651855469 1131.806884765625 L 502.0980529785156 1132.0484619140625 L 513.6940307617188 1132.2947998046875 L 525.1231079101562 1132.544921875 L 536.4224243164062 1132.798095703125 L 547.6290283203125 1133.0533447265625 L 558.7799682617188 1133.3099365234375 L 569.912353515625 1133.56689453125 L 581.0632934570312 1133.8233642578125 L 592.2698974609375 1134.0787353515625 L 603.5691528320312 1134.331787109375 L 614.998291015625 1134.5819091796875 L 626.59423828125 1134.8282470703125 L 638.3942260742188 1135.06982421875 L 650.435302734375 1135.3057861328125 L 662.7544555664062 1135.535400390625 L 675.388916015625 1135.7576904296875 L 688.3756713867188 1135.9718017578125 L 701.7518920898438 1136.177001953125 L 715.5545654296875 1136.372314453125 L 729.8208618164062 1136.5570068359375 L 744.5878295898438 1136.72998046875 L 759.892578125 1136.890625 L 775.7721557617188 1137.0380859375 L 792.263671875 1137.1712646484375 L 809.4042358398438 1137.28955078125 L 827.2308959960938 1137.3919677734375 L 845.7808227539062 1137.4776611328125 L 865.0910034179688 1137.5457763671875 L 885.1985473632812 1137.5955810546875 L 906.1405639648438 1137.6259765625 L 927.9541015625 1137.6363525390625 L 927.9541015625 1137.6363525390625 L 927.9541015625 792.9032592773438 L 927.9541015625 792.9032592773438 L 906.1405639648438 792.8929443359375 L 885.1985473632812 792.8624267578125 L 865.0910034179688 792.8126831054688 L 845.7808227539062 792.7445678710938 L 827.2308959960938 792.6588134765625 L 809.4042358398438 792.5564575195312 L 792.263671875 792.4381713867188 L 775.7721557617188 792.304931640625 L 759.892578125 792.1575927734375 L 744.5878295898438 791.9969482421875 L 729.8208618164062 791.8238525390625 L 715.5545654296875 791.6392211914062 L 701.7518920898438 791.4439086914062 L 688.3756713867188 791.23876953125 L 675.388916015625 791.0245971679688 L 662.7544555664062 790.8023071289062 L 650.435302734375 790.5726928710938 L 638.3942260742188 790.3367309570312 L 626.59423828125 790.0951538085938 L 614.998291015625 789.848876953125 L 603.5691528320312 789.5986938476562 L 592.2698974609375 789.3455810546875 L 581.0632934570312 789.09033203125 L 569.912353515625 788.833740234375 L 558.7799682617188 788.5767822265625 L 547.6290283203125 788.3201904296875 L 536.4224243164062 788.06494140625 L 525.1231079101562 787.8118286132812 L 513.6940307617188 787.5617065429688 L 502.0980529785156 787.3154296875 L 490.2980651855469 787.0738525390625 L 478.25701904296875 786.8378295898438 L 465.9378356933594 786.6082763671875 L 453.3033752441406 786.3859252929688 L 440.3166198730469 786.1718139648438 L 426.9404296875 785.9666137695312 L 413.1377258300781 785.7713012695312 L 398.8714294433594 785.586669921875 L 384.1044921875 785.4136352539062 L 368.79974365234375 785.2529907226562 L 352.920166015625 785.1055908203125 L 336.4286193847656 784.9723510742188 L 319.2880554199219 784.8541259765625 L 301.4613952636719 784.751708984375 L 282.9114990234375 784.666015625 L 263.601318359375 784.5978393554688 L 243.4937744140625 784.548095703125 L 222.5517578125 784.5176391601562 L 200.73818969726562 784.5072631835938 Z" fill-opacity="0.6" clip-path="url(#iTnsbvRJGpKo)" stroke-opacity="1" stroke-linejoin="bevel" stroke-miterlimit="10" stroke-width="0.8" stroke-dasharray=""/><path fill="rgb(255,127,14)" stroke="rgb(255,127,14)" paint-order="fill" d="M 200.73818969726562 559.6813354492188 L 200.73818969726562 784.5072631835938 L 200.73818969726562 784.5072631835938 L 222.5517578125 784.5123901367188 L 243.4937744140625 784.5275268554688 L 263.601318359375 784.55224609375 L 282.9114990234375 784.5860595703125 L 301.4613952636719 784.6286010742188 L 319.2880554199219 784.6793823242188 L 336.4286193847656 784.7380981445312 L 352.920166015625 784.80419921875 L 368.79974365234375 784.8773803710938 L 384.1044921875 784.9570922851562 L 398.8714294433594 785.04296875 L 413.1377258300781 785.1345825195312 L 426.9404296875 785.2315063476562 L 440.3166198730469 785.3333740234375 L 453.3033752441406 785.4396362304688 L 465.9378356933594 785.5499877929688 L 478.25701904296875 785.6639404296875 L 490.2980651855469 785.7810668945312 L 502.0980529785156 785.9009399414062 L 513.6940307617188 786.023193359375 L 525.1231079101562 786.1472778320312 L 536.4224243164062 786.27294921875 L 547.6290283203125 786.3995971679688 L 558.7799682617188 786.5269775390625 L 569.912353515625 786.6544799804688 L 581.0632934570312 786.7817993164062 L 592.2698974609375 786.9085083007812 L 603.5691528320312 787.0341186523438 L 614.998291015625 787.1582641601562 L 626.59423828125 787.280517578125 L 638.3942260742188 787.400390625 L 650.435302734375 787.5175170898438 L 662.7544555664062 787.6314697265625 L 675.388916015625 787.7418212890625 L 688.3756713867188 787.8480834960938 L 701.7518920898438 787.9498901367188 L 715.5545654296875 788.046875 L 729.8208618164062 788.1384887695312 L 744.5878295898438 788.224365234375 L 759.892578125 788.3040771484375 L 775.7721557617188 788.377197265625 L 792.263671875 788.443359375 L 809.4042358398438 788.5020141601562 L 827.2308959960938 788.5528564453125 L 845.7808227539062 788.5953979492188 L 865.0910034179688 788.6292114257812 L 885.1985473632812 788.6539306640625 L 906.1405639648438 788.6690063476562 L 927.9541015625 788.6741943359375 L 927.9541015625 788.6741943359375 L 927.9541015625 563.8482055664062 L 927.9541015625 563.8482055664062 L 906.1405639648438 563.8430786132812 L 885.1985473632812 563.8280029296875 L 865.0910034179688 563.8032836914062 L 845.7808227539062 563.7694702148438 L 827.2308959960938 563.7269287109375 L 809.4042358398438 563.6760864257812 L 792.263671875 563.617431640625 L 775.7721557617188 563.55126953125 L 759.892578125 563.4781494140625 L 744.5878295898438 563.3984375 L 729.8208618164062 563.3125610351562 L 715.5545654296875 563.2208862304688 L 701.7518920898438 563.1239624023438 L 688.3756713867188 563.0221557617188 L 675.388916015625 562.9158325195312 L 662.7544555664062 562.8055419921875 L 650.435302734375 562.6915893554688 L 638.3942260742188 562.574462890625 L 626.59423828125 562.45458984375 L 614.998291015625 562.3323364257812 L 603.5691528320312 562.2081909179688 L 592.2698974609375 562.0825805664062 L 581.0632934570312 561.9558715820312 L 569.912353515625 561.8285522460938 L 558.7799682617188 561.7009887695312 L 547.6290283203125 561.5736694335938 L 536.4224243164062 561.447021484375 L 525.1231079101562 561.3213500976562 L 513.6940307617188 561.1972045898438 L 502.0980529785156 561.0750122070312 L 490.2980651855469 560.9551391601562 L 478.25701904296875 560.8380126953125 L 465.9378356933594 560.7240600585938 L 453.3033752441406 560.6137084960938 L 440.3166198730469 560.5074462890625 L 426.9404296875 560.4055786132812 L 413.1377258300781 560.3086547851562 L 398.8714294433594 560.217041015625 L 384.1044921875 560.1311645507812 L 368.79974365234375 560.0513916015625 L 352.920166015625 559.978271484375 L 336.4286193847656 559.9121704101562 L 319.2880554199219 559.8534545898438 L 301.4613952636719 559.8026733398438 L 282.9114990234375 559.7601318359375 L 263.601318359375 559.7262573242188 L 243.4937744140625 559.7015991210938 L 222.5517578125 559.6864624023438 L 200.73818969726562 559.6813354492188 Z" fill-opacity="0.6" clip-path="url(#iTnsbvRJGpKo)" stroke-opacity="1" stroke-linejoin="bevel" stroke-miterlimit="10" stroke-width="0.8" stroke-dasharray=""/><path fill="rgb(255,187,120)" stroke="rgb(255,187,120)" paint-order="fill" d="M 200.73818969726562 409.7973937988281 L 200.73818969726562 559.6813354492188 L 200.73818969726562 559.6813354492188 L 222.5517578125 559.6812744140625 L 243.4937744140625 559.6810302734375 L 263.601318359375 559.6806640625 L 282.9114990234375 559.68017578125 L 301.4613952636719 559.6795043945312 L 319.2880554199219 559.6787719726562 L 336.4286193847656 559.6779174804688 L 352.920166015625 559.6768798828125 L 368.79974365234375 559.6758422851562 L 384.1044921875 559.6746215820312 L 398.8714294433594 559.67333984375 L 413.1377258300781 559.6719970703125 L 426.9404296875 559.6705322265625 L 440.3166198730469 559.6690063476562 L 453.3033752441406 559.6674194335938 L 465.9378356933594 559.665771484375 L 478.25701904296875 559.6640625 L 490.2980651855469 559.662353515625 L 502.0980529785156 559.6605224609375 L 513.6940307617188 559.65869140625 L 525.1231079101562 559.6568603515625 L 536.4224243164062 559.6549682617188 L 547.6290283203125 559.653076171875 L 558.7799682617188 559.6511840820312 L 569.912353515625 559.6492919921875 L 581.0632934570312 559.6473999023438 L 592.2698974609375 559.6455078125 L 603.5691528320312 559.6436157226562 L 614.998291015625 559.6417846679688 L 626.59423828125 559.6399536132812 L 638.3942260742188 559.63818359375 L 650.435302734375 559.6364135742188 L 662.7544555664062 559.6347045898438 L 675.388916015625 559.633056640625 L 688.3756713867188 559.6314697265625 L 701.7518920898438 559.6299438476562 L 715.5545654296875 559.6284790039062 L 729.8208618164062 559.6271362304688 L 744.5878295898438 559.6258544921875 L 759.892578125 559.6246948242188 L 775.7721557617188 559.6235961914062 L 792.263671875 559.6226196289062 L 809.4042358398438 559.6217041015625 L 827.2308959960938 559.6209716796875 L 845.7808227539062 559.6203002929688 L 865.0910034179688 559.6198120117188 L 885.1985473632812 559.6194458007812 L 906.1405639648438 559.6192016601562 L 927.9541015625 559.619140625 L 927.9541015625 559.619140625 L 927.9541015625 409.7351989746094 L 927.9541015625 409.7351989746094 L 906.1405639648438 409.7352600097656 L 885.1985473632812 409.7355041503906 L 865.0910034179688 409.7358703613281 L 845.7808227539062 409.7363586425781 L 827.2308959960938 409.73699951171875 L 809.4042358398438 409.7377624511719 L 792.263671875 409.7386474609375 L 775.7721557617188 409.7396240234375 L 759.892578125 409.74072265625 L 744.5878295898438 409.7419128417969 L 729.8208618164062 409.7431945800781 L 715.5545654296875 409.7445373535156 L 701.7518920898438 409.7460021972656 L 688.3756713867188 409.7475280761719 L 675.388916015625 409.7491149902344 L 662.7544555664062 409.7507629394531 L 650.435302734375 409.75244140625 L 638.3942260742188 409.75421142578125 L 626.59423828125 409.7559814453125 L 614.998291015625 409.7578125 L 603.5691528320312 409.7596740722656 L 592.2698974609375 409.76153564453125 L 581.0632934570312 409.763427734375 L 569.912353515625 409.76531982421875 L 558.7799682617188 409.7672424316406 L 547.6290283203125 409.7691345214844 L 536.4224243164062 409.7710266113281 L 525.1231079101562 409.77288818359375 L 513.6940307617188 409.7747497558594 L 502.0980529785156 409.7765808105469 L 490.2980651855469 409.77838134765625 L 478.25701904296875 409.7801208496094 L 465.9378356933594 409.7818298339844 L 453.3033752441406 409.7834777832031 L 440.3166198730469 409.7850646972656 L 426.9404296875 409.78656005859375 L 413.1377258300781 409.78802490234375 L 398.8714294433594 409.7893981933594 L 384.1044921875 409.7906799316406 L 368.79974365234375 409.7918701171875 L 352.920166015625 409.7929382324219 L 336.4286193847656 409.7939453125 L 319.2880554199219 409.7947998046875 L 301.4613952636719 409.7955627441406 L 282.9114990234375 409.79620361328125 L 263.601318359375 409.7967224121094 L 243.4937744140625 409.7970886230469 L 222.5517578125 409.79730224609375 L 200.73818969726562 409.7973937988281 Z" fill-opacity="0.6" clip-path="url(#iTnsbvRJGpKo)" stroke-opacity="1" stroke-linejoin="bevel" stroke-miterlimit="10" stroke-width="0.8" stroke-dasharray=""/><path fill="rgb(44,160,44)" stroke="rgb(44,160,44)" paint-order="fill" d="M 200.73818969726562 319.86700439453125 L 200.73818969726562 409.7973937988281 L 200.73818969726562 409.7973937988281 L 222.5517578125 409.7920837402344 L 243.4937744140625 409.7765197753906 L 263.601318359375 409.7510986328125 L 282.9114990234375 409.71624755859375 L 301.4613952636719 409.6724548339844 L 319.2880554199219 409.6201171875 L 336.4286193847656 409.5596618652344 L 352.920166015625 409.4915771484375 L 368.79974365234375 409.416259765625 L 384.1044921875 409.3341369628906 L 398.8714294433594 409.2456970214844 L 413.1377258300781 409.1513366699219 L 426.9404296875 409.0514831542969 L 440.3166198730469 408.9466247558594 L 453.3033752441406 408.837158203125 L 465.9378356933594 408.7235412597656 L 478.25701904296875 408.606201171875 L 490.2980651855469 408.485595703125 L 502.0980529785156 408.36212158203125 L 513.6940307617188 408.2362365722656 L 525.1231079101562 408.1083984375 L 536.4224243164062 407.97900390625 L 547.6290283203125 407.8485412597656 L 558.7799682617188 407.7174072265625 L 569.912353515625 407.5860595703125 L 581.0632934570312 407.4549255371094 L 592.2698974609375 407.324462890625 L 603.5691528320312 407.1950988769531 L 614.998291015625 407.0672302246094 L 626.59423828125 406.9413757324219 L 638.3942260742188 406.8179016113281 L 650.435302734375 406.697265625 L 662.7544555664062 406.5799255371094 L 675.388916015625 406.46630859375 L 688.3756713867188 406.3568420410156 L 701.7518920898438 406.2519836425781 L 715.5545654296875 406.15216064453125 L 729.8208618164062 406.05780029296875 L 744.5878295898438 405.9693298339844 L 759.892578125 405.8872375488281 L 775.7721557617188 405.8119201660156 L 792.263671875 405.7438049316406 L 809.4042358398438 405.6833801269531 L 827.2308959960938 405.6310119628906 L 845.7808227539062 405.58721923828125 L 865.0910034179688 405.5523681640625 L 885.1985473632812 405.5269470214844 L 906.1405639648438 405.5113830566406 L 927.9541015625 405.506103515625 L 927.9541015625 405.506103515625 L 927.9541015625 315.5757141113281 L 927.9541015625 315.5757141113281 L 906.1405639648438 315.5810241699219 L 885.1985473632812 315.5965881347656 L 865.0910034179688 315.62200927734375 L 845.7808227539062 315.6568298339844 L 827.2308959960938 315.7006530761719 L 809.4042358398438 315.75299072265625 L 792.263671875 315.8134460449219 L 775.7721557617188 315.88153076171875 L 759.892578125 315.95684814453125 L 744.5878295898438 316.0389709472656 L 729.8208618164062 316.1274108886719 L 715.5545654296875 316.2217712402344 L 701.7518920898438 316.32159423828125 L 688.3756713867188 316.4264831542969 L 675.388916015625 316.5359191894531 L 662.7544555664062 316.6495666503906 L 650.435302734375 316.76690673828125 L 638.3942260742188 316.88751220703125 L 626.59423828125 317.010986328125 L 614.998291015625 317.1368713378906 L 603.5691528320312 317.26470947265625 L 592.2698974609375 317.39410400390625 L 581.0632934570312 317.5245666503906 L 569.912353515625 317.65570068359375 L 558.7799682617188 317.78704833984375 L 547.6290283203125 317.91815185546875 L 536.4224243164062 318.04864501953125 L 525.1231079101562 318.1780090332031 L 513.6940307617188 318.30584716796875 L 502.0980529785156 318.4317321777344 L 490.2980651855469 318.5552062988281 L 478.25701904296875 318.67584228515625 L 465.9378356933594 318.7931823730469 L 453.3033752441406 318.90679931640625 L 440.3166198730469 319.0162658691406 L 426.9404296875 319.1211242675781 L 413.1377258300781 319.220947265625 L 398.8714294433594 319.3153076171875 L 384.1044921875 319.4037780761719 L 368.79974365234375 319.4858703613281 L 352.920166015625 319.5611877441406 L 336.4286193847656 319.6293029785156 L 319.2880554199219 319.6897277832031 L 301.4613952636719 319.7420654296875 L 282.9114990234375 319.785888671875 L 263.601318359375 319.8207092285156 L 243.4937744140625 319.84613037109375 L 222.5517578125 319.8617248535156 L 200.73818969726562 319.86700439453125 Z" fill-opacity="0.6" clip-path="url(#iTnsbvRJGpKo)" stroke-opacity="1" stroke-linejoin="bevel" stroke-miterlimit="10" stroke-width="0.8" stroke-dasharray=""/><path fill="rgb(152,223,138)" stroke="rgb(152,223,138)" paint-order="fill" d="M 200.73818969726562 259.9134216308594 L 200.73818969726562 319.86700439453125 L 200.73818969726562 319.86700439453125 L 222.5517578125 319.85650634765625 L 243.4937744140625 319.8255920410156 L 263.601318359375 319.7751159667969 L 282.9114990234375 319.7059326171875 L 301.4613952636719 319.61895751953125 L 319.2880554199219 319.5150451660156 L 336.4286193847656 319.39501953125 L 352.920166015625 319.25982666015625 L 368.79974365234375 319.1102600097656 L 384.1044921875 318.9472351074219 L 398.8714294433594 318.7716369628906 L 413.1377258300781 318.5842590332031 L 426.9404296875 318.38604736328125 L 440.3166198730469 318.1778259277344 L 453.3033752441406 317.96051025390625 L 465.9378356933594 317.7348937988281 L 478.25701904296875 317.5019226074219 L 490.2980651855469 317.2624206542969 L 502.0980529785156 317.01727294921875 L 513.6940307617188 316.767333984375 L 525.1231079101562 316.5135192871094 L 536.4224243164062 316.2566223144531 L 547.6290283203125 315.99755859375 L 558.7799682617188 315.7372131347656 L 569.912353515625 315.4764099121094 L 581.0632934570312 315.216064453125 L 592.2698974609375 314.9570007324219 L 603.5691528320312 314.70013427734375 L 614.998291015625 314.4462890625 L 626.59423828125 314.19635009765625 L 638.3942260742188 313.9512023925781 L 650.435302734375 313.71173095703125 L 662.7544555664062 313.4787292480469 L 675.388916015625 313.2531433105469 L 688.3756713867188 313.0357971191406 L 701.7518920898438 312.82757568359375 L 715.5545654296875 312.6293640136719 L 729.8208618164062 312.4420166015625 L 744.5878295898438 312.2663879394531 L 759.892578125 312.1033630371094 L 775.7721557617188 311.9538269042969 L 792.263671875 311.818603515625 L 809.4042358398438 311.6986083984375 L 827.2308959960938 311.59466552734375 L 845.7808227539062 311.5076904296875 L 865.0910034179688 311.43853759765625 L 885.1985473632812 311.3880615234375 L 906.1405639648438 311.3571472167969 L 927.9541015625 311.34661865234375 L 927.9541015625 311.34661865234375 L 927.9541015625 251.39305114746094 L 927.9541015625 251.39305114746094 L 906.1405639648438 251.40354919433594 L 885.1985473632812 251.43447875976562 L 865.0910034179688 251.48495483398438 L 845.7808227539062 251.55410766601562 L 827.2308959960938 251.64109802246094 L 809.4042358398438 251.74502563476562 L 792.263671875 251.86502075195312 L 775.7721557617188 252.00022888183594 L 759.892578125 252.1497802734375 L 744.5878295898438 252.31280517578125 L 729.8208618164062 252.48843383789062 L 715.5545654296875 252.67578125 L 701.7518920898438 252.87400817871094 L 688.3756713867188 253.08221435546875 L 675.388916015625 253.299560546875 L 662.7544555664062 253.525146484375 L 650.435302734375 253.7581329345703 L 638.3942260742188 253.9976348876953 L 626.59423828125 254.24278259277344 L 614.998291015625 254.49270629882812 L 603.5691528320312 254.74655151367188 L 592.2698974609375 255.00343322753906 L 581.0632934570312 255.26248168945312 L 569.912353515625 255.52284240722656 L 558.7799682617188 255.78363037109375 L 547.6290283203125 256.0439910888672 L 536.4224243164062 256.30303955078125 L 525.1231079101562 256.5599365234375 L 513.6940307617188 256.8137512207031 L 502.0980529785156 257.0636901855469 L 490.2980651855469 257.308837890625 L 478.25701904296875 257.54833984375 L 465.9378356933594 257.78131103515625 L 453.3033752441406 258.0069274902344 L 440.3166198730469 258.2242431640625 L 426.9404296875 258.4324645996094 L 413.1377258300781 258.63067626953125 L 398.8714294433594 258.81805419921875 L 384.1044921875 258.99365234375 L 368.79974365234375 259.15667724609375 L 352.920166015625 259.3062438964844 L 336.4286193847656 259.4414367675781 L 319.2880554199219 259.56146240234375 L 301.4613952636719 259.6653747558594 L 282.9114990234375 259.7523498535156 L 263.601318359375 259.821533203125 L 243.4937744140625 259.87200927734375 L 222.5517578125 259.9029235839844 L 200.73818969726562 259.9134216308594 Z" fill-opacity="0.6" clip-path="url(#iTnsbvRJGpKo)" stroke-opacity="1" stroke-linejoin="bevel" stroke-miterlimit="10" stroke-width="0.8" stroke-dasharray=""/><path fill="rgb(214,39,40)" stroke="rgb(214,39,40)" paint-order="fill" d="M 200.73818969726562 214.9482421875 L 200.73818969726562 259.9134216308594 L 200.73818969726562 259.9134216308594 L 222.5517578125 259.897705078125 L 243.4937744140625 259.8514404296875 L 263.601318359375 259.7759094238281 L 282.9114990234375 259.67242431640625 L 301.4613952636719 259.5422668457031 L 319.2880554199219 259.3867492675781 L 336.4286193847656 259.2071838378906 L 352.920166015625 259.0048522949219 L 368.79974365234375 258.78106689453125 L 384.1044921875 258.5371398925781 L 398.8714294433594 258.27435302734375 L 413.1377258300781 257.9939880371094 L 426.9404296875 257.6973876953125 L 440.3166198730469 257.3858337402344 L 453.3033752441406 257.06060791015625 L 465.9378356933594 256.7230529785156 L 478.25701904296875 256.3744201660156 L 490.2980651855469 256.01605224609375 L 502.0980529785156 255.64923095703125 L 513.6940307617188 255.27523803710938 L 525.1231079101562 254.89541625976562 L 536.4224243164062 254.5110321044922 L 547.6290283203125 254.12339782714844 L 558.7799682617188 253.7338104248047 L 569.912353515625 253.34356689453125 L 581.0632934570312 252.9539794921875 L 592.2698974609375 252.56634521484375 L 603.5691528320312 252.1819610595703 L 614.998291015625 251.80213928222656 L 626.59423828125 251.42816162109375 L 638.3942260742188 251.0613250732422 L 650.435302734375 250.7029571533203 L 662.7544555664062 250.3543243408203 L 675.388916015625 250.0167694091797 L 688.3756713867188 249.69154357910156 L 701.7518920898438 249.37998962402344 L 715.5545654296875 249.08338928222656 L 729.8208618164062 248.80303955078125 L 744.5878295898438 248.5402374267578 L 759.892578125 248.29629516601562 L 775.7721557617188 248.07252502441406 L 792.263671875 247.8701934814453 L 809.4042358398438 247.6906280517578 L 827.2308959960938 247.53512573242188 L 845.7808227539062 247.40496826171875 L 865.0910034179688 247.30148315429688 L 885.1985473632812 247.22593688964844 L 906.1405639648438 247.17967224121094 L 927.9541015625 247.16395568847656 L 927.9541015625 247.16395568847656 L 927.9541015625 202.1987762451172 L 927.9541015625 202.1987762451172 L 906.1405639648438 202.2144775390625 L 885.1985473632812 202.26075744628906 L 865.0910034179688 202.33628845214844 L 845.7808227539062 202.43978881835938 L 827.2308959960938 202.56993103027344 L 809.4042358398438 202.72544860839844 L 792.263671875 202.90501403808594 L 775.7721557617188 203.10733032226562 L 759.892578125 203.33111572265625 L 744.5878295898438 203.57505798339844 L 729.8208618164062 203.8378448486328 L 715.5545654296875 204.11819458007812 L 701.7518920898438 204.414794921875 L 688.3756713867188 204.7263641357422 L 675.388916015625 205.05157470703125 L 662.7544555664062 205.38914489746094 L 650.435302734375 205.73776245117188 L 638.3942260742188 206.0961456298828 L 626.59423828125 206.4629669189453 L 614.998291015625 206.83694458007812 L 603.5691528320312 207.21678161621094 L 592.2698974609375 207.60116577148438 L 581.0632934570312 207.98880004882812 L 569.912353515625 208.37838745117188 L 558.7799682617188 208.76861572265625 L 547.6290283203125 209.158203125 L 536.4224243164062 209.54583740234375 L 525.1231079101562 209.9302215576172 L 513.6940307617188 210.31005859375 L 502.0980529785156 210.6840362548828 L 490.2980651855469 211.0508575439453 L 478.25701904296875 211.40924072265625 L 465.9378356933594 211.7578582763672 L 453.3033752441406 212.09542846679688 L 440.3166198730469 212.42063903808594 L 426.9404296875 212.73220825195312 L 413.1377258300781 213.02880859375 L 398.8714294433594 213.3091583251953 L 384.1044921875 213.57196044921875 L 368.79974365234375 213.81588745117188 L 352.920166015625 214.0396728515625 L 336.4286193847656 214.2419891357422 L 319.2880554199219 214.42156982421875 L 301.4613952636719 214.5770721435547 L 282.9114990234375 214.7072296142578 L 263.601318359375 214.8107147216797 L 243.4937744140625 214.88624572753906 L 222.5517578125 214.93252563476562 L 200.73818969726562 214.9482421875 Z" fill-opacity="0.6" clip-path="url(#iTnsbvRJGpKo)" stroke-opacity="1" stroke-linejoin="bevel" stroke-miterlimit="10" stroke-width="0.8" stroke-dasharray=""/><path fill="rgb(255,152,150)" stroke="rgb(255,152,150)" paint-order="fill" d="M 200.73818969726562 184.97145080566406 L 200.73818969726562 214.9482421875 L 200.73818969726562 214.9482421875 L 222.5517578125 214.92730712890625 L 243.4937744140625 214.86569213867188 L 263.601318359375 214.76510620117188 L 282.9114990234375 214.6272735595703 L 301.4613952636719 214.45394897460938 L 319.2880554199219 214.24685668945312 L 336.4286193847656 214.0077362060547 L 352.920166015625 213.73829650878906 L 368.79974365234375 213.44027709960938 L 384.1044921875 213.1154327392578 L 398.8714294433594 212.76547241210938 L 413.1377258300781 212.39212036132812 L 426.9404296875 211.99713134765625 L 440.3166198730469 211.5822296142578 L 453.3033752441406 211.14913940429688 L 465.9378356933594 210.6995849609375 L 478.25701904296875 210.23533630371094 L 490.2980651855469 209.75807189941406 L 502.0980529785156 209.2695770263672 L 513.6940307617188 208.77154541015625 L 525.1231079101562 208.26571655273438 L 536.4224243164062 207.7538299560547 L 547.6290283203125 207.23760986328125 L 558.7799682617188 206.7187957763672 L 569.912353515625 206.19911193847656 L 581.0632934570312 205.6802978515625 L 592.2698974609375 205.16409301757812 L 603.5691528320312 204.65220642089844 L 614.998291015625 204.14637756347656 L 626.59423828125 203.64834594726562 L 638.3942260742188 203.1598358154297 L 650.435302734375 202.68258666992188 L 662.7544555664062 202.21832275390625 L 675.388916015625 201.76878356933594 L 688.3756713867188 201.335693359375 L 701.7518920898438 200.9207763671875 L 715.5545654296875 200.52578735351562 L 729.8208618164062 200.15245056152344 L 744.5878295898438 199.802490234375 L 759.892578125 199.47763061523438 L 775.7721557617188 199.17962646484375 L 792.263671875 198.91018676757812 L 809.4042358398438 198.67105102539062 L 827.2308959960938 198.46395874023438 L 845.7808227539062 198.29063415527344 L 865.0910034179688 198.15281677246094 L 885.1985473632812 198.05223083496094 L 906.1405639648438 197.9906005859375 L 927.9541015625 197.9696807861328 L 927.9541015625 197.9696807861328 L 927.9541015625 167.99288940429688 L 927.9541015625 167.99288940429688 L 906.1405639648438 168.01380920410156 L 885.1985473632812 168.075439453125 L 865.0910034179688 168.176025390625 L 845.7808227539062 168.3138427734375 L 827.2308959960938 168.48716735839844 L 809.4042358398438 168.6942596435547 L 792.263671875 168.9333953857422 L 775.7721557617188 169.2028350830078 L 759.892578125 169.50083923339844 L 744.5878295898438 169.82569885253906 L 729.8208618164062 170.1756591796875 L 715.5545654296875 170.5489959716797 L 701.7518920898438 170.94398498535156 L 688.3756713867188 171.35890197753906 L 675.388916015625 171.7919921875 L 662.7544555664062 172.2415313720703 L 650.435302734375 172.70579528808594 L 638.3942260742188 173.18304443359375 L 626.59423828125 173.6715545654297 L 614.998291015625 174.16958618164062 L 603.5691528320312 174.6754150390625 L 592.2698974609375 175.1873016357422 L 581.0632934570312 175.70350646972656 L 569.912353515625 176.22232055664062 L 558.7799682617188 176.74200439453125 L 547.6290283203125 177.2608184814453 L 536.4224243164062 177.77703857421875 L 525.1231079101562 178.28892517089844 L 513.6940307617188 178.7947540283203 L 502.0980529785156 179.29278564453125 L 490.2980651855469 179.78128051757812 L 478.25701904296875 180.258544921875 L 465.9378356933594 180.72279357910156 L 453.3033752441406 181.17234802246094 L 440.3166198730469 181.60543823242188 L 426.9404296875 182.0203399658203 L 413.1377258300781 182.4153289794922 L 398.8714294433594 182.78868103027344 L 384.1044921875 183.13864135742188 L 368.79974365234375 183.46348571777344 L 352.920166015625 183.76150512695312 L 336.4286193847656 184.03094482421875 L 319.2880554199219 184.2700653076172 L 301.4613952636719 184.47715759277344 L 282.9114990234375 184.65048217773438 L 263.601318359375 184.78831481933594 L 243.4937744140625 184.88890075683594 L 222.5517578125 184.9505157470703 L 200.73818969726562 184.97145080566406 Z" fill-opacity="0.6" clip-path="url(#iTnsbvRJGpKo)" stroke-opacity="1" stroke-linejoin="bevel" stroke-miterlimit="10" stroke-width="0.8" stroke-dasharray=""/><path fill="rgb(148,103,189)" stroke="rgb(148,103,189)" paint-order="fill" d="M 200.73818969726562 154.99465942382812 L 200.73818969726562 184.97145080566406 L 200.73818969726562 184.97145080566406 L 222.5517578125 184.9453125 L 243.4937744140625 184.8683319091797 L 263.601318359375 184.74269104003906 L 282.9114990234375 184.57054138183594 L 301.4613952636719 184.3540496826172 L 319.2880554199219 184.09536743164062 L 336.4286193847656 183.7966766357422 L 352.920166015625 183.4601287841797 L 368.79974365234375 183.087890625 L 384.1044921875 182.68211364746094 L 398.8714294433594 182.24497985839844 L 413.1377258300781 181.7786407470703 L 426.9404296875 181.28526306152344 L 440.3166198730469 180.7670135498047 L 453.3033752441406 180.22604370117188 L 465.9378356933594 179.66453552246094 L 478.25701904296875 179.08462524414062 L 490.2980651855469 178.48849487304688 L 502.0980529785156 177.87831115722656 L 513.6940307617188 177.2562255859375 L 525.1231079101562 176.62440490722656 L 536.4224243164062 175.98501586914062 L 547.6290283203125 175.34022521972656 L 558.7799682617188 174.6921844482422 L 569.912353515625 174.04306030273438 L 581.0632934570312 173.39501953125 L 592.2698974609375 172.75021362304688 L 603.5691528320312 172.11082458496094 L 614.998291015625 171.47900390625 L 626.59423828125 170.85693359375 L 638.3942260742188 170.24673461914062 L 650.435302734375 169.65061950683594 L 662.7544555664062 169.07070922851562 L 675.388916015625 168.5092010498047 L 688.3756713867188 167.96823120117188 L 701.7518920898438 167.44998168945312 L 715.5545654296875 166.95660400390625 L 729.8208618164062 166.49026489257812 L 744.5878295898438 166.05313110351562 L 759.892578125 165.64735412597656 L 775.7721557617188 165.27511596679688 L 792.263671875 164.93856811523438 L 809.4042358398438 164.63987731933594 L 827.2308959960938 164.38119506835938 L 845.7808227539062 164.16470336914062 L 865.0910034179688 163.9925537109375 L 885.1985473632812 163.86691284179688 L 906.1405639648438 163.78993225097656 L 927.9541015625 163.7637939453125 L 927.9541015625 163.7637939453125 L 927.9541015625 133.78700256347656 L 927.9541015625 133.78700256347656 L 906.1405639648438 133.81314086914062 L 885.1985473632812 133.89012145996094 L 865.0910034179688 134.01576232910156 L 845.7808227539062 134.1879119873047 L 827.2308959960938 134.40440368652344 L 809.4042358398438 134.6630859375 L 792.263671875 134.96177673339844 L 775.7721557617188 135.29832458496094 L 759.892578125 135.67056274414062 L 744.5878295898438 136.0763397216797 L 729.8208618164062 136.5134735107422 L 715.5545654296875 136.9798126220703 L 701.7518920898438 137.4731903076172 L 688.3756713867188 137.99143981933594 L 675.388916015625 138.53240966796875 L 662.7544555664062 139.0939178466797 L 650.435302734375 139.673828125 L 638.3942260742188 140.2699432373047 L 626.59423828125 140.88014221191406 L 614.998291015625 141.50221252441406 L 603.5691528320312 142.134033203125 L 592.2698974609375 142.77342224121094 L 581.0632934570312 143.41822814941406 L 569.912353515625 144.06626892089844 L 558.7799682617188 144.71539306640625 L 547.6290283203125 145.36343383789062 L 536.4224243164062 146.0082244873047 L 525.1231079101562 146.64761352539062 L 513.6940307617188 147.27943420410156 L 502.0980529785156 147.90151977539062 L 490.2980651855469 148.51170349121094 L 478.25701904296875 149.1078338623047 L 465.9378356933594 149.687744140625 L 453.3033752441406 150.24925231933594 L 440.3166198730469 150.79022216796875 L 426.9404296875 151.3084716796875 L 413.1377258300781 151.80184936523438 L 398.8714294433594 152.2681884765625 L 384.1044921875 152.705322265625 L 368.79974365234375 153.11109924316406 L 352.920166015625 153.48333740234375 L 336.4286193847656 153.81988525390625 L 319.2880554199219 154.1185760498047 L 301.4613952636719 154.37725830078125 L 282.9114990234375 154.59375 L 263.601318359375 154.76589965820312 L 243.4937744140625 154.89154052734375 L 222.5517578125 154.96852111816406 L 200.73818969726562 154.99465942382812 Z" fill-opacity="0.6" clip-path="url(#iTnsbvRJGpKo)" stroke-opacity="1" stroke-linejoin="bevel" stroke-miterlimit="10" stroke-width="0.8" stroke-dasharray=""/><path fill="rgb(197,176,213)" stroke="rgb(197,176,213)" paint-order="fill" d="M 200.73818969726562 125.01786041259766 L 200.73818969726562 154.99465942382812 L 200.73818969726562 154.99465942382812 L 222.5517578125 154.9633026123047 L 243.4937744140625 154.87098693847656 L 263.601318359375 154.7202911376953 L 282.9114990234375 154.51380920410156 L 301.4613952636719 154.25413513183594 L 319.2880554199219 153.94387817382812 L 336.4286193847656 153.5856170654297 L 352.920166015625 153.1819610595703 L 368.79974365234375 152.73548889160156 L 384.1044921875 152.24879455566406 L 398.8714294433594 151.72450256347656 L 413.1377258300781 151.1651611328125 L 426.9404296875 150.57339477539062 L 440.3166198730469 149.95179748535156 L 453.3033752441406 149.30296325683594 L 465.9378356933594 148.6294708251953 L 478.25701904296875 147.93392944335938 L 490.2980651855469 147.2189178466797 L 502.0980529785156 146.487060546875 L 513.6940307617188 145.7409210205078 L 525.1231079101562 144.9831085205078 L 536.4224243164062 144.21621704101562 L 547.6290283203125 143.44284057617188 L 558.7799682617188 142.6655731201172 L 569.912353515625 141.88699340820312 L 581.0632934570312 141.10972595214844 L 592.2698974609375 140.3363494873047 L 603.5691528320312 139.5694580078125 L 614.998291015625 138.8116455078125 L 626.59423828125 138.0655059814453 L 638.3942260742188 137.33364868164062 L 650.435302734375 136.61863708496094 L 662.7544555664062 135.923095703125 L 675.388916015625 135.24960327148438 L 688.3756713867188 134.60076904296875 L 701.7518920898438 133.9791717529297 L 715.5545654296875 133.3874053955078 L 729.8208618164062 132.82806396484375 L 744.5878295898438 132.30377197265625 L 759.892578125 131.81707763671875 L 775.7721557617188 131.37060546875 L 792.263671875 130.96694946289062 L 809.4042358398438 130.6086883544922 L 827.2308959960938 130.29843139648438 L 845.7808227539062 130.03875732421875 L 865.0910034179688 129.83229064941406 L 885.1985473632812 129.68157958984375 L 906.1405639648438 129.58926391601562 L 927.9541015625 129.5579071044922 L 927.9541015625 129.5579071044922 L 927.9541015625 99.58112335205078 L 927.9541015625 99.58112335205078 L 906.1405639648438 99.61247253417969 L 885.1985473632812 99.70479583740234 L 865.0910034179688 99.8554916381836 L 845.7808227539062 100.06197357177734 L 827.2308959960938 100.32164001464844 L 809.4042358398438 100.63189697265625 L 792.263671875 100.99015808105469 L 775.7721557617188 101.39381408691406 L 759.892578125 101.84028625488281 L 744.5878295898438 102.32697296142578 L 729.8208618164062 102.85128021240234 L 715.5545654296875 103.41061401367188 L 701.7518920898438 104.00237274169922 L 688.3756713867188 104.62397766113281 L 675.388916015625 105.27281951904297 L 662.7544555664062 105.94630432128906 L 650.435302734375 106.64185333251953 L 638.3942260742188 107.35684967041016 L 626.59423828125 108.0887222290039 L 614.998291015625 108.83485412597656 L 603.5691528320312 109.59266662597656 L 592.2698974609375 110.35955810546875 L 581.0632934570312 111.1329345703125 L 569.912353515625 111.91020965576172 L 558.7799682617188 112.68877410888672 L 547.6290283203125 113.46604919433594 L 536.4224243164062 114.23942565917969 L 525.1231079101562 115.00631713867188 L 513.6940307617188 115.76412963867188 L 502.0980529785156 116.51026153564453 L 490.2980651855469 117.24213409423828 L 478.25701904296875 117.9571304321289 L 465.9378356933594 118.65267944335938 L 453.3033752441406 119.32616424560547 L 440.3166198730469 119.97500610351562 L 426.9404296875 120.59661102294922 L 413.1377258300781 121.18836975097656 L 398.8714294433594 121.7477035522461 L 384.1044921875 122.27201080322266 L 368.79974365234375 122.75869750976562 L 352.920166015625 123.20516967773438 L 336.4286193847656 123.60882568359375 L 319.2880554199219 123.96708679199219 L 301.4613952636719 124.27734375 L 282.9114990234375 124.5370101928711 L 263.601318359375 124.74349212646484 L 243.4937744140625 124.8941879272461 L 222.5517578125 124.98651123046875 L 200.73818969726562 125.01786041259766 Z" fill-opacity="0.6" clip-path="url(#iTnsbvRJGpKo)" stroke-opacity="1" stroke-linejoin="bevel" stroke-miterlimit="10" stroke-width="0.8" stroke-dasharray=""/><path fill="rgb(140,86,75)" stroke="rgb(140,86,75)" paint-order="fill" d="M 200.73818969726562 110.02946472167969 L 200.73818969726562 125.01786041259766 L 200.73818969726562 125.01786041259766 L 222.5517578125 124.9813003540039 L 243.4937744140625 124.87362670898438 L 263.601318359375 124.6978759765625 L 282.9114990234375 124.45706939697266 L 301.4613952636719 124.15422821044922 L 319.2880554199219 123.79238891601562 L 336.4286193847656 123.37456512451172 L 352.920166015625 122.90379333496094 L 368.79974365234375 122.38308715820312 L 384.1044921875 121.81549072265625 L 398.8714294433594 121.20401000976562 L 413.1377258300781 120.55168151855469 L 426.9404296875 119.86153411865234 L 440.3166198730469 119.13658905029297 L 453.3033752441406 118.37986755371094 L 465.9378356933594 117.59440612792969 L 478.25701904296875 116.7832260131836 L 490.2980651855469 115.94934844970703 L 502.0980529785156 115.0958023071289 L 513.6940307617188 114.2256088256836 L 525.1231079101562 113.34180450439453 L 536.4224243164062 112.4474105834961 L 547.6290283203125 111.54544830322266 L 558.7799682617188 110.63895416259766 L 569.912353515625 109.73094177246094 L 581.0632934570312 108.8244400024414 L 592.2698974609375 107.9224853515625 L 603.5691528320312 107.02808380126953 L 614.998291015625 106.14427947998047 L 626.59423828125 105.27409362792969 L 638.3942260742188 104.42054748535156 L 650.435302734375 103.586669921875 L 662.7544555664062 102.7754898071289 L 675.388916015625 101.99002075195312 L 688.3756713867188 101.23330688476562 L 701.7518920898438 100.50835418701172 L 715.5545654296875 99.81820678710938 L 729.8208618164062 99.16588592529297 L 744.5878295898438 98.55440521240234 L 759.892578125 97.98680114746094 L 775.7721557617188 97.46610260009766 L 792.263671875 96.99533081054688 L 809.4042358398438 96.57750701904297 L 827.2308959960938 96.21566772460938 L 845.7808227539062 95.91282653808594 L 865.0910034179688 95.6720199584961 L 885.1985473632812 95.49626159667969 L 906.1405639648438 95.38859558105469 L 927.9541015625 95.35203552246094 L 927.9541015625 95.35203552246094 L 927.9541015625 80.36363983154297 L 927.9541015625 80.36363983154297 L 906.1405639648438 80.40019989013672 L 885.1985473632812 80.50786590576172 L 865.0910034179688 80.68362426757812 L 845.7808227539062 80.92443084716797 L 827.2308959960938 81.2272720336914 L 809.4042358398438 81.589111328125 L 792.263671875 82.0069351196289 L 775.7721557617188 82.47770690917969 L 759.892578125 82.99840545654297 L 744.5878295898438 83.56600952148438 L 729.8208618164062 84.177490234375 L 715.5545654296875 84.8298110961914 L 701.7518920898438 85.51995849609375 L 688.3756713867188 86.24491119384766 L 675.388916015625 87.00162506103516 L 662.7544555664062 87.78709411621094 L 650.435302734375 88.59827423095703 L 638.3942260742188 89.4321517944336 L 626.59423828125 90.28569793701172 L 614.998291015625 91.1558837890625 L 603.5691528320312 92.03968811035156 L 592.2698974609375 92.93408966064453 L 581.0632934570312 93.83604431152344 L 569.912353515625 94.74254608154297 L 558.7799682617188 95.65055847167969 L 547.6290283203125 96.55705261230469 L 536.4224243164062 97.45901489257812 L 525.1231079101562 98.35340881347656 L 513.6940307617188 99.23721313476562 L 502.0980529785156 100.10740661621094 L 490.2980651855469 100.96095275878906 L 478.25701904296875 101.79483032226562 L 465.9378356933594 102.60601043701172 L 453.3033752441406 103.39147186279297 L 440.3166198730469 104.148193359375 L 426.9404296875 104.87313842773438 L 413.1377258300781 105.56328582763672 L 398.8714294433594 106.21561431884766 L 384.1044921875 106.82709503173828 L 368.79974365234375 107.39469146728516 L 352.920166015625 107.91539764404297 L 336.4286193847656 108.38616943359375 L 319.2880554199219 108.80399322509766 L 301.4613952636719 109.16583251953125 L 282.9114990234375 109.46867370605469 L 263.601318359375 109.70948028564453 L 243.4937744140625 109.8852310180664 L 222.5517578125 109.99290466308594 L 200.73818969726562 110.02946472167969 Z" fill-opacity="0.6" clip-path="url(#iTnsbvRJGpKo)" stroke-opacity="1" stroke-linejoin="bevel" stroke-miterlimit="10" stroke-width="0.8" stroke-dasharray=""/><path fill="rgb(31,119,180)" stroke="rgb(0,0,0)" paint-order="fill" d="M 189.49258422851562 110.02946472167969 L 200.73818969726562 110.02946472167969 L 200.73818969726562 1129.2403564453125 L 189.49258422851562 1129.2403564453125 L 189.49258422851562 110.02946472167969" fill-opacity="0.9019607843137255" clip-path="url(#nSShwHVvRhwh)" stroke-opacity="0.2" stroke-linejoin="bevel" stroke-miterlimit="10" stroke-width="0.5" stroke-dasharray=""/><path fill="rgb(174,199,232)" stroke="rgb(0,0,0)" paint-order="fill" d="M 927.9541015625 792.9032592773438 L 939.19970703125 792.9032592773438 L 939.19970703125 1137.6363525390625 L 927.9541015625 1137.6363525390625 L 927.9541015625 792.9032592773438" fill-opacity="0.9019607843137255" clip-path="url(#nSShwHVvRhwh)" stroke-opacity="0.2" stroke-linejoin="bevel" stroke-miterlimit="10" stroke-width="0.5" stroke-dasharray=""/><path fill="rgb(255,127,14)" stroke="rgb(0,0,0)" paint-order="fill" d="M 927.9541015625 563.8482055664062 L 939.19970703125 563.8482055664062 L 939.19970703125 788.6741943359375 L 927.9541015625 788.6741943359375 L 927.9541015625 563.8482055664062" fill-opacity="0.9019607843137255" clip-path="url(#nSShwHVvRhwh)" stroke-opacity="0.2" stroke-linejoin="bevel" stroke-miterlimit="10" stroke-width="0.5" stroke-dasharray=""/><path fill="rgb(255,187,120)" stroke="rgb(0,0,0)" paint-order="fill" d="M 927.9541015625 409.7351989746094 L 939.19970703125 409.7351989746094 L 939.19970703125 559.619140625 L 927.9541015625 559.619140625 L 927.9541015625 409.7351989746094" fill-opacity="0.9019607843137255" clip-path="url(#nSShwHVvRhwh)" stroke-opacity="0.2" stroke-linejoin="bevel" stroke-miterlimit="10" stroke-width="0.5" stroke-dasharray=""/><path fill="rgb(44,160,44)" stroke="rgb(0,0,0)" paint-order="fill" d="M 927.9541015625 315.5757141113281 L 939.19970703125 315.5757141113281 L 939.19970703125 405.506103515625 L 927.9541015625 405.506103515625 L 927.9541015625 315.5757141113281" fill-opacity="0.9019607843137255" clip-path="url(#nSShwHVvRhwh)" stroke-opacity="0.2" stroke-linejoin="bevel" stroke-miterlimit="10" stroke-width="0.5" stroke-dasharray=""/><path fill="rgb(152,223,138)" stroke="rgb(0,0,0)" paint-order="fill" d="M 927.9541015625 251.39305114746094 L 939.19970703125 251.39305114746094 L 939.19970703125 311.34661865234375 L 927.9541015625 311.34661865234375 L 927.9541015625 251.39305114746094" fill-opacity="0.9019607843137255" clip-path="url(#nSShwHVvRhwh)" stroke-opacity="0.2" stroke-linejoin="bevel" stroke-miterlimit="10" stroke-width="0.5" stroke-dasharray=""/><path fill="rgb(214,39,40)" stroke="rgb(0,0,0)" paint-order="fill" d="M 927.9541015625 202.1987762451172 L 939.19970703125 202.1987762451172 L 939.19970703125 247.16395568847656 L 927.9541015625 247.16395568847656 L 927.9541015625 202.1987762451172" fill-opacity="0.9019607843137255" clip-path="url(#nSShwHVvRhwh)" stroke-opacity="0.2" stroke-linejoin="bevel" stroke-miterlimit="10" stroke-width="0.5" stroke-dasharray=""/><path fill="rgb(255,152,150)" stroke="rgb(0,0,0)" paint-order="fill" d="M 927.9541015625 167.99288940429688 L 939.19970703125 167.99288940429688 L 939.19970703125 197.9696807861328 L 927.9541015625 197.9696807861328 L 927.9541015625 167.99288940429688" fill-opacity="0.9019607843137255" clip-path="url(#nSShwHVvRhwh)" stroke-opacity="0.2" stroke-linejoin="bevel" stroke-miterlimit="10" stroke-width="0.5" stroke-dasharray=""/><path fill="rgb(148,103,189)" stroke="rgb(0,0,0)" paint-order="fill" d="M 927.9541015625 133.78700256347656 L 939.19970703125 133.78700256347656 L 939.19970703125 163.7637939453125 L 927.9541015625 163.7637939453125 L 927.9541015625 133.78700256347656" fill-opacity="0.9019607843137255" clip-path="url(#nSShwHVvRhwh)" stroke-opacity="0.2" stroke-linejoin="bevel" stroke-miterlimit="10" stroke-width="0.5" stroke-dasharray=""/><path fill="rgb(197,176,213)" stroke="rgb(0,0,0)" paint-order="fill" d="M 927.9541015625 99.58112335205078 L 939.19970703125 99.58112335205078 L 939.19970703125 129.5579071044922 L 927.9541015625 129.5579071044922 L 927.9541015625 99.58112335205078" fill-opacity="0.9019607843137255" clip-path="url(#nSShwHVvRhwh)" stroke-opacity="0.2" stroke-linejoin="bevel" stroke-miterlimit="10" stroke-width="0.5" stroke-dasharray=""/><path fill="rgb(140,86,75)" stroke="rgb(0,0,0)" paint-order="fill" d="M 927.9541015625 80.36363983154297 L 939.19970703125 80.36363983154297 L 939.19970703125 95.35203552246094 L 927.9541015625 95.35203552246094 L 927.9541015625 80.36363983154297" fill-opacity="0.9019607843137255" clip-path="url(#nSShwHVvRhwh)" stroke-opacity="0.2" stroke-linejoin="bevel" stroke-miterlimit="10" stroke-width="0.5" stroke-dasharray=""/><g clip-path="url(#gTVViUHtZcZO)"><text fill="rgb(0,0,0)" stroke="none" font-family="helvetica" font-size="8pt" font-style="normal" font-weight="normal" text-decoration="normal" x="0" y="0" text-anchor="end" dominant-baseline="central" transform="matrix(1, 0, 0, 1, 186.68118286132812, 619.6349487304688)" fill-opacity="1">ISRO - 68</text></g><g clip-path="url(#gTVViUHtZcZO)"><text fill="rgb(0,0,0)" stroke="none" font-family="helvetica" font-size="8pt" font-style="normal" font-weight="normal" text-decoration="normal" x="0" y="0" text-anchor="end" dominant-baseline="central" transform="matrix(1, 0, 0, 1, 925.1427001953125, 965.2698364257812)" fill-opacity="1">PSLV-XL - 23</text></g><g clip-path="url(#gTVViUHtZcZO)"><text fill="rgb(0,0,0)" stroke="none" font-family="helvetica" font-size="8pt" font-style="normal" font-weight="normal" text-decoration="normal" x="0" y="0" text-anchor="end" dominant-baseline="central" transform="matrix(1, 0, 0, 1, 925.1427001953125, 676.26123046875)" fill-opacity="1">PSLV-CA - 15</text></g><g clip-path="url(#gTVViUHtZcZO)"><text fill="rgb(0,0,0)" stroke="none" font-family="helvetica" font-size="8pt" font-style="normal" font-weight="normal" text-decoration="normal" x="0" y="0" text-anchor="end" dominant-baseline="central" transform="matrix(1, 0, 0, 1, 925.1427001953125, 484.6771545410156)" fill-opacity="1">PSLV-G - 10</text></g><g clip-path="url(#gTVViUHtZcZO)"><text fill="rgb(0,0,0)" stroke="none" font-family="helvetica" font-size="8pt" font-style="normal" font-weight="normal" text-decoration="normal" x="0" y="0" text-anchor="end" dominant-baseline="central" transform="matrix(1, 0, 0, 1, 925.1427001953125, 360.5409240722656)" fill-opacity="1">GSLV Mk II - 6</text></g><g clip-path="url(#gTVViUHtZcZO)"><text fill="rgb(0,0,0)" stroke="none" font-family="helvetica" font-size="8pt" font-style="normal" font-weight="normal" text-decoration="normal" x="0" y="0" text-anchor="end" dominant-baseline="central" transform="matrix(1, 0, 0, 1, 925.1427001953125, 281.3698425292969)" fill-opacity="1">GSLV Mk III - 4</text></g><g clip-path="url(#gTVViUHtZcZO)"><text fill="rgb(0,0,0)" stroke="none" font-family="helvetica" font-size="8pt" font-style="normal" font-weight="normal" text-decoration="normal" x="0" y="0" text-anchor="end" dominant-baseline="central" transform="matrix(1, 0, 0, 1, 925.1427001953125, 224.68136596679688)" fill-opacity="1">PSLV-DL - 3</text></g><g clip-path="url(#gTVViUHtZcZO)"><text fill="rgb(0,0,0)" stroke="none" font-family="helvetica" font-size="8pt" font-style="normal" font-weight="normal" text-decoration="normal" x="0" y="0" text-anchor="end" dominant-baseline="central" transform="matrix(1, 0, 0, 1, 925.1427001953125, 182.9812774658203)" fill-opacity="1">GSLV Mk I - 2</text></g><g clip-path="url(#gTVViUHtZcZO)"><text fill="rgb(0,0,0)" stroke="none" font-family="helvetica" font-size="8pt" font-style="normal" font-weight="normal" text-decoration="normal" x="0" y="0" text-anchor="end" dominant-baseline="central" transform="matrix(1, 0, 0, 1, 925.1427001953125, 148.77540588378906)" fill-opacity="1">PSLV-QL - 2</text></g><g clip-path="url(#gTVViUHtZcZO)"><text fill="rgb(0,0,0)" stroke="none" font-family="helvetica" font-size="8pt" font-style="normal" font-weight="normal" text-decoration="normal" x="0" y="0" text-anchor="end" dominant-baseline="central" transform="matrix(1, 0, 0, 1, 925.1427001953125, 114.56951904296875)" fill-opacity="1">SLV-3 - 2</text></g><g clip-path="url(#gTVViUHtZcZO)"><text fill="rgb(0,0,0)" stroke="none" font-family="helvetica" font-size="8pt" font-style="normal" font-weight="normal" text-decoration="normal" x="0" y="0" text-anchor="end" dominant-baseline="central" transform="matrix(1, 0, 0, 1, 925.1427001953125, 87.85783386230469)" fill-opacity="1">ASLV - 1</text></g><text fill="rgb(68,68,68)" stroke="none" font-family="helvetica" font-size="13px" font-style="normal" font-weight="bold" text-decoration="normal" x="10" y="19.1689453125" text-anchor="start" dominant-baseline="alphabetic" transform="matrix(1, 0, 0, 1, 0.5, 0.5)" fill-opacity="1">ISRO Rocket Successes</text></svg>