<svg version="1.1" xmlns="http://www.w3.org/2000/svg" width="1000" height="1200"><defs><clipPath id="CMSomxysUMpW"><path fill="none" stroke="none" d="M 10.5 27.5 L 970.5 27.5 L 970.5 1190.5 L 10.5 1190.5 L 10.5 27.5"/></clipPath><clipPath id="toRDeZwEpNBE"><path fill="none" stroke="none" d="M 10.5 27.5 L 970.5 27.5 L 970.5 1190.5 L 10.5 1190.5 L 10.5 27.5"/></clipPath><clipPath id="uvVUqTQXQDuU"><path fill="none" stroke="none" d="M 10.5 27.5 L 970.5 27.5 L 970.5 1190.5 L 10.5 1190.5 L 10.5 27.5"/></clipPath><clipPath id="nmhoyAVwZEKS"><path fill="none" stroke="none" d="M 10.5 27.5 L 970.5 27.5 L 970.5 1190.5 L 10.5 1190.5 L 10.5 27.5"/></clipPath><clipPath id="KiCKhOaAClMi"><path fill="none" stroke="none" d="M 10.5 27.5 L 970.5 27.5 L 970.5 1190.5 L 10.5 1190.5 L 10.5 27.5"/></clipPath><clipPath id="TmfKsETZFavT"><path fill="none" stroke="none" d="M 10.5 27.5 L 970.5 27.5 L 970.5 1190.5 L 10.5 1190.5 L 10.5 27.5"/></clipPath></defs><path fill="rgb(255,255,255)" stroke="none" paint-order="stroke" d="M 0.5 0.5 L 1000.5 0.5 L 1000.5 1200.5 L 0.5 1200.5 L 0.5 0.5" fill-opacity="1"/><rect fill="#FFFFFF" stroke="none" x="10" y="27" width="960" height="1163" transform="matrix(1, 0, 0, 1, 0.5, 0.5)"/><path fill="rgb(255,250,250)" stroke="none" paint-order="stroke" d="M 10.5 27.5 L 970.5 27.5 L 970.5 1190.5 L 10.5 1190.5 L 10.5 27.5" fill-opacity="1"/><path fill="rgb(174,199,232)" stroke="rgb(174,199,232)" paint-order="fill" d="M 200.73818969726562 917.8950805664062 L 200.73818969726562 1117.6339111328125 L 200.73818969726562 1117.6339111328125 L 222.5517578125 1117.6585693359375 L 243.4937744140625 1117.731201171875 L 263.601318359375 1117.849609375 L 282.9114990234375 1118.0120849609375 L 301.4613952636719 1118.2161865234375 L 319.2880554199219 1118.460205078125 L 336.4286193847656 1118.741943359375 L 352.920166015625 1119.059326171875 L 368.79974365234375 1119.410400390625 L 384.1044921875 1119.7930908203125 L 398.8714294433594 1120.2054443359375 L 413.1377258300781 1120.645263671875 L 426.9404296875 1121.110595703125 L 440.3166198730469 1121.599365234375 L 453.3033752441406 1122.109619140625 L 465.9378356933594 1122.6392822265625 L 478.25701904296875 1123.1861572265625 L 490.2980651855469 1123.7484130859375 L 502.0980529785156 1124.323974609375 L 513.6940307617188 1124.91064453125 L 525.1231079101562 1125.506591796875 L 536.4224243164062 1126.109619140625 L 547.6290283203125 1126.7177734375 L 558.7799682617188 1127.3289794921875 L 569.912353515625 1127.9412841796875 L 581.0632934570312 1128.552490234375 L 592.2698974609375 1129.16064453125 L 603.5691528320312 1129.763671875 L 614.998291015625 1130.359619140625 L 626.59423828125 1130.9462890625 L 638.3942260742188 1131.5218505859375 L 650.435302734375 1132.0841064453125 L 662.7544555664062 1132.6309814453125 L 675.388916015625 1133.16064453125 L 688.3756713867188 1133.6708984375 L 701.7518920898438 1134.15966796875 L 715.5545654296875 1134.625 L 729.8208618164062 1135.0648193359375 L 744.5878295898438 1135.4771728515625 L 759.892578125 1135.85986328125 L 775.7721557617188 1136.2109375 L 792.263671875 1136.5283203125 L 809.4042358398438 1136.81005859375 L 827.2308959960938 1137.0540771484375 L 845.7808227539062 1137.25830078125 L 865.0910034179688 1137.420654296875 L 885.1985473632812 1137.5390625 L 906.1405639648438 1137.6116943359375 L 927.9541015625 1137.6363525390625 L 927.9541015625 1137.6363525390625 L 927.9541015625 937.8975219726562 L 927.9541015625 937.8975219726562 L 906.1405639648438 937.8728637695312 L 885.1985473632812 937.80029296875 L 865.0910034179688 937.6817626953125 L 845.7808227539062 937.5194091796875 L 827.2308959960938 937.3152465820312 L 809.4042358398438 937.0712280273438 L 792.263671875 936.78955078125 L 775.7721557617188 936.4721069335938 L 759.892578125 936.1210327148438 L 744.5878295898438 935.7383422851562 L 729.8208618164062 935.3260498046875 L 715.5545654296875 934.8861694335938 L 701.7518920898438 934.4208374023438 L 688.3756713867188 933.9320678710938 L 675.388916015625 933.4218139648438 L 662.7544555664062 932.8922119140625 L 650.435302734375 932.3452758789062 L 638.3942260742188 931.7830200195312 L 626.59423828125 931.20751953125 L 614.998291015625 930.6207885742188 L 603.5691528320312 930.0248413085938 L 592.2698974609375 929.4218139648438 L 581.0632934570312 928.8136596679688 L 569.912353515625 928.2024536132812 L 558.7799682617188 927.5902099609375 L 547.6290283203125 926.97900390625 L 536.4224243164062 926.370849609375 L 525.1231079101562 925.7677612304688 L 513.6940307617188 925.171875 L 502.0980529785156 924.5851440429688 L 490.2980651855469 924.0096435546875 L 478.25701904296875 923.4473876953125 L 465.9378356933594 922.900390625 L 453.3033752441406 922.3707885742188 L 440.3166198730469 921.860595703125 L 426.9404296875 921.3717651367188 L 413.1377258300781 920.9064331054688 L 398.8714294433594 920.4666137695312 L 384.1044921875 920.0543212890625 L 368.79974365234375 919.671630859375 L 352.920166015625 919.3204956054688 L 336.4286193847656 919.0031127929688 L 319.2880554199219 918.7213745117188 L 301.4613952636719 918.4774169921875 L 282.9114990234375 918.273193359375 L 263.601318359375 918.11083984375 L 243.4937744140625 917.9923095703125 L 222.5517578125 917.9197387695312 L 200.73818969726562 917.8950805664062 Z" fill-opacity="0.6" clip-path="url(#uvVUqTQXQDuU)" stroke-opacity="1" stroke-linejoin="bevel" stroke-miterlimit="10" stroke-width="0.8" stroke-dasharray=""/><path fill="rgb(255,127,14)" stroke="rgb(255,127,14)" paint-order="fill" d="M 200.73818969726562 172.2034912109375 L 200.73818969726562 185.5194091796875 L 200.73818969726562 185.5194091796875 L 222.5517578125 185.47108459472656 L 243.4937744140625 185.32879638671875 L 263.601318359375 185.09652709960938 L 282.9114990234375 184.77828979492188 L 301.4613952636719 184.37808227539062 L 319.2880554199219 183.89988708496094 L 336.4286193847656 183.34771728515625 L 352.920166015625 182.72557067871094 L 368.79974365234375 182.0374298095703 L 384.1044921875 181.28732299804688 L 398.8714294433594 180.47921752929688 L 413.1377258300781 179.6171417236328 L 426.9404296875 178.705078125 L 440.3166198730469 177.7470245361328 L 453.3033752441406 176.7469940185547 L 465.9378356933594 175.70895385742188 L 478.25701904296875 174.63694763183594 L 490.2980651855469 173.53492736816406 L 502.0980529785156 172.4069366455078 L 513.6940307617188 171.25692749023438 L 525.1231079101562 170.0889434814453 L 536.4224243164062 168.90695190429688 L 547.6290283203125 167.71498107910156 L 558.7799682617188 166.51699829101562 L 569.912353515625 165.3170166015625 L 581.0632934570312 164.11903381347656 L 592.2698974609375 162.9270477294922 L 603.5691528320312 161.74505615234375 L 614.998291015625 160.5770721435547 L 626.59423828125 159.4270782470703 L 638.3942260742188 158.299072265625 L 650.435302734375 157.1970672607422 L 662.7544555664062 156.1250457763672 L 675.388916015625 155.08702087402344 L 688.3756713867188 154.08697509765625 L 701.7518920898438 153.12892150878906 L 715.5545654296875 152.21685791015625 L 729.8208618164062 151.3547821044922 L 744.5878295898438 150.54669189453125 L 759.892578125 149.79656982421875 L 775.7721557617188 149.1084442138672 L 792.263671875 148.4862823486328 L 809.4042358398438 147.93411254882812 L 827.2308959960938 147.4559326171875 L 845.7808227539062 147.0557098388672 L 865.0910034179688 146.7374725341797 L 885.1985473632812 146.5052032470703 L 906.1405639648438 146.3629150390625 L 927.9541015625 146.31459045410156 L 927.9541015625 146.31459045410156 L 927.9541015625 132.99867248535156 L 927.9541015625 132.99867248535156 L 906.1405639648438 133.0469970703125 L 885.1985473632812 133.1892852783203 L 865.0910034179688 133.4215545654297 L 845.7808227539062 133.7397918701172 L 827.2308959960938 134.13999938964844 L 809.4042358398438 134.61819458007812 L 792.263671875 135.1703643798828 L 775.7721557617188 135.7925262451172 L 759.892578125 136.48065185546875 L 744.5878295898438 137.2307586669922 L 729.8208618164062 138.0388641357422 L 715.5545654296875 138.90093994140625 L 701.7518920898438 139.81300354003906 L 688.3756713867188 140.77105712890625 L 675.388916015625 141.77110290527344 L 662.7544555664062 142.8091278076172 L 650.435302734375 143.8811492919922 L 638.3942260742188 144.983154296875 L 626.59423828125 146.1111602783203 L 614.998291015625 147.2611541748047 L 603.5691528320312 148.42913818359375 L 592.2698974609375 149.6111297607422 L 581.0632934570312 150.80311584472656 L 569.912353515625 152.00108337402344 L 558.7799682617188 153.20106506347656 L 547.6290283203125 154.3990478515625 L 536.4224243164062 155.59103393554688 L 525.1231079101562 156.7730255126953 L 513.6940307617188 157.94100952148438 L 502.0980529785156 159.09100341796875 L 490.2980651855469 160.21900939941406 L 478.25701904296875 161.32101440429688 L 465.9378356933594 162.39303588867188 L 453.3033752441406 163.43106079101562 L 440.3166198730469 164.4311065673828 L 426.9404296875 165.38916015625 L 413.1377258300781 166.3012237548828 L 398.8714294433594 167.16329956054688 L 384.1044921875 167.97140502929688 L 368.79974365234375 168.7215118408203 L 352.920166015625 169.40963745117188 L 336.4286193847656 170.03179931640625 L 319.2880554199219 170.58396911621094 L 301.4613952636719 171.06216430664062 L 282.9114990234375 171.46237182617188 L 263.601318359375 171.78060913085938 L 243.4937744140625 172.01287841796875 L 222.5517578125 172.15516662597656 L 200.73818969726562 172.2034912109375 Z" fill-opacity="0.6" clip-path="url(#uvVUqTQXQDuU)" stroke-opacity="1" stroke-linejoin="bevel" stroke-miterlimit="10" stroke-width="0.8" stroke-dasharray=""/><path fill="rgb(255,187,120)" stroke="rgb(255,187,120)" paint-order="fill" d="M 200.73818969726562 158.8875732421875 L 200.73818969726562 172.2034912109375 L 200.73818969726562 172.2034912109375 L 222.5517578125 172.14996337890625 L 243.4937744140625 171.9923095703125 L 263.601318359375 171.73500061035156 L 282.9114990234375 171.38243103027344 L 301.4613952636719 170.9390411376953 L 319.2880554199219 170.40927124023438 L 336.4286193847656 169.7975311279297 L 352.920166015625 169.10826110839844 L 368.79974365234375 168.3459014892578 L 384.1044921875 167.51487731933594 L 398.8714294433594 166.61961364746094 L 413.1377258300781 165.66453552246094 L 426.9404296875 164.65408325195312 L 440.3166198730469 163.59268188476562 L 453.3033752441406 162.48477172851562 L 465.9378356933594 161.3347625732422 L 478.25701904296875 160.14710998535156 L 490.2980651855469 158.9262237548828 L 502.0980529785156 157.67654418945312 L 513.6940307617188 156.40249633789062 L 525.1231079101562 155.10850524902344 L 536.4224243164062 153.7990264892578 L 547.6290283203125 152.47845458984375 L 558.7799682617188 151.1512451171875 L 569.912353515625 149.8218231201172 L 581.0632934570312 148.49461364746094 L 592.2698974609375 147.17404174804688 L 603.5691528320312 145.86456298828125 L 614.998291015625 144.57057189941406 L 626.59423828125 143.29652404785156 L 638.3942260742188 142.04684448242188 L 650.435302734375 140.82595825195312 L 662.7544555664062 139.6383056640625 L 675.388916015625 138.48829650878906 L 688.3756713867188 137.38038635253906 L 701.7518920898438 136.31898498535156 L 715.5545654296875 135.30853271484375 L 729.8208618164062 134.35345458984375 L 744.5878295898438 133.45819091796875 L 759.892578125 132.62716674804688 L 775.7721557617188 131.86480712890625 L 792.263671875 131.175537109375 L 809.4042358398438 130.56381225585938 L 827.2308959960938 130.03402709960938 L 845.7808227539062 129.59063720703125 L 865.0910034179688 129.23806762695312 L 885.1985473632812 128.9807586669922 L 906.1405639648438 128.8231201171875 L 927.9541015625 128.7695770263672 L 927.9541015625 128.7695770263672 L 927.9541015625 115.45365905761719 L 927.9541015625 115.45365905761719 L 906.1405639648438 115.50719451904297 L 885.1985473632812 115.66483306884766 L 865.0910034179688 115.92214965820312 L 845.7808227539062 116.27471923828125 L 827.2308959960938 116.71810913085938 L 809.4042358398438 117.24788665771484 L 792.263671875 117.859619140625 L 775.7721557617188 118.54888153076172 L 759.892578125 119.31124114990234 L 744.5878295898438 120.14227294921875 L 729.8208618164062 121.03753662109375 L 715.5545654296875 121.99261474609375 L 701.7518920898438 123.00306701660156 L 688.3756713867188 124.06446838378906 L 675.388916015625 125.17237854003906 L 662.7544555664062 126.32238006591797 L 650.435302734375 127.51004028320312 L 638.3942260742188 128.73092651367188 L 626.59423828125 129.98060607910156 L 614.998291015625 131.25465393066406 L 603.5691528320312 132.54864501953125 L 592.2698974609375 133.85812377929688 L 581.0632934570312 135.17869567871094 L 569.912353515625 136.5059051513672 L 558.7799682617188 137.8353271484375 L 547.6290283203125 139.16253662109375 L 536.4224243164062 140.48309326171875 L 525.1231079101562 141.79258728027344 L 513.6940307617188 143.08657836914062 L 502.0980529785156 144.36062622070312 L 490.2980651855469 145.6103057861328 L 478.25701904296875 146.83119201660156 L 465.9378356933594 148.0188446044922 L 453.3033752441406 149.16885375976562 L 440.3166198730469 150.27676391601562 L 426.9404296875 151.33816528320312 L 413.1377258300781 152.34861755371094 L 398.8714294433594 153.30369567871094 L 384.1044921875 154.19895935058594 L 368.79974365234375 155.0299835205078 L 352.920166015625 155.79234313964844 L 336.4286193847656 156.4816131591797 L 319.2880554199219 157.0933380126953 L 301.4613952636719 157.6231231689453 L 282.9114990234375 158.06651306152344 L 263.601318359375 158.41908264160156 L 243.4937744140625 158.6763916015625 L 222.5517578125 158.8340301513672 L 200.73818969726562 158.8875732421875 Z" fill-opacity="0.6" clip-path="url(#uvVUqTQXQDuU)" stroke-opacity="1" stroke-linejoin="bevel" stroke-miterlimit="10" stroke-width="0.8" stroke-dasharray=""/><path fill="rgb(44,160,44)" stroke="rgb(44,160,44)" paint-order="fill" d="M 200.73818969726562 265.4149475097656 L 200.73818969726562 292.0467834472656 L 200.73818969726562 292.0467834472656 L 222.5517578125 292.0193176269531 L 243.4937744140625 291.93841552734375 L 263.601318359375 291.8063659667969 L 282.9114990234375 291.6254577636719 L 301.4613952636719 291.3979187011719 L 319.2880554199219 291.1260681152344 L 336.4286193847656 290.8121337890625 L 352.920166015625 290.45843505859375 L 368.79974365234375 290.0672302246094 L 384.1044921875 289.6407775878906 L 398.8714294433594 289.1813659667969 L 413.1377258300781 288.6912536621094 L 426.9404296875 288.1727294921875 L 440.3166198730469 287.6280822753906 L 453.3033752441406 287.0595397949219 L 465.9378356933594 286.46942138671875 L 478.25701904296875 285.8599548339844 L 490.2980651855469 285.23345947265625 L 502.0980529785156 284.5921630859375 L 513.6940307617188 283.9383850097656 L 525.1231079101562 283.27435302734375 L 536.4224243164062 282.6023864746094 L 547.6290283203125 281.9247131347656 L 558.7799682617188 281.24365234375 L 569.912353515625 280.56146240234375 L 581.0632934570312 279.88037109375 L 592.2698974609375 279.2027282714844 L 603.5691528320312 278.53076171875 L 614.998291015625 277.8667297363281 L 626.59423828125 277.21295166015625 L 638.3942260742188 276.5716552734375 L 650.435302734375 275.9451599121094 L 662.7544555664062 275.335693359375 L 675.388916015625 274.7455749511719 L 688.3756713867188 274.1770324707031 L 701.7518920898438 273.6323547363281 L 715.5545654296875 273.11383056640625 L 729.8208618164062 272.6237487792969 L 744.5878295898438 272.1643371582031 L 759.892578125 271.7378845214844 L 775.7721557617188 271.3466796875 L 792.263671875 270.99298095703125 L 809.4042358398438 270.6790466308594 L 827.2308959960938 270.4071960449219 L 845.7808227539062 270.1796569824219 L 865.0910034179688 269.9987487792969 L 885.1985473632812 269.86669921875 L 906.1405639648438 269.7857971191406 L 927.9541015625 269.7583312988281 L 927.9541015625 269.7583312988281 L 927.9541015625 243.12648010253906 L 927.9541015625 243.12648010253906 L 906.1405639648438 243.15396118164062 L 885.1985473632812 243.23484802246094 L 865.0910034179688 243.3668975830078 L 845.7808227539062 243.54782104492188 L 827.2308959960938 243.7753448486328 L 809.4042358398438 244.04721069335938 L 792.263671875 244.3611297607422 L 775.7721557617188 244.71482849121094 L 759.892578125 245.1060333251953 L 744.5878295898438 245.53248596191406 L 729.8208618164062 245.9918975830078 L 715.5545654296875 246.48199462890625 L 701.7518920898438 247.00051879882812 L 688.3756713867188 247.54518127441406 L 675.388916015625 248.1137237548828 L 662.7544555664062 248.703857421875 L 650.435302734375 249.3133087158203 L 638.3942260742188 249.9398193359375 L 626.59423828125 250.5811004638672 L 614.998291015625 251.23489379882812 L 603.5691528320312 251.89891052246094 L 592.2698974609375 252.5708770751953 L 581.0632934570312 253.24853515625 L 569.912353515625 253.9296112060547 L 558.7799682617188 254.61181640625 L 547.6290283203125 255.29287719726562 L 536.4224243164062 255.9705352783203 L 525.1231079101562 256.64251708984375 L 513.6940307617188 257.3065185546875 L 502.0980529785156 257.9603271484375 L 490.2980651855469 258.6015930175781 L 478.25701904296875 259.2281188964844 L 465.9378356933594 259.8375549316406 L 453.3033752441406 260.4277038574219 L 440.3166198730469 260.9962463378906 L 426.9404296875 261.5408935546875 L 413.1377258300781 262.0594177246094 L 398.8714294433594 262.5495300292969 L 384.1044921875 263.0089416503906 L 368.79974365234375 263.4353942871094 L 352.920166015625 263.82659912109375 L 336.4286193847656 264.1802978515625 L 319.2880554199219 264.4942321777344 L 301.4613952636719 264.7660827636719 L 282.9114990234375 264.99359130859375 L 263.601318359375 265.1745300292969 L 243.4937744140625 265.30657958984375 L 222.5517578125 265.3874816894531 L 200.73818969726562 265.4149475097656 Z" fill-opacity="0.6" clip-path="url(#uvVUqTQXQDuU)" stroke-opacity="1" stroke-linejoin="bevel" stroke-miterlimit="10" stroke-width="0.8" stroke-dasharray=""/><path fill="rgb(152,223,138)" stroke="rgb(152,223,138)" paint-order="fill" d="M 200.73818969726562 238.78309631347656 L 200.73818969726562 265.4149475097656 L 200.73818969726562 265.4149475097656 L 222.5517578125 265.38226318359375 L 243.4937744140625 265.2860107421875 L 263.601318359375 265.12890625 L 282.9114990234375 264.9136657714844 L 301.4613952636719 264.6429443359375 L 319.2880554199219 264.31951904296875 L 336.4286193847656 263.946044921875 L 352.920166015625 263.5252380371094 L 368.79974365234375 263.0597839355469 L 384.1044921875 262.55242919921875 L 398.8714294433594 262.0058288574219 L 413.1377258300781 261.4227294921875 L 426.9404296875 260.8058166503906 L 440.3166198730469 260.1578063964844 L 453.3033752441406 259.4814147949219 L 465.9378356933594 258.779296875 L 478.25701904296875 258.05419921875 L 490.2980651855469 257.3088073730469 L 502.0980529785156 256.5458679199219 L 513.6940307617188 255.7680206298828 L 525.1231079101562 254.97801208496094 L 536.4224243164062 254.17852783203125 L 547.6290283203125 253.37228393554688 L 558.7799682617188 252.56199645996094 L 569.912353515625 251.75033569335938 L 581.0632934570312 250.94004821777344 L 592.2698974609375 250.13380432128906 L 603.5691528320312 249.33433532714844 L 614.998291015625 248.5443115234375 L 626.59423828125 247.7664794921875 L 638.3942260742188 247.00350952148438 L 650.435302734375 246.2581329345703 L 662.7544555664062 245.5330352783203 L 675.388916015625 244.8309326171875 L 688.3756713867188 244.15451049804688 L 701.7518920898438 243.50650024414062 L 715.5545654296875 242.8896026611328 L 729.8208618164062 242.30650329589844 L 744.5878295898438 241.75991821289062 L 759.892578125 241.25254821777344 L 775.7721557617188 240.787109375 L 792.263671875 240.36630249023438 L 809.4042358398438 239.99281311035156 L 827.2308959960938 239.66937255859375 L 845.7808227539062 239.398681640625 L 865.0910034179688 239.1834259033203 L 885.1985473632812 239.0263214111328 L 906.1405639648438 238.93008422851562 L 927.9541015625 238.89739990234375 L 927.9541015625 238.89739990234375 L 927.9541015625 212.2655487060547 L 927.9541015625 212.2655487060547 L 906.1405639648438 212.29823303222656 L 885.1985473632812 212.3944854736328 L 865.0910034179688 212.55157470703125 L 845.7808227539062 212.76683044433594 L 827.2308959960938 213.03753662109375 L 809.4042358398438 213.36097717285156 L 792.263671875 213.7344512939453 L 775.7721557617188 214.1552734375 L 759.892578125 214.62071228027344 L 744.5878295898438 215.12806701660156 L 729.8208618164062 215.67465209960938 L 715.5545654296875 216.25775146484375 L 701.7518920898438 216.87466430664062 L 688.3756713867188 217.52267456054688 L 675.388916015625 218.19908142089844 L 662.7544555664062 218.9011993408203 L 650.435302734375 219.6262969970703 L 638.3942260742188 220.37167358398438 L 626.59423828125 221.1346435546875 L 614.998291015625 221.9124755859375 L 603.5691528320312 222.70248413085938 L 592.2698974609375 223.50196838378906 L 581.0632934570312 224.30819702148438 L 569.912353515625 225.11849975585938 L 558.7799682617188 225.93014526367188 L 547.6290283203125 226.74044799804688 L 536.4224243164062 227.54669189453125 L 525.1231079101562 228.34616088867188 L 513.6940307617188 229.13616943359375 L 502.0980529785156 229.9140167236328 L 490.2980651855469 230.67697143554688 L 478.25701904296875 231.42236328125 L 465.9378356933594 232.1474609375 L 453.3033752441406 232.8495635986328 L 440.3166198730469 233.52597045898438 L 426.9404296875 234.17398071289062 L 413.1377258300781 234.7908935546875 L 398.8714294433594 235.37399291992188 L 384.1044921875 235.9205780029297 L 368.79974365234375 236.4279327392578 L 352.920166015625 236.8933868408203 L 336.4286193847656 237.31419372558594 L 319.2880554199219 237.6876678466797 L 301.4613952636719 238.01112365722656 L 282.9114990234375 238.2818145751953 L 263.601318359375 238.4970703125 L 243.4937744140625 238.6541748046875 L 222.5517578125 238.7504119873047 L 200.73818969726562 238.78309631347656 Z" fill-opacity="0.6" clip-path="url(#uvVUqTQXQDuU)" stroke-opacity="1" stroke-linejoin="bevel" stroke-miterlimit="10" stroke-width="0.8" stroke-dasharray=""/><path fill="rgb(214,39,40)" stroke="rgb(214,39,40)" paint-order="fill" d="M 200.73818969726562 212.15126037597656 L 200.73818969726562 238.78309631347656 L 200.73818969726562 238.78309631347656 L 222.5517578125 238.74520874023438 L 243.4937744140625 238.63360595703125 L 263.601318359375 238.45144653320312 L 282.9114990234375 238.20187377929688 L 301.4613952636719 237.88800048828125 L 319.2880554199219 237.51296997070312 L 336.4286193847656 237.07992553710938 L 352.920166015625 236.59201049804688 L 368.79974365234375 236.05233764648438 L 384.1044921875 235.46405029296875 L 398.8714294433594 234.83029174804688 L 413.1377258300781 234.15420532226562 L 426.9404296875 233.4389190673828 L 440.3166198730469 232.6875457763672 L 453.3033752441406 231.90325927734375 L 465.9378356933594 231.0891876220703 L 478.25701904296875 230.24844360351562 L 490.2980651855469 229.38418579101562 L 502.0980529785156 228.49954223632812 L 513.6940307617188 227.59765625 L 525.1231079101562 226.68165588378906 L 536.4224243164062 225.75466918945312 L 547.6290283203125 224.81985473632812 L 558.7799682617188 223.8803253173828 L 569.912353515625 222.93923950195312 L 581.0632934570312 221.9997100830078 L 592.2698974609375 221.06488037109375 L 603.5691528320312 220.13790893554688 L 614.998291015625 219.22190856933594 L 626.59423828125 218.32000732421875 L 638.3942260742188 217.43536376953125 L 650.435302734375 216.57110595703125 L 662.7544555664062 215.73037719726562 L 675.388916015625 214.91629028320312 L 688.3756713867188 214.1320037841797 L 701.7518920898438 213.38064575195312 L 715.5545654296875 212.6653594970703 L 729.8208618164062 211.9892578125 L 744.5878295898438 211.35549926757812 L 759.892578125 210.76722717285156 L 775.7721557617188 210.22755432128906 L 792.263671875 209.7396240234375 L 809.4042358398438 209.30657958984375 L 827.2308959960938 208.9315643310547 L 845.7808227539062 208.61769104003906 L 865.0910034179688 208.36810302734375 L 885.1985473632812 208.18594360351562 L 906.1405639648438 208.07435607910156 L 927.9541015625 208.03646850585938 L 927.9541015625 208.03646850585938 L 927.9541015625 181.4046173095703 L 927.9541015625 181.4046173095703 L 906.1405639648438 181.44252014160156 L 885.1985473632812 181.55410766601562 L 865.0910034179688 181.73626708984375 L 845.7808227539062 181.98583984375 L 827.2308959960938 182.29971313476562 L 809.4042358398438 182.67474365234375 L 792.263671875 183.1077880859375 L 775.7721557617188 183.59571838378906 L 759.892578125 184.1353759765625 L 744.5878295898438 184.72366333007812 L 729.8208618164062 185.357421875 L 715.5545654296875 186.03350830078125 L 701.7518920898438 186.74880981445312 L 688.3756713867188 187.5001678466797 L 675.388916015625 188.28445434570312 L 662.7544555664062 189.09852600097656 L 650.435302734375 189.93927001953125 L 638.3942260742188 190.80352783203125 L 626.59423828125 191.68817138671875 L 614.998291015625 192.59005737304688 L 603.5691528320312 193.5060577392578 L 592.2698974609375 194.43304443359375 L 581.0632934570312 195.36785888671875 L 569.912353515625 196.30738830566406 L 558.7799682617188 197.2484893798828 L 547.6290283203125 198.18800354003906 L 536.4224243164062 199.12283325195312 L 525.1231079101562 200.0498046875 L 513.6940307617188 200.96580505371094 L 502.0980529785156 201.86770629882812 L 490.2980651855469 202.75234985351562 L 478.25701904296875 203.61660766601562 L 465.9378356933594 204.45733642578125 L 453.3033752441406 205.27142333984375 L 440.3166198730469 206.0557098388672 L 426.9404296875 206.80706787109375 L 413.1377258300781 207.52236938476562 L 398.8714294433594 208.19845581054688 L 384.1044921875 208.83221435546875 L 368.79974365234375 209.4204864501953 L 352.920166015625 209.9601593017578 L 336.4286193847656 210.44808959960938 L 319.2880554199219 210.88113403320312 L 301.4613952636719 211.2561492919922 L 282.9114990234375 211.5700225830078 L 263.601318359375 211.81961059570312 L 243.4937744140625 212.00177001953125 L 222.5517578125 212.1133575439453 L 200.73818969726562 212.15126037597656 Z" fill-opacity="0.6" clip-path="url(#uvVUqTQXQDuU)" stroke-opacity="1" stroke-linejoin="bevel" stroke-miterlimit="10" stroke-width="0.8" stroke-dasharray=""/><path fill="rgb(255,152,150)" stroke="rgb(255,152,150)" paint-order="fill" d="M 200.73818969726562 185.5194091796875 L 200.73818969726562 212.15126037597656 L 200.73818969726562 212.15126037597656 L 222.5517578125 212.10813903808594 L 243.4937744140625 211.981201171875 L 263.601318359375 211.77398681640625 L 282.9114990234375 211.49008178710938 L 301.4613952636719 211.13304138183594 L 319.2880554199219 210.70643615722656 L 336.4286193847656 210.2138214111328 L 352.920166015625 209.65878295898438 L 368.79974365234375 209.0448760986328 L 384.1044921875 208.3756866455078 L 398.8714294433594 207.65475463867188 L 413.1377258300781 206.88568115234375 L 426.9404296875 206.07199096679688 L 440.3166198730469 205.21728515625 L 453.3033752441406 204.3251190185547 L 465.9378356933594 203.39907836914062 L 478.25701904296875 202.44268798828125 L 490.2980651855469 201.45956420898438 L 502.0980529785156 200.45323181152344 L 513.6940307617188 199.4272918701172 L 525.1231079101562 198.3852996826172 L 536.4224243164062 197.330810546875 L 547.6290283203125 196.2674102783203 L 558.7799682617188 195.1986541748047 L 569.912353515625 194.1281280517578 L 581.0632934570312 193.0593719482422 L 592.2698974609375 191.9959716796875 L 603.5691528320312 190.9414825439453 L 614.998291015625 189.8994903564453 L 626.59423828125 188.87355041503906 L 638.3942260742188 187.86721801757812 L 650.435302734375 186.88409423828125 L 662.7544555664062 185.92770385742188 L 675.388916015625 185.00164794921875 L 688.3756713867188 184.1094970703125 L 701.7518920898438 183.25479125976562 L 715.5545654296875 182.44110107421875 L 729.8208618164062 181.67202758789062 L 744.5878295898438 180.9510955810547 L 759.892578125 180.28189086914062 L 775.7721557617188 179.66799926757812 L 792.263671875 179.1129608154297 L 809.4042358398438 178.62034606933594 L 827.2308959960938 178.19374084472656 L 845.7808227539062 177.83670043945312 L 865.0910034179688 177.5527801513672 L 885.1985473632812 177.3455810546875 L 906.1405639648438 177.2186279296875 L 927.9541015625 177.17552185058594 L 927.9541015625 177.17552185058594 L 927.9541015625 150.54368591308594 L 927.9541015625 150.54368591308594 L 906.1405639648438 150.5867919921875 L 885.1985473632812 150.71372985839844 L 865.0910034179688 150.9209442138672 L 845.7808227539062 151.20484924316406 L 827.2308959960938 151.56190490722656 L 809.4042358398438 151.98851013183594 L 792.263671875 152.48110961914062 L 775.7721557617188 153.03614807128906 L 759.892578125 153.65005493164062 L 744.5878295898438 154.3192596435547 L 729.8208618164062 155.04017639160156 L 715.5545654296875 155.80926513671875 L 701.7518920898438 156.62294006347656 L 688.3756713867188 157.47764587402344 L 675.388916015625 158.36981201171875 L 662.7544555664062 159.29586791992188 L 650.435302734375 160.2522430419922 L 638.3942260742188 161.23538208007812 L 626.59423828125 162.24169921875 L 614.998291015625 163.26763916015625 L 603.5691528320312 164.3096466064453 L 592.2698974609375 165.36412048339844 L 581.0632934570312 166.42752075195312 L 569.912353515625 167.49627685546875 L 558.7799682617188 168.5668182373047 L 547.6290283203125 169.6355743408203 L 536.4224243164062 170.698974609375 L 525.1231079101562 171.75344848632812 L 513.6940307617188 172.7954559326172 L 502.0980529785156 173.82139587402344 L 490.2980651855469 174.8277130126953 L 478.25701904296875 175.81085205078125 L 465.9378356933594 176.76722717285156 L 453.3033752441406 177.6932830810547 L 440.3166198730469 178.58544921875 L 426.9404296875 179.44015502929688 L 413.1377258300781 180.2538299560547 L 398.8714294433594 181.02291870117188 L 384.1044921875 181.7438507080078 L 368.79974365234375 182.4130401611328 L 352.920166015625 183.02694702148438 L 336.4286193847656 183.5819854736328 L 319.2880554199219 184.0745849609375 L 301.4613952636719 184.50119018554688 L 282.9114990234375 184.85824584960938 L 263.601318359375 185.14215087890625 L 243.4937744140625 185.349365234375 L 222.5517578125 185.47630310058594 L 200.73818969726562 185.5194091796875 Z" fill-opacity="0.6" clip-path="url(#uvVUqTQXQDuU)" stroke-opacity="1" stroke-linejoin="bevel" stroke-miterlimit="10" stroke-width="0.8" stroke-dasharray=""/><path fill="rgb(148,103,189)" stroke="rgb(148,103,189)" paint-order="fill" d="M 200.73818969726562 331.9945373535156 L 200.73818969726562 371.94232177734375 L 200.73818969726562 371.94232177734375 L 222.5517578125 371.9252624511719 L 243.4937744140625 371.87506103515625 L 263.601318359375 371.7931213378906 L 282.9114990234375 371.6808776855469 L 301.4613952636719 371.5396728515625 L 319.2880554199219 371.3710021972656 L 336.4286193847656 371.17620849609375 L 352.920166015625 370.95672607421875 L 368.79974365234375 370.7139587402344 L 384.1044921875 370.4493713378906 L 398.8714294433594 370.1642761230469 L 413.1377258300781 369.86016845703125 L 426.9404296875 369.5384216308594 L 440.3166198730469 369.200439453125 L 453.3033752441406 368.84765625 L 465.9378356933594 368.4814758300781 L 478.25701904296875 368.1033020019531 L 490.2980651855469 367.71453857421875 L 502.0980529785156 367.3166198730469 L 513.6940307617188 366.91094970703125 L 525.1231079101562 366.4989013671875 L 536.4224243164062 366.0819396972656 L 547.6290283203125 365.66143798828125 L 558.7799682617188 365.23883056640625 L 569.912353515625 364.8155212402344 L 581.0632934570312 364.3929138183594 L 592.2698974609375 363.972412109375 L 603.5691528320312 363.5554504394531 L 614.998291015625 363.1434020996094 L 626.59423828125 362.73773193359375 L 638.3942260742188 362.3398132324219 L 650.435302734375 361.9510498046875 L 662.7544555664062 361.5728759765625 L 675.388916015625 361.2066955566406 L 688.3756713867188 360.8539123535156 L 701.7518920898438 360.51593017578125 L 715.5545654296875 360.1941833496094 L 729.8208618164062 359.89007568359375 L 744.5878295898438 359.60498046875 L 759.892578125 359.3403625488281 L 775.7721557617188 359.0976257324219 L 792.263671875 358.8781433105469 L 809.4042358398438 358.683349609375 L 827.2308959960938 358.5146789550781 L 845.7808227539062 358.37347412109375 L 865.0910034179688 358.26123046875 L 885.1985473632812 358.1792907714844 L 906.1405639648438 358.12908935546875 L 927.9541015625 358.1120300292969 L 927.9541015625 358.1120300292969 L 927.9541015625 318.1642761230469 L 927.9541015625 318.1642761230469 L 906.1405639648438 318.18133544921875 L 885.1985473632812 318.23150634765625 L 865.0910034179688 318.3134460449219 L 845.7808227539062 318.42572021484375 L 827.2308959960938 318.56689453125 L 809.4042358398438 318.735595703125 L 792.263671875 318.9303894042969 L 775.7721557617188 319.1498718261719 L 759.892578125 319.3926086425781 L 744.5878295898438 319.6572265625 L 729.8208618164062 319.9422912597656 L 715.5545654296875 320.2464294433594 L 701.7518920898438 320.56817626953125 L 688.3756713867188 320.9061279296875 L 675.388916015625 321.2589111328125 L 662.7544555664062 321.6250915527344 L 650.435302734375 322.0032653808594 L 638.3942260742188 322.39202880859375 L 626.59423828125 322.7899475097656 L 614.998291015625 323.1956481933594 L 603.5691528320312 323.607666015625 L 592.2698974609375 324.024658203125 L 581.0632934570312 324.44512939453125 L 569.912353515625 324.86773681640625 L 558.7799682617188 325.29107666015625 L 547.6290283203125 325.71368408203125 L 536.4224243164062 326.1341857910156 L 525.1231079101562 326.5511474609375 L 513.6940307617188 326.9631652832031 L 502.0980529785156 327.3688659667969 L 490.2980651855469 327.76678466796875 L 478.25701904296875 328.1555480957031 L 465.9378356933594 328.5337219238281 L 453.3033752441406 328.89990234375 L 440.3166198730469 329.252685546875 L 426.9404296875 329.5906677246094 L 413.1377258300781 329.91241455078125 L 398.8714294433594 330.2165222167969 L 384.1044921875 330.5015869140625 L 368.79974365234375 330.7662048339844 L 352.920166015625 331.00897216796875 L 336.4286193847656 331.2284240722656 L 319.2880554199219 331.4232177734375 L 301.4613952636719 331.5919189453125 L 282.9114990234375 331.73309326171875 L 263.601318359375 331.8453674316406 L 243.4937744140625 331.92730712890625 L 222.5517578125 331.9775085449219 L 200.73818969726562 331.9945373535156 Z" fill-opacity="0.6" clip-path="url(#uvVUqTQXQDuU)" stroke-opacity="1" stroke-linejoin="bevel" stroke-miterlimit="10" stroke-width="0.8" stroke-dasharray=""/><path fill="rgb(197,176,213)" stroke="rgb(197,176,213)" paint-order="fill" d="M 200.73818969726562 292.0467834472656 L 200.73818969726562 331.9945373535156 L 200.73818969726562 331.9945373535156 L 222.5517578125 331.9722900390625 L 243.4937744140625 331.90673828125 L 263.601318359375 331.79974365234375 L 282.9114990234375 331.6531677246094 L 301.4613952636719 331.46881103515625 L 319.2880554199219 331.24853515625 L 336.4286193847656 330.9941711425781 L 352.920166015625 330.70758056640625 L 368.79974365234375 330.3905944824219 L 384.1044921875 330.0450744628906 L 398.8714294433594 329.6728210449219 L 413.1377258300781 329.2757263183594 L 426.9404296875 328.8555908203125 L 440.3166198730469 328.4142761230469 L 453.3033752441406 327.95361328125 L 465.9378356933594 327.4754333496094 L 478.25701904296875 326.98162841796875 L 490.2980651855469 326.4739990234375 L 502.0980529785156 325.95440673828125 L 513.6940307617188 325.4246520996094 L 525.1231079101562 324.8866271972656 L 536.4224243164062 324.3421630859375 L 547.6290283203125 323.7930908203125 L 558.7799682617188 323.2412414550781 L 569.912353515625 322.6884765625 L 581.0632934570312 322.13665771484375 L 592.2698974609375 321.5875549316406 L 603.5691528320312 321.0430908203125 L 614.998291015625 320.50506591796875 L 626.59423828125 319.975341796875 L 638.3942260742188 319.4557189941406 L 650.435302734375 318.9480895996094 L 662.7544555664062 318.45428466796875 L 675.388916015625 317.97613525390625 L 688.3756713867188 317.5154724121094 L 701.7518920898438 317.07415771484375 L 715.5545654296875 316.6540222167969 L 729.8208618164062 316.25689697265625 L 744.5878295898438 315.8846740722656 L 759.892578125 315.53912353515625 L 775.7721557617188 315.2221374511719 L 792.263671875 314.935546875 L 809.4042358398438 314.68121337890625 L 827.2308959960938 314.4609375 L 845.7808227539062 314.2765808105469 L 865.0910034179688 314.1299743652344 L 885.1985473632812 314.0229797363281 L 906.1405639648438 313.9574279785156 L 927.9541015625 313.9351806640625 L 927.9541015625 313.9351806640625 L 927.9541015625 273.9874267578125 L 927.9541015625 273.9874267578125 L 906.1405639648438 274.0096740722656 L 885.1985473632812 274.0752258300781 L 865.0910034179688 274.1822204589844 L 845.7808227539062 274.32879638671875 L 827.2308959960938 274.5131530761719 L 809.4042358398438 274.7334289550781 L 792.263671875 274.98779296875 L 775.7721557617188 275.2743835449219 L 759.892578125 275.59136962890625 L 744.5878295898438 275.9368896484375 L 729.8208618164062 276.30914306640625 L 715.5545654296875 276.70623779296875 L 701.7518920898438 277.1263732910156 L 688.3756713867188 277.56768798828125 L 675.388916015625 278.0283508300781 L 662.7544555664062 278.50653076171875 L 650.435302734375 279.0003356933594 L 638.3942260742188 279.5079650878906 L 626.59423828125 280.0275573730469 L 614.998291015625 280.55731201171875 L 603.5691528320312 281.0953369140625 L 592.2698974609375 281.6398010253906 L 581.0632934570312 282.1888732910156 L 569.912353515625 282.74072265625 L 558.7799682617188 283.2934875488281 L 547.6290283203125 283.8453063964844 L 536.4224243164062 284.3944091796875 L 525.1231079101562 284.9388732910156 L 513.6940307617188 285.4768981933594 L 502.0980529785156 286.0066223144531 L 490.2980651855469 286.5262451171875 L 478.25701904296875 287.03387451171875 L 465.9378356933594 287.5276794433594 L 453.3033752441406 288.0058288574219 L 440.3166198730469 288.46649169921875 L 426.9404296875 288.9078063964844 L 413.1377258300781 289.32794189453125 L 398.8714294433594 289.7250671386719 L 384.1044921875 290.0973205566406 L 368.79974365234375 290.4428405761719 L 352.920166015625 290.75982666015625 L 336.4286193847656 291.0464172363281 L 319.2880554199219 291.3007507324219 L 301.4613952636719 291.5210266113281 L 282.9114990234375 291.70538330078125 L 263.601318359375 291.85198974609375 L 243.4937744140625 291.958984375 L 222.5517578125 292.0245361328125 L 200.73818969726562 292.0467834472656 Z" fill-opacity="0.6" clip-path="url(#uvVUqTQXQDuU)" stroke-opacity="1" stroke-linejoin="bevel" stroke-miterlimit="10" stroke-width="0.8" stroke-dasharray=""/><path fill="rgb(140,86,75)" stroke="rgb(140,86,75)" paint-order="fill" d="M 200.73818969726562 371.94232177734375 L 200.73818969726562 425.20599365234375 L 200.73818969726562 425.20599365234375 L 222.5517578125 425.19415283203125 L 243.4937744140625 425.1593017578125 L 263.601318359375 425.1024475097656 L 282.9114990234375 425.0245056152344 L 301.4613952636719 424.9264831542969 L 319.2880554199219 424.80938720703125 L 336.4286193847656 424.6741638183594 L 352.920166015625 424.52178955078125 L 368.79974365234375 424.353271484375 L 384.1044921875 424.1695556640625 L 398.8714294433594 423.9716491699219 L 413.1377258300781 423.7605285644531 L 426.9404296875 423.53717041015625 L 440.3166198730469 423.30255126953125 L 453.3033752441406 423.0576477050781 L 465.9378356933594 422.8034362792969 L 478.25701904296875 422.5408935546875 L 490.2980651855469 422.2710266113281 L 502.0980529785156 421.9947814941406 L 513.6940307617188 421.713134765625 L 525.1231079101562 421.4270935058594 L 536.4224243164062 421.13763427734375 L 547.6290283203125 420.8457336425781 L 558.7799682617188 420.5523376464844 L 569.912353515625 420.25848388671875 L 581.0632934570312 419.965087890625 L 592.2698974609375 419.67315673828125 L 603.5691528320312 419.3836975097656 L 614.998291015625 419.09765625 L 626.59423828125 418.8160400390625 L 638.3942260742188 418.539794921875 L 650.435302734375 418.2698974609375 L 662.7544555664062 418.00738525390625 L 675.388916015625 417.753173828125 L 688.3756713867188 417.5082702636719 L 701.7518920898438 417.27362060546875 L 715.5545654296875 417.0502624511719 L 729.8208618164062 416.8391418457031 L 744.5878295898438 416.6412353515625 L 759.892578125 416.4575500488281 L 775.7721557617188 416.2890319824219 L 792.263671875 416.13665771484375 L 809.4042358398438 416.0014343261719 L 827.2308959960938 415.88433837890625 L 845.7808227539062 415.78631591796875 L 865.0910034179688 415.7083740234375 L 885.1985473632812 415.6514892578125 L 906.1405639648438 415.61663818359375 L 927.9541015625 415.6048278808594 L 927.9541015625 415.6048278808594 L 927.9541015625 362.34112548828125 L 927.9541015625 362.34112548828125 L 906.1405639648438 362.35296630859375 L 885.1985473632812 362.3878173828125 L 865.0910034179688 362.4447021484375 L 845.7808227539062 362.5226135253906 L 827.2308959960938 362.6206359863281 L 809.4042358398438 362.7377624511719 L 792.263671875 362.87298583984375 L 775.7721557617188 363.02532958984375 L 759.892578125 363.19384765625 L 744.5878295898438 363.3775634765625 L 729.8208618164062 363.5754699707031 L 715.5545654296875 363.7865905761719 L 701.7518920898438 364.00994873046875 L 688.3756713867188 364.24456787109375 L 675.388916015625 364.4894714355469 L 662.7544555664062 364.7436828613281 L 650.435302734375 365.0062255859375 L 638.3942260742188 365.2760925292969 L 626.59423828125 365.5523376464844 L 614.998291015625 365.833984375 L 603.5691528320312 366.1200256347656 L 592.2698974609375 366.40948486328125 L 581.0632934570312 366.7013854980469 L 569.912353515625 366.9947814941406 L 558.7799682617188 367.2886657714844 L 547.6290283203125 367.58203125 L 536.4224243164062 367.87396240234375 L 525.1231079101562 368.1634216308594 L 513.6940307617188 368.449462890625 L 502.0980529785156 368.7310791015625 L 490.2980651855469 369.00732421875 L 478.25701904296875 369.2772216796875 L 465.9378356933594 369.5397644042969 L 453.3033752441406 369.7939758300781 L 440.3166198730469 370.03887939453125 L 426.9404296875 370.27349853515625 L 413.1377258300781 370.4968566894531 L 398.8714294433594 370.7079772949219 L 384.1044921875 370.9058837890625 L 368.79974365234375 371.0895690917969 L 352.920166015625 371.25811767578125 L 336.4286193847656 371.41046142578125 L 319.2880554199219 371.5456848144531 L 301.4613952636719 371.6628112792969 L 282.9114990234375 371.76080322265625 L 263.601318359375 371.8387451171875 L 243.4937744140625 371.8956298828125 L 222.5517578125 371.93048095703125 L 200.73818969726562 371.94232177734375 Z" fill-opacity="0.6" clip-path="url(#uvVUqTQXQDuU)" stroke-opacity="1" stroke-linejoin="bevel" stroke-miterlimit="10" stroke-width="0.8" stroke-dasharray=""/><path fill="rgb(196,156,148)" stroke="rgb(196,156,148)" paint-order="fill" d="M 200.73818969726562 558.365234375 L 200.73818969726562 624.94482421875 L 200.73818969726562 624.94482421875 L 222.5517578125 624.9486083984375 L 243.4937744140625 624.9598388671875 L 263.601318359375 624.9780883789062 L 282.9114990234375 625.003173828125 L 301.4613952636719 625.03466796875 L 319.2880554199219 625.0723266601562 L 336.4286193847656 625.1157836914062 L 352.920166015625 625.1647338867188 L 368.79974365234375 625.2189331054688 L 384.1044921875 625.2779541015625 L 398.8714294433594 625.341552734375 L 413.1377258300781 625.409423828125 L 426.9404296875 625.481201171875 L 440.3166198730469 625.556640625 L 453.3033752441406 625.6353759765625 L 465.9378356933594 625.717041015625 L 478.25701904296875 625.8014526367188 L 490.2980651855469 625.88818359375 L 502.0980529785156 625.9769897460938 L 513.6940307617188 626.0675048828125 L 525.1231079101562 626.1594848632812 L 536.4224243164062 626.2525024414062 L 547.6290283203125 626.3463134765625 L 558.7799682617188 626.4406127929688 L 569.912353515625 626.5350952148438 L 581.0632934570312 626.62939453125 L 592.2698974609375 626.7232055664062 L 603.5691528320312 626.8162841796875 L 614.998291015625 626.908203125 L 626.59423828125 626.9987182617188 L 638.3942260742188 627.0875244140625 L 650.435302734375 627.1742553710938 L 662.7544555664062 627.2586669921875 L 675.388916015625 627.3403930664062 L 688.3756713867188 627.4190673828125 L 701.7518920898438 627.4945068359375 L 715.5545654296875 627.5662841796875 L 729.8208618164062 627.6341552734375 L 744.5878295898438 627.69775390625 L 759.892578125 627.7568359375 L 775.7721557617188 627.8109741210938 L 792.263671875 627.8599853515625 L 809.4042358398438 627.9034423828125 L 827.2308959960938 627.9410400390625 L 845.7808227539062 627.9725952148438 L 865.0910034179688 627.9976196289062 L 885.1985473632812 628.0159301757812 L 906.1405639648438 628.027099609375 L 927.9541015625 628.0308837890625 L 927.9541015625 628.0308837890625 L 927.9541015625 561.4512939453125 L 927.9541015625 561.4512939453125 L 906.1405639648438 561.447509765625 L 885.1985473632812 561.436279296875 L 865.0910034179688 561.4180297851562 L 845.7808227539062 561.3929443359375 L 827.2308959960938 561.3614501953125 L 809.4042358398438 561.3237915039062 L 792.263671875 561.2803344726562 L 775.7721557617188 561.2313842773438 L 759.892578125 561.1771850585938 L 744.5878295898438 561.1181640625 L 729.8208618164062 561.0545654296875 L 715.5545654296875 560.9866943359375 L 701.7518920898438 560.9149169921875 L 688.3756713867188 560.8394775390625 L 675.388916015625 560.7607421875 L 662.7544555664062 560.6790771484375 L 650.435302734375 560.5946655273438 L 638.3942260742188 560.5079345703125 L 626.59423828125 560.4191284179688 L 614.998291015625 560.32861328125 L 603.5691528320312 560.2366333007812 L 592.2698974609375 560.1436157226562 L 581.0632934570312 560.0498046875 L 569.912353515625 559.9555053710938 L 558.7799682617188 559.8610229492188 L 547.6290283203125 559.7667236328125 L 536.4224243164062 559.6729125976562 L 525.1231079101562 559.579833984375 L 513.6940307617188 559.4879150390625 L 502.0980529785156 559.3973999023438 L 490.2980651855469 559.30859375 L 478.25701904296875 559.2218627929688 L 465.9378356933594 559.137451171875 L 453.3033752441406 559.0557250976562 L 440.3166198730469 558.97705078125 L 426.9404296875 558.901611328125 L 413.1377258300781 558.829833984375 L 398.8714294433594 558.761962890625 L 384.1044921875 558.6983642578125 L 368.79974365234375 558.6392822265625 L 352.920166015625 558.5851440429688 L 336.4286193847656 558.5361328125 L 319.2880554199219 558.49267578125 L 301.4613952636719 558.455078125 L 282.9114990234375 558.4235229492188 L 263.601318359375 558.3984985351562 L 243.4937744140625 558.3801879882812 L 222.5517578125 558.3690185546875 L 200.73818969726562 558.365234375 Z" fill-opacity="0.6" clip-path="url(#uvVUqTQXQDuU)" stroke-opacity="1" stroke-linejoin="bevel" stroke-miterlimit="10" stroke-width="0.8" stroke-dasharray=""/><path fill="rgb(227,119,194)" stroke="rgb(227,119,194)" paint-order="fill" d="M 200.73818969726562 491.7856140136719 L 200.73818969726562 558.365234375 L 200.73818969726562 558.365234375 L 222.5517578125 558.3638305664062 L 243.4937744140625 558.3596801757812 L 263.601318359375 558.3529052734375 L 282.9114990234375 558.3436279296875 L 301.4613952636719 558.3319091796875 L 319.2880554199219 558.3179931640625 L 336.4286193847656 558.3018798828125 L 352.920166015625 558.2837524414062 L 368.79974365234375 558.263671875 L 384.1044921875 558.2418212890625 L 398.8714294433594 558.21826171875 L 413.1377258300781 558.193115234375 L 426.9404296875 558.1665649414062 L 440.3166198730469 558.1386108398438 L 453.3033752441406 558.1094360351562 L 465.9378356933594 558.0791625976562 L 478.25701904296875 558.0479125976562 L 490.2980651855469 558.0158081054688 L 502.0980529785156 557.98291015625 L 513.6940307617188 557.9494018554688 L 525.1231079101562 557.9153442382812 L 536.4224243164062 557.880859375 L 547.6290283203125 557.8461303710938 L 558.7799682617188 557.8112182617188 L 569.912353515625 557.7762451171875 L 581.0632934570312 557.7412719726562 L 592.2698974609375 557.70654296875 L 603.5691528320312 557.6720581054688 L 614.998291015625 557.6380004882812 L 626.59423828125 557.6044921875 L 638.3942260742188 557.5715942382812 L 650.435302734375 557.5394897460938 L 662.7544555664062 557.5082397460938 L 675.388916015625 557.4779663085938 L 688.3756713867188 557.4487915039062 L 701.7518920898438 557.4208984375 L 715.5545654296875 557.394287109375 L 729.8208618164062 557.369140625 L 744.5878295898438 557.3455810546875 L 759.892578125 557.32373046875 L 775.7721557617188 557.3036499023438 L 792.263671875 557.2855224609375 L 809.4042358398438 557.2694091796875 L 827.2308959960938 557.2554931640625 L 845.7808227539062 557.2438354492188 L 865.0910034179688 557.2345581054688 L 885.1985473632812 557.227783203125 L 906.1405639648438 557.2236328125 L 927.9541015625 557.2222290039062 L 927.9541015625 557.2222290039062 L 927.9541015625 490.6426086425781 L 927.9541015625 490.6426086425781 L 906.1405639648438 490.6440124511719 L 885.1985473632812 490.6481628417969 L 865.0910034179688 490.6549377441406 L 845.7808227539062 490.6642150878906 L 827.2308959960938 490.6758728027344 L 809.4042358398438 490.6898193359375 L 792.263671875 490.7059326171875 L 775.7721557617188 490.72406005859375 L 759.892578125 490.7441101074219 L 744.5878295898438 490.7659912109375 L 729.8208618164062 490.78955078125 L 715.5545654296875 490.814697265625 L 701.7518920898438 490.8412780761719 L 688.3756713867188 490.86920166015625 L 675.388916015625 490.8983459472656 L 662.7544555664062 490.9286193847656 L 650.435302734375 490.9598693847656 L 638.3942260742188 490.99200439453125 L 626.59423828125 491.02490234375 L 614.998291015625 491.05841064453125 L 603.5691528320312 491.09246826171875 L 592.2698974609375 491.1269226074219 L 581.0632934570312 491.16168212890625 L 569.912353515625 491.1966247558594 L 558.7799682617188 491.2315979003906 L 547.6290283203125 491.2665100097656 L 536.4224243164062 491.30126953125 L 525.1231079101562 491.3357238769531 L 513.6940307617188 491.3697814941406 L 502.0980529785156 491.4033203125 L 490.2980651855469 491.4361877441406 L 478.25701904296875 491.46832275390625 L 465.9378356933594 491.49957275390625 L 453.3033752441406 491.52984619140625 L 440.3166198730469 491.5589904785156 L 426.9404296875 491.5869445800781 L 413.1377258300781 491.613525390625 L 398.8714294433594 491.638671875 L 384.1044921875 491.6622314453125 L 368.79974365234375 491.68408203125 L 352.920166015625 491.70416259765625 L 336.4286193847656 491.7222900390625 L 319.2880554199219 491.7383728027344 L 301.4613952636719 491.7523193359375 L 282.9114990234375 491.7640075683594 L 263.601318359375 491.7732849121094 L 243.4937744140625 491.7800598144531 L 222.5517578125 491.7841796875 L 200.73818969726562 491.7856140136719 Z" fill-opacity="0.6" clip-path="url(#uvVUqTQXQDuU)" stroke-opacity="1" stroke-linejoin="bevel" stroke-miterlimit="10" stroke-width="0.8" stroke-dasharray=""/><path fill="rgb(247,182,210)" stroke="rgb(247,182,210)" paint-order="fill" d="M 200.73818969726562 425.20599365234375 L 200.73818969726562 491.7856140136719 L 200.73818969726562 491.7856140136719 L 222.5517578125 491.77899169921875 L 243.4937744140625 491.7594909667969 L 263.601318359375 491.7276611328125 L 282.9114990234375 491.6840515136719 L 301.4613952636719 491.62921142578125 L 319.2880554199219 491.5636901855469 L 336.4286193847656 491.488037109375 L 352.920166015625 491.40277099609375 L 368.79974365234375 491.3084716796875 L 384.1044921875 491.2056884765625 L 398.8714294433594 491.094970703125 L 413.1377258300781 490.9768371582031 L 426.9404296875 490.85186767578125 L 440.3166198730469 490.7205810546875 L 453.3033752441406 490.58355712890625 L 465.9378356933594 490.4413146972656 L 478.25701904296875 490.2944030761719 L 490.2980651855469 490.1434020996094 L 502.0980529785156 489.9888610839844 L 513.6940307617188 489.8312683105469 L 525.1231079101562 489.6712341308594 L 536.4224243164062 489.5092468261719 L 547.6290283203125 489.3459167480469 L 558.7799682617188 489.1817626953125 L 569.912353515625 489.017333984375 L 581.0632934570312 488.8531799316406 L 592.2698974609375 488.6898498535156 L 603.5691528320312 488.52789306640625 L 614.998291015625 488.36785888671875 L 626.59423828125 488.21026611328125 L 638.3942260742188 488.0556945800781 L 650.435302734375 487.9046936035156 L 662.7544555664062 487.7578125 L 675.388916015625 487.6155700683594 L 688.3756713867188 487.4785461425781 L 701.7518920898438 487.3472595214844 L 715.5545654296875 487.2222900390625 L 729.8208618164062 487.1041564941406 L 744.5878295898438 486.993408203125 L 759.892578125 486.890625 L 775.7721557617188 486.7963562011719 L 792.263671875 486.7110900878906 L 809.4042358398438 486.63543701171875 L 827.2308959960938 486.5699157714844 L 845.7808227539062 486.51507568359375 L 865.0910034179688 486.4714660644531 L 885.1985473632812 486.43963623046875 L 906.1405639648438 486.4201354980469 L 927.9541015625 486.41351318359375 L 927.9541015625 486.41351318359375 L 927.9541015625 419.8338928222656 L 927.9541015625 419.8338928222656 L 906.1405639648438 419.84051513671875 L 885.1985473632812 419.8600158691406 L 865.0910034179688 419.891845703125 L 845.7808227539062 419.9354553222656 L 827.2308959960938 419.99029541015625 L 809.4042358398438 420.0558166503906 L 792.263671875 420.1315002441406 L 775.7721557617188 420.21673583984375 L 759.892578125 420.31103515625 L 744.5878295898438 420.413818359375 L 729.8208618164062 420.5245361328125 L 715.5545654296875 420.6426696777344 L 701.7518920898438 420.76763916015625 L 688.3756713867188 420.89892578125 L 675.388916015625 421.03594970703125 L 662.7544555664062 421.1781921386719 L 650.435302734375 421.3251037597656 L 638.3942260742188 421.4761047363281 L 626.59423828125 421.6306457519531 L 614.998291015625 421.7882385253906 L 603.5691528320312 421.9482727050781 L 592.2698974609375 422.1102600097656 L 581.0632934570312 422.2735900878906 L 569.912353515625 422.437744140625 L 558.7799682617188 422.6021728515625 L 547.6290283203125 422.7663269042969 L 536.4224243164062 422.9296569824219 L 525.1231079101562 423.09161376953125 L 513.6940307617188 423.25164794921875 L 502.0980529785156 423.40924072265625 L 490.2980651855469 423.5638122558594 L 478.25701904296875 423.7148132324219 L 465.9378356933594 423.8616943359375 L 453.3033752441406 424.0039367675781 L 440.3166198730469 424.1409606933594 L 426.9404296875 424.2722473144531 L 413.1377258300781 424.397216796875 L 398.8714294433594 424.5153503417969 L 384.1044921875 424.6260986328125 L 368.79974365234375 424.7288818359375 L 352.920166015625 424.8231506347656 L 336.4286193847656 424.9084167480469 L 319.2880554199219 424.98406982421875 L 301.4613952636719 425.0495910644531 L 282.9114990234375 425.10443115234375 L 263.601318359375 425.1480407714844 L 243.4937744140625 425.17987060546875 L 222.5517578125 425.1993713378906 L 200.73818969726562 425.20599365234375 Z" fill-opacity="0.6" clip-path="url(#uvVUqTQXQDuU)" stroke-opacity="1" stroke-linejoin="bevel" stroke-miterlimit="10" stroke-width="0.8" stroke-dasharray=""/><path fill="rgb(127,127,127)" stroke="rgb(127,127,127)" paint-order="fill" d="M 200.73818969726562 624.94482421875 L 200.73818969726562 704.84033203125 L 200.73818969726562 704.84033203125 L 222.5517578125 704.849365234375 L 243.4937744140625 704.8759155273438 L 263.601318359375 704.9192504882812 L 282.9114990234375 704.9786376953125 L 301.4613952636719 705.0532836914062 L 319.2880554199219 705.1425170898438 L 336.4286193847656 705.2455444335938 L 352.920166015625 705.3616333007812 L 368.79974365234375 705.4900512695312 L 384.1044921875 705.6300048828125 L 398.8714294433594 705.78076171875 L 413.1377258300781 705.941650390625 L 426.9404296875 706.11181640625 L 440.3166198730469 706.2905883789062 L 453.3033752441406 706.4771728515625 L 465.9378356933594 706.6708374023438 L 478.25701904296875 706.8709106445312 L 490.2980651855469 707.0765380859375 L 502.0980529785156 707.2869873046875 L 513.6940307617188 707.5015869140625 L 525.1231079101562 707.719482421875 L 536.4224243164062 707.9400634765625 L 547.6290283203125 708.1624755859375 L 558.7799682617188 708.385986328125 L 569.912353515625 708.60986328125 L 581.0632934570312 708.8334350585938 L 592.2698974609375 709.0558471679688 L 603.5691528320312 709.2763671875 L 614.998291015625 709.4943237304688 L 626.59423828125 709.7088623046875 L 638.3942260742188 709.9193725585938 L 650.435302734375 710.125 L 662.7544555664062 710.3250122070312 L 675.388916015625 710.5186767578125 L 688.3756713867188 710.7052612304688 L 701.7518920898438 710.884033203125 L 715.5545654296875 711.0542602539062 L 729.8208618164062 711.215087890625 L 744.5878295898438 711.3658447265625 L 759.892578125 711.505859375 L 775.7721557617188 711.6342163085938 L 792.263671875 711.7503051757812 L 809.4042358398438 711.8533325195312 L 827.2308959960938 711.9425659179688 L 845.7808227539062 712.0172729492188 L 865.0910034179688 712.0765991210938 L 885.1985473632812 712.1199340820312 L 906.1405639648438 712.146484375 L 927.9541015625 712.155517578125 L 927.9541015625 712.155517578125 L 927.9541015625 632.260009765625 L 927.9541015625 632.260009765625 L 906.1405639648438 632.2509765625 L 885.1985473632812 632.2244262695312 L 865.0910034179688 632.1810913085938 L 845.7808227539062 632.1217041015625 L 827.2308959960938 632.0470581054688 L 809.4042358398438 631.9578247070312 L 792.263671875 631.8547973632812 L 775.7721557617188 631.7387084960938 L 759.892578125 631.6102905273438 L 744.5878295898438 631.4703369140625 L 729.8208618164062 631.319580078125 L 715.5545654296875 631.15869140625 L 701.7518920898438 630.988525390625 L 688.3756713867188 630.8097534179688 L 675.388916015625 630.6231689453125 L 662.7544555664062 630.4295043945312 L 650.435302734375 630.2294311523438 L 638.3942260742188 630.0238037109375 L 626.59423828125 629.8133544921875 L 614.998291015625 629.5987548828125 L 603.5691528320312 629.380859375 L 592.2698974609375 629.1602783203125 L 581.0632934570312 628.9378662109375 L 569.912353515625 628.71435546875 L 558.7799682617188 628.490478515625 L 547.6290283203125 628.2669067382812 L 536.4224243164062 628.0444946289062 L 525.1231079101562 627.823974609375 L 513.6940307617188 627.6060180664062 L 502.0980529785156 627.3914794921875 L 490.2980651855469 627.1809692382812 L 478.25701904296875 626.975341796875 L 465.9378356933594 626.7753295898438 L 453.3033752441406 626.5816650390625 L 440.3166198730469 626.3950805664062 L 426.9404296875 626.21630859375 L 413.1377258300781 626.046142578125 L 398.8714294433594 625.88525390625 L 384.1044921875 625.7344970703125 L 368.79974365234375 625.5945434570312 L 352.920166015625 625.4661254882812 L 336.4286193847656 625.3500366210938 L 319.2880554199219 625.2470092773438 L 301.4613952636719 625.1577758789062 L 282.9114990234375 625.0831298828125 L 263.601318359375 625.0237426757812 L 243.4937744140625 624.9804077148438 L 222.5517578125 624.953857421875 L 200.73818969726562 624.94482421875 Z" fill-opacity="0.6" clip-path="url(#uvVUqTQXQDuU)" stroke-opacity="1" stroke-linejoin="bevel" stroke-miterlimit="10" stroke-width="0.8" stroke-dasharray=""/><path fill="rgb(199,199,199)" stroke="rgb(199,199,199)" paint-order="fill" d="M 200.73818969726562 811.3677368164062 L 200.73818969726562 917.8950805664062 L 200.73818969726562 917.8950805664062 L 222.5517578125 917.91455078125 L 243.4937744140625 917.9718017578125 L 263.601318359375 918.0652465820312 L 282.9114990234375 918.1932373046875 L 301.4613952636719 918.3543090820312 L 319.2880554199219 918.5466918945312 L 336.4286193847656 918.768798828125 L 352.920166015625 919.0191650390625 L 368.79974365234375 919.2960205078125 L 384.1044921875 919.5977783203125 L 398.8714294433594 919.9229125976562 L 413.1377258300781 920.269775390625 L 426.9404296875 920.63671875 L 440.3166198730469 921.0221557617188 L 453.3033752441406 921.4244995117188 L 465.9378356933594 921.8421630859375 L 478.25701904296875 922.2734375 L 490.2980651855469 922.7168579101562 L 502.0980529785156 923.170654296875 L 513.6940307617188 923.6333618164062 L 525.1231079101562 924.103271484375 L 536.4224243164062 924.5787963867188 L 547.6290283203125 925.0584106445312 L 558.7799682617188 925.5403442382812 L 569.912353515625 926.023193359375 L 581.0632934570312 926.505126953125 L 592.2698974609375 926.9847412109375 L 603.5691528320312 927.4602661132812 L 614.998291015625 927.93017578125 L 626.59423828125 928.3928833007812 L 638.3942260742188 928.8466796875 L 650.435302734375 929.2901000976562 L 662.7544555664062 929.7213745117188 L 675.388916015625 930.1390380859375 L 688.3756713867188 930.5413818359375 L 701.7518920898438 930.9268188476562 L 715.5545654296875 931.2937622070312 L 729.8208618164062 931.640625 L 744.5878295898438 931.9657592773438 L 759.892578125 932.2675170898438 L 775.7721557617188 932.5443725585938 L 792.263671875 932.7947387695312 L 809.4042358398438 933.016845703125 L 827.2308959960938 933.209228515625 L 845.7808227539062 933.3703002929688 L 865.0910034179688 933.498291015625 L 885.1985473632812 933.5917358398438 L 906.1405639648438 933.6489868164062 L 927.9541015625 933.66845703125 L 927.9541015625 933.66845703125 L 927.9541015625 827.1410522460938 L 927.9541015625 827.1410522460938 L 906.1405639648438 827.1216430664062 L 885.1985473632812 827.0643920898438 L 865.0910034179688 826.970947265625 L 845.7808227539062 826.8428955078125 L 827.2308959960938 826.681884765625 L 809.4042358398438 826.489501953125 L 792.263671875 826.267333984375 L 775.7721557617188 826.0170288085938 L 759.892578125 825.7401733398438 L 744.5878295898438 825.4383544921875 L 729.8208618164062 825.11328125 L 715.5545654296875 824.7664184570312 L 701.7518920898438 824.3994750976562 L 688.3756713867188 824.0139770507812 L 675.388916015625 823.6116333007812 L 662.7544555664062 823.1940307617188 L 650.435302734375 822.7626953125 L 638.3942260742188 822.3193359375 L 626.59423828125 821.865478515625 L 614.998291015625 821.40283203125 L 603.5691528320312 820.9329223632812 L 592.2698974609375 820.4573364257812 L 581.0632934570312 819.977783203125 L 569.912353515625 819.4957885742188 L 558.7799682617188 819.0130004882812 L 547.6290283203125 818.531005859375 L 536.4224243164062 818.0514526367188 L 525.1231079101562 817.5758666992188 L 513.6940307617188 817.10595703125 L 502.0980529785156 816.643310546875 L 490.2980651855469 816.189453125 L 478.25701904296875 815.74609375 L 465.9378356933594 815.3147583007812 L 453.3033752441406 814.8971557617188 L 440.3166198730469 814.4948120117188 L 426.9404296875 814.1093139648438 L 413.1377258300781 813.7423706054688 L 398.8714294433594 813.3955688476562 L 384.1044921875 813.0704345703125 L 368.79974365234375 812.7686157226562 L 352.920166015625 812.4917602539062 L 336.4286193847656 812.241455078125 L 319.2880554199219 812.019287109375 L 301.4613952636719 811.826904296875 L 282.9114990234375 811.6658935546875 L 263.601318359375 811.537841796875 L 243.4937744140625 811.4443969726562 L 222.5517578125 811.3871459960938 L 200.73818969726562 811.3677368164062 Z" fill-opacity="0.6" clip-path="url(#uvVUqTQXQDuU)" stroke-opacity="1" stroke-linejoin="bevel" stroke-miterlimit="10" stroke-width="0.8" stroke-dasharray=""/><path fill="rgb(188,189,34)" stroke="rgb(188,189,34)" paint-order="fill" d="M 200.73818969726562 704.84033203125 L 200.73818969726562 811.3677368164062 L 200.73818969726562 811.3677368164062 L 222.5517578125 811.3819580078125 L 243.4937744140625 811.423828125 L 263.601318359375 811.4922485351562 L 282.9114990234375 811.5859375 L 301.4613952636719 811.7037963867188 L 319.2880554199219 811.8446044921875 L 336.4286193847656 812.0072021484375 L 352.920166015625 812.1903686523438 L 368.79974365234375 812.3930053710938 L 384.1044921875 812.6138916015625 L 398.8714294433594 812.8518676757812 L 413.1377258300781 813.105712890625 L 426.9404296875 813.374267578125 L 440.3166198730469 813.6563720703125 L 453.3033752441406 813.9508666992188 L 465.9378356933594 814.2565307617188 L 478.25701904296875 814.5721435546875 L 490.2980651855469 814.8966674804688 L 502.0980529785156 815.2288208007812 L 513.6940307617188 815.5674438476562 L 525.1231079101562 815.911376953125 L 536.4224243164062 816.2593994140625 L 547.6290283203125 816.6104125976562 L 558.7799682617188 816.9631958007812 L 569.912353515625 817.3165283203125 L 581.0632934570312 817.6693115234375 L 592.2698974609375 818.020263671875 L 603.5691528320312 818.3683471679688 L 614.998291015625 818.7122802734375 L 626.59423828125 819.0509033203125 L 638.3942260742188 819.383056640625 L 650.435302734375 819.70751953125 L 662.7544555664062 820.023193359375 L 675.388916015625 820.328857421875 L 688.3756713867188 820.6233520507812 L 701.7518920898438 820.9054565429688 L 715.5545654296875 821.1740112304688 L 729.8208618164062 821.4278564453125 L 744.5878295898438 821.6658325195312 L 759.892578125 821.8866577148438 L 775.7721557617188 822.0892944335938 L 792.263671875 822.2725219726562 L 809.4042358398438 822.4351196289062 L 827.2308959960938 822.575927734375 L 845.7808227539062 822.6937866210938 L 865.0910034179688 822.7874755859375 L 885.1985473632812 822.8558349609375 L 906.1405639648438 822.8977661132812 L 927.9541015625 822.9119873046875 L 927.9541015625 822.9119873046875 L 927.9541015625 716.3846435546875 L 927.9541015625 716.3846435546875 L 906.1405639648438 716.370361328125 L 885.1985473632812 716.3284912109375 L 865.0910034179688 716.2600708007812 L 845.7808227539062 716.1663818359375 L 827.2308959960938 716.0485229492188 L 809.4042358398438 715.90771484375 L 792.263671875 715.7451171875 L 775.7721557617188 715.5619506835938 L 759.892578125 715.3593139648438 L 744.5878295898438 715.138427734375 L 729.8208618164062 714.9005126953125 L 715.5545654296875 714.6466064453125 L 701.7518920898438 714.3780517578125 L 688.3756713867188 714.095947265625 L 675.388916015625 713.801513671875 L 662.7544555664062 713.495849609375 L 650.435302734375 713.18017578125 L 638.3942260742188 712.8556518554688 L 626.59423828125 712.5234985351562 L 614.998291015625 712.1848754882812 L 603.5691528320312 711.8409423828125 L 592.2698974609375 711.492919921875 L 581.0632934570312 711.1419067382812 L 569.912353515625 710.7891845703125 L 558.7799682617188 710.435791015625 L 547.6290283203125 710.0830688476562 L 536.4224243164062 709.7320556640625 L 525.1231079101562 709.384033203125 L 513.6940307617188 709.0401000976562 L 502.0980529785156 708.7014770507812 L 490.2980651855469 708.3693237304688 L 478.25701904296875 708.0447998046875 L 465.9378356933594 707.7291259765625 L 453.3033752441406 707.4234619140625 L 440.3166198730469 707.1290283203125 L 426.9404296875 706.846923828125 L 413.1377258300781 706.5783081054688 L 398.8714294433594 706.324462890625 L 384.1044921875 706.0865478515625 L 368.79974365234375 705.8656616210938 L 352.920166015625 705.6630249023438 L 336.4286193847656 705.4797973632812 L 319.2880554199219 705.3171997070312 L 301.4613952636719 705.1763916015625 L 282.9114990234375 705.05859375 L 263.601318359375 704.96484375 L 243.4937744140625 704.896484375 L 222.5517578125 704.8545532226562 L 200.73818969726562 704.84033203125 Z" fill-opacity="0.6" clip-path="url(#uvVUqTQXQDuU)" stroke-opacity="1" stroke-linejoin="bevel" stroke-miterlimit="10" stroke-width="0.8" stroke-dasharray=""/><path fill="rgb(219,219,141)" stroke="rgb(219,219,141)" paint-order="fill" d="M 200.73818969726562 145.57164001464844 L 200.73818969726562 158.8875732421875 L 200.73818969726562 158.8875732421875 L 222.5517578125 158.82882690429688 L 243.4937744140625 158.6558380126953 L 263.601318359375 158.3734588623047 L 282.9114990234375 157.98655700683594 L 301.4613952636719 157.5 L 319.2880554199219 156.91864013671875 L 336.4286193847656 156.24734497070312 L 352.920166015625 155.490966796875 L 368.79974365234375 154.6543731689453 L 384.1044921875 153.742431640625 L 398.8714294433594 152.75999450683594 L 413.1377258300781 151.71192932128906 L 426.9404296875 150.60308837890625 L 440.3166198730469 149.43833923339844 L 453.3033752441406 148.22254943847656 L 465.9378356933594 146.9605712890625 L 478.25701904296875 145.6572723388672 L 490.2980651855469 144.31752014160156 L 502.0980529785156 142.94615173339844 L 513.6940307617188 141.5480499267578 L 525.1231079101562 140.12808227539062 L 536.4224243164062 138.6910858154297 L 547.6290283203125 137.241943359375 L 558.7799682617188 135.78550720214844 L 569.912353515625 134.32662963867188 L 581.0632934570312 132.8701934814453 L 592.2698974609375 131.42105102539062 L 603.5691528320312 129.9840545654297 L 614.998291015625 128.5640869140625 L 626.59423828125 127.16598510742188 L 638.3942260742188 125.79462432861328 L 650.435302734375 124.45486450195312 L 662.7544555664062 123.15155792236328 L 675.388916015625 121.88958740234375 L 688.3756713867188 120.67379760742188 L 701.7518920898438 119.50904846191406 L 715.5545654296875 118.40020751953125 L 729.8208618164062 117.35214233398438 L 744.5878295898438 116.36970520019531 L 759.892578125 115.457763671875 L 775.7721557617188 114.62117004394531 L 792.263671875 113.86479187011719 L 809.4042358398438 113.19349670410156 L 827.2308959960938 112.61213684082031 L 845.7808227539062 112.12557983398438 L 865.0910034179688 111.73867797851562 L 885.1985473632812 111.45630645751953 L 906.1405639648438 111.28330993652344 L 927.9541015625 111.22457122802734 L 927.9541015625 111.22457122802734 L 927.9541015625 97.90864562988281 L 927.9541015625 97.90864562988281 L 906.1405639648438 97.96739196777344 L 885.1985473632812 98.140380859375 L 865.0910034179688 98.42276000976562 L 845.7808227539062 98.80965423583984 L 827.2308959960938 99.29621124267578 L 809.4042358398438 99.87757110595703 L 792.263671875 100.54887390136719 L 775.7721557617188 101.30525207519531 L 759.892578125 102.14183807373047 L 744.5878295898438 103.05378723144531 L 729.8208618164062 104.03622436523438 L 715.5545654296875 105.08428955078125 L 701.7518920898438 106.19313049316406 L 688.3756713867188 107.35787200927734 L 675.388916015625 108.57366180419922 L 662.7544555664062 109.83563995361328 L 650.435302734375 111.1389389038086 L 638.3942260742188 112.47869873046875 L 626.59423828125 113.85005950927734 L 614.998291015625 115.24816131591797 L 603.5691528320312 116.66813659667969 L 592.2698974609375 118.10513305664062 L 581.0632934570312 119.55427551269531 L 569.912353515625 121.01071166992188 L 558.7799682617188 122.4695816040039 L 547.6290283203125 123.92601776123047 L 536.4224243164062 125.37516784667969 L 525.1231079101562 126.8121566772461 L 513.6940307617188 128.2321319580078 L 502.0980529785156 129.63023376464844 L 490.2980651855469 131.0015869140625 L 478.25701904296875 132.3413543701172 L 465.9378356933594 133.6446533203125 L 453.3033752441406 134.90663146972656 L 440.3166198730469 136.12242126464844 L 426.9404296875 137.28717041015625 L 413.1377258300781 138.39601135253906 L 398.8714294433594 139.44407653808594 L 384.1044921875 140.426513671875 L 368.79974365234375 141.3384552001953 L 352.920166015625 142.175048828125 L 336.4286193847656 142.93142700195312 L 319.2880554199219 143.60272216796875 L 301.4613952636719 144.18408203125 L 282.9114990234375 144.67063903808594 L 263.601318359375 145.0575408935547 L 243.4937744140625 145.3399200439453 L 222.5517578125 145.51290893554688 L 200.73818969726562 145.57164001464844 Z" fill-opacity="0.6" clip-path="url(#uvVUqTQXQDuU)" stroke-opacity="1" stroke-linejoin="bevel" stroke-miterlimit="10" stroke-width="0.8" stroke-dasharray=""/><path fill="rgb(23,190,207)" stroke="rgb(23,190,207)" paint-order="fill" d="M 200.73818969726562 132.25572204589844 L 200.73818969726562 145.57164001464844 L 200.73818969726562 145.57164001464844 L 222.5517578125 145.5076904296875 L 243.4937744140625 145.31935119628906 L 263.601318359375 145.0119171142578 L 282.9114990234375 144.5906982421875 L 301.4613952636719 144.0609588623047 L 319.2880554199219 143.4280242919922 L 336.4286193847656 142.69715881347656 L 352.920166015625 141.87367248535156 L 368.79974365234375 140.9628448486328 L 384.1044921875 139.96998596191406 L 398.8714294433594 138.90037536621094 L 413.1377258300781 137.7593231201172 L 426.9404296875 136.55209350585938 L 440.3166198730469 135.28399658203125 L 453.3033752441406 133.9603271484375 L 465.9378356933594 132.5863800048828 L 478.25701904296875 131.16744995117188 L 490.2980651855469 129.70880126953125 L 502.0980529785156 128.21576690673828 L 513.6940307617188 126.69361877441406 L 525.1231079101562 125.14764404296875 L 536.4224243164062 123.5831527709961 L 547.6290283203125 122.00542449951172 L 558.7799682617188 120.41976165771484 L 569.912353515625 118.8314437866211 L 581.0632934570312 117.24578094482422 L 592.2698974609375 115.66805267333984 L 603.5691528320312 114.10355377197266 L 614.998291015625 112.55758666992188 L 626.59423828125 111.03543853759766 L 638.3942260742188 109.54239654541016 L 650.435302734375 108.0837631225586 L 662.7544555664062 106.6648178100586 L 675.388916015625 105.2908706665039 L 688.3756713867188 103.96720123291016 L 701.7518920898438 102.69911193847656 L 715.5545654296875 101.49188995361328 L 729.8208618164062 100.35082244873047 L 744.5878295898438 99.28121948242188 L 759.892578125 98.2883529663086 L 775.7721557617188 97.37753295898438 L 792.263671875 96.55404663085938 L 809.4042358398438 95.82318115234375 L 827.2308959960938 95.19023895263672 L 845.7808227539062 94.66050720214844 L 865.0910034179688 94.2392807006836 L 885.1985473632812 93.93185424804688 L 906.1405639648438 93.74351501464844 L 927.9541015625 93.67955780029297 L 927.9541015625 93.67955780029297 L 927.9541015625 80.36363983154297 L 927.9541015625 80.36363983154297 L 906.1405639648438 80.4275894165039 L 885.1985473632812 80.61592864990234 L 865.0910034179688 80.9233627319336 L 845.7808227539062 81.34458923339844 L 827.2308959960938 81.87432098388672 L 809.4042358398438 82.50726318359375 L 792.263671875 83.23812866210938 L 775.7721557617188 84.06161499023438 L 759.892578125 84.9724349975586 L 744.5878295898438 85.96529388427734 L 729.8208618164062 87.03490447998047 L 715.5545654296875 88.17596435546875 L 701.7518920898438 89.38318634033203 L 688.3756713867188 90.65128326416016 L 675.388916015625 91.97494506835938 L 662.7544555664062 93.3488998413086 L 650.435302734375 94.76783752441406 L 638.3942260742188 96.22647094726562 L 626.59423828125 97.71951293945312 L 614.998291015625 99.24166870117188 L 603.5691528320312 100.78763580322266 L 592.2698974609375 102.35213470458984 L 581.0632934570312 103.92985534667969 L 569.912353515625 105.5155258178711 L 558.7799682617188 107.10383605957031 L 547.6290283203125 108.68950653076172 L 536.4224243164062 110.26722717285156 L 525.1231079101562 111.83172607421875 L 513.6940307617188 113.37769317626953 L 502.0980529785156 114.89984893798828 L 490.2980651855469 116.39288330078125 L 478.25701904296875 117.85152435302734 L 465.9378356933594 119.27046203613281 L 453.3033752441406 120.6444091796875 L 440.3166198730469 121.96807861328125 L 426.9404296875 123.23617553710938 L 413.1377258300781 124.44339752197266 L 398.8714294433594 125.58445739746094 L 384.1044921875 126.65406799316406 L 368.79974365234375 127.64692687988281 L 352.920166015625 128.55775451660156 L 336.4286193847656 129.38124084472656 L 319.2880554199219 130.11209106445312 L 301.4613952636719 130.7450408935547 L 282.9114990234375 131.2747802734375 L 263.601318359375 131.6959991455078 L 243.4937744140625 132.00343322753906 L 222.5517578125 132.1917724609375 L 200.73818969726562 132.25572204589844 Z" fill-opacity="0.6" clip-path="url(#uvVUqTQXQDuU)" stroke-opacity="1" stroke-linejoin="bevel" stroke-miterlimit="10" stroke-width="0.8" stroke-dasharray=""/><path fill="rgb(31,119,180)" stroke="rgb(0,0,0)" paint-order="fill" d="M 189.49258422851562 132.25572204589844 L 200.73818969726562 132.25572204589844 L 200.73818969726562 1117.6339111328125 L 189.49258422851562 1117.6339111328125 L 189.49258422851562 132.25572204589844" fill-opacity="0.9019607843137255" clip-path="url(#nmhoyAVwZEKS)" stroke-opacity="0.2" stroke-linejoin="bevel" stroke-miterlimit="10" stroke-width="0.5" stroke-dasharray=""/><path fill="rgb(174,199,232)" stroke="rgb(0,0,0)" paint-order="fill" d="M 927.9541015625 937.8975219726562 L 939.19970703125 937.8975219726562 L 939.19970703125 1137.6363525390625 L 927.9541015625 1137.6363525390625 L 927.9541015625 937.8975219726562" fill-opacity="0.9019607843137255" clip-path="url(#nmhoyAVwZEKS)" stroke-opacity="0.2" stroke-linejoin="bevel" stroke-miterlimit="10" stroke-width="0.5" stroke-dasharray=""/><path fill="rgb(255,127,14)" stroke="rgb(0,0,0)" paint-order="fill" d="M 927.9541015625 132.99867248535156 L 939.19970703125 132.99867248535156 L 939.19970703125 146.31459045410156 L 927.9541015625 146.31459045410156 L 927.9541015625 132.99867248535156" fill-opacity="0.9019607843137255" clip-path="url(#nmhoyAVwZEKS)" stroke-opacity="0.2" stroke-linejoin="bevel" stroke-miterlimit="10" stroke-width="0.5" stroke-dasharray=""/><path fill="rgb(255,187,120)" stroke="rgb(0,0,0)" paint-order="fill" d="M 927.9541015625 115.45365905761719 L 939.19970703125 115.45365905761719 L 939.19970703125 128.7695770263672 L 927.9541015625 128.7695770263672 L 927.9541015625 115.45365905761719" fill-opacity="0.9019607843137255" clip-path="url(#nmhoyAVwZEKS)" stroke-opacity="0.2" stroke-linejoin="bevel" stroke-miterlimit="10" stroke-width="0.5" stroke-dasharray=""/><path fill="rgb(44,160,44)" stroke="rgb(0,0,0)" paint-order="fill" d="M 927.9541015625 243.12648010253906 L 939.19970703125 243.12648010253906 L 939.19970703125 269.7583312988281 L 927.9541015625 269.7583312988281 L 927.9541015625 243.12648010253906" fill-opacity="0.9019607843137255" clip-path="url(#nmhoyAVwZEKS)" stroke-opacity="0.2" stroke-linejoin="bevel" stroke-miterlimit="10" stroke-width="0.5" stroke-dasharray=""/><path fill="rgb(152,223,138)" stroke="rgb(0,0,0)" paint-order="fill" d="M 927.9541015625 212.2655487060547 L 939.19970703125 212.2655487060547 L 939.19970703125 238.89739990234375 L 927.9541015625 238.89739990234375 L 927.9541015625 212.2655487060547" fill-opacity="0.9019607843137255" clip-path="url(#nmhoyAVwZEKS)" stroke-opacity="0.2" stroke-linejoin="bevel" stroke-miterlimit="10" stroke-width="0.5" stroke-dasharray=""/><path fill="rgb(214,39,40)" stroke="rgb(0,0,0)" paint-order="fill" d="M 927.9541015625 181.4046173095703 L 939.19970703125 181.4046173095703 L 939.19970703125 208.03646850585938 L 927.9541015625 208.03646850585938 L 927.9541015625 181.4046173095703" fill-opacity="0.9019607843137255" clip-path="url(#nmhoyAVwZEKS)" stroke-opacity="0.2" stroke-linejoin="bevel" stroke-miterlimit="10" stroke-width="0.5" stroke-dasharray=""/><path fill="rgb(255,152,150)" stroke="rgb(0,0,0)" paint-order="fill" d="M 927.9541015625 150.54368591308594 L 939.19970703125 150.54368591308594 L 939.19970703125 177.17552185058594 L 927.9541015625 177.17552185058594 L 927.9541015625 150.54368591308594" fill-opacity="0.9019607843137255" clip-path="url(#nmhoyAVwZEKS)" stroke-opacity="0.2" stroke-linejoin="bevel" stroke-miterlimit="10" stroke-width="0.5" stroke-dasharray=""/><path fill="rgb(148,103,189)" stroke="rgb(0,0,0)" paint-order="fill" d="M 927.9541015625 318.1642761230469 L 939.19970703125 318.1642761230469 L 939.19970703125 358.1120300292969 L 927.9541015625 358.1120300292969 L 927.9541015625 318.1642761230469" fill-opacity="0.9019607843137255" clip-path="url(#nmhoyAVwZEKS)" stroke-opacity="0.2" stroke-linejoin="bevel" stroke-miterlimit="10" stroke-width="0.5" stroke-dasharray=""/><path fill="rgb(197,176,213)" stroke="rgb(0,0,0)" paint-order="fill" d="M 927.9541015625 273.9874267578125 L 939.19970703125 273.9874267578125 L 939.19970703125 313.9351806640625 L 927.9541015625 313.9351806640625 L 927.9541015625 273.9874267578125" fill-opacity="0.9019607843137255" clip-path="url(#nmhoyAVwZEKS)" stroke-opacity="0.2" stroke-linejoin="bevel" stroke-miterlimit="10" stroke-width="0.5" stroke-dasharray=""/><path fill="rgb(140,86,75)" stroke="rgb(0,0,0)" paint-order="fill" d="M 927.9541015625 362.34112548828125 L 939.19970703125 362.34112548828125 L 939.19970703125 415.6048278808594 L 927.9541015625 415.6048278808594 L 927.9541015625 362.34112548828125" fill-opacity="0.9019607843137255" clip-path="url(#nmhoyAVwZEKS)" stroke-opacity="0.2" stroke-linejoin="bevel" stroke-miterlimit="10" stroke-width="0.5" stroke-dasharray=""/><path fill="rgb(196,156,148)" stroke="rgb(0,0,0)" paint-order="fill" d="M 927.9541015625 561.4512939453125 L 939.19970703125 561.4512939453125 L 939.19970703125 628.0308837890625 L 927.9541015625 628.0308837890625 L 927.9541015625 561.4512939453125" fill-opacity="0.9019607843137255" clip-path="url(#nmhoyAVwZEKS)" stroke-opacity="0.2" stroke-linejoin="bevel" stroke-miterlimit="10" stroke-width="0.5" stroke-dasharray=""/><path fill="rgb(227,119,194)" stroke="rgb(0,0,0)" paint-order="fill" d="M 927.9541015625 490.6426086425781 L 939.19970703125 490.6426086425781 L 939.19970703125 557.2222290039062 L 927.9541015625 557.2222290039062 L 927.9541015625 490.6426086425781" fill-opacity="0.9019607843137255" clip-path="url(#nmhoyAVwZEKS)" stroke-opacity="0.2" stroke-linejoin="bevel" stroke-miterlimit="10" stroke-width="0.5" stroke-dasharray=""/><path fill="rgb(247,182,210)" stroke="rgb(0,0,0)" paint-order="fill" d="M 927.9541015625 419.8338928222656 L 939.19970703125 419.8338928222656 L 939.19970703125 486.41351318359375 L 927.9541015625 486.41351318359375 L 927.9541015625 419.8338928222656" fill-opacity="0.9019607843137255" clip-path="url(#nmhoyAVwZEKS)" stroke-opacity="0.2" stroke-linejoin="bevel" stroke-miterlimit="10" stroke-width="0.5" stroke-dasharray=""/><path fill="rgb(127,127,127)" stroke="rgb(0,0,0)" paint-order="fill" d="M 927.9541015625 632.260009765625 L 939.19970703125 632.260009765625 L 939.19970703125 712.155517578125 L 927.9541015625 712.155517578125 L 927.9541015625 632.260009765625" fill-opacity="0.9019607843137255" clip-path="url(#nmhoyAVwZEKS)" stroke-opacity="0.2" stroke-linejoin="bevel" stroke-miterlimit="10" stroke-width="0.5" stroke-dasharray=""/><path fill="rgb(199,199,199)" stroke="rgb(0,0,0)" paint-order="fill" d="M 927.9541015625 827.1410522460938 L 939.19970703125 827.1410522460938 L 939.19970703125 933.66845703125 L 927.9541015625 933.66845703125 L 927.9541015625 827.1410522460938" fill-opacity="0.9019607843137255" clip-path="url(#nmhoyAVwZEKS)" stroke-opacity="0.2" stroke-linejoin="bevel" stroke-miterlimit="10" stroke-width="0.5" stroke-dasharray=""/><path fill="rgb(188,189,34)" stroke="rgb(0,0,0)" paint-order="fill" d="M 927.9541015625 716.3846435546875 L 939.19970703125 716.3846435546875 L 939.19970703125 822.9119873046875 L 927.9541015625 822.9119873046875 L 927.9541015625 716.3846435546875" fill-opacity="0.9019607843137255" clip-path="url(#nmhoyAVwZEKS)" stroke-opacity="0.2" stroke-linejoin="bevel" stroke-miterlimit="10" stroke-width="0.5" stroke-dasharray=""/><path fill="rgb(219,219,141)" stroke="rgb(0,0,0)" paint-order="fill" d="M 927.9541015625 97.90864562988281 L 939.19970703125 97.90864562988281 L 939.19970703125 111.22457122802734 L 927.9541015625 111.22457122802734 L 927.9541015625 97.90864562988281" fill-opacity="0.9019607843137255" clip-path="url(#nmhoyAVwZEKS)" stroke-opacity="0.2" stroke-linejoin="bevel" stroke-miterlimit="10" stroke-width="0.5" stroke-dasharray=""/><path fill="rgb(23,190,207)" stroke="rgb(0,0,0)" paint-order="fill" d="M 927.9541015625 80.36363983154297 L 939.19970703125 80.36363983154297 L 939.19970703125 93.67955780029297 L 927.9541015625 93.67955780029297 L 927.9541015625 80.36363983154297" fill-opacity="0.9019607843137255" clip-path="url(#nmhoyAVwZEKS)" stroke-opacity="0.2" stroke-linejoin="bevel" stroke-miterlimit="10" stroke-width="0.5" stroke-dasharray=""/><g clip-path="url(#KiCKhOaAClMi)"><text fill="rgb(0,0,0)" stroke="none" font-family="helvetica" font-size="8pt" font-style="normal" font-weight="normal" text-decoration="normal" x="0" y="0" text-anchor="end" dominant-baseline="central" transform="matrix(1, 0, 0, 1, 186.68118286132812, 624.94482421875)" fill-opacity="1">Lockheed - 74</text></g><g clip-path="url(#KiCKhOaAClMi)"><text fill="rgb(0,0,0)" stroke="none" font-family="helvetica" font-size="8pt" font-style="normal" font-weight="normal" text-decoration="normal" x="0" y="0" text-anchor="end" dominant-baseline="central" transform="matrix(1, 0, 0, 1, 925.1427001953125, 1037.7669677734375)" fill-opacity="1">Atlas IIA - 15</text></g><g clip-path="url(#KiCKhOaAClMi)"><text fill="rgb(0,0,0)" stroke="none" font-family="helvetica" font-size="8pt" font-style="normal" font-weight="normal" text-decoration="normal" x="0" y="0" text-anchor="end" dominant-baseline="central" transform="matrix(1, 0, 0, 1, 925.1427001953125, 139.65663146972656)" fill-opacity="1">Titan IV(403)B - 1</text></g><g clip-path="url(#KiCKhOaAClMi)"><text fill="rgb(0,0,0)" stroke="none" font-family="helvetica" font-size="8pt" font-style="normal" font-weight="normal" text-decoration="normal" x="0" y="0" text-anchor="end" dominant-baseline="central" transform="matrix(1, 0, 0, 1, 925.1427001953125, 122.11161804199219)" fill-opacity="1">Atlas-E/F Altair - 1</text></g><g clip-path="url(#KiCKhOaAClMi)"><text fill="rgb(0,0,0)" stroke="none" font-family="helvetica" font-size="8pt" font-style="normal" font-weight="normal" text-decoration="normal" x="0" y="0" text-anchor="end" dominant-baseline="central" transform="matrix(1, 0, 0, 1, 925.1427001953125, 256.4424133300781)" fill-opacity="1">Atlas IIIB - 2</text></g><g clip-path="url(#KiCKhOaAClMi)"><text fill="rgb(0,0,0)" stroke="none" font-family="helvetica" font-size="8pt" font-style="normal" font-weight="normal" text-decoration="normal" x="0" y="0" text-anchor="end" dominant-baseline="central" transform="matrix(1, 0, 0, 1, 925.1427001953125, 225.5814666748047)" fill-opacity="1">Titan IV(404)A - 2</text></g><g clip-path="url(#KiCKhOaAClMi)"><text fill="rgb(0,0,0)" stroke="none" font-family="helvetica" font-size="8pt" font-style="normal" font-weight="normal" text-decoration="normal" x="0" y="0" text-anchor="end" dominant-baseline="central" transform="matrix(1, 0, 0, 1, 925.1427001953125, 194.7205352783203)" fill-opacity="1">Titan IV(403)A - 2</text></g><g clip-path="url(#KiCKhOaAClMi)"><text fill="rgb(0,0,0)" stroke="none" font-family="helvetica" font-size="8pt" font-style="normal" font-weight="normal" text-decoration="normal" x="0" y="0" text-anchor="end" dominant-baseline="central" transform="matrix(1, 0, 0, 1, 925.1427001953125, 163.85960388183594)" fill-opacity="1">Athena II - 2</text></g><g clip-path="url(#KiCKhOaAClMi)"><text fill="rgb(0,0,0)" stroke="none" font-family="helvetica" font-size="8pt" font-style="normal" font-weight="normal" text-decoration="normal" x="0" y="0" text-anchor="end" dominant-baseline="central" transform="matrix(1, 0, 0, 1, 925.1427001953125, 338.1381530761719)" fill-opacity="1">Athena I - 3</text></g><g clip-path="url(#KiCKhOaAClMi)"><text fill="rgb(0,0,0)" stroke="none" font-family="helvetica" font-size="8pt" font-style="normal" font-weight="normal" text-decoration="normal" x="0" y="0" text-anchor="end" dominant-baseline="central" transform="matrix(1, 0, 0, 1, 925.1427001953125, 293.9613037109375)" fill-opacity="1">Titan IV(404)B - 3</text></g><g clip-path="url(#KiCKhOaAClMi)"><text fill="rgb(0,0,0)" stroke="none" font-family="helvetica" font-size="8pt" font-style="normal" font-weight="normal" text-decoration="normal" x="0" y="0" text-anchor="end" dominant-baseline="central" transform="matrix(1, 0, 0, 1, 925.1427001953125, 388.97296142578125)" fill-opacity="1">Titan IV(402)B - 4</text></g><g clip-path="url(#KiCKhOaAClMi)"><text fill="rgb(0,0,0)" stroke="none" font-family="helvetica" font-size="8pt" font-style="normal" font-weight="normal" text-decoration="normal" x="0" y="0" text-anchor="end" dominant-baseline="central" transform="matrix(1, 0, 0, 1, 925.1427001953125, 594.7410888671875)" fill-opacity="1">Atlas II - 5</text></g><g clip-path="url(#KiCKhOaAClMi)"><text fill="rgb(0,0,0)" stroke="none" font-family="helvetica" font-size="8pt" font-style="normal" font-weight="normal" text-decoration="normal" x="0" y="0" text-anchor="end" dominant-baseline="central" transform="matrix(1, 0, 0, 1, 925.1427001953125, 523.9324340820312)" fill-opacity="1">Atlas I - 5</text></g><g clip-path="url(#KiCKhOaAClMi)"><text fill="rgb(0,0,0)" stroke="none" font-family="helvetica" font-size="8pt" font-style="normal" font-weight="normal" text-decoration="normal" x="0" y="0" text-anchor="end" dominant-baseline="central" transform="matrix(1, 0, 0, 1, 925.1427001953125, 453.12371826171875)" fill-opacity="1">Titan IV(401)A - 5</text></g><g clip-path="url(#KiCKhOaAClMi)"><text fill="rgb(0,0,0)" stroke="none" font-family="helvetica" font-size="8pt" font-style="normal" font-weight="normal" text-decoration="normal" x="0" y="0" text-anchor="end" dominant-baseline="central" transform="matrix(1, 0, 0, 1, 925.1427001953125, 672.207763671875)" fill-opacity="1">Titan IV(401)B - 6</text></g><g clip-path="url(#KiCKhOaAClMi)"><text fill="rgb(0,0,0)" stroke="none" font-family="helvetica" font-size="8pt" font-style="normal" font-weight="normal" text-decoration="normal" x="0" y="0" text-anchor="end" dominant-baseline="central" transform="matrix(1, 0, 0, 1, 925.1427001953125, 880.40478515625)" fill-opacity="1">Titan II(23)G - 8</text></g><g clip-path="url(#KiCKhOaAClMi)"><text fill="rgb(0,0,0)" stroke="none" font-family="helvetica" font-size="8pt" font-style="normal" font-weight="normal" text-decoration="normal" x="0" y="0" text-anchor="end" dominant-baseline="central" transform="matrix(1, 0, 0, 1, 925.1427001953125, 769.6483154296875)" fill-opacity="1">Atlas IIAS - 8</text></g><g clip-path="url(#KiCKhOaAClMi)"><text fill="rgb(0,0,0)" stroke="none" font-family="helvetica" font-size="8pt" font-style="normal" font-weight="normal" text-decoration="normal" x="0" y="0" text-anchor="end" dominant-baseline="central" transform="matrix(1, 0, 0, 1, 925.1427001953125, 104.56661224365234)" fill-opacity="1">Titan IV(405)A - 1</text></g><g clip-path="url(#KiCKhOaAClMi)"><text fill="rgb(0,0,0)" stroke="none" font-family="helvetica" font-size="8pt" font-style="normal" font-weight="normal" text-decoration="normal" x="0" y="0" text-anchor="end" dominant-baseline="central" transform="matrix(1, 0, 0, 1, 925.1427001953125, 87.02159881591797)" fill-opacity="1">Titan IV(405)B - 1</text></g><text fill="rgb(68,68,68)" stroke="none" font-family="helvetica" font-size="13px" font-style="normal" font-weight="bold" text-decoration="normal" x="10" y="19.1689453125" text-anchor="start" dominant-baseline="alphabetic" transform="matrix(1, 0, 0, 1, 0.5, 0.5)" fill-opacity="1">Lockheed Rocket Successes</text></svg>