<svg version="1.1" xmlns="http://www.w3.org/2000/svg" width="1000" height="1200"><defs><clipPath id="KMFmCTePvyoK"><path fill="none" stroke="none" d="M 10.5 27.5 L 970.5 27.5 L 970.5 1190.5 L 10.5 1190.5 L 10.5 27.5"/></clipPath><clipPath id="UxyARtSpccrb"><path fill="none" stroke="none" d="M 10.5 27.5 L 970.5 27.5 L 970.5 1190.5 L 10.5 1190.5 L 10.5 27.5"/></clipPath><clipPath id="OZgdTFOLGtou"><path fill="none" stroke="none" d="M 10.5 27.5 L 970.5 27.5 L 970.5 1190.5 L 10.5 1190.5 L 10.5 27.5"/></clipPath><clipPath id="CrenCCdHLFVG"><path fill="none" stroke="none" d="M 10.5 27.5 L 970.5 27.5 L 970.5 1190.5 L 10.5 1190.5 L 10.5 27.5"/></clipPath><clipPath id="ITNvFWVdqErr"><path fill="none" stroke="none" d="M 10.5 27.5 L 970.5 27.5 L 970.5 1190.5 L 10.5 1190.5 L 10.5 27.5"/></clipPath><clipPath id="XqBVnORqVQzd"><path fill="none" stroke="none" d="M 10.5 27.5 L 970.5 27.5 L 970.5 1190.5 L 10.5 1190.5 L 10.5 27.5"/></clipPath></defs><path fill="rgb(255,255,255)" stroke="none" paint-order="stroke" d="M 0.5 0.5 L 1000.5 0.5 L 1000.5 1200.5 L 0.5 1200.5 L 0.5 0.5" fill-opacity="1"/><rect fill="#FFFFFF" stroke="none" x="10" y="27" width="960" height="1163" transform="matrix(1, 0, 0, 1, 0.5, 0.5)"/><path fill="rgb(255,250,250)" stroke="none" paint-order="stroke" d="M 10.5 27.5 L 970.5 27.5 L 970.5 1190.5 L 10.5 1190.5 L 10.5 27.5" fill-opacity="1"/><path fill="rgb(174,199,232)" stroke="rgb(174,199,232)" paint-order="fill" d="M 200.73818969726562 903.89453125 L 200.73818969726562 1124.3992919921875 L 200.73818969726562 1124.3992919921875 L 222.5517578125 1124.4156494140625 L 243.4937744140625 1124.463623046875 L 263.601318359375 1124.5421142578125 L 282.9114990234375 1124.6495361328125 L 301.4613952636719 1124.78466796875 L 319.2880554199219 1124.9461669921875 L 336.4286193847656 1125.132568359375 L 352.920166015625 1125.3426513671875 L 368.79974365234375 1125.574951171875 L 384.1044921875 1125.8282470703125 L 398.8714294433594 1126.10107421875 L 413.1377258300781 1126.39208984375 L 426.9404296875 1126.7000732421875 L 440.3166198730469 1127.0235595703125 L 453.3033752441406 1127.3612060546875 L 465.9378356933594 1127.711669921875 L 478.25701904296875 1128.0736083984375 L 490.2980651855469 1128.4456787109375 L 502.0980529785156 1128.8265380859375 L 513.6940307617188 1129.21484375 L 525.1231079101562 1129.6092529296875 L 536.4224243164062 1130.00830078125 L 547.6290283203125 1130.4107666015625 L 558.7799682617188 1130.8153076171875 L 569.912353515625 1131.220458984375 L 581.0632934570312 1131.6248779296875 L 592.2698974609375 1132.02734375 L 603.5691528320312 1132.4263916015625 L 614.998291015625 1132.82080078125 L 626.59423828125 1133.2091064453125 L 638.3942260742188 1133.5899658203125 L 650.435302734375 1133.9620361328125 L 662.7544555664062 1134.323974609375 L 675.388916015625 1134.6744384765625 L 688.3756713867188 1135.0120849609375 L 701.7518920898438 1135.3355712890625 L 715.5545654296875 1135.6435546875 L 729.8208618164062 1135.9345703125 L 744.5878295898438 1136.2073974609375 L 759.892578125 1136.460693359375 L 775.7721557617188 1136.6929931640625 L 792.263671875 1136.903076171875 L 809.4042358398438 1137.089599609375 L 827.2308959960938 1137.2509765625 L 845.7808227539062 1137.3861083984375 L 865.0910034179688 1137.4935302734375 L 885.1985473632812 1137.572021484375 L 906.1405639648438 1137.6199951171875 L 927.9541015625 1137.6363525390625 L 927.9541015625 1137.6363525390625 L 927.9541015625 917.131591796875 L 927.9541015625 917.131591796875 L 906.1405639648438 917.115234375 L 885.1985473632812 917.0671997070312 L 865.0910034179688 916.98876953125 L 845.7808227539062 916.88134765625 L 827.2308959960938 916.7462158203125 L 809.4042358398438 916.5847778320312 L 792.263671875 916.3983154296875 L 775.7721557617188 916.188232421875 L 759.892578125 915.9559326171875 L 744.5878295898438 915.70263671875 L 729.8208618164062 915.4298095703125 L 715.5545654296875 915.1387329101562 L 701.7518920898438 914.830810546875 L 688.3756713867188 914.50732421875 L 675.388916015625 914.169677734375 L 662.7544555664062 913.8191528320312 L 650.435302734375 913.4572143554688 L 638.3942260742188 913.0851440429688 L 626.59423828125 912.7042846679688 L 614.998291015625 912.3159790039062 L 603.5691528320312 911.921630859375 L 592.2698974609375 911.5225830078125 L 581.0632934570312 911.1201171875 L 569.912353515625 910.7156372070312 L 558.7799682617188 910.3104858398438 L 547.6290283203125 909.9059448242188 L 536.4224243164062 909.5035400390625 L 525.1231079101562 909.1044311523438 L 513.6940307617188 908.7100830078125 L 502.0980529785156 908.32177734375 L 490.2980651855469 907.94091796875 L 478.25701904296875 907.56884765625 L 465.9378356933594 907.2069091796875 L 453.3033752441406 906.8564453125 L 440.3166198730469 906.5187377929688 L 426.9404296875 906.1953125 L 413.1377258300781 905.8873291015625 L 398.8714294433594 905.5962524414062 L 384.1044921875 905.3234252929688 L 368.79974365234375 905.0701293945312 L 352.920166015625 904.8378295898438 L 336.4286193847656 904.6277465820312 L 319.2880554199219 904.4413452148438 L 301.4613952636719 904.2798461914062 L 282.9114990234375 904.1447143554688 L 263.601318359375 904.0372924804688 L 243.4937744140625 903.9588623046875 L 222.5517578125 903.9108276367188 L 200.73818969726562 903.89453125 Z" fill-opacity="0.6" clip-path="url(#OZgdTFOLGtou)" stroke-opacity="1" stroke-linejoin="bevel" stroke-miterlimit="10" stroke-width="0.8" stroke-dasharray=""/><path fill="rgb(255,127,14)" stroke="rgb(255,127,14)" paint-order="fill" d="M 200.73818969726562 713.4585571289062 L 200.73818969726562 903.89453125 L 200.73818969726562 903.89453125 L 222.5517578125 903.9056396484375 L 243.4937744140625 903.9382934570312 L 263.601318359375 903.99169921875 L 282.9114990234375 904.0648193359375 L 301.4613952636719 904.15673828125 L 319.2880554199219 904.2666015625 L 336.4286193847656 904.3934936523438 L 352.920166015625 904.5364379882812 L 368.79974365234375 904.694580078125 L 384.1044921875 904.8668823242188 L 398.8714294433594 905.0525512695312 L 413.1377258300781 905.2506713867188 L 426.9404296875 905.460205078125 L 440.3166198730469 905.6803588867188 L 453.3033752441406 905.9100952148438 L 465.9378356933594 906.1486206054688 L 478.25701904296875 906.3949584960938 L 490.2980651855469 906.6481323242188 L 502.0980529785156 906.9073486328125 L 513.6940307617188 907.1715698242188 L 525.1231079101562 907.43994140625 L 536.4224243164062 907.7114868164062 L 547.6290283203125 907.9853515625 L 558.7799682617188 908.2606201171875 L 569.912353515625 908.536376953125 L 581.0632934570312 908.8115844726562 L 592.2698974609375 909.0855102539062 L 603.5691528320312 909.3570556640625 L 614.998291015625 909.6254272460938 L 626.59423828125 909.8896484375 L 638.3942260742188 910.1488647460938 L 650.435302734375 910.4020385742188 L 662.7544555664062 910.6483764648438 L 675.388916015625 910.8868408203125 L 688.3756713867188 911.1166381835938 L 701.7518920898438 911.3367919921875 L 715.5545654296875 911.5463256835938 L 729.8208618164062 911.744384765625 L 744.5878295898438 911.9300537109375 L 759.892578125 912.1024169921875 L 775.7721557617188 912.2605590820312 L 792.263671875 912.4035034179688 L 809.4042358398438 912.5303344726562 L 827.2308959960938 912.6402587890625 L 845.7808227539062 912.732177734375 L 865.0910034179688 912.8052978515625 L 885.1985473632812 912.8587036132812 L 906.1405639648438 912.891357421875 L 927.9541015625 912.9024658203125 L 927.9541015625 912.9024658203125 L 927.9541015625 722.4664916992188 L 927.9541015625 722.4664916992188 L 906.1405639648438 722.4553833007812 L 885.1985473632812 722.4227294921875 L 865.0910034179688 722.3693237304688 L 845.7808227539062 722.2962036132812 L 827.2308959960938 722.2042846679688 L 809.4042358398438 722.0944213867188 L 792.263671875 721.967529296875 L 775.7721557617188 721.8245849609375 L 759.892578125 721.6664428710938 L 744.5878295898438 721.494140625 L 729.8208618164062 721.3084716796875 L 715.5545654296875 721.1103515625 L 701.7518920898438 720.9008178710938 L 688.3756713867188 720.6806640625 L 675.388916015625 720.450927734375 L 662.7544555664062 720.21240234375 L 650.435302734375 719.966064453125 L 638.3942260742188 719.712890625 L 626.59423828125 719.4536743164062 L 614.998291015625 719.189453125 L 603.5691528320312 718.9210815429688 L 592.2698974609375 718.6495361328125 L 581.0632934570312 718.3756713867188 L 569.912353515625 718.1004028320312 L 558.7799682617188 717.8246459960938 L 547.6290283203125 717.5494384765625 L 536.4224243164062 717.2755126953125 L 525.1231079101562 717.0039672851562 L 513.6940307617188 716.735595703125 L 502.0980529785156 716.4713745117188 L 490.2980651855469 716.212158203125 L 478.25701904296875 715.958984375 L 465.9378356933594 715.712646484375 L 453.3033752441406 715.4741821289062 L 440.3166198730469 715.244384765625 L 426.9404296875 715.0242309570312 L 413.1377258300781 714.814697265625 L 398.8714294433594 714.6166381835938 L 384.1044921875 714.4309692382812 L 368.79974365234375 714.2586059570312 L 352.920166015625 714.1004638671875 L 336.4286193847656 713.95751953125 L 319.2880554199219 713.8306884765625 L 301.4613952636719 713.7207641601562 L 282.9114990234375 713.6288452148438 L 263.601318359375 713.5557250976562 L 243.4937744140625 713.5023193359375 L 222.5517578125 713.4696655273438 L 200.73818969726562 713.4585571289062 Z" fill-opacity="0.6" clip-path="url(#OZgdTFOLGtou)" stroke-opacity="1" stroke-linejoin="bevel" stroke-miterlimit="10" stroke-width="0.8" stroke-dasharray=""/><path fill="rgb(255,187,120)" stroke="rgb(255,187,120)" paint-order="fill" d="M 200.73818969726562 593.1832275390625 L 200.73818969726562 713.4585571289062 L 200.73818969726562 713.4585571289062 L 222.5517578125 713.4644165039062 L 243.4937744140625 713.4817504882812 L 263.601318359375 713.5100708007812 L 282.9114990234375 713.5488891601562 L 301.4613952636719 713.59765625 L 319.2880554199219 713.6559448242188 L 336.4286193847656 713.7232666015625 L 352.920166015625 713.799072265625 L 368.79974365234375 713.8829956054688 L 384.1044921875 713.9744262695312 L 398.8714294433594 714.0729370117188 L 413.1377258300781 714.177978515625 L 426.9404296875 714.2891845703125 L 440.3166198730469 714.4059448242188 L 453.3033752441406 714.52783203125 L 465.9378356933594 714.6544189453125 L 478.25701904296875 714.7850341796875 L 490.2980651855469 714.9193725585938 L 502.0980529785156 715.056884765625 L 513.6940307617188 715.1970825195312 L 525.1231079101562 715.3394165039062 L 536.4224243164062 715.4835205078125 L 547.6290283203125 715.6288452148438 L 558.7799682617188 715.7748413085938 L 569.912353515625 715.921142578125 L 581.0632934570312 716.067138671875 L 592.2698974609375 716.2124633789062 L 603.5691528320312 716.3565063476562 L 614.998291015625 716.4989013671875 L 626.59423828125 716.6390991210938 L 638.3942260742188 716.7765502929688 L 650.435302734375 716.910888671875 L 662.7544555664062 717.0415649414062 L 675.388916015625 717.1680908203125 L 688.3756713867188 717.2899780273438 L 701.7518920898438 717.4067993164062 L 715.5545654296875 717.5179443359375 L 729.8208618164062 717.623046875 L 744.5878295898438 717.7215576171875 L 759.892578125 717.81298828125 L 775.7721557617188 717.8968505859375 L 792.263671875 717.9727172851562 L 809.4042358398438 718.0399780273438 L 827.2308959960938 718.0982666015625 L 845.7808227539062 718.1470947265625 L 865.0910034179688 718.1858520507812 L 885.1985473632812 718.2141723632812 L 906.1405639648438 718.2315063476562 L 927.9541015625 718.2374267578125 L 927.9541015625 718.2374267578125 L 927.9541015625 597.9620971679688 L 927.9541015625 597.9620971679688 L 906.1405639648438 597.9561767578125 L 885.1985473632812 597.9388427734375 L 865.0910034179688 597.9105224609375 L 845.7808227539062 597.8717041015625 L 827.2308959960938 597.8229370117188 L 809.4042358398438 597.7646484375 L 792.263671875 597.6973266601562 L 775.7721557617188 597.6215209960938 L 759.892578125 597.5376586914062 L 744.5878295898438 597.4462280273438 L 729.8208618164062 597.3477172851562 L 715.5545654296875 597.2426147460938 L 701.7518920898438 597.1314697265625 L 688.3756713867188 597.0146484375 L 675.388916015625 596.8927612304688 L 662.7544555664062 596.7662353515625 L 650.435302734375 596.6355590820312 L 638.3942260742188 596.501220703125 L 626.59423828125 596.3637084960938 L 614.998291015625 596.2235717773438 L 603.5691528320312 596.0811767578125 L 592.2698974609375 595.9370727539062 L 581.0632934570312 595.7918090820312 L 569.912353515625 595.645751953125 L 558.7799682617188 595.49951171875 L 547.6290283203125 595.3534545898438 L 536.4224243164062 595.2081909179688 L 525.1231079101562 595.0640869140625 L 513.6940307617188 594.9217529296875 L 502.0980529785156 594.7815551757812 L 490.2980651855469 594.64404296875 L 478.25701904296875 594.5097045898438 L 465.9378356933594 594.3790283203125 L 453.3033752441406 594.2525024414062 L 440.3166198730469 594.130615234375 L 426.9404296875 594.0138549804688 L 413.1377258300781 593.9026489257812 L 398.8714294433594 593.7975463867188 L 384.1044921875 593.6990966796875 L 368.79974365234375 593.607666015625 L 352.920166015625 593.5237426757812 L 336.4286193847656 593.4479370117188 L 319.2880554199219 593.380615234375 L 301.4613952636719 593.3223266601562 L 282.9114990234375 593.2735595703125 L 263.601318359375 593.2347412109375 L 243.4937744140625 593.2064208984375 L 222.5517578125 593.1890869140625 L 200.73818969726562 593.1832275390625 Z" fill-opacity="0.6" clip-path="url(#OZgdTFOLGtou)" stroke-opacity="1" stroke-linejoin="bevel" stroke-miterlimit="10" stroke-width="0.8" stroke-dasharray=""/><path fill="rgb(44,160,44)" stroke="rgb(44,160,44)" paint-order="fill" d="M 200.73818969726562 482.9307861328125 L 200.73818969726562 593.1832275390625 L 200.73818969726562 593.1832275390625 L 222.5517578125 593.1838989257812 L 243.4937744140625 593.1858520507812 L 263.601318359375 593.1891479492188 L 282.9114990234375 593.193603515625 L 301.4613952636719 593.19921875 L 319.2880554199219 593.2059326171875 L 336.4286193847656 593.2136840820312 L 352.920166015625 593.2223510742188 L 368.79974365234375 593.2320556640625 L 384.1044921875 593.2425537109375 L 398.8714294433594 593.25390625 L 413.1377258300781 593.2659912109375 L 426.9404296875 593.2787475585938 L 440.3166198730469 593.2921752929688 L 453.3033752441406 593.3062133789062 L 465.9378356933594 593.32080078125 L 478.25701904296875 593.3358154296875 L 490.2980651855469 593.3512573242188 L 502.0980529785156 593.3670654296875 L 513.6940307617188 593.3831787109375 L 525.1231079101562 593.3995971679688 L 536.4224243164062 593.4161376953125 L 547.6290283203125 593.432861328125 L 558.7799682617188 593.44970703125 L 569.912353515625 593.4664916992188 L 581.0632934570312 593.4832763671875 L 592.2698974609375 593.5 L 603.5691528320312 593.5166015625 L 614.998291015625 593.532958984375 L 626.59423828125 593.549072265625 L 638.3942260742188 593.56494140625 L 650.435302734375 593.5803833007812 L 662.7544555664062 593.5953979492188 L 675.388916015625 593.6099853515625 L 688.3756713867188 593.6239624023438 L 701.7518920898438 593.637451171875 L 715.5545654296875 593.6502075195312 L 729.8208618164062 593.6622924804688 L 744.5878295898438 593.6736450195312 L 759.892578125 593.6841430664062 L 775.7721557617188 593.6937866210938 L 792.263671875 593.7025146484375 L 809.4042358398438 593.7102661132812 L 827.2308959960938 593.7169799804688 L 845.7808227539062 593.7225952148438 L 865.0910034179688 593.72705078125 L 885.1985473632812 593.7302856445312 L 906.1405639648438 593.7322998046875 L 927.9541015625 593.7329711914062 L 927.9541015625 593.7329711914062 L 927.9541015625 483.4805908203125 L 927.9541015625 483.4805908203125 L 906.1405639648438 483.47991943359375 L 885.1985473632812 483.4779052734375 L 865.0910034179688 483.4746398925781 L 845.7808227539062 483.4701843261719 L 827.2308959960938 483.4645690917969 L 809.4042358398438 483.4578857421875 L 792.263671875 483.45013427734375 L 775.7721557617188 483.44140625 L 759.892578125 483.4317626953125 L 744.5878295898438 483.4212341308594 L 729.8208618164062 483.409912109375 L 715.5545654296875 483.3978271484375 L 701.7518920898438 483.385009765625 L 688.3756713867188 483.37158203125 L 675.388916015625 483.3575744628906 L 662.7544555664062 483.343017578125 L 650.435302734375 483.3279724121094 L 638.3942260742188 483.3125305175781 L 626.59423828125 483.29669189453125 L 614.998291015625 483.28057861328125 L 603.5691528320312 483.2641906738281 L 592.2698974609375 483.24761962890625 L 581.0632934570312 483.23089599609375 L 569.912353515625 483.214111328125 L 558.7799682617188 483.197265625 L 547.6290283203125 483.18048095703125 L 536.4224243164062 483.16375732421875 L 525.1231079101562 483.1471862792969 L 513.6940307617188 483.13079833984375 L 502.0980529785156 483.11468505859375 L 490.2980651855469 483.098876953125 L 478.25701904296875 483.0834045410156 L 465.9378356933594 483.0683898925781 L 453.3033752441406 483.0538330078125 L 440.3166198730469 483.039794921875 L 426.9404296875 483.0263671875 L 413.1377258300781 483.0135803222656 L 398.8714294433594 483.0014953613281 L 384.1044921875 482.9901428222656 L 368.79974365234375 482.9796142578125 L 352.920166015625 482.969970703125 L 336.4286193847656 482.96124267578125 L 319.2880554199219 482.9535217285156 L 301.4613952636719 482.9468078613281 L 282.9114990234375 482.9411926269531 L 263.601318359375 482.9367370605469 L 243.4937744140625 482.9334716796875 L 222.5517578125 482.9314880371094 L 200.73818969726562 482.9307861328125 Z" fill-opacity="0.6" clip-path="url(#OZgdTFOLGtou)" stroke-opacity="1" stroke-linejoin="bevel" stroke-miterlimit="10" stroke-width="0.8" stroke-dasharray=""/><path fill="rgb(152,223,138)" stroke="rgb(152,223,138)" paint-order="fill" d="M 200.73818969726562 372.67840576171875 L 200.73818969726562 482.9307861328125 L 200.73818969726562 482.9307861328125 L 222.5517578125 482.92626953125 L 243.4937744140625 482.91290283203125 L 263.601318359375 482.89111328125 L 282.9114990234375 482.8612365722656 L 301.4613952636719 482.8236999511719 L 319.2880554199219 482.77880859375 L 336.4286193847656 482.72698974609375 L 352.920166015625 482.6686096191406 L 368.79974365234375 482.6040344238281 L 384.1044921875 482.53363037109375 L 398.8714294433594 482.4577941894531 L 413.1377258300781 482.37689208984375 L 426.9404296875 482.2912902832031 L 440.3166198730469 482.2013854980469 L 453.3033752441406 482.1075134277344 L 465.9378356933594 482.0101013183594 L 478.25701904296875 481.90948486328125 L 490.2980651855469 481.8060607910156 L 502.0980529785156 481.7002258300781 L 513.6940307617188 481.59228515625 L 525.1231079101562 481.482666015625 L 536.4224243164062 481.3717346191406 L 547.6290283203125 481.2598876953125 L 558.7799682617188 481.1474609375 L 569.912353515625 481.03485107421875 L 581.0632934570312 480.9223937988281 L 592.2698974609375 480.810546875 L 603.5691528320312 480.6996154785156 L 614.998291015625 480.5899963378906 L 626.59423828125 480.4820861816406 L 638.3942260742188 480.376220703125 L 650.435302734375 480.2727966308594 L 662.7544555664062 480.17218017578125 L 675.388916015625 480.07476806640625 L 688.3756713867188 479.9809265136719 L 701.7518920898438 479.8909912109375 L 715.5545654296875 479.805419921875 L 729.8208618164062 479.7245178222656 L 744.5878295898438 479.6486511230469 L 759.892578125 479.5782775878906 L 775.7721557617188 479.5137023925781 L 792.263671875 479.4552917480469 L 809.4042358398438 479.4034729003906 L 827.2308959960938 479.3586120605469 L 845.7808227539062 479.321044921875 L 865.0910034179688 479.2911682128906 L 885.1985473632812 479.2693786621094 L 906.1405639648438 479.2560119628906 L 927.9541015625 479.2514953613281 L 927.9541015625 479.2514953613281 L 927.9541015625 368.99908447265625 L 927.9541015625 368.99908447265625 L 906.1405639648438 369.0036315917969 L 885.1985473632812 369.0169677734375 L 865.0910034179688 369.0387878417969 L 845.7808227539062 369.0686340332031 L 827.2308959960938 369.106201171875 L 809.4042358398438 369.1510925292969 L 792.263671875 369.2029113769531 L 775.7721557617188 369.26129150390625 L 759.892578125 369.32586669921875 L 744.5878295898438 369.3962707519531 L 729.8208618164062 369.47210693359375 L 715.5545654296875 369.5530090332031 L 701.7518920898438 369.63861083984375 L 688.3756713867188 369.728515625 L 675.388916015625 369.8223571777344 L 662.7544555664062 369.9197998046875 L 650.435302734375 370.0203857421875 L 638.3942260742188 370.1238098144531 L 626.59423828125 370.22967529296875 L 614.998291015625 370.3376159667969 L 603.5691528320312 370.44720458984375 L 592.2698974609375 370.5581359863281 L 581.0632934570312 370.6700134277344 L 569.912353515625 370.7824401855469 L 558.7799682617188 370.8950500488281 L 547.6290283203125 371.0074768066406 L 536.4224243164062 371.1193542480469 L 525.1231079101562 371.23028564453125 L 513.6940307617188 371.3398742675781 L 502.0980529785156 371.44781494140625 L 490.2980651855469 371.5536804199219 L 478.25701904296875 371.6571044921875 L 465.9378356933594 371.7576904296875 L 453.3033752441406 371.8551330566406 L 440.3166198730469 371.948974609375 L 426.9404296875 372.03887939453125 L 413.1377258300781 372.1244812011719 L 398.8714294433594 372.20538330078125 L 384.1044921875 372.2812194824219 L 368.79974365234375 372.35162353515625 L 352.920166015625 372.41619873046875 L 336.4286193847656 372.4745788574219 L 319.2880554199219 372.5263977050781 L 301.4613952636719 372.5712890625 L 282.9114990234375 372.6088562011719 L 263.601318359375 372.6387023925781 L 243.4937744140625 372.6605224609375 L 222.5517578125 372.6738586425781 L 200.73818969726562 372.67840576171875 Z" fill-opacity="0.6" clip-path="url(#OZgdTFOLGtou)" stroke-opacity="1" stroke-linejoin="bevel" stroke-miterlimit="10" stroke-width="0.8" stroke-dasharray=""/><path fill="rgb(214,39,40)" stroke="rgb(214,39,40)" paint-order="fill" d="M 200.73818969726562 312.5407409667969 L 200.73818969726562 372.67840576171875 L 200.73818969726562 372.67840576171875 L 222.5517578125 372.66864013671875 L 243.4937744140625 372.63995361328125 L 263.601318359375 372.5931091308594 L 282.9114990234375 372.5289001464844 L 301.4613952636719 372.44818115234375 L 319.2880554199219 372.3517150878906 L 336.4286193847656 372.2403259277344 L 352.920166015625 372.1148376464844 L 368.79974365234375 371.97601318359375 L 384.1044921875 371.82470703125 L 398.8714294433594 371.66168212890625 L 413.1377258300781 371.48779296875 L 426.9404296875 371.3038024902344 L 440.3166198730469 371.1105651855469 L 453.3033752441406 370.9088134765625 L 465.9378356933594 370.6994323730469 L 478.25701904296875 370.4831848144531 L 490.2980651855469 370.2608947753906 L 502.0980529785156 370.0333557128906 L 513.6940307617188 369.8013610839844 L 525.1231079101562 369.5657653808594 L 536.4224243164062 369.32733154296875 L 547.6290283203125 369.0868835449219 L 558.7799682617188 368.8452453613281 L 569.912353515625 368.6031799316406 L 581.0632934570312 368.36151123046875 L 592.2698974609375 368.1210632324219 L 603.5691528320312 367.88262939453125 L 614.998291015625 367.64703369140625 L 626.59423828125 367.4150390625 L 638.3942260742188 367.1875 L 650.435302734375 366.9652099609375 L 662.7544555664062 366.74896240234375 L 675.388916015625 366.5395812988281 L 688.3756713867188 366.3378601074219 L 701.7518920898438 366.14459228515625 L 715.5545654296875 365.9606018066406 L 729.8208618164062 365.7867126464844 L 744.5878295898438 365.6236877441406 L 759.892578125 365.4723815917969 L 775.7721557617188 365.3335876464844 L 792.263671875 365.20806884765625 L 809.4042358398438 365.0966796875 L 827.2308959960938 365.000244140625 L 845.7808227539062 364.91949462890625 L 865.0910034179688 364.8553161621094 L 885.1985473632812 364.8084411621094 L 906.1405639648438 364.7797546386719 L 927.9541015625 364.7699890136719 L 927.9541015625 364.7699890136719 L 927.9541015625 304.63232421875 L 927.9541015625 304.63232421875 L 906.1405639648438 304.6420593261719 L 885.1985473632812 304.6707763671875 L 865.0910034179688 304.7176208496094 L 845.7808227539062 304.7818298339844 L 827.2308959960938 304.862548828125 L 809.4042358398438 304.9590148925781 L 792.263671875 305.0704040527344 L 775.7721557617188 305.1958923339844 L 759.892578125 305.334716796875 L 744.5878295898438 305.48602294921875 L 729.8208618164062 305.6490478515625 L 715.5545654296875 305.82293701171875 L 701.7518920898438 306.0069274902344 L 688.3756713867188 306.2001647949219 L 675.388916015625 306.40191650390625 L 662.7544555664062 306.6112976074219 L 650.435302734375 306.8275451660156 L 638.3942260742188 307.0498352050781 L 626.59423828125 307.2773742675781 L 614.998291015625 307.5093688964844 L 603.5691528320312 307.7449645996094 L 592.2698974609375 307.9833984375 L 581.0632934570312 308.2238464355469 L 569.912353515625 308.4654846191406 L 558.7799682617188 308.7075500488281 L 547.6290283203125 308.94921875 L 536.4224243164062 309.1896667480469 L 525.1231079101562 309.4281005859375 L 513.6940307617188 309.6636962890625 L 502.0980529785156 309.89569091796875 L 490.2980651855469 310.12322998046875 L 478.25701904296875 310.34552001953125 L 465.9378356933594 310.561767578125 L 453.3033752441406 310.7711486816406 L 440.3166198730469 310.9728698730469 L 426.9404296875 311.1661376953125 L 413.1377258300781 311.3501281738281 L 398.8714294433594 311.5240173339844 L 384.1044921875 311.6870422363281 L 368.79974365234375 311.8383483886719 L 352.920166015625 311.9771423339844 L 336.4286193847656 312.1026611328125 L 319.2880554199219 312.21405029296875 L 301.4613952636719 312.31048583984375 L 282.9114990234375 312.3912353515625 L 263.601318359375 312.4554138183594 L 243.4937744140625 312.5022888183594 L 222.5517578125 312.5309753417969 L 200.73818969726562 312.5407409667969 Z" fill-opacity="0.6" clip-path="url(#OZgdTFOLGtou)" stroke-opacity="1" stroke-linejoin="bevel" stroke-miterlimit="10" stroke-width="0.8" stroke-dasharray=""/><path fill="rgb(255,152,150)" stroke="rgb(255,152,150)" paint-order="fill" d="M 200.73818969726562 272.4489440917969 L 200.73818969726562 312.5407409667969 L 200.73818969726562 312.5407409667969 L 222.5517578125 312.5257568359375 L 243.4937744140625 312.4817199707031 L 263.601318359375 312.4098205566406 L 282.9114990234375 312.311279296875 L 301.4613952636719 312.1873779296875 L 319.2880554199219 312.0393371582031 L 336.4286193847656 311.8683776855469 L 352.920166015625 311.67578125 L 368.79974365234375 311.4627380371094 L 384.1044921875 311.2304992675781 L 398.8714294433594 310.9803161621094 L 413.1377258300781 310.71343994140625 L 426.9404296875 310.4310607910156 L 440.3166198730469 310.13446044921875 L 453.3033752441406 309.8248596191406 L 465.9378356933594 309.50347900390625 L 478.25701904296875 309.1716003417969 L 490.2980651855469 308.8304443359375 L 502.0980529785156 308.481201171875 L 513.6940307617188 308.12518310546875 L 525.1231079101562 307.7635803222656 L 536.4224243164062 307.39764404296875 L 547.6290283203125 307.02862548828125 L 558.7799682617188 306.6577453613281 L 569.912353515625 306.2862243652344 L 581.0632934570312 305.91534423828125 L 592.2698974609375 305.54632568359375 L 603.5691528320312 305.1803894042969 L 614.998291015625 304.81878662109375 L 626.59423828125 304.4627685546875 L 638.3942260742188 304.113525390625 L 650.435302734375 303.7723693847656 L 662.7544555664062 303.4404602050781 L 675.388916015625 303.1191101074219 L 688.3756713867188 302.80950927734375 L 701.7518920898438 302.5129089355469 L 715.5545654296875 302.23052978515625 L 729.8208618164062 301.963623046875 L 744.5878295898438 301.7134704589844 L 759.892578125 301.4812316894531 L 775.7721557617188 301.2681884765625 L 792.263671875 301.0755615234375 L 809.4042358398438 300.9046325683594 L 827.2308959960938 300.756591796875 L 845.7808227539062 300.6326904296875 L 865.0910034179688 300.5341491699219 L 885.1985473632812 300.4622497558594 L 906.1405639648438 300.4181823730469 L 927.9541015625 300.4032287597656 L 927.9541015625 300.4032287597656 L 927.9541015625 260.31146240234375 L 927.9541015625 260.31146240234375 L 906.1405639648438 260.326416015625 L 885.1985473632812 260.3704528808594 L 865.0910034179688 260.4423828125 L 845.7808227539062 260.5408935546875 L 827.2308959960938 260.664794921875 L 809.4042358398438 260.8128356933594 L 792.263671875 260.9837951660156 L 775.7721557617188 261.1763916015625 L 759.892578125 261.3894348144531 L 744.5878295898438 261.6216735839844 L 729.8208618164062 261.8718566894531 L 715.5545654296875 262.13873291015625 L 701.7518920898438 262.4211120605469 L 688.3756713867188 262.71771240234375 L 675.388916015625 263.0273132324219 L 662.7544555664062 263.34869384765625 L 650.435302734375 263.6805725097656 L 638.3942260742188 264.0217590332031 L 626.59423828125 264.3709716796875 L 614.998291015625 264.72698974609375 L 603.5691528320312 265.0885925292969 L 592.2698974609375 265.45452880859375 L 581.0632934570312 265.82354736328125 L 569.912353515625 266.1944580078125 L 558.7799682617188 266.5659484863281 L 547.6290283203125 266.93682861328125 L 536.4224243164062 267.3058776855469 L 525.1231079101562 267.67181396484375 L 513.6940307617188 268.03338623046875 L 502.0980529785156 268.3894348144531 L 490.2980651855469 268.7386474609375 L 478.25701904296875 269.079833984375 L 465.9378356933594 269.4117126464844 L 453.3033752441406 269.7330627441406 L 440.3166198730469 270.0426940917969 L 426.9404296875 270.33929443359375 L 413.1377258300781 270.62164306640625 L 398.8714294433594 270.8885498046875 L 384.1044921875 271.13873291015625 L 368.79974365234375 271.3709411621094 L 352.920166015625 271.583984375 L 336.4286193847656 271.776611328125 L 319.2880554199219 271.9475402832031 L 301.4613952636719 272.0956115722656 L 282.9114990234375 272.2195129394531 L 263.601318359375 272.3180236816406 L 243.4937744140625 272.3899230957031 L 222.5517578125 272.4339904785156 L 200.73818969726562 272.4489440917969 Z" fill-opacity="0.6" clip-path="url(#OZgdTFOLGtou)" stroke-opacity="1" stroke-linejoin="bevel" stroke-miterlimit="10" stroke-width="0.8" stroke-dasharray=""/><path fill="rgb(148,103,189)" stroke="rgb(148,103,189)" paint-order="fill" d="M 200.73818969726562 242.38011169433594 L 200.73818969726562 272.4489440917969 L 200.73818969726562 272.4489440917969 L 222.5517578125 272.42877197265625 L 243.4937744140625 272.369384765625 L 263.601318359375 272.27239990234375 L 282.9114990234375 272.1395568847656 L 301.4613952636719 271.97247314453125 L 319.2880554199219 271.7728576660156 L 336.4286193847656 271.5423278808594 L 352.920166015625 271.2826232910156 L 368.79974365234375 270.995361328125 L 384.1044921875 270.68218994140625 L 398.8714294433594 270.3448486328125 L 413.1377258300781 269.9849548339844 L 426.9404296875 269.6042175292969 L 440.3166198730469 269.2042541503906 L 453.3033752441406 268.7867736816406 L 465.9378356933594 268.35345458984375 L 478.25701904296875 267.9059143066406 L 490.2980651855469 267.44586181640625 L 502.0980529785156 266.9749755859375 L 513.6940307617188 266.494873046875 L 525.1231079101562 266.0072937011719 L 536.4224243164062 265.51385498046875 L 547.6290283203125 265.0162353515625 L 558.7799682617188 264.5161437988281 L 569.912353515625 264.0151672363281 L 581.0632934570312 263.51507568359375 L 592.2698974609375 263.0174560546875 L 603.5691528320312 262.5240173339844 L 614.998291015625 262.03643798828125 L 626.59423828125 261.55633544921875 L 638.3942260742188 261.08544921875 L 650.435302734375 260.6253967285156 L 662.7544555664062 260.1778564453125 L 675.388916015625 259.7445373535156 L 688.3756713867188 259.3270568847656 L 701.7518920898438 258.9270935058594 L 715.5545654296875 258.5463562011719 L 729.8208618164062 258.18646240234375 L 744.5878295898438 257.84912109375 L 759.892578125 257.53594970703125 L 775.7721557617188 257.2486877441406 L 792.263671875 256.98895263671875 L 809.4042358398438 256.7584533691406 L 827.2308959960938 256.558837890625 L 845.7808227539062 256.3917541503906 L 865.0910034179688 256.25889587402344 L 885.1985473632812 256.1619415283203 L 906.1405639648438 256.1025390625 L 927.9541015625 256.0823669433594 L 927.9541015625 256.0823669433594 L 927.9541015625 226.01353454589844 L 927.9541015625 226.01353454589844 L 906.1405639648438 226.03369140625 L 885.1985473632812 226.0930938720703 L 865.0910034179688 226.1900634765625 L 845.7808227539062 226.3229217529297 L 827.2308959960938 226.489990234375 L 809.4042358398438 226.6896209716797 L 792.263671875 226.92013549804688 L 775.7721557617188 227.1798553466797 L 759.892578125 227.46713256835938 L 744.5878295898438 227.7802734375 L 729.8208618164062 228.11761474609375 L 715.5545654296875 228.47750854492188 L 701.7518920898438 228.85826110839844 L 688.3756713867188 229.25820922851562 L 675.388916015625 229.67568969726562 L 662.7544555664062 230.10903930664062 L 650.435302734375 230.5565643310547 L 638.3942260742188 231.01661682128906 L 626.59423828125 231.4875030517578 L 614.998291015625 231.96759033203125 L 603.5691528320312 232.45518493652344 L 592.2698974609375 232.94862365722656 L 581.0632934570312 233.44622802734375 L 569.912353515625 233.94635009765625 L 558.7799682617188 234.44729614257812 L 547.6290283203125 234.94740295410156 L 536.4224243164062 235.4450225830078 L 525.1231079101562 235.93844604492188 L 513.6940307617188 236.42604064941406 L 502.0980529785156 236.9061279296875 L 490.2980651855469 237.3770294189453 L 478.25701904296875 237.8370819091797 L 465.9378356933594 238.28460693359375 L 453.3033752441406 238.7179412841797 L 440.3166198730469 239.1354217529297 L 426.9404296875 239.53536987304688 L 413.1377258300781 239.91612243652344 L 398.8714294433594 240.27601623535156 L 384.1044921875 240.61337280273438 L 368.79974365234375 240.926513671875 L 352.920166015625 241.21377563476562 L 336.4286193847656 241.4735107421875 L 319.2880554199219 241.70401000976562 L 301.4613952636719 241.9036407470703 L 282.9114990234375 242.0707244873047 L 263.601318359375 242.2035675048828 L 243.4937744140625 242.300537109375 L 222.5517578125 242.3599395751953 L 200.73818969726562 242.38011169433594 Z" fill-opacity="0.6" clip-path="url(#OZgdTFOLGtou)" stroke-opacity="1" stroke-linejoin="bevel" stroke-miterlimit="10" stroke-width="0.8" stroke-dasharray=""/><path fill="rgb(197,176,213)" stroke="rgb(197,176,213)" paint-order="fill" d="M 200.73818969726562 212.311279296875 L 200.73818969726562 242.38011169433594 L 200.73818969726562 242.38011169433594 L 222.5517578125 242.35472106933594 L 243.4937744140625 242.27996826171875 L 263.601318359375 242.157958984375 L 282.9114990234375 241.9907684326172 L 301.4613952636719 241.78053283691406 L 319.2880554199219 241.52931213378906 L 336.4286193847656 241.23924255371094 L 352.920166015625 240.9123992919922 L 368.79974365234375 240.5509033203125 L 384.1044921875 240.15684509277344 L 398.8714294433594 239.73231506347656 L 413.1377258300781 239.27943420410156 L 426.9404296875 238.80029296875 L 440.3166198730469 238.2969970703125 L 453.3033752441406 237.7716522216797 L 465.9378356933594 237.22633361816406 L 478.25701904296875 236.6631622314453 L 490.2980651855469 236.08424377441406 L 502.0980529785156 235.4916534423828 L 513.6940307617188 234.8875274658203 L 525.1231079101562 234.27394104003906 L 536.4224243164062 233.6529998779297 L 547.6290283203125 233.0268096923828 L 558.7799682617188 232.39747619628906 L 569.912353515625 231.76707458496094 L 581.0632934570312 231.1377410888672 L 592.2698974609375 230.5115509033203 L 603.5691528320312 229.89060974121094 L 614.998291015625 229.2770233154297 L 626.59423828125 228.67288208007812 L 638.3942260742188 228.08030700683594 L 650.435302734375 227.5013885498047 L 662.7544555664062 226.93821716308594 L 675.388916015625 226.3928985595703 L 688.3756713867188 225.86753845214844 L 701.7518920898438 225.36424255371094 L 715.5545654296875 224.88510131835938 L 729.8208618164062 224.43222045898438 L 744.5878295898438 224.00770568847656 L 759.892578125 223.6136474609375 L 775.7721557617188 223.25213623046875 L 792.263671875 222.92530822753906 L 809.4042358398438 222.63522338867188 L 827.2308959960938 222.38401794433594 L 845.7808227539062 222.17376708984375 L 865.0910034179688 222.006591796875 L 885.1985473632812 221.8845672607422 L 906.1405639648438 221.809814453125 L 927.9541015625 221.78443908691406 L 927.9541015625 221.78443908691406 L 927.9541015625 191.71560668945312 L 927.9541015625 191.71560668945312 L 906.1405639648438 191.74098205566406 L 885.1985473632812 191.81573486328125 L 865.0910034179688 191.937744140625 L 845.7808227539062 192.1049346923828 L 827.2308959960938 192.315185546875 L 809.4042358398438 192.56639099121094 L 792.263671875 192.85646057128906 L 775.7721557617188 193.1833038330078 L 759.892578125 193.5447998046875 L 744.5878295898438 193.93887329101562 L 729.8208618164062 194.36338806152344 L 715.5545654296875 194.81626892089844 L 701.7518920898438 195.29541015625 L 688.3756713867188 195.7987060546875 L 675.388916015625 196.32406616210938 L 662.7544555664062 196.86936950683594 L 650.435302734375 197.4325408935547 L 638.3942260742188 198.011474609375 L 626.59423828125 198.6040496826172 L 614.998291015625 199.2081756591797 L 603.5691528320312 199.82176208496094 L 592.2698974609375 200.4427032470703 L 581.0632934570312 201.0688934326172 L 569.912353515625 201.6982421875 L 558.7799682617188 202.32862854003906 L 547.6290283203125 202.95797729492188 L 536.4224243164062 203.58416748046875 L 525.1231079101562 204.20510864257812 L 513.6940307617188 204.81869506835938 L 502.0980529785156 205.42282104492188 L 490.2980651855469 206.01539611816406 L 478.25701904296875 206.59432983398438 L 465.9378356933594 207.15750122070312 L 453.3033752441406 207.7028045654297 L 440.3166198730469 208.22816467285156 L 426.9404296875 208.73146057128906 L 413.1377258300781 209.21060180664062 L 398.8714294433594 209.66348266601562 L 384.1044921875 210.0880126953125 L 368.79974365234375 210.48207092285156 L 352.920166015625 210.84356689453125 L 336.4286193847656 211.17041015625 L 319.2880554199219 211.46047973632812 L 301.4613952636719 211.71168518066406 L 282.9114990234375 211.92193603515625 L 263.601318359375 212.08912658691406 L 243.4937744140625 212.2111358642578 L 222.5517578125 212.285888671875 L 200.73818969726562 212.311279296875 Z" fill-opacity="0.6" clip-path="url(#OZgdTFOLGtou)" stroke-opacity="1" stroke-linejoin="bevel" stroke-miterlimit="10" stroke-width="0.8" stroke-dasharray=""/><path fill="rgb(140,86,75)" stroke="rgb(140,86,75)" paint-order="fill" d="M 200.73818969726562 182.242431640625 L 200.73818969726562 212.311279296875 L 200.73818969726562 212.311279296875 L 222.5517578125 212.28067016601562 L 243.4937744140625 212.19058227539062 L 263.601318359375 212.0435028076172 L 282.9114990234375 211.8419952392578 L 301.4613952636719 211.5885772705078 L 319.2880554199219 211.28578186035156 L 336.4286193847656 210.93614196777344 L 352.920166015625 210.5421905517578 L 368.79974365234375 210.10646057128906 L 384.1044921875 209.63148498535156 L 398.8714294433594 209.1197967529297 L 413.1377258300781 208.57391357421875 L 426.9404296875 207.9963836669922 L 440.3166198730469 207.38973999023438 L 453.3033752441406 206.7565155029297 L 465.9378356933594 206.09922790527344 L 478.25701904296875 205.42041015625 L 490.2980651855469 204.7226104736328 L 502.0980529785156 204.00836181640625 L 513.6940307617188 203.28016662597656 L 525.1231079101562 202.54058837890625 L 536.4224243164062 201.79214477539062 L 547.6290283203125 201.03738403320312 L 558.7799682617188 200.27880859375 L 569.912353515625 199.5189666748047 L 581.0632934570312 198.76040649414062 L 592.2698974609375 198.00563049316406 L 603.5691528320312 197.25718688964844 L 614.998291015625 196.51760864257812 L 626.59423828125 195.7894287109375 L 638.3942260742188 195.07516479492188 L 650.435302734375 194.3773651123047 L 662.7544555664062 193.6985626220703 L 675.388916015625 193.04127502441406 L 688.3756713867188 192.4080352783203 L 701.7518920898438 191.8013916015625 L 715.5545654296875 191.22386169433594 L 729.8208618164062 190.67799377441406 L 744.5878295898438 190.1663055419922 L 759.892578125 189.69131469726562 L 775.7721557617188 189.25558471679688 L 792.263671875 188.8616485595703 L 809.4042358398438 188.5120086669922 L 827.2308959960938 188.20921325683594 L 845.7808227539062 187.95579528808594 L 865.0910034179688 187.7542724609375 L 885.1985473632812 187.60720825195312 L 906.1405639648438 187.51710510253906 L 927.9541015625 187.48651123046875 L 927.9541015625 187.48651123046875 L 927.9541015625 157.4176788330078 L 927.9541015625 157.4176788330078 L 906.1405639648438 157.44827270507812 L 885.1985473632812 157.5383758544922 L 865.0910034179688 157.68544006347656 L 845.7808227539062 157.88694763183594 L 827.2308959960938 158.14036560058594 L 809.4042358398438 158.4431610107422 L 792.263671875 158.7928009033203 L 775.7721557617188 159.18675231933594 L 759.892578125 159.6224822998047 L 744.5878295898438 160.0974578857422 L 729.8208618164062 160.60914611816406 L 715.5545654296875 161.155029296875 L 701.7518920898438 161.73255920410156 L 688.3756713867188 162.33920288085938 L 675.388916015625 162.97242736816406 L 662.7544555664062 163.6297149658203 L 650.435302734375 164.30853271484375 L 638.3942260742188 165.00633239746094 L 626.59423828125 165.7205810546875 L 614.998291015625 166.4487762451172 L 603.5691528320312 167.1883544921875 L 592.2698974609375 167.93679809570312 L 581.0632934570312 168.69155883789062 L 569.912353515625 169.45013427734375 L 558.7799682617188 170.20997619628906 L 547.6290283203125 170.96853637695312 L 536.4224243164062 171.7233123779297 L 525.1231079101562 172.4717559814453 L 513.6940307617188 173.21133422851562 L 502.0980529785156 173.93951416015625 L 490.2980651855469 174.65377807617188 L 478.25701904296875 175.35157775878906 L 465.9378356933594 176.0303955078125 L 453.3033752441406 176.68768310546875 L 440.3166198730469 177.32090759277344 L 426.9404296875 177.92755126953125 L 413.1377258300781 178.5050811767578 L 398.8714294433594 179.0509490966797 L 384.1044921875 179.56265258789062 L 368.79974365234375 180.03762817382812 L 352.920166015625 180.47335815429688 L 336.4286193847656 180.8673095703125 L 319.2880554199219 181.21694946289062 L 301.4613952636719 181.51974487304688 L 282.9114990234375 181.77316284179688 L 263.601318359375 181.97467041015625 L 243.4937744140625 182.12173461914062 L 222.5517578125 182.2118377685547 L 200.73818969726562 182.242431640625 Z" fill-opacity="0.6" clip-path="url(#OZgdTFOLGtou)" stroke-opacity="1" stroke-linejoin="bevel" stroke-miterlimit="10" stroke-width="0.8" stroke-dasharray=""/><path fill="rgb(196,156,148)" stroke="rgb(196,156,148)" paint-order="fill" d="M 200.73818969726562 162.19654846191406 L 200.73818969726562 182.242431640625 L 200.73818969726562 182.242431640625 L 222.5517578125 182.20663452148438 L 243.4937744140625 182.10118103027344 L 263.601318359375 181.92904663085938 L 282.9114990234375 181.69320678710938 L 301.4613952636719 181.39662170410156 L 319.2880554199219 181.042236328125 L 336.4286193847656 180.63304138183594 L 352.920166015625 180.17198181152344 L 368.79974365234375 179.66201782226562 L 384.1044921875 179.1061248779297 L 398.8714294433594 178.50726318359375 L 413.1377258300781 177.86839294433594 L 426.9404296875 177.19247436523438 L 440.3166198730469 176.48248291015625 L 453.3033752441406 175.7413787841797 L 465.9378356933594 174.9721221923828 L 478.25701904296875 174.17767333984375 L 490.2980651855469 173.36099243164062 L 502.0980529785156 172.52505493164062 L 513.6940307617188 171.67282104492188 L 525.1231079101562 170.8072509765625 L 536.4224243164062 169.93130493164062 L 547.6290283203125 169.04794311523438 L 558.7799682617188 168.16015625 L 569.912353515625 167.2708740234375 L 581.0632934570312 166.38307189941406 L 592.2698974609375 165.4997100830078 L 603.5691528320312 164.623779296875 L 614.998291015625 163.75819396972656 L 626.59423828125 162.9059600830078 L 638.3942260742188 162.0700225830078 L 650.435302734375 161.2533416748047 L 662.7544555664062 160.45889282226562 L 675.388916015625 159.68963623046875 L 688.3756713867188 158.9485321044922 L 701.7518920898438 158.23854064941406 L 715.5545654296875 157.5626220703125 L 729.8208618164062 156.9237518310547 L 744.5878295898438 156.32489013671875 L 759.892578125 155.7689971923828 L 775.7721557617188 155.25904846191406 L 792.263671875 154.7979736328125 L 809.4042358398438 154.38877868652344 L 827.2308959960938 154.03439331054688 L 845.7808227539062 153.73780822753906 L 865.0910034179688 153.50196838378906 L 885.1985473632812 153.329833984375 L 906.1405639648438 153.22439575195312 L 927.9541015625 153.18858337402344 L 927.9541015625 153.18858337402344 L 927.9541015625 133.14268493652344 L 927.9541015625 133.14268493652344 L 906.1405639648438 133.17849731445312 L 885.1985473632812 133.28395080566406 L 865.0910034179688 133.45606994628906 L 845.7808227539062 133.69190979003906 L 827.2308959960938 133.98851013183594 L 809.4042358398438 134.34288024902344 L 792.263671875 134.75209045410156 L 775.7721557617188 135.21315002441406 L 759.892578125 135.72311401367188 L 744.5878295898438 136.2790069580078 L 729.8208618164062 136.87786865234375 L 715.5545654296875 137.51673889160156 L 701.7518920898438 138.19264221191406 L 688.3756713867188 138.9026336669922 L 675.388916015625 139.6437530517578 L 662.7544555664062 140.4130096435547 L 650.435302734375 141.20745849609375 L 638.3942260742188 142.02413940429688 L 626.59423828125 142.86007690429688 L 614.998291015625 143.71231079101562 L 603.5691528320312 144.577880859375 L 592.2698974609375 145.45382690429688 L 581.0632934570312 146.33717346191406 L 569.912353515625 147.2249755859375 L 558.7799682617188 148.1142578125 L 547.6290283203125 149.00205993652344 L 536.4224243164062 149.88540649414062 L 525.1231079101562 150.7613525390625 L 513.6940307617188 151.62692260742188 L 502.0980529785156 152.4791717529297 L 490.2980651855469 153.3151092529297 L 478.25701904296875 154.13177490234375 L 465.9378356933594 154.9262237548828 L 453.3033752441406 155.69549560546875 L 440.3166198730469 156.4365997314453 L 426.9404296875 157.14659118652344 L 413.1377258300781 157.82249450683594 L 398.8714294433594 158.46136474609375 L 384.1044921875 159.0602264404297 L 368.79974365234375 159.61611938476562 L 352.920166015625 160.12608337402344 L 336.4286193847656 160.58714294433594 L 319.2880554199219 160.99635314941406 L 301.4613952636719 161.35072326660156 L 282.9114990234375 161.64732360839844 L 263.601318359375 161.88316345214844 L 243.4937744140625 162.05528259277344 L 222.5517578125 162.16073608398438 L 200.73818969726562 162.19654846191406 Z" fill-opacity="0.6" clip-path="url(#OZgdTFOLGtou)" stroke-opacity="1" stroke-linejoin="bevel" stroke-miterlimit="10" stroke-width="0.8" stroke-dasharray=""/><path fill="rgb(227,119,194)" stroke="rgb(227,119,194)" paint-order="fill" d="M 200.73818969726562 142.15065002441406 L 200.73818969726562 162.19654846191406 L 200.73818969726562 162.19654846191406 L 222.5517578125 162.155517578125 L 243.4937744140625 162.03472900390625 L 263.601318359375 161.83753967285156 L 282.9114990234375 161.56736755371094 L 301.4613952636719 161.2276153564453 L 319.2880554199219 160.8216552734375 L 336.4286193847656 160.35289001464844 L 352.920166015625 159.82470703125 L 368.79974365234375 159.2405242919922 L 384.1044921875 158.6037139892578 L 398.8714294433594 157.9176788330078 L 413.1377258300781 157.18582153320312 L 426.9404296875 156.41151428222656 L 440.3166198730469 155.59817504882812 L 453.3033752441406 154.7491912841797 L 465.9378356933594 153.8679656982422 L 478.25701904296875 152.95787048339844 L 490.2980651855469 152.02232360839844 L 502.0980529785156 151.064697265625 L 513.6940307617188 150.08840942382812 L 525.1231079101562 149.0968475341797 L 536.4224243164062 148.09339904785156 L 547.6290283203125 147.0814666748047 L 558.7799682617188 146.06443786621094 L 569.912353515625 145.04571533203125 L 581.0632934570312 144.0286865234375 L 592.2698974609375 143.01675415039062 L 603.5691528320312 142.0133056640625 L 614.998291015625 141.021728515625 L 626.59423828125 140.04544067382812 L 638.3942260742188 139.08782958984375 L 650.435302734375 138.15228271484375 L 662.7544555664062 137.2421875 L 675.388916015625 136.36094665527344 L 688.3756713867188 135.511962890625 L 701.7518920898438 134.69862365722656 L 715.5545654296875 133.92433166503906 L 729.8208618164062 133.19247436523438 L 744.5878295898438 132.50643920898438 L 759.892578125 131.86962890625 L 775.7721557617188 131.28543090820312 L 792.263671875 130.75726318359375 L 809.4042358398438 130.2884979248047 L 827.2308959960938 129.88253784179688 L 845.7808227539062 129.5427703857422 L 865.0910034179688 129.27259826660156 L 885.1985473632812 129.07542419433594 L 906.1405639648438 128.95462036132812 L 927.9541015625 128.91360473632812 L 927.9541015625 128.91360473632812 L 927.9541015625 108.86770629882812 L 927.9541015625 108.86770629882812 L 906.1405639648438 108.90872955322266 L 885.1985473632812 109.02952575683594 L 865.0910034179688 109.2267074584961 L 845.7808227539062 109.49687957763672 L 827.2308959960938 109.83663940429688 L 809.4042358398438 110.24260711669922 L 792.263671875 110.71137237548828 L 775.7721557617188 111.23954772949219 L 759.892578125 111.82373809814453 L 744.5878295898438 112.46054077148438 L 729.8208618164062 113.14657592773438 L 715.5545654296875 113.8784408569336 L 701.7518920898438 114.65274047851562 L 688.3756713867188 115.46607971191406 L 675.388916015625 116.3150634765625 L 662.7544555664062 117.19629669189453 L 650.435302734375 118.10638427734375 L 638.3942260742188 119.04193878173828 L 626.59423828125 119.99955749511719 L 614.998291015625 120.97584533691406 L 603.5691528320312 121.9674072265625 L 592.2698974609375 122.97085571289062 L 581.0632934570312 123.98279571533203 L 569.912353515625 124.99981689453125 L 558.7799682617188 126.01854705810547 L 547.6290283203125 127.03556823730469 L 536.4224243164062 128.0475082397461 L 525.1231079101562 129.0509490966797 L 513.6940307617188 130.0425262451172 L 502.0980529785156 131.01881408691406 L 490.2980651855469 131.97642517089844 L 478.25701904296875 132.91197204589844 L 465.9378356933594 133.8220672607422 L 453.3033752441406 134.70330810546875 L 440.3166198730469 135.5522918701172 L 426.9404296875 136.36563110351562 L 413.1377258300781 137.13992309570312 L 398.8714294433594 137.8717803955078 L 384.1044921875 138.5578155517578 L 368.79974365234375 139.1946258544922 L 352.920166015625 139.77882385253906 L 336.4286193847656 140.30699157714844 L 319.2880554199219 140.7757568359375 L 301.4613952636719 141.1817169189453 L 282.9114990234375 141.521484375 L 263.601318359375 141.79165649414062 L 243.4937744140625 141.98883056640625 L 222.5517578125 142.10963439941406 L 200.73818969726562 142.15065002441406 Z" fill-opacity="0.6" clip-path="url(#OZgdTFOLGtou)" stroke-opacity="1" stroke-linejoin="bevel" stroke-miterlimit="10" stroke-width="0.8" stroke-dasharray=""/><path fill="rgb(247,182,210)" stroke="rgb(247,182,210)" paint-order="fill" d="M 200.73818969726562 132.12771606445312 L 200.73818969726562 142.15065002441406 L 200.73818969726562 142.15065002441406 L 222.5517578125 142.1044158935547 L 243.4937744140625 141.96827697753906 L 263.601318359375 141.74603271484375 L 282.9114990234375 141.44154357910156 L 301.4613952636719 141.05860900878906 L 319.2880554199219 140.60105895996094 L 336.4286193847656 140.07272338867188 L 352.920166015625 139.47744750976562 L 368.79974365234375 138.8190155029297 L 384.1044921875 138.10130310058594 L 398.8714294433594 137.32809448242188 L 413.1377258300781 136.50323486328125 L 426.9404296875 135.63055419921875 L 440.3166198730469 134.7138671875 L 453.3033752441406 133.7570037841797 L 465.9378356933594 132.7637939453125 L 478.25701904296875 131.73806762695312 L 490.2980651855469 130.6836395263672 L 502.0980529785156 129.60433959960938 L 513.6940307617188 128.50399780273438 L 525.1231079101562 127.38644409179688 L 536.4224243164062 126.2554931640625 L 547.6290283203125 125.11497497558594 L 558.7799682617188 123.96871948242188 L 569.912353515625 122.82054901123047 L 581.0632934570312 121.6742935180664 L 592.2698974609375 120.53378295898438 L 603.5691528320312 119.40283203125 L 614.998291015625 118.28527069091797 L 626.59423828125 117.18492889404297 L 638.3942260742188 116.10563659667969 L 650.435302734375 115.05120849609375 L 662.7544555664062 114.02547454833984 L 675.388916015625 113.03226470947266 L 688.3756713867188 112.07540893554688 L 701.7518920898438 111.15872192382812 L 715.5545654296875 110.2860336303711 L 729.8208618164062 109.461181640625 L 744.5878295898438 108.68797302246094 L 759.892578125 107.97025299072266 L 775.7721557617188 107.31182861328125 L 792.263671875 106.71654510498047 L 809.4042358398438 106.18821716308594 L 827.2308959960938 105.73066711425781 L 845.7808227539062 105.34773254394531 L 865.0910034179688 105.0432357788086 L 885.1985473632812 104.82099914550781 L 906.1405639648438 104.68485260009766 L 927.9541015625 104.63861846923828 L 927.9541015625 104.63861846923828 L 927.9541015625 94.61566925048828 L 927.9541015625 94.61566925048828 L 906.1405639648438 94.66190338134766 L 885.1985473632812 94.79804992675781 L 865.0910034179688 95.0202865600586 L 845.7808227539062 95.32479095458984 L 827.2308959960938 95.70772552490234 L 809.4042358398438 96.16526794433594 L 792.263671875 96.69359588623047 L 775.7721557617188 97.28888702392578 L 759.892578125 97.94730377197266 L 744.5878295898438 98.66503143310547 L 729.8208618164062 99.438232421875 L 715.5545654296875 100.26309204101562 L 701.7518920898438 101.13577270507812 L 688.3756713867188 102.05245971679688 L 675.388916015625 103.00932312011719 L 662.7544555664062 104.00253295898438 L 650.435302734375 105.02825927734375 L 638.3942260742188 106.08268737792969 L 626.59423828125 107.1619873046875 L 614.998291015625 108.2623291015625 L 603.5691528320312 109.3798828125 L 592.2698974609375 110.51083374023438 L 581.0632934570312 111.65135192871094 L 569.912353515625 112.797607421875 L 558.7799682617188 113.9457778930664 L 547.6290283203125 115.09203338623047 L 536.4224243164062 116.2325439453125 L 525.1231079101562 117.36349487304688 L 513.6940307617188 118.4810562133789 L 502.0980529785156 119.5813980102539 L 490.2980651855469 120.66069030761719 L 478.25701904296875 121.71511840820312 L 465.9378356933594 122.74085235595703 L 453.3033752441406 123.73406219482422 L 440.3166198730469 124.69091796875 L 426.9404296875 125.60760498046875 L 413.1377258300781 126.48029327392578 L 398.8714294433594 127.30514526367188 L 384.1044921875 128.07835388183594 L 368.79974365234375 128.79608154296875 L 352.920166015625 129.45449829101562 L 336.4286193847656 130.04978942871094 L 319.2880554199219 130.57810974121094 L 301.4613952636719 131.03565979003906 L 282.9114990234375 131.41859436035156 L 263.601318359375 131.7230987548828 L 243.4937744140625 131.94532775878906 L 222.5517578125 132.08148193359375 L 200.73818969726562 132.12771606445312 Z" fill-opacity="0.6" clip-path="url(#OZgdTFOLGtou)" stroke-opacity="1" stroke-linejoin="bevel" stroke-miterlimit="10" stroke-width="0.8" stroke-dasharray=""/><path fill="rgb(127,127,127)" stroke="rgb(127,127,127)" paint-order="fill" d="M 200.73818969726562 122.10476684570312 L 200.73818969726562 132.12771606445312 L 200.73818969726562 132.12771606445312 L 222.5517578125 132.07626342773438 L 243.4937744140625 131.92477416992188 L 263.601318359375 131.67747497558594 L 282.9114990234375 131.33865356445312 L 301.4613952636719 130.91253662109375 L 319.2880554199219 130.40341186523438 L 336.4286193847656 129.81552124023438 L 352.920166015625 129.1531219482422 L 368.79974365234375 128.42047119140625 L 384.1044921875 127.621826171875 L 398.8714294433594 126.7614517211914 L 413.1377258300781 125.8436050415039 L 426.9404296875 124.8725357055664 L 440.3166198730469 123.85250091552734 L 453.3033752441406 122.78776550292969 L 465.9378356933594 121.68257904052734 L 478.25701904296875 120.54121398925781 L 490.2980651855469 119.36790466308594 L 502.0980529785156 118.16693115234375 L 513.6940307617188 116.94253540039062 L 525.1231079101562 115.69898223876953 L 536.4224243164062 114.4405288696289 L 547.6290283203125 113.17143249511719 L 558.7799682617188 111.89595031738281 L 569.912353515625 110.61833953857422 L 581.0632934570312 109.34285736083984 L 592.2698974609375 108.07376098632812 L 603.5691528320312 106.8153076171875 L 614.998291015625 105.5717544555664 L 626.59423828125 104.34735870361328 L 638.3942260742188 103.1463851928711 L 650.435302734375 101.97308349609375 L 662.7544555664062 100.83171081542969 L 675.388916015625 99.72652435302734 L 688.3756713867188 98.66178894042969 L 701.7518920898438 97.64176177978516 L 715.5545654296875 96.67068481445312 L 729.8208618164062 95.75283813476562 L 744.5878295898438 94.89246368408203 L 759.892578125 94.09381866455078 L 775.7721557617188 93.36117553710938 L 792.263671875 92.69877624511719 L 809.4042358398438 92.11087799072266 L 827.2308959960938 91.60175323486328 L 845.7808227539062 91.17564392089844 L 865.0910034179688 90.8368148803711 L 885.1985473632812 90.58952331542969 L 906.1405639648438 90.43802642822266 L 927.9541015625 90.38658142089844 L 927.9541015625 90.38658142089844 L 927.9541015625 80.36363983154297 L 927.9541015625 80.36363983154297 L 906.1405639648438 80.41508483886719 L 885.1985473632812 80.56658172607422 L 865.0910034179688 80.81387329101562 L 845.7808227539062 81.15269470214844 L 827.2308959960938 81.57880401611328 L 809.4042358398438 82.08793640136719 L 792.263671875 82.67582702636719 L 775.7721557617188 83.33822631835938 L 759.892578125 84.07087707519531 L 744.5878295898438 84.86951446533203 L 729.8208618164062 85.72988891601562 L 715.5545654296875 86.64774322509766 L 701.7518920898438 87.61881256103516 L 688.3756713867188 88.63884735107422 L 675.388916015625 89.70358276367188 L 662.7544555664062 90.80876159667969 L 650.435302734375 91.95013427734375 L 638.3942260742188 93.1234359741211 L 626.59423828125 94.32441711425781 L 614.998291015625 95.5488052368164 L 603.5691528320312 96.7923583984375 L 592.2698974609375 98.05081176757812 L 581.0632934570312 99.31990814208984 L 569.912353515625 100.59539031982422 L 558.7799682617188 101.87300872802734 L 547.6290283203125 103.14849090576172 L 536.4224243164062 104.41758728027344 L 525.1231079101562 105.67604064941406 L 513.6940307617188 106.91959381103516 L 502.0980529785156 108.14398193359375 L 490.2980651855469 109.34496307373047 L 478.25701904296875 110.51826477050781 L 465.9378356933594 111.65963745117188 L 453.3033752441406 112.76481628417969 L 440.3166198730469 113.82955169677734 L 426.9404296875 114.8495864868164 L 413.1377258300781 115.8206558227539 L 398.8714294433594 116.73851013183594 L 384.1044921875 117.59888458251953 L 368.79974365234375 118.39752197265625 L 352.920166015625 119.13017272949219 L 336.4286193847656 119.79257202148438 L 319.2880554199219 120.38046264648438 L 301.4613952636719 120.88959503173828 L 282.9114990234375 121.31570434570312 L 263.601318359375 121.65453338623047 L 243.4937744140625 121.90182495117188 L 222.5517578125 122.0533218383789 L 200.73818969726562 122.10476684570312 Z" fill-opacity="0.6" clip-path="url(#OZgdTFOLGtou)" stroke-opacity="1" stroke-linejoin="bevel" stroke-miterlimit="10" stroke-width="0.8" stroke-dasharray=""/><path fill="rgb(31,119,180)" stroke="rgb(0,0,0)" paint-order="fill" d="M 189.49258422851562 122.10476684570312 L 200.73818969726562 122.10476684570312 L 200.73818969726562 1124.3992919921875 L 189.49258422851562 1124.3992919921875 L 189.49258422851562 122.10476684570312" fill-opacity="0.9019607843137255" clip-path="url(#CrenCCdHLFVG)" stroke-opacity="0.2" stroke-linejoin="bevel" stroke-miterlimit="10" stroke-width="0.5" stroke-dasharray=""/><path fill="rgb(174,199,232)" stroke="rgb(0,0,0)" paint-order="fill" d="M 927.9541015625 917.131591796875 L 939.19970703125 917.131591796875 L 939.19970703125 1137.6363525390625 L 927.9541015625 1137.6363525390625 L 927.9541015625 917.131591796875" fill-opacity="0.9019607843137255" clip-path="url(#CrenCCdHLFVG)" stroke-opacity="0.2" stroke-linejoin="bevel" stroke-miterlimit="10" stroke-width="0.5" stroke-dasharray=""/><path fill="rgb(255,127,14)" stroke="rgb(0,0,0)" paint-order="fill" d="M 927.9541015625 722.4664916992188 L 939.19970703125 722.4664916992188 L 939.19970703125 912.9024658203125 L 927.9541015625 912.9024658203125 L 927.9541015625 722.4664916992188" fill-opacity="0.9019607843137255" clip-path="url(#CrenCCdHLFVG)" stroke-opacity="0.2" stroke-linejoin="bevel" stroke-miterlimit="10" stroke-width="0.5" stroke-dasharray=""/><path fill="rgb(255,187,120)" stroke="rgb(0,0,0)" paint-order="fill" d="M 927.9541015625 597.9620971679688 L 939.19970703125 597.9620971679688 L 939.19970703125 718.2374267578125 L 927.9541015625 718.2374267578125 L 927.9541015625 597.9620971679688" fill-opacity="0.9019607843137255" clip-path="url(#CrenCCdHLFVG)" stroke-opacity="0.2" stroke-linejoin="bevel" stroke-miterlimit="10" stroke-width="0.5" stroke-dasharray=""/><path fill="rgb(44,160,44)" stroke="rgb(0,0,0)" paint-order="fill" d="M 927.9541015625 483.4805908203125 L 939.19970703125 483.4805908203125 L 939.19970703125 593.7329711914062 L 927.9541015625 593.7329711914062 L 927.9541015625 483.4805908203125" fill-opacity="0.9019607843137255" clip-path="url(#CrenCCdHLFVG)" stroke-opacity="0.2" stroke-linejoin="bevel" stroke-miterlimit="10" stroke-width="0.5" stroke-dasharray=""/><path fill="rgb(152,223,138)" stroke="rgb(0,0,0)" paint-order="fill" d="M 927.9541015625 368.99908447265625 L 939.19970703125 368.99908447265625 L 939.19970703125 479.2514953613281 L 927.9541015625 479.2514953613281 L 927.9541015625 368.99908447265625" fill-opacity="0.9019607843137255" clip-path="url(#CrenCCdHLFVG)" stroke-opacity="0.2" stroke-linejoin="bevel" stroke-miterlimit="10" stroke-width="0.5" stroke-dasharray=""/><path fill="rgb(214,39,40)" stroke="rgb(0,0,0)" paint-order="fill" d="M 927.9541015625 304.63232421875 L 939.19970703125 304.63232421875 L 939.19970703125 364.7699890136719 L 927.9541015625 364.7699890136719 L 927.9541015625 304.63232421875" fill-opacity="0.9019607843137255" clip-path="url(#CrenCCdHLFVG)" stroke-opacity="0.2" stroke-linejoin="bevel" stroke-miterlimit="10" stroke-width="0.5" stroke-dasharray=""/><path fill="rgb(255,152,150)" stroke="rgb(0,0,0)" paint-order="fill" d="M 927.9541015625 260.31146240234375 L 939.19970703125 260.31146240234375 L 939.19970703125 300.4032287597656 L 927.9541015625 300.4032287597656 L 927.9541015625 260.31146240234375" fill-opacity="0.9019607843137255" clip-path="url(#CrenCCdHLFVG)" stroke-opacity="0.2" stroke-linejoin="bevel" stroke-miterlimit="10" stroke-width="0.5" stroke-dasharray=""/><path fill="rgb(148,103,189)" stroke="rgb(0,0,0)" paint-order="fill" d="M 927.9541015625 226.01353454589844 L 939.19970703125 226.01353454589844 L 939.19970703125 256.0823669433594 L 927.9541015625 256.0823669433594 L 927.9541015625 226.01353454589844" fill-opacity="0.9019607843137255" clip-path="url(#CrenCCdHLFVG)" stroke-opacity="0.2" stroke-linejoin="bevel" stroke-miterlimit="10" stroke-width="0.5" stroke-dasharray=""/><path fill="rgb(197,176,213)" stroke="rgb(0,0,0)" paint-order="fill" d="M 927.9541015625 191.71560668945312 L 939.19970703125 191.71560668945312 L 939.19970703125 221.78443908691406 L 927.9541015625 221.78443908691406 L 927.9541015625 191.71560668945312" fill-opacity="0.9019607843137255" clip-path="url(#CrenCCdHLFVG)" stroke-opacity="0.2" stroke-linejoin="bevel" stroke-miterlimit="10" stroke-width="0.5" stroke-dasharray=""/><path fill="rgb(140,86,75)" stroke="rgb(0,0,0)" paint-order="fill" d="M 927.9541015625 157.4176788330078 L 939.19970703125 157.4176788330078 L 939.19970703125 187.48651123046875 L 927.9541015625 187.48651123046875 L 927.9541015625 157.4176788330078" fill-opacity="0.9019607843137255" clip-path="url(#CrenCCdHLFVG)" stroke-opacity="0.2" stroke-linejoin="bevel" stroke-miterlimit="10" stroke-width="0.5" stroke-dasharray=""/><path fill="rgb(196,156,148)" stroke="rgb(0,0,0)" paint-order="fill" d="M 927.9541015625 133.14268493652344 L 939.19970703125 133.14268493652344 L 939.19970703125 153.18858337402344 L 927.9541015625 153.18858337402344 L 927.9541015625 133.14268493652344" fill-opacity="0.9019607843137255" clip-path="url(#CrenCCdHLFVG)" stroke-opacity="0.2" stroke-linejoin="bevel" stroke-miterlimit="10" stroke-width="0.5" stroke-dasharray=""/><path fill="rgb(227,119,194)" stroke="rgb(0,0,0)" paint-order="fill" d="M 927.9541015625 108.86770629882812 L 939.19970703125 108.86770629882812 L 939.19970703125 128.91360473632812 L 927.9541015625 128.91360473632812 L 927.9541015625 108.86770629882812" fill-opacity="0.9019607843137255" clip-path="url(#CrenCCdHLFVG)" stroke-opacity="0.2" stroke-linejoin="bevel" stroke-miterlimit="10" stroke-width="0.5" stroke-dasharray=""/><path fill="rgb(247,182,210)" stroke="rgb(0,0,0)" paint-order="fill" d="M 927.9541015625 94.61566925048828 L 939.19970703125 94.61566925048828 L 939.19970703125 104.63861846923828 L 927.9541015625 104.63861846923828 L 927.9541015625 94.61566925048828" fill-opacity="0.9019607843137255" clip-path="url(#CrenCCdHLFVG)" stroke-opacity="0.2" stroke-linejoin="bevel" stroke-miterlimit="10" stroke-width="0.5" stroke-dasharray=""/><path fill="rgb(127,127,127)" stroke="rgb(0,0,0)" paint-order="fill" d="M 927.9541015625 80.36363983154297 L 939.19970703125 80.36363983154297 L 939.19970703125 90.38658142089844 L 927.9541015625 90.38658142089844 L 927.9541015625 80.36363983154297" fill-opacity="0.9019607843137255" clip-path="url(#CrenCCdHLFVG)" stroke-opacity="0.2" stroke-linejoin="bevel" stroke-miterlimit="10" stroke-width="0.5" stroke-dasharray=""/><g clip-path="url(#ITNvFWVdqErr)"><text fill="rgb(0,0,0)" stroke="none" font-family="helvetica" font-size="8pt" font-style="normal" font-weight="normal" text-decoration="normal" x="0" y="0" text-anchor="end" dominant-baseline="central" transform="matrix(1, 0, 0, 1, 186.68118286132812, 623.2520141601562)" fill-opacity="1">Martin Marietta - 100</text></g><g clip-path="url(#ITNvFWVdqErr)"><text fill="rgb(0,0,0)" stroke="none" font-family="helvetica" font-size="8pt" font-style="normal" font-weight="normal" text-decoration="normal" x="0" y="0" text-anchor="end" dominant-baseline="central" transform="matrix(1, 0, 0, 1, 925.1427001953125, 1027.3839111328125)" fill-opacity="1">Titan IIID - 22</text></g><g clip-path="url(#ITNvFWVdqErr)"><text fill="rgb(0,0,0)" stroke="none" font-family="helvetica" font-size="8pt" font-style="normal" font-weight="normal" text-decoration="normal" x="0" y="0" text-anchor="end" dominant-baseline="central" transform="matrix(1, 0, 0, 1, 925.1427001953125, 817.6845092773438)" fill-opacity="1">Titan III(23)C - 19</text></g><g clip-path="url(#ITNvFWVdqErr)"><text fill="rgb(0,0,0)" stroke="none" font-family="helvetica" font-size="8pt" font-style="normal" font-weight="normal" text-decoration="normal" x="0" y="0" text-anchor="end" dominant-baseline="central" transform="matrix(1, 0, 0, 1, 925.1427001953125, 658.0997314453125)" fill-opacity="1">Titan 34D - 12</text></g><g clip-path="url(#ITNvFWVdqErr)"><text fill="rgb(0,0,0)" stroke="none" font-family="helvetica" font-size="8pt" font-style="normal" font-weight="normal" text-decoration="normal" x="0" y="0" text-anchor="end" dominant-baseline="central" transform="matrix(1, 0, 0, 1, 925.1427001953125, 538.6068115234375)" fill-opacity="1">Titan III(34)B Agena-D - 11</text></g><g clip-path="url(#ITNvFWVdqErr)"><text fill="rgb(0,0,0)" stroke="none" font-family="helvetica" font-size="8pt" font-style="normal" font-weight="normal" text-decoration="normal" x="0" y="0" text-anchor="end" dominant-baseline="central" transform="matrix(1, 0, 0, 1, 925.1427001953125, 424.12530517578125)" fill-opacity="1">Titan IIIC - 11</text></g><g clip-path="url(#ITNvFWVdqErr)"><text fill="rgb(0,0,0)" stroke="none" font-family="helvetica" font-size="8pt" font-style="normal" font-weight="normal" text-decoration="normal" x="0" y="0" text-anchor="end" dominant-baseline="central" transform="matrix(1, 0, 0, 1, 925.1427001953125, 334.701171875)" fill-opacity="1">Titan IIIE - 6</text></g><g clip-path="url(#ITNvFWVdqErr)"><text fill="rgb(0,0,0)" stroke="none" font-family="helvetica" font-size="8pt" font-style="normal" font-weight="normal" text-decoration="normal" x="0" y="0" text-anchor="end" dominant-baseline="central" transform="matrix(1, 0, 0, 1, 925.1427001953125, 280.3573303222656)" fill-opacity="1">Titan II(23)G - 4</text></g><g clip-path="url(#ITNvFWVdqErr)"><text fill="rgb(0,0,0)" stroke="none" font-family="helvetica" font-size="8pt" font-style="normal" font-weight="normal" text-decoration="normal" x="0" y="0" text-anchor="end" dominant-baseline="central" transform="matrix(1, 0, 0, 1, 925.1427001953125, 241.04794311523438)" fill-opacity="1">Commercial Titan III - 3</text></g><g clip-path="url(#ITNvFWVdqErr)"><text fill="rgb(0,0,0)" stroke="none" font-family="helvetica" font-size="8pt" font-style="normal" font-weight="normal" text-decoration="normal" x="0" y="0" text-anchor="end" dominant-baseline="central" transform="matrix(1, 0, 0, 1, 925.1427001953125, 206.75001525878906)" fill-opacity="1">Titan IV(401)A - 3</text></g><g clip-path="url(#ITNvFWVdqErr)"><text fill="rgb(0,0,0)" stroke="none" font-family="helvetica" font-size="8pt" font-style="normal" font-weight="normal" text-decoration="normal" x="0" y="0" text-anchor="end" dominant-baseline="central" transform="matrix(1, 0, 0, 1, 925.1427001953125, 172.45208740234375)" fill-opacity="1">Titan IV(402)A - 3</text></g><g clip-path="url(#ITNvFWVdqErr)"><text fill="rgb(0,0,0)" stroke="none" font-family="helvetica" font-size="8pt" font-style="normal" font-weight="normal" text-decoration="normal" x="0" y="0" text-anchor="end" dominant-baseline="central" transform="matrix(1, 0, 0, 1, 925.1427001953125, 143.16563415527344)" fill-opacity="1">Titan IV(403)A - 2</text></g><g clip-path="url(#ITNvFWVdqErr)"><text fill="rgb(0,0,0)" stroke="none" font-family="helvetica" font-size="8pt" font-style="normal" font-weight="normal" text-decoration="normal" x="0" y="0" text-anchor="end" dominant-baseline="central" transform="matrix(1, 0, 0, 1, 925.1427001953125, 118.89065551757812)" fill-opacity="1">Titan-III(33)B Agena-D - 2</text></g><g clip-path="url(#ITNvFWVdqErr)"><text fill="rgb(0,0,0)" stroke="none" font-family="helvetica" font-size="8pt" font-style="normal" font-weight="normal" text-decoration="normal" x="0" y="0" text-anchor="end" dominant-baseline="central" transform="matrix(1, 0, 0, 1, 925.1427001953125, 99.62714385986328)" fill-opacity="1">Titan IV(404)A - 1</text></g><g clip-path="url(#ITNvFWVdqErr)"><text fill="rgb(0,0,0)" stroke="none" font-family="helvetica" font-size="8pt" font-style="normal" font-weight="normal" text-decoration="normal" x="0" y="0" text-anchor="end" dominant-baseline="central" transform="matrix(1, 0, 0, 1, 925.1427001953125, 85.37510681152344)" fill-opacity="1">Titan IV(405)A - 1</text></g><text fill="rgb(68,68,68)" stroke="none" font-family="helvetica" font-size="13px" font-style="normal" font-weight="bold" text-decoration="normal" x="10" y="19.1689453125" text-anchor="start" dominant-baseline="alphabetic" transform="matrix(1, 0, 0, 1, 0.5, 0.5)" fill-opacity="1">Martin Marietta Rocket Successes</text></svg>