<svg version="1.1" xmlns="http://www.w3.org/2000/svg" width="1000" height="1200"><defs><clipPath id="NRtnFfkvVJIx"><path fill="none" stroke="none" d="M 10.5 27.5 L 970.5 27.5 L 970.5 1190.5 L 10.5 1190.5 L 10.5 27.5"/></clipPath><clipPath id="tTkkeSXbiidL"><path fill="none" stroke="none" d="M 10.5 27.5 L 970.5 27.5 L 970.5 1190.5 L 10.5 1190.5 L 10.5 27.5"/></clipPath><clipPath id="WONTTEDTRacn"><path fill="none" stroke="none" d="M 10.5 27.5 L 970.5 27.5 L 970.5 1190.5 L 10.5 1190.5 L 10.5 27.5"/></clipPath><clipPath id="xAhpFXHLQKbo"><path fill="none" stroke="none" d="M 10.5 27.5 L 970.5 27.5 L 970.5 1190.5 L 10.5 1190.5 L 10.5 27.5"/></clipPath><clipPath id="OTCycOwtOesO"><path fill="none" stroke="none" d="M 10.5 27.5 L 970.5 27.5 L 970.5 1190.5 L 10.5 1190.5 L 10.5 27.5"/></clipPath><clipPath id="SuKKOEfPaXdB"><path fill="none" stroke="none" d="M 10.5 27.5 L 970.5 27.5 L 970.5 1190.5 L 10.5 1190.5 L 10.5 27.5"/></clipPath></defs><path fill="rgb(255,255,255)" stroke="none" paint-order="stroke" d="M 0.5 0.5 L 1000.5 0.5 L 1000.5 1200.5 L 0.5 1200.5 L 0.5 0.5" fill-opacity="1"/><rect fill="#FFFFFF" stroke="none" x="10" y="27" width="960" height="1163" transform="matrix(1, 0, 0, 1, 0.5, 0.5)"/><path fill="rgb(255,250,250)" stroke="none" paint-order="stroke" d="M 10.5 27.5 L 970.5 27.5 L 970.5 1190.5 L 10.5 1190.5 L 10.5 27.5" fill-opacity="1"/><path fill="rgb(174,199,232)" stroke="rgb(174,199,232)" paint-order="fill" d="M 200.73818969726562 762.1644287109375 L 200.73818969726562 1124.4395751953125 L 200.73818969726562 1124.4395751953125 L 222.5517578125 1124.455810546875 L 243.4937744140625 1124.5037841796875 L 263.601318359375 1124.5819091796875 L 282.9114990234375 1124.6890869140625 L 301.4613952636719 1124.82373046875 L 319.2880554199219 1124.9847412109375 L 336.4286193847656 1125.1705322265625 L 352.920166015625 1125.3800048828125 L 368.79974365234375 1125.6116943359375 L 384.1044921875 1125.8641357421875 L 398.8714294433594 1126.1361083984375 L 413.1377258300781 1126.4263916015625 L 426.9404296875 1126.7333984375 L 440.3166198730469 1127.0557861328125 L 453.3033752441406 1127.3924560546875 L 465.9378356933594 1127.7418212890625 L 478.25701904296875 1128.102783203125 L 490.2980651855469 1128.4736328125 L 502.0980529785156 1128.8533935546875 L 513.6940307617188 1129.240478515625 L 525.1231079101562 1129.6336669921875 L 536.4224243164062 1130.031494140625 L 547.6290283203125 1130.4327392578125 L 558.7799682617188 1130.8360595703125 L 569.912353515625 1131.2398681640625 L 581.0632934570312 1131.6431884765625 L 592.2698974609375 1132.04443359375 L 603.5691528320312 1132.4422607421875 L 614.998291015625 1132.83544921875 L 626.59423828125 1133.2225341796875 L 638.3942260742188 1133.602294921875 L 650.435302734375 1133.97314453125 L 662.7544555664062 1134.3341064453125 L 675.388916015625 1134.6834716796875 L 688.3756713867188 1135.0201416015625 L 701.7518920898438 1135.342529296875 L 715.5545654296875 1135.6495361328125 L 729.8208618164062 1135.9398193359375 L 744.5878295898438 1136.2117919921875 L 759.892578125 1136.4642333984375 L 775.7721557617188 1136.6959228515625 L 792.263671875 1136.9053955078125 L 809.4042358398438 1137.0911865234375 L 827.2308959960938 1137.252197265625 L 845.7808227539062 1137.3868408203125 L 865.0910034179688 1137.4940185546875 L 885.1985473632812 1137.5721435546875 L 906.1405639648438 1137.6201171875 L 927.9541015625 1137.6363525390625 L 927.9541015625 1137.6363525390625 L 927.9541015625 775.3612060546875 L 927.9541015625 775.3612060546875 L 906.1405639648438 775.344970703125 L 885.1985473632812 775.2970581054688 L 865.0910034179688 775.2188720703125 L 845.7808227539062 775.1117553710938 L 827.2308959960938 774.97705078125 L 809.4042358398438 774.8161010742188 L 792.263671875 774.6301879882812 L 775.7721557617188 774.4207763671875 L 759.892578125 774.1891479492188 L 744.5878295898438 773.9366455078125 L 729.8208618164062 773.6646118164062 L 715.5545654296875 773.3744506835938 L 701.7518920898438 773.0674438476562 L 688.3756713867188 772.7449340820312 L 675.388916015625 772.4083251953125 L 662.7544555664062 772.0588989257812 L 650.435302734375 771.6980590820312 L 638.3942260742188 771.3270874023438 L 626.59423828125 770.9473876953125 L 614.998291015625 770.560302734375 L 603.5691528320312 770.1671752929688 L 592.2698974609375 769.769287109375 L 581.0632934570312 769.3680419921875 L 569.912353515625 768.9647827148438 L 558.7799682617188 768.5608520507812 L 547.6290283203125 768.1575927734375 L 536.4224243164062 767.75634765625 L 525.1231079101562 767.3585205078125 L 513.6940307617188 766.96533203125 L 502.0980529785156 766.5782470703125 L 490.2980651855469 766.1985473632812 L 478.25701904296875 765.8275756835938 L 465.9378356933594 765.4667358398438 L 453.3033752441406 765.1173095703125 L 440.3166198730469 764.7807006835938 L 426.9404296875 764.4581909179688 L 413.1377258300781 764.1511840820312 L 398.8714294433594 763.8610229492188 L 384.1044921875 763.5889892578125 L 368.79974365234375 763.3364868164062 L 352.920166015625 763.1048583984375 L 336.4286193847656 762.8954467773438 L 319.2880554199219 762.7095947265625 L 301.4613952636719 762.548583984375 L 282.9114990234375 762.4138793945312 L 263.601318359375 762.3067626953125 L 243.4937744140625 762.2285766601562 L 222.5517578125 762.1806640625 L 200.73818969726562 762.1644287109375 Z" fill-opacity="0.6" clip-path="url(#WONTTEDTRacn)" stroke-opacity="1" stroke-linejoin="bevel" stroke-miterlimit="10" stroke-width="0.8" stroke-dasharray=""/><path fill="rgb(255,127,14)" stroke="rgb(255,127,14)" paint-order="fill" d="M 200.73818969726562 653.4818725585938 L 200.73818969726562 762.1644287109375 L 200.73818969726562 762.1644287109375 L 222.5517578125 762.1754760742188 L 243.4937744140625 762.2080078125 L 263.601318359375 762.2611694335938 L 282.9114990234375 762.3339233398438 L 301.4613952636719 762.4254760742188 L 319.2880554199219 762.5348510742188 L 336.4286193847656 762.6611938476562 L 352.920166015625 762.803466796875 L 368.79974365234375 762.9608764648438 L 384.1044921875 763.1324462890625 L 398.8714294433594 763.3173217773438 L 413.1377258300781 763.5145263671875 L 426.9404296875 763.72314453125 L 440.3166198730469 763.9422607421875 L 453.3033752441406 764.1710205078125 L 465.9378356933594 764.408447265625 L 478.25701904296875 764.6536865234375 L 490.2980651855469 764.90576171875 L 502.0980529785156 765.1637573242188 L 513.6940307617188 765.4268188476562 L 525.1231079101562 765.6939697265625 L 536.4224243164062 765.96435546875 L 547.6290283203125 766.2369995117188 L 558.7799682617188 766.5110473632812 L 569.912353515625 766.7855224609375 L 581.0632934570312 767.0595703125 L 592.2698974609375 767.3322143554688 L 603.5691528320312 767.6026000976562 L 614.998291015625 767.8697509765625 L 626.59423828125 768.1328125 L 638.3942260742188 768.3908081054688 L 650.435302734375 768.6428833007812 L 662.7544555664062 768.8881225585938 L 675.388916015625 769.1255493164062 L 688.3756713867188 769.3543090820312 L 701.7518920898438 769.5734252929688 L 715.5545654296875 769.7820434570312 L 729.8208618164062 769.979248046875 L 744.5878295898438 770.1640625 L 759.892578125 770.335693359375 L 775.7721557617188 770.4930419921875 L 792.263671875 770.6353759765625 L 809.4042358398438 770.7616577148438 L 827.2308959960938 770.87109375 L 845.7808227539062 770.9625854492188 L 865.0910034179688 771.035400390625 L 885.1985473632812 771.0885620117188 L 906.1405639648438 771.12109375 L 927.9541015625 771.1321411132812 L 927.9541015625 771.1321411132812 L 927.9541015625 662.4495849609375 L 927.9541015625 662.4495849609375 L 906.1405639648438 662.4385375976562 L 885.1985473632812 662.406005859375 L 865.0910034179688 662.3528442382812 L 845.7808227539062 662.2800903320312 L 827.2308959960938 662.1885375976562 L 809.4042358398438 662.0791625976562 L 792.263671875 661.9528198242188 L 775.7721557617188 661.810546875 L 759.892578125 661.6531372070312 L 744.5878295898438 661.4815673828125 L 729.8208618164062 661.2966918945312 L 715.5545654296875 661.0994873046875 L 701.7518920898438 660.890869140625 L 688.3756713867188 660.6717529296875 L 675.388916015625 660.4429931640625 L 662.7544555664062 660.20556640625 L 650.435302734375 659.9603271484375 L 638.3942260742188 659.708251953125 L 626.59423828125 659.4502563476562 L 614.998291015625 659.1871948242188 L 603.5691528320312 658.9200439453125 L 592.2698974609375 658.649658203125 L 581.0632934570312 658.3770141601562 L 569.912353515625 658.1029663085938 L 558.7799682617188 657.8284912109375 L 547.6290283203125 657.554443359375 L 536.4224243164062 657.2817993164062 L 525.1231079101562 657.011474609375 L 513.6940307617188 656.7442626953125 L 502.0980529785156 656.4812622070312 L 490.2980651855469 656.2232055664062 L 478.25701904296875 655.9711303710938 L 465.9378356933594 655.7259521484375 L 453.3033752441406 655.4884643554688 L 440.3166198730469 655.259765625 L 426.9404296875 655.0405883789062 L 413.1377258300781 654.8319702148438 L 398.8714294433594 654.634765625 L 384.1044921875 654.449951171875 L 368.79974365234375 654.2783813476562 L 352.920166015625 654.1209716796875 L 336.4286193847656 653.9786376953125 L 319.2880554199219 653.8523559570312 L 301.4613952636719 653.7429809570312 L 282.9114990234375 653.6514282226562 L 263.601318359375 653.57861328125 L 243.4937744140625 653.5255126953125 L 222.5517578125 653.492919921875 L 200.73818969726562 653.4818725585938 Z" fill-opacity="0.6" clip-path="url(#WONTTEDTRacn)" stroke-opacity="1" stroke-linejoin="bevel" stroke-miterlimit="10" stroke-width="0.8" stroke-dasharray=""/><path fill="rgb(255,187,120)" stroke="rgb(255,187,120)" paint-order="fill" d="M 200.73818969726562 568.9509887695312 L 200.73818969726562 653.4818725585938 L 200.73818969726562 653.4818725585938 L 222.5517578125 653.4877319335938 L 243.4937744140625 653.5049438476562 L 263.601318359375 653.5330200195312 L 282.9114990234375 653.5714721679688 L 301.4613952636719 653.6198120117188 L 319.2880554199219 653.6776123046875 L 336.4286193847656 653.744384765625 L 352.920166015625 653.819580078125 L 368.79974365234375 653.9027709960938 L 384.1044921875 653.993408203125 L 398.8714294433594 654.091064453125 L 413.1377258300781 654.1952514648438 L 426.9404296875 654.3055419921875 L 440.3166198730469 654.4213256835938 L 453.3033752441406 654.5421752929688 L 465.9378356933594 654.6676635742188 L 478.25701904296875 654.7972412109375 L 490.2980651855469 654.930419921875 L 502.0980529785156 655.0667724609375 L 513.6940307617188 655.2057495117188 L 525.1231079101562 655.346923828125 L 536.4224243164062 655.4898071289062 L 547.6290283203125 655.6338500976562 L 558.7799682617188 655.7786865234375 L 569.912353515625 655.9237060546875 L 581.0632934570312 656.0684814453125 L 592.2698974609375 656.2125854492188 L 603.5691528320312 656.35546875 L 614.998291015625 656.4966430664062 L 626.59423828125 656.6356201171875 L 638.3942260742188 656.77197265625 L 650.435302734375 656.9051513671875 L 662.7544555664062 657.0347290039062 L 675.388916015625 657.1602172851562 L 688.3756713867188 657.2810668945312 L 701.7518920898438 657.3968505859375 L 715.5545654296875 657.507080078125 L 729.8208618164062 657.611328125 L 744.5878295898438 657.708984375 L 759.892578125 657.7996215820312 L 775.7721557617188 657.8828125 L 792.263671875 657.9580078125 L 809.4042358398438 658.0247802734375 L 827.2308959960938 658.0825805664062 L 845.7808227539062 658.1309204101562 L 865.0910034179688 658.1693725585938 L 885.1985473632812 658.1974487304688 L 906.1405639648438 658.2146606445312 L 927.9541015625 658.2205200195312 L 927.9541015625 658.2205200195312 L 927.9541015625 573.6896362304688 L 927.9541015625 573.6896362304688 L 906.1405639648438 573.6837768554688 L 885.1985473632812 573.6666259765625 L 865.0910034179688 573.6385498046875 L 845.7808227539062 573.6000366210938 L 827.2308959960938 573.5516967773438 L 809.4042358398438 573.493896484375 L 792.263671875 573.4271240234375 L 775.7721557617188 573.3519287109375 L 759.892578125 573.268798828125 L 744.5878295898438 573.1781005859375 L 729.8208618164062 573.0804443359375 L 715.5545654296875 572.9762573242188 L 701.7518920898438 572.8660278320312 L 688.3756713867188 572.7501831054688 L 675.388916015625 572.6293334960938 L 662.7544555664062 572.5038452148438 L 650.435302734375 572.374267578125 L 638.3942260742188 572.2410888671875 L 626.59423828125 572.104736328125 L 614.998291015625 571.9657592773438 L 603.5691528320312 571.8245849609375 L 592.2698974609375 571.6817016601562 L 581.0632934570312 571.5376586914062 L 569.912353515625 571.392822265625 L 558.7799682617188 571.247802734375 L 547.6290283203125 571.10302734375 L 536.4224243164062 570.9589233398438 L 525.1231079101562 570.8161010742188 L 513.6940307617188 570.6749267578125 L 502.0980529785156 570.535888671875 L 490.2980651855469 570.3995361328125 L 478.25701904296875 570.266357421875 L 465.9378356933594 570.1367797851562 L 453.3033752441406 570.0113525390625 L 440.3166198730469 569.8904418945312 L 426.9404296875 569.774658203125 L 413.1377258300781 569.6644287109375 L 398.8714294433594 569.5602416992188 L 384.1044921875 569.4625244140625 L 368.79974365234375 569.3718872070312 L 352.920166015625 569.2886962890625 L 336.4286193847656 569.2135009765625 L 319.2880554199219 569.1467895507812 L 301.4613952636719 569.0889892578125 L 282.9114990234375 569.0405883789062 L 263.601318359375 569.0021362304688 L 243.4937744140625 568.9740600585938 L 222.5517578125 568.9568481445312 L 200.73818969726562 568.9509887695312 Z" fill-opacity="0.6" clip-path="url(#WONTTEDTRacn)" stroke-opacity="1" stroke-linejoin="bevel" stroke-miterlimit="10" stroke-width="0.8" stroke-dasharray=""/><path fill="rgb(44,160,44)" stroke="rgb(44,160,44)" paint-order="fill" d="M 200.73818969726562 496.4960021972656 L 200.73818969726562 568.9509887695312 L 200.73818969726562 568.9509887695312 L 222.5517578125 568.95166015625 L 243.4937744140625 568.9534912109375 L 263.601318359375 568.95654296875 L 282.9114990234375 568.9606323242188 L 301.4613952636719 568.9658813476562 L 319.2880554199219 568.9720458984375 L 336.4286193847656 568.979248046875 L 352.920166015625 568.9873046875 L 368.79974365234375 568.9962768554688 L 384.1044921875 569.0060424804688 L 398.8714294433594 569.0165405273438 L 413.1377258300781 569.0277099609375 L 426.9404296875 569.0396118164062 L 440.3166198730469 569.0520629882812 L 453.3033752441406 569.0650024414062 L 465.9378356933594 569.0784912109375 L 478.25701904296875 569.0924682617188 L 490.2980651855469 569.1067504882812 L 502.0980529785156 569.1214599609375 L 513.6940307617188 569.1363525390625 L 525.1231079101562 569.1515502929688 L 536.4224243164062 569.1669311523438 L 547.6290283203125 569.1824340820312 L 558.7799682617188 569.197998046875 L 569.912353515625 569.2135620117188 L 581.0632934570312 569.2291259765625 L 592.2698974609375 569.24462890625 L 603.5691528320312 569.260009765625 L 614.998291015625 569.2752075195312 L 626.59423828125 569.2901000976562 L 638.3942260742188 569.3048095703125 L 650.435302734375 569.319091796875 L 662.7544555664062 569.3330688476562 L 675.388916015625 569.3465576171875 L 688.3756713867188 569.3595581054688 L 701.7518920898438 569.3720092773438 L 715.5545654296875 569.3838500976562 L 729.8208618164062 569.39501953125 L 744.5878295898438 569.405517578125 L 759.892578125 569.415283203125 L 775.7721557617188 569.4242553710938 L 792.263671875 569.4323120117188 L 809.4042358398438 569.4395141601562 L 827.2308959960938 569.4457397460938 L 845.7808227539062 569.450927734375 L 865.0910034179688 569.455078125 L 885.1985473632812 569.4580688476562 L 906.1405639648438 569.4598999023438 L 927.9541015625 569.4605712890625 L 927.9541015625 569.4605712890625 L 927.9541015625 497.0055236816406 L 927.9541015625 497.0055236816406 L 906.1405639648438 497.0048828125 L 885.1985473632812 497.0030517578125 L 865.0910034179688 497.0000305175781 L 845.7808227539062 496.9958801269531 L 827.2308959960938 496.9906921386719 L 809.4042358398438 496.9844665527344 L 792.263671875 496.977294921875 L 775.7721557617188 496.9692077636719 L 759.892578125 496.96026611328125 L 744.5878295898438 496.9505310058594 L 729.8208618164062 496.94000244140625 L 715.5545654296875 496.9288024902344 L 701.7518920898438 496.9169616699219 L 688.3756713867188 496.9045104980469 L 675.388916015625 496.8915100097656 L 662.7544555664062 496.8780212402344 L 650.435302734375 496.86407470703125 L 638.3942260742188 496.8497619628906 L 626.59423828125 496.8351135253906 L 614.998291015625 496.8201599121094 L 603.5691528320312 496.8049621582031 L 592.2698974609375 496.78961181640625 L 581.0632934570312 496.77410888671875 L 569.912353515625 496.758544921875 L 558.7799682617188 496.7429504394531 L 547.6290283203125 496.7273864746094 L 536.4224243164062 496.7118835449219 L 525.1231079101562 496.696533203125 L 513.6940307617188 496.6813659667969 L 502.0980529785156 496.6664123535156 L 490.2980651855469 496.6517333984375 L 478.25701904296875 496.6374206542969 L 465.9378356933594 496.6235046386719 L 453.3033752441406 496.6100158691406 L 440.3166198730469 496.5970153808594 L 426.9404296875 496.5845642089844 L 413.1377258300781 496.57269287109375 L 398.8714294433594 496.5614929199219 L 384.1044921875 496.5509948730469 L 368.79974365234375 496.541259765625 L 352.920166015625 496.53228759765625 L 336.4286193847656 496.52423095703125 L 319.2880554199219 496.51702880859375 L 301.4613952636719 496.5108337402344 L 282.9114990234375 496.505615234375 L 263.601318359375 496.5014953613281 L 243.4937744140625 496.49847412109375 L 222.5517578125 496.4966125488281 L 200.73818969726562 496.4960021972656 Z" fill-opacity="0.6" clip-path="url(#WONTTEDTRacn)" stroke-opacity="1" stroke-linejoin="bevel" stroke-miterlimit="10" stroke-width="0.8" stroke-dasharray=""/><path fill="rgb(152,223,138)" stroke="rgb(152,223,138)" paint-order="fill" d="M 200.73818969726562 436.1167907714844 L 200.73818969726562 496.4960021972656 L 200.73818969726562 496.4960021972656 L 222.5517578125 496.49139404296875 L 243.4937744140625 496.4779052734375 L 263.601318359375 496.45587158203125 L 282.9114990234375 496.4256896972656 L 301.4613952636719 496.3876953125 L 319.2880554199219 496.34234619140625 L 336.4286193847656 496.2899475097656 L 352.920166015625 496.2309265136719 L 368.79974365234375 496.1656494140625 L 384.1044921875 496.094482421875 L 398.8714294433594 496.0177917480469 L 413.1377258300781 495.9360046386719 L 426.9404296875 495.8494873046875 L 440.3166198730469 495.7585754394531 L 453.3033752441406 495.6636962890625 L 465.9378356933594 495.5652160644531 L 478.25701904296875 495.4635009765625 L 490.2980651855469 495.35894775390625 L 502.0980529785156 495.251953125 L 513.6940307617188 495.142822265625 L 525.1231079101562 495.0320129394531 L 536.4224243164062 494.9198913574219 L 547.6290283203125 494.8067932128906 L 558.7799682617188 494.6931457519531 L 569.912353515625 494.57928466796875 L 581.0632934570312 494.46563720703125 L 592.2698974609375 494.3525390625 L 603.5691528320312 494.2403869628906 L 614.998291015625 494.12957763671875 L 626.59423828125 494.0204772949219 L 638.3942260742188 493.9134521484375 L 650.435302734375 493.80889892578125 L 662.7544555664062 493.7071838378906 L 675.388916015625 493.60870361328125 L 688.3756713867188 493.5138244628906 L 701.7518920898438 493.4229431152344 L 715.5545654296875 493.3363952636719 L 729.8208618164062 493.2546081542969 L 744.5878295898438 493.1779479980469 L 759.892578125 493.1067810058594 L 775.7721557617188 493.04150390625 L 792.263671875 492.98248291015625 L 809.4042358398438 492.9300842285156 L 827.2308959960938 492.88470458984375 L 845.7808227539062 492.84674072265625 L 865.0910034179688 492.8165588378906 L 885.1985473632812 492.7945251464844 L 906.1405639648438 492.781005859375 L 927.9541015625 492.77642822265625 L 927.9541015625 492.77642822265625 L 927.9541015625 432.3972473144531 L 927.9541015625 432.3972473144531 L 906.1405639648438 432.4018249511719 L 885.1985473632812 432.4153137207031 L 865.0910034179688 432.4373474121094 L 845.7808227539062 432.4675598144531 L 827.2308959960938 432.5055236816406 L 809.4042358398438 432.5509033203125 L 792.263671875 432.603271484375 L 775.7721557617188 432.66229248046875 L 759.892578125 432.72760009765625 L 744.5878295898438 432.79876708984375 L 729.8208618164062 432.87542724609375 L 715.5545654296875 432.95721435546875 L 701.7518920898438 433.04376220703125 L 688.3756713867188 433.1346435546875 L 675.388916015625 433.2295227050781 L 662.7544555664062 433.3280029296875 L 650.435302734375 433.4297180175781 L 638.3942260742188 433.5342712402344 L 626.59423828125 433.64129638671875 L 614.998291015625 433.7503967285156 L 603.5691528320312 433.8612060546875 L 592.2698974609375 433.9733581542969 L 581.0632934570312 434.08642578125 L 569.912353515625 434.2001037597656 L 558.7799682617188 434.3139343261719 L 547.6290283203125 434.4276123046875 L 536.4224243164062 434.5406799316406 L 525.1231079101562 434.65283203125 L 513.6940307617188 434.7636413574219 L 502.0980529785156 434.87274169921875 L 490.2980651855469 434.9797668457031 L 478.25701904296875 435.0843200683594 L 465.9378356933594 435.18603515625 L 453.3033752441406 435.2845153808594 L 440.3166198730469 435.37939453125 L 426.9404296875 435.4703063964844 L 413.1377258300781 435.55682373046875 L 398.8714294433594 435.63861083984375 L 384.1044921875 435.71527099609375 L 368.79974365234375 435.78643798828125 L 352.920166015625 435.85174560546875 L 336.4286193847656 435.9107666015625 L 319.2880554199219 435.963134765625 L 301.4613952636719 436.0085144042969 L 282.9114990234375 436.0464782714844 L 263.601318359375 436.0766906738281 L 243.4937744140625 436.0987243652344 L 222.5517578125 436.1122131347656 L 200.73818969726562 436.1167907714844 Z" fill-opacity="0.6" clip-path="url(#WONTTEDTRacn)" stroke-opacity="1" stroke-linejoin="bevel" stroke-miterlimit="10" stroke-width="0.8" stroke-dasharray=""/><path fill="rgb(214,39,40)" stroke="rgb(214,39,40)" paint-order="fill" d="M 200.73818969726562 375.73760986328125 L 200.73818969726562 436.1167907714844 L 200.73818969726562 436.1167907714844 L 222.5517578125 436.10699462890625 L 243.4937744140625 436.0781555175781 L 263.601318359375 436.03106689453125 L 282.9114990234375 435.966552734375 L 301.4613952636719 435.8854064941406 L 319.2880554199219 435.7884521484375 L 336.4286193847656 435.6764831542969 L 352.920166015625 435.55035400390625 L 368.79974365234375 435.41082763671875 L 384.1044921875 435.2587585449219 L 398.8714294433594 435.09490966796875 L 413.1377258300781 434.9201354980469 L 426.9404296875 434.7352294921875 L 440.3166198730469 434.5409851074219 L 453.3033752441406 434.3382263183594 L 465.9378356933594 434.1277770996094 L 478.25701904296875 433.910400390625 L 490.2980651855469 433.6869812011719 L 502.0980529785156 433.4582824707031 L 513.6940307617188 433.2251281738281 L 525.1231079101562 432.9883117675781 L 536.4224243164062 432.7486877441406 L 547.6290283203125 432.50701904296875 L 558.7799682617188 432.2641296386719 L 569.912353515625 432.0208435058594 L 581.0632934570312 431.7779541015625 L 592.2698974609375 431.5362854003906 L 603.5691528320312 431.296630859375 L 614.998291015625 431.059814453125 L 626.59423828125 430.82666015625 L 638.3942260742188 430.59796142578125 L 650.435302734375 430.3745422363281 L 662.7544555664062 430.1571960449219 L 675.388916015625 429.94671630859375 L 688.3756713867188 429.7439880371094 L 701.7518920898438 429.54974365234375 L 715.5545654296875 429.36480712890625 L 729.8208618164062 429.1900329589844 L 744.5878295898438 429.02618408203125 L 759.892578125 428.8741149902344 L 775.7721557617188 428.7345886230469 L 792.263671875 428.60845947265625 L 809.4042358398438 428.4964904785156 L 827.2308959960938 428.3995361328125 L 845.7808227539062 428.31842041015625 L 865.0910034179688 428.2538757324219 L 885.1985473632812 428.206787109375 L 906.1405639648438 428.1779479980469 L 927.9541015625 428.16815185546875 L 927.9541015625 428.16815185546875 L 927.9541015625 367.7889709472656 L 927.9541015625 367.7889709472656 L 906.1405639648438 367.79876708984375 L 885.1985473632812 367.8276062011719 L 865.0910034179688 367.87469482421875 L 845.7808227539062 367.939208984375 L 827.2308959960938 368.0203552246094 L 809.4042358398438 368.1173095703125 L 792.263671875 368.2292785644531 L 775.7721557617188 368.35540771484375 L 759.892578125 368.49493408203125 L 744.5878295898438 368.6470031738281 L 729.8208618164062 368.81085205078125 L 715.5545654296875 368.9856262207031 L 701.7518920898438 369.1705322265625 L 688.3756713867188 369.3647766113281 L 675.388916015625 369.5675354003906 L 662.7544555664062 369.7779846191406 L 650.435302734375 369.9953308105469 L 638.3942260742188 370.2187805175781 L 626.59423828125 370.4474792480469 L 614.998291015625 370.6806335449219 L 603.5691528320312 370.9174499511719 L 592.2698974609375 371.1570739746094 L 581.0632934570312 371.39874267578125 L 569.912353515625 371.6416320800781 L 558.7799682617188 371.8849182128906 L 547.6290283203125 372.1278076171875 L 536.4224243164062 372.3694763183594 L 525.1231079101562 372.609130859375 L 513.6940307617188 372.845947265625 L 502.0980529785156 373.0791015625 L 490.2980651855469 373.30780029296875 L 478.25701904296875 373.5312194824219 L 465.9378356933594 373.7485656738281 L 453.3033752441406 373.95904541015625 L 440.3166198730469 374.1617736816406 L 426.9404296875 374.35601806640625 L 413.1377258300781 374.54095458984375 L 398.8714294433594 374.7157287597656 L 384.1044921875 374.87957763671875 L 368.79974365234375 375.0316467285156 L 352.920166015625 375.1711730957031 L 336.4286193847656 375.29730224609375 L 319.2880554199219 375.4092712402344 L 301.4613952636719 375.5062255859375 L 282.9114990234375 375.58734130859375 L 263.601318359375 375.6518859863281 L 243.4937744140625 375.698974609375 L 222.5517578125 375.7278137207031 L 200.73818969726562 375.73760986328125 Z" fill-opacity="0.6" clip-path="url(#WONTTEDTRacn)" stroke-opacity="1" stroke-linejoin="bevel" stroke-miterlimit="10" stroke-width="0.8" stroke-dasharray=""/><path fill="rgb(255,152,150)" stroke="rgb(255,152,150)" paint-order="fill" d="M 200.73818969726562 315.3584289550781 L 200.73818969726562 375.73760986328125 L 200.73818969726562 375.73760986328125 L 222.5517578125 375.72259521484375 L 243.4937744140625 375.67840576171875 L 263.601318359375 375.60626220703125 L 282.9114990234375 375.5074157714844 L 301.4613952636719 375.3830871582031 L 319.2880554199219 375.23455810546875 L 336.4286193847656 375.06304931640625 L 352.920166015625 374.8697814941406 L 368.79974365234375 374.6560363769531 L 384.1044921875 374.42303466796875 L 398.8714294433594 374.1720275878906 L 413.1377258300781 373.9042663574219 L 426.9404296875 373.6209411621094 L 440.3166198730469 373.3233642578125 L 453.3033752441406 373.0127258300781 L 465.9378356933594 372.6903076171875 L 478.25701904296875 372.3573303222656 L 490.2980651855469 372.0150146484375 L 502.0980529785156 371.6646423339844 L 513.6940307617188 371.30743408203125 L 525.1231079101562 370.9446105957031 L 536.4224243164062 370.5774841308594 L 547.6290283203125 370.20721435546875 L 558.7799682617188 369.8351135253906 L 569.912353515625 369.4623718261719 L 581.0632934570312 369.09027099609375 L 592.2698974609375 368.7200012207031 L 603.5691528320312 368.35284423828125 L 614.998291015625 367.99005126953125 L 626.59423828125 367.6328430175781 L 638.3942260742188 367.282470703125 L 650.435302734375 366.9401550292969 L 662.7544555664062 366.607177734375 L 675.388916015625 366.2847595214844 L 688.3756713867188 365.97412109375 L 701.7518920898438 365.676513671875 L 715.5545654296875 365.3932189941406 L 729.8208618164062 365.1254577636719 L 744.5878295898438 364.8744201660156 L 759.892578125 364.6414489746094 L 775.7721557617188 364.4277038574219 L 792.263671875 364.23443603515625 L 809.4042358398438 364.06292724609375 L 827.2308959960938 363.9143981933594 L 845.7808227539062 363.7900695800781 L 865.0910034179688 363.69122314453125 L 885.1985473632812 363.61907958984375 L 906.1405639648438 363.57489013671875 L 927.9541015625 363.55987548828125 L 927.9541015625 363.55987548828125 L 927.9541015625 303.1806640625 L 927.9541015625 303.1806640625 L 906.1405639648438 303.1956787109375 L 885.1985473632812 303.2398986816406 L 865.0910034179688 303.3120422363281 L 845.7808227539062 303.410888671875 L 827.2308959960938 303.5351867675781 L 809.4042358398438 303.6837463378906 L 792.263671875 303.8552551269531 L 775.7721557617188 304.0484924316406 L 759.892578125 304.2622375488281 L 744.5878295898438 304.4952392578125 L 729.8208618164062 304.7462463378906 L 715.5545654296875 305.0140380859375 L 701.7518920898438 305.2973327636719 L 688.3756713867188 305.5949401855469 L 675.388916015625 305.9055480957031 L 662.7544555664062 306.2279968261719 L 650.435302734375 306.56097412109375 L 638.3942260742188 306.9032897949219 L 626.59423828125 307.253662109375 L 614.998291015625 307.6108703613281 L 603.5691528320312 307.9736633300781 L 592.2698974609375 308.3408203125 L 581.0632934570312 308.7110595703125 L 569.912353515625 309.08319091796875 L 558.7799682617188 309.4559326171875 L 547.6290283203125 309.8280334472656 L 536.4224243164062 310.1982727050781 L 525.1231079101562 310.5654296875 L 513.6940307617188 310.92822265625 L 502.0980529785156 311.2854309082031 L 490.2980651855469 311.6358337402344 L 478.25701904296875 311.9781188964844 L 465.9378356933594 312.3111267089844 L 453.3033752441406 312.633544921875 L 440.3166198730469 312.9441833496094 L 426.9404296875 313.24176025390625 L 413.1377258300781 313.5250549316406 L 398.8714294433594 313.7928466796875 L 384.1044921875 314.0438537597656 L 368.79974365234375 314.27685546875 L 352.920166015625 314.4906005859375 L 336.4286193847656 314.6838684082031 L 319.2880554199219 314.8553771972656 L 301.4613952636719 315.00390625 L 282.9114990234375 315.1282043457031 L 263.601318359375 315.2270812988281 L 243.4937744140625 315.2992248535156 L 222.5517578125 315.3434143066406 L 200.73818969726562 315.3584289550781 Z" fill-opacity="0.6" clip-path="url(#WONTTEDTRacn)" stroke-opacity="1" stroke-linejoin="bevel" stroke-miterlimit="10" stroke-width="0.8" stroke-dasharray=""/><path fill="rgb(148,103,189)" stroke="rgb(148,103,189)" paint-order="fill" d="M 200.73818969726562 267.0550842285156 L 200.73818969726562 315.3584289550781 L 200.73818969726562 315.3584289550781 L 222.5517578125 315.33819580078125 L 243.4937744140625 315.2786560058594 L 263.601318359375 315.18145751953125 L 282.9114990234375 315.04827880859375 L 301.4613952636719 314.88079833984375 L 319.2880554199219 314.6806640625 L 336.4286193847656 314.4495849609375 L 352.920166015625 314.1892395019531 L 368.79974365234375 313.9012451171875 L 384.1044921875 313.58734130859375 L 398.8714294433594 313.2491455078125 L 413.1377258300781 312.88836669921875 L 426.9404296875 312.5066833496094 L 440.3166198730469 312.1057434082031 L 453.3033752441406 311.687255859375 L 465.9378356933594 311.2528381347656 L 478.25701904296875 310.8042297363281 L 490.2980651855469 310.3430480957031 L 502.0980529785156 309.8709716796875 L 513.6940307617188 309.38970947265625 L 525.1231079101562 308.9009094238281 L 536.4224243164062 308.4062805175781 L 547.6290283203125 307.9074401855469 L 558.7799682617188 307.4060974121094 L 569.912353515625 306.9039001464844 L 581.0632934570312 306.4025573730469 L 592.2698974609375 305.90374755859375 L 603.5691528320312 305.4090881347656 L 614.998291015625 304.9202880859375 L 626.59423828125 304.43902587890625 L 638.3942260742188 303.96697998046875 L 650.435302734375 303.50579833984375 L 662.7544555664062 303.0571594238281 L 675.388916015625 302.6227722167969 L 688.3756713867188 302.2042541503906 L 701.7518920898438 301.8033142089844 L 715.5545654296875 301.421630859375 L 729.8208618164062 301.06085205078125 L 744.5878295898438 300.7226867675781 L 759.892578125 300.40875244140625 L 775.7721557617188 300.12078857421875 L 792.263671875 299.86041259765625 L 809.4042358398438 299.62933349609375 L 827.2308959960938 299.4292297363281 L 845.7808227539062 299.2617492675781 L 865.0910034179688 299.1285705566406 L 885.1985473632812 299.0313720703125 L 906.1405639648438 298.9718017578125 L 927.9541015625 298.95159912109375 L 927.9541015625 298.95159912109375 L 927.9541015625 250.6482391357422 L 927.9541015625 250.6482391357422 L 906.1405639648438 250.66845703125 L 885.1985473632812 250.72801208496094 L 865.0910034179688 250.82521057128906 L 845.7808227539062 250.95838928222656 L 827.2308959960938 251.12586975097656 L 809.4042358398438 251.32598876953125 L 792.263671875 251.55706787109375 L 775.7721557617188 251.8174285888672 L 759.892578125 252.10540771484375 L 744.5878295898438 252.41932678222656 L 729.8208618164062 252.75750732421875 L 715.5545654296875 253.11827087402344 L 701.7518920898438 253.49996948242188 L 688.3756713867188 253.90090942382812 L 675.388916015625 254.3194122314453 L 662.7544555664062 254.75381469726562 L 650.435302734375 255.2024383544922 L 638.3942260742188 255.6636199951172 L 626.59423828125 256.13568115234375 L 614.998291015625 256.616943359375 L 603.5691528320312 257.1057434082031 L 592.2698974609375 257.6003723144531 L 581.0632934570312 258.0992126464844 L 569.912353515625 258.6005554199219 L 558.7799682617188 259.1027526855469 L 547.6290283203125 259.6040954589844 L 536.4224243164062 260.1029357910156 L 525.1231079101562 260.5975646972656 L 513.6940307617188 261.08636474609375 L 502.0980529785156 261.567626953125 L 490.2980651855469 262.0396728515625 L 478.25701904296875 262.5008544921875 L 465.9378356933594 262.9494934082031 L 453.3033752441406 263.3839111328125 L 440.3166198730469 263.8023986816406 L 426.9404296875 264.2033386230469 L 413.1377258300781 264.58502197265625 L 398.8714294433594 264.94580078125 L 384.1044921875 265.28399658203125 L 368.79974365234375 265.597900390625 L 352.920166015625 265.8858642578125 L 336.4286193847656 266.146240234375 L 319.2880554199219 266.3773193359375 L 301.4613952636719 266.5774230957031 L 282.9114990234375 266.74493408203125 L 263.601318359375 266.87811279296875 L 243.4937744140625 266.9753112792969 L 222.5517578125 267.03485107421875 L 200.73818969726562 267.0550842285156 Z" fill-opacity="0.6" clip-path="url(#WONTTEDTRacn)" stroke-opacity="1" stroke-linejoin="bevel" stroke-miterlimit="10" stroke-width="0.8" stroke-dasharray=""/><path fill="rgb(197,176,213)" stroke="rgb(197,176,213)" paint-order="fill" d="M 200.73818969726562 218.75172424316406 L 200.73818969726562 267.0550842285156 L 200.73818969726562 267.0550842285156 L 222.5517578125 267.0296325683594 L 243.4937744140625 266.9547424316406 L 263.601318359375 266.8324890136719 L 282.9114990234375 266.66497802734375 L 301.4613952636719 266.4543151855469 L 319.2880554199219 266.2026062011719 L 336.4286193847656 265.9119873046875 L 352.920166015625 265.5845031738281 L 368.79974365234375 265.2222900390625 L 384.1044921875 264.82745361328125 L 398.8714294433594 264.402099609375 L 413.1377258300781 263.9483337402344 L 426.9404296875 263.46826171875 L 440.3166198730469 262.9639892578125 L 453.3033752441406 262.4375915527344 L 465.9378356933594 261.8912353515625 L 478.25701904296875 261.32696533203125 L 490.2980651855469 260.74688720703125 L 502.0980529785156 260.1531677246094 L 513.6940307617188 259.5478515625 L 525.1231079101562 258.93304443359375 L 536.4224243164062 258.3109130859375 L 547.6290283203125 257.6835021972656 L 558.7799682617188 257.05291748046875 L 569.912353515625 256.4212951660156 L 581.0632934570312 255.7907257080078 L 592.2698974609375 255.16331481933594 L 603.5691528320312 254.54115295410156 L 614.998291015625 253.92637634277344 L 626.59423828125 253.32106018066406 L 638.3942260742188 252.72732543945312 L 650.435302734375 252.1472625732422 L 662.7544555664062 251.58299255371094 L 675.388916015625 251.03662109375 L 688.3756713867188 250.51023864746094 L 701.7518920898438 250.00595092773438 L 715.5545654296875 249.52587890625 L 729.8208618164062 249.07211303710938 L 744.5878295898438 248.64675903320312 L 759.892578125 248.25192260742188 L 775.7721557617188 247.8897247314453 L 792.263671875 247.56224060058594 L 809.4042358398438 247.2716064453125 L 827.2308959960938 247.0198974609375 L 845.7808227539062 246.80923461914062 L 865.0910034179688 246.64173889160156 L 885.1985473632812 246.51947021484375 L 906.1405639648438 246.444580078125 L 927.9541015625 246.4191436767578 L 927.9541015625 246.4191436767578 L 927.9541015625 198.1157989501953 L 927.9541015625 198.1157989501953 L 906.1405639648438 198.14122009277344 L 885.1985473632812 198.21612548828125 L 865.0910034179688 198.33837890625 L 845.7808227539062 198.50588989257812 L 827.2308959960938 198.716552734375 L 809.4042358398438 198.96824645996094 L 792.263671875 199.25889587402344 L 775.7721557617188 199.58636474609375 L 759.892578125 199.94857788085938 L 744.5878295898438 200.34339904785156 L 729.8208618164062 200.7687530517578 L 715.5545654296875 201.22251892089844 L 701.7518920898438 201.70260620117188 L 688.3756713867188 202.20687866210938 L 675.388916015625 202.73326110839844 L 662.7544555664062 203.27964782714844 L 650.435302734375 203.8439178466797 L 638.3942260742188 204.42396545410156 L 626.59423828125 205.0177001953125 L 614.998291015625 205.62301635742188 L 603.5691528320312 206.23780822753906 L 592.2698974609375 206.85995483398438 L 581.0632934570312 207.48736572265625 L 569.912353515625 208.11795043945312 L 558.7799682617188 208.74957275390625 L 547.6290283203125 209.38014221191406 L 536.4224243164062 210.00755310058594 L 525.1231079101562 210.6297149658203 L 513.6940307617188 211.24449157714844 L 502.0980529785156 211.8498077392578 L 490.2980651855469 212.44354248046875 L 478.25701904296875 213.0236053466797 L 465.9378356933594 213.58787536621094 L 453.3033752441406 214.13424682617188 L 440.3166198730469 214.66062927246094 L 426.9404296875 215.1649169921875 L 413.1377258300781 215.64498901367188 L 398.8714294433594 216.0987548828125 L 384.1044921875 216.52410888671875 L 368.79974365234375 216.9189453125 L 352.920166015625 217.28114318847656 L 336.4286193847656 217.60862731933594 L 319.2880554199219 217.89926147460938 L 301.4613952636719 218.15097045898438 L 282.9114990234375 218.3616180419922 L 263.601318359375 218.5291290283203 L 243.4937744140625 218.65138244628906 L 222.5517578125 218.72628784179688 L 200.73818969726562 218.75172424316406 Z" fill-opacity="0.6" clip-path="url(#WONTTEDTRacn)" stroke-opacity="1" stroke-linejoin="bevel" stroke-miterlimit="10" stroke-width="0.8" stroke-dasharray=""/><path fill="rgb(140,86,75)" stroke="rgb(140,86,75)" paint-order="fill" d="M 200.73818969726562 182.52420043945312 L 200.73818969726562 218.75172424316406 L 200.73818969726562 218.75172424316406 L 222.5517578125 218.7210693359375 L 243.4937744140625 218.63082885742188 L 263.601318359375 218.4835205078125 L 282.9114990234375 218.28167724609375 L 301.4613952636719 218.02784729003906 L 319.2880554199219 217.7245635986328 L 336.4286193847656 217.37435913085938 L 352.920166015625 216.97976684570312 L 368.79974365234375 216.5433349609375 L 384.1044921875 216.0675811767578 L 398.8714294433594 215.55506896972656 L 413.1377258300781 215.00830078125 L 426.9404296875 214.42984008789062 L 440.3166198730469 213.82220458984375 L 453.3033752441406 213.18795776367188 L 465.9378356933594 212.52960205078125 L 478.25701904296875 211.8496856689453 L 490.2980651855469 211.1507568359375 L 502.0980529785156 210.4353485107422 L 513.6940307617188 209.7059783935547 L 525.1231079101562 208.96519470214844 L 536.4224243164062 208.21554565429688 L 547.6290283203125 207.4595489501953 L 558.7799682617188 206.6997528076172 L 569.912353515625 205.9386749267578 L 581.0632934570312 205.1788787841797 L 592.2698974609375 204.42288208007812 L 603.5691528320312 203.67323303222656 L 614.998291015625 202.9324493408203 L 626.59423828125 202.2030792236328 L 638.3942260742188 201.4876708984375 L 650.435302734375 200.78872680664062 L 662.7544555664062 200.10882568359375 L 675.388916015625 199.45046997070312 L 688.3756713867188 198.8162078857422 L 701.7518920898438 198.20858764648438 L 715.5545654296875 197.630126953125 L 729.8208618164062 197.08335876464844 L 744.5878295898438 196.57083129882812 L 759.892578125 196.0950927734375 L 775.7721557617188 195.65866088867188 L 792.263671875 195.26406860351562 L 809.4042358398438 194.9138641357422 L 827.2308959960938 194.61058044433594 L 845.7808227539062 194.35675048828125 L 865.0910034179688 194.1549072265625 L 885.1985473632812 194.00759887695312 L 906.1405639648438 193.91734313964844 L 927.9541015625 193.88670349121094 L 927.9541015625 193.88670349121094 L 927.9541015625 157.65919494628906 L 927.9541015625 157.65919494628906 L 906.1405639648438 157.68983459472656 L 885.1985473632812 157.7800750732422 L 865.0910034179688 157.92739868164062 L 845.7808227539062 158.1292266845703 L 827.2308959960938 158.383056640625 L 809.4042358398438 158.68634033203125 L 792.263671875 159.0365447998047 L 775.7721557617188 159.43113708496094 L 759.892578125 159.86758422851562 L 744.5878295898438 160.34332275390625 L 729.8208618164062 160.85585021972656 L 715.5545654296875 161.40260314941406 L 701.7518920898438 161.98106384277344 L 688.3756713867188 162.5886993408203 L 675.388916015625 163.22296142578125 L 662.7544555664062 163.8813018798828 L 650.435302734375 164.56121826171875 L 638.3942260742188 165.26014709472656 L 626.59423828125 165.97557067871094 L 614.998291015625 166.70494079589844 L 603.5691528320312 167.44570922851562 L 592.2698974609375 168.19537353515625 L 581.0632934570312 168.9513702392578 L 569.912353515625 169.71116638183594 L 558.7799682617188 170.47222900390625 L 547.6290283203125 171.23202514648438 L 536.4224243164062 171.98802185058594 L 525.1231079101562 172.73768615722656 L 513.6940307617188 173.47845458984375 L 502.0980529785156 174.20782470703125 L 490.2980651855469 174.92324829101562 L 478.25701904296875 175.62217712402344 L 465.9378356933594 176.30209350585938 L 453.3033752441406 176.96043395996094 L 440.3166198730469 177.59469604492188 L 426.9404296875 178.20233154296875 L 413.1377258300781 178.78079223632812 L 398.8714294433594 179.32754516601562 L 384.1044921875 179.84007263183594 L 368.79974365234375 180.31581115722656 L 352.920166015625 180.75225830078125 L 336.4286193847656 181.1468505859375 L 319.2880554199219 181.49705505371094 L 301.4613952636719 181.8003387451172 L 282.9114990234375 182.05416870117188 L 263.601318359375 182.25599670410156 L 243.4937744140625 182.4033203125 L 222.5517578125 182.49356079101562 L 200.73818969726562 182.52420043945312 Z" fill-opacity="0.6" clip-path="url(#WONTTEDTRacn)" stroke-opacity="1" stroke-linejoin="bevel" stroke-miterlimit="10" stroke-width="0.8" stroke-dasharray=""/><path fill="rgb(196,156,148)" stroke="rgb(196,156,148)" paint-order="fill" d="M 200.73818969726562 158.37252807617188 L 200.73818969726562 182.52420043945312 L 200.73818969726562 182.52420043945312 L 222.5517578125 182.48834228515625 L 243.4937744140625 182.38275146484375 L 263.601318359375 182.21038818359375 L 282.9114990234375 181.97421264648438 L 301.4613952636719 181.67721557617188 L 319.2880554199219 181.3223419189453 L 336.4286193847656 180.91258239746094 L 352.920166015625 180.4508819580078 L 368.79974365234375 179.94021606445312 L 384.1044921875 179.383544921875 L 398.8714294433594 178.7838592529297 L 413.1377258300781 178.14410400390625 L 426.9404296875 177.46725463867188 L 440.3166198730469 176.7562713623047 L 453.3033752441406 176.01414489746094 L 465.9378356933594 175.2438201904297 L 478.25701904296875 174.44827270507812 L 490.2980651855469 173.63046264648438 L 502.0980529785156 172.79336547851562 L 513.6940307617188 171.93994140625 L 525.1231079101562 171.0731658935547 L 536.4224243164062 170.19601440429688 L 547.6290283203125 169.31143188476562 L 558.7799682617188 168.4224090576172 L 569.912353515625 167.53189086914062 L 581.0632934570312 166.6428680419922 L 592.2698974609375 165.75828552246094 L 603.5691528320312 164.88113403320312 L 614.998291015625 164.0143585205078 L 626.59423828125 163.16094970703125 L 638.3942260742188 162.3238525390625 L 650.435302734375 161.50604248046875 L 662.7544555664062 160.7104949951172 L 675.388916015625 159.94015502929688 L 688.3756713867188 159.19802856445312 L 701.7518920898438 158.48704528808594 L 715.5545654296875 157.81019592285156 L 729.8208618164062 157.17044067382812 L 744.5878295898438 156.5707550048828 L 759.892578125 156.01409912109375 L 775.7721557617188 155.50343322753906 L 792.263671875 155.04173278808594 L 809.4042358398438 154.6319580078125 L 827.2308959960938 154.27708435058594 L 845.7808227539062 153.98008728027344 L 865.0910034179688 153.74391174316406 L 885.1985473632812 153.57154846191406 L 906.1405639648438 153.46595764160156 L 927.9541015625 153.4300994873047 L 927.9541015625 153.4300994873047 L 927.9541015625 129.27842712402344 L 927.9541015625 129.27842712402344 L 906.1405639648438 129.3142852783203 L 885.1985473632812 129.4198760986328 L 865.0910034179688 129.5922393798828 L 845.7808227539062 129.8284149169922 L 827.2308959960938 130.1254119873047 L 809.4042358398438 130.48028564453125 L 792.263671875 130.89004516601562 L 775.7721557617188 131.35174560546875 L 759.892578125 131.86241149902344 L 744.5878295898438 132.41908264160156 L 729.8208618164062 133.01876831054688 L 715.5545654296875 133.6585235595703 L 701.7518920898438 134.3353729248047 L 688.3756713867188 135.04635620117188 L 675.388916015625 135.78848266601562 L 662.7544555664062 136.55880737304688 L 650.435302734375 137.3543701171875 L 638.3942260742188 138.1721649169922 L 626.59423828125 139.00926208496094 L 614.998291015625 139.86268615722656 L 603.5691528320312 140.72946166992188 L 592.2698974609375 141.6066131591797 L 581.0632934570312 142.49119567871094 L 569.912353515625 143.38021850585938 L 558.7799682617188 144.27073669433594 L 547.6290283203125 145.15975952148438 L 536.4224243164062 146.04434204101562 L 525.1231079101562 146.92149353027344 L 513.6940307617188 147.78826904296875 L 502.0980529785156 148.64169311523438 L 490.2980651855469 149.47879028320312 L 478.25701904296875 150.2965850830078 L 465.9378356933594 151.09214782714844 L 453.3033752441406 151.8624725341797 L 440.3166198730469 152.60459899902344 L 426.9404296875 153.31558227539062 L 413.1377258300781 153.992431640625 L 398.8714294433594 154.63218688964844 L 384.1044921875 155.23187255859375 L 368.79974365234375 155.7885284423828 L 352.920166015625 156.2991943359375 L 336.4286193847656 156.7609100341797 L 319.2880554199219 157.17066955566406 L 301.4613952636719 157.52554321289062 L 282.9114990234375 157.82254028320312 L 263.601318359375 158.0587158203125 L 243.4937744140625 158.2310791015625 L 222.5517578125 158.336669921875 L 200.73818969726562 158.37252807617188 Z" fill-opacity="0.6" clip-path="url(#WONTTEDTRacn)" stroke-opacity="1" stroke-linejoin="bevel" stroke-miterlimit="10" stroke-width="0.8" stroke-dasharray=""/><path fill="rgb(227,119,194)" stroke="rgb(227,119,194)" paint-order="fill" d="M 200.73818969726562 146.29669189453125 L 200.73818969726562 158.37252807617188 L 200.73818969726562 158.37252807617188 L 222.5517578125 158.3314666748047 L 243.4937744140625 158.21051025390625 L 263.601318359375 158.01309204101562 L 282.9114990234375 157.7425994873047 L 301.4613952636719 157.4024200439453 L 319.2880554199219 156.9959716796875 L 336.4286193847656 156.52664184570312 L 352.920166015625 155.99781799316406 L 368.79974365234375 155.41293334960938 L 384.1044921875 154.7753448486328 L 398.8714294433594 154.08848571777344 L 413.1377258300781 153.35574340820312 L 426.9404296875 152.58050537109375 L 440.3166198730469 151.76617431640625 L 453.3033752441406 150.91616821289062 L 465.9378356933594 150.03387451171875 L 478.25701904296875 149.1226806640625 L 490.2980651855469 148.1859893798828 L 502.0980529785156 147.2272186279297 L 513.6940307617188 146.249755859375 L 525.1231079101562 145.25698852539062 L 536.4224243164062 144.2523193359375 L 547.6290283203125 143.23916625976562 L 558.7799682617188 142.22091674804688 L 569.912353515625 141.20095825195312 L 581.0632934570312 140.1826934814453 L 592.2698974609375 139.16954040527344 L 603.5691528320312 138.1648712158203 L 614.998291015625 137.17210388183594 L 626.59423828125 136.19464111328125 L 638.3942260742188 135.23587036132812 L 650.435302734375 134.29917907714844 L 662.7544555664062 133.3879852294922 L 675.388916015625 132.5056915283203 L 688.3756713867188 131.6556854248047 L 701.7518920898438 130.8413543701172 L 715.5545654296875 130.0661163330078 L 729.8208618164062 129.3333740234375 L 744.5878295898438 128.64651489257812 L 759.892578125 128.0089340209961 L 775.7721557617188 127.42403411865234 L 792.263671875 126.89522552490234 L 809.4042358398438 126.42588806152344 L 827.2308959960938 126.01943969726562 L 845.7808227539062 125.67926025390625 L 865.0910034179688 125.40876770019531 L 885.1985473632812 125.21134948730469 L 906.1405639648438 125.09040069580078 L 927.9541015625 125.04933166503906 L 927.9541015625 125.04933166503906 L 927.9541015625 112.97349548339844 L 927.9541015625 112.97349548339844 L 906.1405639648438 113.01456451416016 L 885.1985473632812 113.13550567626953 L 865.0910034179688 113.33293151855469 L 845.7808227539062 113.60342407226562 L 827.2308959960938 113.94359588623047 L 809.4042358398438 114.35005187988281 L 792.263671875 114.81938171386719 L 775.7721557617188 115.34819793701172 L 759.892578125 115.93309783935547 L 744.5878295898438 116.57067108154297 L 729.8208618164062 117.25753784179688 L 715.5545654296875 117.99028778076172 L 701.7518920898438 118.76551818847656 L 688.3756713867188 119.57984161376953 L 675.388916015625 120.42985534667969 L 662.7544555664062 121.3121566772461 L 650.435302734375 122.22334289550781 L 638.3942260742188 123.16002655029297 L 626.59423828125 124.11880493164062 L 614.998291015625 125.09627532958984 L 603.5691528320312 126.08903503417969 L 592.2698974609375 127.09369659423828 L 581.0632934570312 128.1068572998047 L 569.912353515625 129.1251220703125 L 558.7799682617188 130.1450653076172 L 547.6290283203125 131.163330078125 L 536.4224243164062 132.17648315429688 L 525.1231079101562 133.18115234375 L 513.6940307617188 134.17391967773438 L 502.0980529785156 135.15138244628906 L 490.2980651855469 136.1101531982422 L 478.25701904296875 137.04684448242188 L 465.9378356933594 137.95803833007812 L 453.3033752441406 138.84033203125 L 440.3166198730469 139.69033813476562 L 426.9404296875 140.50466918945312 L 413.1377258300781 141.2799072265625 L 398.8714294433594 142.0126495361328 L 384.1044921875 142.6995086669922 L 368.79974365234375 143.33709716796875 L 352.920166015625 143.92198181152344 L 336.4286193847656 144.4508056640625 L 319.2880554199219 144.92013549804688 L 301.4613952636719 145.3265838623047 L 282.9114990234375 145.66676330566406 L 263.601318359375 145.937255859375 L 243.4937744140625 146.13467407226562 L 222.5517578125 146.255615234375 L 200.73818969726562 146.29669189453125 Z" fill-opacity="0.6" clip-path="url(#WONTTEDTRacn)" stroke-opacity="1" stroke-linejoin="bevel" stroke-miterlimit="10" stroke-width="0.8" stroke-dasharray=""/><path fill="rgb(247,182,210)" stroke="rgb(247,182,210)" paint-order="fill" d="M 200.73818969726562 134.22085571289062 L 200.73818969726562 146.29669189453125 L 200.73818969726562 146.29669189453125 L 222.5517578125 146.2504119873047 L 243.4937744140625 146.11412048339844 L 263.601318359375 145.8916473388672 L 282.9114990234375 145.58682250976562 L 301.4613952636719 145.20347595214844 L 319.2880554199219 144.7454376220703 L 336.4286193847656 144.21653747558594 L 352.920166015625 143.62060546875 L 368.79974365234375 142.96148681640625 L 384.1044921875 142.2429962158203 L 398.8714294433594 141.4689483642578 L 413.1377258300781 140.64321899414062 L 426.9404296875 139.76959228515625 L 440.3166198730469 138.8519287109375 L 453.3033752441406 137.89404296875 L 465.9378356933594 136.89976501464844 L 478.25701904296875 135.8729248046875 L 490.2980651855469 134.81736755371094 L 502.0980529785156 133.73692321777344 L 513.6940307617188 132.63539123535156 L 525.1231079101562 131.51663208007812 L 536.4224243164062 130.3844757080078 L 547.6290283203125 129.24273681640625 L 558.7799682617188 128.09524536132812 L 569.912353515625 126.94584655761719 L 581.0632934570312 125.7983627319336 L 592.2698974609375 124.65662384033203 L 603.5691528320312 123.52445983886719 L 614.998291015625 122.40570068359375 L 626.59423828125 121.3041763305664 L 638.3942260742188 120.22372436523438 L 650.435302734375 119.16816711425781 L 662.7544555664062 118.1413345336914 L 675.388916015625 117.14705657958984 L 688.3756713867188 116.18917083740234 L 701.7518920898438 115.27149963378906 L 715.5545654296875 114.39788055419922 L 729.8208618164062 113.57213592529297 L 744.5878295898438 112.79810333251953 L 759.892578125 112.0796127319336 L 775.7721557617188 111.42048645019531 L 792.263671875 110.8245620727539 L 809.4042358398438 110.29566192626953 L 827.2308959960938 109.8376235961914 L 845.7808227539062 109.45427703857422 L 865.0910034179688 109.14945220947266 L 885.1985473632812 108.9269790649414 L 906.1405639648438 108.79068756103516 L 927.9541015625 108.74440002441406 L 927.9541015625 108.74440002441406 L 927.9541015625 96.66856384277344 L 927.9541015625 96.66856384277344 L 906.1405639648438 96.71485137939453 L 885.1985473632812 96.85114288330078 L 865.0910034179688 97.07361602783203 L 845.7808227539062 97.3784408569336 L 827.2308959960938 97.76178741455078 L 809.4042358398438 98.2198257446289 L 792.263671875 98.74871826171875 L 775.7721557617188 99.34465026855469 L 759.892578125 100.00377655029297 L 744.5878295898438 100.7222671508789 L 729.8208618164062 101.49629974365234 L 715.5545654296875 102.3220443725586 L 701.7518920898438 103.19566345214844 L 688.3756713867188 104.11333465576172 L 675.388916015625 105.07122039794922 L 662.7544555664062 106.06549835205078 L 650.435302734375 107.09232330322266 L 638.3942260742188 108.14788818359375 L 626.59423828125 109.22834014892578 L 614.998291015625 110.32986450195312 L 603.5691528320312 111.44862365722656 L 592.2698974609375 112.5807876586914 L 581.0632934570312 113.72252655029297 L 569.912353515625 114.87001037597656 L 558.7799682617188 116.0194091796875 L 547.6290283203125 117.1668930053711 L 536.4224243164062 118.30863189697266 L 525.1231079101562 119.4407958984375 L 513.6940307617188 120.55955505371094 L 502.0980529785156 121.66107940673828 L 490.2980651855469 122.74153137207031 L 478.25701904296875 123.7970962524414 L 465.9378356933594 124.82392120361328 L 453.3033752441406 125.81819915771484 L 440.3166198730469 126.77608489990234 L 426.9404296875 127.69375610351562 L 413.1377258300781 128.5673828125 L 398.8714294433594 129.3931121826172 L 384.1044921875 130.16714477539062 L 368.79974365234375 130.88565063476562 L 352.920166015625 131.54476928710938 L 336.4286193847656 132.1407012939453 L 319.2880554199219 132.6696014404297 L 301.4613952636719 133.12762451171875 L 282.9114990234375 133.51097106933594 L 263.601318359375 133.8157958984375 L 243.4937744140625 134.0382843017578 L 222.5517578125 134.17457580566406 L 200.73818969726562 134.22085571289062 Z" fill-opacity="0.6" clip-path="url(#WONTTEDTRacn)" stroke-opacity="1" stroke-linejoin="bevel" stroke-miterlimit="10" stroke-width="0.8" stroke-dasharray=""/><path fill="rgb(127,127,127)" stroke="rgb(127,127,127)" paint-order="fill" d="M 200.73818969726562 122.14501953125 L 200.73818969726562 134.22085571289062 L 200.73818969726562 134.22085571289062 L 222.5517578125 134.1693572998047 L 243.4937744140625 134.01771545410156 L 263.601318359375 133.7701873779297 L 282.9114990234375 133.4310302734375 L 301.4613952636719 133.0045166015625 L 319.2880554199219 132.49488830566406 L 336.4286193847656 131.90643310546875 L 352.920166015625 131.24339294433594 L 368.79974365234375 130.51004028320312 L 384.1044921875 129.71063232421875 L 398.8714294433594 128.84942626953125 L 413.1377258300781 127.9306869506836 L 426.9404296875 126.95867919921875 L 440.3166198730469 125.93766784667969 L 453.3033752441406 124.87190246582031 L 465.9378356933594 123.76565551757812 L 478.25701904296875 122.62318420410156 L 490.2980651855469 121.44874572753906 L 502.0980529785156 120.24661254882812 L 513.6940307617188 119.02104187011719 L 525.1231079101562 117.77629089355469 L 536.4224243164062 116.5166244506836 L 547.6290283203125 115.24629974365234 L 558.7799682617188 113.96958923339844 L 569.912353515625 112.69074249267578 L 581.0632934570312 111.41403198242188 L 592.2698974609375 110.14370727539062 L 603.5691528320312 108.88404083251953 L 614.998291015625 107.63928985595703 L 626.59423828125 106.4137191772461 L 638.3942260742188 105.21157836914062 L 650.435302734375 104.03714752197266 L 662.7544555664062 102.8946762084961 L 675.388916015625 101.7884292602539 L 688.3756713867188 100.72266387939453 L 701.7518920898438 99.70164489746094 L 715.5545654296875 98.7296371459961 L 729.8208618164062 97.81090545654297 L 744.5878295898438 96.94969940185547 L 759.892578125 96.1502914428711 L 775.7721557617188 95.41693115234375 L 792.263671875 94.75389099121094 L 809.4042358398438 94.16543579101562 L 827.2308959960938 93.65581512451172 L 845.7808227539062 93.22929382324219 L 865.0910034179688 92.89014434814453 L 885.1985473632812 92.64260864257812 L 906.1405639648438 92.490966796875 L 927.9541015625 92.4394760131836 L 927.9541015625 92.4394760131836 L 927.9541015625 80.36363983154297 L 927.9541015625 80.36363983154297 L 906.1405639648438 80.41513061523438 L 885.1985473632812 80.5667724609375 L 865.0910034179688 80.81430053710938 L 845.7808227539062 81.15345764160156 L 827.2308959960938 81.5799789428711 L 809.4042358398438 82.089599609375 L 792.263671875 82.67805480957031 L 775.7721557617188 83.34109497070312 L 759.892578125 84.07444763183594 L 744.5878295898438 84.87386322021484 L 729.8208618164062 85.73506927490234 L 715.5545654296875 86.65380096435547 L 701.7518920898438 87.62580871582031 L 688.3756713867188 88.6468276977539 L 675.388916015625 89.71258544921875 L 662.7544555664062 90.81884002685547 L 650.435302734375 91.96131134033203 L 638.3942260742188 93.1357421875 L 626.59423828125 94.33787536621094 L 614.998291015625 95.5634536743164 L 603.5691528320312 96.8082046508789 L 592.2698974609375 98.06787109375 L 581.0632934570312 99.33818817138672 L 569.912353515625 100.61490631103516 L 558.7799682617188 101.89374542236328 L 547.6290283203125 103.17046356201172 L 536.4224243164062 104.44078063964844 L 525.1231079101562 105.70044708251953 L 513.6940307617188 106.94519805908203 L 502.0980529785156 108.1707763671875 L 490.2980651855469 109.37290954589844 L 478.25701904296875 110.54734802246094 L 465.9378356933594 111.6898193359375 L 453.3033752441406 112.79606628417969 L 440.3166198730469 113.86182403564453 L 426.9404296875 114.88284301757812 L 413.1377258300781 115.85485076904297 L 398.8714294433594 116.77359008789062 L 384.1044921875 117.6347885131836 L 368.79974365234375 118.4342041015625 L 352.920166015625 119.16755676269531 L 336.4286193847656 119.83059692382812 L 319.2880554199219 120.41905975341797 L 301.4613952636719 120.92867279052734 L 282.9114990234375 121.35519409179688 L 263.601318359375 121.69435119628906 L 243.4937744140625 121.94187927246094 L 222.5517578125 122.09352111816406 L 200.73818969726562 122.14501953125 Z" fill-opacity="0.6" clip-path="url(#WONTTEDTRacn)" stroke-opacity="1" stroke-linejoin="bevel" stroke-miterlimit="10" stroke-width="0.8" stroke-dasharray=""/><path fill="rgb(31,119,180)" stroke="rgb(0,0,0)" paint-order="fill" d="M 189.49258422851562 122.14501953125 L 200.73818969726562 122.14501953125 L 200.73818969726562 1124.4395751953125 L 189.49258422851562 1124.4395751953125 L 189.49258422851562 122.14501953125" fill-opacity="0.9019607843137255" clip-path="url(#xAhpFXHLQKbo)" stroke-opacity="0.2" stroke-linejoin="bevel" stroke-miterlimit="10" stroke-width="0.5" stroke-dasharray=""/><path fill="rgb(174,199,232)" stroke="rgb(0,0,0)" paint-order="fill" d="M 927.9541015625 775.3612060546875 L 939.19970703125 775.3612060546875 L 939.19970703125 1137.6363525390625 L 927.9541015625 1137.6363525390625 L 927.9541015625 775.3612060546875" fill-opacity="0.9019607843137255" clip-path="url(#xAhpFXHLQKbo)" stroke-opacity="0.2" stroke-linejoin="bevel" stroke-miterlimit="10" stroke-width="0.5" stroke-dasharray=""/><path fill="rgb(255,127,14)" stroke="rgb(0,0,0)" paint-order="fill" d="M 927.9541015625 662.4495849609375 L 939.19970703125 662.4495849609375 L 939.19970703125 771.1321411132812 L 927.9541015625 771.1321411132812 L 927.9541015625 662.4495849609375" fill-opacity="0.9019607843137255" clip-path="url(#xAhpFXHLQKbo)" stroke-opacity="0.2" stroke-linejoin="bevel" stroke-miterlimit="10" stroke-width="0.5" stroke-dasharray=""/><path fill="rgb(255,187,120)" stroke="rgb(0,0,0)" paint-order="fill" d="M 927.9541015625 573.6896362304688 L 939.19970703125 573.6896362304688 L 939.19970703125 658.2205200195312 L 927.9541015625 658.2205200195312 L 927.9541015625 573.6896362304688" fill-opacity="0.9019607843137255" clip-path="url(#xAhpFXHLQKbo)" stroke-opacity="0.2" stroke-linejoin="bevel" stroke-miterlimit="10" stroke-width="0.5" stroke-dasharray=""/><path fill="rgb(44,160,44)" stroke="rgb(0,0,0)" paint-order="fill" d="M 927.9541015625 497.0055236816406 L 939.19970703125 497.0055236816406 L 939.19970703125 569.4605712890625 L 927.9541015625 569.4605712890625 L 927.9541015625 497.0055236816406" fill-opacity="0.9019607843137255" clip-path="url(#xAhpFXHLQKbo)" stroke-opacity="0.2" stroke-linejoin="bevel" stroke-miterlimit="10" stroke-width="0.5" stroke-dasharray=""/><path fill="rgb(152,223,138)" stroke="rgb(0,0,0)" paint-order="fill" d="M 927.9541015625 432.3972473144531 L 939.19970703125 432.3972473144531 L 939.19970703125 492.77642822265625 L 927.9541015625 492.77642822265625 L 927.9541015625 432.3972473144531" fill-opacity="0.9019607843137255" clip-path="url(#xAhpFXHLQKbo)" stroke-opacity="0.2" stroke-linejoin="bevel" stroke-miterlimit="10" stroke-width="0.5" stroke-dasharray=""/><path fill="rgb(214,39,40)" stroke="rgb(0,0,0)" paint-order="fill" d="M 927.9541015625 367.7889709472656 L 939.19970703125 367.7889709472656 L 939.19970703125 428.16815185546875 L 927.9541015625 428.16815185546875 L 927.9541015625 367.7889709472656" fill-opacity="0.9019607843137255" clip-path="url(#xAhpFXHLQKbo)" stroke-opacity="0.2" stroke-linejoin="bevel" stroke-miterlimit="10" stroke-width="0.5" stroke-dasharray=""/><path fill="rgb(255,152,150)" stroke="rgb(0,0,0)" paint-order="fill" d="M 927.9541015625 303.1806640625 L 939.19970703125 303.1806640625 L 939.19970703125 363.55987548828125 L 927.9541015625 363.55987548828125 L 927.9541015625 303.1806640625" fill-opacity="0.9019607843137255" clip-path="url(#xAhpFXHLQKbo)" stroke-opacity="0.2" stroke-linejoin="bevel" stroke-miterlimit="10" stroke-width="0.5" stroke-dasharray=""/><path fill="rgb(148,103,189)" stroke="rgb(0,0,0)" paint-order="fill" d="M 927.9541015625 250.6482391357422 L 939.19970703125 250.6482391357422 L 939.19970703125 298.95159912109375 L 927.9541015625 298.95159912109375 L 927.9541015625 250.6482391357422" fill-opacity="0.9019607843137255" clip-path="url(#xAhpFXHLQKbo)" stroke-opacity="0.2" stroke-linejoin="bevel" stroke-miterlimit="10" stroke-width="0.5" stroke-dasharray=""/><path fill="rgb(197,176,213)" stroke="rgb(0,0,0)" paint-order="fill" d="M 927.9541015625 198.1157989501953 L 939.19970703125 198.1157989501953 L 939.19970703125 246.4191436767578 L 927.9541015625 246.4191436767578 L 927.9541015625 198.1157989501953" fill-opacity="0.9019607843137255" clip-path="url(#xAhpFXHLQKbo)" stroke-opacity="0.2" stroke-linejoin="bevel" stroke-miterlimit="10" stroke-width="0.5" stroke-dasharray=""/><path fill="rgb(140,86,75)" stroke="rgb(0,0,0)" paint-order="fill" d="M 927.9541015625 157.65919494628906 L 939.19970703125 157.65919494628906 L 939.19970703125 193.88670349121094 L 927.9541015625 193.88670349121094 L 927.9541015625 157.65919494628906" fill-opacity="0.9019607843137255" clip-path="url(#xAhpFXHLQKbo)" stroke-opacity="0.2" stroke-linejoin="bevel" stroke-miterlimit="10" stroke-width="0.5" stroke-dasharray=""/><path fill="rgb(196,156,148)" stroke="rgb(0,0,0)" paint-order="fill" d="M 927.9541015625 129.27842712402344 L 939.19970703125 129.27842712402344 L 939.19970703125 153.4300994873047 L 927.9541015625 153.4300994873047 L 927.9541015625 129.27842712402344" fill-opacity="0.9019607843137255" clip-path="url(#xAhpFXHLQKbo)" stroke-opacity="0.2" stroke-linejoin="bevel" stroke-miterlimit="10" stroke-width="0.5" stroke-dasharray=""/><path fill="rgb(227,119,194)" stroke="rgb(0,0,0)" paint-order="fill" d="M 927.9541015625 112.97349548339844 L 939.19970703125 112.97349548339844 L 939.19970703125 125.04933166503906 L 927.9541015625 125.04933166503906 L 927.9541015625 112.97349548339844" fill-opacity="0.9019607843137255" clip-path="url(#xAhpFXHLQKbo)" stroke-opacity="0.2" stroke-linejoin="bevel" stroke-miterlimit="10" stroke-width="0.5" stroke-dasharray=""/><path fill="rgb(247,182,210)" stroke="rgb(0,0,0)" paint-order="fill" d="M 927.9541015625 96.66856384277344 L 939.19970703125 96.66856384277344 L 939.19970703125 108.74440002441406 L 927.9541015625 108.74440002441406 L 927.9541015625 96.66856384277344" fill-opacity="0.9019607843137255" clip-path="url(#xAhpFXHLQKbo)" stroke-opacity="0.2" stroke-linejoin="bevel" stroke-miterlimit="10" stroke-width="0.5" stroke-dasharray=""/><path fill="rgb(127,127,127)" stroke="rgb(0,0,0)" paint-order="fill" d="M 927.9541015625 80.36363983154297 L 939.19970703125 80.36363983154297 L 939.19970703125 92.4394760131836 L 927.9541015625 92.4394760131836 L 927.9541015625 80.36363983154297" fill-opacity="0.9019607843137255" clip-path="url(#xAhpFXHLQKbo)" stroke-opacity="0.2" stroke-linejoin="bevel" stroke-miterlimit="10" stroke-width="0.5" stroke-dasharray=""/><g clip-path="url(#OTCycOwtOesO)"><text fill="rgb(0,0,0)" stroke="none" font-family="helvetica" font-size="8pt" font-style="normal" font-weight="normal" text-decoration="normal" x="0" y="0" text-anchor="end" dominant-baseline="central" transform="matrix(1, 0, 0, 1, 186.68118286132812, 623.2922973632812)" fill-opacity="1">MHI - 83</text></g><g clip-path="url(#OTCycOwtOesO)"><text fill="rgb(0,0,0)" stroke="none" font-family="helvetica" font-size="8pt" font-style="normal" font-weight="normal" text-decoration="normal" x="0" y="0" text-anchor="end" dominant-baseline="central" transform="matrix(1, 0, 0, 1, 925.1427001953125, 956.498779296875)" fill-opacity="1">H-IIA 202 - 30</text></g><g clip-path="url(#OTCycOwtOesO)"><text fill="rgb(0,0,0)" stroke="none" font-family="helvetica" font-size="8pt" font-style="normal" font-weight="normal" text-decoration="normal" x="0" y="0" text-anchor="end" dominant-baseline="central" transform="matrix(1, 0, 0, 1, 925.1427001953125, 716.7908935546875)" fill-opacity="1">H-IIB - 9</text></g><g clip-path="url(#OTCycOwtOesO)"><text fill="rgb(0,0,0)" stroke="none" font-family="helvetica" font-size="8pt" font-style="normal" font-weight="normal" text-decoration="normal" x="0" y="0" text-anchor="end" dominant-baseline="central" transform="matrix(1, 0, 0, 1, 925.1427001953125, 615.955078125)" fill-opacity="1">N-II Star-37E - 7</text></g><g clip-path="url(#OTCycOwtOesO)"><text fill="rgb(0,0,0)" stroke="none" font-family="helvetica" font-size="8pt" font-style="normal" font-weight="normal" text-decoration="normal" x="0" y="0" text-anchor="end" dominant-baseline="central" transform="matrix(1, 0, 0, 1, 925.1427001953125, 533.2330322265625)" fill-opacity="1">H-I (9 SO) - 6</text></g><g clip-path="url(#OTCycOwtOesO)"><text fill="rgb(0,0,0)" stroke="none" font-family="helvetica" font-size="8pt" font-style="normal" font-weight="normal" text-decoration="normal" x="0" y="0" text-anchor="end" dominant-baseline="central" transform="matrix(1, 0, 0, 1, 925.1427001953125, 462.5868225097656)" fill-opacity="1">H-I UM-129A (9SO) - 5</text></g><g clip-path="url(#OTCycOwtOesO)"><text fill="rgb(0,0,0)" stroke="none" font-family="helvetica" font-size="8pt" font-style="normal" font-weight="normal" text-decoration="normal" x="0" y="0" text-anchor="end" dominant-baseline="central" transform="matrix(1, 0, 0, 1, 925.1427001953125, 397.9785461425781)" fill-opacity="1">H-IIA 2024 - 5</text></g><g clip-path="url(#OTCycOwtOesO)"><text fill="rgb(0,0,0)" stroke="none" font-family="helvetica" font-size="8pt" font-style="normal" font-weight="normal" text-decoration="normal" x="0" y="0" text-anchor="end" dominant-baseline="central" transform="matrix(1, 0, 0, 1, 925.1427001953125, 333.3702697753906)" fill-opacity="1">H-IIA 204 - 5</text></g><g clip-path="url(#OTCycOwtOesO)"><text fill="rgb(0,0,0)" stroke="none" font-family="helvetica" font-size="8pt" font-style="normal" font-weight="normal" text-decoration="normal" x="0" y="0" text-anchor="end" dominant-baseline="central" transform="matrix(1, 0, 0, 1, 925.1427001953125, 274.7999267578125)" fill-opacity="1">H-II - 4</text></g><g clip-path="url(#OTCycOwtOesO)"><text fill="rgb(0,0,0)" stroke="none" font-family="helvetica" font-size="8pt" font-style="normal" font-weight="normal" text-decoration="normal" x="0" y="0" text-anchor="end" dominant-baseline="central" transform="matrix(1, 0, 0, 1, 925.1427001953125, 222.26747131347656)" fill-opacity="1">N-I - 4</text></g><g clip-path="url(#OTCycOwtOesO)"><text fill="rgb(0,0,0)" stroke="none" font-family="helvetica" font-size="8pt" font-style="normal" font-weight="normal" text-decoration="normal" x="0" y="0" text-anchor="end" dominant-baseline="central" transform="matrix(1, 0, 0, 1, 925.1427001953125, 175.77294921875)" fill-opacity="1">H-IIA 2022 - 3</text></g><g clip-path="url(#OTCycOwtOesO)"><text fill="rgb(0,0,0)" stroke="none" font-family="helvetica" font-size="8pt" font-style="normal" font-weight="normal" text-decoration="normal" x="0" y="0" text-anchor="end" dominant-baseline="central" transform="matrix(1, 0, 0, 1, 925.1427001953125, 141.35426330566406)" fill-opacity="1">N-I Star-37E - 2</text></g><g clip-path="url(#OTCycOwtOesO)"><text fill="rgb(0,0,0)" stroke="none" font-family="helvetica" font-size="8pt" font-style="normal" font-weight="normal" text-decoration="normal" x="0" y="0" text-anchor="end" dominant-baseline="central" transform="matrix(1, 0, 0, 1, 925.1427001953125, 119.01141357421875)" fill-opacity="1">H-I UM-129A (6SO) - 1</text></g><g clip-path="url(#OTCycOwtOesO)"><text fill="rgb(0,0,0)" stroke="none" font-family="helvetica" font-size="8pt" font-style="normal" font-weight="normal" text-decoration="normal" x="0" y="0" text-anchor="end" dominant-baseline="central" transform="matrix(1, 0, 0, 1, 925.1427001953125, 102.70648193359375)" fill-opacity="1">H-II (2 SSB) - 1</text></g><g clip-path="url(#OTCycOwtOesO)"><text fill="rgb(0,0,0)" stroke="none" font-family="helvetica" font-size="8pt" font-style="normal" font-weight="normal" text-decoration="normal" x="0" y="0" text-anchor="end" dominant-baseline="central" transform="matrix(1, 0, 0, 1, 925.1427001953125, 86.40155792236328)" fill-opacity="1">N-II - 1</text></g><text fill="rgb(68,68,68)" stroke="none" font-family="helvetica" font-size="13px" font-style="normal" font-weight="bold" text-decoration="normal" x="10" y="19.1689453125" text-anchor="start" dominant-baseline="alphabetic" transform="matrix(1, 0, 0, 1, 0.5, 0.5)" fill-opacity="1">MHI Rocket Successes</text></svg>