<svg version="1.1" xmlns="http://www.w3.org/2000/svg" width="1000" height="1200"><defs><clipPath id="acWKaiuTZeDB"><path fill="none" stroke="none" d="M 10.5 27.5 L 970.5 27.5 L 970.5 1190.5 L 10.5 1190.5 L 10.5 27.5"/></clipPath><clipPath id="EwSonzsWaloP"><path fill="none" stroke="none" d="M 10.5 27.5 L 970.5 27.5 L 970.5 1190.5 L 10.5 1190.5 L 10.5 27.5"/></clipPath><clipPath id="TveQNfyqMTFR"><path fill="none" stroke="none" d="M 10.5 27.5 L 970.5 27.5 L 970.5 1190.5 L 10.5 1190.5 L 10.5 27.5"/></clipPath><clipPath id="KwRWZEvdGfzK"><path fill="none" stroke="none" d="M 10.5 27.5 L 970.5 27.5 L 970.5 1190.5 L 10.5 1190.5 L 10.5 27.5"/></clipPath><clipPath id="GIDOARJRGDTO"><path fill="none" stroke="none" d="M 10.5 27.5 L 970.5 27.5 L 970.5 1190.5 L 10.5 1190.5 L 10.5 27.5"/></clipPath><clipPath id="prlivbpNJhcF"><path fill="none" stroke="none" d="M 10.5 27.5 L 970.5 27.5 L 970.5 1190.5 L 10.5 1190.5 L 10.5 27.5"/></clipPath></defs><path fill="rgb(255,255,255)" stroke="none" paint-order="stroke" d="M 0.5 0.5 L 1000.5 0.5 L 1000.5 1200.5 L 0.5 1200.5 L 0.5 0.5" fill-opacity="1"/><rect fill="#FFFFFF" stroke="none" x="10" y="27" width="960" height="1163" transform="matrix(1, 0, 0, 1, 0.5, 0.5)"/><path fill="rgb(255,250,250)" stroke="none" paint-order="stroke" d="M 10.5 27.5 L 970.5 27.5 L 970.5 1190.5 L 10.5 1190.5 L 10.5 27.5" fill-opacity="1"/><path fill="rgb(174,199,232)" stroke="rgb(174,199,232)" paint-order="fill" d="M 200.73818969726562 915.0179443359375 L 200.73818969726562 1124.2896728515625 L 200.73818969726562 1124.2896728515625 L 222.5517578125 1124.30615234375 L 243.4937744140625 1124.3546142578125 L 263.601318359375 1124.4337158203125 L 282.9114990234375 1124.5419921875 L 301.4613952636719 1124.67822265625 L 319.2880554199219 1124.841064453125 L 336.4286193847656 1125.029052734375 L 352.920166015625 1125.2408447265625 L 368.79974365234375 1125.47509765625 L 384.1044921875 1125.73046875 L 398.8714294433594 1126.005615234375 L 413.1377258300781 1126.299072265625 L 426.9404296875 1126.6094970703125 L 440.3166198730469 1126.9356689453125 L 453.3033752441406 1127.276123046875 L 465.9378356933594 1127.6295166015625 L 478.25701904296875 1127.9945068359375 L 490.2980651855469 1128.36962890625 L 502.0980529785156 1128.753662109375 L 513.6940307617188 1129.1451416015625 L 525.1231079101562 1129.542724609375 L 536.4224243164062 1129.9451904296875 L 547.6290283203125 1130.3509521484375 L 558.7799682617188 1130.7587890625 L 569.912353515625 1131.167236328125 L 581.0632934570312 1131.5750732421875 L 592.2698974609375 1131.98095703125 L 603.5691528320312 1132.38330078125 L 614.998291015625 1132.7808837890625 L 626.59423828125 1133.1724853515625 L 638.3942260742188 1133.556396484375 L 650.435302734375 1133.931640625 L 662.7544555664062 1134.2965087890625 L 675.388916015625 1134.64990234375 L 688.3756713867188 1134.9903564453125 L 701.7518920898438 1135.3165283203125 L 715.5545654296875 1135.6270751953125 L 729.8208618164062 1135.9205322265625 L 744.5878295898438 1136.195556640625 L 759.892578125 1136.450927734375 L 775.7721557617188 1136.685302734375 L 792.263671875 1136.8970947265625 L 809.4042358398438 1137.0850830078125 L 827.2308959960938 1137.247802734375 L 845.7808227539062 1137.384033203125 L 865.0910034179688 1137.492431640625 L 885.1985473632812 1137.571533203125 L 906.1405639648438 1137.619873046875 L 927.9541015625 1137.6363525390625 L 927.9541015625 1137.6363525390625 L 927.9541015625 928.3645629882812 L 927.9541015625 928.3645629882812 L 906.1405639648438 928.34814453125 L 885.1985473632812 928.2996826171875 L 865.0910034179688 928.2206420898438 L 845.7808227539062 928.1122436523438 L 827.2308959960938 927.9760131835938 L 809.4042358398438 927.813232421875 L 792.263671875 927.625244140625 L 775.7721557617188 927.4134521484375 L 759.892578125 927.17919921875 L 744.5878295898438 926.923828125 L 729.8208618164062 926.6487426757812 L 715.5545654296875 926.355224609375 L 701.7518920898438 926.0447387695312 L 688.3756713867188 925.7185668945312 L 675.388916015625 925.378173828125 L 662.7544555664062 925.0247802734375 L 650.435302734375 924.6597900390625 L 638.3942260742188 924.28466796875 L 626.59423828125 923.900634765625 L 614.998291015625 923.5091552734375 L 603.5691528320312 923.1115112304688 L 592.2698974609375 922.7091064453125 L 581.0632934570312 922.3033447265625 L 569.912353515625 921.8955078125 L 558.7799682617188 921.4869995117188 L 547.6290283203125 921.0791625976562 L 536.4224243164062 920.67333984375 L 525.1231079101562 920.27099609375 L 513.6940307617188 919.8733520507812 L 502.0980529785156 919.4818725585938 L 490.2980651855469 919.0978393554688 L 478.25701904296875 918.7227172851562 L 465.9378356933594 918.3577270507812 L 453.3033752441406 918.0043334960938 L 440.3166198730469 917.6639404296875 L 426.9404296875 917.3377685546875 L 413.1377258300781 917.0272827148438 L 398.8714294433594 916.7337646484375 L 384.1044921875 916.4586791992188 L 368.79974365234375 916.2033081054688 L 352.920166015625 915.9690551757812 L 336.4286193847656 915.7572631835938 L 319.2880554199219 915.5692749023438 L 301.4613952636719 915.406494140625 L 282.9114990234375 915.2702026367188 L 263.601318359375 915.161865234375 L 243.4937744140625 915.0828247070312 L 222.5517578125 915.0343627929688 L 200.73818969726562 915.0179443359375 Z" fill-opacity="0.6" clip-path="url(#TveQNfyqMTFR)" stroke-opacity="1" stroke-linejoin="bevel" stroke-miterlimit="10" stroke-width="0.8" stroke-dasharray=""/><path fill="rgb(255,127,14)" stroke="rgb(255,127,14)" paint-order="fill" d="M 200.73818969726562 737.9417724609375 L 200.73818969726562 915.0179443359375 L 200.73818969726562 915.0179443359375 L 222.5517578125 915.0291748046875 L 243.4937744140625 915.062255859375 L 263.601318359375 915.1162719726562 L 282.9114990234375 915.1903076171875 L 301.4613952636719 915.2833862304688 L 319.2880554199219 915.3945922851562 L 336.4286193847656 915.5230102539062 L 352.920166015625 915.6676635742188 L 368.79974365234375 915.8276977539062 L 384.1044921875 916.0021362304688 L 398.8714294433594 916.1900634765625 L 413.1377258300781 916.3905639648438 L 426.9404296875 916.6026611328125 L 440.3166198730469 916.8255004882812 L 453.3033752441406 917.0580444335938 L 465.9378356933594 917.2994384765625 L 478.25701904296875 917.5487670898438 L 490.2980651855469 917.8050537109375 L 502.0980529785156 918.0673828125 L 513.6940307617188 918.3348388671875 L 525.1231079101562 918.6064453125 L 536.4224243164062 918.88134765625 L 547.6290283203125 919.1585693359375 L 558.7799682617188 919.4371948242188 L 569.912353515625 919.7162475585938 L 581.0632934570312 919.994873046875 L 592.2698974609375 920.2720336914062 L 603.5691528320312 920.5469360351562 L 614.998291015625 920.8185424804688 L 626.59423828125 921.0859985351562 L 638.3942260742188 921.3483276367188 L 650.435302734375 921.6046142578125 L 662.7544555664062 921.8539428710938 L 675.388916015625 922.0953369140625 L 688.3756713867188 922.3279418945312 L 701.7518920898438 922.5507202148438 L 715.5545654296875 922.7628173828125 L 729.8208618164062 922.9633178710938 L 744.5878295898438 923.1512451171875 L 759.892578125 923.32568359375 L 775.7721557617188 923.4857177734375 L 792.263671875 923.6304321289062 L 809.4042358398438 923.7588500976562 L 827.2308959960938 923.8700561523438 L 845.7808227539062 923.963134765625 L 865.0910034179688 924.037109375 L 885.1985473632812 924.0911254882812 L 906.1405639648438 924.124267578125 L 927.9541015625 924.135498046875 L 927.9541015625 924.135498046875 L 927.9541015625 747.059326171875 L 927.9541015625 747.059326171875 L 906.1405639648438 747.048095703125 L 885.1985473632812 747.0150146484375 L 865.0910034179688 746.9609985351562 L 845.7808227539062 746.8870239257812 L 827.2308959960938 746.7939453125 L 809.4042358398438 746.6827392578125 L 792.263671875 746.5543212890625 L 775.7721557617188 746.4096069335938 L 759.892578125 746.2495727539062 L 744.5878295898438 746.0751342773438 L 729.8208618164062 745.88720703125 L 715.5545654296875 745.6867065429688 L 701.7518920898438 745.474609375 L 688.3756713867188 745.2517700195312 L 675.388916015625 745.0192260742188 L 662.7544555664062 744.77783203125 L 650.435302734375 744.5285034179688 L 638.3942260742188 744.272216796875 L 626.59423828125 744.0098876953125 L 614.998291015625 743.742431640625 L 603.5691528320312 743.4708251953125 L 592.2698974609375 743.1959228515625 L 581.0632934570312 742.918701171875 L 569.912353515625 742.64013671875 L 558.7799682617188 742.3610229492188 L 547.6290283203125 742.0824584960938 L 536.4224243164062 741.8052368164062 L 525.1231079101562 741.5303344726562 L 513.6940307617188 741.2587280273438 L 502.0980529785156 740.9912719726562 L 490.2980651855469 740.7289428710938 L 478.25701904296875 740.47265625 L 465.9378356933594 740.2233276367188 L 453.3033752441406 739.98193359375 L 440.3166198730469 739.7493896484375 L 426.9404296875 739.5265502929688 L 413.1377258300781 739.314453125 L 398.8714294433594 739.1139526367188 L 384.1044921875 738.926025390625 L 368.79974365234375 738.7515869140625 L 352.920166015625 738.591552734375 L 336.4286193847656 738.4468383789062 L 319.2880554199219 738.3184204101562 L 301.4613952636719 738.2072143554688 L 282.9114990234375 738.1141357421875 L 263.601318359375 738.0401611328125 L 243.4937744140625 737.9861450195312 L 222.5517578125 737.9530639648438 L 200.73818969726562 737.9417724609375 Z" fill-opacity="0.6" clip-path="url(#TveQNfyqMTFR)" stroke-opacity="1" stroke-linejoin="bevel" stroke-miterlimit="10" stroke-width="0.8" stroke-dasharray=""/><path fill="rgb(255,187,120)" stroke="rgb(255,187,120)" paint-order="fill" d="M 200.73818969726562 593.0613403320312 L 200.73818969726562 737.9417724609375 L 200.73818969726562 737.9417724609375 L 222.5517578125 737.9478149414062 L 243.4937744140625 737.965576171875 L 263.601318359375 737.9945068359375 L 282.9114990234375 738.0341796875 L 301.4613952636719 738.0841064453125 L 319.2880554199219 738.1437377929688 L 336.4286193847656 738.2125854492188 L 352.920166015625 738.2901611328125 L 368.79974365234375 738.3759765625 L 384.1044921875 738.469482421875 L 398.8714294433594 738.5702514648438 L 413.1377258300781 738.677734375 L 426.9404296875 738.79150390625 L 440.3166198730469 738.9109497070312 L 453.3033752441406 739.03564453125 L 465.9378356933594 739.1650390625 L 478.25701904296875 739.2987670898438 L 490.2980651855469 739.4361572265625 L 502.0980529785156 739.5767822265625 L 513.6940307617188 739.72021484375 L 525.1231079101562 739.8658447265625 L 536.4224243164062 740.01318359375 L 547.6290283203125 740.161865234375 L 558.7799682617188 740.3112182617188 L 569.912353515625 740.4608154296875 L 581.0632934570312 740.6102294921875 L 592.2698974609375 740.7588500976562 L 603.5691528320312 740.90625 L 614.998291015625 741.0518798828125 L 626.59423828125 741.1952514648438 L 638.3942260742188 741.3359375 L 650.435302734375 741.4733276367188 L 662.7544555664062 741.6069946289062 L 675.388916015625 741.7364501953125 L 688.3756713867188 741.8611450195312 L 701.7518920898438 741.9805908203125 L 715.5545654296875 742.0942993164062 L 729.8208618164062 742.2017822265625 L 744.5878295898438 742.3025512695312 L 759.892578125 742.3961181640625 L 775.7721557617188 742.4818725585938 L 792.263671875 742.5594482421875 L 809.4042358398438 742.6282958984375 L 827.2308959960938 742.6879272460938 L 845.7808227539062 742.7378540039062 L 865.0910034179688 742.7775268554688 L 885.1985473632812 742.8065185546875 L 906.1405639648438 742.82421875 L 927.9541015625 742.8302612304688 L 927.9541015625 742.8302612304688 L 927.9541015625 597.9497680664062 L 927.9541015625 597.9497680664062 L 906.1405639648438 597.9437866210938 L 885.1985473632812 597.926025390625 L 865.0910034179688 597.8970947265625 L 845.7808227539062 597.8573608398438 L 827.2308959960938 597.8074951171875 L 809.4042358398438 597.7478637695312 L 792.263671875 597.6790161132812 L 775.7721557617188 597.6014404296875 L 759.892578125 597.515625 L 744.5878295898438 597.422119140625 L 729.8208618164062 597.3213500976562 L 715.5545654296875 597.2138671875 L 701.7518920898438 597.10009765625 L 688.3756713867188 596.9806518554688 L 675.388916015625 596.85595703125 L 662.7544555664062 596.7265014648438 L 650.435302734375 596.5928344726562 L 638.3942260742188 596.4554443359375 L 626.59423828125 596.3148193359375 L 614.998291015625 596.17138671875 L 603.5691528320312 596.0257568359375 L 592.2698974609375 595.8783569335938 L 581.0632934570312 595.729736328125 L 569.912353515625 595.5803833007812 L 558.7799682617188 595.4307250976562 L 547.6290283203125 595.2813720703125 L 536.4224243164062 595.1327514648438 L 525.1231079101562 594.9853515625 L 513.6940307617188 594.8397216796875 L 502.0980529785156 594.6963500976562 L 490.2980651855469 594.5556640625 L 478.25701904296875 594.4182739257812 L 465.9378356933594 594.2846069335938 L 453.3033752441406 594.1551513671875 L 440.3166198730469 594.0304565429688 L 426.9404296875 593.9110107421875 L 413.1377258300781 593.7973022460938 L 398.8714294433594 593.6898193359375 L 384.1044921875 593.5890502929688 L 368.79974365234375 593.4954833984375 L 352.920166015625 593.40966796875 L 336.4286193847656 593.3320922851562 L 319.2880554199219 593.2632446289062 L 301.4613952636719 593.20361328125 L 282.9114990234375 593.1537475585938 L 263.601318359375 593.1140747070312 L 243.4937744140625 593.0850830078125 L 222.5517578125 593.0673828125 L 200.73818969726562 593.0613403320312 Z" fill-opacity="0.6" clip-path="url(#TveQNfyqMTFR)" stroke-opacity="1" stroke-linejoin="bevel" stroke-miterlimit="10" stroke-width="0.8" stroke-dasharray=""/><path fill="rgb(44,160,44)" stroke="rgb(44,160,44)" paint-order="fill" d="M 200.73818969726562 458.9127502441406 L 200.73818969726562 593.0613403320312 L 200.73818969726562 593.0613403320312 L 222.5517578125 593.0621337890625 L 243.4937744140625 593.0645141601562 L 263.601318359375 593.0684204101562 L 282.9114990234375 593.0737915039062 L 301.4613952636719 593.0805053710938 L 319.2880554199219 593.0885620117188 L 336.4286193847656 593.0978393554688 L 352.920166015625 593.1083374023438 L 368.79974365234375 593.119873046875 L 384.1044921875 593.1325073242188 L 398.8714294433594 593.1461181640625 L 413.1377258300781 593.1605834960938 L 426.9404296875 593.1759643554688 L 440.3166198730469 593.1920776367188 L 453.3033752441406 593.2088623046875 L 465.9378356933594 593.226318359375 L 478.25701904296875 593.244384765625 L 490.2980651855469 593.2628784179688 L 502.0980529785156 593.2818603515625 L 513.6940307617188 593.3012084960938 L 525.1231079101562 593.3208618164062 L 536.4224243164062 593.3407592773438 L 547.6290283203125 593.3607788085938 L 558.7799682617188 593.3809204101562 L 569.912353515625 593.401123046875 L 581.0632934570312 593.4212646484375 L 592.2698974609375 593.4412841796875 L 603.5691528320312 593.461181640625 L 614.998291015625 593.4808349609375 L 626.59423828125 593.5001831054688 L 638.3942260742188 593.5191650390625 L 650.435302734375 593.5376586914062 L 662.7544555664062 593.5557250976562 L 675.388916015625 593.5731811523438 L 688.3756713867188 593.5899658203125 L 701.7518920898438 593.6060791015625 L 715.5545654296875 593.6214599609375 L 729.8208618164062 593.6359252929688 L 744.5878295898438 593.6495361328125 L 759.892578125 593.6621704101562 L 775.7721557617188 593.6737060546875 L 792.263671875 593.6842041015625 L 809.4042358398438 593.6934814453125 L 827.2308959960938 593.7015380859375 L 845.7808227539062 593.708251953125 L 865.0910034179688 593.7135620117188 L 885.1985473632812 593.7174682617188 L 906.1405639648438 593.7199096679688 L 927.9541015625 593.720703125 L 927.9541015625 593.720703125 L 927.9541015625 459.5721130371094 L 927.9541015625 459.5721130371094 L 906.1405639648438 459.5713195800781 L 885.1985473632812 459.56890869140625 L 865.0910034179688 459.56500244140625 L 845.7808227539062 459.5596618652344 L 827.2308959960938 459.55291748046875 L 809.4042358398438 459.5448913574219 L 792.263671875 459.53558349609375 L 775.7721557617188 459.525146484375 L 759.892578125 459.5135498046875 L 744.5878295898438 459.5009460449219 L 729.8208618164062 459.48736572265625 L 715.5545654296875 459.47283935546875 L 701.7518920898438 459.45751953125 L 688.3756713867188 459.44140625 L 675.388916015625 459.4245910644531 L 662.7544555664062 459.4071350097656 L 650.435302734375 459.38909912109375 L 638.3942260742188 459.37054443359375 L 626.59423828125 459.3515930175781 L 614.998291015625 459.3322448730469 L 603.5691528320312 459.3125915527344 L 592.2698974609375 459.292724609375 L 581.0632934570312 459.2726745605469 L 569.912353515625 459.2525329589844 L 558.7799682617188 459.2323303222656 L 547.6290283203125 459.2121887207031 L 536.4224243164062 459.192138671875 L 525.1231079101562 459.1722717285156 L 513.6940307617188 459.1526184082031 L 502.0980529785156 459.1332702636719 L 490.2980651855469 459.11431884765625 L 478.25701904296875 459.09576416015625 L 465.9378356933594 459.0777587890625 L 453.3033752441406 459.060302734375 L 440.3166198730469 459.04345703125 L 426.9404296875 459.02734375 L 413.1377258300781 459.01202392578125 L 398.8714294433594 458.9975280761719 L 384.1044921875 458.9839172363281 L 368.79974365234375 458.9713134765625 L 352.920166015625 458.9597473144531 L 336.4286193847656 458.94927978515625 L 319.2880554199219 458.9399719238281 L 301.4613952636719 458.93194580078125 L 282.9114990234375 458.9252014160156 L 263.601318359375 458.91986083984375 L 243.4937744140625 458.91595458984375 L 222.5517578125 458.91357421875 L 200.73818969726562 458.9127502441406 Z" fill-opacity="0.6" clip-path="url(#TveQNfyqMTFR)" stroke-opacity="1" stroke-linejoin="bevel" stroke-miterlimit="10" stroke-width="0.8" stroke-dasharray=""/><path fill="rgb(152,223,138)" stroke="rgb(152,223,138)" paint-order="fill" d="M 200.73818969726562 394.52142333984375 L 200.73818969726562 458.9127502441406 L 200.73818969726562 458.9127502441406 L 222.5517578125 458.9083557128906 L 243.4937744140625 458.8953857421875 L 263.601318359375 458.8742370605469 L 282.9114990234375 458.84527587890625 L 301.4613952636719 458.808837890625 L 319.2880554199219 458.7652893066406 L 336.4286193847656 458.7149963378906 L 352.920166015625 458.6583557128906 L 368.79974365234375 458.595703125 L 384.1044921875 458.52740478515625 L 398.8714294433594 458.4538269042969 L 413.1377258300781 458.3753356933594 L 426.9404296875 458.2922668457031 L 440.3166198730469 458.2050476074219 L 453.3033752441406 458.1139831542969 L 465.9378356933594 458.01947021484375 L 478.25701904296875 457.921875 L 490.2980651855469 457.821533203125 L 502.0980529785156 457.71881103515625 L 513.6940307617188 457.6141052246094 L 525.1231079101562 457.50775146484375 L 536.4224243164062 457.400146484375 L 547.6290283203125 457.2915954589844 L 558.7799682617188 457.1825256347656 L 569.912353515625 457.0732727050781 L 581.0632934570312 456.96417236328125 L 592.2698974609375 456.85565185546875 L 603.5691528320312 456.7480163574219 L 614.998291015625 456.64166259765625 L 626.59423828125 456.5369567871094 L 638.3942260742188 456.43426513671875 L 650.435302734375 456.33392333984375 L 662.7544555664062 456.2362976074219 L 675.388916015625 456.14178466796875 L 688.3756713867188 456.05072021484375 L 701.7518920898438 455.9635009765625 L 715.5545654296875 455.8804626464844 L 729.8208618164062 455.80194091796875 L 744.5878295898438 455.7283630371094 L 759.892578125 455.6600646972656 L 775.7721557617188 455.597412109375 L 792.263671875 455.540771484375 L 809.4042358398438 455.490478515625 L 827.2308959960938 455.44696044921875 L 845.7808227539062 455.4105224609375 L 865.0910034179688 455.38153076171875 L 885.1985473632812 455.3603820800781 L 906.1405639648438 455.3474426269531 L 927.9541015625 455.343017578125 L 927.9541015625 455.343017578125 L 927.9541015625 390.95172119140625 L 927.9541015625 390.95172119140625 L 906.1405639648438 390.95611572265625 L 885.1985473632812 390.96905517578125 L 865.0910034179688 390.9902038574219 L 845.7808227539062 391.0191955566406 L 827.2308959960938 391.0556335449219 L 809.4042358398438 391.09918212890625 L 792.263671875 391.1494445800781 L 775.7721557617188 391.2060852050781 L 759.892578125 391.2687683105469 L 744.5878295898438 391.3370666503906 L 729.8208618164062 391.41064453125 L 715.5545654296875 391.4891357421875 L 701.7518920898438 391.5721740722656 L 688.3756713867188 391.659423828125 L 675.388916015625 391.7504577636719 L 662.7544555664062 391.844970703125 L 650.435302734375 391.9425964355469 L 638.3942260742188 392.0429382324219 L 626.59423828125 392.1456298828125 L 614.998291015625 392.2503662109375 L 603.5691528320312 392.356689453125 L 592.2698974609375 392.4643249511719 L 581.0632934570312 392.5728454589844 L 569.912353515625 392.68194580078125 L 558.7799682617188 392.79119873046875 L 547.6290283203125 392.9002685546875 L 536.4224243164062 393.0088195800781 L 525.1231079101562 393.1164245605469 L 513.6940307617188 393.2227783203125 L 502.0980529785156 393.3274841308594 L 490.2980651855469 393.4302062988281 L 478.25701904296875 393.5305480957031 L 465.9378356933594 393.6281433105469 L 453.3033752441406 393.7226867675781 L 440.3166198730469 393.813720703125 L 426.9404296875 393.9009704589844 L 413.1377258300781 393.9840087890625 L 398.8714294433594 394.0625 L 384.1044921875 394.1360778808594 L 368.79974365234375 394.2043762207031 L 352.920166015625 394.26702880859375 L 336.4286193847656 394.3236999511719 L 319.2880554199219 394.37396240234375 L 301.4613952636719 394.4175109863281 L 282.9114990234375 394.4539489746094 L 263.601318359375 394.48291015625 L 243.4937744140625 394.5040588378906 L 222.5517578125 394.51702880859375 L 200.73818969726562 394.52142333984375 Z" fill-opacity="0.6" clip-path="url(#TveQNfyqMTFR)" stroke-opacity="1" stroke-linejoin="bevel" stroke-miterlimit="10" stroke-width="0.8" stroke-dasharray=""/><path fill="rgb(214,39,40)" stroke="rgb(214,39,40)" paint-order="fill" d="M 200.73818969726562 340.86199951171875 L 200.73818969726562 394.52142333984375 L 200.73818969726562 394.52142333984375 L 222.5517578125 394.5118103027344 L 243.4937744140625 394.4835205078125 L 263.601318359375 394.43731689453125 L 282.9114990234375 394.3739929199219 L 301.4613952636719 394.2944030761719 L 319.2880554199219 394.1992492675781 L 336.4286193847656 394.08941650390625 L 352.920166015625 393.9656677246094 L 368.79974365234375 393.8287658691406 L 384.1044921875 393.6795654296875 L 398.8714294433594 393.518798828125 L 413.1377258300781 393.3473205566406 L 426.9404296875 393.1658935546875 L 440.3166198730469 392.9753112792969 L 453.3033752441406 392.7763671875 L 465.9378356933594 392.56988525390625 L 478.25701904296875 392.35662841796875 L 490.2980651855469 392.1374206542969 L 502.0980529785156 391.91302490234375 L 513.6940307617188 391.68426513671875 L 525.1231079101562 391.4519348144531 L 536.4224243164062 391.216796875 L 547.6290283203125 390.97967529296875 L 558.7799682617188 390.7413635253906 L 569.912353515625 390.502685546875 L 581.0632934570312 390.2643737792969 L 592.2698974609375 390.0272521972656 L 603.5691528320312 389.7921142578125 L 614.998291015625 389.5597839355469 L 626.59423828125 389.3310241699219 L 638.3942260742188 389.10662841796875 L 650.435302734375 388.8874206542969 L 662.7544555664062 388.6741638183594 L 675.388916015625 388.4676818847656 L 688.3756713867188 388.26873779296875 L 701.7518920898438 388.0781555175781 L 715.5545654296875 387.896728515625 L 729.8208618164062 387.7252502441406 L 744.5878295898438 387.5644836425781 L 759.892578125 387.415283203125 L 775.7721557617188 387.27838134765625 L 792.263671875 387.1546325683594 L 809.4042358398438 387.0447692871094 L 827.2308959960938 386.94964599609375 L 845.7808227539062 386.87005615234375 L 865.0910034179688 386.8067321777344 L 885.1985473632812 386.7605285644531 L 906.1405639648438 386.73223876953125 L 927.9541015625 386.7226257324219 L 927.9541015625 386.7226257324219 L 927.9541015625 333.0632019042969 L 927.9541015625 333.0632019042969 L 906.1405639648438 333.0727844238281 L 885.1985473632812 333.1011047363281 L 865.0910034179688 333.1473083496094 L 845.7808227539062 333.2106018066406 L 827.2308959960938 333.29022216796875 L 809.4042358398438 333.3853454589844 L 792.263671875 333.49517822265625 L 775.7721557617188 333.61895751953125 L 759.892578125 333.7558288574219 L 744.5878295898438 333.9050598144531 L 729.8208618164062 334.0657958984375 L 715.5545654296875 334.2373046875 L 701.7518920898438 334.4187316894531 L 688.3756713867188 334.60931396484375 L 675.388916015625 334.8082275390625 L 662.7544555664062 335.0147399902344 L 650.435302734375 335.22796630859375 L 638.3942260742188 335.44720458984375 L 626.59423828125 335.67156982421875 L 614.998291015625 335.9003601074219 L 603.5691528320312 336.1326904296875 L 592.2698974609375 336.3678283691406 L 581.0632934570312 336.60491943359375 L 569.912353515625 336.8432312011719 L 558.7799682617188 337.0819396972656 L 547.6290283203125 337.32025146484375 L 536.4224243164062 337.557373046875 L 525.1231079101562 337.79248046875 L 513.6940307617188 338.02484130859375 L 502.0980529785156 338.25360107421875 L 490.2980651855469 338.4779968261719 L 478.25701904296875 338.69720458984375 L 465.9378356933594 338.91046142578125 L 453.3033752441406 339.116943359375 L 440.3166198730469 339.3158874511719 L 426.9404296875 339.5064697265625 L 413.1377258300781 339.6878967285156 L 398.8714294433594 339.859375 L 384.1044921875 340.0201416015625 L 368.79974365234375 340.1693420410156 L 352.920166015625 340.3062438964844 L 336.4286193847656 340.42999267578125 L 319.2880554199219 340.5398254394531 L 301.4613952636719 340.63494873046875 L 282.9114990234375 340.7145690917969 L 263.601318359375 340.7778625488281 L 243.4937744140625 340.8240661621094 L 222.5517578125 340.8523864746094 L 200.73818969726562 340.86199951171875 Z" fill-opacity="0.6" clip-path="url(#TveQNfyqMTFR)" stroke-opacity="1" stroke-linejoin="bevel" stroke-miterlimit="10" stroke-width="0.8" stroke-dasharray=""/><path fill="rgb(255,152,150)" stroke="rgb(255,152,150)" paint-order="fill" d="M 200.73818969726562 292.5685119628906 L 200.73818969726562 340.86199951171875 L 200.73818969726562 340.86199951171875 L 222.5517578125 340.84716796875 L 243.4937744140625 340.80352783203125 L 263.601318359375 340.7322692871094 L 282.9114990234375 340.6346130371094 L 301.4613952636719 340.5118408203125 L 319.2880554199219 340.3651428222656 L 336.4286193847656 340.19573974609375 L 352.920166015625 340.0048522949219 L 368.79974365234375 339.7937316894531 L 384.1044921875 339.5635986328125 L 398.8714294433594 339.315673828125 L 413.1377258300781 339.05120849609375 L 426.9404296875 338.7713928222656 L 440.3166198730469 338.4774475097656 L 453.3033752441406 338.170654296875 L 465.9378356933594 337.8521728515625 L 478.25701904296875 337.5232849121094 L 490.2980651855469 337.1852111816406 L 502.0980529785156 336.8391418457031 L 513.6940307617188 336.486328125 L 525.1231079101562 336.12799072265625 L 536.4224243164062 335.7653503417969 L 547.6290283203125 335.399658203125 L 558.7799682617188 335.0321350097656 L 569.912353515625 334.6639709472656 L 581.0632934570312 334.29644775390625 L 592.2698974609375 333.93072509765625 L 603.5691528320312 333.568115234375 L 614.998291015625 333.20977783203125 L 626.59423828125 332.8569641113281 L 638.3942260742188 332.5108947753906 L 650.435302734375 332.17279052734375 L 662.7544555664062 331.8439025878906 L 675.388916015625 331.52545166015625 L 688.3756713867188 331.2186279296875 L 701.7518920898438 330.9247131347656 L 715.5545654296875 330.6448974609375 L 729.8208618164062 330.3804016113281 L 744.5878295898438 330.1324768066406 L 759.892578125 329.90234375 L 775.7721557617188 329.69122314453125 L 792.263671875 329.5003662109375 L 809.4042358398438 329.3309631347656 L 827.2308959960938 329.18426513671875 L 845.7808227539062 329.06146240234375 L 865.0910034179688 328.9638366699219 L 885.1985473632812 328.892578125 L 906.1405639648438 328.8489074707031 L 927.9541015625 328.8341064453125 L 927.9541015625 328.8341064453125 L 927.9541015625 280.5406188964844 L 927.9541015625 280.5406188964844 L 906.1405639648438 280.555419921875 L 885.1985473632812 280.5990905761719 L 865.0910034179688 280.67034912109375 L 845.7808227539062 280.7679748535156 L 827.2308959960938 280.8907775878906 L 809.4042358398438 281.0374755859375 L 792.263671875 281.2068786621094 L 775.7721557617188 281.3977355957031 L 759.892578125 281.6088562011719 L 744.5878295898438 281.8389892578125 L 729.8208618164062 282.0869140625 L 715.5545654296875 282.3514099121094 L 701.7518920898438 282.6312255859375 L 688.3756713867188 282.9251403808594 L 675.388916015625 283.2319641113281 L 662.7544555664062 283.5504150390625 L 650.435302734375 283.8793029785156 L 638.3942260742188 284.2174072265625 L 626.59423828125 284.5634765625 L 614.998291015625 284.9162902832031 L 603.5691528320312 285.2746276855469 L 592.2698974609375 285.6372375488281 L 581.0632934570312 286.0029296875 L 569.912353515625 286.3704833984375 L 558.7799682617188 286.7386169433594 L 547.6290283203125 287.1061706542969 L 536.4224243164062 287.47186279296875 L 525.1231079101562 287.8345031738281 L 513.6940307617188 288.1928405761719 L 502.0980529785156 288.545654296875 L 490.2980651855469 288.8917236328125 L 478.25701904296875 289.22979736328125 L 465.9378356933594 289.5586853027344 L 453.3033752441406 289.8771667480469 L 440.3166198730469 290.1839599609375 L 426.9404296875 290.4779052734375 L 413.1377258300781 290.7577209472656 L 398.8714294433594 291.0221862792969 L 384.1044921875 291.2701110839844 L 368.79974365234375 291.500244140625 L 352.920166015625 291.71136474609375 L 336.4286193847656 291.9022216796875 L 319.2880554199219 292.0716552734375 L 301.4613952636719 292.2183532714844 L 282.9114990234375 292.34112548828125 L 263.601318359375 292.43878173828125 L 243.4937744140625 292.5100402832031 L 222.5517578125 292.5536804199219 L 200.73818969726562 292.5685119628906 Z" fill-opacity="0.6" clip-path="url(#TveQNfyqMTFR)" stroke-opacity="1" stroke-linejoin="bevel" stroke-miterlimit="10" stroke-width="0.8" stroke-dasharray=""/><path fill="rgb(148,103,189)" stroke="rgb(148,103,189)" paint-order="fill" d="M 200.73818969726562 244.27500915527344 L 200.73818969726562 292.5685119628906 L 200.73818969726562 292.5685119628906 L 222.5517578125 292.5484619140625 L 243.4937744140625 292.4894714355469 L 263.601318359375 292.3931579589844 L 282.9114990234375 292.2611999511719 L 301.4613952636719 292.0952453613281 L 319.2880554199219 291.8969421386719 L 336.4286193847656 291.66796875 L 352.920166015625 291.40997314453125 L 368.79974365234375 291.1246337890625 L 384.1044921875 290.8135986328125 L 398.8714294433594 290.4784851074219 L 413.1377258300781 290.12103271484375 L 426.9404296875 289.7428283691406 L 440.3166198730469 289.3455505371094 L 453.3033752441406 288.93084716796875 L 465.9378356933594 288.50042724609375 L 478.25701904296875 288.0558776855469 L 490.2980651855469 287.5989074707031 L 502.0980529785156 287.13116455078125 L 513.6940307617188 286.654296875 L 525.1231079101562 286.16998291015625 L 536.4224243164062 285.6798400878906 L 547.6290283203125 285.1855773925781 L 558.7799682617188 284.6888122558594 L 569.912353515625 284.19122314453125 L 581.0632934570312 283.6944580078125 L 592.2698974609375 283.2001647949219 L 603.5691528320312 282.7100524902344 L 614.998291015625 282.2257080078125 L 626.59423828125 281.74884033203125 L 638.3942260742188 281.2810974121094 L 650.435302734375 280.8241271972656 L 662.7544555664062 280.3796081542969 L 675.388916015625 279.94915771484375 L 688.3756713867188 279.53448486328125 L 701.7518920898438 279.13720703125 L 715.5545654296875 278.7590026855469 L 729.8208618164062 278.4015197753906 L 744.5878295898438 278.0664367675781 L 759.892578125 277.75537109375 L 775.7721557617188 277.47003173828125 L 792.263671875 277.2120361328125 L 809.4042358398438 276.98309326171875 L 827.2308959960938 276.7847900390625 L 845.7808227539062 276.61883544921875 L 865.0910034179688 276.48687744140625 L 885.1985473632812 276.39056396484375 L 906.1405639648438 276.33154296875 L 927.9541015625 276.3115234375 L 927.9541015625 276.3115234375 L 927.9541015625 228.0180206298828 L 927.9541015625 228.0180206298828 L 906.1405639648438 228.03805541992188 L 885.1985473632812 228.09706115722656 L 865.0910034179688 228.19337463378906 L 845.7808227539062 228.32534790039062 L 827.2308959960938 228.49130249023438 L 809.4042358398438 228.68959045410156 L 792.263671875 228.91856384277344 L 775.7721557617188 229.17654418945312 L 759.892578125 229.46188354492188 L 744.5878295898438 229.77293395996094 L 729.8208618164062 230.1080322265625 L 715.5545654296875 230.4654998779297 L 701.7518920898438 230.8437042236328 L 688.3756713867188 231.24098205566406 L 675.388916015625 231.65567016601562 L 662.7544555664062 232.0861053466797 L 650.435302734375 232.5306396484375 L 638.3942260742188 232.98760986328125 L 626.59423828125 233.45535278320312 L 614.998291015625 233.93222045898438 L 603.5691528320312 234.4165496826172 L 592.2698974609375 234.90667724609375 L 581.0632934570312 235.4009552001953 L 569.912353515625 235.89772033691406 L 558.7799682617188 236.3953094482422 L 547.6290283203125 236.89207458496094 L 536.4224243164062 237.3863525390625 L 525.1231079101562 237.87649536132812 L 513.6940307617188 238.36082458496094 L 502.0980529785156 238.8376922607422 L 490.2980651855469 239.30543518066406 L 478.25701904296875 239.7624053955078 L 465.9378356933594 240.20693969726562 L 453.3033752441406 240.6373748779297 L 440.3166198730469 241.0520477294922 L 426.9404296875 241.44932556152344 L 413.1377258300781 241.82752990722656 L 398.8714294433594 242.1850128173828 L 384.1044921875 242.5200958251953 L 368.79974365234375 242.83114624023438 L 352.920166015625 243.1165008544922 L 336.4286193847656 243.37448120117188 L 319.2880554199219 243.60345458984375 L 301.4613952636719 243.80174255371094 L 282.9114990234375 243.9676971435547 L 263.601318359375 244.0996551513672 L 243.4937744140625 244.1959686279297 L 222.5517578125 244.25497436523438 L 200.73818969726562 244.27500915527344 Z" fill-opacity="0.6" clip-path="url(#TveQNfyqMTFR)" stroke-opacity="1" stroke-linejoin="bevel" stroke-miterlimit="10" stroke-width="0.8" stroke-dasharray=""/><path fill="rgb(197,176,213)" stroke="rgb(197,176,213)" paint-order="fill" d="M 200.73818969726562 206.71340942382812 L 200.73818969726562 244.27500915527344 L 200.73818969726562 244.27500915527344 L 222.5517578125 244.24977111816406 L 243.4937744140625 244.1754150390625 L 263.601318359375 244.05404663085938 L 282.9114990234375 243.88775634765625 L 301.4613952636719 243.67861938476562 L 319.2880554199219 243.42874145507812 L 336.4286193847656 243.1402130126953 L 352.920166015625 242.81512451171875 L 368.79974365234375 242.45553588867188 L 384.1044921875 242.06358337402344 L 398.8714294433594 241.6413116455078 L 413.1377258300781 241.1908416748047 L 426.9404296875 240.71424865722656 L 440.3166198730469 240.21363830566406 L 453.3033752441406 239.69107055664062 L 465.9378356933594 239.14866638183594 L 478.25701904296875 238.58848571777344 L 490.2980651855469 238.0126495361328 L 502.0980529785156 237.4232177734375 L 513.6940307617188 236.82229614257812 L 525.1231079101562 236.21197509765625 L 536.4224243164062 235.59434509277344 L 547.6290283203125 234.9714813232422 L 558.7799682617188 234.34548950195312 L 569.912353515625 233.7184600830078 L 581.0632934570312 233.09246826171875 L 592.2698974609375 232.4696044921875 L 603.5691528320312 231.8519744873047 L 614.998291015625 231.2416534423828 L 626.59423828125 230.64073181152344 L 638.3942260742188 230.05130004882812 L 650.435302734375 229.4754638671875 L 662.7544555664062 228.915283203125 L 675.388916015625 228.3728790283203 L 688.3756713867188 227.85031127929688 L 701.7518920898438 227.34970092773438 L 715.5545654296875 226.87310791015625 L 729.8208618164062 226.42263793945312 L 744.5878295898438 226.0003662109375 L 759.892578125 225.60841369628906 L 775.7721557617188 225.2488250732422 L 792.263671875 224.92373657226562 L 809.4042358398438 224.6352081298828 L 827.2308959960938 224.3853302001953 L 845.7808227539062 224.1761932373047 L 865.0910034179688 224.00990295410156 L 885.1985473632812 223.88853454589844 L 906.1405639648438 223.81417846679688 L 927.9541015625 223.7889404296875 L 927.9541015625 223.7889404296875 L 927.9541015625 186.22732543945312 L 927.9541015625 186.22732543945312 L 906.1405639648438 186.25257873535156 L 885.1985473632812 186.32693481445312 L 865.0910034179688 186.44830322265625 L 845.7808227539062 186.61459350585938 L 827.2308959960938 186.82371520996094 L 809.4042358398438 187.07359313964844 L 792.263671875 187.36212158203125 L 775.7721557617188 187.68722534179688 L 759.892578125 188.0467987060547 L 744.5878295898438 188.4387664794922 L 729.8208618164062 188.86102294921875 L 715.5545654296875 189.31150817871094 L 701.7518920898438 189.7880859375 L 688.3756713867188 190.28871154785156 L 675.388916015625 190.811279296875 L 662.7544555664062 191.3536834716797 L 650.435302734375 191.91384887695312 L 638.3942260742188 192.4897003173828 L 626.59423828125 193.07913208007812 L 614.998291015625 193.68003845214844 L 603.5691528320312 194.2903594970703 L 592.2698974609375 194.9080047607422 L 581.0632934570312 195.53085327148438 L 569.912353515625 196.15684509277344 L 558.7799682617188 196.7838897705078 L 547.6290283203125 197.40988159179688 L 536.4224243164062 198.03274536132812 L 525.1231079101562 198.65037536621094 L 513.6940307617188 199.2606964111328 L 502.0980529785156 199.8616180419922 L 490.2980651855469 200.4510498046875 L 478.25701904296875 201.02688598632812 L 465.9378356933594 201.58706665039062 L 453.3033752441406 202.1294708251953 L 440.3166198730469 202.65203857421875 L 426.9404296875 203.15264892578125 L 413.1377258300781 203.62924194335938 L 398.8714294433594 204.0797119140625 L 384.1044921875 204.50196838378906 L 368.79974365234375 204.89393615722656 L 352.920166015625 205.25350952148438 L 336.4286193847656 205.57861328125 L 319.2880554199219 205.8671417236328 L 301.4613952636719 206.1170196533203 L 282.9114990234375 206.32615661621094 L 263.601318359375 206.49244689941406 L 243.4937744140625 206.6138153076172 L 222.5517578125 206.6881561279297 L 200.73818969726562 206.71340942382812 Z" fill-opacity="0.6" clip-path="url(#TveQNfyqMTFR)" stroke-opacity="1" stroke-linejoin="bevel" stroke-miterlimit="10" stroke-width="0.8" stroke-dasharray=""/><path fill="rgb(140,86,75)" stroke="rgb(140,86,75)" paint-order="fill" d="M 200.73818969726562 174.5177459716797 L 200.73818969726562 206.71340942382812 L 200.73818969726562 206.71340942382812 L 222.5517578125 206.68295288085938 L 243.4937744140625 206.59324645996094 L 263.601318359375 206.4468231201172 L 282.9114990234375 206.24620056152344 L 301.4613952636719 205.993896484375 L 319.2880554199219 205.69244384765625 L 336.4286193847656 205.34434509277344 L 352.920166015625 204.95213317871094 L 368.79974365234375 204.51832580566406 L 384.1044921875 204.0454559326172 L 398.8714294433594 203.53602600097656 L 413.1377258300781 202.9925537109375 L 426.9404296875 202.41757202148438 L 440.3166198730469 201.81361389160156 L 453.3033752441406 201.1831817626953 L 465.9378356933594 200.52879333496094 L 478.25701904296875 199.8529815673828 L 490.2980651855469 199.15826416015625 L 502.0980529785156 198.4471435546875 L 513.6940307617188 197.72218322753906 L 525.1231079101562 196.98587036132812 L 536.4224243164062 196.24072265625 L 547.6290283203125 195.48928833007812 L 558.7799682617188 194.73406982421875 L 569.912353515625 193.9775848388672 L 581.0632934570312 193.2223663330078 L 592.2698974609375 192.47091674804688 L 603.5691528320312 191.7257843017578 L 614.998291015625 190.98947143554688 L 626.59423828125 190.26449584960938 L 638.3942260742188 189.5533905029297 L 650.435302734375 188.85867309570312 L 662.7544555664062 188.182861328125 L 675.388916015625 187.52847290039062 L 688.3756713867188 186.89804077148438 L 701.7518920898438 186.2940673828125 L 715.5545654296875 185.71910095214844 L 729.8208618164062 185.17562866210938 L 744.5878295898438 184.66619873046875 L 759.892578125 184.1933135986328 L 775.7721557617188 183.75950622558594 L 792.263671875 183.3673095703125 L 809.4042358398438 183.0192108154297 L 827.2308959960938 182.71774291992188 L 845.7808227539062 182.4654541015625 L 865.0910034179688 182.26483154296875 L 885.1985473632812 182.118408203125 L 906.1405639648438 182.02870178222656 L 927.9541015625 181.9982452392578 L 927.9541015625 181.9982452392578 L 927.9541015625 149.80258178710938 L 927.9541015625 149.80258178710938 L 906.1405639648438 149.83303833007812 L 885.1985473632812 149.92274475097656 L 865.0910034179688 150.0691680908203 L 845.7808227539062 150.26979064941406 L 827.2308959960938 150.5220947265625 L 809.4042358398438 150.82354736328125 L 792.263671875 151.17164611816406 L 775.7721557617188 151.56385803222656 L 759.892578125 151.99766540527344 L 744.5878295898438 152.4705352783203 L 729.8208618164062 152.97996520996094 L 715.5545654296875 153.5234375 L 701.7518920898438 154.09841918945312 L 688.3756713867188 154.70237731933594 L 675.388916015625 155.33282470703125 L 662.7544555664062 155.98719787597656 L 650.435302734375 156.6630096435547 L 638.3942260742188 157.3577423095703 L 626.59423828125 158.06884765625 L 614.998291015625 158.79380798339844 L 603.5691528320312 159.53012084960938 L 592.2698974609375 160.2752685546875 L 581.0632934570312 161.02670288085938 L 569.912353515625 161.78192138671875 L 558.7799682617188 162.5384063720703 L 547.6290283203125 163.2936248779297 L 536.4224243164062 164.04507446289062 L 525.1231079101562 164.7902069091797 L 513.6940307617188 165.52651977539062 L 502.0980529785156 166.25149536132812 L 490.2980651855469 166.9626007080078 L 478.25701904296875 167.65731811523438 L 465.9378356933594 168.3331298828125 L 453.3033752441406 168.98751831054688 L 440.3166198730469 169.61795043945312 L 426.9404296875 170.221923828125 L 413.1377258300781 170.79689025878906 L 398.8714294433594 171.34036254882812 L 384.1044921875 171.84979248046875 L 368.79974365234375 172.3226776123047 L 352.920166015625 172.75648498535156 L 336.4286193847656 173.14869689941406 L 319.2880554199219 173.4967803955078 L 301.4613952636719 173.79824829101562 L 282.9114990234375 174.050537109375 L 263.601318359375 174.25115966796875 L 243.4937744140625 174.3975830078125 L 222.5517578125 174.48728942871094 L 200.73818969726562 174.5177459716797 Z" fill-opacity="0.6" clip-path="url(#TveQNfyqMTFR)" stroke-opacity="1" stroke-linejoin="bevel" stroke-miterlimit="10" stroke-width="0.8" stroke-dasharray=""/><path fill="rgb(196,156,148)" stroke="rgb(196,156,148)" paint-order="fill" d="M 200.73818969726562 147.6880340576172 L 200.73818969726562 174.5177459716797 L 200.73818969726562 174.5177459716797 L 222.5517578125 174.48207092285156 L 243.4937744140625 174.3770294189453 L 263.601318359375 174.20555114746094 L 282.9114990234375 173.97059631347656 L 301.4613952636719 173.6751251220703 L 319.2880554199219 173.32208251953125 L 336.4286193847656 172.9144287109375 L 352.920166015625 172.45510864257812 L 368.79974365234375 171.9470672607422 L 384.1044921875 171.3932647705078 L 398.8714294433594 170.79666137695312 L 413.1377258300781 170.1602020263672 L 426.9404296875 169.48684692382812 L 440.3166198730469 168.77952575683594 L 453.3033752441406 168.0412139892578 L 465.9378356933594 167.2748565673828 L 478.25701904296875 166.4833984375 L 490.2980651855469 165.66981506347656 L 502.0980529785156 164.83702087402344 L 513.6940307617188 163.98800659179688 L 525.1231079101562 163.12570190429688 L 536.4224243164062 162.2530517578125 L 547.6290283203125 161.37303161621094 L 558.7799682617188 160.48858642578125 L 569.912353515625 159.6026611328125 L 581.0632934570312 158.71820068359375 L 592.2698974609375 157.8381805419922 L 603.5691528320312 156.96554565429688 L 614.998291015625 156.10324096679688 L 626.59423828125 155.25421142578125 L 638.3942260742188 154.4214324951172 L 650.435302734375 153.6078338623047 L 662.7544555664062 152.81637573242188 L 675.388916015625 152.05001831054688 L 688.3756713867188 151.31170654296875 L 701.7518920898438 150.60440063476562 L 715.5545654296875 149.9310302734375 L 729.8208618164062 149.29457092285156 L 744.5878295898438 148.69796752929688 L 759.892578125 148.14418029785156 L 775.7721557617188 147.63613891601562 L 792.263671875 147.17681884765625 L 809.4042358398438 146.7691650390625 L 827.2308959960938 146.41612243652344 L 845.7808227539062 146.12063598632812 L 865.0910034179688 145.8856964111328 L 885.1985473632812 145.71421813964844 L 906.1405639648438 145.60916137695312 L 927.9541015625 145.573486328125 L 927.9541015625 145.573486328125 L 927.9541015625 118.7437744140625 L 927.9541015625 118.7437744140625 L 906.1405639648438 118.77944946289062 L 885.1985473632812 118.8844985961914 L 865.0910034179688 119.05597686767578 L 845.7808227539062 119.29092407226562 L 827.2308959960938 119.5864028930664 L 809.4042358398438 119.93943786621094 L 792.263671875 120.34709930419922 L 775.7721557617188 120.8064193725586 L 759.892578125 121.31446075439453 L 744.5878295898438 121.86825561523438 L 729.8208618164062 122.46485900878906 L 715.5545654296875 123.101318359375 L 701.7518920898438 123.7746810913086 L 688.3756713867188 124.48199462890625 L 675.388916015625 125.22030639648438 L 662.7544555664062 125.98666381835938 L 650.435302734375 126.77812194824219 L 638.3942260742188 127.59171295166016 L 626.59423828125 128.42449951171875 L 614.998291015625 129.27352905273438 L 603.5691528320312 130.13583374023438 L 592.2698974609375 131.0084686279297 L 581.0632934570312 131.88848876953125 L 569.912353515625 132.77293395996094 L 558.7799682617188 133.65887451171875 L 547.6290283203125 134.54331970214844 L 536.4224243164062 135.42333984375 L 525.1231079101562 136.2959747314453 L 513.6940307617188 137.1582794189453 L 502.0980529785156 138.00730895996094 L 490.2980651855469 138.840087890625 L 478.25701904296875 139.6536865234375 L 465.9378356933594 140.4451446533203 L 453.3033752441406 141.2115020751953 L 440.3166198730469 141.94981384277344 L 426.9404296875 142.65713500976562 L 413.1377258300781 143.3304901123047 L 398.8714294433594 143.96694946289062 L 384.1044921875 144.5635528564453 L 368.79974365234375 145.1173553466797 L 352.920166015625 145.62538146972656 L 336.4286193847656 146.08470153808594 L 319.2880554199219 146.49237060546875 L 301.4613952636719 146.8454132080078 L 282.9114990234375 147.14088439941406 L 263.601318359375 147.37583923339844 L 243.4937744140625 147.5473175048828 L 222.5517578125 147.65235900878906 L 200.73818969726562 147.6880340576172 Z" fill-opacity="0.6" clip-path="url(#TveQNfyqMTFR)" stroke-opacity="1" stroke-linejoin="bevel" stroke-miterlimit="10" stroke-width="0.8" stroke-dasharray=""/><path fill="rgb(227,119,194)" stroke="rgb(227,119,194)" paint-order="fill" d="M 200.73818969726562 142.3220977783203 L 200.73818969726562 147.6880340576172 L 200.73818969726562 147.6880340576172 L 222.5517578125 147.64715576171875 L 243.4937744140625 147.52674865722656 L 263.601318359375 147.33021545410156 L 282.9114990234375 147.06094360351562 L 301.4613952636719 146.7222900390625 L 319.2880554199219 146.3176727294922 L 336.4286193847656 145.85044860839844 L 352.920166015625 145.32400512695312 L 368.79974365234375 144.7417449951172 L 384.1044921875 144.10702514648438 L 398.8714294433594 143.4232635498047 L 413.1377258300781 142.6938018798828 L 426.9404296875 141.92205810546875 L 440.3166198730469 141.11138916015625 L 453.3033752441406 140.26519775390625 L 465.9378356933594 139.38687133789062 L 478.25701904296875 138.4797821044922 L 490.2980651855469 137.54730224609375 L 502.0980529785156 136.5928497314453 L 513.6940307617188 135.61976623535156 L 525.1231079101562 134.6314697265625 L 536.4224243164062 133.63131713867188 L 547.6290283203125 132.6227264404297 L 558.7799682617188 131.60903930664062 L 569.912353515625 130.5936737060547 L 581.0632934570312 129.5800018310547 L 592.2698974609375 128.57139587402344 L 603.5691528320312 127.57125091552734 L 614.998291015625 126.58294677734375 L 626.59423828125 125.60987091064453 L 638.3942260742188 124.65541076660156 L 650.435302734375 123.72293853759766 L 662.7544555664062 122.81584167480469 L 675.388916015625 121.93751525878906 L 688.3756713867188 121.09132385253906 L 701.7518920898438 120.2806625366211 L 715.5545654296875 119.5089111328125 L 729.8208618164062 118.77946472167969 L 744.5878295898438 118.09568786621094 L 759.892578125 117.46097564697266 L 775.7721557617188 116.87870788574219 L 792.263671875 116.3522720336914 L 809.4042358398438 115.88504791259766 L 827.2308959960938 115.48042297363281 L 845.7808227539062 115.14178466796875 L 865.0910034179688 114.87249755859375 L 885.1985473632812 114.67597198486328 L 906.1405639648438 114.5555648803711 L 927.9541015625 114.51467895507812 L 927.9541015625 114.51467895507812 L 927.9541015625 109.14874267578125 L 927.9541015625 109.14874267578125 L 906.1405639648438 109.18962097167969 L 885.1985473632812 109.31002807617188 L 865.0910034179688 109.50656127929688 L 845.7808227539062 109.77584075927734 L 827.2308959960938 110.1144790649414 L 809.4042358398438 110.51910400390625 L 792.263671875 110.986328125 L 775.7721557617188 111.51276397705078 L 759.892578125 112.09503173828125 L 744.5878295898438 112.72974395751953 L 729.8208618164062 113.41352081298828 L 715.5545654296875 114.14297485351562 L 701.7518920898438 114.91471862792969 L 688.3756713867188 115.72537994384766 L 675.388916015625 116.57157135009766 L 662.7544555664062 117.44990539550781 L 650.435302734375 118.35699462890625 L 638.3942260742188 119.28946685791016 L 626.59423828125 120.24393463134766 L 614.998291015625 121.21700286865234 L 603.5691528320312 122.20530700683594 L 592.2698974609375 123.20545196533203 L 581.0632934570312 124.21405029296875 L 569.912353515625 125.22772979736328 L 558.7799682617188 126.24310302734375 L 547.6290283203125 127.25677490234375 L 536.4224243164062 128.265380859375 L 525.1231079101562 129.26551818847656 L 513.6940307617188 130.2538299560547 L 502.0980529785156 131.22689819335938 L 490.2980651855469 132.18136596679688 L 478.25701904296875 133.11383056640625 L 465.9378356933594 134.02093505859375 L 453.3033752441406 134.89926147460938 L 440.3166198730469 135.74545288085938 L 426.9404296875 136.5561065673828 L 413.1377258300781 137.32786560058594 L 398.8714294433594 138.05731201171875 L 384.1044921875 138.7410888671875 L 368.79974365234375 139.37579345703125 L 352.920166015625 139.95806884765625 L 336.4286193847656 140.4844970703125 L 319.2880554199219 140.95172119140625 L 301.4613952636719 141.35635375976562 L 282.9114990234375 141.6949920654297 L 263.601318359375 141.9642791748047 L 243.4937744140625 142.1608123779297 L 222.5517578125 142.2812042236328 L 200.73818969726562 142.3220977783203 Z" fill-opacity="0.6" clip-path="url(#TveQNfyqMTFR)" stroke-opacity="1" stroke-linejoin="bevel" stroke-miterlimit="10" stroke-width="0.8" stroke-dasharray=""/><path fill="rgb(247,182,210)" stroke="rgb(247,182,210)" paint-order="fill" d="M 200.73818969726562 136.95614624023438 L 200.73818969726562 142.3220977783203 L 200.73818969726562 142.3220977783203 L 222.5517578125 142.2760009765625 L 243.4937744140625 142.14024353027344 L 263.601318359375 141.9186553955078 L 282.9114990234375 141.61505126953125 L 301.4613952636719 141.2332305908203 L 319.2880554199219 140.7770233154297 L 336.4286193847656 140.25022888183594 L 352.920166015625 139.6566925048828 L 368.79974365234375 139.0001983642578 L 384.1044921875 138.28456115722656 L 398.8714294433594 137.5136260986328 L 413.1377258300781 136.69117736816406 L 426.9404296875 135.82102966308594 L 440.3166198730469 134.9070281982422 L 453.3033752441406 133.95297241210938 L 465.9378356933594 132.96266174316406 L 478.25701904296875 131.93992614746094 L 490.2980651855469 130.88858032226562 L 502.0980529785156 129.81243896484375 L 513.6940307617188 128.71530151367188 L 525.1231079101562 127.60101318359375 L 536.4224243164062 126.4733657836914 L 547.6290283203125 125.336181640625 L 558.7799682617188 124.19327545166016 L 569.912353515625 123.0484619140625 L 581.0632934570312 121.90555572509766 L 592.2698974609375 120.76837158203125 L 603.5691528320312 119.6407241821289 L 614.998291015625 118.52643585205078 L 626.59423828125 117.42930603027344 L 638.3942260742188 116.35316467285156 L 650.435302734375 115.30181884765625 L 662.7544555664062 114.27908325195312 L 675.388916015625 113.28877258300781 L 688.3756713867188 112.33470916748047 L 701.7518920898438 111.42070007324219 L 715.5545654296875 110.55056762695312 L 729.8208618164062 109.72811889648438 L 744.5878295898438 108.9571762084961 L 759.892578125 108.24154663085938 L 775.7721557617188 107.58505249023438 L 792.263671875 106.99150085449219 L 809.4042358398438 106.46471405029297 L 827.2308959960938 106.00850677490234 L 845.7808227539062 105.62669372558594 L 865.0910034179688 105.32308197021484 L 885.1985473632812 105.10149383544922 L 906.1405639648438 104.96574401855469 L 927.9541015625 104.91964721679688 L 927.9541015625 104.91964721679688 L 927.9541015625 99.55370330810547 L 927.9541015625 99.55370330810547 L 906.1405639648438 99.59980010986328 L 885.1985473632812 99.73554992675781 L 865.0910034179688 99.95713806152344 L 845.7808227539062 100.26074981689453 L 827.2308959960938 100.64256286621094 L 809.4042358398438 101.0987777709961 L 792.263671875 101.62555694580078 L 775.7721557617188 102.21910858154297 L 759.892578125 102.87560272216797 L 744.5878295898438 103.59123229980469 L 729.8208618164062 104.36217498779297 L 715.5545654296875 105.18462371826172 L 701.7518920898438 106.05475616455078 L 688.3756713867188 106.96876525878906 L 675.388916015625 107.9228286743164 L 662.7544555664062 108.91313934326172 L 650.435302734375 109.93587493896484 L 638.3942260742188 110.98722076416016 L 626.59423828125 112.06336212158203 L 614.998291015625 113.16049194335938 L 603.5691528320312 114.2747802734375 L 592.2698974609375 115.40242767333984 L 581.0632934570312 116.53961181640625 L 569.912353515625 117.6825180053711 L 558.7799682617188 118.82733154296875 L 547.6290283203125 119.9702377319336 L 536.4224243164062 121.107421875 L 525.1231079101562 122.23506927490234 L 513.6940307617188 123.349365234375 L 502.0980529785156 124.44648742675781 L 490.2980651855469 125.52263641357422 L 478.25701904296875 126.57398223876953 L 465.9378356933594 127.59671783447266 L 453.3033752441406 128.58702087402344 L 440.3166198730469 129.5410919189453 L 426.9404296875 130.45509338378906 L 413.1377258300781 131.32522583007812 L 398.8714294433594 132.14767456054688 L 384.1044921875 132.9186248779297 L 368.79974365234375 133.63424682617188 L 352.920166015625 134.29074096679688 L 336.4286193847656 134.88429260253906 L 319.2880554199219 135.41107177734375 L 301.4613952636719 135.86729431152344 L 282.9114990234375 136.2490997314453 L 263.601318359375 136.55271911621094 L 243.4937744140625 136.77430725097656 L 222.5517578125 136.91004943847656 L 200.73818969726562 136.95614624023438 Z" fill-opacity="0.6" clip-path="url(#TveQNfyqMTFR)" stroke-opacity="1" stroke-linejoin="bevel" stroke-miterlimit="10" stroke-width="0.8" stroke-dasharray=""/><path fill="rgb(127,127,127)" stroke="rgb(127,127,127)" paint-order="fill" d="M 200.73818969726562 131.5902099609375 L 200.73818969726562 136.95614624023438 L 200.73818969726562 136.95614624023438 L 222.5517578125 136.90484619140625 L 243.4937744140625 136.7537384033203 L 263.601318359375 136.50709533691406 L 282.9114990234375 136.16915893554688 L 301.4613952636719 135.74417114257812 L 319.2880554199219 135.2363739013672 L 336.4286193847656 134.6500244140625 L 352.920166015625 133.98936462402344 L 368.79974365234375 133.25863647460938 L 384.1044921875 132.46209716796875 L 398.8714294433594 131.60398864746094 L 413.1377258300781 130.68853759765625 L 426.9404296875 129.7200164794922 L 440.3166198730469 128.70266723632812 L 453.3033752441406 127.6407241821289 L 465.9378356933594 126.53844451904297 L 478.25701904296875 125.40007019042969 L 490.2980651855469 124.22985076904297 L 502.0980529785156 123.03202819824219 L 513.6940307617188 121.81084442138672 L 525.1231079101562 120.570556640625 L 536.4224243164062 119.3154067993164 L 547.6290283203125 118.04964447021484 L 558.7799682617188 116.77751159667969 L 569.912353515625 115.50325012207031 L 581.0632934570312 114.23111724853516 L 592.2698974609375 112.9653549194336 L 603.5691528320312 111.710205078125 L 614.998291015625 110.46991729736328 L 626.59423828125 109.24874114990234 L 638.3942260742188 108.05091094970703 L 650.435302734375 106.88069152832031 L 662.7544555664062 105.74231719970703 L 675.388916015625 104.6400375366211 L 688.3756713867188 103.57809448242188 L 701.7518920898438 102.56074523925781 L 715.5545654296875 101.59222412109375 L 729.8208618164062 100.6767807006836 L 744.5878295898438 99.81866455078125 L 759.892578125 99.0221176147461 L 775.7721557617188 98.29139709472656 L 792.263671875 97.6307373046875 L 809.4042358398438 97.04438781738281 L 827.2308959960938 96.53659057617188 L 845.7808227539062 96.11160278320312 L 865.0910034179688 95.77366638183594 L 885.1985473632812 95.52702331542969 L 906.1405639648438 95.37592315673828 L 927.9541015625 95.32461547851562 L 927.9541015625 95.32461547851562 L 927.9541015625 89.95867156982422 L 927.9541015625 89.95867156982422 L 906.1405639648438 90.00997924804688 L 885.1985473632812 90.16107940673828 L 865.0910034179688 90.40772247314453 L 845.7808227539062 90.74565887451172 L 827.2308959960938 91.17064666748047 L 809.4042358398438 91.6784439086914 L 792.263671875 92.2647933959961 L 775.7721557617188 92.92545318603516 L 759.892578125 93.65617370605469 L 744.5878295898438 94.45272064208984 L 729.8208618164062 95.31083679199219 L 715.5545654296875 96.22628021240234 L 701.7518920898438 97.1948013305664 L 688.3756713867188 98.21215057373047 L 675.388916015625 99.27409362792969 L 662.7544555664062 100.37637329101562 L 650.435302734375 101.5147476196289 L 638.3942260742188 102.68497467041016 L 626.59423828125 103.88279724121094 L 614.998291015625 105.10397338867188 L 603.5691528320312 106.3442611694336 L 592.2698974609375 107.59941101074219 L 581.0632934570312 108.86517333984375 L 569.912353515625 110.1373062133789 L 558.7799682617188 111.41156768798828 L 547.6290283203125 112.68370056152344 L 536.4224243164062 113.949462890625 L 525.1231079101562 115.2046127319336 L 513.6940307617188 116.44490051269531 L 502.0980529785156 117.66608428955078 L 490.2980651855469 118.86390686035156 L 478.25701904296875 120.03412628173828 L 465.9378356933594 121.17250061035156 L 453.3033752441406 122.2747802734375 L 440.3166198730469 123.33672332763672 L 426.9404296875 124.35408020019531 L 413.1377258300781 125.32260131835938 L 398.8714294433594 126.238037109375 L 384.1044921875 127.09615325927734 L 368.79974365234375 127.8927001953125 L 352.920166015625 128.62342834472656 L 336.4286193847656 129.28408813476562 L 319.2880554199219 129.8704376220703 L 301.4613952636719 130.3782196044922 L 282.9114990234375 130.80322265625 L 263.601318359375 131.1411590576172 L 243.4937744140625 131.38780212402344 L 222.5517578125 131.5388946533203 L 200.73818969726562 131.5902099609375 Z" fill-opacity="0.6" clip-path="url(#TveQNfyqMTFR)" stroke-opacity="1" stroke-linejoin="bevel" stroke-miterlimit="10" stroke-width="0.8" stroke-dasharray=""/><path fill="rgb(199,199,199)" stroke="rgb(199,199,199)" paint-order="fill" d="M 200.73818969726562 126.22425842285156 L 200.73818969726562 131.5902099609375 L 200.73818969726562 131.5902099609375 L 222.5517578125 131.53367614746094 L 243.4937744140625 131.3672332763672 L 263.601318359375 131.0955352783203 L 282.9114990234375 130.7232666015625 L 301.4613952636719 130.25511169433594 L 319.2880554199219 129.69573974609375 L 336.4286193847656 129.04981994628906 L 352.920166015625 128.3220443725586 L 368.79974365234375 127.51708984375 L 384.1044921875 126.63963317871094 L 398.8714294433594 125.69434356689453 L 413.1377258300781 124.6859130859375 L 426.9404296875 123.61900329589844 L 440.3166198730469 122.49830627441406 L 453.3033752441406 121.32848358154297 L 465.9378356933594 120.1142349243164 L 478.25701904296875 118.86021423339844 L 490.2980651855469 117.57112121582031 L 502.0980529785156 116.25161743164062 L 513.6940307617188 114.90638732910156 L 525.1231079101562 113.54010772705078 L 536.4224243164062 112.15745544433594 L 547.6290283203125 110.76310729980469 L 558.7799682617188 109.36174011230469 L 569.912353515625 107.95803833007812 L 581.0632934570312 106.55667877197266 L 592.2698974609375 105.1623306274414 L 603.5691528320312 103.77967834472656 L 614.998291015625 102.41339874267578 L 626.59423828125 101.06816864013672 L 638.3942260742188 99.74866485595703 L 650.435302734375 98.4595718383789 L 662.7544555664062 97.20555114746094 L 675.388916015625 95.99129486083984 L 688.3756713867188 94.82147979736328 L 701.7518920898438 93.7007827758789 L 715.5545654296875 92.63387298583984 L 729.8208618164062 91.62544250488281 L 744.5878295898438 90.6801528930664 L 759.892578125 89.80269622802734 L 775.7721557617188 88.99773406982422 L 792.263671875 88.26996612548828 L 809.4042358398438 87.62405395507812 L 827.2308959960938 87.0646743774414 L 845.7808227539062 86.59651184082031 L 865.0910034179688 86.22425079345703 L 885.1985473632812 85.95255279541016 L 906.1405639648438 85.78610229492188 L 927.9541015625 85.72957611083984 L 927.9541015625 85.72957611083984 L 927.9541015625 80.36363983154297 L 927.9541015625 80.36363983154297 L 906.1405639648438 80.42015838623047 L 885.1985473632812 80.58660888671875 L 865.0910034179688 80.85830688476562 L 845.7808227539062 81.2305679321289 L 827.2308959960938 81.69873046875 L 809.4042358398438 82.25811004638672 L 792.263671875 82.90402221679688 L 775.7721557617188 83.63179779052734 L 759.892578125 84.43675231933594 L 744.5878295898438 85.314208984375 L 729.8208618164062 86.2594985961914 L 715.5545654296875 87.26792907714844 L 701.7518920898438 88.3348388671875 L 688.3756713867188 89.45553588867188 L 675.388916015625 90.62535858154297 L 662.7544555664062 91.83960723876953 L 650.435302734375 93.0936279296875 L 638.3942260742188 94.38272094726562 L 626.59423828125 95.70222473144531 L 614.998291015625 97.04745483398438 L 603.5691528320312 98.41373443603516 L 592.2698974609375 99.79638671875 L 581.0632934570312 101.19073486328125 L 569.912353515625 102.59210205078125 L 558.7799682617188 103.99580383300781 L 547.6290283203125 105.39716339111328 L 536.4224243164062 106.79151153564453 L 525.1231079101562 108.17416381835938 L 513.6940307617188 109.54044342041016 L 502.0980529785156 110.88567352294922 L 490.2980651855469 112.2051773071289 L 478.25701904296875 113.49427032470703 L 465.9378356933594 114.748291015625 L 453.3033752441406 115.96253967285156 L 440.3166198730469 117.13236236572266 L 426.9404296875 118.25305938720703 L 413.1377258300781 119.3199691772461 L 398.8714294433594 120.32839965820312 L 384.1044921875 121.27368927001953 L 368.79974365234375 122.1511459350586 L 352.920166015625 122.95610046386719 L 336.4286193847656 123.68387603759766 L 319.2880554199219 124.32978820800781 L 301.4613952636719 124.88916778564453 L 282.9114990234375 125.35733032226562 L 263.601318359375 125.7295913696289 L 243.4937744140625 126.00128936767578 L 222.5517578125 126.16773986816406 L 200.73818969726562 126.22425842285156 Z" fill-opacity="0.6" clip-path="url(#TveQNfyqMTFR)" stroke-opacity="1" stroke-linejoin="bevel" stroke-miterlimit="10" stroke-width="0.8" stroke-dasharray=""/><path fill="rgb(31,119,180)" stroke="rgb(0,0,0)" paint-order="fill" d="M 189.49258422851562 126.22425842285156 L 200.73818969726562 126.22425842285156 L 200.73818969726562 1124.2896728515625 L 189.49258422851562 1124.2896728515625 L 189.49258422851562 126.22425842285156" fill-opacity="0.9019607843137255" clip-path="url(#KwRWZEvdGfzK)" stroke-opacity="0.2" stroke-linejoin="bevel" stroke-miterlimit="10" stroke-width="0.5" stroke-dasharray=""/><path fill="rgb(174,199,232)" stroke="rgb(0,0,0)" paint-order="fill" d="M 927.9541015625 928.3645629882812 L 939.19970703125 928.3645629882812 L 939.19970703125 1137.6363525390625 L 927.9541015625 1137.6363525390625 L 927.9541015625 928.3645629882812" fill-opacity="0.9019607843137255" clip-path="url(#KwRWZEvdGfzK)" stroke-opacity="0.2" stroke-linejoin="bevel" stroke-miterlimit="10" stroke-width="0.5" stroke-dasharray=""/><path fill="rgb(255,127,14)" stroke="rgb(0,0,0)" paint-order="fill" d="M 927.9541015625 747.059326171875 L 939.19970703125 747.059326171875 L 939.19970703125 924.135498046875 L 927.9541015625 924.135498046875 L 927.9541015625 747.059326171875" fill-opacity="0.9019607843137255" clip-path="url(#KwRWZEvdGfzK)" stroke-opacity="0.2" stroke-linejoin="bevel" stroke-miterlimit="10" stroke-width="0.5" stroke-dasharray=""/><path fill="rgb(255,187,120)" stroke="rgb(0,0,0)" paint-order="fill" d="M 927.9541015625 597.9497680664062 L 939.19970703125 597.9497680664062 L 939.19970703125 742.8302612304688 L 927.9541015625 742.8302612304688 L 927.9541015625 597.9497680664062" fill-opacity="0.9019607843137255" clip-path="url(#KwRWZEvdGfzK)" stroke-opacity="0.2" stroke-linejoin="bevel" stroke-miterlimit="10" stroke-width="0.5" stroke-dasharray=""/><path fill="rgb(44,160,44)" stroke="rgb(0,0,0)" paint-order="fill" d="M 927.9541015625 459.5721130371094 L 939.19970703125 459.5721130371094 L 939.19970703125 593.720703125 L 927.9541015625 593.720703125 L 927.9541015625 459.5721130371094" fill-opacity="0.9019607843137255" clip-path="url(#KwRWZEvdGfzK)" stroke-opacity="0.2" stroke-linejoin="bevel" stroke-miterlimit="10" stroke-width="0.5" stroke-dasharray=""/><path fill="rgb(152,223,138)" stroke="rgb(0,0,0)" paint-order="fill" d="M 927.9541015625 390.95172119140625 L 939.19970703125 390.95172119140625 L 939.19970703125 455.343017578125 L 927.9541015625 455.343017578125 L 927.9541015625 390.95172119140625" fill-opacity="0.9019607843137255" clip-path="url(#KwRWZEvdGfzK)" stroke-opacity="0.2" stroke-linejoin="bevel" stroke-miterlimit="10" stroke-width="0.5" stroke-dasharray=""/><path fill="rgb(214,39,40)" stroke="rgb(0,0,0)" paint-order="fill" d="M 927.9541015625 333.0632019042969 L 939.19970703125 333.0632019042969 L 939.19970703125 386.7226257324219 L 927.9541015625 386.7226257324219 L 927.9541015625 333.0632019042969" fill-opacity="0.9019607843137255" clip-path="url(#KwRWZEvdGfzK)" stroke-opacity="0.2" stroke-linejoin="bevel" stroke-miterlimit="10" stroke-width="0.5" stroke-dasharray=""/><path fill="rgb(255,152,150)" stroke="rgb(0,0,0)" paint-order="fill" d="M 927.9541015625 280.5406188964844 L 939.19970703125 280.5406188964844 L 939.19970703125 328.8341064453125 L 927.9541015625 328.8341064453125 L 927.9541015625 280.5406188964844" fill-opacity="0.9019607843137255" clip-path="url(#KwRWZEvdGfzK)" stroke-opacity="0.2" stroke-linejoin="bevel" stroke-miterlimit="10" stroke-width="0.5" stroke-dasharray=""/><path fill="rgb(148,103,189)" stroke="rgb(0,0,0)" paint-order="fill" d="M 927.9541015625 228.0180206298828 L 939.19970703125 228.0180206298828 L 939.19970703125 276.3115234375 L 927.9541015625 276.3115234375 L 927.9541015625 228.0180206298828" fill-opacity="0.9019607843137255" clip-path="url(#KwRWZEvdGfzK)" stroke-opacity="0.2" stroke-linejoin="bevel" stroke-miterlimit="10" stroke-width="0.5" stroke-dasharray=""/><path fill="rgb(197,176,213)" stroke="rgb(0,0,0)" paint-order="fill" d="M 927.9541015625 186.22732543945312 L 939.19970703125 186.22732543945312 L 939.19970703125 223.7889404296875 L 927.9541015625 223.7889404296875 L 927.9541015625 186.22732543945312" fill-opacity="0.9019607843137255" clip-path="url(#KwRWZEvdGfzK)" stroke-opacity="0.2" stroke-linejoin="bevel" stroke-miterlimit="10" stroke-width="0.5" stroke-dasharray=""/><path fill="rgb(140,86,75)" stroke="rgb(0,0,0)" paint-order="fill" d="M 927.9541015625 149.80258178710938 L 939.19970703125 149.80258178710938 L 939.19970703125 181.9982452392578 L 927.9541015625 181.9982452392578 L 927.9541015625 149.80258178710938" fill-opacity="0.9019607843137255" clip-path="url(#KwRWZEvdGfzK)" stroke-opacity="0.2" stroke-linejoin="bevel" stroke-miterlimit="10" stroke-width="0.5" stroke-dasharray=""/><path fill="rgb(196,156,148)" stroke="rgb(0,0,0)" paint-order="fill" d="M 927.9541015625 118.7437744140625 L 939.19970703125 118.7437744140625 L 939.19970703125 145.573486328125 L 927.9541015625 145.573486328125 L 927.9541015625 118.7437744140625" fill-opacity="0.9019607843137255" clip-path="url(#KwRWZEvdGfzK)" stroke-opacity="0.2" stroke-linejoin="bevel" stroke-miterlimit="10" stroke-width="0.5" stroke-dasharray=""/><path fill="rgb(227,119,194)" stroke="rgb(0,0,0)" paint-order="fill" d="M 927.9541015625 109.14874267578125 L 939.19970703125 109.14874267578125 L 939.19970703125 114.51467895507812 L 927.9541015625 114.51467895507812 L 927.9541015625 109.14874267578125" fill-opacity="0.9019607843137255" clip-path="url(#KwRWZEvdGfzK)" stroke-opacity="0.2" stroke-linejoin="bevel" stroke-miterlimit="10" stroke-width="0.5" stroke-dasharray=""/><path fill="rgb(247,182,210)" stroke="rgb(0,0,0)" paint-order="fill" d="M 927.9541015625 99.55370330810547 L 939.19970703125 99.55370330810547 L 939.19970703125 104.91964721679688 L 927.9541015625 104.91964721679688 L 927.9541015625 99.55370330810547" fill-opacity="0.9019607843137255" clip-path="url(#KwRWZEvdGfzK)" stroke-opacity="0.2" stroke-linejoin="bevel" stroke-miterlimit="10" stroke-width="0.5" stroke-dasharray=""/><path fill="rgb(127,127,127)" stroke="rgb(0,0,0)" paint-order="fill" d="M 927.9541015625 89.95867156982422 L 939.19970703125 89.95867156982422 L 939.19970703125 95.32461547851562 L 927.9541015625 95.32461547851562 L 927.9541015625 89.95867156982422" fill-opacity="0.9019607843137255" clip-path="url(#KwRWZEvdGfzK)" stroke-opacity="0.2" stroke-linejoin="bevel" stroke-miterlimit="10" stroke-width="0.5" stroke-dasharray=""/><path fill="rgb(199,199,199)" stroke="rgb(0,0,0)" paint-order="fill" d="M 927.9541015625 80.36363983154297 L 939.19970703125 80.36363983154297 L 939.19970703125 85.72957611083984 L 927.9541015625 85.72957611083984 L 927.9541015625 80.36363983154297" fill-opacity="0.9019607843137255" clip-path="url(#KwRWZEvdGfzK)" stroke-opacity="0.2" stroke-linejoin="bevel" stroke-miterlimit="10" stroke-width="0.5" stroke-dasharray=""/><g clip-path="url(#GIDOARJRGDTO)"><text fill="rgb(0,0,0)" stroke="none" font-family="helvetica" font-size="8pt" font-style="normal" font-weight="normal" text-decoration="normal" x="0" y="0" text-anchor="end" dominant-baseline="central" transform="matrix(1, 0, 0, 1, 186.68118286132812, 625.2570190429688)" fill-opacity="1">NASA - 186</text></g><g clip-path="url(#GIDOARJRGDTO)"><text fill="rgb(0,0,0)" stroke="none" font-family="helvetica" font-size="8pt" font-style="normal" font-weight="normal" text-decoration="normal" x="0" y="0" text-anchor="end" dominant-baseline="central" transform="matrix(1, 0, 0, 1, 925.1427001953125, 1033.00048828125)" fill-opacity="1">Space Shuttle Discovery - 39</text></g><g clip-path="url(#GIDOARJRGDTO)"><text fill="rgb(0,0,0)" stroke="none" font-family="helvetica" font-size="8pt" font-style="normal" font-weight="normal" text-decoration="normal" x="0" y="0" text-anchor="end" dominant-baseline="central" transform="matrix(1, 0, 0, 1, 925.1427001953125, 835.597412109375)" fill-opacity="1">Space Shuttle Atlantis - 33</text></g><g clip-path="url(#GIDOARJRGDTO)"><text fill="rgb(0,0,0)" stroke="none" font-family="helvetica" font-size="8pt" font-style="normal" font-weight="normal" text-decoration="normal" x="0" y="0" text-anchor="end" dominant-baseline="central" transform="matrix(1, 0, 0, 1, 925.1427001953125, 670.3900146484375)" fill-opacity="1">Space Shuttle Columbia - 27</text></g><g clip-path="url(#GIDOARJRGDTO)"><text fill="rgb(0,0,0)" stroke="none" font-family="helvetica" font-size="8pt" font-style="normal" font-weight="normal" text-decoration="normal" x="0" y="0" text-anchor="end" dominant-baseline="central" transform="matrix(1, 0, 0, 1, 925.1427001953125, 526.6464233398438)" fill-opacity="1">Space Shuttle Endeavour - 25</text></g><g clip-path="url(#GIDOARJRGDTO)"><text fill="rgb(0,0,0)" stroke="none" font-family="helvetica" font-size="8pt" font-style="normal" font-weight="normal" text-decoration="normal" x="0" y="0" text-anchor="end" dominant-baseline="central" transform="matrix(1, 0, 0, 1, 925.1427001953125, 423.1473693847656)" fill-opacity="1">Saturn V - 12</text></g><g clip-path="url(#GIDOARJRGDTO)"><text fill="rgb(0,0,0)" stroke="none" font-family="helvetica" font-size="8pt" font-style="normal" font-weight="normal" text-decoration="normal" x="0" y="0" text-anchor="end" dominant-baseline="central" transform="matrix(1, 0, 0, 1, 925.1427001953125, 359.8929138183594)" fill-opacity="1">Titan II GLV - 10</text></g><g clip-path="url(#GIDOARJRGDTO)"><text fill="rgb(0,0,0)" stroke="none" font-family="helvetica" font-size="8pt" font-style="normal" font-weight="normal" text-decoration="normal" x="0" y="0" text-anchor="end" dominant-baseline="central" transform="matrix(1, 0, 0, 1, 925.1427001953125, 304.6873474121094)" fill-opacity="1">Saturn IB - 9</text></g><g clip-path="url(#GIDOARJRGDTO)"><text fill="rgb(0,0,0)" stroke="none" font-family="helvetica" font-size="8pt" font-style="normal" font-weight="normal" text-decoration="normal" x="0" y="0" text-anchor="end" dominant-baseline="central" transform="matrix(1, 0, 0, 1, 925.1427001953125, 252.16476440429688)" fill-opacity="1">Space Shuttle Challenger - 9</text></g><g clip-path="url(#GIDOARJRGDTO)"><text fill="rgb(0,0,0)" stroke="none" font-family="helvetica" font-size="8pt" font-style="normal" font-weight="normal" text-decoration="normal" x="0" y="0" text-anchor="end" dominant-baseline="central" transform="matrix(1, 0, 0, 1, 925.1427001953125, 205.0081329345703)" fill-opacity="1">Atlas-D Mercury - 7</text></g><g clip-path="url(#GIDOARJRGDTO)"><text fill="rgb(0,0,0)" stroke="none" font-family="helvetica" font-size="8pt" font-style="normal" font-weight="normal" text-decoration="normal" x="0" y="0" text-anchor="end" dominant-baseline="central" transform="matrix(1, 0, 0, 1, 925.1427001953125, 165.90040588378906)" fill-opacity="1">Saturn I - 6</text></g><g clip-path="url(#GIDOARJRGDTO)"><text fill="rgb(0,0,0)" stroke="none" font-family="helvetica" font-size="8pt" font-style="normal" font-weight="normal" text-decoration="normal" x="0" y="0" text-anchor="end" dominant-baseline="central" transform="matrix(1, 0, 0, 1, 925.1427001953125, 132.15863037109375)" fill-opacity="1">Mercury-Redstone - 5</text></g><g clip-path="url(#GIDOARJRGDTO)"><text fill="rgb(0,0,0)" stroke="none" font-family="helvetica" font-size="8pt" font-style="normal" font-weight="normal" text-decoration="normal" x="0" y="0" text-anchor="end" dominant-baseline="central" transform="matrix(1, 0, 0, 1, 925.1427001953125, 111.83171081542969)" fill-opacity="1">Ares 1-X - 1</text></g><g clip-path="url(#GIDOARJRGDTO)"><text fill="rgb(0,0,0)" stroke="none" font-family="helvetica" font-size="8pt" font-style="normal" font-weight="normal" text-decoration="normal" x="0" y="0" text-anchor="end" dominant-baseline="central" transform="matrix(1, 0, 0, 1, 925.1427001953125, 102.23667907714844)" fill-opacity="1">Scout X-1 - 1</text></g><g clip-path="url(#GIDOARJRGDTO)"><text fill="rgb(0,0,0)" stroke="none" font-family="helvetica" font-size="8pt" font-style="normal" font-weight="normal" text-decoration="normal" x="0" y="0" text-anchor="end" dominant-baseline="central" transform="matrix(1, 0, 0, 1, 925.1427001953125, 92.64163970947266)" fill-opacity="1">Scout X-3 - 1</text></g><g clip-path="url(#GIDOARJRGDTO)"><text fill="rgb(0,0,0)" stroke="none" font-family="helvetica" font-size="8pt" font-style="normal" font-weight="normal" text-decoration="normal" x="0" y="0" text-anchor="end" dominant-baseline="central" transform="matrix(1, 0, 0, 1, 925.1427001953125, 83.0466079711914)" fill-opacity="1">Scout X-4 - 1</text></g><text fill="rgb(68,68,68)" stroke="none" font-family="helvetica" font-size="13px" font-style="normal" font-weight="bold" text-decoration="normal" x="10" y="19.1689453125" text-anchor="start" dominant-baseline="alphabetic" transform="matrix(1, 0, 0, 1, 0.5, 0.5)" fill-opacity="1">NASA Rocket Successes</text></svg>