<svg version="1.1" xmlns="http://www.w3.org/2000/svg" width="1000" height="1200"><defs><clipPath id="GcyRgUKeukSq"><path fill="none" stroke="none" d="M 10.5 27.5 L 970.5 27.5 L 970.5 1190.5 L 10.5 1190.5 L 10.5 27.5"/></clipPath><clipPath id="aGJCFHVORyzQ"><path fill="none" stroke="none" d="M 10.5 27.5 L 970.5 27.5 L 970.5 1190.5 L 10.5 1190.5 L 10.5 27.5"/></clipPath><clipPath id="iIfktJktruwW"><path fill="none" stroke="none" d="M 10.5 27.5 L 970.5 27.5 L 970.5 1190.5 L 10.5 1190.5 L 10.5 27.5"/></clipPath><clipPath id="qAedTEhSxypU"><path fill="none" stroke="none" d="M 10.5 27.5 L 970.5 27.5 L 970.5 1190.5 L 10.5 1190.5 L 10.5 27.5"/></clipPath><clipPath id="caTPKsZWrlOa"><path fill="none" stroke="none" d="M 10.5 27.5 L 970.5 27.5 L 970.5 1190.5 L 10.5 1190.5 L 10.5 27.5"/></clipPath><clipPath id="wcEqaFQlgKqB"><path fill="none" stroke="none" d="M 10.5 27.5 L 970.5 27.5 L 970.5 1190.5 L 10.5 1190.5 L 10.5 27.5"/></clipPath></defs><path fill="rgb(255,255,255)" stroke="none" paint-order="stroke" d="M 0.5 0.5 L 1000.5 0.5 L 1000.5 1200.5 L 0.5 1200.5 L 0.5 0.5" fill-opacity="1"/><rect fill="#FFFFFF" stroke="none" x="10" y="27" width="960" height="1163" transform="matrix(1, 0, 0, 1, 0.5, 0.5)"/><path fill="rgb(255,250,250)" stroke="none" paint-order="stroke" d="M 10.5 27.5 L 970.5 27.5 L 970.5 1190.5 L 10.5 1190.5 L 10.5 27.5" fill-opacity="1"/><path fill="rgb(174,199,232)" stroke="rgb(174,199,232)" paint-order="fill" d="M 200.73818969726562 784.13720703125 L 200.73818969726562 1126.693603515625 L 200.73818969726562 1126.693603515625 L 222.5517578125 1126.70703125 L 243.4937744140625 1126.746826171875 L 263.601318359375 1126.8116455078125 L 282.9114990234375 1126.900390625 L 301.4613952636719 1127.01220703125 L 319.2880554199219 1127.1456298828125 L 336.4286193847656 1127.2998046875 L 352.920166015625 1127.473388671875 L 368.79974365234375 1127.66552734375 L 384.1044921875 1127.8748779296875 L 398.8714294433594 1128.100341796875 L 413.1377258300781 1128.341064453125 L 426.9404296875 1128.5955810546875 L 440.3166198730469 1128.863037109375 L 453.3033752441406 1129.14208984375 L 465.9378356933594 1129.431884765625 L 478.25701904296875 1129.7310791015625 L 490.2980651855469 1130.0386962890625 L 502.0980529785156 1130.353515625 L 513.6940307617188 1130.674560546875 L 525.1231079101562 1131.00048828125 L 536.4224243164062 1131.3304443359375 L 547.6290283203125 1131.6630859375 L 558.7799682617188 1131.99755859375 L 569.912353515625 1132.3323974609375 L 581.0632934570312 1132.6668701171875 L 592.2698974609375 1132.99951171875 L 603.5691528320312 1133.3294677734375 L 614.998291015625 1133.6553955078125 L 626.59423828125 1133.9764404296875 L 638.3942260742188 1134.291259765625 L 650.435302734375 1134.598876953125 L 662.7544555664062 1134.8980712890625 L 675.388916015625 1135.1878662109375 L 688.3756713867188 1135.4669189453125 L 701.7518920898438 1135.734375 L 715.5545654296875 1135.9888916015625 L 729.8208618164062 1136.2296142578125 L 744.5878295898438 1136.455078125 L 759.892578125 1136.6644287109375 L 775.7721557617188 1136.8565673828125 L 792.263671875 1137.0301513671875 L 809.4042358398438 1137.184326171875 L 827.2308959960938 1137.3177490234375 L 845.7808227539062 1137.4295654296875 L 865.0910034179688 1137.518310546875 L 885.1985473632812 1137.5831298828125 L 906.1405639648438 1137.6229248046875 L 927.9541015625 1137.6363525390625 L 927.9541015625 1137.6363525390625 L 927.9541015625 795.0800170898438 L 927.9541015625 795.0800170898438 L 906.1405639648438 795.0665283203125 L 885.1985473632812 795.0267944335938 L 865.0910034179688 794.9619750976562 L 845.7808227539062 794.8731689453125 L 827.2308959960938 794.7614135742188 L 809.4042358398438 794.6279907226562 L 792.263671875 794.4738159179688 L 775.7721557617188 794.3001708984375 L 759.892578125 794.1080932617188 L 744.5878295898438 793.8987426757812 L 729.8208618164062 793.6732177734375 L 715.5545654296875 793.4325561523438 L 701.7518920898438 793.177978515625 L 688.3756713867188 792.9105834960938 L 675.388916015625 792.6314697265625 L 662.7544555664062 792.3417358398438 L 650.435302734375 792.04248046875 L 638.3942260742188 791.7349243164062 L 626.59423828125 791.4200439453125 L 614.998291015625 791.0990600585938 L 603.5691528320312 790.7730712890625 L 592.2698974609375 790.4431762695312 L 581.0632934570312 790.1104736328125 L 569.912353515625 789.7760620117188 L 558.7799682617188 789.441162109375 L 547.6290283203125 789.1067504882812 L 536.4224243164062 788.7740478515625 L 525.1231079101562 788.4441528320312 L 513.6940307617188 788.1181640625 L 502.0980529785156 787.7971801757812 L 490.2980651855469 787.4822998046875 L 478.25701904296875 787.1747436523438 L 465.9378356933594 786.87548828125 L 453.3033752441406 786.5857543945312 L 440.3166198730469 786.306640625 L 426.9404296875 786.0392456054688 L 413.1377258300781 785.78466796875 L 398.8714294433594 785.5440063476562 L 384.1044921875 785.3184814453125 L 368.79974365234375 785.109130859375 L 352.920166015625 784.9170532226562 L 336.4286193847656 784.743408203125 L 319.2880554199219 784.5892944335938 L 301.4613952636719 784.455810546875 L 282.9114990234375 784.3441162109375 L 263.601318359375 784.2552490234375 L 243.4937744140625 784.1904296875 L 222.5517578125 784.1506958007812 L 200.73818969726562 784.13720703125 Z" fill-opacity="0.6" clip-path="url(#iIfktJktruwW)" stroke-opacity="1" stroke-linejoin="bevel" stroke-miterlimit="10" stroke-width="0.8" stroke-dasharray=""/><path fill="rgb(255,127,14)" stroke="rgb(255,127,14)" paint-order="fill" d="M 200.73818969726562 631.8899536132812 L 200.73818969726562 784.13720703125 L 200.73818969726562 784.13720703125 L 222.5517578125 784.1455078125 L 243.4937744140625 784.1698608398438 L 263.601318359375 784.2096557617188 L 282.9114990234375 784.26416015625 L 301.4613952636719 784.3327026367188 L 319.2880554199219 784.41455078125 L 336.4286193847656 784.5090942382812 L 352.920166015625 784.6156616210938 L 368.79974365234375 784.7335205078125 L 384.1044921875 784.8619384765625 L 398.8714294433594 785.0003662109375 L 413.1377258300781 785.14794921875 L 426.9404296875 785.3041381835938 L 440.3166198730469 785.4682006835938 L 453.3033752441406 785.6394653320312 L 465.9378356933594 785.8172607421875 L 478.25701904296875 786.0007934570312 L 490.2980651855469 786.1895141601562 L 502.0980529785156 786.3826904296875 L 513.6940307617188 786.5796508789062 L 525.1231079101562 786.7796630859375 L 536.4224243164062 786.9820556640625 L 547.6290283203125 787.1861572265625 L 558.7799682617188 787.3912963867188 L 569.912353515625 787.5968017578125 L 581.0632934570312 787.8019409179688 L 592.2698974609375 788.006103515625 L 603.5691528320312 788.20849609375 L 614.998291015625 788.4085083007812 L 626.59423828125 788.60546875 L 638.3942260742188 788.798583984375 L 650.435302734375 788.9873046875 L 662.7544555664062 789.1708984375 L 675.388916015625 789.3486938476562 L 688.3756713867188 789.5198974609375 L 701.7518920898438 789.6839599609375 L 715.5545654296875 789.8401489257812 L 729.8208618164062 789.98779296875 L 744.5878295898438 790.1261596679688 L 759.892578125 790.254638671875 L 775.7721557617188 790.3724975585938 L 792.263671875 790.47900390625 L 809.4042358398438 790.5735473632812 L 827.2308959960938 790.6554565429688 L 845.7808227539062 790.7239990234375 L 865.0910034179688 790.7785034179688 L 885.1985473632812 790.8182373046875 L 906.1405639648438 790.8426513671875 L 927.9541015625 790.8508911132812 L 927.9541015625 790.8508911132812 L 927.9541015625 638.6036376953125 L 927.9541015625 638.6036376953125 L 906.1405639648438 638.5953369140625 L 885.1985473632812 638.5709838867188 L 865.0910034179688 638.53125 L 845.7808227539062 638.4767456054688 L 827.2308959960938 638.408203125 L 809.4042358398438 638.3262939453125 L 792.263671875 638.2317504882812 L 775.7721557617188 638.1251831054688 L 759.892578125 638.0073852539062 L 744.5878295898438 637.87890625 L 729.8208618164062 637.7405395507812 L 715.5545654296875 637.5928955078125 L 701.7518920898438 637.4367065429688 L 688.3756713867188 637.2726440429688 L 675.388916015625 637.1013793945312 L 662.7544555664062 636.9236450195312 L 650.435302734375 636.7400512695312 L 638.3942260742188 636.5513305664062 L 626.59423828125 636.358154296875 L 614.998291015625 636.1612548828125 L 603.5691528320312 635.9612426757812 L 592.2698974609375 635.7587890625 L 581.0632934570312 635.5546875 L 569.912353515625 635.3495483398438 L 558.7799682617188 635.14404296875 L 547.6290283203125 634.9389038085938 L 536.4224243164062 634.7348022460938 L 525.1231079101562 634.5323486328125 L 513.6940307617188 634.3323364257812 L 502.0980529785156 634.1354370117188 L 490.2980651855469 633.9422607421875 L 478.25701904296875 633.7535400390625 L 465.9378356933594 633.5699462890625 L 453.3033752441406 633.3922119140625 L 440.3166198730469 633.220947265625 L 426.9404296875 633.056884765625 L 413.1377258300781 632.9006958007812 L 398.8714294433594 632.7530517578125 L 384.1044921875 632.6146850585938 L 368.79974365234375 632.4862060546875 L 352.920166015625 632.368408203125 L 336.4286193847656 632.2618408203125 L 319.2880554199219 632.1672973632812 L 301.4613952636719 632.0853881835938 L 282.9114990234375 632.016845703125 L 263.601318359375 631.9623413085938 L 243.4937744140625 631.922607421875 L 222.5517578125 631.8982543945312 L 200.73818969726562 631.8899536132812 Z" fill-opacity="0.6" clip-path="url(#iIfktJktruwW)" stroke-opacity="1" stroke-linejoin="bevel" stroke-miterlimit="10" stroke-width="0.8" stroke-dasharray=""/><path fill="rgb(255,187,120)" stroke="rgb(255,187,120)" paint-order="fill" d="M 200.73818969726562 530.3917846679688 L 200.73818969726562 631.8899536132812 L 200.73818969726562 631.8899536132812 L 222.5517578125 631.8930053710938 L 243.4937744140625 631.9020385742188 L 263.601318359375 631.916748046875 L 282.9114990234375 631.9369506835938 L 301.4613952636719 631.9622802734375 L 319.2880554199219 631.9926147460938 L 336.4286193847656 632.027587890625 L 352.920166015625 632.0670166015625 L 368.79974365234375 632.110595703125 L 384.1044921875 632.1581420898438 L 398.8714294433594 632.2093505859375 L 413.1377258300781 632.2640380859375 L 426.9404296875 632.3218383789062 L 440.3166198730469 632.3825073242188 L 453.3033752441406 632.4459228515625 L 465.9378356933594 632.51171875 L 478.25701904296875 632.5796508789062 L 490.2980651855469 632.6494750976562 L 502.0980529785156 632.720947265625 L 513.6940307617188 632.7938232421875 L 525.1231079101562 632.8678588867188 L 536.4224243164062 632.9427490234375 L 547.6290283203125 633.018310546875 L 558.7799682617188 633.09423828125 L 569.912353515625 633.1702880859375 L 581.0632934570312 633.2462158203125 L 592.2698974609375 633.3217163085938 L 603.5691528320312 633.3966674804688 L 614.998291015625 633.4706420898438 L 626.59423828125 633.5435180664062 L 638.3942260742188 633.6150512695312 L 650.435302734375 633.6848754882812 L 662.7544555664062 633.7528076171875 L 675.388916015625 633.818603515625 L 688.3756713867188 633.8819580078125 L 701.7518920898438 633.9426879882812 L 715.5545654296875 634.00048828125 L 729.8208618164062 634.0551147460938 L 744.5878295898438 634.1063232421875 L 759.892578125 634.1538696289062 L 775.7721557617188 634.197509765625 L 792.263671875 634.2369384765625 L 809.4042358398438 634.2719116210938 L 827.2308959960938 634.3021850585938 L 845.7808227539062 634.3275756835938 L 865.0910034179688 634.3477172851562 L 885.1985473632812 634.3624877929688 L 906.1405639648438 634.3714599609375 L 927.9541015625 634.3745727539062 L 927.9541015625 634.3745727539062 L 927.9541015625 532.8763427734375 L 927.9541015625 532.8763427734375 L 906.1405639648438 532.873291015625 L 885.1985473632812 532.8642578125 L 865.0910034179688 532.8495483398438 L 845.7808227539062 532.8294067382812 L 827.2308959960938 532.8040161132812 L 809.4042358398438 532.7737426757812 L 792.263671875 532.7387084960938 L 775.7721557617188 532.6992797851562 L 759.892578125 532.6557006835938 L 744.5878295898438 532.608154296875 L 729.8208618164062 532.5569458007812 L 715.5545654296875 532.5023193359375 L 701.7518920898438 532.4445190429688 L 688.3756713867188 532.3837890625 L 675.388916015625 532.3204345703125 L 662.7544555664062 532.254638671875 L 650.435302734375 532.1867065429688 L 638.3942260742188 532.1168212890625 L 626.59423828125 532.0453491210938 L 614.998291015625 531.9724731445312 L 603.5691528320312 531.8984375 L 592.2698974609375 531.8235473632812 L 581.0632934570312 531.7479858398438 L 569.912353515625 531.672119140625 L 558.7799682617188 531.5960693359375 L 547.6290283203125 531.5201416015625 L 536.4224243164062 531.444580078125 L 525.1231079101562 531.3696899414062 L 513.6940307617188 531.295654296875 L 502.0980529785156 531.2227783203125 L 490.2980651855469 531.1513061523438 L 478.25701904296875 531.0814208984375 L 465.9378356933594 531.0134887695312 L 453.3033752441406 530.9476928710938 L 440.3166198730469 530.8843383789062 L 426.9404296875 530.8236083984375 L 413.1377258300781 530.7658081054688 L 398.8714294433594 530.711181640625 L 384.1044921875 530.6599731445312 L 368.79974365234375 530.6124267578125 L 352.920166015625 530.56884765625 L 336.4286193847656 530.5294189453125 L 319.2880554199219 530.494384765625 L 301.4613952636719 530.464111328125 L 282.9114990234375 530.438720703125 L 263.601318359375 530.4185791015625 L 243.4937744140625 530.4038696289062 L 222.5517578125 530.3948364257812 L 200.73818969726562 530.3917846679688 Z" fill-opacity="0.6" clip-path="url(#iIfktJktruwW)" stroke-opacity="1" stroke-linejoin="bevel" stroke-miterlimit="10" stroke-width="0.8" stroke-dasharray=""/><path fill="rgb(44,160,44)" stroke="rgb(44,160,44)" paint-order="fill" d="M 200.73818969726562 441.58087158203125 L 200.73818969726562 530.3917846679688 L 200.73818969726562 530.3917846679688 L 222.5517578125 530.3896484375 L 243.4937744140625 530.38330078125 L 263.601318359375 530.3729858398438 L 282.9114990234375 530.3588256835938 L 301.4613952636719 530.3410034179688 L 319.2880554199219 530.3197021484375 L 336.4286193847656 530.295166015625 L 352.920166015625 530.2674560546875 L 368.79974365234375 530.23681640625 L 384.1044921875 530.2034301757812 L 398.8714294433594 530.16748046875 L 413.1377258300781 530.129150390625 L 426.9404296875 530.0885620117188 L 440.3166198730469 530.0458984375 L 453.3033752441406 530.0014038085938 L 465.9378356933594 529.9552612304688 L 478.25701904296875 529.9075317382812 L 490.2980651855469 529.8585205078125 L 502.0980529785156 529.8082885742188 L 513.6940307617188 529.7571411132812 L 525.1231079101562 529.7051391601562 L 536.4224243164062 529.652587890625 L 547.6290283203125 529.5995483398438 L 558.7799682617188 529.5462036132812 L 569.912353515625 529.4927978515625 L 581.0632934570312 529.4395141601562 L 592.2698974609375 529.386474609375 L 603.5691528320312 529.3338623046875 L 614.998291015625 529.2819213867188 L 626.59423828125 529.230712890625 L 638.3942260742188 529.1805419921875 L 650.435302734375 529.1315307617188 L 662.7544555664062 529.0838012695312 L 675.388916015625 529.03759765625 L 688.3756713867188 528.9931030273438 L 701.7518920898438 528.9505004882812 L 715.5545654296875 528.909912109375 L 729.8208618164062 528.8715209960938 L 744.5878295898438 528.8355712890625 L 759.892578125 528.8021850585938 L 775.7721557617188 528.7716064453125 L 792.263671875 528.743896484375 L 809.4042358398438 528.7193603515625 L 827.2308959960938 528.6980590820312 L 845.7808227539062 528.6802368164062 L 865.0910034179688 528.6660766601562 L 885.1985473632812 528.65576171875 L 906.1405639648438 528.6494140625 L 927.9541015625 528.6472778320312 L 927.9541015625 528.6472778320312 L 927.9541015625 439.83636474609375 L 927.9541015625 439.83636474609375 L 906.1405639648438 439.8385009765625 L 885.1985473632812 439.8448486328125 L 865.0910034179688 439.8551940917969 L 845.7808227539062 439.8693542480469 L 827.2308959960938 439.88714599609375 L 809.4042358398438 439.9084167480469 L 792.263671875 439.9329833984375 L 775.7721557617188 439.960693359375 L 759.892578125 439.9913024902344 L 744.5878295898438 440.0246887207031 L 729.8208618164062 440.0606384277344 L 715.5545654296875 440.0989990234375 L 701.7518920898438 440.13958740234375 L 688.3756713867188 440.1822204589844 L 675.388916015625 440.2267150878906 L 662.7544555664062 440.27288818359375 L 650.435302734375 440.3205871582031 L 638.3942260742188 440.36962890625 L 626.59423828125 440.4198303222656 L 614.998291015625 440.47100830078125 L 603.5691528320312 440.5229797363281 L 592.2698974609375 440.5755615234375 L 581.0632934570312 440.62860107421875 L 569.912353515625 440.6819152832031 L 558.7799682617188 440.7353210449219 L 547.6290283203125 440.7886047363281 L 536.4224243164062 440.8416442871094 L 525.1231079101562 440.8942565917969 L 513.6940307617188 440.94622802734375 L 502.0980529785156 440.9974060058594 L 490.2980651855469 441.0475769042969 L 478.25701904296875 441.09661865234375 L 465.9378356933594 441.1443176269531 L 453.3033752441406 441.1905212402344 L 440.3166198730469 441.2350158691406 L 426.9404296875 441.27764892578125 L 413.1377258300781 441.3182373046875 L 398.8714294433594 441.3565979003906 L 384.1044921875 441.3925476074219 L 368.79974365234375 441.4259338378906 L 352.920166015625 441.45654296875 L 336.4286193847656 441.4842224121094 L 319.2880554199219 441.5087890625 L 301.4613952636719 441.53009033203125 L 282.9114990234375 441.5478820800781 L 263.601318359375 441.5620422363281 L 243.4937744140625 441.5723876953125 L 222.5517578125 441.5787048339844 L 200.73818969726562 441.58087158203125 Z" fill-opacity="0.6" clip-path="url(#iIfktJktruwW)" stroke-opacity="1" stroke-linejoin="bevel" stroke-miterlimit="10" stroke-width="0.8" stroke-dasharray=""/><path fill="rgb(152,223,138)" stroke="rgb(152,223,138)" paint-order="fill" d="M 200.73818969726562 365.45721435546875 L 200.73818969726562 441.58087158203125 L 200.73818969726562 441.58087158203125 L 222.5517578125 441.573486328125 L 243.4937744140625 441.55181884765625 L 263.601318359375 441.51641845703125 L 282.9114990234375 441.4679260253906 L 301.4613952636719 441.4069519042969 L 319.2880554199219 441.3341064453125 L 336.4286193847656 441.2499694824219 L 352.920166015625 441.1551818847656 L 368.79974365234375 441.0503234863281 L 384.1044921875 440.93603515625 L 398.8714294433594 440.8128967285156 L 413.1377258300781 440.6815490722656 L 426.9404296875 440.5425720214844 L 440.3166198730469 440.3966064453125 L 453.3033752441406 440.2442321777344 L 465.9378356933594 440.0860595703125 L 478.25701904296875 439.9227294921875 L 490.2980651855469 439.7547912597656 L 502.0980529785156 439.5829162597656 L 513.6940307617188 439.40771484375 L 525.1231079101562 439.229736328125 L 536.4224243164062 439.0496520996094 L 547.6290283203125 438.8680114746094 L 558.7799682617188 438.68548583984375 L 569.912353515625 438.5026550292969 L 581.0632934570312 438.3200988769531 L 592.2698974609375 438.13848876953125 L 603.5691528320312 437.9584045410156 L 614.998291015625 437.7804260253906 L 626.59423828125 437.6051940917969 L 638.3942260742188 437.4333190917969 L 650.435302734375 437.2654113769531 L 662.7544555664062 437.1020812988281 L 675.388916015625 436.94390869140625 L 688.3756713867188 436.7915344238281 L 701.7518920898438 436.64556884765625 L 715.5545654296875 436.506591796875 L 729.8208618164062 436.375244140625 L 744.5878295898438 436.2521057128906 L 759.892578125 436.1378173828125 L 775.7721557617188 436.032958984375 L 792.263671875 435.93817138671875 L 809.4042358398438 435.8540344238281 L 827.2308959960938 435.78118896484375 L 845.7808227539062 435.7201843261719 L 865.0910034179688 435.67169189453125 L 885.1985473632812 435.6363220214844 L 906.1405639648438 435.6146240234375 L 927.9541015625 435.6072692871094 L 927.9541015625 435.6072692871094 L 927.9541015625 359.483642578125 L 927.9541015625 359.483642578125 L 906.1405639648438 359.4909973144531 L 885.1985473632812 359.5126647949219 L 865.0910034179688 359.5480651855469 L 845.7808227539062 359.5965576171875 L 827.2308959960938 359.65753173828125 L 809.4042358398438 359.73040771484375 L 792.263671875 359.8145446777344 L 775.7721557617188 359.9093322753906 L 759.892578125 360.0141906738281 L 744.5878295898438 360.12847900390625 L 729.8208618164062 360.2516174316406 L 715.5545654296875 360.3829650878906 L 701.7518920898438 360.5219421386719 L 688.3756713867188 360.66790771484375 L 675.388916015625 360.8202819824219 L 662.7544555664062 360.97845458984375 L 650.435302734375 361.14178466796875 L 638.3942260742188 361.3096923828125 L 626.59423828125 361.4815673828125 L 614.998291015625 361.65679931640625 L 603.5691528320312 361.8347473144531 L 592.2698974609375 362.0148620605469 L 581.0632934570312 362.19647216796875 L 569.912353515625 362.3789978027344 L 558.7799682617188 362.5618591308594 L 547.6290283203125 362.744384765625 L 536.4224243164062 362.9259948730469 L 525.1231079101562 363.1061096191406 L 513.6940307617188 363.2840576171875 L 502.0980529785156 363.45928955078125 L 490.2980651855469 363.63116455078125 L 478.25701904296875 363.799072265625 L 465.9378356933594 363.9624328613281 L 453.3033752441406 364.1205749511719 L 440.3166198730469 364.27294921875 L 426.9404296875 364.4189453125 L 413.1377258300781 364.5578918457031 L 398.8714294433594 364.68927001953125 L 384.1044921875 364.8123779296875 L 368.79974365234375 364.92669677734375 L 352.920166015625 365.0315246582031 L 336.4286193847656 365.1263427734375 L 319.2880554199219 365.21044921875 L 301.4613952636719 365.2833251953125 L 282.9114990234375 365.34429931640625 L 263.601318359375 365.3927917480469 L 243.4937744140625 365.4281921386719 L 222.5517578125 365.4498596191406 L 200.73818969726562 365.45721435546875 Z" fill-opacity="0.6" clip-path="url(#iIfktJktruwW)" stroke-opacity="1" stroke-linejoin="bevel" stroke-miterlimit="10" stroke-width="0.8" stroke-dasharray=""/><path fill="rgb(214,39,40)" stroke="rgb(214,39,40)" paint-order="fill" d="M 200.73818969726562 302.0208740234375 L 200.73818969726562 365.45721435546875 L 200.73818969726562 365.45721435546875 L 222.5517578125 365.44464111328125 L 243.4937744140625 365.4076232910156 L 263.601318359375 365.34716796875 L 282.9114990234375 365.2643737792969 L 301.4613952636719 365.16021728515625 L 319.2880554199219 365.0357666015625 L 336.4286193847656 364.8920593261719 L 352.920166015625 364.73016357421875 L 368.79974365234375 364.55108642578125 L 384.1044921875 364.3558654785156 L 398.8714294433594 364.14556884765625 L 413.1377258300781 363.92120361328125 L 426.9404296875 363.6838684082031 L 440.3166198730469 363.4345397949219 L 453.3033752441406 363.1742858886719 L 465.9378356933594 362.9041442871094 L 478.25701904296875 362.6251525878906 L 490.2980651855469 362.33837890625 L 502.0980529785156 362.0448303222656 L 513.6940307617188 361.74554443359375 L 525.1231079101562 361.44158935546875 L 536.4224243164062 361.1340026855469 L 547.6290283203125 360.82379150390625 L 558.7799682617188 360.51202392578125 L 569.912353515625 360.1997375488281 L 581.0632934570312 359.8879699707031 L 592.2698974609375 359.5777893066406 L 603.5691528320312 359.2701721191406 L 614.998291015625 358.9662170410156 L 626.59423828125 358.66693115234375 L 638.3942260742188 358.3733825683594 L 650.435302734375 358.08660888671875 L 662.7544555664062 357.8076171875 L 675.388916015625 357.5374755859375 L 688.3756713867188 357.2772216796875 L 701.7518920898438 357.0279235839844 L 715.5545654296875 356.7905578613281 L 729.8208618164062 356.5661926269531 L 744.5878295898438 356.35589599609375 L 759.892578125 356.16070556640625 L 775.7721557617188 355.98162841796875 L 792.263671875 355.8197021484375 L 809.4042358398438 355.676025390625 L 827.2308959960938 355.55157470703125 L 845.7808227539062 355.4474182128906 L 865.0910034179688 355.3645935058594 L 885.1985473632812 355.30413818359375 L 906.1405639648438 355.2671203613281 L 927.9541015625 355.2545471191406 L 927.9541015625 355.2545471191406 L 927.9541015625 291.81817626953125 L 927.9541015625 291.81817626953125 L 906.1405639648438 291.83074951171875 L 885.1985473632812 291.8677978515625 L 865.0910034179688 291.92822265625 L 845.7808227539062 292.01104736328125 L 827.2308959960938 292.1152038574219 L 809.4042358398438 292.2396545410156 L 792.263671875 292.3833312988281 L 775.7721557617188 292.5452575683594 L 759.892578125 292.7243347167969 L 744.5878295898438 292.9195556640625 L 729.8208618164062 293.1298522949219 L 715.5545654296875 293.35418701171875 L 701.7518920898438 293.591552734375 L 688.3756713867188 293.84088134765625 L 675.388916015625 294.10113525390625 L 662.7544555664062 294.3712463378906 L 650.435302734375 294.6502380371094 L 638.3942260742188 294.9370422363281 L 626.59423828125 295.2305908203125 L 614.998291015625 295.52984619140625 L 603.5691528320312 295.83380126953125 L 592.2698974609375 296.14141845703125 L 581.0632934570312 296.4516296386719 L 569.912353515625 296.76336669921875 L 558.7799682617188 297.0756530761719 L 547.6290283203125 297.3874206542969 L 536.4224243164062 297.6976318359375 L 525.1231079101562 298.0052185058594 L 513.6940307617188 298.3092041015625 L 502.0980529785156 298.60845947265625 L 490.2980651855469 298.9020080566406 L 478.25701904296875 299.1888122558594 L 465.9378356933594 299.4677734375 L 453.3033752441406 299.7379150390625 L 440.3166198730469 299.9981689453125 L 426.9404296875 300.24749755859375 L 413.1377258300781 300.48486328125 L 398.8714294433594 300.7091979980469 L 384.1044921875 300.91949462890625 L 368.79974365234375 301.1147155761719 L 352.920166015625 301.2937927246094 L 336.4286193847656 301.4556884765625 L 319.2880554199219 301.5993957519531 L 301.4613952636719 301.7238464355469 L 282.9114990234375 301.8280029296875 L 263.601318359375 301.91082763671875 L 243.4937744140625 301.97125244140625 L 222.5517578125 302.00830078125 L 200.73818969726562 302.0208740234375 Z" fill-opacity="0.6" clip-path="url(#iIfktJktruwW)" stroke-opacity="1" stroke-linejoin="bevel" stroke-miterlimit="10" stroke-width="0.8" stroke-dasharray=""/><path fill="rgb(255,152,150)" stroke="rgb(255,152,150)" paint-order="fill" d="M 200.73818969726562 238.58450317382812 L 200.73818969726562 302.0208740234375 L 200.73818969726562 302.0208740234375 L 222.5517578125 302.0030822753906 L 243.4937744140625 301.95068359375 L 263.601318359375 301.8652038574219 L 282.9114990234375 301.748046875 L 301.4613952636719 301.6007385253906 L 319.2880554199219 301.4246826171875 L 336.4286193847656 301.221435546875 L 352.920166015625 300.9924011230469 L 368.79974365234375 300.7391052246094 L 384.1044921875 300.4629821777344 L 398.8714294433594 300.1654968261719 L 413.1377258300781 299.8481750488281 L 426.9404296875 299.5124206542969 L 440.3166198730469 299.1597595214844 L 453.3033752441406 298.7916259765625 L 465.9378356933594 298.4095153808594 L 478.25701904296875 298.014892578125 L 490.2980651855469 297.6092224121094 L 502.0980529785156 297.1940002441406 L 513.6940307617188 296.7706604003906 L 525.1231079101562 296.3407287597656 L 536.4224243164062 295.9056091308594 L 547.6290283203125 295.4668273925781 L 558.7799682617188 295.0258483886719 L 569.912353515625 294.5841064453125 L 581.0632934570312 294.14312744140625 L 592.2698974609375 293.704345703125 L 603.5691528320312 293.26922607421875 L 614.998291015625 292.83929443359375 L 626.59423828125 292.41595458984375 L 638.3942260742188 292.000732421875 L 650.435302734375 291.5950622558594 L 662.7544555664062 291.200439453125 L 675.388916015625 290.8183288574219 L 688.3756713867188 290.4501953125 L 701.7518920898438 290.0975341796875 L 715.5545654296875 289.76177978515625 L 729.8208618164062 289.4444580078125 L 744.5878295898438 289.14697265625 L 759.892578125 288.870849609375 L 775.7721557617188 288.6175537109375 L 792.263671875 288.3885192871094 L 809.4042358398438 288.1852722167969 L 827.2308959960938 288.00921630859375 L 845.7808227539062 287.8619079589844 L 865.0910034179688 287.7447509765625 L 885.1985473632812 287.6592712402344 L 906.1405639648438 287.60687255859375 L 927.9541015625 287.5890808105469 L 927.9541015625 287.5890808105469 L 927.9541015625 224.15272521972656 L 927.9541015625 224.15272521972656 L 906.1405639648438 224.17051696777344 L 885.1985473632812 224.222900390625 L 865.0910034179688 224.3083953857422 L 845.7808227539062 224.425537109375 L 827.2308959960938 224.57286071777344 L 809.4042358398438 224.7489013671875 L 792.263671875 224.9521484375 L 775.7721557617188 225.18118286132812 L 759.892578125 225.43447875976562 L 744.5878295898438 225.7106170654297 L 729.8208618164062 226.00808715820312 L 715.5545654296875 226.32542419433594 L 701.7518920898438 226.66116333007812 L 688.3756713867188 227.0138397216797 L 675.388916015625 227.3819580078125 L 662.7544555664062 227.76406860351562 L 650.435302734375 228.15869140625 L 638.3942260742188 228.56436157226562 L 626.59423828125 228.97959899902344 L 614.998291015625 229.40292358398438 L 603.5691528320312 229.83287048339844 L 592.2698974609375 230.26797485351562 L 581.0632934570312 230.70675659179688 L 569.912353515625 231.1477508544922 L 558.7799682617188 231.5894775390625 L 547.6290283203125 232.0304718017578 L 536.4224243164062 232.46925354003906 L 525.1231079101562 232.90435791015625 L 513.6940307617188 233.3343048095703 L 502.0980529785156 233.75762939453125 L 490.2980651855469 234.17286682128906 L 478.25701904296875 234.5785369873047 L 465.9378356933594 234.97315979003906 L 453.3033752441406 235.3552703857422 L 440.3166198730469 235.723388671875 L 426.9404296875 236.07606506347656 L 413.1377258300781 236.41180419921875 L 398.8714294433594 236.72914123535156 L 384.1044921875 237.026611328125 L 368.79974365234375 237.302734375 L 352.920166015625 237.55604553222656 L 336.4286193847656 237.7850799560547 L 319.2880554199219 237.9883270263672 L 301.4613952636719 238.16436767578125 L 282.9114990234375 238.3116912841797 L 263.601318359375 238.4288330078125 L 243.4937744140625 238.5143280029297 L 222.5517578125 238.56671142578125 L 200.73818969726562 238.58450317382812 Z" fill-opacity="0.6" clip-path="url(#iIfktJktruwW)" stroke-opacity="1" stroke-linejoin="bevel" stroke-miterlimit="10" stroke-width="0.8" stroke-dasharray=""/><path fill="rgb(148,103,189)" stroke="rgb(148,103,189)" paint-order="fill" d="M 200.73818969726562 175.14813232421875 L 200.73818969726562 238.58450317382812 L 200.73818969726562 238.58450317382812 L 222.5517578125 238.56150817871094 L 243.4937744140625 238.4937744140625 L 263.601318359375 238.3832244873047 L 282.9114990234375 238.2317352294922 L 301.4613952636719 238.04124450683594 L 319.2880554199219 237.81362915039062 L 336.4286193847656 237.55081176757812 L 352.920166015625 237.25466918945312 L 368.79974365234375 236.92713928222656 L 384.1044921875 236.57009887695312 L 398.8714294433594 236.18545532226562 L 413.1377258300781 235.77511596679688 L 426.9404296875 235.3409881591797 L 440.3166198730469 234.8849639892578 L 453.3033752441406 234.40896606445312 L 465.9378356933594 233.91488647460938 L 478.25701904296875 233.4046173095703 L 490.2980651855469 232.8800811767578 L 502.0980529785156 232.34317016601562 L 513.6940307617188 231.79579162597656 L 525.1231079101562 231.23983764648438 L 536.4224243164062 230.67724609375 L 547.6290283203125 230.10987854003906 L 558.7799682617188 229.53965759277344 L 569.912353515625 228.96847534179688 L 581.0632934570312 228.3982696533203 L 592.2698974609375 227.83090209960938 L 603.5691528320312 227.26829528808594 L 614.998291015625 226.71234130859375 L 626.59423828125 226.1649627685547 L 638.3942260742188 225.6280517578125 L 650.435302734375 225.103515625 L 662.7544555664062 224.59324645996094 L 675.388916015625 224.0991668701172 L 688.3756713867188 223.6231689453125 L 701.7518920898438 223.16714477539062 L 715.5545654296875 222.73301696777344 L 729.8208618164062 222.3226776123047 L 744.5878295898438 221.93804931640625 L 759.892578125 221.5810089111328 L 775.7721557617188 221.2534637451172 L 792.263671875 220.9573211669922 L 809.4042358398438 220.6945037841797 L 827.2308959960938 220.46688842773438 L 845.7808227539062 220.27639770507812 L 865.0910034179688 220.1249237060547 L 885.1985473632812 220.0143585205078 L 906.1405639648438 219.94664001464844 L 927.9541015625 219.9236297607422 L 927.9541015625 219.9236297607422 L 927.9541015625 156.48727416992188 L 927.9541015625 156.48727416992188 L 906.1405639648438 156.51026916503906 L 885.1985473632812 156.5780029296875 L 865.0910034179688 156.6885528564453 L 845.7808227539062 156.84002685546875 L 827.2308959960938 157.03053283691406 L 809.4042358398438 157.2581329345703 L 792.263671875 157.52096557617188 L 775.7721557617188 157.8170928955078 L 759.892578125 158.14463806152344 L 744.5878295898438 158.50167846679688 L 729.8208618164062 158.88632202148438 L 715.5545654296875 159.29666137695312 L 701.7518920898438 159.7307891845703 L 688.3756713867188 160.18679809570312 L 675.388916015625 160.66281127929688 L 662.7544555664062 161.15689086914062 L 650.435302734375 161.6671600341797 L 638.3942260742188 162.1916961669922 L 626.59423828125 162.72860717773438 L 614.998291015625 163.27598571777344 L 603.5691528320312 163.83192443847656 L 592.2698974609375 164.39453125 L 581.0632934570312 164.96189880371094 L 569.912353515625 165.53211975097656 L 558.7799682617188 166.10328674316406 L 547.6290283203125 166.6735076904297 L 536.4224243164062 167.24087524414062 L 525.1231079101562 167.80348205566406 L 513.6940307617188 168.3594207763672 L 502.0980529785156 168.90679931640625 L 490.2980651855469 169.44371032714844 L 478.25701904296875 169.96826171875 L 465.9378356933594 170.478515625 L 453.3033752441406 170.9726104736328 L 440.3166198730469 171.4486083984375 L 426.9404296875 171.9046173095703 L 413.1377258300781 172.3387451171875 L 398.8714294433594 172.74908447265625 L 384.1044921875 173.13372802734375 L 368.79974365234375 173.4907684326172 L 352.920166015625 173.8183135986328 L 336.4286193847656 174.11444091796875 L 319.2880554199219 174.3772735595703 L 301.4613952636719 174.60487365722656 L 282.9114990234375 174.79537963867188 L 263.601318359375 174.9468536376953 L 243.4937744140625 175.05740356445312 L 222.5517578125 175.12513732910156 L 200.73818969726562 175.14813232421875 Z" fill-opacity="0.6" clip-path="url(#iIfktJktruwW)" stroke-opacity="1" stroke-linejoin="bevel" stroke-miterlimit="10" stroke-width="0.8" stroke-dasharray=""/><path fill="rgb(197,176,213)" stroke="rgb(197,176,213)" paint-order="fill" d="M 200.73818969726562 149.77359008789062 L 200.73818969726562 175.14813232421875 L 200.73818969726562 175.14813232421875 L 222.5517578125 175.1199188232422 L 243.4937744140625 175.03684997558594 L 263.601318359375 174.9012451171875 L 282.9114990234375 174.71543884277344 L 301.4613952636719 174.4817657470703 L 319.2880554199219 174.2025604248047 L 336.4286193847656 173.8801727294922 L 352.920166015625 173.51693725585938 L 368.79974365234375 173.1151580810547 L 384.1044921875 172.6772003173828 L 398.8714294433594 172.2053985595703 L 413.1377258300781 171.7020721435547 L 426.9404296875 171.1695556640625 L 440.3166198730469 170.6101837158203 L 453.3033752441406 170.02630615234375 L 465.9378356933594 169.4202423095703 L 478.25701904296875 168.79434204101562 L 490.2980651855469 168.1509246826172 L 502.0980529785156 167.49234008789062 L 513.6940307617188 166.82090759277344 L 525.1231079101562 166.13897705078125 L 536.4224243164062 165.44886779785156 L 547.6290283203125 164.75291442871094 L 558.7799682617188 164.053466796875 L 569.912353515625 163.35284423828125 L 581.0632934570312 162.6533966064453 L 592.2698974609375 161.95745849609375 L 603.5691528320312 161.26734924316406 L 614.998291015625 160.5854034423828 L 626.59423828125 159.91397094726562 L 638.3942260742188 159.25538635253906 L 650.435302734375 158.61196899414062 L 662.7544555664062 157.98606872558594 L 675.388916015625 157.3800048828125 L 688.3756713867188 156.79612731933594 L 701.7518920898438 156.2367706298828 L 715.5545654296875 155.70425415039062 L 729.8208618164062 155.200927734375 L 744.5878295898438 154.72911071777344 L 759.892578125 154.29115295410156 L 775.7721557617188 153.88938903808594 L 792.263671875 153.52613830566406 L 809.4042358398438 153.20375061035156 L 827.2308959960938 152.924560546875 L 845.7808227539062 152.69088745117188 L 865.0910034179688 152.5050811767578 L 885.1985473632812 152.36947631835938 L 906.1405639648438 152.28639221191406 L 927.9541015625 152.2581787109375 L 927.9541015625 152.2581787109375 L 927.9541015625 126.88363647460938 L 927.9541015625 126.88363647460938 L 906.1405639648438 126.91184997558594 L 885.1985473632812 126.99492645263672 L 865.0910034179688 127.13053131103516 L 845.7808227539062 127.31633758544922 L 827.2308959960938 127.55001068115234 L 809.4042358398438 127.82920837402344 L 792.263671875 128.15159606933594 L 775.7721557617188 128.51483154296875 L 759.892578125 128.91661071777344 L 744.5878295898438 129.3545684814453 L 729.8208618164062 129.8263702392578 L 715.5545654296875 130.3297119140625 L 701.7518920898438 130.8622283935547 L 688.3756713867188 131.4215850830078 L 675.388916015625 132.00546264648438 L 662.7544555664062 132.6115264892578 L 650.435302734375 133.2374267578125 L 638.3942260742188 133.88084411621094 L 626.59423828125 134.5394287109375 L 614.998291015625 135.2108612060547 L 603.5691528320312 135.89280700683594 L 592.2698974609375 136.58291625976562 L 581.0632934570312 137.2788543701172 L 569.912353515625 137.97830200195312 L 558.7799682617188 138.67892456054688 L 547.6290283203125 139.3783721923828 L 536.4224243164062 140.07431030273438 L 525.1231079101562 140.76441955566406 L 513.6940307617188 141.4463653564453 L 502.0980529785156 142.1177978515625 L 490.2980651855469 142.77638244628906 L 478.25701904296875 143.4197998046875 L 465.9378356933594 144.0457000732422 L 453.3033752441406 144.65176391601562 L 440.3166198730469 145.2356414794922 L 426.9404296875 145.7949981689453 L 413.1377258300781 146.3275146484375 L 398.8714294433594 146.8308563232422 L 384.1044921875 147.3026580810547 L 368.79974365234375 147.74061584472656 L 352.920166015625 148.14239501953125 L 336.4286193847656 148.50563049316406 L 319.2880554199219 148.82801818847656 L 301.4613952636719 149.1072235107422 L 282.9114990234375 149.34088134765625 L 263.601318359375 149.5266876220703 L 243.4937744140625 149.6623077392578 L 222.5517578125 149.74537658691406 L 200.73818969726562 149.77359008789062 Z" fill-opacity="0.6" clip-path="url(#iIfktJktruwW)" stroke-opacity="1" stroke-linejoin="bevel" stroke-miterlimit="10" stroke-width="0.8" stroke-dasharray=""/><path fill="rgb(140,86,75)" stroke="rgb(140,86,75)" paint-order="fill" d="M 200.73818969726562 124.3990478515625 L 200.73818969726562 149.77359008789062 L 200.73818969726562 149.77359008789062 L 222.5517578125 149.74017333984375 L 243.4937744140625 149.64173889160156 L 263.601318359375 149.4810791015625 L 282.9114990234375 149.2609405517578 L 301.4613952636719 148.98410034179688 L 319.2880554199219 148.6533203125 L 336.4286193847656 148.2713623046875 L 352.920166015625 147.8410186767578 L 368.79974365234375 147.36500549316406 L 384.1044921875 146.8461456298828 L 398.8714294433594 146.2871551513672 L 413.1377258300781 145.69082641601562 L 426.9404296875 145.0599365234375 L 440.3166198730469 144.397216796875 L 453.3033752441406 143.70545959472656 L 465.9378356933594 142.9874267578125 L 478.25701904296875 142.2458953857422 L 490.2980651855469 141.4835968017578 L 502.0980529785156 140.7033233642578 L 513.6940307617188 139.90785217285156 L 525.1231079101562 139.09991455078125 L 536.4224243164062 138.2823028564453 L 547.6290283203125 137.45777893066406 L 558.7799682617188 136.6291046142578 L 569.912353515625 135.79904174804688 L 581.0632934570312 134.97036743164062 L 592.2698974609375 134.1458282470703 L 603.5691528320312 133.32821655273438 L 614.998291015625 132.52029418945312 L 626.59423828125 131.7248077392578 L 638.3942260742188 130.9445343017578 L 650.435302734375 130.1822509765625 L 662.7544555664062 129.44070434570312 L 675.388916015625 128.72267150878906 L 688.3756713867188 128.03091430664062 L 701.7518920898438 127.36820220947266 L 715.5545654296875 126.7373046875 L 729.8208618164062 126.14098358154297 L 744.5878295898438 125.58200073242188 L 759.892578125 125.06312561035156 L 775.7721557617188 124.58712768554688 L 792.263671875 124.15676879882812 L 809.4042358398438 123.77481842041016 L 827.2308959960938 123.44403839111328 L 845.7808227539062 123.16719818115234 L 865.0910034179688 122.94705963134766 L 885.1985473632812 122.7863998413086 L 906.1405639648438 122.6879653930664 L 927.9541015625 122.65454864501953 L 927.9541015625 122.65454864501953 L 927.9541015625 97.27999877929688 L 927.9541015625 97.27999877929688 L 906.1405639648438 97.31342315673828 L 885.1985473632812 97.41184997558594 L 865.0910034179688 97.57251739501953 L 845.7808227539062 97.79264831542969 L 827.2308959960938 98.06948852539062 L 809.4042358398438 98.4002685546875 L 792.263671875 98.78221893310547 L 775.7721557617188 99.21257781982422 L 759.892578125 99.6885757446289 L 744.5878295898438 100.20745086669922 L 729.8208618164062 100.76643371582031 L 715.5545654296875 101.36276245117188 L 701.7518920898438 101.99365997314453 L 688.3756713867188 102.6563720703125 L 675.388916015625 103.3481216430664 L 662.7544555664062 104.06615447998047 L 650.435302734375 104.80770111083984 L 638.3942260742188 105.56999206542969 L 626.59423828125 106.35026550292969 L 614.998291015625 107.14574432373047 L 603.5691528320312 107.95367431640625 L 592.2698974609375 108.77128601074219 L 581.0632934570312 109.59581756591797 L 569.912353515625 110.42449188232422 L 558.7799682617188 111.25455474853516 L 547.6290283203125 112.0832290649414 L 536.4224243164062 112.90775299072266 L 525.1231079101562 113.72537231445312 L 513.6940307617188 114.5333023071289 L 502.0980529785156 115.32878112792969 L 490.2980651855469 116.10905456542969 L 478.25701904296875 116.87134552001953 L 465.9378356933594 117.61288452148438 L 453.3033752441406 118.33091735839844 L 440.3166198730469 119.02267456054688 L 426.9404296875 119.68538665771484 L 413.1377258300781 120.3162841796875 L 398.8714294433594 120.91261291503906 L 384.1044921875 121.47159576416016 L 368.79974365234375 121.99046325683594 L 352.920166015625 122.46646881103516 L 336.4286193847656 122.8968276977539 L 319.2880554199219 123.27877807617188 L 301.4613952636719 123.60955810546875 L 282.9114990234375 123.88639831542969 L 263.601318359375 124.10652923583984 L 243.4937744140625 124.26719665527344 L 222.5517578125 124.3656234741211 L 200.73818969726562 124.3990478515625 Z" fill-opacity="0.6" clip-path="url(#iIfktJktruwW)" stroke-opacity="1" stroke-linejoin="bevel" stroke-miterlimit="10" stroke-width="0.8" stroke-dasharray=""/><path fill="rgb(196,156,148)" stroke="rgb(196,156,148)" paint-order="fill" d="M 200.73818969726562 111.7117691040039 L 200.73818969726562 124.3990478515625 L 200.73818969726562 124.3990478515625 L 222.5517578125 124.36041259765625 L 243.4937744140625 124.24663543701172 L 263.601318359375 124.0609130859375 L 282.9114990234375 123.80644989013672 L 301.4613952636719 123.48643493652344 L 319.2880554199219 123.10407257080078 L 336.4286193847656 122.66255950927734 L 352.920166015625 122.16509246826172 L 368.79974365234375 121.61486053466797 L 384.1044921875 121.01506805419922 L 398.8714294433594 120.3689193725586 L 413.1377258300781 119.67959594726562 L 426.9404296875 118.95030975341797 L 440.3166198730469 118.18425750732422 L 453.3033752441406 117.3846206665039 L 465.9378356933594 116.55461883544922 L 478.25701904296875 115.69743347167969 L 490.2980651855469 114.81626892089844 L 502.0980529785156 113.91431427001953 L 513.6940307617188 112.99478149414062 L 525.1231079101562 112.06085968017578 L 536.4224243164062 111.1157455444336 L 547.6290283203125 110.16263580322266 L 558.7799682617188 109.20472717285156 L 569.912353515625 108.24522399902344 L 581.0632934570312 107.28732299804688 L 592.2698974609375 106.33421325683594 L 603.5691528320312 105.38909912109375 L 614.998291015625 104.45516967773438 L 626.59423828125 103.53563690185547 L 638.3942260742188 102.6336898803711 L 650.435302734375 101.75252532958984 L 662.7544555664062 100.89533996582031 L 675.388916015625 100.0653305053711 L 688.3756713867188 99.26570129394531 L 701.7518920898438 98.49964141845703 L 715.5545654296875 97.77035522460938 L 729.8208618164062 97.08103942871094 L 744.5878295898438 96.43488311767578 L 759.892578125 95.83509826660156 L 775.7721557617188 95.28486633300781 L 792.263671875 94.78739166259766 L 809.4042358398438 94.34587860107422 L 827.2308959960938 93.96351623535156 L 845.7808227539062 93.64350128173828 L 865.0910034179688 93.3890380859375 L 885.1985473632812 93.20332336425781 L 906.1405639648438 93.08954620361328 L 927.9541015625 93.05091094970703 L 927.9541015625 93.05091094970703 L 927.9541015625 80.36363983154297 L 927.9541015625 80.36363983154297 L 906.1405639648438 80.40227508544922 L 885.1985473632812 80.51605224609375 L 865.0910034179688 80.70176696777344 L 845.7808227539062 80.95623016357422 L 827.2308959960938 81.2762451171875 L 809.4042358398438 81.65860748291016 L 792.263671875 82.1001205444336 L 775.7721557617188 82.59759521484375 L 759.892578125 83.14781951904297 L 744.5878295898438 83.74761199951172 L 729.8208618164062 84.39376831054688 L 715.5545654296875 85.08308410644531 L 701.7518920898438 85.81237030029297 L 688.3756713867188 86.57843017578125 L 675.388916015625 87.37805938720703 L 662.7544555664062 88.20806121826172 L 650.435302734375 89.06524658203125 L 638.3942260742188 89.94641876220703 L 626.59423828125 90.8483657836914 L 614.998291015625 91.76789855957031 L 603.5691528320312 92.70182037353516 L 592.2698974609375 93.64694213867188 L 581.0632934570312 94.60004425048828 L 569.912353515625 95.55795288085938 L 558.7799682617188 96.5174560546875 L 547.6290283203125 97.4753646850586 L 536.4224243164062 98.428466796875 L 525.1231079101562 99.37358856201172 L 513.6940307617188 100.30751037597656 L 502.0980529785156 101.22704315185547 L 490.2980651855469 102.12899017333984 L 478.25701904296875 103.01016235351562 L 465.9378356933594 103.86734771728516 L 453.3033752441406 104.69734954833984 L 440.3166198730469 105.49697875976562 L 426.9404296875 106.2630386352539 L 413.1377258300781 106.99232482910156 L 398.8714294433594 107.68164825439453 L 384.1044921875 108.32779693603516 L 368.79974365234375 108.9275894165039 L 352.920166015625 109.47781372070312 L 336.4286193847656 109.97528839111328 L 319.2880554199219 110.41680145263672 L 301.4613952636719 110.79916381835938 L 282.9114990234375 111.11917877197266 L 263.601318359375 111.37364196777344 L 243.4937744140625 111.55936431884766 L 222.5517578125 111.67313385009766 L 200.73818969726562 111.7117691040039 Z" fill-opacity="0.6" clip-path="url(#iIfktJktruwW)" stroke-opacity="1" stroke-linejoin="bevel" stroke-miterlimit="10" stroke-width="0.8" stroke-dasharray=""/><path fill="rgb(31,119,180)" stroke="rgb(0,0,0)" paint-order="fill" d="M 189.49258422851562 111.7117691040039 L 200.73818969726562 111.7117691040039 L 200.73818969726562 1126.693603515625 L 189.49258422851562 1126.693603515625 L 189.49258422851562 111.7117691040039" fill-opacity="0.9019607843137255" clip-path="url(#qAedTEhSxypU)" stroke-opacity="0.2" stroke-linejoin="bevel" stroke-miterlimit="10" stroke-width="0.5" stroke-dasharray=""/><path fill="rgb(174,199,232)" stroke="rgb(0,0,0)" paint-order="fill" d="M 927.9541015625 795.0800170898438 L 939.19970703125 795.0800170898438 L 939.19970703125 1137.6363525390625 L 927.9541015625 1137.6363525390625 L 927.9541015625 795.0800170898438" fill-opacity="0.9019607843137255" clip-path="url(#qAedTEhSxypU)" stroke-opacity="0.2" stroke-linejoin="bevel" stroke-miterlimit="10" stroke-width="0.5" stroke-dasharray=""/><path fill="rgb(255,127,14)" stroke="rgb(0,0,0)" paint-order="fill" d="M 927.9541015625 638.6036376953125 L 939.19970703125 638.6036376953125 L 939.19970703125 790.8508911132812 L 927.9541015625 790.8508911132812 L 927.9541015625 638.6036376953125" fill-opacity="0.9019607843137255" clip-path="url(#qAedTEhSxypU)" stroke-opacity="0.2" stroke-linejoin="bevel" stroke-miterlimit="10" stroke-width="0.5" stroke-dasharray=""/><path fill="rgb(255,187,120)" stroke="rgb(0,0,0)" paint-order="fill" d="M 927.9541015625 532.8763427734375 L 939.19970703125 532.8763427734375 L 939.19970703125 634.3745727539062 L 927.9541015625 634.3745727539062 L 927.9541015625 532.8763427734375" fill-opacity="0.9019607843137255" clip-path="url(#qAedTEhSxypU)" stroke-opacity="0.2" stroke-linejoin="bevel" stroke-miterlimit="10" stroke-width="0.5" stroke-dasharray=""/><path fill="rgb(44,160,44)" stroke="rgb(0,0,0)" paint-order="fill" d="M 927.9541015625 439.83636474609375 L 939.19970703125 439.83636474609375 L 939.19970703125 528.6472778320312 L 927.9541015625 528.6472778320312 L 927.9541015625 439.83636474609375" fill-opacity="0.9019607843137255" clip-path="url(#qAedTEhSxypU)" stroke-opacity="0.2" stroke-linejoin="bevel" stroke-miterlimit="10" stroke-width="0.5" stroke-dasharray=""/><path fill="rgb(152,223,138)" stroke="rgb(0,0,0)" paint-order="fill" d="M 927.9541015625 359.483642578125 L 939.19970703125 359.483642578125 L 939.19970703125 435.6072692871094 L 927.9541015625 435.6072692871094 L 927.9541015625 359.483642578125" fill-opacity="0.9019607843137255" clip-path="url(#qAedTEhSxypU)" stroke-opacity="0.2" stroke-linejoin="bevel" stroke-miterlimit="10" stroke-width="0.5" stroke-dasharray=""/><path fill="rgb(214,39,40)" stroke="rgb(0,0,0)" paint-order="fill" d="M 927.9541015625 291.81817626953125 L 939.19970703125 291.81817626953125 L 939.19970703125 355.2545471191406 L 927.9541015625 355.2545471191406 L 927.9541015625 291.81817626953125" fill-opacity="0.9019607843137255" clip-path="url(#qAedTEhSxypU)" stroke-opacity="0.2" stroke-linejoin="bevel" stroke-miterlimit="10" stroke-width="0.5" stroke-dasharray=""/><path fill="rgb(255,152,150)" stroke="rgb(0,0,0)" paint-order="fill" d="M 927.9541015625 224.15272521972656 L 939.19970703125 224.15272521972656 L 939.19970703125 287.5890808105469 L 927.9541015625 287.5890808105469 L 927.9541015625 224.15272521972656" fill-opacity="0.9019607843137255" clip-path="url(#qAedTEhSxypU)" stroke-opacity="0.2" stroke-linejoin="bevel" stroke-miterlimit="10" stroke-width="0.5" stroke-dasharray=""/><path fill="rgb(148,103,189)" stroke="rgb(0,0,0)" paint-order="fill" d="M 927.9541015625 156.48727416992188 L 939.19970703125 156.48727416992188 L 939.19970703125 219.9236297607422 L 927.9541015625 219.9236297607422 L 927.9541015625 156.48727416992188" fill-opacity="0.9019607843137255" clip-path="url(#qAedTEhSxypU)" stroke-opacity="0.2" stroke-linejoin="bevel" stroke-miterlimit="10" stroke-width="0.5" stroke-dasharray=""/><path fill="rgb(197,176,213)" stroke="rgb(0,0,0)" paint-order="fill" d="M 927.9541015625 126.88363647460938 L 939.19970703125 126.88363647460938 L 939.19970703125 152.2581787109375 L 927.9541015625 152.2581787109375 L 927.9541015625 126.88363647460938" fill-opacity="0.9019607843137255" clip-path="url(#qAedTEhSxypU)" stroke-opacity="0.2" stroke-linejoin="bevel" stroke-miterlimit="10" stroke-width="0.5" stroke-dasharray=""/><path fill="rgb(140,86,75)" stroke="rgb(0,0,0)" paint-order="fill" d="M 927.9541015625 97.27999877929688 L 939.19970703125 97.27999877929688 L 939.19970703125 122.65454864501953 L 927.9541015625 122.65454864501953 L 927.9541015625 97.27999877929688" fill-opacity="0.9019607843137255" clip-path="url(#qAedTEhSxypU)" stroke-opacity="0.2" stroke-linejoin="bevel" stroke-miterlimit="10" stroke-width="0.5" stroke-dasharray=""/><path fill="rgb(196,156,148)" stroke="rgb(0,0,0)" paint-order="fill" d="M 927.9541015625 80.36363983154297 L 939.19970703125 80.36363983154297 L 939.19970703125 93.05091094970703 L 927.9541015625 93.05091094970703 L 927.9541015625 80.36363983154297" fill-opacity="0.9019607843137255" clip-path="url(#qAedTEhSxypU)" stroke-opacity="0.2" stroke-linejoin="bevel" stroke-miterlimit="10" stroke-width="0.5" stroke-dasharray=""/><g clip-path="url(#caTPKsZWrlOa)"><text fill="rgb(0,0,0)" stroke="none" font-family="helvetica" font-size="8pt" font-style="normal" font-weight="normal" text-decoration="normal" x="0" y="0" text-anchor="end" dominant-baseline="central" transform="matrix(1, 0, 0, 1, 186.68118286132812, 619.2026977539062)" fill-opacity="1">Northrop - 80</text></g><g clip-path="url(#caTPKsZWrlOa)"><text fill="rgb(0,0,0)" stroke="none" font-family="helvetica" font-size="8pt" font-style="normal" font-weight="normal" text-decoration="normal" x="0" y="0" text-anchor="end" dominant-baseline="central" transform="matrix(1, 0, 0, 1, 925.1427001953125, 966.358154296875)" fill-opacity="1">Pegasus XL - 27</text></g><g clip-path="url(#caTPKsZWrlOa)"><text fill="rgb(0,0,0)" stroke="none" font-family="helvetica" font-size="8pt" font-style="normal" font-weight="normal" text-decoration="normal" x="0" y="0" text-anchor="end" dominant-baseline="central" transform="matrix(1, 0, 0, 1, 925.1427001953125, 714.727294921875)" fill-opacity="1">Minotaur I - 12</text></g><g clip-path="url(#caTPKsZWrlOa)"><text fill="rgb(0,0,0)" stroke="none" font-family="helvetica" font-size="8pt" font-style="normal" font-weight="normal" text-decoration="normal" x="0" y="0" text-anchor="end" dominant-baseline="central" transform="matrix(1, 0, 0, 1, 925.1427001953125, 583.6254272460938)" fill-opacity="1">Pegasus - 8</text></g><g clip-path="url(#caTPKsZWrlOa)"><text fill="rgb(0,0,0)" stroke="none" font-family="helvetica" font-size="8pt" font-style="normal" font-weight="normal" text-decoration="normal" x="0" y="0" text-anchor="end" dominant-baseline="central" transform="matrix(1, 0, 0, 1, 925.1427001953125, 484.2418212890625)" fill-opacity="1">Minotaur C (Taurus) - 7</text></g><g clip-path="url(#caTPKsZWrlOa)"><text fill="rgb(0,0,0)" stroke="none" font-family="helvetica" font-size="8pt" font-style="normal" font-weight="normal" text-decoration="normal" x="0" y="0" text-anchor="end" dominant-baseline="central" transform="matrix(1, 0, 0, 1, 925.1427001953125, 397.5454406738281)" fill-opacity="1">Antares 230+ - 6</text></g><g clip-path="url(#caTPKsZWrlOa)"><text fill="rgb(0,0,0)" stroke="none" font-family="helvetica" font-size="8pt" font-style="normal" font-weight="normal" text-decoration="normal" x="0" y="0" text-anchor="end" dominant-baseline="central" transform="matrix(1, 0, 0, 1, 925.1427001953125, 323.536376953125)" fill-opacity="1">Antares 230 - 5</text></g><g clip-path="url(#caTPKsZWrlOa)"><text fill="rgb(0,0,0)" stroke="none" font-family="helvetica" font-size="8pt" font-style="normal" font-weight="normal" text-decoration="normal" x="0" y="0" text-anchor="end" dominant-baseline="central" transform="matrix(1, 0, 0, 1, 925.1427001953125, 255.87091064453125)" fill-opacity="1">Minotaur IV - 5</text></g><g clip-path="url(#caTPKsZWrlOa)"><text fill="rgb(0,0,0)" stroke="none" font-family="helvetica" font-size="8pt" font-style="normal" font-weight="normal" text-decoration="normal" x="0" y="0" text-anchor="end" dominant-baseline="central" transform="matrix(1, 0, 0, 1, 925.1427001953125, 188.20545959472656)" fill-opacity="1">Pegasus XL/HAPS - 5</text></g><g clip-path="url(#caTPKsZWrlOa)"><text fill="rgb(0,0,0)" stroke="none" font-family="helvetica" font-size="8pt" font-style="normal" font-weight="normal" text-decoration="normal" x="0" y="0" text-anchor="end" dominant-baseline="central" transform="matrix(1, 0, 0, 1, 925.1427001953125, 139.57090759277344)" fill-opacity="1">Antares 110 - 2</text></g><g clip-path="url(#caTPKsZWrlOa)"><text fill="rgb(0,0,0)" stroke="none" font-family="helvetica" font-size="8pt" font-style="normal" font-weight="normal" text-decoration="normal" x="0" y="0" text-anchor="end" dominant-baseline="central" transform="matrix(1, 0, 0, 1, 925.1427001953125, 109.96726989746094)" fill-opacity="1">Antares 120 - 2</text></g><g clip-path="url(#caTPKsZWrlOa)"><text fill="rgb(0,0,0)" stroke="none" font-family="helvetica" font-size="8pt" font-style="normal" font-weight="normal" text-decoration="normal" x="0" y="0" text-anchor="end" dominant-baseline="central" transform="matrix(1, 0, 0, 1, 925.1427001953125, 86.707275390625)" fill-opacity="1">Minotaur V - 1</text></g><text fill="rgb(68,68,68)" stroke="none" font-family="helvetica" font-size="13px" font-style="normal" font-weight="bold" text-decoration="normal" x="10" y="19.1689453125" text-anchor="start" dominant-baseline="alphabetic" transform="matrix(1, 0, 0, 1, 0.5, 0.5)" fill-opacity="1">Northrop Rocket Successes</text></svg>