<svg version="1.1" xmlns="http://www.w3.org/2000/svg" width="1000" height="1200"><defs><clipPath id="iPkHOFalvXKF"><path fill="none" stroke="none" d="M 10.5 27.5 L 970.5 27.5 L 970.5 1190.5 L 10.5 1190.5 L 10.5 27.5"/></clipPath><clipPath id="FRUWSnvmrsVc"><path fill="none" stroke="none" d="M 10.5 27.5 L 970.5 27.5 L 970.5 1190.5 L 10.5 1190.5 L 10.5 27.5"/></clipPath><clipPath id="JefGrvAHWMMz"><path fill="none" stroke="none" d="M 10.5 27.5 L 970.5 27.5 L 970.5 1190.5 L 10.5 1190.5 L 10.5 27.5"/></clipPath><clipPath id="kMboHFvwoUek"><path fill="none" stroke="none" d="M 10.5 27.5 L 970.5 27.5 L 970.5 1190.5 L 10.5 1190.5 L 10.5 27.5"/></clipPath><clipPath id="fBTbkriczIVC"><path fill="none" stroke="none" d="M 10.5 27.5 L 970.5 27.5 L 970.5 1190.5 L 10.5 1190.5 L 10.5 27.5"/></clipPath><clipPath id="TuZStnAfCGtc"><path fill="none" stroke="none" d="M 10.5 27.5 L 970.5 27.5 L 970.5 1190.5 L 10.5 1190.5 L 10.5 27.5"/></clipPath></defs><path fill="rgb(255,255,255)" stroke="none" paint-order="stroke" d="M 0.5 0.5 L 1000.5 0.5 L 1000.5 1200.5 L 0.5 1200.5 L 0.5 0.5" fill-opacity="1"/><rect fill="#FFFFFF" stroke="none" x="10" y="27" width="960" height="1163" transform="matrix(1, 0, 0, 1, 0.5, 0.5)"/><path fill="rgb(255,250,250)" stroke="none" paint-order="stroke" d="M 10.5 27.5 L 970.5 27.5 L 970.5 1190.5 L 10.5 1190.5 L 10.5 27.5" fill-opacity="1"/><path fill="rgb(174,199,232)" stroke="rgb(174,199,232)" paint-order="fill" d="M 200.73818969726562 210.45046997070312 L 200.73818969726562 1137.12890625 L 200.73818969726562 1137.12890625 L 222.5517578125 1137.1295166015625 L 243.4937744140625 1137.13134765625 L 263.601318359375 1137.1343994140625 L 282.9114990234375 1137.138427734375 L 301.4613952636719 1137.1436767578125 L 319.2880554199219 1137.1497802734375 L 336.4286193847656 1137.156982421875 L 352.920166015625 1137.1650390625 L 368.79974365234375 1137.1739501953125 L 384.1044921875 1137.1837158203125 L 398.8714294433594 1137.194091796875 L 413.1377258300781 1137.205322265625 L 426.9404296875 1137.217041015625 L 440.3166198730469 1137.2294921875 L 453.3033752441406 1137.242431640625 L 465.9378356933594 1137.255859375 L 478.25701904296875 1137.269775390625 L 490.2980651855469 1137.2840576171875 L 502.0980529785156 1137.298583984375 L 513.6940307617188 1137.3134765625 L 525.1231079101562 1137.32861328125 L 536.4224243164062 1137.3438720703125 L 547.6290283203125 1137.359375 L 558.7799682617188 1137.3748779296875 L 569.912353515625 1137.390380859375 L 581.0632934570312 1137.4058837890625 L 592.2698974609375 1137.4212646484375 L 603.5691528320312 1137.4366455078125 L 614.998291015625 1137.4517822265625 L 626.59423828125 1137.4666748046875 L 638.3942260742188 1137.481201171875 L 650.435302734375 1137.4954833984375 L 662.7544555664062 1137.5093994140625 L 675.388916015625 1137.5228271484375 L 688.3756713867188 1137.5357666015625 L 701.7518920898438 1137.548095703125 L 715.5545654296875 1137.5599365234375 L 729.8208618164062 1137.5711669921875 L 744.5878295898438 1137.58154296875 L 759.892578125 1137.59130859375 L 775.7721557617188 1137.6002197265625 L 792.263671875 1137.6082763671875 L 809.4042358398438 1137.6153564453125 L 827.2308959960938 1137.62158203125 L 845.7808227539062 1137.6268310546875 L 865.0910034179688 1137.630859375 L 885.1985473632812 1137.6339111328125 L 906.1405639648438 1137.6357421875 L 927.9541015625 1137.6363525390625 L 927.9541015625 1137.6363525390625 L 927.9541015625 210.9579620361328 L 927.9541015625 210.9579620361328 L 906.1405639648438 210.95733642578125 L 885.1985473632812 210.9554901123047 L 865.0910034179688 210.95248413085938 L 845.7808227539062 210.9483642578125 L 827.2308959960938 210.9431915283203 L 809.4042358398438 210.93699645996094 L 792.263671875 210.9298553466797 L 775.7721557617188 210.9217987060547 L 759.892578125 210.9128875732422 L 744.5878295898438 210.90318298339844 L 729.8208618164062 210.89271545410156 L 715.5545654296875 210.88156127929688 L 701.7518920898438 210.8697509765625 L 688.3756713867188 210.8573455810547 L 675.388916015625 210.8444061279297 L 662.7544555664062 210.8309783935547 L 650.435302734375 210.8170928955078 L 638.3942260742188 210.80282592773438 L 626.59423828125 210.78822326660156 L 614.998291015625 210.77334594726562 L 603.5691528320312 210.7582244873047 L 592.2698974609375 210.742919921875 L 581.0632934570312 210.7274932861328 L 569.912353515625 210.7119903564453 L 558.7799682617188 210.6964569091797 L 547.6290283203125 210.68093872070312 L 536.4224243164062 210.66551208496094 L 525.1231079101562 210.65020751953125 L 513.6940307617188 210.63510131835938 L 502.0980529785156 210.62020874023438 L 490.2980651855469 210.60560607910156 L 478.25701904296875 210.59133911132812 L 465.9378356933594 210.5774688720703 L 453.3033752441406 210.56402587890625 L 440.3166198730469 210.55108642578125 L 426.9404296875 210.53868103027344 L 413.1377258300781 210.52687072753906 L 398.8714294433594 210.51571655273438 L 384.1044921875 210.5052490234375 L 368.79974365234375 210.49554443359375 L 352.920166015625 210.48663330078125 L 336.4286193847656 210.4785919189453 L 319.2880554199219 210.471435546875 L 301.4613952636719 210.46524047851562 L 282.9114990234375 210.46006774902344 L 263.601318359375 210.45594787597656 L 243.4937744140625 210.45294189453125 L 222.5517578125 210.4510955810547 L 200.73818969726562 210.45046997070312 Z" fill-opacity="0.6" clip-path="url(#JefGrvAHWMMz)" stroke-opacity="1" stroke-linejoin="bevel" stroke-miterlimit="10" stroke-width="0.8" stroke-dasharray=""/><path fill="rgb(255,127,14)" stroke="rgb(255,127,14)" paint-order="fill" d="M 200.73818969726562 84.08523559570312 L 200.73818969726562 210.45046997070312 L 200.73818969726562 210.45046997070312 L 222.5517578125 210.44589233398438 L 243.4937744140625 210.432373046875 L 263.601318359375 210.4103240966797 L 282.9114990234375 210.380126953125 L 301.4613952636719 210.34213256835938 L 319.2880554199219 210.29673767089844 L 336.4286193847656 210.24432373046875 L 352.920166015625 210.1852569580078 L 368.79974365234375 210.11993408203125 L 384.1044921875 210.04873657226562 L 398.8714294433594 209.97201538085938 L 413.1377258300781 209.8901824951172 L 426.9404296875 209.80360412597656 L 440.3166198730469 209.71266174316406 L 453.3033752441406 209.61773681640625 L 465.9378356933594 209.51919555664062 L 478.25701904296875 209.4174346923828 L 490.2980651855469 209.3128204345703 L 502.0980529785156 209.20574951171875 L 513.6940307617188 209.09657287597656 L 525.1231079101562 208.98570251464844 L 536.4224243164062 208.87350463867188 L 547.6290283203125 208.76034545898438 L 558.7799682617188 208.64662170410156 L 569.912353515625 208.53271484375 L 581.0632934570312 208.4189910888672 L 592.2698974609375 208.30584716796875 L 603.5691528320312 208.1936492919922 L 614.998291015625 208.082763671875 L 626.59423828125 207.97360229492188 L 638.3942260742188 207.8665313720703 L 650.435302734375 207.7619171142578 L 662.7544555664062 207.66015625 L 675.388916015625 207.56161499023438 L 688.3756713867188 207.46669006347656 L 701.7518920898438 207.375732421875 L 715.5545654296875 207.28915405273438 L 729.8208618164062 207.2073211669922 L 744.5878295898438 207.130615234375 L 759.892578125 207.0594024658203 L 775.7721557617188 206.99407958984375 L 792.263671875 206.93502807617188 L 809.4042358398438 206.8826141357422 L 827.2308959960938 206.83721923828125 L 845.7808227539062 206.79922485351562 L 865.0910034179688 206.76901245117188 L 885.1985473632812 206.74696350097656 L 906.1405639648438 206.73345947265625 L 927.9541015625 206.72886657714844 L 927.9541015625 206.72886657714844 L 927.9541015625 80.36363983154297 L 927.9541015625 80.36363983154297 L 906.1405639648438 80.36822509765625 L 885.1985473632812 80.38172912597656 L 865.0910034179688 80.40377807617188 L 845.7808227539062 80.43399047851562 L 827.2308959960938 80.47197723388672 L 809.4042358398438 80.51737213134766 L 792.263671875 80.56978607177734 L 775.7721557617188 80.62884521484375 L 759.892578125 80.69416809082031 L 744.5878295898438 80.76537322998047 L 729.8208618164062 80.84208679199219 L 715.5545654296875 80.92391967773438 L 701.7518920898438 81.010498046875 L 688.3756713867188 81.10144805908203 L 675.388916015625 81.19638061523438 L 662.7544555664062 81.29491424560547 L 650.435302734375 81.39667510986328 L 638.3942260742188 81.50128936767578 L 626.59423828125 81.60836791992188 L 614.998291015625 81.717529296875 L 603.5691528320312 81.82840728759766 L 592.2698974609375 81.94060516357422 L 581.0632934570312 82.05375671386719 L 569.912353515625 82.16748046875 L 558.7799682617188 82.2813949584961 L 547.6290283203125 82.39511108398438 L 536.4224243164062 82.50826263427734 L 525.1231079101562 82.62046813964844 L 513.6940307617188 82.73133850097656 L 502.0980529785156 82.84050750732422 L 490.2980651855469 82.94758605957031 L 478.25701904296875 83.05219268798828 L 465.9378356933594 83.15396118164062 L 453.3033752441406 83.25249481201172 L 440.3166198730469 83.34742736816406 L 426.9404296875 83.43836975097656 L 413.1377258300781 83.52494812011719 L 398.8714294433594 83.6067886352539 L 384.1044921875 83.6834945678711 L 368.79974365234375 83.75469970703125 L 352.920166015625 83.82002258300781 L 336.4286193847656 83.87908172607422 L 319.2880554199219 83.93150329589844 L 301.4613952636719 83.97689056396484 L 282.9114990234375 84.01488494873047 L 263.601318359375 84.04509735107422 L 243.4937744140625 84.067138671875 L 222.5517578125 84.08065032958984 L 200.73818969726562 84.08523559570312 Z" fill-opacity="0.6" clip-path="url(#JefGrvAHWMMz)" stroke-opacity="1" stroke-linejoin="bevel" stroke-miterlimit="10" stroke-width="0.8" stroke-dasharray=""/><path fill="rgb(31,119,180)" stroke="rgb(0,0,0)" paint-order="fill" d="M 189.49258422851562 84.08523559570312 L 200.73818969726562 84.08523559570312 L 200.73818969726562 1137.12890625 L 189.49258422851562 1137.12890625 L 189.49258422851562 84.08523559570312" fill-opacity="0.9019607843137255" clip-path="url(#kMboHFvwoUek)" stroke-opacity="0.2" stroke-linejoin="bevel" stroke-miterlimit="10" stroke-width="0.5" stroke-dasharray=""/><path fill="rgb(174,199,232)" stroke="rgb(0,0,0)" paint-order="fill" d="M 927.9541015625 210.9579620361328 L 939.19970703125 210.9579620361328 L 939.19970703125 1137.6363525390625 L 927.9541015625 1137.6363525390625 L 927.9541015625 210.9579620361328" fill-opacity="0.9019607843137255" clip-path="url(#kMboHFvwoUek)" stroke-opacity="0.2" stroke-linejoin="bevel" stroke-miterlimit="10" stroke-width="0.5" stroke-dasharray=""/><path fill="rgb(255,127,14)" stroke="rgb(0,0,0)" paint-order="fill" d="M 927.9541015625 80.36363983154297 L 939.19970703125 80.36363983154297 L 939.19970703125 206.72886657714844 L 927.9541015625 206.72886657714844 L 927.9541015625 80.36363983154297" fill-opacity="0.9019607843137255" clip-path="url(#kMboHFvwoUek)" stroke-opacity="0.2" stroke-linejoin="bevel" stroke-miterlimit="10" stroke-width="0.5" stroke-dasharray=""/><g clip-path="url(#fBTbkriczIVC)"><text fill="rgb(0,0,0)" stroke="none" font-family="helvetica" font-size="8pt" font-style="normal" font-weight="normal" text-decoration="normal" x="0" y="0" text-anchor="end" dominant-baseline="central" transform="matrix(1, 0, 0, 1, 186.68118286132812, 610.6070556640625)" fill-opacity="1">Rocket Lab - 25</text></g><g clip-path="url(#fBTbkriczIVC)"><text fill="rgb(0,0,0)" stroke="none" font-family="helvetica" font-size="8pt" font-style="normal" font-weight="normal" text-decoration="normal" x="0" y="0" text-anchor="end" dominant-baseline="central" transform="matrix(1, 0, 0, 1, 925.1427001953125, 674.2971801757812)" fill-opacity="1">Electron/Curie - 22</text></g><g clip-path="url(#fBTbkriczIVC)"><text fill="rgb(0,0,0)" stroke="none" font-family="helvetica" font-size="8pt" font-style="normal" font-weight="normal" text-decoration="normal" x="0" y="0" text-anchor="end" dominant-baseline="central" transform="matrix(1, 0, 0, 1, 925.1427001953125, 143.54624938964844)" fill-opacity="1">Electron/Photon - 3</text></g><text fill="rgb(68,68,68)" stroke="none" font-family="helvetica" font-size="13px" font-style="normal" font-weight="bold" text-decoration="normal" x="10" y="19.1689453125" text-anchor="start" dominant-baseline="alphabetic" transform="matrix(1, 0, 0, 1, 0.5, 0.5)" fill-opacity="1">Rocket Lab Rocket Successes</text></svg>