<svg version="1.1" xmlns="http://www.w3.org/2000/svg" width="1000" height="1200"><defs><clipPath id="xQEpqKiPhnFc"><path fill="none" stroke="none" d="M 10.5 27.5 L 970.5 27.5 L 970.5 1190.5 L 10.5 1190.5 L 10.5 27.5"/></clipPath><clipPath id="wahWfNvpIzvW"><path fill="none" stroke="none" d="M 10.5 27.5 L 970.5 27.5 L 970.5 1190.5 L 10.5 1190.5 L 10.5 27.5"/></clipPath><clipPath id="BFwkhHbbpiVU"><path fill="none" stroke="none" d="M 10.5 27.5 L 970.5 27.5 L 970.5 1190.5 L 10.5 1190.5 L 10.5 27.5"/></clipPath><clipPath id="PhFmPmLoaQuu"><path fill="none" stroke="none" d="M 10.5 27.5 L 970.5 27.5 L 970.5 1190.5 L 10.5 1190.5 L 10.5 27.5"/></clipPath><clipPath id="NpEibUQgRTHB"><path fill="none" stroke="none" d="M 10.5 27.5 L 970.5 27.5 L 970.5 1190.5 L 10.5 1190.5 L 10.5 27.5"/></clipPath><clipPath id="GwaMnClLAuux"><path fill="none" stroke="none" d="M 10.5 27.5 L 970.5 27.5 L 970.5 1190.5 L 10.5 1190.5 L 10.5 27.5"/></clipPath></defs><path fill="rgb(255,255,255)" stroke="none" paint-order="stroke" d="M 0.5 0.5 L 1000.5 0.5 L 1000.5 1200.5 L 0.5 1200.5 L 0.5 0.5" fill-opacity="1"/><rect fill="#FFFFFF" stroke="none" x="10" y="27" width="960" height="1163" transform="matrix(1, 0, 0, 1, 0.5, 0.5)"/><path fill="rgb(255,250,250)" stroke="none" paint-order="stroke" d="M 10.5 27.5 L 970.5 27.5 L 970.5 1190.5 L 10.5 1190.5 L 10.5 27.5" fill-opacity="1"/><path fill="rgb(174,199,232)" stroke="rgb(174,199,232)" paint-order="fill" d="M 200.73818969726562 783.1856689453125 L 200.73818969726562 1126.2706298828125 L 200.73818969726562 1126.2706298828125 L 222.5517578125 1126.28466796875 L 243.4937744140625 1126.325927734375 L 263.601318359375 1126.393310546875 L 282.9114990234375 1126.485595703125 L 301.4613952636719 1126.6015625 L 319.2880554199219 1126.740234375 L 336.4286193847656 1126.9002685546875 L 352.920166015625 1127.0806884765625 L 368.79974365234375 1127.2801513671875 L 384.1044921875 1127.49755859375 L 398.8714294433594 1127.7318115234375 L 413.1377258300781 1127.9818115234375 L 426.9404296875 1128.2462158203125 L 440.3166198730469 1128.52392578125 L 453.3033752441406 1128.8138427734375 L 465.9378356933594 1129.11474609375 L 478.25701904296875 1129.425537109375 L 490.2980651855469 1129.7449951171875 L 502.0980529785156 1130.072021484375 L 513.6940307617188 1130.4053955078125 L 525.1231079101562 1130.7440185546875 L 536.4224243164062 1131.086669921875 L 547.6290283203125 1131.4322509765625 L 558.7799682617188 1131.779541015625 L 569.912353515625 1132.12744140625 L 581.0632934570312 1132.4747314453125 L 592.2698974609375 1132.8203125 L 603.5691528320312 1133.1629638671875 L 614.998291015625 1133.5015869140625 L 626.59423828125 1133.8349609375 L 638.3942260742188 1134.1619873046875 L 650.435302734375 1134.4814453125 L 662.7544555664062 1134.792236328125 L 675.388916015625 1135.0931396484375 L 688.3756713867188 1135.383056640625 L 701.7518920898438 1135.660888671875 L 715.5545654296875 1135.92529296875 L 729.8208618164062 1136.1751708984375 L 744.5878295898438 1136.409423828125 L 759.892578125 1136.626953125 L 775.7721557617188 1136.826416015625 L 792.263671875 1137.0068359375 L 809.4042358398438 1137.1668701171875 L 827.2308959960938 1137.3055419921875 L 845.7808227539062 1137.4215087890625 L 865.0910034179688 1137.5137939453125 L 885.1985473632812 1137.5810546875 L 906.1405639648438 1137.622314453125 L 927.9541015625 1137.6363525390625 L 927.9541015625 1137.6363525390625 L 927.9541015625 794.5513916015625 L 927.9541015625 794.5513916015625 L 906.1405639648438 794.537353515625 L 885.1985473632812 794.49609375 L 865.0910034179688 794.4287719726562 L 845.7808227539062 794.3364868164062 L 827.2308959960938 794.220458984375 L 809.4042358398438 794.0818481445312 L 792.263671875 793.9217529296875 L 775.7721557617188 793.7413940429688 L 759.892578125 793.5419311523438 L 744.5878295898438 793.324462890625 L 729.8208618164062 793.0902099609375 L 715.5545654296875 792.8402709960938 L 701.7518920898438 792.5758666992188 L 688.3756713867188 792.298095703125 L 675.388916015625 792.0081787109375 L 662.7544555664062 791.707275390625 L 650.435302734375 791.396484375 L 638.3942260742188 791.0770263671875 L 626.59423828125 790.75 L 614.998291015625 790.4166259765625 L 603.5691528320312 790.0780029296875 L 592.2698974609375 789.7353515625 L 581.0632934570312 789.3897705078125 L 569.912353515625 789.04248046875 L 558.7799682617188 788.694580078125 L 547.6290283203125 788.3472900390625 L 536.4224243164062 788.001708984375 L 525.1231079101562 787.6590576171875 L 513.6940307617188 787.3204345703125 L 502.0980529785156 786.987060546875 L 490.2980651855469 786.6600341796875 L 478.25701904296875 786.340576171875 L 465.9378356933594 786.02978515625 L 453.3033752441406 785.7288818359375 L 440.3166198730469 785.43896484375 L 426.9404296875 785.1611938476562 L 413.1377258300781 784.8967895507812 L 398.8714294433594 784.6468505859375 L 384.1044921875 784.41259765625 L 368.79974365234375 784.1951293945312 L 352.920166015625 783.99560546875 L 336.4286193847656 783.8152465820312 L 319.2880554199219 783.6552124023438 L 301.4613952636719 783.5165405273438 L 282.9114990234375 783.4005126953125 L 263.601318359375 783.3082885742188 L 243.4937744140625 783.240966796875 L 222.5517578125 783.19970703125 L 200.73818969726562 783.1856689453125 Z" fill-opacity="0.6" clip-path="url(#BFwkhHbbpiVU)" stroke-opacity="1" stroke-linejoin="bevel" stroke-miterlimit="10" stroke-width="0.8" stroke-dasharray=""/><path fill="rgb(255,127,14)" stroke="rgb(255,127,14)" paint-order="fill" d="M 200.73818969726562 533.6693115234375 L 200.73818969726562 783.1856689453125 L 200.73818969726562 783.1856689453125 L 222.5517578125 783.1944580078125 L 243.4937744140625 783.2203979492188 L 263.601318359375 783.2626342773438 L 282.9114990234375 783.3206176757812 L 301.4613952636719 783.3934326171875 L 319.2880554199219 783.48046875 L 336.4286193847656 783.5809936523438 L 352.920166015625 783.6942749023438 L 368.79974365234375 783.8195190429688 L 384.1044921875 783.9560546875 L 398.8714294433594 784.1031494140625 L 413.1377258300781 784.2600708007812 L 426.9404296875 784.4261474609375 L 440.3166198730469 784.6005249023438 L 453.3033752441406 784.7825317382812 L 465.9378356933594 784.9714965820312 L 478.25701904296875 785.1666259765625 L 490.2980651855469 785.3672485351562 L 502.0980529785156 785.5725708007812 L 513.6940307617188 785.7819213867188 L 525.1231079101562 785.9945678710938 L 536.4224243164062 786.209716796875 L 547.6290283203125 786.4266967773438 L 558.7799682617188 786.644775390625 L 569.912353515625 786.8632202148438 L 581.0632934570312 787.081298828125 L 592.2698974609375 787.2982788085938 L 603.5691528320312 787.513427734375 L 614.998291015625 787.7260131835938 L 626.59423828125 787.9353637695312 L 638.3942260742188 788.1406860351562 L 650.435302734375 788.34130859375 L 662.7544555664062 788.5364379882812 L 675.388916015625 788.7254028320312 L 688.3756713867188 788.9074096679688 L 701.7518920898438 789.0818481445312 L 715.5545654296875 789.2478637695312 L 729.8208618164062 789.40478515625 L 744.5878295898438 789.5518798828125 L 759.892578125 789.6884155273438 L 775.7721557617188 789.813720703125 L 792.263671875 789.9269409179688 L 809.4042358398438 790.0274658203125 L 827.2308959960938 790.114501953125 L 845.7808227539062 790.1873779296875 L 865.0910034179688 790.2453002929688 L 885.1985473632812 790.28759765625 L 906.1405639648438 790.3134765625 L 927.9541015625 790.322265625 L 927.9541015625 790.322265625 L 927.9541015625 540.805908203125 L 927.9541015625 540.805908203125 L 906.1405639648438 540.797119140625 L 885.1985473632812 540.771240234375 L 865.0910034179688 540.7289428710938 L 845.7808227539062 540.6710205078125 L 827.2308959960938 540.59814453125 L 809.4042358398438 540.5111083984375 L 792.263671875 540.4105834960938 L 775.7721557617188 540.29736328125 L 759.892578125 540.1720581054688 L 744.5878295898438 540.0355224609375 L 729.8208618164062 539.888427734375 L 715.5545654296875 539.7315063476562 L 701.7518920898438 539.5654907226562 L 688.3756713867188 539.3910522460938 L 675.388916015625 539.2090454101562 L 662.7544555664062 539.0200805664062 L 650.435302734375 538.824951171875 L 638.3942260742188 538.6243286132812 L 626.59423828125 538.4190063476562 L 614.998291015625 538.2096557617188 L 603.5691528320312 537.9970703125 L 592.2698974609375 537.7818603515625 L 581.0632934570312 537.5648803710938 L 569.912353515625 537.3468017578125 L 558.7799682617188 537.12841796875 L 547.6290283203125 536.9103393554688 L 536.4224243164062 536.693359375 L 525.1231079101562 536.4782104492188 L 513.6940307617188 536.2655639648438 L 502.0980529785156 536.0562133789062 L 490.2980651855469 535.8508911132812 L 478.25701904296875 535.6502685546875 L 465.9378356933594 535.4551391601562 L 453.3033752441406 535.2661743164062 L 440.3166198730469 535.0841674804688 L 426.9404296875 534.9097290039062 L 413.1377258300781 534.7437133789062 L 398.8714294433594 534.5867919921875 L 384.1044921875 534.439697265625 L 368.79974365234375 534.3031616210938 L 352.920166015625 534.1779174804688 L 336.4286193847656 534.0646362304688 L 319.2880554199219 533.964111328125 L 301.4613952636719 533.8770751953125 L 282.9114990234375 533.80419921875 L 263.601318359375 533.7462768554688 L 243.4937744140625 533.7040405273438 L 222.5517578125 533.6781005859375 L 200.73818969726562 533.6693115234375 Z" fill-opacity="0.6" clip-path="url(#BFwkhHbbpiVU)" stroke-opacity="1" stroke-linejoin="bevel" stroke-miterlimit="10" stroke-width="0.8" stroke-dasharray=""/><path fill="rgb(255,187,120)" stroke="rgb(255,187,120)" paint-order="fill" d="M 200.73818969726562 471.29022216796875 L 200.73818969726562 533.6693115234375 L 200.73818969726562 533.6693115234375 L 222.5517578125 533.6729125976562 L 243.4937744140625 533.6834716796875 L 263.601318359375 533.70068359375 L 282.9114990234375 533.7243041992188 L 301.4613952636719 533.7539672851562 L 319.2880554199219 533.7894287109375 L 336.4286193847656 533.8303833007812 L 352.920166015625 533.8765258789062 L 368.79974365234375 533.9275512695312 L 384.1044921875 533.983154296875 L 398.8714294433594 534.0430908203125 L 413.1377258300781 534.1070556640625 L 426.9404296875 534.1746826171875 L 440.3166198730469 534.2457275390625 L 453.3033752441406 534.3198852539062 L 465.9378356933594 534.3968505859375 L 478.25701904296875 534.4763793945312 L 490.2980651855469 534.55810546875 L 502.0980529785156 534.6417846679688 L 513.6940307617188 534.72705078125 L 525.1231079101562 534.8136596679688 L 536.4224243164062 534.9013061523438 L 547.6290283203125 534.98974609375 L 558.7799682617188 535.0785522460938 L 569.912353515625 535.1675415039062 L 581.0632934570312 535.2564086914062 L 592.2698974609375 535.3447875976562 L 603.5691528320312 535.4324951171875 L 614.998291015625 535.5191040039062 L 626.59423828125 535.6043701171875 L 638.3942260742188 535.6880493164062 L 650.435302734375 535.769775390625 L 662.7544555664062 535.8492431640625 L 675.388916015625 535.92626953125 L 688.3756713867188 536.0004272460938 L 701.7518920898438 536.0714721679688 L 715.5545654296875 536.1390991210938 L 729.8208618164062 536.2030029296875 L 744.5878295898438 536.262939453125 L 759.892578125 536.318603515625 L 775.7721557617188 536.36962890625 L 792.263671875 536.415771484375 L 809.4042358398438 536.4567260742188 L 827.2308959960938 536.4921875 L 845.7808227539062 536.5218505859375 L 865.0910034179688 536.5454711914062 L 885.1985473632812 536.5626831054688 L 906.1405639648438 536.5732421875 L 927.9541015625 536.5768432617188 L 927.9541015625 536.5768432617188 L 927.9541015625 474.1977233886719 L 927.9541015625 474.1977233886719 L 906.1405639648438 474.19415283203125 L 885.1985473632812 474.18359375 L 865.0910034179688 474.1663513183594 L 845.7808227539062 474.14276123046875 L 827.2308959960938 474.11309814453125 L 809.4042358398438 474.0776062011719 L 792.263671875 474.03668212890625 L 775.7721557617188 473.99053955078125 L 759.892578125 473.9394836425781 L 744.5878295898438 473.8838806152344 L 729.8208618164062 473.8239440917969 L 715.5545654296875 473.760009765625 L 701.7518920898438 473.6923522949219 L 688.3756713867188 473.6213073730469 L 675.388916015625 473.5471496582031 L 662.7544555664062 473.47015380859375 L 650.435302734375 473.3906555175781 L 638.3942260742188 473.3089294433594 L 626.59423828125 473.22528076171875 L 614.998291015625 473.1399841308594 L 603.5691528320312 473.0533752441406 L 592.2698974609375 472.9657287597656 L 581.0632934570312 472.8773193359375 L 569.912353515625 472.7884826660156 L 558.7799682617188 472.6994934082031 L 547.6290283203125 472.6106262207031 L 536.4224243164062 472.5222473144531 L 525.1231079101562 472.4345703125 L 513.6940307617188 472.34796142578125 L 502.0980529785156 472.2626647949219 L 490.2980651855469 472.17901611328125 L 478.25701904296875 472.0972900390625 L 465.9378356933594 472.0177917480469 L 453.3033752441406 471.9407958984375 L 440.3166198730469 471.86663818359375 L 426.9404296875 471.79559326171875 L 413.1377258300781 471.7279357910156 L 398.8714294433594 471.66400146484375 L 384.1044921875 471.6040954589844 L 368.79974365234375 471.5484619140625 L 352.920166015625 471.4974365234375 L 336.4286193847656 471.4512939453125 L 319.2880554199219 471.41033935546875 L 301.4613952636719 471.3748779296875 L 282.9114990234375 471.3451843261719 L 263.601318359375 471.32159423828125 L 243.4937744140625 471.3043518066406 L 222.5517578125 471.2938232421875 L 200.73818969726562 471.29022216796875 Z" fill-opacity="0.6" clip-path="url(#BFwkhHbbpiVU)" stroke-opacity="1" stroke-linejoin="bevel" stroke-miterlimit="10" stroke-width="0.8" stroke-dasharray=""/><path fill="rgb(44,160,44)" stroke="rgb(44,160,44)" paint-order="fill" d="M 200.73818969726562 408.9111328125 L 200.73818969726562 471.29022216796875 L 200.73818969726562 471.29022216796875 L 222.5517578125 471.2886047363281 L 243.4937744140625 471.2838134765625 L 263.601318359375 471.2759704589844 L 282.9114990234375 471.2652587890625 L 301.4613952636719 471.2517395019531 L 319.2880554199219 471.2356262207031 L 336.4286193847656 471.2170104980469 L 352.920166015625 471.196044921875 L 368.79974365234375 471.1728515625 L 384.1044921875 471.1475524902344 L 398.8714294433594 471.1203308105469 L 413.1377258300781 471.09124755859375 L 426.9404296875 471.0605163574219 L 440.3166198730469 471.0282287597656 L 453.3033752441406 470.9945068359375 L 465.9378356933594 470.9595031738281 L 478.25701904296875 470.9233703613281 L 490.2980651855469 470.88623046875 L 502.0980529785156 470.84820556640625 L 513.6940307617188 470.8094482421875 L 525.1231079101562 470.77008056640625 L 536.4224243164062 470.730224609375 L 547.6290283203125 470.6900329589844 L 558.7799682617188 470.649658203125 L 569.912353515625 470.60919189453125 L 581.0632934570312 470.5688171386719 L 592.2698974609375 470.52862548828125 L 603.5691528320312 470.4888000488281 L 614.998291015625 470.4494323730469 L 626.59423828125 470.41064453125 L 638.3942260742188 470.37261962890625 L 650.435302734375 470.3354797363281 L 662.7544555664062 470.2993469238281 L 675.388916015625 470.26434326171875 L 688.3756713867188 470.23065185546875 L 701.7518920898438 470.1983337402344 L 715.5545654296875 470.1676025390625 L 729.8208618164062 470.1385498046875 L 744.5878295898438 470.1112976074219 L 759.892578125 470.08599853515625 L 775.7721557617188 470.06280517578125 L 792.263671875 470.0418395996094 L 809.4042358398438 470.0232238769531 L 827.2308959960938 470.0071105957031 L 845.7808227539062 469.9936218261719 L 865.0910034179688 469.9828796386719 L 885.1985473632812 469.9750671386719 L 906.1405639648438 469.97027587890625 L 927.9541015625 469.9686279296875 L 927.9541015625 469.9686279296875 L 927.9541015625 407.58953857421875 L 927.9541015625 407.58953857421875 L 906.1405639648438 407.5911865234375 L 885.1985473632812 407.5959777832031 L 865.0910034179688 407.6037902832031 L 845.7808227539062 407.6145324707031 L 827.2308959960938 407.6280212402344 L 809.4042358398438 407.6441345214844 L 792.263671875 407.6627502441406 L 775.7721557617188 407.6837158203125 L 759.892578125 407.7069091796875 L 744.5878295898438 407.7322082519531 L 729.8208618164062 407.75946044921875 L 715.5545654296875 407.78851318359375 L 701.7518920898438 407.8192443847656 L 688.3756713867188 407.8515625 L 675.388916015625 407.88525390625 L 662.7544555664062 407.9202575683594 L 650.435302734375 407.9563903808594 L 638.3942260742188 407.9935302734375 L 626.59423828125 408.03155517578125 L 614.998291015625 408.0703430175781 L 603.5691528320312 408.1097106933594 L 592.2698974609375 408.1495361328125 L 581.0632934570312 408.1897277832031 L 569.912353515625 408.2301025390625 L 558.7799682617188 408.27056884765625 L 547.6290283203125 408.3109436035156 L 536.4224243164062 408.35113525390625 L 525.1231079101562 408.3909912109375 L 513.6940307617188 408.43035888671875 L 502.0980529785156 408.4691162109375 L 490.2980651855469 408.50714111328125 L 478.25701904296875 408.5442810058594 L 465.9378356933594 408.5804138183594 L 453.3033752441406 408.61541748046875 L 440.3166198730469 408.6491394042969 L 426.9404296875 408.6814270019531 L 413.1377258300781 408.712158203125 L 398.8714294433594 408.7412414550781 L 384.1044921875 408.7684631347656 L 368.79974365234375 408.79376220703125 L 352.920166015625 408.81695556640625 L 336.4286193847656 408.8379211425781 L 319.2880554199219 408.8565368652344 L 301.4613952636719 408.8726501464844 L 282.9114990234375 408.8861389160156 L 263.601318359375 408.8968811035156 L 243.4937744140625 408.90472412109375 L 222.5517578125 408.9095153808594 L 200.73818969726562 408.9111328125 Z" fill-opacity="0.6" clip-path="url(#BFwkhHbbpiVU)" stroke-opacity="1" stroke-linejoin="bevel" stroke-miterlimit="10" stroke-width="0.8" stroke-dasharray=""/><path fill="rgb(152,223,138)" stroke="rgb(152,223,138)" paint-order="fill" d="M 200.73818969726562 362.1268310546875 L 200.73818969726562 408.9111328125 L 200.73818969726562 408.9111328125 L 222.5517578125 408.904296875 L 243.4937744140625 408.8841552734375 L 263.601318359375 408.85125732421875 L 282.9114990234375 408.80621337890625 L 301.4613952636719 408.7495422363281 L 319.2880554199219 408.6818542480469 L 336.4286193847656 408.6036682128906 L 352.920166015625 408.51556396484375 L 368.79974365234375 408.41815185546875 L 384.1044921875 408.31195068359375 L 398.8714294433594 408.1975402832031 L 413.1377258300781 408.0754699707031 L 426.9404296875 407.94635009765625 L 440.3166198730469 407.8106994628906 L 453.3033752441406 407.66912841796875 L 465.9378356933594 407.52215576171875 L 478.25701904296875 407.3703918457031 L 490.2980651855469 407.21435546875 L 502.0980529785156 407.0546569824219 L 513.6940307617188 406.891845703125 L 525.1231079101562 406.7264709472656 L 536.4224243164062 406.5591125488281 L 547.6290283203125 406.3903503417969 L 558.7799682617188 406.2207336425781 L 569.912353515625 406.05084228515625 L 581.0632934570312 405.8812255859375 L 592.2698974609375 405.71246337890625 L 603.5691528320312 405.5451354980469 L 614.998291015625 405.3797607421875 L 626.59423828125 405.2169494628906 L 638.3942260742188 405.0572509765625 L 650.435302734375 404.9012145996094 L 662.7544555664062 404.7494201660156 L 675.388916015625 404.60247802734375 L 688.3756713867188 404.46087646484375 L 701.7518920898438 404.3252258300781 L 715.5545654296875 404.19610595703125 L 729.8208618164062 404.0740661621094 L 744.5878295898438 403.95965576171875 L 759.892578125 403.8534240722656 L 775.7721557617188 403.7560119628906 L 792.263671875 403.6679382324219 L 809.4042358398438 403.5897521972656 L 827.2308959960938 403.52203369140625 L 845.7808227539062 403.46539306640625 L 865.0910034179688 403.4203186035156 L 885.1985473632812 403.387451171875 L 906.1405639648438 403.3673095703125 L 927.9541015625 403.3604431152344 L 927.9541015625 403.3604431152344 L 927.9541015625 356.5761413574219 L 927.9541015625 356.5761413574219 L 906.1405639648438 356.5829772949219 L 885.1985473632812 356.6031188964844 L 865.0910034179688 356.6360168457031 L 845.7808227539062 356.6810607910156 L 827.2308959960938 356.73773193359375 L 809.4042358398438 356.805419921875 L 792.263671875 356.88360595703125 L 775.7721557617188 356.9716796875 L 759.892578125 357.0691223144531 L 744.5878295898438 357.1753234863281 L 729.8208618164062 357.28973388671875 L 715.5545654296875 357.4117736816406 L 701.7518920898438 357.5409240722656 L 688.3756713867188 357.67657470703125 L 675.388916015625 357.8181457519531 L 662.7544555664062 357.9651184082031 L 650.435302734375 358.11688232421875 L 638.3942260742188 358.2729187011719 L 626.59423828125 358.4326171875 L 614.998291015625 358.5954284667969 L 603.5691528320312 358.76080322265625 L 592.2698974609375 358.92816162109375 L 581.0632934570312 359.096923828125 L 569.912353515625 359.26654052734375 L 558.7799682617188 359.4364318847656 L 547.6290283203125 359.6060485839844 L 536.4224243164062 359.7748107910156 L 525.1231079101562 359.942138671875 L 513.6940307617188 360.1075134277344 L 502.0980529785156 360.27032470703125 L 490.2980651855469 360.4300231933594 L 478.25701904296875 360.5860595703125 L 465.9378356933594 360.7378234863281 L 453.3033752441406 360.8847961425781 L 440.3166198730469 361.0263977050781 L 426.9404296875 361.16204833984375 L 413.1377258300781 361.2911682128906 L 398.8714294433594 361.4132080078125 L 384.1044921875 361.5276184082031 L 368.79974365234375 361.6338195800781 L 352.920166015625 361.73126220703125 L 336.4286193847656 361.8193359375 L 319.2880554199219 361.89752197265625 L 301.4613952636719 361.9652404785156 L 282.9114990234375 362.0218811035156 L 263.601318359375 362.06695556640625 L 243.4937744140625 362.0998229980469 L 222.5517578125 362.1199645996094 L 200.73818969726562 362.1268310546875 Z" fill-opacity="0.6" clip-path="url(#BFwkhHbbpiVU)" stroke-opacity="1" stroke-linejoin="bevel" stroke-miterlimit="10" stroke-width="0.8" stroke-dasharray=""/><path fill="rgb(214,39,40)" stroke="rgb(214,39,40)" paint-order="fill" d="M 200.73818969726562 315.3424987792969 L 200.73818969726562 362.1268310546875 L 200.73818969726562 362.1268310546875 L 222.5517578125 362.1147766113281 L 243.4937744140625 362.07928466796875 L 263.601318359375 362.0213317871094 L 282.9114990234375 361.94195556640625 L 301.4613952636719 361.84210205078125 L 319.2880554199219 361.7228088378906 L 336.4286193847656 361.5850830078125 L 352.920166015625 361.42987060546875 L 368.79974365234375 361.25823974609375 L 384.1044921875 361.07110595703125 L 398.8714294433594 360.8695373535156 L 413.1377258300781 360.65447998046875 L 426.9404296875 360.4269714355469 L 440.3166198730469 360.1879577636719 L 453.3033752441406 359.9385070800781 L 465.9378356933594 359.6795654296875 L 478.25701904296875 359.4121398925781 L 490.2980651855469 359.1372375488281 L 502.0980529785156 358.8558654785156 L 513.6940307617188 358.5690002441406 L 525.1231079101562 358.27764892578125 L 536.4224243164062 357.9827880859375 L 547.6290283203125 357.6854553222656 L 558.7799682617188 357.3865966796875 L 569.912353515625 357.0872497558594 L 581.0632934570312 356.7884216308594 L 592.2698974609375 356.4910888671875 L 603.5691528320312 356.19622802734375 L 614.998291015625 355.9048767089844 L 626.59423828125 355.6180114746094 L 638.3942260742188 355.33660888671875 L 650.435302734375 355.06170654296875 L 662.7544555664062 354.7942810058594 L 675.388916015625 354.5353698730469 L 688.3756713867188 354.285888671875 L 701.7518920898438 354.0469055175781 L 715.5545654296875 353.81939697265625 L 729.8208618164062 353.6043395996094 L 744.5878295898438 353.4027404785156 L 759.892578125 353.21563720703125 L 775.7721557617188 353.0439758300781 L 792.263671875 352.8887939453125 L 809.4042358398438 352.75103759765625 L 827.2308959960938 352.6317443847656 L 845.7808227539062 352.53192138671875 L 865.0910034179688 352.4525451660156 L 885.1985473632812 352.39459228515625 L 906.1405639648438 352.3591003417969 L 927.9541015625 352.3470458984375 L 927.9541015625 352.3470458984375 L 927.9541015625 305.5627136230469 L 927.9541015625 305.5627136230469 L 906.1405639648438 305.57476806640625 L 885.1985473632812 305.61029052734375 L 865.0910034179688 305.668212890625 L 845.7808227539062 305.7475891113281 L 827.2308959960938 305.8474426269531 L 809.4042358398438 305.96673583984375 L 792.263671875 306.1044616699219 L 775.7721557617188 306.2596740722656 L 759.892578125 306.4313049316406 L 744.5878295898438 306.6184387207031 L 729.8208618164062 306.82000732421875 L 715.5545654296875 307.0350646972656 L 701.7518920898438 307.2625732421875 L 688.3756713867188 307.5015869140625 L 675.388916015625 307.75103759765625 L 662.7544555664062 308.0099792480469 L 650.435302734375 308.27740478515625 L 638.3942260742188 308.55230712890625 L 626.59423828125 308.83367919921875 L 614.998291015625 309.12054443359375 L 603.5691528320312 309.4118957519531 L 592.2698974609375 309.7067565917969 L 581.0632934570312 310.00408935546875 L 569.912353515625 310.3029479980469 L 558.7799682617188 310.602294921875 L 547.6290283203125 310.901123046875 L 536.4224243164062 311.1984558105469 L 525.1231079101562 311.4933166503906 L 513.6940307617188 311.78466796875 L 502.0980529785156 312.071533203125 L 490.2980651855469 312.3529357910156 L 478.25701904296875 312.6278381347656 L 465.9378356933594 312.895263671875 L 453.3033752441406 313.1541748046875 L 440.3166198730469 313.4036560058594 L 426.9404296875 313.64263916015625 L 413.1377258300781 313.8701477050781 L 398.8714294433594 314.085205078125 L 384.1044921875 314.28680419921875 L 368.79974365234375 314.4739074707031 L 352.920166015625 314.64556884765625 L 336.4286193847656 314.8007507324219 L 319.2880554199219 314.9385070800781 L 301.4613952636719 315.05780029296875 L 282.9114990234375 315.1576232910156 L 263.601318359375 315.23699951171875 L 243.4937744140625 315.2949523925781 L 222.5517578125 315.3304443359375 L 200.73818969726562 315.3424987792969 Z" fill-opacity="0.6" clip-path="url(#BFwkhHbbpiVU)" stroke-opacity="1" stroke-linejoin="bevel" stroke-miterlimit="10" stroke-width="0.8" stroke-dasharray=""/><path fill="rgb(255,152,150)" stroke="rgb(255,152,150)" paint-order="fill" d="M 200.73818969726562 268.5581970214844 L 200.73818969726562 315.3424987792969 L 200.73818969726562 315.3424987792969 L 222.5517578125 315.3252258300781 L 243.4937744140625 315.2743835449219 L 263.601318359375 315.19140625 L 282.9114990234375 315.0776672363281 L 301.4613952636719 314.9346618652344 L 319.2880554199219 314.7637939453125 L 336.4286193847656 314.5664978027344 L 352.920166015625 314.34417724609375 L 368.79974365234375 314.0982971191406 L 384.1044921875 313.83026123046875 L 398.8714294433594 313.54150390625 L 413.1377258300781 313.23345947265625 L 426.9404296875 312.9075622558594 L 440.3166198730469 312.56524658203125 L 453.3033752441406 312.2078857421875 L 465.9378356933594 311.83697509765625 L 478.25701904296875 311.45391845703125 L 490.2980651855469 311.0601501464844 L 502.0980529785156 310.6570739746094 L 513.6940307617188 310.24615478515625 L 525.1231079101562 309.82879638671875 L 536.4224243164062 309.4064636230469 L 547.6290283203125 308.98052978515625 L 558.7799682617188 308.5524597167969 L 569.912353515625 308.1236877441406 L 581.0632934570312 307.69561767578125 L 592.2698974609375 307.2696838378906 L 603.5691528320312 306.8473205566406 L 614.998291015625 306.4299621582031 L 626.59423828125 306.01904296875 L 638.3942260742188 305.6159973144531 L 650.435302734375 305.22222900390625 L 662.7544555664062 304.8391418457031 L 675.388916015625 304.4682312011719 L 688.3756713867188 304.11090087890625 L 701.7518920898438 303.7685546875 L 715.5545654296875 303.4426574707031 L 729.8208618164062 303.1346130371094 L 744.5878295898438 302.8458557128906 L 759.892578125 302.57781982421875 L 775.7721557617188 302.3319396972656 L 792.263671875 302.1096496582031 L 809.4042358398438 301.9123229980469 L 827.2308959960938 301.741455078125 L 845.7808227539062 301.59844970703125 L 865.0910034179688 301.4847412109375 L 885.1985473632812 301.4017333984375 L 906.1405639648438 301.35089111328125 L 927.9541015625 301.3336486816406 L 927.9541015625 301.3336486816406 L 927.9541015625 254.54931640625 L 927.9541015625 254.54931640625 L 906.1405639648438 254.56658935546875 L 885.1985473632812 254.617431640625 L 865.0910034179688 254.70042419433594 L 845.7808227539062 254.8141326904297 L 827.2308959960938 254.95713806152344 L 809.4042358398438 255.12802124023438 L 792.263671875 255.3253173828125 L 775.7721557617188 255.54762268066406 L 759.892578125 255.79351806640625 L 744.5878295898438 256.0615539550781 L 729.8208618164062 256.3502960205078 L 715.5545654296875 256.6583557128906 L 701.7518920898438 256.9842529296875 L 688.3756713867188 257.32659912109375 L 675.388916015625 257.6839294433594 L 662.7544555664062 258.0548400878906 L 650.435302734375 258.4378967285156 L 638.3942260742188 258.8316650390625 L 626.59423828125 259.2347412109375 L 614.998291015625 259.6456604003906 L 603.5691528320312 260.0630187988281 L 592.2698974609375 260.4853515625 L 581.0632934570312 260.9112854003906 L 569.912353515625 261.33935546875 L 558.7799682617188 261.76812744140625 L 547.6290283203125 262.1961975097656 L 536.4224243164062 262.62213134765625 L 525.1231079101562 263.04449462890625 L 513.6940307617188 263.46185302734375 L 502.0980529785156 263.8727722167969 L 490.2980651855469 264.27581787109375 L 478.25701904296875 264.66961669921875 L 465.9378356933594 265.05267333984375 L 453.3033752441406 265.423583984375 L 440.3166198730469 265.7809143066406 L 426.9404296875 266.1232604980469 L 413.1377258300781 266.44915771484375 L 398.8714294433594 266.7572021484375 L 384.1044921875 267.04595947265625 L 368.79974365234375 267.3139953613281 L 352.920166015625 267.55987548828125 L 336.4286193847656 267.78216552734375 L 319.2880554199219 267.9794921875 L 301.4613952636719 268.1503601074219 L 282.9114990234375 268.2933654785156 L 263.601318359375 268.4070739746094 L 243.4937744140625 268.4900817871094 L 222.5517578125 268.5409240722656 L 200.73818969726562 268.5581970214844 Z" fill-opacity="0.6" clip-path="url(#BFwkhHbbpiVU)" stroke-opacity="1" stroke-linejoin="bevel" stroke-miterlimit="10" stroke-width="0.8" stroke-dasharray=""/><path fill="rgb(148,103,189)" stroke="rgb(148,103,189)" paint-order="fill" d="M 200.73818969726562 237.36863708496094 L 200.73818969726562 268.5581970214844 L 200.73818969726562 268.5581970214844 L 222.5517578125 268.53570556640625 L 243.4937744140625 268.4695129394531 L 263.601318359375 268.3614501953125 L 282.9114990234375 268.2134094238281 L 301.4613952636719 268.0272521972656 L 319.2880554199219 267.8047790527344 L 336.4286193847656 267.54791259765625 L 352.920166015625 267.25848388671875 L 368.79974365234375 266.9383850097656 L 384.1044921875 266.58941650390625 L 398.8714294433594 266.2135009765625 L 413.1377258300781 265.8124694824219 L 426.9404296875 265.38818359375 L 440.3166198730469 264.9425048828125 L 453.3033752441406 264.4772644042969 L 465.9378356933594 263.994384765625 L 478.25701904296875 263.4956970214844 L 490.2980651855469 262.9830322265625 L 502.0980529785156 262.4582824707031 L 513.6940307617188 261.9233093261719 L 525.1231079101562 261.3799743652344 L 536.4224243164062 260.8301086425781 L 547.6290283203125 260.2756042480469 L 558.7799682617188 259.71832275390625 L 569.912353515625 259.16009521484375 L 581.0632934570312 258.602783203125 L 592.2698974609375 258.04827880859375 L 603.5691528320312 257.4984436035156 L 614.998291015625 256.955078125 L 626.59423828125 256.42010498046875 L 638.3942260742188 255.89537048339844 L 650.435302734375 255.38272094726562 L 662.7544555664062 254.88401794433594 L 675.388916015625 254.401123046875 L 688.3756713867188 253.9359130859375 L 701.7518920898438 253.490234375 L 715.5545654296875 253.06594848632812 L 729.8208618164062 252.66490173339844 L 744.5878295898438 252.2889862060547 L 759.892578125 251.94003295898438 L 775.7721557617188 251.6199188232422 L 792.263671875 251.3304901123047 L 809.4042358398438 251.07362365722656 L 827.2308959960938 250.85116577148438 L 845.7808227539062 250.6649932861328 L 865.0910034179688 250.51695251464844 L 885.1985473632812 250.40890502929688 L 906.1405639648438 250.34271240234375 L 927.9541015625 250.32022094726562 L 927.9541015625 250.32022094726562 L 927.9541015625 219.13067626953125 L 927.9541015625 219.13067626953125 L 906.1405639648438 219.1531524658203 L 885.1985473632812 219.2193603515625 L 865.0910034179688 219.32740783691406 L 845.7808227539062 219.47544860839844 L 827.2308959960938 219.66162109375 L 809.4042358398438 219.8840789794922 L 792.263671875 220.1409454345703 L 775.7721557617188 220.4303741455078 L 759.892578125 220.75048828125 L 744.5878295898438 221.0994415283203 L 729.8208618164062 221.47535705566406 L 715.5545654296875 221.87640380859375 L 701.7518920898438 222.30068969726562 L 688.3756713867188 222.74636840820312 L 675.388916015625 223.21157836914062 L 662.7544555664062 223.69447326660156 L 650.435302734375 224.19317626953125 L 638.3942260742188 224.70582580566406 L 626.59423828125 225.23056030273438 L 614.998291015625 225.76553344726562 L 603.5691528320312 226.3088836669922 L 592.2698974609375 226.85873413085938 L 581.0632934570312 227.4132537841797 L 569.912353515625 227.97055053710938 L 558.7799682617188 228.52877807617188 L 547.6290283203125 229.08607482910156 L 536.4224243164062 229.6405792236328 L 525.1231079101562 230.1904296875 L 513.6940307617188 230.73377990722656 L 502.0980529785156 231.2687530517578 L 490.2980651855469 231.79348754882812 L 478.25701904296875 232.30615234375 L 465.9378356933594 232.80484008789062 L 453.3033752441406 233.28773498535156 L 440.3166198730469 233.75294494628906 L 426.9404296875 234.19862365722656 L 413.1377258300781 234.6229248046875 L 398.8714294433594 235.02395629882812 L 384.1044921875 235.39988708496094 L 368.79974365234375 235.7488250732422 L 352.920166015625 236.06895446777344 L 336.4286193847656 236.35836791992188 L 319.2880554199219 236.615234375 L 301.4613952636719 236.8376922607422 L 282.9114990234375 237.02386474609375 L 263.601318359375 237.1719207763672 L 243.4937744140625 237.27996826171875 L 222.5517578125 237.34616088867188 L 200.73818969726562 237.36863708496094 Z" fill-opacity="0.6" clip-path="url(#BFwkhHbbpiVU)" stroke-opacity="1" stroke-linejoin="bevel" stroke-miterlimit="10" stroke-width="0.8" stroke-dasharray=""/><path fill="rgb(197,176,213)" stroke="rgb(197,176,213)" paint-order="fill" d="M 200.73818969726562 221.77386474609375 L 200.73818969726562 237.36863708496094 L 200.73818969726562 237.36863708496094 L 222.5517578125 237.3409423828125 L 243.4937744140625 237.2593994140625 L 263.601318359375 237.1262969970703 L 282.9114990234375 236.9439239501953 L 301.4613952636719 236.71456909179688 L 319.2880554199219 236.44053649902344 L 336.4286193847656 236.1240997314453 L 352.920166015625 235.767578125 L 368.79974365234375 235.37322998046875 L 384.1044921875 234.943359375 L 398.8714294433594 234.4802703857422 L 413.1377258300781 233.98623657226562 L 426.9404296875 233.46356201171875 L 440.3166198730469 232.91453552246094 L 453.3033752441406 232.3414306640625 L 465.9378356933594 231.74658203125 L 478.25701904296875 231.13223266601562 L 490.2980651855469 230.50070190429688 L 502.0980529785156 229.8542938232422 L 513.6940307617188 229.1952667236328 L 525.1231079101562 228.5259246826172 L 536.4224243164062 227.8485565185547 L 547.6290283203125 227.1654815673828 L 558.7799682617188 226.47894287109375 L 569.912353515625 225.79127502441406 L 581.0632934570312 225.10475158691406 L 592.2698974609375 224.42166137695312 L 603.5691528320312 223.7443084716797 L 614.998291015625 223.07496643066406 L 626.59423828125 222.4159393310547 L 638.3942260742188 221.76951599121094 L 650.435302734375 221.1379852294922 L 662.7544555664062 220.52365112304688 L 675.388916015625 219.9287872314453 L 688.3756713867188 219.35569763183594 L 701.7518920898438 218.80667114257812 L 715.5545654296875 218.28399658203125 L 729.8208618164062 217.7899627685547 L 744.5878295898438 217.32687377929688 L 759.892578125 216.89700317382812 L 775.7721557617188 216.50265502929688 L 792.263671875 216.1461181640625 L 809.4042358398438 215.82969665527344 L 827.2308959960938 215.55564880371094 L 845.7808227539062 215.3262939453125 L 865.0910034179688 215.1439208984375 L 885.1985473632812 215.0108184814453 L 906.1405639648438 214.9292755126953 L 927.9541015625 214.90159606933594 L 927.9541015625 214.90159606933594 L 927.9541015625 199.30682373046875 L 927.9541015625 199.30682373046875 L 906.1405639648438 199.33450317382812 L 885.1985473632812 199.41604614257812 L 865.0910034179688 199.5491485595703 L 845.7808227539062 199.7315216064453 L 827.2308959960938 199.96087646484375 L 809.4042358398438 200.2349090576172 L 792.263671875 200.5513458251953 L 775.7721557617188 200.9078826904297 L 759.892578125 201.30223083496094 L 744.5878295898438 201.7321014404297 L 729.8208618164062 202.1951904296875 L 715.5545654296875 202.68922424316406 L 701.7518920898438 203.21189880371094 L 688.3756713867188 203.76092529296875 L 675.388916015625 204.33401489257812 L 662.7544555664062 204.9288787841797 L 650.435302734375 205.543212890625 L 638.3942260742188 206.17474365234375 L 626.59423828125 206.8211669921875 L 614.998291015625 207.48019409179688 L 603.5691528320312 208.1495361328125 L 592.2698974609375 208.82688903808594 L 581.0632934570312 209.50997924804688 L 569.912353515625 210.19650268554688 L 558.7799682617188 210.88417053222656 L 547.6290283203125 211.57070922851562 L 536.4224243164062 212.2537841796875 L 525.1231079101562 212.93115234375 L 513.6940307617188 213.60049438476562 L 502.0980529785156 214.25950622558594 L 490.2980651855469 214.9059295654297 L 478.25701904296875 215.53746032714844 L 465.9378356933594 216.1518096923828 L 453.3033752441406 216.7466583251953 L 440.3166198730469 217.3197479248047 L 426.9404296875 217.86878967285156 L 413.1377258300781 218.39146423339844 L 398.8714294433594 218.885498046875 L 384.1044921875 219.3485870361328 L 368.79974365234375 219.77845764160156 L 352.920166015625 220.1728057861328 L 336.4286193847656 220.52932739257812 L 319.2880554199219 220.84576416015625 L 301.4613952636719 221.1197967529297 L 282.9114990234375 221.34915161132812 L 263.601318359375 221.53152465820312 L 243.4937744140625 221.6646270751953 L 222.5517578125 221.7461700439453 L 200.73818969726562 221.77386474609375 Z" fill-opacity="0.6" clip-path="url(#BFwkhHbbpiVU)" stroke-opacity="1" stroke-linejoin="bevel" stroke-miterlimit="10" stroke-width="0.8" stroke-dasharray=""/><path fill="rgb(140,86,75)" stroke="rgb(140,86,75)" paint-order="fill" d="M 200.73818969726562 206.17909240722656 L 200.73818969726562 221.77386474609375 L 200.73818969726562 221.77386474609375 L 222.5517578125 221.740966796875 L 243.4937744140625 221.64407348632812 L 263.601318359375 221.4859161376953 L 282.9114990234375 221.2692108154297 L 301.4613952636719 220.99668884277344 L 319.2880554199219 220.6710662841797 L 336.4286193847656 220.29507446289062 L 352.920166015625 219.8714141845703 L 368.79974365234375 219.40284729003906 L 384.1044921875 218.89205932617188 L 398.8714294433594 218.341796875 L 413.1377258300781 217.75477600097656 L 426.9404296875 217.1337127685547 L 440.3166198730469 216.48133850097656 L 453.3033752441406 215.8003692626953 L 465.9378356933594 215.09353637695312 L 478.25701904296875 214.36355590820312 L 490.2980651855469 213.61314392089844 L 502.0980529785156 212.8450469970703 L 513.6940307617188 212.0619659423828 L 525.1231079101562 211.26663208007812 L 536.4224243164062 210.46177673339844 L 547.6290283203125 209.6501007080078 L 558.7799682617188 208.8343505859375 L 569.912353515625 208.01724243164062 L 581.0632934570312 207.20147705078125 L 592.2698974609375 206.3898162841797 L 603.5691528320312 205.58494567871094 L 614.998291015625 204.7896270751953 L 626.59423828125 204.0065460205078 L 638.3942260742188 203.23843383789062 L 650.435302734375 202.488037109375 L 662.7544555664062 201.758056640625 L 675.388916015625 201.0512237548828 L 688.3756713867188 200.37025451660156 L 701.7518920898438 199.71788024902344 L 715.5545654296875 199.09681701660156 L 729.8208618164062 198.50979614257812 L 744.5878295898438 197.95953369140625 L 759.892578125 197.44874572753906 L 775.7721557617188 196.98016357421875 L 792.263671875 196.5565185546875 L 809.4042358398438 196.18052673339844 L 827.2308959960938 195.8549041748047 L 845.7808227539062 195.58238220214844 L 865.0910034179688 195.3656768798828 L 885.1985473632812 195.20751953125 L 906.1405639648438 195.11062622070312 L 927.9541015625 195.07772827148438 L 927.9541015625 195.07772827148438 L 927.9541015625 179.4829559326172 L 927.9541015625 179.4829559326172 L 906.1405639648438 179.51585388183594 L 885.1985473632812 179.6127471923828 L 865.0910034179688 179.77090454101562 L 845.7808227539062 179.98760986328125 L 827.2308959960938 180.2601318359375 L 809.4042358398438 180.58575439453125 L 792.263671875 180.9617462158203 L 775.7721557617188 181.38539123535156 L 759.892578125 181.85397338867188 L 744.5878295898438 182.36476135253906 L 729.8208618164062 182.91502380371094 L 715.5545654296875 183.50204467773438 L 701.7518920898438 184.12310791015625 L 688.3756713867188 184.77548217773438 L 675.388916015625 185.45645141601562 L 662.7544555664062 186.1632843017578 L 650.435302734375 186.8932647705078 L 638.3942260742188 187.64366149902344 L 626.59423828125 188.41177368164062 L 614.998291015625 189.19485473632812 L 603.5691528320312 189.99017333984375 L 592.2698974609375 190.7950439453125 L 581.0632934570312 191.60670471191406 L 569.912353515625 192.42247009277344 L 558.7799682617188 193.2395782470703 L 547.6290283203125 194.05532836914062 L 536.4224243164062 194.86700439453125 L 525.1231079101562 195.67185974121094 L 513.6940307617188 196.46719360351562 L 502.0980529785156 197.25027465820312 L 490.2980651855469 198.01837158203125 L 478.25701904296875 198.76878356933594 L 465.9378356933594 199.49876403808594 L 453.3033752441406 200.20559692382812 L 440.3166198730469 200.88656616210938 L 426.9404296875 201.5389404296875 L 413.1377258300781 202.16000366210938 L 398.8714294433594 202.7470245361328 L 384.1044921875 203.2972869873047 L 368.79974365234375 203.80807495117188 L 352.920166015625 204.27664184570312 L 336.4286193847656 204.70030212402344 L 319.2880554199219 205.0762939453125 L 301.4613952636719 205.40191650390625 L 282.9114990234375 205.6744384765625 L 263.601318359375 205.89114379882812 L 243.4937744140625 206.04930114746094 L 222.5517578125 206.1461944580078 L 200.73818969726562 206.17909240722656 Z" fill-opacity="0.6" clip-path="url(#BFwkhHbbpiVU)" stroke-opacity="1" stroke-linejoin="bevel" stroke-miterlimit="10" stroke-width="0.8" stroke-dasharray=""/><path fill="rgb(196,156,148)" stroke="rgb(196,156,148)" paint-order="fill" d="M 200.73818969726562 190.58432006835938 L 200.73818969726562 206.17909240722656 L 200.73818969726562 206.17909240722656 L 222.5517578125 206.14097595214844 L 243.4937744140625 206.0287322998047 L 263.601318359375 205.84552001953125 L 282.9114990234375 205.59449768066406 L 301.4613952636719 205.27879333496094 L 319.2880554199219 204.90159606933594 L 336.4286193847656 204.46603393554688 L 352.920166015625 203.9752655029297 L 368.79974365234375 203.43246459960938 L 384.1044921875 202.8407745361328 L 398.8714294433594 202.20333862304688 L 413.1377258300781 201.5233154296875 L 426.9404296875 200.80386352539062 L 440.3166198730469 200.0481414794922 L 453.3033752441406 199.25929260253906 L 465.9378356933594 198.44049072265625 L 478.25701904296875 197.59486389160156 L 490.2980651855469 196.7255859375 L 502.0980529785156 195.8358154296875 L 513.6940307617188 194.92868041992188 L 525.1231079101562 194.00735473632812 L 536.4224243164062 193.0749969482422 L 547.6290283203125 192.13473510742188 L 558.7799682617188 191.18975830078125 L 569.912353515625 190.24319458007812 L 581.0632934570312 189.2982177734375 L 592.2698974609375 188.35797119140625 L 603.5691528320312 187.42559814453125 L 614.998291015625 186.5042724609375 L 626.59423828125 185.59715270996094 L 638.3942260742188 184.70736694335938 L 650.435302734375 183.8380889892578 L 662.7544555664062 182.99246215820312 L 675.388916015625 182.1736602783203 L 688.3756713867188 181.3848114013672 L 701.7518920898438 180.62908935546875 L 715.5545654296875 179.90963745117188 L 729.8208618164062 179.22962951660156 L 744.5878295898438 178.59219360351562 L 759.892578125 178.00048828125 L 775.7721557617188 177.4576873779297 L 792.263671875 176.9669189453125 L 809.4042358398438 176.53135681152344 L 827.2308959960938 176.15415954589844 L 845.7808227539062 175.83847045898438 L 865.0910034179688 175.58743286132812 L 885.1985473632812 175.4042205810547 L 906.1405639648438 175.29197692871094 L 927.9541015625 175.2538604736328 L 927.9541015625 175.2538604736328 L 927.9541015625 159.65908813476562 L 927.9541015625 159.65908813476562 L 906.1405639648438 159.69720458984375 L 885.1985473632812 159.8094482421875 L 865.0910034179688 159.99266052246094 L 845.7808227539062 160.2436981201172 L 827.2308959960938 160.55938720703125 L 809.4042358398438 160.93658447265625 L 792.263671875 161.3721466064453 L 775.7721557617188 161.8629150390625 L 759.892578125 162.4057159423828 L 744.5878295898438 162.99742126464844 L 729.8208618164062 163.63485717773438 L 715.5545654296875 164.3148651123047 L 701.7518920898438 165.03431701660156 L 688.3756713867188 165.7900390625 L 675.388916015625 166.57888793945312 L 662.7544555664062 167.39768981933594 L 650.435302734375 168.24331665039062 L 638.3942260742188 169.1125946044922 L 626.59423828125 170.00238037109375 L 614.998291015625 170.9095001220703 L 603.5691528320312 171.83082580566406 L 592.2698974609375 172.76319885253906 L 581.0632934570312 173.7034454345703 L 569.912353515625 174.64842224121094 L 558.7799682617188 175.59498596191406 L 547.6290283203125 176.5399627685547 L 536.4224243164062 177.48020935058594 L 525.1231079101562 178.41258239746094 L 513.6940307617188 179.3339080810547 L 502.0980529785156 180.2410430908203 L 490.2980651855469 181.1308135986328 L 478.25701904296875 182.00009155273438 L 465.9378356933594 182.84571838378906 L 453.3033752441406 183.66452026367188 L 440.3166198730469 184.453369140625 L 426.9404296875 185.20909118652344 L 413.1377258300781 185.9285430908203 L 398.8714294433594 186.6085662841797 L 384.1044921875 187.24600219726562 L 368.79974365234375 187.8376922607422 L 352.920166015625 188.3804931640625 L 336.4286193847656 188.8712615966797 L 319.2880554199219 189.30682373046875 L 301.4613952636719 189.68402099609375 L 282.9114990234375 189.9997100830078 L 263.601318359375 190.25074768066406 L 243.4937744140625 190.4339599609375 L 222.5517578125 190.54620361328125 L 200.73818969726562 190.58432006835938 Z" fill-opacity="0.6" clip-path="url(#BFwkhHbbpiVU)" stroke-opacity="1" stroke-linejoin="bevel" stroke-miterlimit="10" stroke-width="0.8" stroke-dasharray=""/><path fill="rgb(227,119,194)" stroke="rgb(227,119,194)" paint-order="fill" d="M 200.73818969726562 174.9895477294922 L 200.73818969726562 190.58432006835938 L 200.73818969726562 190.58432006835938 L 222.5517578125 190.54098510742188 L 243.4937744140625 190.4134063720703 L 263.601318359375 190.20513916015625 L 282.9114990234375 189.91976928710938 L 301.4613952636719 189.56089782714844 L 319.2880554199219 189.13211059570312 L 336.4286193847656 188.63699340820312 L 352.920166015625 188.07911682128906 L 368.79974365234375 187.4620819091797 L 384.1044921875 186.7894744873047 L 398.8714294433594 186.0648651123047 L 413.1377258300781 185.29185485839844 L 426.9404296875 184.47401428222656 L 440.3166198730469 183.6149444580078 L 453.3033752441406 182.71823120117188 L 465.9378356933594 181.78744506835938 L 478.25701904296875 180.82618713378906 L 490.2980651855469 179.83802795410156 L 502.0980529785156 178.82656860351562 L 513.6940307617188 177.79539489746094 L 525.1231079101562 176.74807739257812 L 536.4224243164062 175.68820190429688 L 547.6290283203125 174.61936950683594 L 558.7799682617188 173.545166015625 L 569.912353515625 172.4691619873047 L 581.0632934570312 171.3949432373047 L 592.2698974609375 170.32611083984375 L 603.5691528320312 169.26625061035156 L 614.998291015625 168.21893310546875 L 626.59423828125 167.187744140625 L 638.3942260742188 166.17628479003906 L 650.435302734375 165.18812561035156 L 662.7544555664062 164.22686767578125 L 675.388916015625 163.29608154296875 L 688.3756713867188 162.3993682861328 L 701.7518920898438 161.54029846191406 L 715.5545654296875 160.72247314453125 L 729.8208618164062 159.94944763183594 L 744.5878295898438 159.224853515625 L 759.892578125 158.55223083496094 L 775.7721557617188 157.93519592285156 L 792.263671875 157.3773193359375 L 809.4042358398438 156.8822021484375 L 827.2308959960938 156.4534149169922 L 845.7808227539062 156.09454345703125 L 865.0910034179688 155.80918884277344 L 885.1985473632812 155.60092163085938 L 906.1405639648438 155.47332763671875 L 927.9541015625 155.42999267578125 L 927.9541015625 155.42999267578125 L 927.9541015625 139.83522033691406 L 927.9541015625 139.83522033691406 L 906.1405639648438 139.87855529785156 L 885.1985473632812 140.0061492919922 L 865.0910034179688 140.21441650390625 L 845.7808227539062 140.49977111816406 L 827.2308959960938 140.858642578125 L 809.4042358398438 141.2874298095703 L 792.263671875 141.7825469970703 L 775.7721557617188 142.34042358398438 L 759.892578125 142.95745849609375 L 744.5878295898438 143.63006591796875 L 729.8208618164062 144.35467529296875 L 715.5545654296875 145.127685546875 L 701.7518920898438 145.94552612304688 L 688.3756713867188 146.80459594726562 L 675.388916015625 147.70130920410156 L 662.7544555664062 148.63209533691406 L 650.435302734375 149.59335327148438 L 638.3942260742188 150.58151245117188 L 626.59423828125 151.5929718017578 L 614.998291015625 152.62416076660156 L 603.5691528320312 153.67147827148438 L 592.2698974609375 154.73133850097656 L 581.0632934570312 155.8001708984375 L 569.912353515625 156.8743896484375 L 558.7799682617188 157.9503936767578 L 547.6290283203125 159.02459716796875 L 536.4224243164062 160.0934295654297 L 525.1231079101562 161.15330505371094 L 513.6940307617188 162.20062255859375 L 502.0980529785156 163.23179626464844 L 490.2980651855469 164.24325561523438 L 478.25701904296875 165.23141479492188 L 465.9378356933594 166.1926727294922 L 453.3033752441406 167.1234588623047 L 440.3166198730469 168.02017211914062 L 426.9404296875 168.87924194335938 L 413.1377258300781 169.69708251953125 L 398.8714294433594 170.4700927734375 L 384.1044921875 171.1947021484375 L 368.79974365234375 171.8673095703125 L 352.920166015625 172.48434448242188 L 336.4286193847656 173.04222106933594 L 319.2880554199219 173.53733825683594 L 301.4613952636719 173.96612548828125 L 282.9114990234375 174.3249969482422 L 263.601318359375 174.61036682128906 L 243.4937744140625 174.81863403320312 L 222.5517578125 174.9462127685547 L 200.73818969726562 174.9895477294922 Z" fill-opacity="0.6" clip-path="url(#BFwkhHbbpiVU)" stroke-opacity="1" stroke-linejoin="bevel" stroke-miterlimit="10" stroke-width="0.8" stroke-dasharray=""/><path fill="rgb(247,182,210)" stroke="rgb(247,182,210)" paint-order="fill" d="M 200.73818969726562 159.394775390625 L 200.73818969726562 174.9895477294922 L 200.73818969726562 174.9895477294922 L 222.5517578125 174.94100952148438 L 243.4937744140625 174.79806518554688 L 263.601318359375 174.5647430419922 L 282.9114990234375 174.24505615234375 L 301.4613952636719 173.843017578125 L 319.2880554199219 173.36264038085938 L 336.4286193847656 172.80795288085938 L 352.920166015625 172.18296813964844 L 368.79974365234375 171.49169921875 L 384.1044921875 170.73817443847656 L 398.8714294433594 169.92640686035156 L 413.1377258300781 169.06039428710938 L 426.9404296875 168.1441650390625 L 440.3166198730469 167.1817626953125 L 453.3033752441406 166.17715454101562 L 465.9378356933594 165.1343994140625 L 478.25701904296875 164.0574951171875 L 490.2980651855469 162.95046997070312 L 502.0980529785156 161.8173370361328 L 513.6940307617188 160.66209411621094 L 525.1231079101562 159.48878479003906 L 536.4224243164062 158.30142211914062 L 547.6290283203125 157.10400390625 L 558.7799682617188 155.9005584716797 L 569.912353515625 154.6951141357422 L 581.0632934570312 153.49168395996094 L 592.2698974609375 152.2942657470703 L 603.5691528320312 151.1068878173828 L 614.998291015625 149.93357849121094 L 626.59423828125 148.77835083007812 L 638.3942260742188 147.64520263671875 L 650.435302734375 146.53817749023438 L 662.7544555664062 145.46127319335938 L 675.388916015625 144.41851806640625 L 688.3756713867188 143.41392517089844 L 701.7518920898438 142.45150756835938 L 715.5545654296875 141.53529357910156 L 729.8208618164062 140.66928100585938 L 744.5878295898438 139.8574981689453 L 759.892578125 139.10397338867188 L 775.7721557617188 138.41270446777344 L 792.263671875 137.7877197265625 L 809.4042358398438 137.2330322265625 L 827.2308959960938 136.75267028808594 L 845.7808227539062 136.3506317138672 L 865.0910034179688 136.03094482421875 L 885.1985473632812 135.79762268066406 L 906.1405639648438 135.65467834472656 L 927.9541015625 135.60614013671875 L 927.9541015625 135.60614013671875 L 927.9541015625 120.01136016845703 L 927.9541015625 120.01136016845703 L 906.1405639648438 120.05990600585938 L 885.1985473632812 120.20284271240234 L 865.0910034179688 120.43616485595703 L 845.7808227539062 120.75585174560547 L 827.2308959960938 121.15789794921875 L 809.4042358398438 121.63826751708984 L 792.263671875 122.19295501708984 L 775.7721557617188 122.81793975830078 L 759.892578125 123.50920104980469 L 744.5878295898438 124.26273345947266 L 729.8208618164062 125.07450866699219 L 715.5545654296875 125.94051361083984 L 701.7518920898438 126.85673522949219 L 688.3756713867188 127.81915283203125 L 675.388916015625 128.82374572753906 L 662.7544555664062 129.8665008544922 L 650.435302734375 130.9434051513672 L 638.3942260742188 132.05043029785156 L 626.59423828125 133.18357849121094 L 614.998291015625 134.33880615234375 L 603.5691528320312 135.51211547851562 L 592.2698974609375 136.69949340820312 L 581.0632934570312 137.89691162109375 L 569.912353515625 139.100341796875 L 558.7799682617188 140.3057861328125 L 547.6290283203125 141.5092315673828 L 536.4224243164062 142.70664978027344 L 525.1231079101562 143.89401245117188 L 513.6940307617188 145.06732177734375 L 502.0980529785156 146.22256469726562 L 490.2980651855469 147.35569763183594 L 478.25701904296875 148.4627227783203 L 465.9378356933594 149.5396270751953 L 453.3033752441406 150.58238220214844 L 440.3166198730469 151.5869903564453 L 426.9404296875 152.5493927001953 L 413.1377258300781 153.4656219482422 L 398.8714294433594 154.3316192626953 L 384.1044921875 155.14340209960938 L 368.79974365234375 155.8969268798828 L 352.920166015625 156.58819580078125 L 336.4286193847656 157.2131805419922 L 319.2880554199219 157.7678680419922 L 301.4613952636719 158.2482452392578 L 282.9114990234375 158.65028381347656 L 263.601318359375 158.969970703125 L 243.4937744140625 159.2032928466797 L 222.5517578125 159.3462371826172 L 200.73818969726562 159.394775390625 Z" fill-opacity="0.6" clip-path="url(#BFwkhHbbpiVU)" stroke-opacity="1" stroke-linejoin="bevel" stroke-miterlimit="10" stroke-width="0.8" stroke-dasharray=""/><path fill="rgb(127,127,127)" stroke="rgb(127,127,127)" paint-order="fill" d="M 200.73818969726562 143.8000030517578 L 200.73818969726562 159.394775390625 L 200.73818969726562 159.394775390625 L 222.5517578125 159.3410186767578 L 243.4937744140625 159.1827392578125 L 263.601318359375 158.92434692382812 L 282.9114990234375 158.57034301757812 L 301.4613952636719 158.1251220703125 L 319.2880554199219 157.59317016601562 L 336.4286193847656 156.97891235351562 L 352.920166015625 156.2868194580078 L 368.79974365234375 155.52133178710938 L 384.1044921875 154.68687438964844 L 398.8714294433594 153.78793334960938 L 413.1377258300781 152.8289337158203 L 426.9404296875 151.8143310546875 L 440.3166198730469 150.74856567382812 L 453.3033752441406 149.63609313964844 L 465.9378356933594 148.48135375976562 L 478.25701904296875 147.288818359375 L 490.2980651855469 146.0629119873047 L 502.0980529785156 144.80809020996094 L 513.6940307617188 143.52880859375 L 525.1231079101562 142.22950744628906 L 536.4224243164062 140.9146270751953 L 547.6290283203125 139.58863830566406 L 558.7799682617188 138.25596618652344 L 569.912353515625 136.92108154296875 L 581.0632934570312 135.58840942382812 L 592.2698974609375 134.26242065429688 L 603.5691528320312 132.94754028320312 L 614.998291015625 131.6482391357422 L 626.59423828125 130.36895751953125 L 638.3942260742188 129.1141357421875 L 650.435302734375 127.88822937011719 L 662.7544555664062 126.69568634033203 L 675.388916015625 125.54095458984375 L 688.3756713867188 124.42848205566406 L 701.7518920898438 123.36271667480469 L 715.5545654296875 122.34811401367188 L 729.8208618164062 121.38911437988281 L 744.5878295898438 120.49016571044922 L 759.892578125 119.65571594238281 L 775.7721557617188 118.89022064208984 L 792.263671875 118.19812774658203 L 809.4042358398438 117.58387756347656 L 827.2308959960938 117.05191802978516 L 845.7808227539062 116.6067123413086 L 865.0910034179688 116.25269317626953 L 885.1985473632812 115.99431610107422 L 906.1405639648438 115.83602142333984 L 927.9541015625 115.78227233886719 L 927.9541015625 115.78227233886719 L 927.9541015625 100.1875 L 927.9541015625 100.1875 L 906.1405639648438 100.24124908447266 L 885.1985473632812 100.39954376220703 L 865.0910034179688 100.65792083740234 L 845.7808227539062 101.0119400024414 L 827.2308959960938 101.45714569091797 L 809.4042358398438 101.98910522460938 L 792.263671875 102.60335540771484 L 775.7721557617188 103.29544830322266 L 759.892578125 104.06094360351562 L 744.5878295898438 104.89539337158203 L 729.8208618164062 105.79434204101562 L 715.5545654296875 106.75334167480469 L 701.7518920898438 107.7679443359375 L 688.3756713867188 108.83370971679688 L 675.388916015625 109.94618225097656 L 662.7544555664062 111.10091400146484 L 650.435302734375 112.29345703125 L 638.3942260742188 113.51936340332031 L 626.59423828125 114.77417755126953 L 614.998291015625 116.053466796875 L 603.5691528320312 117.35276794433594 L 592.2698974609375 118.66764068603516 L 581.0632934570312 119.99363708496094 L 569.912353515625 121.32630157470703 L 558.7799682617188 122.66119384765625 L 547.6290283203125 123.99386596679688 L 536.4224243164062 125.31985473632812 L 525.1231079101562 126.63472747802734 L 513.6940307617188 127.93403625488281 L 502.0980529785156 129.21331787109375 L 490.2980651855469 130.4681396484375 L 478.25701904296875 131.6940460205078 L 465.9378356933594 132.88658142089844 L 453.3033752441406 134.04132080078125 L 440.3166198730469 135.15379333496094 L 426.9404296875 136.2195587158203 L 413.1377258300781 137.23416137695312 L 398.8714294433594 138.1931610107422 L 384.1044921875 139.09210205078125 L 368.79974365234375 139.9265594482422 L 352.920166015625 140.69204711914062 L 336.4286193847656 141.38414001464844 L 319.2880554199219 141.99839782714844 L 301.4613952636719 142.5303497314453 L 282.9114990234375 142.97555541992188 L 263.601318359375 143.32957458496094 L 243.4937744140625 143.5879669189453 L 222.5517578125 143.74624633789062 L 200.73818969726562 143.8000030517578 Z" fill-opacity="0.6" clip-path="url(#BFwkhHbbpiVU)" stroke-opacity="1" stroke-linejoin="bevel" stroke-miterlimit="10" stroke-width="0.8" stroke-dasharray=""/><path fill="rgb(199,199,199)" stroke="rgb(199,199,199)" paint-order="fill" d="M 200.73818969726562 128.20523071289062 L 200.73818969726562 143.8000030517578 L 200.73818969726562 143.8000030517578 L 222.5517578125 143.7410430908203 L 243.4937744140625 143.56739807128906 L 263.601318359375 143.28396606445312 L 282.9114990234375 142.89561462402344 L 301.4613952636719 142.40724182128906 L 319.2880554199219 141.82369995117188 L 336.4286193847656 141.14988708496094 L 352.920166015625 140.3906707763672 L 368.79974365234375 139.5509490966797 L 384.1044921875 138.63558959960938 L 398.8714294433594 137.6494598388672 L 413.1377258300781 136.59747314453125 L 426.9404296875 135.48448181152344 L 440.3166198730469 134.31536865234375 L 453.3033752441406 133.0950164794922 L 465.9378356933594 131.8283233642578 L 478.25701904296875 130.5201416015625 L 490.2980651855469 129.17535400390625 L 502.0980529785156 127.7988510131836 L 513.6940307617188 126.39551544189453 L 525.1231079101562 124.97022247314453 L 536.4224243164062 123.52783966064453 L 547.6290283203125 122.0732650756836 L 558.7799682617188 120.61137390136719 L 569.912353515625 119.14703369140625 L 581.0632934570312 117.68514251708984 L 592.2698974609375 116.2305679321289 L 603.5691528320312 114.78819274902344 L 614.998291015625 113.3628921508789 L 626.59423828125 111.95955657958984 L 638.3942260742188 110.58305358886719 L 650.435302734375 109.23827362060547 L 662.7544555664062 107.93009185791016 L 675.388916015625 106.66338348388672 L 688.3756713867188 105.44303894042969 L 701.7518920898438 104.27393341064453 L 715.5545654296875 103.16093444824219 L 729.8208618164062 102.10894012451172 L 744.5878295898438 101.1228256225586 L 759.892578125 100.20745849609375 L 775.7721557617188 99.36773681640625 L 792.263671875 98.60852813720703 L 809.4042358398438 97.9347152709961 L 827.2308959960938 97.3511734008789 L 845.7808227539062 96.86279296875 L 865.0910034179688 96.47444152832031 L 885.1985473632812 96.19100952148438 L 906.1405639648438 96.01737213134766 L 927.9541015625 95.95841217041016 L 927.9541015625 95.95841217041016 L 927.9541015625 80.36363983154297 L 927.9541015625 80.36363983154297 L 906.1405639648438 80.42259979248047 L 885.1985473632812 80.59623718261719 L 865.0910034179688 80.87966918945312 L 845.7808227539062 81.26802062988281 L 827.2308959960938 81.75640106201172 L 809.4042358398438 82.3399429321289 L 792.263671875 83.01375579833984 L 775.7721557617188 83.77296447753906 L 759.892578125 84.61268615722656 L 744.5878295898438 85.5280532836914 L 729.8208618164062 86.51416778564453 L 715.5545654296875 87.566162109375 L 701.7518920898438 88.67915344238281 L 688.3756713867188 89.8482666015625 L 675.388916015625 91.06861114501953 L 662.7544555664062 92.33531951904297 L 650.435302734375 93.64350128173828 L 638.3942260742188 94.98828125 L 626.59423828125 96.36478424072266 L 614.998291015625 97.76811981201172 L 603.5691528320312 99.19342041015625 L 592.2698974609375 100.63579559326172 L 581.0632934570312 102.09037017822266 L 569.912353515625 103.55226135253906 L 558.7799682617188 105.0166015625 L 547.6290283203125 106.4784927368164 L 536.4224243164062 107.93306732177734 L 525.1231079101562 109.37545013427734 L 513.6940307617188 110.80074310302734 L 502.0980529785156 112.2040786743164 L 490.2980651855469 113.58058166503906 L 478.25701904296875 114.92536163330078 L 465.9378356933594 116.2335433959961 L 453.3033752441406 117.50025177001953 L 440.3166198730469 118.72059631347656 L 426.9404296875 119.88970947265625 L 413.1377258300781 121.00270080566406 L 398.8714294433594 122.05469512939453 L 384.1044921875 123.04080963134766 L 368.79974365234375 123.9561767578125 L 352.920166015625 124.7958984375 L 336.4286193847656 125.55510711669922 L 319.2880554199219 126.22891998291016 L 301.4613952636719 126.81246185302734 L 282.9114990234375 127.30084228515625 L 263.601318359375 127.68919372558594 L 243.4937744140625 127.97262573242188 L 222.5517578125 128.1462631225586 L 200.73818969726562 128.20523071289062 Z" fill-opacity="0.6" clip-path="url(#BFwkhHbbpiVU)" stroke-opacity="1" stroke-linejoin="bevel" stroke-miterlimit="10" stroke-width="0.8" stroke-dasharray=""/><path fill="rgb(31,119,180)" stroke="rgb(0,0,0)" paint-order="fill" d="M 189.49258422851562 128.20523071289062 L 200.73818969726562 128.20523071289062 L 200.73818969726562 1126.2706298828125 L 189.49258422851562 1126.2706298828125 L 189.49258422851562 128.20523071289062" fill-opacity="0.9019607843137255" clip-path="url(#PhFmPmLoaQuu)" stroke-opacity="0.2" stroke-linejoin="bevel" stroke-miterlimit="10" stroke-width="0.5" stroke-dasharray=""/><path fill="rgb(174,199,232)" stroke="rgb(0,0,0)" paint-order="fill" d="M 927.9541015625 794.5513916015625 L 939.19970703125 794.5513916015625 L 939.19970703125 1137.6363525390625 L 927.9541015625 1137.6363525390625 L 927.9541015625 794.5513916015625" fill-opacity="0.9019607843137255" clip-path="url(#PhFmPmLoaQuu)" stroke-opacity="0.2" stroke-linejoin="bevel" stroke-miterlimit="10" stroke-width="0.5" stroke-dasharray=""/><path fill="rgb(255,127,14)" stroke="rgb(0,0,0)" paint-order="fill" d="M 927.9541015625 540.805908203125 L 939.19970703125 540.805908203125 L 939.19970703125 790.322265625 L 927.9541015625 790.322265625 L 927.9541015625 540.805908203125" fill-opacity="0.9019607843137255" clip-path="url(#PhFmPmLoaQuu)" stroke-opacity="0.2" stroke-linejoin="bevel" stroke-miterlimit="10" stroke-width="0.5" stroke-dasharray=""/><path fill="rgb(255,187,120)" stroke="rgb(0,0,0)" paint-order="fill" d="M 927.9541015625 474.1977233886719 L 939.19970703125 474.1977233886719 L 939.19970703125 536.5768432617188 L 927.9541015625 536.5768432617188 L 927.9541015625 474.1977233886719" fill-opacity="0.9019607843137255" clip-path="url(#PhFmPmLoaQuu)" stroke-opacity="0.2" stroke-linejoin="bevel" stroke-miterlimit="10" stroke-width="0.5" stroke-dasharray=""/><path fill="rgb(44,160,44)" stroke="rgb(0,0,0)" paint-order="fill" d="M 927.9541015625 407.58953857421875 L 939.19970703125 407.58953857421875 L 939.19970703125 469.9686279296875 L 927.9541015625 469.9686279296875 L 927.9541015625 407.58953857421875" fill-opacity="0.9019607843137255" clip-path="url(#PhFmPmLoaQuu)" stroke-opacity="0.2" stroke-linejoin="bevel" stroke-miterlimit="10" stroke-width="0.5" stroke-dasharray=""/><path fill="rgb(152,223,138)" stroke="rgb(0,0,0)" paint-order="fill" d="M 927.9541015625 356.5761413574219 L 939.19970703125 356.5761413574219 L 939.19970703125 403.3604431152344 L 927.9541015625 403.3604431152344 L 927.9541015625 356.5761413574219" fill-opacity="0.9019607843137255" clip-path="url(#PhFmPmLoaQuu)" stroke-opacity="0.2" stroke-linejoin="bevel" stroke-miterlimit="10" stroke-width="0.5" stroke-dasharray=""/><path fill="rgb(214,39,40)" stroke="rgb(0,0,0)" paint-order="fill" d="M 927.9541015625 305.5627136230469 L 939.19970703125 305.5627136230469 L 939.19970703125 352.3470458984375 L 927.9541015625 352.3470458984375 L 927.9541015625 305.5627136230469" fill-opacity="0.9019607843137255" clip-path="url(#PhFmPmLoaQuu)" stroke-opacity="0.2" stroke-linejoin="bevel" stroke-miterlimit="10" stroke-width="0.5" stroke-dasharray=""/><path fill="rgb(255,152,150)" stroke="rgb(0,0,0)" paint-order="fill" d="M 927.9541015625 254.54931640625 L 939.19970703125 254.54931640625 L 939.19970703125 301.3336486816406 L 927.9541015625 301.3336486816406 L 927.9541015625 254.54931640625" fill-opacity="0.9019607843137255" clip-path="url(#PhFmPmLoaQuu)" stroke-opacity="0.2" stroke-linejoin="bevel" stroke-miterlimit="10" stroke-width="0.5" stroke-dasharray=""/><path fill="rgb(148,103,189)" stroke="rgb(0,0,0)" paint-order="fill" d="M 927.9541015625 219.13067626953125 L 939.19970703125 219.13067626953125 L 939.19970703125 250.32022094726562 L 927.9541015625 250.32022094726562 L 927.9541015625 219.13067626953125" fill-opacity="0.9019607843137255" clip-path="url(#PhFmPmLoaQuu)" stroke-opacity="0.2" stroke-linejoin="bevel" stroke-miterlimit="10" stroke-width="0.5" stroke-dasharray=""/><path fill="rgb(197,176,213)" stroke="rgb(0,0,0)" paint-order="fill" d="M 927.9541015625 199.30682373046875 L 939.19970703125 199.30682373046875 L 939.19970703125 214.90159606933594 L 927.9541015625 214.90159606933594 L 927.9541015625 199.30682373046875" fill-opacity="0.9019607843137255" clip-path="url(#PhFmPmLoaQuu)" stroke-opacity="0.2" stroke-linejoin="bevel" stroke-miterlimit="10" stroke-width="0.5" stroke-dasharray=""/><path fill="rgb(140,86,75)" stroke="rgb(0,0,0)" paint-order="fill" d="M 927.9541015625 179.4829559326172 L 939.19970703125 179.4829559326172 L 939.19970703125 195.07772827148438 L 927.9541015625 195.07772827148438 L 927.9541015625 179.4829559326172" fill-opacity="0.9019607843137255" clip-path="url(#PhFmPmLoaQuu)" stroke-opacity="0.2" stroke-linejoin="bevel" stroke-miterlimit="10" stroke-width="0.5" stroke-dasharray=""/><path fill="rgb(196,156,148)" stroke="rgb(0,0,0)" paint-order="fill" d="M 927.9541015625 159.65908813476562 L 939.19970703125 159.65908813476562 L 939.19970703125 175.2538604736328 L 927.9541015625 175.2538604736328 L 927.9541015625 159.65908813476562" fill-opacity="0.9019607843137255" clip-path="url(#PhFmPmLoaQuu)" stroke-opacity="0.2" stroke-linejoin="bevel" stroke-miterlimit="10" stroke-width="0.5" stroke-dasharray=""/><path fill="rgb(227,119,194)" stroke="rgb(0,0,0)" paint-order="fill" d="M 927.9541015625 139.83522033691406 L 939.19970703125 139.83522033691406 L 939.19970703125 155.42999267578125 L 927.9541015625 155.42999267578125 L 927.9541015625 139.83522033691406" fill-opacity="0.9019607843137255" clip-path="url(#PhFmPmLoaQuu)" stroke-opacity="0.2" stroke-linejoin="bevel" stroke-miterlimit="10" stroke-width="0.5" stroke-dasharray=""/><path fill="rgb(247,182,210)" stroke="rgb(0,0,0)" paint-order="fill" d="M 927.9541015625 120.01136016845703 L 939.19970703125 120.01136016845703 L 939.19970703125 135.60614013671875 L 927.9541015625 135.60614013671875 L 927.9541015625 120.01136016845703" fill-opacity="0.9019607843137255" clip-path="url(#PhFmPmLoaQuu)" stroke-opacity="0.2" stroke-linejoin="bevel" stroke-miterlimit="10" stroke-width="0.5" stroke-dasharray=""/><path fill="rgb(127,127,127)" stroke="rgb(0,0,0)" paint-order="fill" d="M 927.9541015625 100.1875 L 939.19970703125 100.1875 L 939.19970703125 115.78227233886719 L 927.9541015625 115.78227233886719 L 927.9541015625 100.1875" fill-opacity="0.9019607843137255" clip-path="url(#PhFmPmLoaQuu)" stroke-opacity="0.2" stroke-linejoin="bevel" stroke-miterlimit="10" stroke-width="0.5" stroke-dasharray=""/><path fill="rgb(199,199,199)" stroke="rgb(0,0,0)" paint-order="fill" d="M 927.9541015625 80.36363983154297 L 939.19970703125 80.36363983154297 L 939.19970703125 95.95841217041016 L 927.9541015625 95.95841217041016 L 927.9541015625 80.36363983154297" fill-opacity="0.9019607843137255" clip-path="url(#PhFmPmLoaQuu)" stroke-opacity="0.2" stroke-linejoin="bevel" stroke-miterlimit="10" stroke-width="0.5" stroke-dasharray=""/><g clip-path="url(#NpEibUQgRTHB)"><text fill="rgb(0,0,0)" stroke="none" font-family="helvetica" font-size="8pt" font-style="normal" font-weight="normal" text-decoration="normal" x="0" y="0" text-anchor="end" dominant-baseline="central" transform="matrix(1, 0, 0, 1, 186.68118286132812, 627.2379760742188)" fill-opacity="1">Roscosmos - 64</text></g><g clip-path="url(#NpEibUQgRTHB)"><text fill="rgb(0,0,0)" stroke="none" font-family="helvetica" font-size="8pt" font-style="normal" font-weight="normal" text-decoration="normal" x="0" y="0" text-anchor="end" dominant-baseline="central" transform="matrix(1, 0, 0, 1, 925.1427001953125, 966.0938720703125)" fill-opacity="1">Soyuz 2.1a - 22</text></g><g clip-path="url(#NpEibUQgRTHB)"><text fill="rgb(0,0,0)" stroke="none" font-family="helvetica" font-size="8pt" font-style="normal" font-weight="normal" text-decoration="normal" x="0" y="0" text-anchor="end" dominant-baseline="central" transform="matrix(1, 0, 0, 1, 925.1427001953125, 665.5640869140625)" fill-opacity="1">Soyuz FG - 16</text></g><g clip-path="url(#NpEibUQgRTHB)"><text fill="rgb(0,0,0)" stroke="none" font-family="helvetica" font-size="8pt" font-style="normal" font-weight="normal" text-decoration="normal" x="0" y="0" text-anchor="end" dominant-baseline="central" transform="matrix(1, 0, 0, 1, 925.1427001953125, 505.38726806640625)" fill-opacity="1">Proton-M/Briz-M - 4</text></g><g clip-path="url(#NpEibUQgRTHB)"><text fill="rgb(0,0,0)" stroke="none" font-family="helvetica" font-size="8pt" font-style="normal" font-weight="normal" text-decoration="normal" x="0" y="0" text-anchor="end" dominant-baseline="central" transform="matrix(1, 0, 0, 1, 925.1427001953125, 438.7790832519531)" fill-opacity="1">Soyuz U - 4</text></g><g clip-path="url(#NpEibUQgRTHB)"><text fill="rgb(0,0,0)" stroke="none" font-family="helvetica" font-size="8pt" font-style="normal" font-weight="normal" text-decoration="normal" x="0" y="0" text-anchor="end" dominant-baseline="central" transform="matrix(1, 0, 0, 1, 925.1427001953125, 379.9682922363281)" fill-opacity="1">Soyuz 2.1b - 3</text></g><g clip-path="url(#NpEibUQgRTHB)"><text fill="rgb(0,0,0)" stroke="none" font-family="helvetica" font-size="8pt" font-style="normal" font-weight="normal" text-decoration="normal" x="0" y="0" text-anchor="end" dominant-baseline="central" transform="matrix(1, 0, 0, 1, 925.1427001953125, 328.95489501953125)" fill-opacity="1">Soyuz 2.1b/Fregat-M - 3</text></g><g clip-path="url(#NpEibUQgRTHB)"><text fill="rgb(0,0,0)" stroke="none" font-family="helvetica" font-size="8pt" font-style="normal" font-weight="normal" text-decoration="normal" x="0" y="0" text-anchor="end" dominant-baseline="central" transform="matrix(1, 0, 0, 1, 925.1427001953125, 277.94146728515625)" fill-opacity="1">Zenit-3 SLBF - 3</text></g><g clip-path="url(#NpEibUQgRTHB)"><text fill="rgb(0,0,0)" stroke="none" font-family="helvetica" font-size="8pt" font-style="normal" font-weight="normal" text-decoration="normal" x="0" y="0" text-anchor="end" dominant-baseline="central" transform="matrix(1, 0, 0, 1, 925.1427001953125, 234.72544860839844)" fill-opacity="1">Proton-M/DM-3 - 2</text></g><g clip-path="url(#NpEibUQgRTHB)"><text fill="rgb(0,0,0)" stroke="none" font-family="helvetica" font-size="8pt" font-style="normal" font-weight="normal" text-decoration="normal" x="0" y="0" text-anchor="end" dominant-baseline="central" transform="matrix(1, 0, 0, 1, 925.1427001953125, 207.1042022705078)" fill-opacity="1">Proton-M - 1</text></g><g clip-path="url(#NpEibUQgRTHB)"><text fill="rgb(0,0,0)" stroke="none" font-family="helvetica" font-size="8pt" font-style="normal" font-weight="normal" text-decoration="normal" x="0" y="0" text-anchor="end" dominant-baseline="central" transform="matrix(1, 0, 0, 1, 925.1427001953125, 187.28033447265625)" fill-opacity="1">Soyuz - 1</text></g><g clip-path="url(#NpEibUQgRTHB)"><text fill="rgb(0,0,0)" stroke="none" font-family="helvetica" font-size="8pt" font-style="normal" font-weight="normal" text-decoration="normal" x="0" y="0" text-anchor="end" dominant-baseline="central" transform="matrix(1, 0, 0, 1, 925.1427001953125, 167.45648193359375)" fill-opacity="1">Soyuz 2.1a/Fregat - 1</text></g><g clip-path="url(#NpEibUQgRTHB)"><text fill="rgb(0,0,0)" stroke="none" font-family="helvetica" font-size="8pt" font-style="normal" font-weight="normal" text-decoration="normal" x="0" y="0" text-anchor="end" dominant-baseline="central" transform="matrix(1, 0, 0, 1, 925.1427001953125, 147.6326141357422)" fill-opacity="1">Soyuz 2.1a/Fregat-M - 1</text></g><g clip-path="url(#NpEibUQgRTHB)"><text fill="rgb(0,0,0)" stroke="none" font-family="helvetica" font-size="8pt" font-style="normal" font-weight="normal" text-decoration="normal" x="0" y="0" text-anchor="end" dominant-baseline="central" transform="matrix(1, 0, 0, 1, 925.1427001953125, 127.80874633789062)" fill-opacity="1">Soyuz 2.1a/Volga - 1</text></g><g clip-path="url(#NpEibUQgRTHB)"><text fill="rgb(0,0,0)" stroke="none" font-family="helvetica" font-size="8pt" font-style="normal" font-weight="normal" text-decoration="normal" x="0" y="0" text-anchor="end" dominant-baseline="central" transform="matrix(1, 0, 0, 1, 925.1427001953125, 107.9848861694336)" fill-opacity="1">Soyuz 2.1v - 1</text></g><g clip-path="url(#NpEibUQgRTHB)"><text fill="rgb(0,0,0)" stroke="none" font-family="helvetica" font-size="8pt" font-style="normal" font-weight="normal" text-decoration="normal" x="0" y="0" text-anchor="end" dominant-baseline="central" transform="matrix(1, 0, 0, 1, 925.1427001953125, 88.16102600097656)" fill-opacity="1">Zenit-2 FG - 1</text></g><text fill="rgb(68,68,68)" stroke="none" font-family="helvetica" font-size="13px" font-style="normal" font-weight="bold" text-decoration="normal" x="10" y="19.1689453125" text-anchor="start" dominant-baseline="alphabetic" transform="matrix(1, 0, 0, 1, 0.5, 0.5)" fill-opacity="1">Roscosmos Rocket Successes</text></svg>