<svg version="1.1" xmlns="http://www.w3.org/2000/svg" width="1000" height="1200"><defs><clipPath id="sLhLdWezNwGs"><path fill="none" stroke="none" d="M 10.5 27.5 L 970.5 27.5 L 970.5 1190.5 L 10.5 1190.5 L 10.5 27.5"/></clipPath><clipPath id="CZxoUnWhdkmu"><path fill="none" stroke="none" d="M 10.5 27.5 L 970.5 27.5 L 970.5 1190.5 L 10.5 1190.5 L 10.5 27.5"/></clipPath><clipPath id="pusChPNHXasg"><path fill="none" stroke="none" d="M 10.5 27.5 L 970.5 27.5 L 970.5 1190.5 L 10.5 1190.5 L 10.5 27.5"/></clipPath><clipPath id="xtFThhoGsRPI"><path fill="none" stroke="none" d="M 10.5 27.5 L 970.5 27.5 L 970.5 1190.5 L 10.5 1190.5 L 10.5 27.5"/></clipPath><clipPath id="AZceFnXgOSUR"><path fill="none" stroke="none" d="M 10.5 27.5 L 970.5 27.5 L 970.5 1190.5 L 10.5 1190.5 L 10.5 27.5"/></clipPath><clipPath id="sMenTMuHLrFh"><path fill="none" stroke="none" d="M 10.5 27.5 L 970.5 27.5 L 970.5 1190.5 L 10.5 1190.5 L 10.5 27.5"/></clipPath></defs><path fill="rgb(255,255,255)" stroke="none" paint-order="stroke" d="M 0.5 0.5 L 1000.5 0.5 L 1000.5 1200.5 L 0.5 1200.5 L 0.5 0.5" fill-opacity="1"/><rect fill="#FFFFFF" stroke="none" x="10" y="27" width="960" height="1163" transform="matrix(1, 0, 0, 1, 0.5, 0.5)"/><path fill="rgb(255,250,250)" stroke="none" paint-order="stroke" d="M 10.5 27.5 L 970.5 27.5 L 970.5 1190.5 L 10.5 1190.5 L 10.5 27.5" fill-opacity="1"/><path fill="rgb(174,199,232)" stroke="rgb(174,199,232)" paint-order="fill" d="M 200.73818969726562 470.8660888671875 L 200.73818969726562 1134.0711669921875 L 200.73818969726562 1134.0711669921875 L 222.5517578125 1134.0755615234375 L 243.4937744140625 1134.0885009765625 L 263.601318359375 1134.109619140625 L 282.9114990234375 1134.1385498046875 L 301.4613952636719 1134.1749267578125 L 319.2880554199219 1134.2183837890625 L 336.4286193847656 1134.2686767578125 L 352.920166015625 1134.3251953125 L 368.79974365234375 1134.3878173828125 L 384.1044921875 1134.4560546875 L 398.8714294433594 1134.529541015625 L 413.1377258300781 1134.60791015625 L 426.9404296875 1134.6907958984375 L 440.3166198730469 1134.7779541015625 L 453.3033752441406 1134.868896484375 L 465.9378356933594 1134.9632568359375 L 478.25701904296875 1135.060791015625 L 490.2980651855469 1135.1610107421875 L 502.0980529785156 1135.2635498046875 L 513.6940307617188 1135.3681640625 L 525.1231079101562 1135.474365234375 L 536.4224243164062 1135.5819091796875 L 547.6290283203125 1135.6903076171875 L 558.7799682617188 1135.7991943359375 L 569.912353515625 1135.9083251953125 L 581.0632934570312 1136.0172119140625 L 592.2698974609375 1136.1256103515625 L 603.5691528320312 1136.233154296875 L 614.998291015625 1136.33935546875 L 626.59423828125 1136.4439697265625 L 638.3942260742188 1136.5465087890625 L 650.435302734375 1136.646728515625 L 662.7544555664062 1136.7442626953125 L 675.388916015625 1136.838623046875 L 688.3756713867188 1136.9295654296875 L 701.7518920898438 1137.0167236328125 L 715.5545654296875 1137.099609375 L 729.8208618164062 1137.177978515625 L 744.5878295898438 1137.25146484375 L 759.892578125 1137.3197021484375 L 775.7721557617188 1137.38232421875 L 792.263671875 1137.4388427734375 L 809.4042358398438 1137.4891357421875 L 827.2308959960938 1137.5325927734375 L 845.7808227539062 1137.5689697265625 L 865.0910034179688 1137.597900390625 L 885.1985473632812 1137.6190185546875 L 906.1405639648438 1137.6319580078125 L 927.9541015625 1137.6363525390625 L 927.9541015625 1137.6363525390625 L 927.9541015625 474.4313049316406 L 927.9541015625 474.4313049316406 L 906.1405639648438 474.4269104003906 L 885.1985473632812 474.4139709472656 L 865.0910034179688 474.3928527832031 L 845.7808227539062 474.3639221191406 L 827.2308959960938 474.3275146484375 L 809.4042358398438 474.2840270996094 L 792.263671875 474.23382568359375 L 775.7721557617188 474.17724609375 L 759.892578125 474.1146545410156 L 744.5878295898438 474.04644775390625 L 729.8208618164062 473.97296142578125 L 715.5545654296875 473.8945617675781 L 701.7518920898438 473.8116149902344 L 688.3756713867188 473.7245178222656 L 675.388916015625 473.6335754394531 L 662.7544555664062 473.5391540527344 L 650.435302734375 473.4416809082031 L 638.3942260742188 473.3414611816406 L 626.59423828125 473.2388916015625 L 614.998291015625 473.1343078613281 L 603.5691528320312 473.028076171875 L 592.2698974609375 472.92059326171875 L 581.0632934570312 472.81219482421875 L 569.912353515625 472.7032470703125 L 558.7799682617188 472.5941467285156 L 547.6290283203125 472.4851989746094 L 536.4224243164062 472.3768005371094 L 525.1231079101562 472.2693176269531 L 513.6940307617188 472.1630859375 L 502.0980529785156 472.0585021972656 L 490.2980651855469 471.9559326171875 L 478.25701904296875 471.855712890625 L 465.9378356933594 471.75823974609375 L 453.3033752441406 471.6638488769531 L 440.3166198730469 471.5729064941406 L 426.9404296875 471.48577880859375 L 413.1377258300781 471.40283203125 L 398.8714294433594 471.3244323730469 L 384.1044921875 471.2509460449219 L 368.79974365234375 471.1827392578125 L 352.920166015625 471.1201477050781 L 336.4286193847656 471.0635681152344 L 319.2880554199219 471.01336669921875 L 301.4613952636719 470.9698791503906 L 282.9114990234375 470.9334716796875 L 263.601318359375 470.904541015625 L 243.4937744140625 470.8834228515625 L 222.5517578125 470.8704833984375 L 200.73818969726562 470.8660888671875 Z" fill-opacity="0.6" clip-path="url(#pusChPNHXasg)" stroke-opacity="1" stroke-linejoin="bevel" stroke-miterlimit="10" stroke-width="0.8" stroke-dasharray=""/><path fill="rgb(255,127,14)" stroke="rgb(255,127,14)" paint-order="fill" d="M 200.73818969726562 327.47039794921875 L 200.73818969726562 470.8660888671875 L 200.73818969726562 470.8660888671875 L 222.5517578125 470.8652648925781 L 243.4937744140625 470.86285400390625 L 263.601318359375 470.8589172363281 L 282.9114990234375 470.8535461425781 L 301.4613952636719 470.8467712402344 L 319.2880554199219 470.8386535644531 L 336.4286193847656 470.8293151855469 L 352.920166015625 470.81878662109375 L 368.79974365234375 470.80712890625 L 384.1044921875 470.79443359375 L 398.8714294433594 470.7807312011719 L 413.1377258300781 470.7661437988281 L 426.9404296875 470.7507019042969 L 440.3166198730469 470.7344665527344 L 453.3033752441406 470.717529296875 L 465.9378356933594 470.699951171875 L 478.25701904296875 470.68182373046875 L 490.2980651855469 470.66314697265625 L 502.0980529785156 470.64404296875 L 513.6940307617188 470.62457275390625 L 525.1231079101562 470.60479736328125 L 536.4224243164062 470.58477783203125 L 547.6290283203125 470.5646057128906 L 558.7799682617188 470.5443115234375 L 569.912353515625 470.52398681640625 L 581.0632934570312 470.50372314453125 L 592.2698974609375 470.4835205078125 L 603.5691528320312 470.4635009765625 L 614.998291015625 470.4437255859375 L 626.59423828125 470.42425537109375 L 638.3942260742188 470.4051513671875 L 650.435302734375 470.3865051269531 L 662.7544555664062 470.36834716796875 L 675.388916015625 470.35076904296875 L 688.3756713867188 470.3338317871094 L 701.7518920898438 470.3175964355469 L 715.5545654296875 470.3021545410156 L 729.8208618164062 470.2875671386719 L 744.5878295898438 470.2738952636719 L 759.892578125 470.26116943359375 L 775.7721557617188 470.2495422363281 L 792.263671875 470.2389831542969 L 809.4042358398438 470.2296447753906 L 827.2308959960938 470.2215576171875 L 845.7808227539062 470.21478271484375 L 865.0910034179688 470.2093811035156 L 885.1985473632812 470.2054443359375 L 906.1405639648438 470.2030334472656 L 927.9541015625 470.20220947265625 L 927.9541015625 470.20220947265625 L 927.9541015625 326.8065185546875 L 927.9541015625 326.8065185546875 L 906.1405639648438 326.8073425292969 L 885.1985473632812 326.80975341796875 L 865.0910034179688 326.8136901855469 L 845.7808227539062 326.819091796875 L 827.2308959960938 326.82586669921875 L 809.4042358398438 326.8339538574219 L 792.263671875 326.8432922363281 L 775.7721557617188 326.8538513183594 L 759.892578125 326.8655090332031 L 744.5878295898438 326.8782043457031 L 729.8208618164062 326.8918762207031 L 715.5545654296875 326.9064636230469 L 701.7518920898438 326.92193603515625 L 688.3756713867188 326.9381408691406 L 675.388916015625 326.955078125 L 662.7544555664062 326.97265625 L 650.435302734375 326.9908142089844 L 638.3942260742188 327.00946044921875 L 626.59423828125 327.028564453125 L 614.998291015625 327.04803466796875 L 603.5691528320312 327.06781005859375 L 592.2698974609375 327.08782958984375 L 581.0632934570312 327.1080322265625 L 569.912353515625 327.1282958984375 L 558.7799682617188 327.14862060546875 L 547.6290283203125 327.1689147949219 L 536.4224243164062 327.1890869140625 L 525.1231079101562 327.2091064453125 L 513.6940307617188 327.2288818359375 L 502.0980529785156 327.24835205078125 L 490.2980651855469 327.2674560546875 L 478.25701904296875 327.2861328125 L 465.9378356933594 327.3042907714844 L 453.3033752441406 327.3218688964844 L 440.3166198730469 327.3387756347656 L 426.9404296875 327.3550109863281 L 413.1377258300781 327.3704528808594 L 398.8714294433594 327.3850402832031 L 384.1044921875 327.39874267578125 L 368.79974365234375 327.41143798828125 L 352.920166015625 327.423095703125 L 336.4286193847656 327.4336242675781 L 319.2880554199219 327.4429626464844 L 301.4613952636719 327.4510803222656 L 282.9114990234375 327.4578552246094 L 263.601318359375 327.4632263183594 L 243.4937744140625 327.4671630859375 L 222.5517578125 327.4695739746094 L 200.73818969726562 327.47039794921875 Z" fill-opacity="0.6" clip-path="url(#pusChPNHXasg)" stroke-opacity="1" stroke-linejoin="bevel" stroke-miterlimit="10" stroke-width="0.8" stroke-dasharray=""/><path fill="rgb(255,187,120)" stroke="rgb(255,187,120)" paint-order="fill" d="M 200.73818969726562 243.8229217529297 L 200.73818969726562 327.47039794921875 L 200.73818969726562 327.47039794921875 L 222.5517578125 327.4643859863281 L 243.4937744140625 327.4466247558594 L 263.601318359375 327.4176330566406 L 282.9114990234375 327.3778991699219 L 301.4613952636719 327.3279724121094 L 319.2880554199219 327.2682800292969 L 336.4286193847656 327.1993713378906 L 352.920166015625 327.1217041015625 L 368.79974365234375 327.03582763671875 L 384.1044921875 326.9422302246094 L 398.8714294433594 326.84136962890625 L 413.1377258300781 326.7337646484375 L 426.9404296875 326.61993408203125 L 440.3166198730469 326.5003662109375 L 453.3033752441406 326.37554931640625 L 465.9378356933594 326.2460021972656 L 478.25701904296875 326.1122131347656 L 490.2980651855469 325.97467041015625 L 502.0980529785156 325.8338928222656 L 513.6940307617188 325.69036865234375 L 525.1231079101562 325.5445861816406 L 536.4224243164062 325.3970947265625 L 547.6290283203125 325.2483215332031 L 558.7799682617188 325.09881591796875 L 569.912353515625 324.94903564453125 L 581.0632934570312 324.7995300292969 L 592.2698974609375 324.6507568359375 L 603.5691528320312 324.50323486328125 L 614.998291015625 324.35748291015625 L 626.59423828125 324.2139587402344 L 638.3942260742188 324.0731506347656 L 650.435302734375 323.9356384277344 L 662.7544555664062 323.8018493652344 L 675.388916015625 323.6722717285156 L 688.3756713867188 323.5474853515625 L 701.7518920898438 323.42791748046875 L 715.5545654296875 323.3140869140625 L 729.8208618164062 323.20648193359375 L 744.5878295898438 323.1056213378906 L 759.892578125 323.01202392578125 L 775.7721557617188 322.9261169433594 L 792.263671875 322.8484802246094 L 809.4042358398438 322.7795715332031 L 827.2308959960938 322.7198791503906 L 845.7808227539062 322.669921875 L 865.0910034179688 322.6302185058594 L 885.1985473632812 322.6012268066406 L 906.1405639648438 322.5834655761719 L 927.9541015625 322.57745361328125 L 927.9541015625 322.57745361328125 L 927.9541015625 238.92996215820312 L 927.9541015625 238.92996215820312 L 906.1405639648438 238.9359893798828 L 885.1985473632812 238.95375061035156 L 865.0910034179688 238.9827423095703 L 845.7808227539062 239.02244567871094 L 827.2308959960938 239.07240295410156 L 809.4042358398438 239.132080078125 L 792.263671875 239.20098876953125 L 775.7721557617188 239.2786407470703 L 759.892578125 239.36453247070312 L 744.5878295898438 239.45814514160156 L 729.8208618164062 239.5590057373047 L 715.5545654296875 239.66659545898438 L 701.7518920898438 239.78042602539062 L 688.3756713867188 239.89999389648438 L 675.388916015625 240.02479553222656 L 662.7544555664062 240.15435791015625 L 650.435302734375 240.28814697265625 L 638.3942260742188 240.42567443847656 L 626.59423828125 240.56646728515625 L 614.998291015625 240.70999145507812 L 603.5691528320312 240.8557586669922 L 592.2698974609375 241.00328063964844 L 581.0632934570312 241.15203857421875 L 569.912353515625 241.3015594482422 L 558.7799682617188 241.45132446289062 L 547.6290283203125 241.600830078125 L 536.4224243164062 241.74960327148438 L 525.1231079101562 241.89710998535156 L 513.6940307617188 242.0428924560547 L 502.0980529785156 242.18641662597656 L 490.2980651855469 242.3271942138672 L 478.25701904296875 242.46473693847656 L 465.9378356933594 242.59852600097656 L 453.3033752441406 242.7280731201172 L 440.3166198730469 242.85289001464844 L 426.9404296875 242.9724578857422 L 413.1377258300781 243.08628845214844 L 398.8714294433594 243.19387817382812 L 384.1044921875 243.29473876953125 L 368.79974365234375 243.3883514404297 L 352.920166015625 243.47422790527344 L 336.4286193847656 243.5518798828125 L 319.2880554199219 243.62078857421875 L 301.4613952636719 243.68048095703125 L 282.9114990234375 243.7304229736328 L 263.601318359375 243.7701416015625 L 243.4937744140625 243.79913330078125 L 222.5517578125 243.81689453125 L 200.73818969726562 243.8229217529297 Z" fill-opacity="0.6" clip-path="url(#pusChPNHXasg)" stroke-opacity="1" stroke-linejoin="bevel" stroke-miterlimit="10" stroke-width="0.8" stroke-dasharray=""/><path fill="rgb(44,160,44)" stroke="rgb(44,160,44)" paint-order="fill" d="M 200.73818969726562 172.1250762939453 L 200.73818969726562 243.8229217529297 L 200.73818969726562 243.8229217529297 L 222.5517578125 243.81167602539062 L 243.4937744140625 243.778564453125 L 263.601318359375 243.72451782226562 L 282.9114990234375 243.65048217773438 L 301.4613952636719 243.55735778808594 L 319.2880554199219 243.4460906982422 L 336.4286193847656 243.31761169433594 L 352.920166015625 243.1728515625 L 368.79974365234375 243.0127410888672 L 384.1044921875 242.8382110595703 L 398.8714294433594 242.65017700195312 L 413.1377258300781 242.44960021972656 L 426.9404296875 242.2373809814453 L 440.3166198730469 242.01446533203125 L 453.3033752441406 241.7817840576172 L 465.9378356933594 241.54025268554688 L 478.25701904296875 241.2908172607422 L 490.2980651855469 241.03440856933594 L 502.0980529785156 240.77194213867188 L 513.6940307617188 240.50436401367188 L 525.1231079101562 240.23260498046875 L 536.4224243164062 239.95758056640625 L 547.6290283203125 239.68023681640625 L 558.7799682617188 239.4014892578125 L 569.912353515625 239.12228393554688 L 581.0632934570312 238.8435516357422 L 592.2698974609375 238.56619262695312 L 603.5691528320312 238.2911834716797 L 614.998291015625 238.0194091796875 L 626.59423828125 237.7518310546875 L 638.3942260742188 237.4893798828125 L 650.435302734375 237.23297119140625 L 662.7544555664062 236.98353576660156 L 675.388916015625 236.74200439453125 L 688.3756713867188 236.5093231201172 L 701.7518920898438 236.28640747070312 L 715.5545654296875 236.07418823242188 L 729.8208618164062 235.87359619140625 L 744.5878295898438 235.68557739257812 L 759.892578125 235.51104736328125 L 775.7721557617188 235.35093688964844 L 792.263671875 235.2061767578125 L 809.4042358398438 235.07769775390625 L 827.2308959960938 234.9664306640625 L 845.7808227539062 234.87330627441406 L 865.0910034179688 234.79925537109375 L 885.1985473632812 234.74522399902344 L 906.1405639648438 234.7121124267578 L 927.9541015625 234.70086669921875 L 927.9541015625 234.70086669921875 L 927.9541015625 163.00302124023438 L 927.9541015625 163.00302124023438 L 906.1405639648438 163.01426696777344 L 885.1985473632812 163.04737854003906 L 865.0910034179688 163.10140991210938 L 845.7808227539062 163.1754608154297 L 827.2308959960938 163.26858520507812 L 809.4042358398438 163.37985229492188 L 792.263671875 163.50833129882812 L 775.7721557617188 163.65309143066406 L 759.892578125 163.81320190429688 L 744.5878295898438 163.98773193359375 L 729.8208618164062 164.17575073242188 L 715.5545654296875 164.3763427734375 L 701.7518920898438 164.58856201171875 L 688.3756713867188 164.8114776611328 L 675.388916015625 165.04415893554688 L 662.7544555664062 165.2856903076172 L 650.435302734375 165.53512573242188 L 638.3942260742188 165.79153442382812 L 626.59423828125 166.0540008544922 L 614.998291015625 166.32156372070312 L 603.5691528320312 166.5933380126953 L 592.2698974609375 166.8683624267578 L 581.0632934570312 167.1457061767578 L 569.912353515625 167.4244384765625 L 558.7799682617188 167.7036590576172 L 547.6290283203125 167.98239135742188 L 536.4224243164062 168.25973510742188 L 525.1231079101562 168.53475952148438 L 513.6940307617188 168.80653381347656 L 502.0980529785156 169.0740966796875 L 490.2980651855469 169.33656311035156 L 478.25701904296875 169.5929718017578 L 465.9378356933594 169.8424072265625 L 453.3033752441406 170.0839385986328 L 440.3166198730469 170.31661987304688 L 426.9404296875 170.53953552246094 L 413.1377258300781 170.7517547607422 L 398.8714294433594 170.9523468017578 L 384.1044921875 171.14036560058594 L 368.79974365234375 171.3148956298828 L 352.920166015625 171.47500610351562 L 336.4286193847656 171.61976623535156 L 319.2880554199219 171.7482452392578 L 301.4613952636719 171.85951232910156 L 282.9114990234375 171.95263671875 L 263.601318359375 172.0266876220703 L 243.4937744140625 172.08071899414062 L 222.5517578125 172.11383056640625 L 200.73818969726562 172.1250762939453 Z" fill-opacity="0.6" clip-path="url(#pusChPNHXasg)" stroke-opacity="1" stroke-linejoin="bevel" stroke-miterlimit="10" stroke-width="0.8" stroke-dasharray=""/><path fill="rgb(152,223,138)" stroke="rgb(152,223,138)" paint-order="fill" d="M 200.73818969726562 148.22579956054688 L 200.73818969726562 172.1250762939453 L 200.73818969726562 172.1250762939453 L 222.5517578125 172.10861206054688 L 243.4937744140625 172.06016540527344 L 263.601318359375 171.98106384277344 L 282.9114990234375 171.8726806640625 L 301.4613952636719 171.73638916015625 L 319.2880554199219 171.57354736328125 L 336.4286193847656 171.38551330566406 L 352.920166015625 171.1736297607422 L 368.79974365234375 170.9392852783203 L 384.1044921875 170.683837890625 L 398.8714294433594 170.4086456298828 L 413.1377258300781 170.1150665283203 L 426.9404296875 169.80445861816406 L 440.3166198730469 169.4781951904297 L 453.3033752441406 169.13763427734375 L 465.9378356933594 168.7841339111328 L 478.25701904296875 168.4190673828125 L 490.2980651855469 168.0437774658203 L 502.0980529785156 167.65963745117188 L 513.6940307617188 167.26800537109375 L 525.1231079101562 166.87025451660156 L 536.4224243164062 166.4677276611328 L 547.6290283203125 166.06179809570312 L 558.7799682617188 165.65382385253906 L 569.912353515625 165.24517822265625 L 581.0632934570312 164.8372039794922 L 592.2698974609375 164.4312744140625 L 603.5691528320312 164.02874755859375 L 614.998291015625 163.63099670410156 L 626.59423828125 163.23936462402344 L 638.3942260742188 162.855224609375 L 650.435302734375 162.4799346923828 L 662.7544555664062 162.1148681640625 L 675.388916015625 161.76136779785156 L 688.3756713867188 161.42080688476562 L 701.7518920898438 161.09454345703125 L 715.5545654296875 160.783935546875 L 729.8208618164062 160.4903564453125 L 744.5878295898438 160.2151641845703 L 759.892578125 159.959716796875 L 775.7721557617188 159.72537231445312 L 792.263671875 159.5135040283203 L 809.4042358398438 159.32545471191406 L 827.2308959960938 159.16261291503906 L 845.7808227539062 159.0263214111328 L 865.0910034179688 158.91793823242188 L 885.1985473632812 158.83885192871094 L 906.1405639648438 158.79039001464844 L 927.9541015625 158.77392578125 L 927.9541015625 158.77392578125 L 927.9541015625 134.87464904785156 L 927.9541015625 134.87464904785156 L 906.1405639648438 134.89111328125 L 885.1985473632812 134.93955993652344 L 865.0910034179688 135.01866149902344 L 845.7808227539062 135.1270294189453 L 827.2308959960938 135.26333618164062 L 809.4042358398438 135.42617797851562 L 792.263671875 135.6142120361328 L 775.7721557617188 135.8260955810547 L 759.892578125 136.06044006347656 L 744.5878295898438 136.31588745117188 L 729.8208618164062 136.59107971191406 L 715.5545654296875 136.88465881347656 L 701.7518920898438 137.1952667236328 L 688.3756713867188 137.5215301513672 L 675.388916015625 137.86209106445312 L 662.7544555664062 138.21559143066406 L 650.435302734375 138.58065795898438 L 638.3942260742188 138.95594787597656 L 626.59423828125 139.340087890625 L 614.998291015625 139.73171997070312 L 603.5691528320312 140.1294708251953 L 592.2698974609375 140.53199768066406 L 581.0632934570312 140.93792724609375 L 569.912353515625 141.3459014892578 L 558.7799682617188 141.75454711914062 L 547.6290283203125 142.1625213623047 L 536.4224243164062 142.56845092773438 L 525.1231079101562 142.97097778320312 L 513.6940307617188 143.3687286376953 L 502.0980529785156 143.76036071777344 L 490.2980651855469 144.14450073242188 L 478.25701904296875 144.51979064941406 L 465.9378356933594 144.88485717773438 L 453.3033752441406 145.2383575439453 L 440.3166198730469 145.57891845703125 L 426.9404296875 145.90518188476562 L 413.1377258300781 146.21578979492188 L 398.8714294433594 146.50936889648438 L 384.1044921875 146.78456115722656 L 368.79974365234375 147.04000854492188 L 352.920166015625 147.27435302734375 L 336.4286193847656 147.48622131347656 L 319.2880554199219 147.6742706298828 L 301.4613952636719 147.8371124267578 L 282.9114990234375 147.97340393066406 L 263.601318359375 148.081787109375 L 243.4937744140625 148.16087341308594 L 222.5517578125 148.20933532714844 L 200.73818969726562 148.22579956054688 Z" fill-opacity="0.6" clip-path="url(#pusChPNHXasg)" stroke-opacity="1" stroke-linejoin="bevel" stroke-miterlimit="10" stroke-width="0.8" stroke-dasharray=""/><path fill="rgb(214,39,40)" stroke="rgb(214,39,40)" paint-order="fill" d="M 200.73818969726562 130.30133056640625 L 200.73818969726562 148.22579956054688 L 200.73818969726562 148.22579956054688 L 222.5517578125 148.20413208007812 L 243.4937744140625 148.14031982421875 L 263.601318359375 148.03616333007812 L 282.9114990234375 147.89346313476562 L 301.4613952636719 147.7139892578125 L 319.2880554199219 147.49957275390625 L 336.4286193847656 147.251953125 L 352.920166015625 146.9729766845703 L 368.79974365234375 146.66439819335938 L 384.1044921875 146.32803344726562 L 398.8714294433594 145.96566772460938 L 413.1377258300781 145.5791015625 L 426.9404296875 145.17010498046875 L 440.3166198730469 144.74049377441406 L 453.3033752441406 144.2920684814453 L 465.9378356933594 143.8265838623047 L 478.25701904296875 143.3458709716797 L 490.2980651855469 142.85171508789062 L 502.0980529785156 142.34588623046875 L 513.6940307617188 141.83021545410156 L 525.1231079101562 141.30645751953125 L 536.4224243164062 140.77642822265625 L 547.6290283203125 140.24192810058594 L 558.7799682617188 139.70472717285156 L 569.912353515625 139.1666259765625 L 581.0632934570312 138.62942504882812 L 592.2698974609375 138.0949249267578 L 603.5691528320312 137.5648956298828 L 614.998291015625 137.0411376953125 L 626.59423828125 136.5254669189453 L 638.3942260742188 136.01963806152344 L 650.435302734375 135.52548217773438 L 662.7544555664062 135.04476928710938 L 675.388916015625 134.57928466796875 L 688.3756713867188 134.130859375 L 701.7518920898438 133.7012481689453 L 715.5545654296875 133.29225158691406 L 729.8208618164062 132.9056854248047 L 744.5878295898438 132.54331970214844 L 759.892578125 132.2069549560547 L 775.7721557617188 131.89837646484375 L 792.263671875 131.619384765625 L 809.4042358398438 131.3717803955078 L 827.2308959960938 131.15736389160156 L 845.7808227539062 130.97789001464844 L 865.0910034179688 130.83518981933594 L 885.1985473632812 130.7310333251953 L 906.1405639648438 130.66722106933594 L 927.9541015625 130.6455535888672 L 927.9541015625 130.6455535888672 L 927.9541015625 112.72109985351562 L 927.9541015625 112.72109985351562 L 906.1405639648438 112.74276733398438 L 885.1985473632812 112.80657196044922 L 865.0910034179688 112.91072845458984 L 845.7808227539062 113.05342864990234 L 827.2308959960938 113.23289489746094 L 809.4042358398438 113.44732666015625 L 792.263671875 113.69493103027344 L 775.7721557617188 113.97391510009766 L 759.892578125 114.28248596191406 L 744.5878295898438 114.61885070800781 L 729.8208618164062 114.9812240600586 L 715.5545654296875 115.3677978515625 L 701.7518920898438 115.77678680419922 L 688.3756713867188 116.20639038085938 L 675.388916015625 116.65483093261719 L 662.7544555664062 117.12030792236328 L 650.435302734375 117.60102081298828 L 638.3942260742188 118.09518432617188 L 626.59423828125 118.60099792480469 L 614.998291015625 119.11668395996094 L 603.5691528320312 119.64043426513672 L 592.2698974609375 120.17045593261719 L 581.0632934570312 120.70497131347656 L 569.912353515625 121.2421646118164 L 558.7799682617188 121.78026580810547 L 547.6290283203125 122.31745910644531 L 536.4224243164062 122.85197448730469 L 525.1231079101562 123.38199615478516 L 513.6940307617188 123.90574645996094 L 502.0980529785156 124.42143249511719 L 490.2980651855469 124.92724609375 L 478.25701904296875 125.4214096069336 L 465.9378356933594 125.90213012695312 L 453.3033752441406 126.36759948730469 L 440.3166198730469 126.8160400390625 L 426.9404296875 127.24565124511719 L 413.1377258300781 127.6546401977539 L 398.8714294433594 128.0412139892578 L 384.1044921875 128.40357971191406 L 368.79974365234375 128.7399444580078 L 352.920166015625 129.0485076904297 L 336.4286193847656 129.32749938964844 L 319.2880554199219 129.57510375976562 L 301.4613952636719 129.78953552246094 L 282.9114990234375 129.968994140625 L 263.601318359375 130.11170959472656 L 243.4937744140625 130.21585083007812 L 222.5517578125 130.2796630859375 L 200.73818969726562 130.30133056640625 Z" fill-opacity="0.6" clip-path="url(#pusChPNHXasg)" stroke-opacity="1" stroke-linejoin="bevel" stroke-miterlimit="10" stroke-width="0.8" stroke-dasharray=""/><path fill="rgb(255,152,150)" stroke="rgb(255,152,150)" paint-order="fill" d="M 200.73818969726562 118.35169219970703 L 200.73818969726562 130.30133056640625 L 200.73818969726562 130.30133056640625 L 222.5517578125 130.2744598388672 L 243.4937744140625 130.19529724121094 L 263.601318359375 130.0660858154297 L 282.9114990234375 129.88905334472656 L 301.4613952636719 129.66641235351562 L 319.2880554199219 129.40040588378906 L 336.4286193847656 129.09323120117188 L 352.920166015625 128.74713134765625 L 368.79974365234375 128.3643341064453 L 384.1044921875 127.94705200195312 L 398.8714294433594 127.49752044677734 L 413.1377258300781 127.01795196533203 L 426.9404296875 126.51057434082031 L 440.3166198730469 125.97761535644531 L 453.3033752441406 125.42130279541016 L 465.9378356933594 124.84385681152344 L 478.25701904296875 124.24750518798828 L 490.2980651855469 123.63446044921875 L 502.0980529785156 123.00696563720703 L 513.6940307617188 122.36723327636719 L 525.1231079101562 121.71749114990234 L 536.4224243164062 121.0599594116211 L 547.6290283203125 120.39686584472656 L 558.7799682617188 119.73043823242188 L 569.912353515625 119.06289672851562 L 581.0632934570312 118.39647674560547 L 592.2698974609375 117.73338317871094 L 603.5691528320312 117.07585144042969 L 614.998291015625 116.42610931396484 L 626.59423828125 115.786376953125 L 638.3942260742188 115.15887451171875 L 650.435302734375 114.54583740234375 L 662.7544555664062 113.9494857788086 L 675.388916015625 113.37203979492188 L 688.3756713867188 112.81571960449219 L 701.7518920898438 112.28276824951172 L 715.5545654296875 111.775390625 L 729.8208618164062 111.29582214355469 L 744.5878295898438 110.84628295898438 L 759.892578125 110.42900085449219 L 775.7721557617188 110.04620361328125 L 792.263671875 109.70010375976562 L 809.4042358398438 109.39293670654297 L 827.2308959960938 109.12692260742188 L 845.7808227539062 108.90428161621094 L 865.0910034179688 108.72724914550781 L 885.1985473632812 108.5980453491211 L 906.1405639648438 108.51889038085938 L 927.9541015625 108.49201202392578 L 927.9541015625 108.49201202392578 L 927.9541015625 96.54236602783203 L 927.9541015625 96.54236602783203 L 906.1405639648438 96.56924438476562 L 885.1985473632812 96.64839935302734 L 865.0910034179688 96.7776107788086 L 845.7808227539062 96.95464324951172 L 827.2308959960938 97.17728424072266 L 809.4042358398438 97.44329833984375 L 792.263671875 97.7504653930664 L 775.7721557617188 98.09656524658203 L 759.892578125 98.47936248779297 L 744.5878295898438 98.89664459228516 L 729.8208618164062 99.34618377685547 L 715.5545654296875 99.82575225830078 L 701.7518920898438 100.33312225341797 L 688.3756713867188 100.86608123779297 L 675.388916015625 101.42239379882812 L 662.7544555664062 101.99983978271484 L 650.435302734375 102.59619903564453 L 638.3942260742188 103.20923614501953 L 626.59423828125 103.83673858642578 L 614.998291015625 104.47647094726562 L 603.5691528320312 105.12621307373047 L 592.2698974609375 105.78374481201172 L 581.0632934570312 106.44683074951172 L 569.912353515625 107.1132583618164 L 558.7799682617188 107.78079986572266 L 547.6290283203125 108.44722747802734 L 536.4224243164062 109.11032104492188 L 525.1231079101562 109.7678451538086 L 513.6940307617188 110.41758728027344 L 502.0980529785156 111.05732727050781 L 490.2980651855469 111.68482208251953 L 478.25701904296875 112.29785919189453 L 465.9378356933594 112.89421844482422 L 453.3033752441406 113.47166442871094 L 440.3166198730469 114.0279769897461 L 426.9404296875 114.5609359741211 L 413.1377258300781 115.06830596923828 L 398.8714294433594 115.5478744506836 L 384.1044921875 115.9974136352539 L 368.79974365234375 116.4146957397461 L 352.920166015625 116.79750061035156 L 336.4286193847656 117.14359283447266 L 319.2880554199219 117.45075988769531 L 301.4613952636719 117.71678161621094 L 282.9114990234375 117.93941497802734 L 263.601318359375 118.11644744873047 L 243.4937744140625 118.24565887451172 L 222.5517578125 118.32481384277344 L 200.73818969726562 118.35169219970703 Z" fill-opacity="0.6" clip-path="url(#pusChPNHXasg)" stroke-opacity="1" stroke-linejoin="bevel" stroke-miterlimit="10" stroke-width="0.8" stroke-dasharray=""/><path fill="rgb(148,103,189)" stroke="rgb(148,103,189)" paint-order="fill" d="M 200.73818969726562 106.40205383300781 L 200.73818969726562 118.35169219970703 L 200.73818969726562 118.35169219970703 L 222.5517578125 118.3196029663086 L 243.4937744140625 118.22509765625 L 263.601318359375 118.07083129882812 L 282.9114990234375 117.85946655273438 L 301.4613952636719 117.59365844726562 L 319.2880554199219 117.27606201171875 L 336.4286193847656 116.90933227539062 L 352.920166015625 116.4961166381836 L 368.79974365234375 116.0390853881836 L 384.1044921875 115.5408935546875 L 398.8714294433594 115.00418090820312 L 413.1377258300781 114.4316177368164 L 426.9404296875 113.82585906982422 L 440.3166198730469 113.18955993652344 L 453.3033752441406 112.5253677368164 L 465.9378356933594 111.83594512939453 L 478.25701904296875 111.12394714355469 L 490.2980651855469 110.39203643798828 L 502.0980529785156 109.64286041259766 L 513.6940307617188 108.87907409667969 L 525.1231079101562 108.10333251953125 L 536.4224243164062 107.31830596923828 L 547.6290283203125 106.5266342163086 L 558.7799682617188 105.73097229003906 L 569.912353515625 104.93399047851562 L 581.0632934570312 104.13833618164062 L 592.2698974609375 103.34666442871094 L 603.5691528320312 102.56163024902344 L 614.998291015625 101.78589630126953 L 626.59423828125 101.02210998535156 L 638.3942260742188 100.27293395996094 L 650.435302734375 99.541015625 L 662.7544555664062 98.82902526855469 L 675.388916015625 98.13960266113281 L 688.3756713867188 97.47541046142578 L 701.7518920898438 96.839111328125 L 715.5545654296875 96.23334503173828 L 729.8208618164062 95.66078186035156 L 744.5878295898438 95.12407684326172 L 759.892578125 94.6258773803711 L 775.7721557617188 94.1688461303711 L 792.263671875 93.7556381225586 L 809.4042358398438 93.38890838623047 L 827.2308959960938 93.07130432128906 L 845.7808227539062 92.80549621582031 L 865.0910034179688 92.5941390991211 L 885.1985473632812 92.43987274169922 L 906.1405639648438 92.34536743164062 L 927.9541015625 92.31327819824219 L 927.9541015625 92.31327819824219 L 927.9541015625 80.36363983154297 L 927.9541015625 80.36363983154297 L 906.1405639648438 80.3957290649414 L 885.1985473632812 80.490234375 L 865.0910034179688 80.64449310302734 L 845.7808227539062 80.8558578491211 L 827.2308959960938 81.12166595458984 L 809.4042358398438 81.43926239013672 L 792.263671875 81.80599975585938 L 775.7721557617188 82.21920776367188 L 759.892578125 82.67623901367188 L 744.5878295898438 83.1744384765625 L 729.8208618164062 83.71114349365234 L 715.5545654296875 84.28370666503906 L 701.7518920898438 84.88946533203125 L 688.3756713867188 85.52577209472656 L 675.388916015625 86.1899642944336 L 662.7544555664062 86.87937927246094 L 650.435302734375 87.59137725830078 L 638.3942260742188 88.32329559326172 L 626.59423828125 89.07247161865234 L 614.998291015625 89.83625793457031 L 603.5691528320312 90.61199188232422 L 592.2698974609375 91.39702606201172 L 581.0632934570312 92.1886978149414 L 569.912353515625 92.9843521118164 L 558.7799682617188 93.78133392333984 L 547.6290283203125 94.57698822021484 L 536.4224243164062 95.36865997314453 L 525.1231079101562 96.15369415283203 L 513.6940307617188 96.92942810058594 L 502.0980529785156 97.6932144165039 L 490.2980651855469 98.44239807128906 L 478.25701904296875 99.17430877685547 L 465.9378356933594 99.88630676269531 L 453.3033752441406 100.57572937011719 L 440.3166198730469 101.23991394042969 L 426.9404296875 101.876220703125 L 413.1377258300781 102.48197937011719 L 398.8714294433594 103.0545425415039 L 384.1044921875 103.59124755859375 L 368.79974365234375 104.08944702148438 L 352.920166015625 104.54647827148438 L 336.4286193847656 104.95968627929688 L 319.2880554199219 105.32642364501953 L 301.4613952636719 105.6440200805664 L 282.9114990234375 105.90982818603516 L 263.601318359375 106.1211929321289 L 243.4937744140625 106.27545166015625 L 222.5517578125 106.36995697021484 L 200.73818969726562 106.40205383300781 Z" fill-opacity="0.6" clip-path="url(#pusChPNHXasg)" stroke-opacity="1" stroke-linejoin="bevel" stroke-miterlimit="10" stroke-width="0.8" stroke-dasharray=""/><path fill="rgb(31,119,180)" stroke="rgb(0,0,0)" paint-order="fill" d="M 189.49258422851562 106.40205383300781 L 200.73818969726562 106.40205383300781 L 200.73818969726562 1134.0711669921875 L 189.49258422851562 1134.0711669921875 L 189.49258422851562 106.40205383300781" fill-opacity="0.9019607843137255" clip-path="url(#xtFThhoGsRPI)" stroke-opacity="0.2" stroke-linejoin="bevel" stroke-miterlimit="10" stroke-width="0.5" stroke-dasharray=""/><path fill="rgb(174,199,232)" stroke="rgb(0,0,0)" paint-order="fill" d="M 927.9541015625 474.4313049316406 L 939.19970703125 474.4313049316406 L 939.19970703125 1137.6363525390625 L 927.9541015625 1137.6363525390625 L 927.9541015625 474.4313049316406" fill-opacity="0.9019607843137255" clip-path="url(#xtFThhoGsRPI)" stroke-opacity="0.2" stroke-linejoin="bevel" stroke-miterlimit="10" stroke-width="0.5" stroke-dasharray=""/><path fill="rgb(255,127,14)" stroke="rgb(0,0,0)" paint-order="fill" d="M 927.9541015625 326.8065185546875 L 939.19970703125 326.8065185546875 L 939.19970703125 470.20220947265625 L 927.9541015625 470.20220947265625 L 927.9541015625 326.8065185546875" fill-opacity="0.9019607843137255" clip-path="url(#xtFThhoGsRPI)" stroke-opacity="0.2" stroke-linejoin="bevel" stroke-miterlimit="10" stroke-width="0.5" stroke-dasharray=""/><path fill="rgb(255,187,120)" stroke="rgb(0,0,0)" paint-order="fill" d="M 927.9541015625 238.92996215820312 L 939.19970703125 238.92996215820312 L 939.19970703125 322.57745361328125 L 927.9541015625 322.57745361328125 L 927.9541015625 238.92996215820312" fill-opacity="0.9019607843137255" clip-path="url(#xtFThhoGsRPI)" stroke-opacity="0.2" stroke-linejoin="bevel" stroke-miterlimit="10" stroke-width="0.5" stroke-dasharray=""/><path fill="rgb(44,160,44)" stroke="rgb(0,0,0)" paint-order="fill" d="M 927.9541015625 163.00302124023438 L 939.19970703125 163.00302124023438 L 939.19970703125 234.70086669921875 L 927.9541015625 234.70086669921875 L 927.9541015625 163.00302124023438" fill-opacity="0.9019607843137255" clip-path="url(#xtFThhoGsRPI)" stroke-opacity="0.2" stroke-linejoin="bevel" stroke-miterlimit="10" stroke-width="0.5" stroke-dasharray=""/><path fill="rgb(152,223,138)" stroke="rgb(0,0,0)" paint-order="fill" d="M 927.9541015625 134.87464904785156 L 939.19970703125 134.87464904785156 L 939.19970703125 158.77392578125 L 927.9541015625 158.77392578125 L 927.9541015625 134.87464904785156" fill-opacity="0.9019607843137255" clip-path="url(#xtFThhoGsRPI)" stroke-opacity="0.2" stroke-linejoin="bevel" stroke-miterlimit="10" stroke-width="0.5" stroke-dasharray=""/><path fill="rgb(214,39,40)" stroke="rgb(0,0,0)" paint-order="fill" d="M 927.9541015625 112.72109985351562 L 939.19970703125 112.72109985351562 L 939.19970703125 130.6455535888672 L 927.9541015625 130.6455535888672 L 927.9541015625 112.72109985351562" fill-opacity="0.9019607843137255" clip-path="url(#xtFThhoGsRPI)" stroke-opacity="0.2" stroke-linejoin="bevel" stroke-miterlimit="10" stroke-width="0.5" stroke-dasharray=""/><path fill="rgb(255,152,150)" stroke="rgb(0,0,0)" paint-order="fill" d="M 927.9541015625 96.54236602783203 L 939.19970703125 96.54236602783203 L 939.19970703125 108.49201202392578 L 927.9541015625 108.49201202392578 L 927.9541015625 96.54236602783203" fill-opacity="0.9019607843137255" clip-path="url(#xtFThhoGsRPI)" stroke-opacity="0.2" stroke-linejoin="bevel" stroke-miterlimit="10" stroke-width="0.5" stroke-dasharray=""/><path fill="rgb(148,103,189)" stroke="rgb(0,0,0)" paint-order="fill" d="M 927.9541015625 80.36363983154297 L 939.19970703125 80.36363983154297 L 939.19970703125 92.31327819824219 L 927.9541015625 92.31327819824219 L 927.9541015625 80.36363983154297" fill-opacity="0.9019607843137255" clip-path="url(#xtFThhoGsRPI)" stroke-opacity="0.2" stroke-linejoin="bevel" stroke-miterlimit="10" stroke-width="0.5" stroke-dasharray=""/><g clip-path="url(#AZceFnXgOSUR)"><text fill="rgb(0,0,0)" stroke="none" font-family="helvetica" font-size="8pt" font-style="normal" font-weight="normal" text-decoration="normal" x="0" y="0" text-anchor="end" dominant-baseline="central" transform="matrix(1, 0, 0, 1, 186.68118286132812, 620.236572265625)" fill-opacity="1">SpaceX - 172</text></g><g clip-path="url(#AZceFnXgOSUR)"><text fill="rgb(0,0,0)" stroke="none" font-family="helvetica" font-size="8pt" font-style="normal" font-weight="normal" text-decoration="normal" x="0" y="0" text-anchor="end" dominant-baseline="central" transform="matrix(1, 0, 0, 1, 925.1427001953125, 806.0338134765625)" fill-opacity="1">Falcon 9 Block 5 - 111</text></g><g clip-path="url(#AZceFnXgOSUR)"><text fill="rgb(0,0,0)" stroke="none" font-family="helvetica" font-size="8pt" font-style="normal" font-weight="normal" text-decoration="normal" x="0" y="0" text-anchor="end" dominant-baseline="central" transform="matrix(1, 0, 0, 1, 925.1427001953125, 398.5043640136719)" fill-opacity="1">Falcon 9 Block 3 - 24</text></g><g clip-path="url(#AZceFnXgOSUR)"><text fill="rgb(0,0,0)" stroke="none" font-family="helvetica" font-size="8pt" font-style="normal" font-weight="normal" text-decoration="normal" x="0" y="0" text-anchor="end" dominant-baseline="central" transform="matrix(1, 0, 0, 1, 925.1427001953125, 280.7536926269531)" fill-opacity="1">Falcon 9 v1.1 - 14</text></g><g clip-path="url(#AZceFnXgOSUR)"><text fill="rgb(0,0,0)" stroke="none" font-family="helvetica" font-size="8pt" font-style="normal" font-weight="normal" text-decoration="normal" x="0" y="0" text-anchor="end" dominant-baseline="central" transform="matrix(1, 0, 0, 1, 925.1427001953125, 198.85194396972656)" fill-opacity="1">Falcon 9 Block 4 - 12</text></g><g clip-path="url(#AZceFnXgOSUR)"><text fill="rgb(0,0,0)" stroke="none" font-family="helvetica" font-size="8pt" font-style="normal" font-weight="normal" text-decoration="normal" x="0" y="0" text-anchor="end" dominant-baseline="central" transform="matrix(1, 0, 0, 1, 925.1427001953125, 146.8242950439453)" fill-opacity="1">Falcon 9 v1.0 - 4</text></g><g clip-path="url(#AZceFnXgOSUR)"><text fill="rgb(0,0,0)" stroke="none" font-family="helvetica" font-size="8pt" font-style="normal" font-weight="normal" text-decoration="normal" x="0" y="0" text-anchor="end" dominant-baseline="central" transform="matrix(1, 0, 0, 1, 925.1427001953125, 121.6833267211914)" fill-opacity="1">Falcon Heavy - 3</text></g><g clip-path="url(#AZceFnXgOSUR)"><text fill="rgb(0,0,0)" stroke="none" font-family="helvetica" font-size="8pt" font-style="normal" font-weight="normal" text-decoration="normal" x="0" y="0" text-anchor="end" dominant-baseline="central" transform="matrix(1, 0, 0, 1, 925.1427001953125, 102.5171890258789)" fill-opacity="1">Falcon 1 - 2</text></g><g clip-path="url(#AZceFnXgOSUR)"><text fill="rgb(0,0,0)" stroke="none" font-family="helvetica" font-size="8pt" font-style="normal" font-weight="normal" text-decoration="normal" x="0" y="0" text-anchor="end" dominant-baseline="central" transform="matrix(1, 0, 0, 1, 925.1427001953125, 86.33845520019531)" fill-opacity="1">Starship Prototype - 2</text></g><text fill="rgb(68,68,68)" stroke="none" font-family="helvetica" font-size="13px" font-style="normal" font-weight="bold" text-decoration="normal" x="10" y="19.1689453125" text-anchor="start" dominant-baseline="alphabetic" transform="matrix(1, 0, 0, 1, 0.5, 0.5)" fill-opacity="1">SpaceX Rocket Successes</text></svg>