<svg version="1.1" xmlns="http://www.w3.org/2000/svg" width="1000" height="1200"><defs><clipPath id="myfnVptMCdDl"><path fill="none" stroke="none" d="M 10.5 27.5 L 970.5 27.5 L 970.5 1190.5 L 10.5 1190.5 L 10.5 27.5"/></clipPath><clipPath id="tWTgZXLbtmqP"><path fill="none" stroke="none" d="M 10.5 27.5 L 970.5 27.5 L 970.5 1190.5 L 10.5 1190.5 L 10.5 27.5"/></clipPath><clipPath id="JshhKhFJoieX"><path fill="none" stroke="none" d="M 10.5 27.5 L 970.5 27.5 L 970.5 1190.5 L 10.5 1190.5 L 10.5 27.5"/></clipPath><clipPath id="nsVpCAacIFhH"><path fill="none" stroke="none" d="M 10.5 27.5 L 970.5 27.5 L 970.5 1190.5 L 10.5 1190.5 L 10.5 27.5"/></clipPath><clipPath id="ExsEiHMIwlBx"><path fill="none" stroke="none" d="M 10.5 27.5 L 970.5 27.5 L 970.5 1190.5 L 10.5 1190.5 L 10.5 27.5"/></clipPath><clipPath id="TdWfEBerpxKh"><path fill="none" stroke="none" d="M 10.5 27.5 L 970.5 27.5 L 970.5 1190.5 L 10.5 1190.5 L 10.5 27.5"/></clipPath></defs><path fill="rgb(255,255,255)" stroke="none" paint-order="stroke" d="M 0.5 0.5 L 1000.5 0.5 L 1000.5 1200.5 L 0.5 1200.5 L 0.5 0.5" fill-opacity="1"/><rect fill="#FFFFFF" stroke="none" x="10" y="27" width="960" height="1163" transform="matrix(1, 0, 0, 1, 0.5, 0.5)"/><path fill="rgb(255,250,250)" stroke="none" paint-order="stroke" d="M 10.5 27.5 L 970.5 27.5 L 970.5 1190.5 L 10.5 1190.5 L 10.5 27.5" fill-opacity="1"/><path fill="rgb(174,199,232)" stroke="rgb(174,199,232)" paint-order="fill" d="M 200.73818969726562 902.3153076171875 L 200.73818969726562 1122.8836669921875 L 200.73818969726562 1122.8836669921875 L 222.5517578125 1122.90185546875 L 243.4937744140625 1122.9554443359375 L 263.601318359375 1123.0428466796875 L 282.9114990234375 1123.16259765625 L 301.4613952636719 1123.313232421875 L 319.2880554199219 1123.4931640625 L 336.4286193847656 1123.700927734375 L 352.920166015625 1123.93505859375 L 368.79974365234375 1124.1939697265625 L 384.1044921875 1124.4761962890625 L 398.8714294433594 1124.7802734375 L 413.1377258300781 1125.104736328125 L 426.9404296875 1125.4478759765625 L 440.3166198730469 1125.8084716796875 L 453.3033752441406 1126.184814453125 L 465.9378356933594 1126.5753173828125 L 478.25701904296875 1126.978759765625 L 490.2980651855469 1127.3934326171875 L 502.0980529785156 1127.81787109375 L 513.6940307617188 1128.2506103515625 L 525.1231079101562 1128.690185546875 L 536.4224243164062 1129.1348876953125 L 547.6290283203125 1129.58349609375 L 558.7799682617188 1130.0343017578125 L 569.912353515625 1130.48583984375 L 581.0632934570312 1130.9366455078125 L 592.2698974609375 1131.3851318359375 L 603.5691528320312 1131.8299560546875 L 614.998291015625 1132.2694091796875 L 626.59423828125 1132.7021484375 L 638.3942260742188 1133.1265869140625 L 650.435302734375 1133.5413818359375 L 662.7544555664062 1133.9447021484375 L 675.388916015625 1134.3353271484375 L 688.3756713867188 1134.711669921875 L 701.7518920898438 1135.0721435546875 L 715.5545654296875 1135.4154052734375 L 729.8208618164062 1135.73974609375 L 744.5878295898438 1136.0438232421875 L 759.892578125 1136.3260498046875 L 775.7721557617188 1136.5850830078125 L 792.263671875 1136.8192138671875 L 809.4042358398438 1137.0269775390625 L 827.2308959960938 1137.2069091796875 L 845.7808227539062 1137.3575439453125 L 865.0910034179688 1137.477294921875 L 885.1985473632812 1137.564697265625 L 906.1405639648438 1137.6181640625 L 927.9541015625 1137.6363525390625 L 927.9541015625 1137.6363525390625 L 927.9541015625 917.0679931640625 L 927.9541015625 917.0679931640625 L 906.1405639648438 917.0498046875 L 885.1985473632812 916.9962158203125 L 865.0910034179688 916.9088134765625 L 845.7808227539062 916.7890625 L 827.2308959960938 916.6384887695312 L 809.4042358398438 916.4585571289062 L 792.263671875 916.250732421875 L 775.7721557617188 916.0166625976562 L 759.892578125 915.7576904296875 L 744.5878295898438 915.4754638671875 L 729.8208618164062 915.17138671875 L 715.5545654296875 914.8469848632812 L 701.7518920898438 914.5037231445312 L 688.3756713867188 914.1432495117188 L 675.388916015625 913.7669067382812 L 662.7544555664062 913.3763427734375 L 650.435302734375 912.972900390625 L 638.3942260742188 912.5582275390625 L 626.59423828125 912.1337890625 L 614.998291015625 911.7010498046875 L 603.5691528320312 911.2615356445312 L 592.2698974609375 910.8167724609375 L 581.0632934570312 910.3682250976562 L 569.912353515625 909.9174194335938 L 558.7799682617188 909.4658813476562 L 547.6290283203125 909.0150756835938 L 536.4224243164062 908.5665283203125 L 525.1231079101562 908.1217651367188 L 513.6940307617188 907.6822509765625 L 502.0980529785156 907.24951171875 L 490.2980651855469 906.8250122070312 L 478.25701904296875 906.4103393554688 L 465.9378356933594 906.0069580078125 L 453.3033752441406 905.6163330078125 L 440.3166198730469 905.2400512695312 L 426.9404296875 904.8795166015625 L 413.1377258300781 904.5363159179688 L 398.8714294433594 904.2119140625 L 384.1044921875 903.9078369140625 L 368.79974365234375 903.6255493164062 L 352.920166015625 903.3666381835938 L 336.4286193847656 903.1325073242188 L 319.2880554199219 902.9247436523438 L 301.4613952636719 902.7448120117188 L 282.9114990234375 902.5941772460938 L 263.601318359375 902.4744262695312 L 243.4937744140625 902.3870239257812 L 222.5517578125 902.33349609375 L 200.73818969726562 902.3153076171875 Z" fill-opacity="0.6" clip-path="url(#JshhKhFJoieX)" stroke-opacity="1" stroke-linejoin="bevel" stroke-miterlimit="10" stroke-width="0.8" stroke-dasharray=""/><path fill="rgb(255,127,14)" stroke="rgb(255,127,14)" paint-order="fill" d="M 200.73818969726562 194.97528076171875 L 200.73818969726562 202.58108520507812 L 200.73818969726562 202.58108520507812 L 222.5517578125 202.54193115234375 L 243.4937744140625 202.4266357421875 L 263.601318359375 202.23843383789062 L 282.9114990234375 201.98056030273438 L 301.4613952636719 201.65628051757812 L 319.2880554199219 201.268798828125 L 336.4286193847656 200.82138061523438 L 352.920166015625 200.3172607421875 L 368.79974365234375 199.75965881347656 L 384.1044921875 199.15185546875 L 398.8714294433594 198.49705505371094 L 413.1377258300781 197.79852294921875 L 426.9404296875 197.05947875976562 L 440.3166198730469 196.28318786621094 L 453.3033752441406 195.4728546142578 L 465.9378356933594 194.6317596435547 L 478.25701904296875 193.7631072998047 L 490.2980651855469 192.87014770507812 L 502.0980529785156 191.95614624023438 L 513.6940307617188 191.02430725097656 L 525.1231079101562 190.07789611816406 L 536.4224243164062 189.12014770507812 L 547.6290283203125 188.15428161621094 L 558.7799682617188 187.18357849121094 L 569.912353515625 186.21124267578125 L 581.0632934570312 185.2405242919922 L 592.2698974609375 184.27467346191406 L 603.5691528320312 183.31690979003906 L 614.998291015625 182.37049865722656 L 626.59423828125 181.4386749267578 L 638.3942260742188 180.524658203125 L 650.435302734375 179.6317138671875 L 662.7544555664062 178.7630615234375 L 675.388916015625 177.9219512939453 L 688.3756713867188 177.11163330078125 L 701.7518920898438 176.3353271484375 L 715.5545654296875 175.59628295898438 L 729.8208618164062 174.8977508544922 L 744.5878295898438 174.24295043945312 L 759.892578125 173.63514709472656 L 775.7721557617188 173.0775604248047 L 792.263671875 172.5734405517578 L 809.4042358398438 172.1260223388672 L 827.2308959960938 171.73854064941406 L 845.7808227539062 171.41424560546875 L 865.0910034179688 171.15638732910156 L 885.1985473632812 170.9681854248047 L 906.1405639648438 170.85287475585938 L 927.9541015625 170.813720703125 L 927.9541015625 170.813720703125 L 927.9541015625 163.20791625976562 L 927.9541015625 163.20791625976562 L 906.1405639648438 163.2470703125 L 885.1985473632812 163.36236572265625 L 865.0910034179688 163.55056762695312 L 845.7808227539062 163.80844116210938 L 827.2308959960938 164.1327362060547 L 809.4042358398438 164.52020263671875 L 792.263671875 164.96763610839844 L 775.7721557617188 165.4717559814453 L 759.892578125 166.0293426513672 L 744.5878295898438 166.63714599609375 L 729.8208618164062 167.2919464111328 L 715.5545654296875 167.990478515625 L 701.7518920898438 168.72952270507812 L 688.3756713867188 169.50582885742188 L 675.388916015625 170.31614685058594 L 662.7544555664062 171.15725708007812 L 650.435302734375 172.02589416503906 L 638.3942260742188 172.91885375976562 L 626.59423828125 173.83285522460938 L 614.998291015625 174.7646942138672 L 603.5691528320312 175.7111053466797 L 592.2698974609375 176.6688690185547 L 581.0632934570312 177.6347198486328 L 569.912353515625 178.60543823242188 L 558.7799682617188 179.57777404785156 L 547.6290283203125 180.54847717285156 L 536.4224243164062 181.51434326171875 L 525.1231079101562 182.4720916748047 L 513.6940307617188 183.4185028076172 L 502.0980529785156 184.350341796875 L 490.2980651855469 185.26434326171875 L 478.25701904296875 186.1573028564453 L 465.9378356933594 187.02593994140625 L 453.3033752441406 187.86705017089844 L 440.3166198730469 188.67738342285156 L 426.9404296875 189.45367431640625 L 413.1377258300781 190.19271850585938 L 398.8714294433594 190.89125061035156 L 384.1044921875 191.54605102539062 L 368.79974365234375 192.1538543701172 L 352.920166015625 192.71144104003906 L 336.4286193847656 193.215576171875 L 319.2880554199219 193.66299438476562 L 301.4613952636719 194.0504608154297 L 282.9114990234375 194.374755859375 L 263.601318359375 194.63262939453125 L 243.4937744140625 194.82083129882812 L 222.5517578125 194.93612670898438 L 200.73818969726562 194.97528076171875 Z" fill-opacity="0.6" clip-path="url(#JshhKhFJoieX)" stroke-opacity="1" stroke-linejoin="bevel" stroke-miterlimit="10" stroke-width="0.8" stroke-dasharray=""/><path fill="rgb(255,187,120)" stroke="rgb(255,187,120)" paint-order="fill" d="M 200.73818969726562 187.36947631835938 L 200.73818969726562 194.97528076171875 L 200.73818969726562 194.97528076171875 L 222.5517578125 194.930908203125 L 243.4937744140625 194.80026245117188 L 263.601318359375 194.58700561523438 L 282.9114990234375 194.29481506347656 L 301.4613952636719 193.92735290527344 L 319.2880554199219 193.48829650878906 L 336.4286193847656 192.98130798339844 L 352.920166015625 192.41006469726562 L 368.79974365234375 191.77825927734375 L 384.1044921875 191.0895233154297 L 398.8714294433594 190.34756469726562 L 413.1377258300781 189.5560302734375 L 426.9404296875 188.71859741210938 L 440.3166198730469 187.83895874023438 L 453.3033752441406 186.92076110839844 L 465.9378356933594 185.96768188476562 L 478.25701904296875 184.98338317871094 L 490.2980651855469 183.9715576171875 L 502.0980529785156 182.9358673095703 L 513.6940307617188 181.87998962402344 L 525.1231079101562 180.80758666992188 L 536.4224243164062 179.72232055664062 L 547.6290283203125 178.6278839111328 L 558.7799682617188 177.52793884277344 L 569.912353515625 176.42616271972656 L 581.0632934570312 175.3262176513672 L 592.2698974609375 174.23178100585938 L 603.5691528320312 173.1465301513672 L 614.998291015625 172.07412719726562 L 626.59423828125 171.0182342529297 L 638.3942260742188 169.9825439453125 L 650.435302734375 168.97071838378906 L 662.7544555664062 167.98643493652344 L 675.388916015625 167.03335571289062 L 688.3756713867188 166.1151580810547 L 701.7518920898438 165.23550415039062 L 715.5545654296875 164.3980712890625 L 729.8208618164062 163.60655212402344 L 744.5878295898438 162.8645782470703 L 759.892578125 162.1758575439453 L 775.7721557617188 161.54403686523438 L 792.263671875 160.97280883789062 L 809.4042358398438 160.4658203125 L 827.2308959960938 160.02676391601562 L 845.7808227539062 159.6593017578125 L 865.0910034179688 159.36709594726562 L 885.1985473632812 159.15383911132812 L 906.1405639648438 159.023193359375 L 927.9541015625 158.9788360595703 L 927.9541015625 158.9788360595703 L 927.9541015625 151.37301635742188 L 927.9541015625 151.37301635742188 L 906.1405639648438 151.41738891601562 L 885.1985473632812 151.54803466796875 L 865.0910034179688 151.76129150390625 L 845.7808227539062 152.05348205566406 L 827.2308959960938 152.42095947265625 L 809.4042358398438 152.86001586914062 L 792.263671875 153.3669891357422 L 775.7721557617188 153.938232421875 L 759.892578125 154.57005310058594 L 744.5878295898438 155.25877380371094 L 729.8208618164062 156.00074768066406 L 715.5545654296875 156.79226684570312 L 701.7518920898438 157.62969970703125 L 688.3756713867188 158.50933837890625 L 675.388916015625 159.42755126953125 L 662.7544555664062 160.38063049316406 L 650.435302734375 161.3649139404297 L 638.3942260742188 162.37673950195312 L 626.59423828125 163.4124298095703 L 614.998291015625 164.4683074951172 L 603.5691528320312 165.5407257080078 L 592.2698974609375 166.6259765625 L 581.0632934570312 167.7204132080078 L 569.912353515625 168.8203582763672 L 558.7799682617188 169.92213439941406 L 547.6290283203125 171.02207946777344 L 536.4224243164062 172.11651611328125 L 525.1231079101562 173.20176696777344 L 513.6940307617188 174.27418518066406 L 502.0980529785156 175.33006286621094 L 490.2980651855469 176.36575317382812 L 478.25701904296875 177.37757873535156 L 465.9378356933594 178.3618621826172 L 453.3033752441406 179.31495666503906 L 440.3166198730469 180.233154296875 L 426.9404296875 181.11279296875 L 413.1377258300781 181.95022583007812 L 398.8714294433594 182.74176025390625 L 384.1044921875 183.4837188720703 L 368.79974365234375 184.1724395751953 L 352.920166015625 184.80426025390625 L 336.4286193847656 185.37550354003906 L 319.2880554199219 185.88247680664062 L 301.4613952636719 186.32154846191406 L 282.9114990234375 186.6890106201172 L 263.601318359375 186.981201171875 L 243.4937744140625 187.1944580078125 L 222.5517578125 187.32510375976562 L 200.73818969726562 187.36947631835938 Z" fill-opacity="0.6" clip-path="url(#JshhKhFJoieX)" stroke-opacity="1" stroke-linejoin="bevel" stroke-miterlimit="10" stroke-width="0.8" stroke-dasharray=""/><path fill="rgb(44,160,44)" stroke="rgb(44,160,44)" paint-order="fill" d="M 200.73818969726562 179.763671875 L 200.73818969726562 187.36947631835938 L 200.73818969726562 187.36947631835938 L 222.5517578125 187.3199005126953 L 243.4937744140625 187.1739044189453 L 263.601318359375 186.9355926513672 L 282.9114990234375 186.6090545654297 L 301.4613952636719 186.19842529296875 L 319.2880554199219 185.70777893066406 L 336.4286193847656 185.1412353515625 L 352.920166015625 184.5028839111328 L 368.79974365234375 183.79684448242188 L 384.1044921875 183.02719116210938 L 398.8714294433594 182.19805908203125 L 413.1377258300781 181.31353759765625 L 426.9404296875 180.3777313232422 L 440.3166198730469 179.3947296142578 L 453.3033752441406 178.36865234375 L 465.9378356933594 177.30360412597656 L 478.25701904296875 176.20367431640625 L 490.2980651855469 175.07296752929688 L 502.0980529785156 173.9156036376953 L 513.6940307617188 172.73565673828125 L 525.1231079101562 171.53726196289062 L 536.4224243164062 170.3245086669922 L 547.6290283203125 169.1014862060547 L 558.7799682617188 167.872314453125 L 569.912353515625 166.64108276367188 L 581.0632934570312 165.41192626953125 L 592.2698974609375 164.18890380859375 L 603.5691528320312 162.97613525390625 L 614.998291015625 161.77774047851562 L 626.59423828125 160.59780883789062 L 638.3942260742188 159.4404296875 L 650.435302734375 158.3097381591797 L 662.7544555664062 157.20980834960938 L 675.388916015625 156.14474487304688 L 688.3756713867188 155.11866760253906 L 701.7518920898438 154.13568115234375 L 715.5545654296875 153.1998748779297 L 729.8208618164062 152.31533813476562 L 744.5878295898438 151.4862060546875 L 759.892578125 150.71656799316406 L 775.7721557617188 150.01051330566406 L 792.263671875 149.37216186523438 L 809.4042358398438 148.8056182861328 L 827.2308959960938 148.31497192382812 L 845.7808227539062 147.9043426513672 L 865.0910034179688 147.57781982421875 L 885.1985473632812 147.33950805664062 L 906.1405639648438 147.19351196289062 L 927.9541015625 147.14393615722656 L 927.9541015625 147.14393615722656 L 927.9541015625 139.5381317138672 L 927.9541015625 139.5381317138672 L 906.1405639648438 139.58770751953125 L 885.1985473632812 139.73370361328125 L 865.0910034179688 139.97201538085938 L 845.7808227539062 140.2985382080078 L 827.2308959960938 140.70916748046875 L 809.4042358398438 141.19981384277344 L 792.263671875 141.766357421875 L 775.7721557617188 142.4047088623047 L 759.892578125 143.1107635498047 L 744.5878295898438 143.88040161132812 L 729.8208618164062 144.70953369140625 L 715.5545654296875 145.59405517578125 L 701.7518920898438 146.52987670898438 L 688.3756713867188 147.5128631591797 L 675.388916015625 148.5389404296875 L 662.7544555664062 149.60400390625 L 650.435302734375 150.7039337158203 L 638.3942260742188 151.83462524414062 L 626.59423828125 152.99200439453125 L 614.998291015625 154.17193603515625 L 603.5691528320312 155.37033081054688 L 592.2698974609375 156.58309936523438 L 581.0632934570312 157.8061065673828 L 569.912353515625 159.0352783203125 L 558.7799682617188 160.26651000976562 L 547.6290283203125 161.4956817626953 L 536.4224243164062 162.71868896484375 L 525.1231079101562 163.93145751953125 L 513.6940307617188 165.12985229492188 L 502.0980529785156 166.30978393554688 L 490.2980651855469 167.4671630859375 L 478.25701904296875 168.59786987304688 L 465.9378356933594 169.69778442382812 L 453.3033752441406 170.76284790039062 L 440.3166198730469 171.78892517089844 L 426.9404296875 172.77191162109375 L 413.1377258300781 173.70773315429688 L 398.8714294433594 174.59225463867188 L 384.1044921875 175.42138671875 L 368.79974365234375 176.19102478027344 L 352.920166015625 176.89707946777344 L 336.4286193847656 177.53543090820312 L 319.2880554199219 178.1019744873047 L 301.4613952636719 178.59262084960938 L 282.9114990234375 179.0032501220703 L 263.601318359375 179.32977294921875 L 243.4937744140625 179.56808471679688 L 222.5517578125 179.71408081054688 L 200.73818969726562 179.763671875 Z" fill-opacity="0.6" clip-path="url(#JshhKhFJoieX)" stroke-opacity="1" stroke-linejoin="bevel" stroke-miterlimit="10" stroke-width="0.8" stroke-dasharray=""/><path fill="rgb(152,223,138)" stroke="rgb(152,223,138)" paint-order="fill" d="M 200.73818969726562 172.15785217285156 L 200.73818969726562 179.763671875 L 200.73818969726562 179.763671875 L 222.5517578125 179.70887756347656 L 243.4937744140625 179.5475311279297 L 263.601318359375 179.28416442871094 L 282.9114990234375 178.92330932617188 L 301.4613952636719 178.46949768066406 L 319.2880554199219 177.92727661132812 L 336.4286193847656 177.30116271972656 L 352.920166015625 176.595703125 L 368.79974365234375 175.8154296875 L 384.1044921875 174.96485900878906 L 398.8714294433594 174.04855346679688 L 413.1377258300781 173.071044921875 L 426.9404296875 172.03684997558594 L 440.3166198730469 170.95050048828125 L 453.3033752441406 169.81654357910156 L 465.9378356933594 168.6395263671875 L 478.25701904296875 167.4239501953125 L 490.2980651855469 166.17437744140625 L 502.0980529785156 164.89532470703125 L 513.6940307617188 163.59133911132812 L 525.1231079101562 162.26693725585938 L 536.4224243164062 160.9266815185547 L 547.6290283203125 159.57508850097656 L 558.7799682617188 158.21669006347656 L 569.912353515625 156.85601806640625 L 581.0632934570312 155.49761962890625 L 592.2698974609375 154.14601135253906 L 603.5691528320312 152.80575561523438 L 614.998291015625 151.4813690185547 L 626.59423828125 150.1773681640625 L 638.3942260742188 148.89833068847656 L 650.435302734375 147.64874267578125 L 662.7544555664062 146.4331817626953 L 675.388916015625 145.2561492919922 L 688.3756713867188 144.1221923828125 L 701.7518920898438 143.03585815429688 L 715.5545654296875 142.0016632080078 L 729.8208618164062 141.02413940429688 L 744.5878295898438 140.1078338623047 L 759.892578125 139.2572784423828 L 775.7721557617188 138.47698974609375 L 792.263671875 137.7715301513672 L 809.4042358398438 137.1454315185547 L 827.2308959960938 136.6031951904297 L 845.7808227539062 136.14938354492188 L 865.0910034179688 135.78854370117188 L 885.1985473632812 135.52517700195312 L 906.1405639648438 135.36383056640625 L 927.9541015625 135.3090362548828 L 927.9541015625 135.3090362548828 L 927.9541015625 127.7032241821289 L 927.9541015625 127.7032241821289 L 906.1405639648438 127.75801849365234 L 885.1985473632812 127.91936492919922 L 865.0910034179688 128.18273162841797 L 845.7808227539062 128.5435791015625 L 827.2308959960938 128.9973907470703 L 809.4042358398438 129.53961181640625 L 792.263671875 130.1657257080078 L 775.7721557617188 130.87118530273438 L 759.892578125 131.65147399902344 L 744.5878295898438 132.5020294189453 L 729.8208618164062 133.4183349609375 L 715.5545654296875 134.39584350585938 L 701.7518920898438 135.4300537109375 L 688.3756713867188 136.51638793945312 L 675.388916015625 137.6503448486328 L 662.7544555664062 138.82737731933594 L 650.435302734375 140.04293823242188 L 638.3942260742188 141.29251098632812 L 626.59423828125 142.57156372070312 L 614.998291015625 143.87554931640625 L 603.5691528320312 145.199951171875 L 592.2698974609375 146.5402069091797 L 581.0632934570312 147.89181518554688 L 569.912353515625 149.25021362304688 L 558.7799682617188 150.61087036132812 L 547.6290283203125 151.96926879882812 L 536.4224243164062 153.3208770751953 L 525.1231079101562 154.6611328125 L 513.6940307617188 155.98553466796875 L 502.0980529785156 157.28952026367188 L 490.2980651855469 158.56857299804688 L 478.25701904296875 159.81814575195312 L 465.9378356933594 161.03372192382812 L 453.3033752441406 162.2107391357422 L 440.3166198730469 163.34469604492188 L 426.9404296875 164.4310302734375 L 413.1377258300781 165.46524047851562 L 398.8714294433594 166.4427490234375 L 384.1044921875 167.3590545654297 L 368.79974365234375 168.20962524414062 L 352.920166015625 168.98989868164062 L 336.4286193847656 169.6953582763672 L 319.2880554199219 170.32147216796875 L 301.4613952636719 170.8636932373047 L 282.9114990234375 171.3175048828125 L 263.601318359375 171.67835998535156 L 243.4937744140625 171.9417266845703 L 222.5517578125 172.1030731201172 L 200.73818969726562 172.15785217285156 Z" fill-opacity="0.6" clip-path="url(#JshhKhFJoieX)" stroke-opacity="1" stroke-linejoin="bevel" stroke-miterlimit="10" stroke-width="0.8" stroke-dasharray=""/><path fill="rgb(214,39,40)" stroke="rgb(214,39,40)" paint-order="fill" d="M 200.73818969726562 164.5520477294922 L 200.73818969726562 172.15785217285156 L 200.73818969726562 172.15785217285156 L 222.5517578125 172.0978546142578 L 243.4937744140625 171.92115783691406 L 263.601318359375 171.6327362060547 L 282.9114990234375 171.237548828125 L 301.4613952636719 170.74057006835938 L 319.2880554199219 170.14675903320312 L 336.4286193847656 169.46109008789062 L 352.920166015625 168.6885223388672 L 368.79974365234375 167.83401489257812 L 384.1044921875 166.9025421142578 L 398.8714294433594 165.89906311035156 L 413.1377258300781 164.82855224609375 L 426.9404296875 163.6959686279297 L 440.3166198730469 162.5062713623047 L 453.3033752441406 161.2644500732422 L 465.9378356933594 159.97544860839844 L 478.25701904296875 158.6442413330078 L 490.2980651855469 157.27578735351562 L 502.0980529785156 155.8750457763672 L 513.6940307617188 154.44700622558594 L 525.1231079101562 152.9966278076172 L 536.4224243164062 151.5288543701172 L 547.6290283203125 150.04867553710938 L 558.7799682617188 148.56105041503906 L 569.912353515625 147.07093811035156 L 581.0632934570312 145.58331298828125 L 592.2698974609375 144.10313415527344 L 603.5691528320312 142.63536071777344 L 614.998291015625 141.1849822998047 L 626.59423828125 139.75694274902344 L 638.3942260742188 138.35621643066406 L 650.435302734375 136.98776245117188 L 662.7544555664062 135.65655517578125 L 675.388916015625 134.3675537109375 L 688.3756713867188 133.12571716308594 L 701.7518920898438 131.93603515625 L 715.5545654296875 130.80345153808594 L 729.8208618164062 129.73294067382812 L 744.5878295898438 128.72946166992188 L 759.892578125 127.79798126220703 L 775.7721557617188 126.94347381591797 L 792.263671875 126.17090606689453 L 809.4042358398438 125.4852294921875 L 827.2308959960938 124.89141845703125 L 845.7808227539062 124.39443969726562 L 865.0910034179688 123.99925231933594 L 885.1985473632812 123.71083068847656 L 906.1405639648438 123.53414154052734 L 927.9541015625 123.47413635253906 L 927.9541015625 123.47413635253906 L 927.9541015625 115.86833190917969 L 927.9541015625 115.86833190917969 L 906.1405639648438 115.92832946777344 L 885.1985473632812 116.10502624511719 L 865.0910034179688 116.39344787597656 L 845.7808227539062 116.78863525390625 L 827.2308959960938 117.28561401367188 L 809.4042358398438 117.8794174194336 L 792.263671875 118.56509399414062 L 775.7721557617188 119.3376693725586 L 759.892578125 120.19217681884766 L 744.5878295898438 121.12364959716797 L 729.8208618164062 122.12712860107422 L 715.5545654296875 123.19763946533203 L 701.7518920898438 124.3302230834961 L 688.3756713867188 125.51991271972656 L 675.388916015625 126.7617416381836 L 662.7544555664062 128.05074310302734 L 650.435302734375 129.3819580078125 L 638.3942260742188 130.7504119873047 L 626.59423828125 132.15113830566406 L 614.998291015625 133.5791778564453 L 603.5691528320312 135.02955627441406 L 592.2698974609375 136.49732971191406 L 581.0632934570312 137.97750854492188 L 569.912353515625 139.4651336669922 L 558.7799682617188 140.9552459716797 L 547.6290283203125 142.44287109375 L 536.4224243164062 143.9230499267578 L 525.1231079101562 145.3908233642578 L 513.6940307617188 146.84120178222656 L 502.0980529785156 148.2692413330078 L 490.2980651855469 149.6699676513672 L 478.25701904296875 151.03842163085938 L 465.9378356933594 152.36964416503906 L 453.3033752441406 153.6586456298828 L 440.3166198730469 154.9004669189453 L 426.9404296875 156.09014892578125 L 413.1377258300781 157.2227325439453 L 398.8714294433594 158.2932586669922 L 384.1044921875 159.29672241210938 L 368.79974365234375 160.22821044921875 L 352.920166015625 161.0827178955078 L 336.4286193847656 161.85528564453125 L 319.2880554199219 162.54095458984375 L 301.4613952636719 163.134765625 L 282.9114990234375 163.63174438476562 L 263.601318359375 164.0269317626953 L 243.4937744140625 164.3153533935547 L 222.5517578125 164.49205017089844 L 200.73818969726562 164.5520477294922 Z" fill-opacity="0.6" clip-path="url(#JshhKhFJoieX)" stroke-opacity="1" stroke-linejoin="bevel" stroke-miterlimit="10" stroke-width="0.8" stroke-dasharray=""/><path fill="rgb(255,152,150)" stroke="rgb(255,152,150)" paint-order="fill" d="M 200.73818969726562 156.9462432861328 L 200.73818969726562 164.5520477294922 L 200.73818969726562 164.5520477294922 L 222.5517578125 164.48683166503906 L 243.4937744140625 164.2947998046875 L 263.601318359375 163.9813232421875 L 282.9114990234375 163.5518035888672 L 301.4613952636719 163.01165771484375 L 319.2880554199219 162.3662567138672 L 336.4286193847656 161.6210174560547 L 352.920166015625 160.78134155273438 L 368.79974365234375 159.85260009765625 L 384.1044921875 158.8402099609375 L 398.8714294433594 157.7495574951172 L 413.1377258300781 156.5860595703125 L 426.9404296875 155.35508728027344 L 440.3166198730469 154.06204223632812 L 453.3033752441406 152.71234130859375 L 465.9378356933594 151.31137084960938 L 478.25701904296875 149.86451721191406 L 490.2980651855469 148.37718200683594 L 502.0980529785156 146.8547821044922 L 513.6940307617188 145.3026885986328 L 525.1231079101562 143.72630310058594 L 536.4224243164062 142.13104248046875 L 547.6290283203125 140.52227783203125 L 558.7799682617188 138.90542602539062 L 569.912353515625 137.28587341308594 L 581.0632934570312 135.66900634765625 L 592.2698974609375 134.0602569580078 L 603.5691528320312 132.46498107910156 L 614.998291015625 130.8885955810547 L 626.59423828125 129.33651733398438 L 638.3942260742188 127.81410217285156 L 650.435302734375 126.32677459716797 L 662.7544555664062 124.87992095947266 L 675.388916015625 123.47894287109375 L 688.3756713867188 122.12924194335938 L 701.7518920898438 120.8362045288086 L 715.5545654296875 119.60523986816406 L 729.8208618164062 118.44172668457031 L 744.5878295898438 117.35108184814453 L 759.892578125 116.33869171142578 L 775.7721557617188 115.40995788574219 L 792.263671875 114.57026672363281 L 809.4042358398438 113.82502746582031 L 827.2308959960938 113.17963409423828 L 845.7808227539062 112.63948822021484 L 865.0910034179688 112.20997619628906 L 885.1985473632812 111.89649963378906 L 906.1405639648438 111.70445251464844 L 927.9541015625 111.63923645019531 L 927.9541015625 111.63923645019531 L 927.9541015625 104.03343200683594 L 927.9541015625 104.03343200683594 L 906.1405639648438 104.09864807128906 L 885.1985473632812 104.29068756103516 L 865.0910034179688 104.60416412353516 L 845.7808227539062 105.03367614746094 L 827.2308959960938 105.5738296508789 L 809.4042358398438 106.21922302246094 L 792.263671875 106.96446228027344 L 775.7721557617188 107.80414581298828 L 759.892578125 108.7328872680664 L 744.5878295898438 109.74527740478516 L 729.8208618164062 110.83592224121094 L 715.5545654296875 111.99942779541016 L 701.7518920898438 113.23040008544922 L 688.3756713867188 114.5234375 L 675.388916015625 115.87313842773438 L 662.7544555664062 117.27411651611328 L 650.435302734375 118.72096252441406 L 638.3942260742188 120.20829772949219 L 626.59423828125 121.73070526123047 L 614.998291015625 123.28279876708984 L 603.5691528320312 124.85917663574219 L 592.2698974609375 126.4544448852539 L 581.0632934570312 128.06320190429688 L 569.912353515625 129.6800537109375 L 558.7799682617188 131.29962158203125 L 547.6290283203125 132.91647338867188 L 536.4224243164062 134.52523803710938 L 525.1231079101562 136.12049865722656 L 513.6940307617188 137.69688415527344 L 502.0980529785156 139.2489776611328 L 490.2980651855469 140.77137756347656 L 478.25701904296875 142.2587127685547 L 465.9378356933594 143.70556640625 L 453.3033752441406 145.10653686523438 L 440.3166198730469 146.45623779296875 L 426.9404296875 147.74928283691406 L 413.1377258300781 148.98023986816406 L 398.8714294433594 150.1437530517578 L 384.1044921875 151.23440551757812 L 368.79974365234375 152.24679565429688 L 352.920166015625 153.17552185058594 L 336.4286193847656 154.0152130126953 L 319.2880554199219 154.7604522705078 L 301.4613952636719 155.4058380126953 L 282.9114990234375 155.9459991455078 L 263.601318359375 156.37550354003906 L 243.4937744140625 156.68898010253906 L 222.5517578125 156.8810272216797 L 200.73818969726562 156.9462432861328 Z" fill-opacity="0.6" clip-path="url(#JshhKhFJoieX)" stroke-opacity="1" stroke-linejoin="bevel" stroke-miterlimit="10" stroke-width="0.8" stroke-dasharray=""/><path fill="rgb(148,103,189)" stroke="rgb(148,103,189)" paint-order="fill" d="M 200.73818969726562 217.79269409179688 L 200.73818969726562 233.0043182373047 L 200.73818969726562 233.0043182373047 L 222.5517578125 232.9755859375 L 243.4937744140625 232.8909912109375 L 263.601318359375 232.75289916992188 L 282.9114990234375 232.56369018554688 L 301.4613952636719 232.3257293701172 L 319.2880554199219 232.0414276123047 L 336.4286193847656 231.713134765625 L 352.920166015625 231.34323120117188 L 368.79974365234375 230.93411254882812 L 384.1044921875 230.48812866210938 L 398.8714294433594 230.00767517089844 L 413.1377258300781 229.49513244628906 L 426.9404296875 228.95286560058594 L 440.3166198730469 228.3832550048828 L 453.3033752441406 227.78868103027344 L 465.9378356933594 227.17152404785156 L 478.25701904296875 226.53414916992188 L 490.2980651855469 225.8789520263672 L 502.0980529785156 225.2082977294922 L 513.6940307617188 224.5245819091797 L 525.1231079101562 223.8301544189453 L 536.4224243164062 223.1273956298828 L 547.6290283203125 222.418701171875 L 558.7799682617188 221.70645141601562 L 569.912353515625 220.9929962158203 L 581.0632934570312 220.28074645996094 L 592.2698974609375 219.57205200195312 L 603.5691528320312 218.8693084716797 L 614.998291015625 218.1748809814453 L 626.59423828125 217.49114990234375 L 638.3942260742188 216.82049560546875 L 650.435302734375 216.16529846191406 L 662.7544555664062 215.52792358398438 L 675.388916015625 214.9107666015625 L 688.3756713867188 214.31619262695312 L 701.7518920898438 213.74659729003906 L 715.5545654296875 213.20431518554688 L 729.8208618164062 212.6917724609375 L 744.5878295898438 212.21131896972656 L 759.892578125 211.7653350830078 L 775.7721557617188 211.35621643066406 L 792.263671875 210.98631286621094 L 809.4042358398438 210.65802001953125 L 827.2308959960938 210.37371826171875 L 845.7808227539062 210.13577270507812 L 865.0910034179688 209.94656372070312 L 885.1985473632812 209.8084716796875 L 906.1405639648438 209.72386169433594 L 927.9541015625 209.6951446533203 L 927.9541015625 209.6951446533203 L 927.9541015625 194.4835205078125 L 927.9541015625 194.4835205078125 L 906.1405639648438 194.5122528076172 L 885.1985473632812 194.5968475341797 L 865.0910034179688 194.7349395751953 L 845.7808227539062 194.9241485595703 L 827.2308959960938 195.16209411621094 L 809.4042358398438 195.4464111328125 L 792.263671875 195.7747039794922 L 775.7721557617188 196.1446075439453 L 759.892578125 196.55372619628906 L 744.5878295898438 196.9997100830078 L 729.8208618164062 197.48016357421875 L 715.5545654296875 197.99270629882812 L 701.7518920898438 198.53497314453125 L 688.3756713867188 199.10458374023438 L 675.388916015625 199.69915771484375 L 662.7544555664062 200.31631469726562 L 650.435302734375 200.9536895751953 L 638.3942260742188 201.60888671875 L 626.59423828125 202.27952575683594 L 614.998291015625 202.9632568359375 L 603.5691528320312 203.65768432617188 L 592.2698974609375 204.36044311523438 L 581.0632934570312 205.06912231445312 L 569.912353515625 205.78138732910156 L 558.7799682617188 206.49484252929688 L 547.6290283203125 207.20709228515625 L 536.4224243164062 207.91578674316406 L 525.1231079101562 208.6185302734375 L 513.6940307617188 209.31295776367188 L 502.0980529785156 209.99668884277344 L 490.2980651855469 210.66734313964844 L 478.25701904296875 211.32254028320312 L 465.9378356933594 211.95989990234375 L 453.3033752441406 212.5770721435547 L 440.3166198730469 213.171630859375 L 426.9404296875 213.74124145507812 L 413.1377258300781 214.28350830078125 L 398.8714294433594 214.7960662841797 L 384.1044921875 215.27651977539062 L 368.79974365234375 215.7224884033203 L 352.920166015625 216.13162231445312 L 336.4286193847656 216.50152587890625 L 319.2880554199219 216.82981872558594 L 301.4613952636719 217.11412048339844 L 282.9114990234375 217.35206604003906 L 263.601318359375 217.54127502441406 L 243.4937744140625 217.6793670654297 L 222.5517578125 217.76397705078125 L 200.73818969726562 217.79269409179688 Z" fill-opacity="0.6" clip-path="url(#JshhKhFJoieX)" stroke-opacity="1" stroke-linejoin="bevel" stroke-miterlimit="10" stroke-width="0.8" stroke-dasharray=""/><path fill="rgb(197,176,213)" stroke="rgb(197,176,213)" paint-order="fill" d="M 200.73818969726562 149.34043884277344 L 200.73818969726562 156.9462432861328 L 200.73818969726562 156.9462432861328 L 222.5517578125 156.87582397460938 L 243.4937744140625 156.66842651367188 L 263.601318359375 156.32989501953125 L 282.9114990234375 155.86605834960938 L 301.4613952636719 155.28273010253906 L 319.2880554199219 154.58575439453125 L 336.4286193847656 153.78094482421875 L 352.920166015625 152.8741455078125 L 368.79974365234375 151.87118530273438 L 384.1044921875 150.7778778076172 L 398.8714294433594 149.6000518798828 L 413.1377258300781 148.3435516357422 L 426.9404296875 147.0142059326172 L 440.3166198730469 145.61781311035156 L 453.3033752441406 144.1602325439453 L 465.9378356933594 142.6472930908203 L 478.25701904296875 141.0847930908203 L 490.2980651855469 139.4785919189453 L 502.0980529785156 137.83450317382812 L 513.6940307617188 136.15835571289062 L 525.1231079101562 134.45599365234375 L 536.4224243164062 132.73321533203125 L 547.6290283203125 130.99588012695312 L 558.7799682617188 129.24978637695312 L 569.912353515625 127.50079345703125 L 581.0632934570312 125.75470733642578 L 592.2698974609375 124.01736450195312 L 603.5691528320312 122.29459381103516 L 614.998291015625 120.59222412109375 L 626.59423828125 118.91607666015625 L 638.3942260742188 117.27198791503906 L 650.435302734375 115.66578674316406 L 662.7544555664062 114.1032943725586 L 675.388916015625 112.59034729003906 L 688.3756713867188 111.13276672363281 L 701.7518920898438 109.73638153076172 L 715.5545654296875 108.40702819824219 L 729.8208618164062 107.15052795410156 L 744.5878295898438 105.97270965576172 L 759.892578125 104.87940216064453 L 775.7721557617188 103.87643432617188 L 792.263671875 102.96963500976562 L 809.4042358398438 102.16483306884766 L 827.2308959960938 101.46785736083984 L 845.7808227539062 100.88453674316406 L 865.0910034179688 100.42069244384766 L 885.1985473632812 100.08216094970703 L 906.1405639648438 99.87477111816406 L 927.9541015625 99.8043441772461 L 927.9541015625 99.8043441772461 L 927.9541015625 92.19853210449219 L 927.9541015625 92.19853210449219 L 906.1405639648438 92.26895904541016 L 885.1985473632812 92.47635650634766 L 865.0910034179688 92.81488800048828 L 845.7808227539062 93.27872467041016 L 827.2308959960938 93.86205291748047 L 809.4042358398438 94.55902862548828 L 792.263671875 95.36383056640625 L 775.7721557617188 96.2706298828125 L 759.892578125 97.27359771728516 L 744.5878295898438 98.36689758300781 L 729.8208618164062 99.54471588134766 L 715.5545654296875 100.80122375488281 L 701.7518920898438 102.13057708740234 L 688.3756713867188 103.5269546508789 L 675.388916015625 104.98453521728516 L 662.7544555664062 106.49748992919922 L 650.435302734375 108.05998229980469 L 638.3942260742188 109.66618347167969 L 626.59423828125 111.31027221679688 L 614.998291015625 112.98641204833984 L 603.5691528320312 114.68878936767578 L 592.2698974609375 116.41156005859375 L 581.0632934570312 118.1489028930664 L 569.912353515625 119.89498901367188 L 558.7799682617188 121.64398193359375 L 547.6290283203125 123.39006805419922 L 536.4224243164062 125.12741088867188 L 525.1231079101562 126.85018157958984 L 513.6940307617188 128.55255126953125 L 502.0980529785156 130.22869873046875 L 490.2980651855469 131.87278747558594 L 478.25701904296875 133.47898864746094 L 465.9378356933594 135.04148864746094 L 453.3033752441406 136.55442810058594 L 440.3166198730469 138.0120086669922 L 426.9404296875 139.4084014892578 L 413.1377258300781 140.7377471923828 L 398.8714294433594 141.99424743652344 L 384.1044921875 143.1720733642578 L 368.79974365234375 144.265380859375 L 352.920166015625 145.26834106445312 L 336.4286193847656 146.17514038085938 L 319.2880554199219 146.97994995117188 L 301.4613952636719 147.6769256591797 L 282.9114990234375 148.26023864746094 L 263.601318359375 148.72409057617188 L 243.4937744140625 149.0626220703125 L 222.5517578125 149.27000427246094 L 200.73818969726562 149.34043884277344 Z" fill-opacity="0.6" clip-path="url(#JshhKhFJoieX)" stroke-opacity="1" stroke-linejoin="bevel" stroke-miterlimit="10" stroke-width="0.8" stroke-dasharray=""/><path fill="rgb(140,86,75)" stroke="rgb(140,86,75)" paint-order="fill" d="M 200.73818969726562 202.58108520507812 L 200.73818969726562 217.79269409179688 L 200.73818969726562 217.79269409179688 L 222.5517578125 217.75875854492188 L 243.4937744140625 217.6588134765625 L 263.601318359375 217.49566650390625 L 282.9114990234375 217.27212524414062 L 301.4613952636719 216.99099731445312 L 319.2880554199219 216.6551055908203 L 336.4286193847656 216.2672576904297 L 352.920166015625 215.8302459716797 L 368.79974365234375 215.34689331054688 L 384.1044921875 214.8199920654297 L 398.8714294433594 214.2523651123047 L 413.1377258300781 213.64682006835938 L 426.9404296875 213.0061798095703 L 440.3166198730469 212.33322143554688 L 453.3033752441406 211.63076782226562 L 465.9378356933594 210.90164184570312 L 478.25701904296875 210.1486358642578 L 490.2980651855469 209.3745574951172 L 502.0980529785156 208.5822296142578 L 513.6940307617188 207.77444458007812 L 525.1231079101562 206.9540252685547 L 536.4224243164062 206.12376403808594 L 547.6290283203125 205.2864990234375 L 558.7799682617188 204.44500732421875 L 569.912353515625 203.6021270751953 L 581.0632934570312 202.76063537597656 L 592.2698974609375 201.92335510253906 L 603.5691528320312 201.09310913085938 L 614.998291015625 200.27268981933594 L 626.59423828125 199.46490478515625 L 638.3942260742188 198.67257690429688 L 650.435302734375 197.89849853515625 L 662.7544555664062 197.14549255371094 L 675.388916015625 196.41636657714844 L 688.3756713867188 195.7139129638672 L 701.7518920898438 195.04095458984375 L 715.5545654296875 194.40029907226562 L 729.8208618164062 193.79476928710938 L 744.5878295898438 193.22714233398438 L 759.892578125 192.7002410888672 L 775.7721557617188 192.21688842773438 L 792.263671875 191.77987670898438 L 809.4042358398438 191.3920135498047 L 827.2308959960938 191.05612182617188 L 845.7808227539062 190.77500915527344 L 865.0910034179688 190.5514678955078 L 885.1985473632812 190.38832092285156 L 906.1405639648438 190.2883758544922 L 927.9541015625 190.2544403076172 L 927.9541015625 190.2544403076172 L 927.9541015625 175.04281616210938 L 927.9541015625 175.04281616210938 L 906.1405639648438 175.07675170898438 L 885.1985473632812 175.1767120361328 L 865.0910034179688 175.33985900878906 L 845.7808227539062 175.5634002685547 L 827.2308959960938 175.84451293945312 L 809.4042358398438 176.18040466308594 L 792.263671875 176.56826782226562 L 775.7721557617188 177.00527954101562 L 759.892578125 177.48863220214844 L 744.5878295898438 178.01551818847656 L 729.8208618164062 178.58314514160156 L 715.5545654296875 179.18869018554688 L 701.7518920898438 179.829345703125 L 688.3756713867188 180.50230407714844 L 675.388916015625 181.20474243164062 L 662.7544555664062 181.9338836669922 L 650.435302734375 182.6868896484375 L 638.3942260742188 183.46096801757812 L 626.59423828125 184.2532958984375 L 614.998291015625 185.0610809326172 L 603.5691528320312 185.88150024414062 L 592.2698974609375 186.7117462158203 L 581.0632934570312 187.5490264892578 L 569.912353515625 188.3905029296875 L 558.7799682617188 189.2333984375 L 547.6290283203125 190.07489013671875 L 536.4224243164062 190.9121551513672 L 525.1231079101562 191.74241638183594 L 513.6940307617188 192.56283569335938 L 502.0980529785156 193.37060546875 L 490.2980651855469 194.16294860839844 L 478.25701904296875 194.93701171875 L 465.9378356933594 195.6900177001953 L 453.3033752441406 196.41915893554688 L 440.3166198730469 197.12159729003906 L 426.9404296875 197.7945556640625 L 413.1377258300781 198.43521118164062 L 398.8714294433594 199.04075622558594 L 384.1044921875 199.60838317871094 L 368.79974365234375 200.13526916503906 L 352.920166015625 200.61863708496094 L 336.4286193847656 201.05564880371094 L 319.2880554199219 201.44349670410156 L 301.4613952636719 201.77938842773438 L 282.9114990234375 202.06051635742188 L 263.601318359375 202.28404235839844 L 243.4937744140625 202.4471893310547 L 222.5517578125 202.54714965820312 L 200.73818969726562 202.58108520507812 Z" fill-opacity="0.6" clip-path="url(#JshhKhFJoieX)" stroke-opacity="1" stroke-linejoin="bevel" stroke-miterlimit="10" stroke-width="0.8" stroke-dasharray=""/><path fill="rgb(196,156,148)" stroke="rgb(196,156,148)" paint-order="fill" d="M 200.73818969726562 255.8217315673828 L 200.73818969726562 309.0623779296875 L 200.73818969726562 309.0623779296875 L 222.5517578125 309.0440673828125 L 243.4937744140625 308.99017333984375 L 263.601318359375 308.9021911621094 L 282.9114990234375 308.7816467285156 L 301.4613952636719 308.6300354003906 L 319.2880554199219 308.4488830566406 L 336.4286193847656 308.23974609375 L 352.920166015625 308.0040588378906 L 368.79974365234375 307.7433776855469 L 384.1044921875 307.459228515625 L 398.8714294433594 307.15313720703125 L 413.1377258300781 306.8265686035156 L 426.9404296875 306.4810791015625 L 440.3166198730469 306.1181640625 L 453.3033752441406 305.7393493652344 L 465.9378356933594 305.34613037109375 L 478.25701904296875 304.9400329589844 L 490.2980651855469 304.5225830078125 L 502.0980529785156 304.0953063964844 L 513.6940307617188 303.65966796875 L 525.1231079101562 303.21722412109375 L 536.4224243164062 302.7695007324219 L 547.6290283203125 302.3179626464844 L 558.7799682617188 301.8641662597656 L 569.912353515625 301.40960693359375 L 581.0632934570312 300.955810546875 L 592.2698974609375 300.5042724609375 L 603.5691528320312 300.0565185546875 L 614.998291015625 299.6141052246094 L 626.59423828125 299.178466796875 L 638.3942260742188 298.75115966796875 L 650.435302734375 298.333740234375 L 662.7544555664062 297.9276428222656 L 675.388916015625 297.534423828125 L 688.3756713867188 297.1556091308594 L 701.7518920898438 296.7926940917969 L 715.5545654296875 296.44720458984375 L 729.8208618164062 296.1206359863281 L 744.5878295898438 295.81451416015625 L 759.892578125 295.5303649902344 L 775.7721557617188 295.26971435546875 L 792.263671875 295.0340270996094 L 809.4042358398438 294.8248596191406 L 827.2308959960938 294.64373779296875 L 845.7808227539062 294.49212646484375 L 865.0910034179688 294.37158203125 L 885.1985473632812 294.2835998535156 L 906.1405639648438 294.2297058105469 L 927.9541015625 294.2113952636719 L 927.9541015625 294.2113952636719 L 927.9541015625 240.97073364257812 L 927.9541015625 240.97073364257812 L 906.1405639648438 240.98904418945312 L 885.1985473632812 241.04293823242188 L 865.0910034179688 241.13092041015625 L 845.7808227539062 241.25148010253906 L 827.2308959960938 241.403076171875 L 809.4042358398438 241.584228515625 L 792.263671875 241.79339599609375 L 775.7721557617188 242.02906799316406 L 759.892578125 242.28973388671875 L 744.5878295898438 242.57388305664062 L 729.8208618164062 242.87998962402344 L 715.5545654296875 243.20654296875 L 701.7518920898438 243.5520477294922 L 688.3756713867188 243.9149627685547 L 675.388916015625 244.2937774658203 L 662.7544555664062 244.68699645996094 L 650.435302734375 245.09307861328125 L 638.3942260742188 245.51052856445312 L 626.59423828125 245.9378204345703 L 614.998291015625 246.37344360351562 L 603.5691528320312 246.81588745117188 L 592.2698974609375 247.2636260986328 L 581.0632934570312 247.71514892578125 L 569.912353515625 248.16896057128906 L 558.7799682617188 248.62351989746094 L 547.6290283203125 249.0773162841797 L 536.4224243164062 249.5288543701172 L 525.1231079101562 249.97659301757812 L 513.6940307617188 250.41903686523438 L 502.0980529785156 250.8546600341797 L 490.2980651855469 251.28195190429688 L 478.25701904296875 251.69940185546875 L 465.9378356933594 252.10548400878906 L 453.3033752441406 252.49868774414062 L 440.3166198730469 252.8775177001953 L 426.9404296875 253.2404327392578 L 413.1377258300781 253.58592224121094 L 398.8714294433594 253.91249084472656 L 384.1044921875 254.21859741210938 L 368.79974365234375 254.50274658203125 L 352.920166015625 254.76341247558594 L 336.4286193847656 254.99908447265625 L 319.2880554199219 255.208251953125 L 301.4613952636719 255.38938903808594 L 282.9114990234375 255.54100036621094 L 263.601318359375 255.6615447998047 L 243.4937744140625 255.74952697753906 L 222.5517578125 255.80343627929688 L 200.73818969726562 255.8217315673828 Z" fill-opacity="0.6" clip-path="url(#JshhKhFJoieX)" stroke-opacity="1" stroke-linejoin="bevel" stroke-miterlimit="10" stroke-width="0.8" stroke-dasharray=""/><path fill="rgb(227,119,194)" stroke="rgb(227,119,194)" paint-order="fill" d="M 200.73818969726562 309.0623779296875 L 200.73818969726562 369.9088439941406 L 200.73818969726562 369.9088439941406 L 222.5517578125 369.895751953125 L 243.4937744140625 369.8572082519531 L 263.601318359375 369.7942810058594 L 282.9114990234375 369.7080383300781 L 301.4613952636719 369.599609375 L 319.2880554199219 369.4700622558594 L 336.4286193847656 369.3204650878906 L 352.920166015625 369.1518859863281 L 368.79974365234375 368.9654541015625 L 384.1044921875 368.76220703125 L 398.8714294433594 368.54327392578125 L 413.1377258300781 368.3097229003906 L 426.9404296875 368.0625915527344 L 440.3166198730469 367.80303955078125 L 453.3033752441406 367.5321044921875 L 465.9378356933594 367.2508544921875 L 478.25701904296875 366.9604187011719 L 490.2980651855469 366.6618347167969 L 502.0980529785156 366.3562316894531 L 513.6940307617188 366.0446472167969 L 525.1231079101562 365.72821044921875 L 536.4224243164062 365.407958984375 L 547.6290283203125 365.08502197265625 L 558.7799682617188 364.76043701171875 L 569.912353515625 364.4353332519531 L 581.0632934570312 364.1107482910156 L 592.2698974609375 363.7878112792969 L 603.5691528320312 363.4675598144531 L 614.998291015625 363.151123046875 L 626.59423828125 362.83953857421875 L 638.3942260742188 362.533935546875 L 650.435302734375 362.2353515625 L 662.7544555664062 361.9449157714844 L 675.388916015625 361.6636657714844 L 688.3756713867188 361.3927307128906 L 701.7518920898438 361.1331787109375 L 715.5545654296875 360.88604736328125 L 729.8208618164062 360.6524963378906 L 744.5878295898438 360.4335632324219 L 759.892578125 360.2303161621094 L 775.7721557617188 360.04388427734375 L 792.263671875 359.87530517578125 L 809.4042358398438 359.7257080078125 L 827.2308959960938 359.5961608886719 L 845.7808227539062 359.48773193359375 L 865.0910034179688 359.4015197753906 L 885.1985473632812 359.3385925292969 L 906.1405639648438 359.3000183105469 L 927.9541015625 359.28692626953125 L 927.9541015625 359.28692626953125 L 927.9541015625 298.44049072265625 L 927.9541015625 298.44049072265625 L 906.1405639648438 298.4535827636719 L 885.1985473632812 298.49212646484375 L 865.0910034179688 298.5550537109375 L 845.7808227539062 298.6412658691406 L 827.2308959960938 298.74969482421875 L 809.4042358398438 298.8792724609375 L 792.263671875 299.02886962890625 L 775.7721557617188 299.1974182128906 L 759.892578125 299.38385009765625 L 744.5878295898438 299.58709716796875 L 729.8208618164062 299.8060302734375 L 715.5545654296875 300.03961181640625 L 701.7518920898438 300.2867126464844 L 688.3756713867188 300.5462646484375 L 675.388916015625 300.8172302246094 L 662.7544555664062 301.09844970703125 L 650.435302734375 301.388916015625 L 638.3942260742188 301.6874694824219 L 626.59423828125 301.99310302734375 L 614.998291015625 302.3046569824219 L 603.5691528320312 302.6211242675781 L 592.2698974609375 302.94134521484375 L 581.0632934570312 303.2643127441406 L 569.912353515625 303.5888671875 L 558.7799682617188 303.91400146484375 L 547.6290283203125 304.2385559082031 L 536.4224243164062 304.5615234375 L 525.1231079101562 304.8817443847656 L 513.6940307617188 305.1982116699219 L 502.0980529785156 305.509765625 L 490.2980651855469 305.81536865234375 L 478.25701904296875 306.11395263671875 L 465.9378356933594 306.4043884277344 L 453.3033752441406 306.6856384277344 L 440.3166198730469 306.9565734863281 L 426.9404296875 307.2161560058594 L 413.1377258300781 307.4632568359375 L 398.8714294433594 307.69683837890625 L 384.1044921875 307.915771484375 L 368.79974365234375 308.1189880371094 L 352.920166015625 308.305419921875 L 336.4286193847656 308.4739990234375 L 319.2880554199219 308.62359619140625 L 301.4613952636719 308.7531433105469 L 282.9114990234375 308.8616027832031 L 263.601318359375 308.94781494140625 L 243.4937744140625 309.0107421875 L 222.5517578125 309.0492858886719 L 200.73818969726562 309.0623779296875 Z" fill-opacity="0.6" clip-path="url(#JshhKhFJoieX)" stroke-opacity="1" stroke-linejoin="bevel" stroke-miterlimit="10" stroke-width="0.8" stroke-dasharray=""/><path fill="rgb(247,182,210)" stroke="rgb(247,182,210)" paint-order="fill" d="M 200.73818969726562 438.3611145019531 L 200.73818969726562 506.8133544921875 L 200.73818969726562 506.8133544921875 L 222.5517578125 506.8106994628906 L 243.4937744140625 506.8028564453125 L 263.601318359375 506.7900085449219 L 282.9114990234375 506.7724609375 L 301.4613952636719 506.7503662109375 L 319.2880554199219 506.7239685058594 L 336.4286193847656 506.6935119628906 L 352.920166015625 506.6591796875 L 368.79974365234375 506.6211853027344 L 384.1044921875 506.5798034667969 L 398.8714294433594 506.5351867675781 L 413.1377258300781 506.48760986328125 L 426.9404296875 506.4372863769531 L 440.3166198730469 506.3843994140625 L 453.3033752441406 506.3292236328125 L 465.9378356933594 506.27191162109375 L 478.25701904296875 506.2127685546875 L 490.2980651855469 506.1519470214844 L 502.0980529785156 506.0896911621094 L 513.6940307617188 506.0262145996094 L 525.1231079101562 505.9617614746094 L 536.4224243164062 505.8965148925781 L 547.6290283203125 505.8307189941406 L 558.7799682617188 505.7646179199219 L 569.912353515625 505.6983947753906 L 581.0632934570312 505.63226318359375 L 592.2698974609375 505.5664978027344 L 603.5691528320312 505.5012512207031 L 614.998291015625 505.4367980957031 L 626.59423828125 505.3733215332031 L 638.3942260742188 505.3110656738281 L 650.435302734375 505.250244140625 L 662.7544555664062 505.1910705566406 L 675.388916015625 505.1337890625 L 688.3756713867188 505.07861328125 L 701.7518920898438 505.0257263183594 L 715.5545654296875 504.97540283203125 L 729.8208618164062 504.92779541015625 L 744.5878295898438 504.8832092285156 L 759.892578125 504.841796875 L 775.7721557617188 504.8038330078125 L 792.263671875 504.7695007324219 L 809.4042358398438 504.739013671875 L 827.2308959960938 504.7126159667969 L 845.7808227539062 504.6905517578125 L 865.0910034179688 504.6729736328125 L 885.1985473632812 504.66015625 L 906.1405639648438 504.6523132324219 L 927.9541015625 504.6496276855469 L 927.9541015625 504.6496276855469 L 927.9541015625 436.1973876953125 L 927.9541015625 436.1973876953125 L 906.1405639648438 436.2000427246094 L 885.1985473632812 436.2078857421875 L 865.0910034179688 436.220703125 L 845.7808227539062 436.23828125 L 827.2308959960938 436.2603759765625 L 809.4042358398438 436.2867736816406 L 792.263671875 436.3172302246094 L 775.7721557617188 436.3515625 L 759.892578125 436.3895568847656 L 744.5878295898438 436.4309387207031 L 729.8208618164062 436.4755554199219 L 715.5545654296875 436.52313232421875 L 701.7518920898438 436.5734558105469 L 688.3756713867188 436.6263427734375 L 675.388916015625 436.6815185546875 L 662.7544555664062 436.73883056640625 L 650.435302734375 436.7979736328125 L 638.3942260742188 436.8587951660156 L 626.59423828125 436.9210510253906 L 614.998291015625 436.9845275878906 L 603.5691528320312 437.0489807128906 L 592.2698974609375 437.1142272949219 L 581.0632934570312 437.1800231933594 L 569.912353515625 437.2461242675781 L 558.7799682617188 437.3123474121094 L 547.6290283203125 437.37847900390625 L 536.4224243164062 437.4442443847656 L 525.1231079101562 437.5094909667969 L 513.6940307617188 437.5739440917969 L 502.0980529785156 437.6374206542969 L 490.2980651855469 437.6996765136719 L 478.25701904296875 437.760498046875 L 465.9378356933594 437.8196716308594 L 453.3033752441406 437.876953125 L 440.3166198730469 437.93212890625 L 426.9404296875 437.9850158691406 L 413.1377258300781 438.03533935546875 L 398.8714294433594 438.0829162597656 L 384.1044921875 438.1275329589844 L 368.79974365234375 438.1689147949219 L 352.920166015625 438.2069091796875 L 336.4286193847656 438.2412414550781 L 319.2880554199219 438.271728515625 L 301.4613952636719 438.298095703125 L 282.9114990234375 438.3201904296875 L 263.601318359375 438.3377685546875 L 243.4937744140625 438.3505859375 L 222.5517578125 438.3584289550781 L 200.73818969726562 438.3611145019531 Z" fill-opacity="0.6" clip-path="url(#JshhKhFJoieX)" stroke-opacity="1" stroke-linejoin="bevel" stroke-miterlimit="10" stroke-width="0.8" stroke-dasharray=""/><path fill="rgb(127,127,127)" stroke="rgb(127,127,127)" paint-order="fill" d="M 200.73818969726562 369.9088439941406 L 200.73818969726562 438.3611145019531 L 200.73818969726562 438.3611145019531 L 222.5517578125 438.35321044921875 L 243.4937744140625 438.33001708984375 L 263.601318359375 438.2921447753906 L 282.9114990234375 438.2402648925781 L 301.4613952636719 438.17498779296875 L 319.2880554199219 438.0970153808594 L 336.4286193847656 438.0069885253906 L 352.920166015625 437.905517578125 L 368.79974365234375 437.7933349609375 L 384.1044921875 437.6710205078125 L 398.8714294433594 437.53924560546875 L 413.1377258300781 437.3986511230469 L 426.9404296875 437.24993896484375 L 440.3166198730469 437.0937194824219 L 453.3033752441406 436.9306640625 L 465.9378356933594 436.7613830566406 L 478.25701904296875 436.5865783691406 L 490.2980651855469 436.4068908691406 L 502.0980529785156 436.22296142578125 L 513.6940307617188 436.0354309082031 L 525.1231079101562 435.844970703125 L 536.4224243164062 435.6522521972656 L 547.6290283203125 435.4578857421875 L 558.7799682617188 435.2625427246094 L 569.912353515625 435.0668640136719 L 581.0632934570312 434.87152099609375 L 592.2698974609375 434.6771545410156 L 603.5691528320312 434.4844055175781 L 614.998291015625 434.2939453125 L 626.59423828125 434.1064453125 L 638.3942260742188 433.9224853515625 L 650.435302734375 433.7427978515625 L 662.7544555664062 433.5679931640625 L 675.388916015625 433.39874267578125 L 688.3756713867188 433.23565673828125 L 701.7518920898438 433.0794372558594 L 715.5545654296875 432.93072509765625 L 729.8208618164062 432.7901611328125 L 744.5878295898438 432.65838623046875 L 759.892578125 432.53607177734375 L 775.7721557617188 432.4238586425781 L 792.263671875 432.3224182128906 L 809.4042358398438 432.23236083984375 L 827.2308959960938 432.1543884277344 L 845.7808227539062 432.0891418457031 L 865.0910034179688 432.0372314453125 L 885.1985473632812 431.9993591308594 L 906.1405639648438 431.9761657714844 L 927.9541015625 431.9682922363281 L 927.9541015625 431.9682922363281 L 927.9541015625 363.5160217285156 L 927.9541015625 363.5160217285156 L 906.1405639648438 363.5238952636719 L 885.1985473632812 363.547119140625 L 865.0910034179688 363.5849914550781 L 845.7808227539062 363.6368713378906 L 827.2308959960938 363.7021179199219 L 809.4042358398438 363.7801208496094 L 792.263671875 363.8701477050781 L 775.7721557617188 363.9715881347656 L 759.892578125 364.08380126953125 L 744.5878295898438 364.20611572265625 L 729.8208618164062 364.337890625 L 715.5545654296875 364.47845458984375 L 701.7518920898438 364.627197265625 L 688.3756713867188 364.7834167480469 L 675.388916015625 364.94647216796875 L 662.7544555664062 365.11572265625 L 650.435302734375 365.29052734375 L 638.3942260742188 365.4702453613281 L 626.59423828125 365.6541748046875 L 614.998291015625 365.8417053222656 L 603.5691528320312 366.0321350097656 L 592.2698974609375 366.2248840332031 L 581.0632934570312 366.41925048828125 L 569.912353515625 366.6145935058594 L 558.7799682617188 366.8102722167969 L 547.6290283203125 367.005615234375 L 536.4224243164062 367.1999816894531 L 525.1231079101562 367.3927307128906 L 513.6940307617188 367.5831604003906 L 502.0980529785156 367.77069091796875 L 490.2980651855469 367.9546203613281 L 478.25701904296875 368.1343078613281 L 465.9378356933594 368.3091125488281 L 453.3033752441406 368.4783935546875 L 440.3166198730469 368.6414489746094 L 426.9404296875 368.79766845703125 L 413.1377258300781 368.9464111328125 L 398.8714294433594 369.08697509765625 L 384.1044921875 369.21875 L 368.79974365234375 369.341064453125 L 352.920166015625 369.4532775878906 L 336.4286193847656 369.5547180175781 L 319.2880554199219 369.6447448730469 L 301.4613952636719 369.72271728515625 L 282.9114990234375 369.7879943847656 L 263.601318359375 369.8398742675781 L 243.4937744140625 369.87774658203125 L 222.5517578125 369.9009704589844 L 200.73818969726562 369.9088439941406 Z" fill-opacity="0.6" clip-path="url(#JshhKhFJoieX)" stroke-opacity="1" stroke-linejoin="bevel" stroke-miterlimit="10" stroke-width="0.8" stroke-dasharray=""/><path fill="rgb(199,199,199)" stroke="rgb(199,199,199)" paint-order="fill" d="M 200.73818969726562 506.8133544921875 L 200.73818969726562 590.4772338867188 L 200.73818969726562 590.4772338867188 L 222.5517578125 590.4797973632812 L 243.4937744140625 590.4873046875 L 263.601318359375 590.49951171875 L 282.9114990234375 590.5162963867188 L 301.4613952636719 590.537353515625 L 319.2880554199219 590.5625610351562 L 336.4286193847656 590.5916748046875 L 352.920166015625 590.6244506835938 L 368.79974365234375 590.66064453125 L 384.1044921875 590.7001953125 L 398.8714294433594 590.7427368164062 L 413.1377258300781 590.7882080078125 L 426.9404296875 590.8362426757812 L 440.3166198730469 590.88671875 L 453.3033752441406 590.9393920898438 L 465.9378356933594 590.9940795898438 L 478.25701904296875 591.050537109375 L 490.2980651855469 591.1085815429688 L 502.0980529785156 591.1680297851562 L 513.6940307617188 591.2285766601562 L 525.1231079101562 591.2901611328125 L 536.4224243164062 591.3524169921875 L 547.6290283203125 591.4152221679688 L 558.7799682617188 591.4783325195312 L 569.912353515625 591.54150390625 L 581.0632934570312 591.6046142578125 L 592.2698974609375 591.6674194335938 L 603.5691528320312 591.729736328125 L 614.998291015625 591.791259765625 L 626.59423828125 591.851806640625 L 638.3942260742188 591.9112548828125 L 650.435302734375 591.9692993164062 L 662.7544555664062 592.0257568359375 L 675.388916015625 592.0804443359375 L 688.3756713867188 592.1331176757812 L 701.7518920898438 592.18359375 L 715.5545654296875 592.231689453125 L 729.8208618164062 592.277099609375 L 744.5878295898438 592.3196411132812 L 759.892578125 592.3591918945312 L 775.7721557617188 592.3954467773438 L 792.263671875 592.42822265625 L 809.4042358398438 592.457275390625 L 827.2308959960938 592.4824829101562 L 845.7808227539062 592.5035400390625 L 865.0910034179688 592.5203247070312 L 885.1985473632812 592.5325927734375 L 906.1405639648438 592.5400390625 L 927.9541015625 592.5426025390625 L 927.9541015625 592.5426025390625 L 927.9541015625 508.87872314453125 L 927.9541015625 508.87872314453125 L 906.1405639648438 508.8761901855469 L 885.1985473632812 508.8686828613281 L 865.0910034179688 508.8564453125 L 845.7808227539062 508.8396911621094 L 827.2308959960938 508.818603515625 L 809.4042358398438 508.7934265136719 L 792.263671875 508.7643127441406 L 775.7721557617188 508.7315368652344 L 759.892578125 508.6952819824219 L 744.5878295898438 508.6557922363281 L 729.8208618164062 508.61322021484375 L 715.5545654296875 508.5677795410156 L 701.7518920898438 508.5197448730469 L 688.3756713867188 508.4692687988281 L 675.388916015625 508.4165954589844 L 662.7544555664062 508.3619079589844 L 650.435302734375 508.305419921875 L 638.3942260742188 508.24737548828125 L 626.59423828125 508.1879577636719 L 614.998291015625 508.1273498535156 L 603.5691528320312 508.0658264160156 L 592.2698974609375 508.0035705566406 L 581.0632934570312 507.9407653808594 L 569.912353515625 507.8776550292969 L 558.7799682617188 507.814453125 L 547.6290283203125 507.7513122558594 L 536.4224243164062 507.68853759765625 L 525.1231079101562 507.6262512207031 L 513.6940307617188 507.5647277832031 L 502.0980529785156 507.504150390625 L 490.2980651855469 507.4447326660156 L 478.25701904296875 507.38665771484375 L 465.9378356933594 507.3302001953125 L 453.3033752441406 507.2755126953125 L 440.3166198730469 507.2228088378906 L 426.9404296875 507.17236328125 L 413.1377258300781 507.1242980957031 L 398.8714294433594 507.0788879394531 L 384.1044921875 507.03631591796875 L 368.79974365234375 506.9967956542969 L 352.920166015625 506.9605407714844 L 336.4286193847656 506.9277648925781 L 319.2880554199219 506.898681640625 L 301.4613952636719 506.87347412109375 L 282.9114990234375 506.8524169921875 L 263.601318359375 506.83563232421875 L 243.4937744140625 506.8233947753906 L 222.5517578125 506.81591796875 L 200.73818969726562 506.8133544921875 Z" fill-opacity="0.6" clip-path="url(#JshhKhFJoieX)" stroke-opacity="1" stroke-linejoin="bevel" stroke-miterlimit="10" stroke-width="0.8" stroke-dasharray=""/><path fill="rgb(188,189,34)" stroke="rgb(188,189,34)" paint-order="fill" d="M 200.73818969726562 590.4772338867188 L 200.73818969726562 742.5933837890625 L 200.73818969726562 742.5933837890625 L 222.5517578125 742.6011352539062 L 243.4937744140625 742.6239624023438 L 263.601318359375 742.6612548828125 L 282.9114990234375 742.7123413085938 L 301.4613952636719 742.776611328125 L 319.2880554199219 742.8533935546875 L 336.4286193847656 742.9420776367188 L 352.920166015625 743.0419311523438 L 368.79974365234375 743.1524047851562 L 384.1044921875 743.2728271484375 L 398.8714294433594 743.402587890625 L 413.1377258300781 743.541015625 L 426.9404296875 743.6874389648438 L 440.3166198730469 743.8412475585938 L 453.3033752441406 744.0018310546875 L 465.9378356933594 744.16845703125 L 478.25701904296875 744.340576171875 L 490.2980651855469 744.5175170898438 L 502.0980529785156 744.6986083984375 L 513.6940307617188 744.8832397460938 L 525.1231079101562 745.07080078125 L 536.4224243164062 745.2605590820312 L 547.6290283203125 745.4519653320312 L 558.7799682617188 745.644287109375 L 569.912353515625 745.8369140625 L 581.0632934570312 746.029296875 L 592.2698974609375 746.2206420898438 L 603.5691528320312 746.410400390625 L 614.998291015625 746.5979614257812 L 626.59423828125 746.7825927734375 L 638.3942260742188 746.9636840820312 L 650.435302734375 747.140625 L 662.7544555664062 747.312744140625 L 675.388916015625 747.4793701171875 L 688.3756713867188 747.6399536132812 L 701.7518920898438 747.7937622070312 L 715.5545654296875 747.940185546875 L 729.8208618164062 748.07861328125 L 744.5878295898438 748.2083740234375 L 759.892578125 748.3287963867188 L 775.7721557617188 748.4392700195312 L 792.263671875 748.5391845703125 L 809.4042358398438 748.6278076171875 L 827.2308959960938 748.70458984375 L 845.7808227539062 748.7688598632812 L 865.0910034179688 748.8199462890625 L 885.1985473632812 748.8572387695312 L 906.1405639648438 748.8800659179688 L 927.9541015625 748.8878173828125 L 927.9541015625 748.8878173828125 L 927.9541015625 596.771728515625 L 927.9541015625 596.771728515625 L 906.1405639648438 596.763916015625 L 885.1985473632812 596.7410888671875 L 865.0910034179688 596.7037963867188 L 845.7808227539062 596.6527099609375 L 827.2308959960938 596.5884399414062 L 809.4042358398438 596.5116577148438 L 792.263671875 596.4230346679688 L 775.7721557617188 596.3231201171875 L 759.892578125 596.212646484375 L 744.5878295898438 596.0922241210938 L 729.8208618164062 595.9624633789062 L 715.5545654296875 595.8240966796875 L 701.7518920898438 595.6776123046875 L 688.3756713867188 595.5238037109375 L 675.388916015625 595.36328125 L 662.7544555664062 595.1965942382812 L 650.435302734375 595.0244750976562 L 638.3942260742188 594.8475341796875 L 626.59423828125 594.6664428710938 L 614.998291015625 594.4818115234375 L 603.5691528320312 594.2943115234375 L 592.2698974609375 594.1044921875 L 581.0632934570312 593.9131469726562 L 569.912353515625 593.7208251953125 L 558.7799682617188 593.5281372070312 L 547.6290283203125 593.3358154296875 L 536.4224243164062 593.1444091796875 L 525.1231079101562 592.9546508789062 L 513.6940307617188 592.7671508789062 L 502.0980529785156 592.58251953125 L 490.2980651855469 592.4013671875 L 478.25701904296875 592.2244262695312 L 465.9378356933594 592.0523071289062 L 453.3033752441406 591.8856811523438 L 440.3166198730469 591.72509765625 L 426.9404296875 591.5712890625 L 413.1377258300781 591.4248657226562 L 398.8714294433594 591.2864379882812 L 384.1044921875 591.15673828125 L 368.79974365234375 591.0362548828125 L 352.920166015625 590.92578125 L 336.4286193847656 590.825927734375 L 319.2880554199219 590.7372436523438 L 301.4613952636719 590.6604614257812 L 282.9114990234375 590.5962524414062 L 263.601318359375 590.5451049804688 L 243.4937744140625 590.5078125 L 222.5517578125 590.4849853515625 L 200.73818969726562 590.4772338867188 Z" fill-opacity="0.6" clip-path="url(#JshhKhFJoieX)" stroke-opacity="1" stroke-linejoin="bevel" stroke-miterlimit="10" stroke-width="0.8" stroke-dasharray=""/><path fill="rgb(219,219,141)" stroke="rgb(219,219,141)" paint-order="fill" d="M 200.73818969726562 742.5933837890625 L 200.73818969726562 902.3153076171875 L 200.73818969726562 902.3153076171875 L 222.5517578125 902.3283081054688 L 243.4937744140625 902.366455078125 L 263.601318359375 902.4288330078125 L 282.9114990234375 902.5142822265625 L 301.4613952636719 902.6217041015625 L 319.2880554199219 902.7500610351562 L 336.4286193847656 902.8982543945312 L 352.920166015625 903.0652465820312 L 368.79974365234375 903.25 L 384.1044921875 903.4512939453125 L 398.8714294433594 903.668212890625 L 413.1377258300781 903.899658203125 L 426.9404296875 904.1444702148438 L 440.3166198730469 904.401611328125 L 453.3033752441406 904.6700439453125 L 465.9378356933594 904.9486694335938 L 478.25701904296875 905.2364501953125 L 490.2980651855469 905.5322265625 L 502.0980529785156 905.8350219726562 L 513.6940307617188 906.1437377929688 L 525.1231079101562 906.4572143554688 L 536.4224243164062 906.7745361328125 L 547.6290283203125 907.094482421875 L 558.7799682617188 907.416015625 L 569.912353515625 907.7381591796875 L 581.0632934570312 908.0596923828125 L 592.2698974609375 908.3796997070312 L 603.5691528320312 908.6969604492188 L 614.998291015625 909.0104370117188 L 626.59423828125 909.3191528320312 L 638.3942260742188 909.6219482421875 L 650.435302734375 909.917724609375 L 662.7544555664062 910.2055053710938 L 675.388916015625 910.484130859375 L 688.3756713867188 910.7525634765625 L 701.7518920898438 911.009765625 L 715.5545654296875 911.2545776367188 L 729.8208618164062 911.4859619140625 L 744.5878295898438 911.702880859375 L 759.892578125 911.9042358398438 L 775.7721557617188 912.0889282226562 L 792.263671875 912.2559204101562 L 809.4042358398438 912.4041748046875 L 827.2308959960938 912.5325317382812 L 845.7808227539062 912.6399536132812 L 865.0910034179688 912.725341796875 L 885.1985473632812 912.7877197265625 L 906.1405639648438 912.825927734375 L 927.9541015625 912.8388671875 L 927.9541015625 912.8388671875 L 927.9541015625 753.116943359375 L 927.9541015625 753.116943359375 L 906.1405639648438 753.1039428710938 L 885.1985473632812 753.0657348632812 L 865.0910034179688 753.00341796875 L 845.7808227539062 752.91796875 L 827.2308959960938 752.810546875 L 809.4042358398438 752.6821899414062 L 792.263671875 752.5339965820312 L 775.7721557617188 752.3670043945312 L 759.892578125 752.1822509765625 L 744.5878295898438 751.98095703125 L 729.8208618164062 751.7640380859375 L 715.5545654296875 751.5325927734375 L 701.7518920898438 751.2877807617188 L 688.3756713867188 751.0306396484375 L 675.388916015625 750.76220703125 L 662.7544555664062 750.4835815429688 L 650.435302734375 750.19580078125 L 638.3942260742188 749.8999633789062 L 626.59423828125 749.5972290039062 L 614.998291015625 749.2885131835938 L 603.5691528320312 748.9749755859375 L 592.2698974609375 748.65771484375 L 581.0632934570312 748.3377685546875 L 569.912353515625 748.0161743164062 L 558.7799682617188 747.694091796875 L 547.6290283203125 747.37255859375 L 536.4224243164062 747.0525512695312 L 525.1231079101562 746.7352905273438 L 513.6940307617188 746.4217529296875 L 502.0980529785156 746.1130981445312 L 490.2980651855469 745.810302734375 L 478.25701904296875 745.5145263671875 L 465.9378356933594 745.2267456054688 L 453.3033752441406 744.9481201171875 L 440.3166198730469 744.6796875 L 426.9404296875 744.4224853515625 L 413.1377258300781 744.1776733398438 L 398.8714294433594 743.9462890625 L 384.1044921875 743.7293701171875 L 368.79974365234375 743.5280151367188 L 352.920166015625 743.3433227539062 L 336.4286193847656 743.1763305664062 L 319.2880554199219 743.028076171875 L 301.4613952636719 742.8997192382812 L 282.9114990234375 742.7922973632812 L 263.601318359375 742.7069091796875 L 243.4937744140625 742.64453125 L 222.5517578125 742.6063232421875 L 200.73818969726562 742.5933837890625 Z" fill-opacity="0.6" clip-path="url(#JshhKhFJoieX)" stroke-opacity="1" stroke-linejoin="bevel" stroke-miterlimit="10" stroke-width="0.8" stroke-dasharray=""/><path fill="rgb(23,190,207)" stroke="rgb(23,190,207)" paint-order="fill" d="M 200.73818969726562 233.0043182373047 L 200.73818969726562 255.8217315673828 L 200.73818969726562 255.8217315673828 L 222.5517578125 255.7982177734375 L 243.4937744140625 255.72897338867188 L 263.601318359375 255.61593627929688 L 282.9114990234375 255.46104431152344 L 301.4613952636719 255.2662811279297 L 319.2880554199219 255.03355407714844 L 336.4286193847656 254.7648162841797 L 352.920166015625 254.4620361328125 L 368.79974365234375 254.12713623046875 L 384.1044921875 253.76206970214844 L 398.8714294433594 253.36878967285156 L 413.1377258300781 252.94923400878906 L 426.9404296875 252.50535583496094 L 440.3166198730469 252.03909301757812 L 453.3033752441406 251.55239868164062 L 465.9378356933594 251.04721069335938 L 478.25701904296875 250.52548217773438 L 490.2980651855469 249.98916625976562 L 502.0980529785156 249.440185546875 L 513.6940307617188 248.88050842285156 L 525.1231079101562 248.31207275390625 L 536.4224243164062 247.73683166503906 L 547.6290283203125 247.15672302246094 L 558.7799682617188 246.57369995117188 L 569.912353515625 245.98968505859375 L 581.0632934570312 245.4066619873047 L 592.2698974609375 244.82655334472656 L 603.5691528320312 244.2512969970703 L 614.998291015625 243.68287658691406 L 626.59423828125 243.12319946289062 L 638.3942260742188 242.57421875 L 650.435302734375 242.03790283203125 L 662.7544555664062 241.51617431640625 L 675.388916015625 241.010986328125 L 688.3756713867188 240.5242919921875 L 701.7518920898438 240.0580291748047 L 715.5545654296875 239.61415100097656 L 729.8208618164062 239.19459533691406 L 744.5878295898438 238.8013153076172 L 759.892578125 238.43624877929688 L 775.7721557617188 238.10134887695312 L 792.263671875 237.79856872558594 L 809.4042358398438 237.5298309326172 L 827.2308959960938 237.29710388183594 L 845.7808227539062 237.10232543945312 L 865.0910034179688 236.94744873046875 L 885.1985473632812 236.83441162109375 L 906.1405639648438 236.76516723632812 L 927.9541015625 236.7416534423828 L 927.9541015625 236.7416534423828 L 927.9541015625 213.92422485351562 L 927.9541015625 213.92422485351562 L 906.1405639648438 213.94773864746094 L 885.1985473632812 214.01699829101562 L 865.0910034179688 214.13003540039062 L 845.7808227539062 214.284912109375 L 827.2308959960938 214.4796905517578 L 809.4042358398438 214.71241760253906 L 792.263671875 214.98114013671875 L 775.7721557617188 215.283935546875 L 759.892578125 215.6188201904297 L 744.5878295898438 215.98388671875 L 729.8208618164062 216.37716674804688 L 715.5545654296875 216.79672241210938 L 701.7518920898438 217.2406005859375 L 688.3756713867188 217.7068634033203 L 675.388916015625 218.1935577392578 L 662.7544555664062 218.69874572753906 L 650.435302734375 219.22047424316406 L 638.3942260742188 219.75680541992188 L 626.59423828125 220.30577087402344 L 614.998291015625 220.86544799804688 L 603.5691528320312 221.4338836669922 L 592.2698974609375 222.00912475585938 L 581.0632934570312 222.5892333984375 L 569.912353515625 223.17227172851562 L 558.7799682617188 223.7562713623047 L 547.6290283203125 224.3393096923828 L 536.4224243164062 224.91941833496094 L 525.1231079101562 225.49465942382812 L 513.6940307617188 226.06309509277344 L 502.0980529785156 226.62277221679688 L 490.2980651855469 227.17173767089844 L 478.25701904296875 227.70806884765625 L 465.9378356933594 228.22979736328125 L 453.3033752441406 228.73497009277344 L 440.3166198730469 229.2216796875 L 426.9404296875 229.68792724609375 L 413.1377258300781 230.13182067871094 L 398.8714294433594 230.55137634277344 L 384.1044921875 230.9446563720703 L 368.79974365234375 231.30970764160156 L 352.920166015625 231.6446075439453 L 336.4286193847656 231.94740295410156 L 319.2880554199219 232.21612548828125 L 301.4613952636719 232.4488525390625 L 282.9114990234375 232.6436309814453 L 263.601318359375 232.7985076904297 L 243.4937744140625 232.9115447998047 L 222.5517578125 232.98080444335938 L 200.73818969726562 233.0043182373047 Z" fill-opacity="0.6" clip-path="url(#JshhKhFJoieX)" stroke-opacity="1" stroke-linejoin="bevel" stroke-miterlimit="10" stroke-width="0.8" stroke-dasharray=""/><path fill="rgb(158,218,229)" stroke="rgb(158,218,229)" paint-order="fill" d="M 200.73818969726562 141.73463439941406 L 200.73818969726562 149.34043884277344 L 200.73818969726562 149.34043884277344 L 222.5517578125 149.26480102539062 L 243.4937744140625 149.04205322265625 L 263.601318359375 148.678466796875 L 282.9114990234375 148.1802978515625 L 301.4613952636719 147.55380249023438 L 319.2880554199219 146.80523681640625 L 336.4286193847656 145.9408721923828 L 352.920166015625 144.9669647216797 L 368.79974365234375 143.8897705078125 L 384.1044921875 142.71554565429688 L 398.8714294433594 141.4505615234375 L 413.1377258300781 140.10105895996094 L 426.9404296875 138.67332458496094 L 440.3166198730469 137.17359924316406 L 453.3033752441406 135.60813903808594 L 465.9378356933594 133.98321533203125 L 478.25701904296875 132.30508422851562 L 490.2980651855469 130.5800018310547 L 502.0980529785156 128.81423950195312 L 513.6940307617188 127.0140380859375 L 525.1231079101562 125.1856689453125 L 536.4224243164062 123.33539581298828 L 547.6290283203125 121.46947479248047 L 558.7799682617188 119.59416198730469 L 569.912353515625 117.7157211303711 L 581.0632934570312 115.84040832519531 L 592.2698974609375 113.97447967529297 L 603.5691528320312 112.12420654296875 L 614.998291015625 110.29584503173828 L 626.59423828125 108.49564361572266 L 638.3942260742188 106.7298812866211 L 650.435302734375 105.00479888916016 L 662.7544555664062 103.32666778564453 L 675.388916015625 101.70174407958984 L 688.3756713867188 100.13628387451172 L 701.7518920898438 98.63655853271484 L 715.5545654296875 97.20881652832031 L 729.8208618164062 95.85932159423828 L 744.5878295898438 94.59432983398438 L 759.892578125 93.42011260986328 L 775.7721557617188 92.34291076660156 L 792.263671875 91.36900329589844 L 809.4042358398438 90.504638671875 L 827.2308959960938 89.7560806274414 L 845.7808227539062 89.12957763671875 L 865.0910034179688 88.63140869140625 L 885.1985473632812 88.267822265625 L 906.1405639648438 88.04508209228516 L 927.9541015625 87.96944427490234 L 927.9541015625 87.96944427490234 L 927.9541015625 80.36363983154297 L 927.9541015625 80.36363983154297 L 906.1405639648438 80.43927764892578 L 885.1985473632812 80.66201782226562 L 865.0910034179688 81.02560424804688 L 845.7808227539062 81.52377319335938 L 827.2308959960938 82.1502685546875 L 809.4042358398438 82.8988265991211 L 792.263671875 83.76319885253906 L 775.7721557617188 84.73710632324219 L 759.892578125 85.81430053710938 L 744.5878295898438 86.988525390625 L 729.8208618164062 88.2535171508789 L 715.5545654296875 89.60301208496094 L 701.7518920898438 91.03075408935547 L 688.3756713867188 92.53047943115234 L 675.388916015625 94.09593963623047 L 662.7544555664062 95.72086334228516 L 650.435302734375 97.39899444580078 L 638.3942260742188 99.12406921386719 L 626.59423828125 100.88983917236328 L 614.998291015625 102.69003295898438 L 603.5691528320312 104.51840209960938 L 592.2698974609375 106.3686752319336 L 581.0632934570312 108.2345962524414 L 569.912353515625 110.10990905761719 L 558.7799682617188 111.98835754394531 L 547.6290283203125 113.8636703491211 L 536.4224243164062 115.7295913696289 L 525.1231079101562 117.57986450195312 L 513.6940307617188 119.40823364257812 L 502.0980529785156 121.20842742919922 L 490.2980651855469 122.97419738769531 L 478.25701904296875 124.69927215576172 L 465.9378356933594 126.37740325927734 L 453.3033752441406 128.00232696533203 L 440.3166198730469 129.56777954101562 L 426.9404296875 131.06752014160156 L 413.1377258300781 132.49525451660156 L 398.8714294433594 133.84475708007812 L 384.1044921875 135.1097412109375 L 368.79974365234375 136.28396606445312 L 352.920166015625 137.3611602783203 L 336.4286193847656 138.33506774902344 L 319.2880554199219 139.19943237304688 L 301.4613952636719 139.947998046875 L 282.9114990234375 140.57449340820312 L 263.601318359375 141.07266235351562 L 243.4937744140625 141.43624877929688 L 222.5517578125 141.65899658203125 L 200.73818969726562 141.73463439941406 Z" fill-opacity="0.6" clip-path="url(#JshhKhFJoieX)" stroke-opacity="1" stroke-linejoin="bevel" stroke-miterlimit="10" stroke-width="0.8" stroke-dasharray=""/><path fill="rgb(31,119,180)" stroke="rgb(0,0,0)" paint-order="fill" d="M 189.49258422851562 141.73463439941406 L 200.73818969726562 141.73463439941406 L 200.73818969726562 1122.8836669921875 L 189.49258422851562 1122.8836669921875 L 189.49258422851562 141.73463439941406" fill-opacity="0.9019607843137255" clip-path="url(#nsVpCAacIFhH)" stroke-opacity="0.2" stroke-linejoin="bevel" stroke-miterlimit="10" stroke-width="0.5" stroke-dasharray=""/><path fill="rgb(174,199,232)" stroke="rgb(0,0,0)" paint-order="fill" d="M 927.9541015625 917.0679931640625 L 939.19970703125 917.0679931640625 L 939.19970703125 1137.6363525390625 L 927.9541015625 1137.6363525390625 L 927.9541015625 917.0679931640625" fill-opacity="0.9019607843137255" clip-path="url(#nsVpCAacIFhH)" stroke-opacity="0.2" stroke-linejoin="bevel" stroke-miterlimit="10" stroke-width="0.5" stroke-dasharray=""/><path fill="rgb(255,127,14)" stroke="rgb(0,0,0)" paint-order="fill" d="M 927.9541015625 163.20791625976562 L 939.19970703125 163.20791625976562 L 939.19970703125 170.813720703125 L 927.9541015625 170.813720703125 L 927.9541015625 163.20791625976562" fill-opacity="0.9019607843137255" clip-path="url(#nsVpCAacIFhH)" stroke-opacity="0.2" stroke-linejoin="bevel" stroke-miterlimit="10" stroke-width="0.5" stroke-dasharray=""/><path fill="rgb(255,187,120)" stroke="rgb(0,0,0)" paint-order="fill" d="M 927.9541015625 151.37301635742188 L 939.19970703125 151.37301635742188 L 939.19970703125 158.9788360595703 L 927.9541015625 158.9788360595703 L 927.9541015625 151.37301635742188" fill-opacity="0.9019607843137255" clip-path="url(#nsVpCAacIFhH)" stroke-opacity="0.2" stroke-linejoin="bevel" stroke-miterlimit="10" stroke-width="0.5" stroke-dasharray=""/><path fill="rgb(44,160,44)" stroke="rgb(0,0,0)" paint-order="fill" d="M 927.9541015625 139.5381317138672 L 939.19970703125 139.5381317138672 L 939.19970703125 147.14393615722656 L 927.9541015625 147.14393615722656 L 927.9541015625 139.5381317138672" fill-opacity="0.9019607843137255" clip-path="url(#nsVpCAacIFhH)" stroke-opacity="0.2" stroke-linejoin="bevel" stroke-miterlimit="10" stroke-width="0.5" stroke-dasharray=""/><path fill="rgb(152,223,138)" stroke="rgb(0,0,0)" paint-order="fill" d="M 927.9541015625 127.7032241821289 L 939.19970703125 127.7032241821289 L 939.19970703125 135.3090362548828 L 927.9541015625 135.3090362548828 L 927.9541015625 127.7032241821289" fill-opacity="0.9019607843137255" clip-path="url(#nsVpCAacIFhH)" stroke-opacity="0.2" stroke-linejoin="bevel" stroke-miterlimit="10" stroke-width="0.5" stroke-dasharray=""/><path fill="rgb(214,39,40)" stroke="rgb(0,0,0)" paint-order="fill" d="M 927.9541015625 115.86833190917969 L 939.19970703125 115.86833190917969 L 939.19970703125 123.47413635253906 L 927.9541015625 123.47413635253906 L 927.9541015625 115.86833190917969" fill-opacity="0.9019607843137255" clip-path="url(#nsVpCAacIFhH)" stroke-opacity="0.2" stroke-linejoin="bevel" stroke-miterlimit="10" stroke-width="0.5" stroke-dasharray=""/><path fill="rgb(255,152,150)" stroke="rgb(0,0,0)" paint-order="fill" d="M 927.9541015625 104.03343200683594 L 939.19970703125 104.03343200683594 L 939.19970703125 111.63923645019531 L 927.9541015625 111.63923645019531 L 927.9541015625 104.03343200683594" fill-opacity="0.9019607843137255" clip-path="url(#nsVpCAacIFhH)" stroke-opacity="0.2" stroke-linejoin="bevel" stroke-miterlimit="10" stroke-width="0.5" stroke-dasharray=""/><path fill="rgb(148,103,189)" stroke="rgb(0,0,0)" paint-order="fill" d="M 927.9541015625 194.4835205078125 L 939.19970703125 194.4835205078125 L 939.19970703125 209.6951446533203 L 927.9541015625 209.6951446533203 L 927.9541015625 194.4835205078125" fill-opacity="0.9019607843137255" clip-path="url(#nsVpCAacIFhH)" stroke-opacity="0.2" stroke-linejoin="bevel" stroke-miterlimit="10" stroke-width="0.5" stroke-dasharray=""/><path fill="rgb(197,176,213)" stroke="rgb(0,0,0)" paint-order="fill" d="M 927.9541015625 92.19853210449219 L 939.19970703125 92.19853210449219 L 939.19970703125 99.8043441772461 L 927.9541015625 99.8043441772461 L 927.9541015625 92.19853210449219" fill-opacity="0.9019607843137255" clip-path="url(#nsVpCAacIFhH)" stroke-opacity="0.2" stroke-linejoin="bevel" stroke-miterlimit="10" stroke-width="0.5" stroke-dasharray=""/><path fill="rgb(140,86,75)" stroke="rgb(0,0,0)" paint-order="fill" d="M 927.9541015625 175.04281616210938 L 939.19970703125 175.04281616210938 L 939.19970703125 190.2544403076172 L 927.9541015625 190.2544403076172 L 927.9541015625 175.04281616210938" fill-opacity="0.9019607843137255" clip-path="url(#nsVpCAacIFhH)" stroke-opacity="0.2" stroke-linejoin="bevel" stroke-miterlimit="10" stroke-width="0.5" stroke-dasharray=""/><path fill="rgb(196,156,148)" stroke="rgb(0,0,0)" paint-order="fill" d="M 927.9541015625 240.97073364257812 L 939.19970703125 240.97073364257812 L 939.19970703125 294.2113952636719 L 927.9541015625 294.2113952636719 L 927.9541015625 240.97073364257812" fill-opacity="0.9019607843137255" clip-path="url(#nsVpCAacIFhH)" stroke-opacity="0.2" stroke-linejoin="bevel" stroke-miterlimit="10" stroke-width="0.5" stroke-dasharray=""/><path fill="rgb(227,119,194)" stroke="rgb(0,0,0)" paint-order="fill" d="M 927.9541015625 298.44049072265625 L 939.19970703125 298.44049072265625 L 939.19970703125 359.28692626953125 L 927.9541015625 359.28692626953125 L 927.9541015625 298.44049072265625" fill-opacity="0.9019607843137255" clip-path="url(#nsVpCAacIFhH)" stroke-opacity="0.2" stroke-linejoin="bevel" stroke-miterlimit="10" stroke-width="0.5" stroke-dasharray=""/><path fill="rgb(247,182,210)" stroke="rgb(0,0,0)" paint-order="fill" d="M 927.9541015625 436.1973876953125 L 939.19970703125 436.1973876953125 L 939.19970703125 504.6496276855469 L 927.9541015625 504.6496276855469 L 927.9541015625 436.1973876953125" fill-opacity="0.9019607843137255" clip-path="url(#nsVpCAacIFhH)" stroke-opacity="0.2" stroke-linejoin="bevel" stroke-miterlimit="10" stroke-width="0.5" stroke-dasharray=""/><path fill="rgb(127,127,127)" stroke="rgb(0,0,0)" paint-order="fill" d="M 927.9541015625 363.5160217285156 L 939.19970703125 363.5160217285156 L 939.19970703125 431.9682922363281 L 927.9541015625 431.9682922363281 L 927.9541015625 363.5160217285156" fill-opacity="0.9019607843137255" clip-path="url(#nsVpCAacIFhH)" stroke-opacity="0.2" stroke-linejoin="bevel" stroke-miterlimit="10" stroke-width="0.5" stroke-dasharray=""/><path fill="rgb(199,199,199)" stroke="rgb(0,0,0)" paint-order="fill" d="M 927.9541015625 508.87872314453125 L 939.19970703125 508.87872314453125 L 939.19970703125 592.5426025390625 L 927.9541015625 592.5426025390625 L 927.9541015625 508.87872314453125" fill-opacity="0.9019607843137255" clip-path="url(#nsVpCAacIFhH)" stroke-opacity="0.2" stroke-linejoin="bevel" stroke-miterlimit="10" stroke-width="0.5" stroke-dasharray=""/><path fill="rgb(188,189,34)" stroke="rgb(0,0,0)" paint-order="fill" d="M 927.9541015625 596.771728515625 L 939.19970703125 596.771728515625 L 939.19970703125 748.8878173828125 L 927.9541015625 748.8878173828125 L 927.9541015625 596.771728515625" fill-opacity="0.9019607843137255" clip-path="url(#nsVpCAacIFhH)" stroke-opacity="0.2" stroke-linejoin="bevel" stroke-miterlimit="10" stroke-width="0.5" stroke-dasharray=""/><path fill="rgb(219,219,141)" stroke="rgb(0,0,0)" paint-order="fill" d="M 927.9541015625 753.116943359375 L 939.19970703125 753.116943359375 L 939.19970703125 912.8388671875 L 927.9541015625 912.8388671875 L 927.9541015625 753.116943359375" fill-opacity="0.9019607843137255" clip-path="url(#nsVpCAacIFhH)" stroke-opacity="0.2" stroke-linejoin="bevel" stroke-miterlimit="10" stroke-width="0.5" stroke-dasharray=""/><path fill="rgb(23,190,207)" stroke="rgb(0,0,0)" paint-order="fill" d="M 927.9541015625 213.92422485351562 L 939.19970703125 213.92422485351562 L 939.19970703125 236.7416534423828 L 927.9541015625 236.7416534423828 L 927.9541015625 213.92422485351562" fill-opacity="0.9019607843137255" clip-path="url(#nsVpCAacIFhH)" stroke-opacity="0.2" stroke-linejoin="bevel" stroke-miterlimit="10" stroke-width="0.5" stroke-dasharray=""/><path fill="rgb(158,218,229)" stroke="rgb(0,0,0)" paint-order="fill" d="M 927.9541015625 80.36363983154297 L 939.19970703125 80.36363983154297 L 939.19970703125 87.96944427490234 L 927.9541015625 87.96944427490234 L 927.9541015625 80.36363983154297" fill-opacity="0.9019607843137255" clip-path="url(#nsVpCAacIFhH)" stroke-opacity="0.2" stroke-linejoin="bevel" stroke-miterlimit="10" stroke-width="0.5" stroke-dasharray=""/><g clip-path="url(#ExsEiHMIwlBx)"><text fill="rgb(0,0,0)" stroke="none" font-family="helvetica" font-size="8pt" font-style="normal" font-weight="normal" text-decoration="normal" x="0" y="0" text-anchor="end" dominant-baseline="central" transform="matrix(1, 0, 0, 1, 186.68118286132812, 632.3092041015625)" fill-opacity="1">US Air Force - 129</text></g><g clip-path="url(#ExsEiHMIwlBx)"><text fill="rgb(0,0,0)" stroke="none" font-family="helvetica" font-size="8pt" font-style="normal" font-weight="normal" text-decoration="normal" x="0" y="0" text-anchor="end" dominant-baseline="central" transform="matrix(1, 0, 0, 1, 925.1427001953125, 1027.3521728515625)" fill-opacity="1">Thor DM-21 Agena-B - 29</text></g><g clip-path="url(#ExsEiHMIwlBx)"><text fill="rgb(0,0,0)" stroke="none" font-family="helvetica" font-size="8pt" font-style="normal" font-weight="normal" text-decoration="normal" x="0" y="0" text-anchor="end" dominant-baseline="central" transform="matrix(1, 0, 0, 1, 925.1427001953125, 167.0108184814453)" fill-opacity="1">Scout X-2M - 1</text></g><g clip-path="url(#ExsEiHMIwlBx)"><text fill="rgb(0,0,0)" stroke="none" font-family="helvetica" font-size="8pt" font-style="normal" font-weight="normal" text-decoration="normal" x="0" y="0" text-anchor="end" dominant-baseline="central" transform="matrix(1, 0, 0, 1, 925.1427001953125, 155.17593383789062)" fill-opacity="1">Scout X-3M - 1</text></g><g clip-path="url(#ExsEiHMIwlBx)"><text fill="rgb(0,0,0)" stroke="none" font-family="helvetica" font-size="8pt" font-style="normal" font-weight="normal" text-decoration="normal" x="0" y="0" text-anchor="end" dominant-baseline="central" transform="matrix(1, 0, 0, 1, 925.1427001953125, 143.34103393554688)" fill-opacity="1">Scout X-4 - 1</text></g><g clip-path="url(#ExsEiHMIwlBx)"><text fill="rgb(0,0,0)" stroke="none" font-family="helvetica" font-size="8pt" font-style="normal" font-weight="normal" text-decoration="normal" x="0" y="0" text-anchor="end" dominant-baseline="central" transform="matrix(1, 0, 0, 1, 925.1427001953125, 131.50613403320312)" fill-opacity="1">Thor DM-18 Able-II - 1</text></g><g clip-path="url(#ExsEiHMIwlBx)"><text fill="rgb(0,0,0)" stroke="none" font-family="helvetica" font-size="8pt" font-style="normal" font-weight="normal" text-decoration="normal" x="0" y="0" text-anchor="end" dominant-baseline="central" transform="matrix(1, 0, 0, 1, 925.1427001953125, 119.67123413085938)" fill-opacity="1">Thor DM-18 Able-III - 1</text></g><g clip-path="url(#ExsEiHMIwlBx)"><text fill="rgb(0,0,0)" stroke="none" font-family="helvetica" font-size="8pt" font-style="normal" font-weight="normal" text-decoration="normal" x="0" y="0" text-anchor="end" dominant-baseline="central" transform="matrix(1, 0, 0, 1, 925.1427001953125, 107.83633422851562)" fill-opacity="1">Delta B - 1</text></g><g clip-path="url(#ExsEiHMIwlBx)"><text fill="rgb(0,0,0)" stroke="none" font-family="helvetica" font-size="8pt" font-style="normal" font-weight="normal" text-decoration="normal" x="0" y="0" text-anchor="end" dominant-baseline="central" transform="matrix(1, 0, 0, 1, 925.1427001953125, 202.08932495117188)" fill-opacity="1">Scout X-3 - 2</text></g><g clip-path="url(#ExsEiHMIwlBx)"><text fill="rgb(0,0,0)" stroke="none" font-family="helvetica" font-size="8pt" font-style="normal" font-weight="normal" text-decoration="normal" x="0" y="0" text-anchor="end" dominant-baseline="central" transform="matrix(1, 0, 0, 1, 925.1427001953125, 96.00143432617188)" fill-opacity="1">SM-65B Atlas - 1</text></g><g clip-path="url(#ExsEiHMIwlBx)"><text fill="rgb(0,0,0)" stroke="none" font-family="helvetica" font-size="8pt" font-style="normal" font-weight="normal" text-decoration="normal" x="0" y="0" text-anchor="end" dominant-baseline="central" transform="matrix(1, 0, 0, 1, 925.1427001953125, 182.64862060546875)" fill-opacity="1">Delta A - 2</text></g><g clip-path="url(#ExsEiHMIwlBx)"><text fill="rgb(0,0,0)" stroke="none" font-family="helvetica" font-size="8pt" font-style="normal" font-weight="normal" text-decoration="normal" x="0" y="0" text-anchor="end" dominant-baseline="central" transform="matrix(1, 0, 0, 1, 925.1427001953125, 267.591064453125)" fill-opacity="1">Thor-DM21 Ablestar - 7</text></g><g clip-path="url(#ExsEiHMIwlBx)"><text fill="rgb(0,0,0)" stroke="none" font-family="helvetica" font-size="8pt" font-style="normal" font-weight="normal" text-decoration="normal" x="0" y="0" text-anchor="end" dominant-baseline="central" transform="matrix(1, 0, 0, 1, 925.1427001953125, 328.86370849609375)" fill-opacity="1">Thor DM-21 Agena-D - 8</text></g><g clip-path="url(#ExsEiHMIwlBx)"><text fill="rgb(0,0,0)" stroke="none" font-family="helvetica" font-size="8pt" font-style="normal" font-weight="normal" text-decoration="normal" x="0" y="0" text-anchor="end" dominant-baseline="central" transform="matrix(1, 0, 0, 1, 925.1427001953125, 470.42352294921875)" fill-opacity="1">Thor-DM18 Agena-A - 9</text></g><g clip-path="url(#ExsEiHMIwlBx)"><text fill="rgb(0,0,0)" stroke="none" font-family="helvetica" font-size="8pt" font-style="normal" font-weight="normal" text-decoration="normal" x="0" y="0" text-anchor="end" dominant-baseline="central" transform="matrix(1, 0, 0, 1, 925.1427001953125, 397.7421569824219)" fill-opacity="1">Titan III(23)B - 9</text></g><g clip-path="url(#ExsEiHMIwlBx)"><text fill="rgb(0,0,0)" stroke="none" font-family="helvetica" font-size="8pt" font-style="normal" font-weight="normal" text-decoration="normal" x="0" y="0" text-anchor="end" dominant-baseline="central" transform="matrix(1, 0, 0, 1, 925.1427001953125, 550.710693359375)" fill-opacity="1">Thor DM-19 Delta - 11</text></g><g clip-path="url(#ExsEiHMIwlBx)"><text fill="rgb(0,0,0)" stroke="none" font-family="helvetica" font-size="8pt" font-style="normal" font-weight="normal" text-decoration="normal" x="0" y="0" text-anchor="end" dominant-baseline="central" transform="matrix(1, 0, 0, 1, 925.1427001953125, 672.8297729492188)" fill-opacity="1">Titan IIIB - 20</text></g><g clip-path="url(#ExsEiHMIwlBx)"><text fill="rgb(0,0,0)" stroke="none" font-family="helvetica" font-size="8pt" font-style="normal" font-weight="normal" text-decoration="normal" x="0" y="0" text-anchor="end" dominant-baseline="central" transform="matrix(1, 0, 0, 1, 925.1427001953125, 832.9779052734375)" fill-opacity="1">Titan III(24)B - 21</text></g><g clip-path="url(#ExsEiHMIwlBx)"><text fill="rgb(0,0,0)" stroke="none" font-family="helvetica" font-size="8pt" font-style="normal" font-weight="normal" text-decoration="normal" x="0" y="0" text-anchor="end" dominant-baseline="central" transform="matrix(1, 0, 0, 1, 925.1427001953125, 225.3329315185547)" fill-opacity="1">Titan IIIA - 3</text></g><g clip-path="url(#ExsEiHMIwlBx)"><text fill="rgb(0,0,0)" stroke="none" font-family="helvetica" font-size="8pt" font-style="normal" font-weight="normal" text-decoration="normal" x="0" y="0" text-anchor="end" dominant-baseline="central" transform="matrix(1, 0, 0, 1, 925.1427001953125, 84.16654205322266)" fill-opacity="1">Thor DM-18 Able-IV - 1</text></g><text fill="rgb(68,68,68)" stroke="none" font-family="helvetica" font-size="13px" font-style="normal" font-weight="bold" text-decoration="normal" x="10" y="19.1689453125" text-anchor="start" dominant-baseline="alphabetic" transform="matrix(1, 0, 0, 1, 0.5, 0.5)" fill-opacity="1">US Air Force Rocket Successes</text></svg>