<svg version="1.1" xmlns="http://www.w3.org/2000/svg" width="1000" height="1200"><defs><clipPath id="UHwCwmwgvqfw"><path fill="none" stroke="none" d="M 10.5 27.5 L 970.5 27.5 L 970.5 1190.5 L 10.5 1190.5 L 10.5 27.5"/></clipPath><clipPath id="TKpDUwCXntol"><path fill="none" stroke="none" d="M 10.5 27.5 L 970.5 27.5 L 970.5 1190.5 L 10.5 1190.5 L 10.5 27.5"/></clipPath><clipPath id="JNrutDWBxUzy"><path fill="none" stroke="none" d="M 10.5 27.5 L 970.5 27.5 L 970.5 1190.5 L 10.5 1190.5 L 10.5 27.5"/></clipPath><clipPath id="mMGNBnOFqArp"><path fill="none" stroke="none" d="M 10.5 27.5 L 970.5 27.5 L 970.5 1190.5 L 10.5 1190.5 L 10.5 27.5"/></clipPath><clipPath id="MTnTSsnTNmDN"><path fill="none" stroke="none" d="M 10.5 27.5 L 970.5 27.5 L 970.5 1190.5 L 10.5 1190.5 L 10.5 27.5"/></clipPath><clipPath id="hgrGkdkuFWWk"><path fill="none" stroke="none" d="M 10.5 27.5 L 970.5 27.5 L 970.5 1190.5 L 10.5 1190.5 L 10.5 27.5"/></clipPath></defs><path fill="rgb(255,255,255)" stroke="none" paint-order="stroke" d="M 0.5 0.5 L 1000.5 0.5 L 1000.5 1200.5 L 0.5 1200.5 L 0.5 0.5" fill-opacity="1"/><rect fill="#FFFFFF" stroke="none" x="10" y="27" width="960" height="1163" transform="matrix(1, 0, 0, 1, 0.5, 0.5)"/><path fill="rgb(255,250,250)" stroke="none" paint-order="stroke" d="M 10.5 27.5 L 970.5 27.5 L 970.5 1190.5 L 10.5 1190.5 L 10.5 27.5" fill-opacity="1"/><path fill="rgb(174,199,232)" stroke="rgb(174,199,232)" paint-order="fill" d="M 200.73818969726562 872.8576049804688 L 200.73818969726562 1120.573486328125 L 200.73818969726562 1120.573486328125 L 222.5517578125 1120.594482421875 L 243.4937744140625 1120.6563720703125 L 263.601318359375 1120.7574462890625 L 282.9114990234375 1120.89599609375 L 301.4613952636719 1121.0701904296875 L 319.2880554199219 1121.2783203125 L 336.4286193847656 1121.5186767578125 L 352.920166015625 1121.7894287109375 L 368.79974365234375 1122.0888671875 L 384.1044921875 1122.4154052734375 L 398.8714294433594 1122.76708984375 L 413.1377258300781 1123.1422119140625 L 426.9404296875 1123.5391845703125 L 440.3166198730469 1123.9561767578125 L 453.3033752441406 1124.3914794921875 L 465.9378356933594 1124.84326171875 L 478.25701904296875 1125.309814453125 L 490.2980651855469 1125.7894287109375 L 502.0980529785156 1126.2802734375 L 513.6940307617188 1126.7808837890625 L 525.1231079101562 1127.2891845703125 L 536.4224243164062 1127.8035888671875 L 547.6290283203125 1128.3223876953125 L 558.7799682617188 1128.84375 L 569.912353515625 1129.3660888671875 L 581.0632934570312 1129.887451171875 L 592.2698974609375 1130.40625 L 603.5691528320312 1130.920654296875 L 614.998291015625 1131.428955078125 L 626.59423828125 1131.929443359375 L 638.3942260742188 1132.42041015625 L 650.435302734375 1132.9000244140625 L 662.7544555664062 1133.3665771484375 L 675.388916015625 1133.818359375 L 688.3756713867188 1134.253662109375 L 701.7518920898438 1134.670654296875 L 715.5545654296875 1135.0675048828125 L 729.8208618164062 1135.4427490234375 L 744.5878295898438 1135.79443359375 L 759.892578125 1136.1209716796875 L 775.7721557617188 1136.42041015625 L 792.263671875 1136.691162109375 L 809.4042358398438 1136.9315185546875 L 827.2308959960938 1137.1396484375 L 845.7808227539062 1137.3138427734375 L 865.0910034179688 1137.4522705078125 L 885.1985473632812 1137.5533447265625 L 906.1405639648438 1137.6153564453125 L 927.9541015625 1137.6363525390625 L 927.9541015625 1137.6363525390625 L 927.9541015625 889.9205322265625 L 927.9541015625 889.9205322265625 L 906.1405639648438 889.8994750976562 L 885.1985473632812 889.8375244140625 L 865.0910034179688 889.7364501953125 L 845.7808227539062 889.5979614257812 L 827.2308959960938 889.4237670898438 L 809.4042358398438 889.2156372070312 L 792.263671875 888.975341796875 L 775.7721557617188 888.7045288085938 L 759.892578125 888.4050903320312 L 744.5878295898438 888.07861328125 L 729.8208618164062 887.7268676757812 L 715.5545654296875 887.3516845703125 L 701.7518920898438 886.9547119140625 L 688.3756713867188 886.5377807617188 L 675.388916015625 886.1025390625 L 662.7544555664062 885.6507568359375 L 650.435302734375 885.1842041015625 L 638.3942260742188 884.7045288085938 L 626.59423828125 884.213623046875 L 614.998291015625 883.713134765625 L 603.5691528320312 883.2047729492188 L 592.2698974609375 882.6903686523438 L 581.0632934570312 882.1715698242188 L 569.912353515625 881.650146484375 L 558.7799682617188 881.1279296875 L 547.6290283203125 880.6065063476562 L 536.4224243164062 880.0877685546875 L 525.1231079101562 879.5733032226562 L 513.6940307617188 879.0650024414062 L 502.0980529785156 878.564453125 L 490.2980651855469 878.0735473632812 L 478.25701904296875 877.5939331054688 L 465.9378356933594 877.1273193359375 L 453.3033752441406 876.675537109375 L 440.3166198730469 876.2402954101562 L 426.9404296875 875.8233642578125 L 413.1377258300781 875.4263916015625 L 398.8714294433594 875.0512084960938 L 384.1044921875 874.6995239257812 L 368.79974365234375 874.373046875 L 352.920166015625 874.0735473632812 L 336.4286193847656 873.802734375 L 319.2880554199219 873.5624389648438 L 301.4613952636719 873.3543090820312 L 282.9114990234375 873.1801147460938 L 263.601318359375 873.0416259765625 L 243.4937744140625 872.9405517578125 L 222.5517578125 872.8786010742188 L 200.73818969726562 872.8576049804688 Z" fill-opacity="0.6" clip-path="url(#JNrutDWBxUzy)" stroke-opacity="1" stroke-linejoin="bevel" stroke-miterlimit="10" stroke-width="0.8" stroke-dasharray=""/><path fill="rgb(255,127,14)" stroke="rgb(255,127,14)" paint-order="fill" d="M 200.73818969726562 149.13870239257812 L 200.73818969726562 153.99588012695312 L 200.73818969726562 153.99588012695312 L 222.5517578125 153.9335174560547 L 243.4937744140625 153.74984741210938 L 263.601318359375 153.45005798339844 L 282.9114990234375 153.039306640625 L 301.4613952636719 152.52273559570312 L 319.2880554199219 151.905517578125 L 336.4286193847656 151.1928253173828 L 352.920166015625 150.38980102539062 L 368.79974365234375 149.50161743164062 L 384.1044921875 148.53341674804688 L 398.8714294433594 147.4904022216797 L 413.1377258300781 146.377685546875 L 426.9404296875 145.20046997070312 L 440.3166198730469 143.96388244628906 L 453.3033752441406 142.67311096191406 L 465.9378356933594 141.33331298828125 L 478.25701904296875 139.9496307373047 L 490.2980651855469 138.52723693847656 L 502.0980529785156 137.07130432128906 L 513.6940307617188 135.58697509765625 L 525.1231079101562 134.0794219970703 L 536.4224243164062 132.55381774902344 L 547.6290283203125 131.01528930664062 L 558.7799682617188 129.46902465820312 L 569.912353515625 127.9201889038086 L 581.0632934570312 126.3739242553711 L 592.2698974609375 124.83540344238281 L 603.5691528320312 123.3097915649414 L 614.998291015625 121.80223846435547 L 626.59423828125 120.31791687011719 L 638.3942260742188 118.86197662353516 L 650.435302734375 117.43959045410156 L 662.7544555664062 116.055908203125 L 675.388916015625 114.71610260009766 L 688.3756713867188 113.42533111572266 L 701.7518920898438 112.18875122070312 L 715.5545654296875 111.01152801513672 L 729.8208618164062 109.89881896972656 L 744.5878295898438 108.85579681396484 L 759.892578125 107.88760375976562 L 775.7721557617188 106.99942016601562 L 792.263671875 106.19639587402344 L 809.4042358398438 105.48369598388672 L 827.2308959960938 104.8664779663086 L 845.7808227539062 104.34991455078125 L 865.0910034179688 103.93915557861328 L 885.1985473632812 103.63936614990234 L 906.1405639648438 103.45570373535156 L 927.9541015625 103.39334106445312 L 927.9541015625 103.39334106445312 L 927.9541015625 98.53616333007812 L 927.9541015625 98.53616333007812 L 906.1405639648438 98.5985336303711 L 885.1985473632812 98.78218841552734 L 865.0910034179688 99.08197784423828 L 845.7808227539062 99.49273681640625 L 827.2308959960938 100.00930786132812 L 809.4042358398438 100.62651824951172 L 792.263671875 101.33921813964844 L 775.7721557617188 102.14224243164062 L 759.892578125 103.03043365478516 L 744.5878295898438 103.99861907958984 L 729.8208618164062 105.0416488647461 L 715.5545654296875 106.15435028076172 L 701.7518920898438 107.33157348632812 L 688.3756713867188 108.56815338134766 L 675.388916015625 109.85893249511719 L 662.7544555664062 111.19873809814453 L 650.435302734375 112.58241271972656 L 638.3942260742188 114.00480651855469 L 626.59423828125 115.46073913574219 L 614.998291015625 116.945068359375 L 603.5691528320312 118.4526138305664 L 592.2698974609375 119.97823333740234 L 581.0632934570312 121.51675415039062 L 569.912353515625 123.0630111694336 L 558.7799682617188 124.61185455322266 L 547.6290283203125 126.15811920166016 L 536.4224243164062 127.69664001464844 L 525.1231079101562 129.22225952148438 L 513.6940307617188 130.72979736328125 L 502.0980529785156 132.21412658691406 L 490.2980651855469 133.67005920410156 L 478.25701904296875 135.0924530029297 L 465.9378356933594 136.47613525390625 L 453.3033752441406 137.81593322753906 L 440.3166198730469 139.10671997070312 L 426.9404296875 140.34329223632812 L 413.1377258300781 141.52052307128906 L 398.8714294433594 142.6332244873047 L 384.1044921875 143.67625427246094 L 368.79974365234375 144.64443969726562 L 352.920166015625 145.53262329101562 L 336.4286193847656 146.3356475830078 L 319.2880554199219 147.04835510253906 L 301.4613952636719 147.66555786132812 L 282.9114990234375 148.18212890625 L 263.601318359375 148.5928955078125 L 243.4937744140625 148.89268493652344 L 222.5517578125 149.0763397216797 L 200.73818969726562 149.13870239257812 Z" fill-opacity="0.6" clip-path="url(#JNrutDWBxUzy)" stroke-opacity="1" stroke-linejoin="bevel" stroke-miterlimit="10" stroke-width="0.8" stroke-dasharray=""/><path fill="rgb(255,187,120)" stroke="rgb(255,187,120)" paint-order="fill" d="M 200.73818969726562 187.99609375 L 200.73818969726562 197.71043395996094 L 200.73818969726562 197.71043395996094 L 222.5517578125 197.66371154785156 L 243.4937744140625 197.52609252929688 L 263.601318359375 197.3014678955078 L 282.9114990234375 196.9936981201172 L 301.4613952636719 196.6066436767578 L 319.2880554199219 196.14418029785156 L 336.4286193847656 195.6101837158203 L 352.920166015625 195.0084991455078 L 368.79974365234375 194.34300231933594 L 384.1044921875 193.6175537109375 L 398.8714294433594 192.83604431152344 L 413.1377258300781 192.0023193359375 L 426.9404296875 191.12025451660156 L 440.3166198730469 190.19371032714844 L 453.3033752441406 189.2265625 L 465.9378356933594 188.22268676757812 L 478.25701904296875 187.18592834472656 L 490.2980651855469 186.1201629638672 L 502.0980529785156 185.02926635742188 L 513.6940307617188 183.91709899902344 L 525.1231079101562 182.7875213623047 L 536.4224243164062 181.6444091796875 L 547.6290283203125 180.49163818359375 L 558.7799682617188 179.33306884765625 L 569.912353515625 178.17254638671875 L 581.0632934570312 177.01397705078125 L 592.2698974609375 175.8612060546875 L 603.5691528320312 174.7180938720703 L 614.998291015625 173.58851623535156 L 626.59423828125 172.47634887695312 L 638.3942260742188 171.3854522705078 L 650.435302734375 170.31968688964844 L 662.7544555664062 169.28292846679688 L 675.388916015625 168.279052734375 L 688.3756713867188 167.31190490722656 L 701.7518920898438 166.38536071777344 L 715.5545654296875 165.5032958984375 L 729.8208618164062 164.66957092285156 L 744.5878295898438 163.8880615234375 L 759.892578125 163.16262817382812 L 775.7721557617188 162.49713134765625 L 792.263671875 161.8954315185547 L 809.4042358398438 161.36143493652344 L 827.2308959960938 160.8989715576172 L 845.7808227539062 160.5119171142578 L 865.0910034179688 160.2041473388672 L 885.1985473632812 159.97952270507812 L 906.1405639648438 159.84190368652344 L 927.9541015625 159.79518127441406 L 927.9541015625 159.79518127441406 L 927.9541015625 150.08082580566406 L 927.9541015625 150.08082580566406 L 906.1405639648438 150.1275634765625 L 885.1985473632812 150.26516723632812 L 865.0910034179688 150.4897918701172 L 845.7808227539062 150.7975616455078 L 827.2308959960938 151.1846160888672 L 809.4042358398438 151.64707946777344 L 792.263671875 152.18109130859375 L 775.7721557617188 152.78277587890625 L 759.892578125 153.44827270507812 L 744.5878295898438 154.1737060546875 L 729.8208618164062 154.95523071289062 L 715.5545654296875 155.78895568847656 L 701.7518920898438 156.6710205078125 L 688.3756713867188 157.59756469726562 L 675.388916015625 158.564697265625 L 662.7544555664062 159.56858825683594 L 650.435302734375 160.6053466796875 L 638.3942260742188 161.67111206054688 L 626.59423828125 162.7620086669922 L 614.998291015625 163.87417602539062 L 603.5691528320312 165.0037384033203 L 592.2698974609375 166.1468505859375 L 581.0632934570312 167.29962158203125 L 569.912353515625 168.4582061767578 L 558.7799682617188 169.61871337890625 L 547.6290283203125 170.7772979736328 L 536.4224243164062 171.93006896972656 L 525.1231079101562 173.07318115234375 L 513.6940307617188 174.20274353027344 L 502.0980529785156 175.31491088867188 L 490.2980651855469 176.40582275390625 L 478.25701904296875 177.47157287597656 L 465.9378356933594 178.50833129882812 L 453.3033752441406 179.51222229003906 L 440.3166198730469 180.4793701171875 L 426.9404296875 181.40589904785156 L 413.1377258300781 182.2879638671875 L 398.8714294433594 183.12168884277344 L 384.1044921875 183.90321350097656 L 368.79974365234375 184.62864685058594 L 352.920166015625 185.2941436767578 L 336.4286193847656 185.8958282470703 L 319.2880554199219 186.42984008789062 L 301.4613952636719 186.89230346679688 L 282.9114990234375 187.27935791015625 L 263.601318359375 187.58712768554688 L 243.4937744140625 187.81175231933594 L 222.5517578125 187.94937133789062 L 200.73818969726562 187.99609375 Z" fill-opacity="0.6" clip-path="url(#JNrutDWBxUzy)" stroke-opacity="1" stroke-linejoin="bevel" stroke-miterlimit="10" stroke-width="0.8" stroke-dasharray=""/><path fill="rgb(44,160,44)" stroke="rgb(44,160,44)" paint-order="fill" d="M 200.73818969726562 260.85369873046875 L 200.73818969726562 275.42523193359375 L 200.73818969726562 275.42523193359375 L 222.5517578125 275.39935302734375 L 243.4937744140625 275.3231201171875 L 263.601318359375 275.19873046875 L 282.9114990234375 275.02825927734375 L 301.4613952636719 274.81390380859375 L 319.2880554199219 274.5577697753906 L 336.4286193847656 274.26202392578125 L 352.920166015625 273.92877197265625 L 368.79974365234375 273.5602111816406 L 384.1044921875 273.1584167480469 L 398.8714294433594 272.7255859375 L 413.1377258300781 272.26385498046875 L 426.9404296875 271.77532958984375 L 440.3166198730469 271.2621765136719 L 453.3033752441406 270.7265319824219 L 465.9378356933594 270.1705322265625 L 478.25701904296875 269.5963439941406 L 490.2980651855469 269.0060729980469 L 502.0980529785156 268.40191650390625 L 513.6940307617188 267.78594970703125 L 525.1231079101562 267.16033935546875 L 536.4224243164062 266.5272521972656 L 547.6290283203125 265.8887939453125 L 558.7799682617188 265.24713134765625 L 569.912353515625 264.6044006347656 L 581.0632934570312 263.9627380371094 L 592.2698974609375 263.32427978515625 L 603.5691528320312 262.6911926269531 L 614.998291015625 262.0655822753906 L 626.59423828125 261.44964599609375 L 638.3942260742188 260.845458984375 L 650.435302734375 260.25518798828125 L 662.7544555664062 259.6809997558594 L 675.388916015625 259.125 L 688.3756713867188 258.58935546875 L 701.7518920898438 258.0762023925781 L 715.5545654296875 257.58770751953125 L 729.8208618164062 257.1259460449219 L 744.5878295898438 256.693115234375 L 759.892578125 256.2913360595703 L 775.7721557617188 255.92276000976562 L 792.263671875 255.5895233154297 L 809.4042358398438 255.29376220703125 L 827.2308959960938 255.0376434326172 L 845.7808227539062 254.82327270507812 L 865.0910034179688 254.65281677246094 L 885.1985473632812 254.52841186523438 L 906.1405639648438 254.4521942138672 L 927.9541015625 254.4263153076172 L 927.9541015625 254.4263153076172 L 927.9541015625 239.85479736328125 L 927.9541015625 239.85479736328125 L 906.1405639648438 239.88067626953125 L 885.1985473632812 239.95689392089844 L 865.0910034179688 240.081298828125 L 845.7808227539062 240.2517547607422 L 827.2308959960938 240.46612548828125 L 809.4042358398438 240.7222442626953 L 792.263671875 241.01800537109375 L 775.7721557617188 241.3512420654297 L 759.892578125 241.71981811523438 L 744.5878295898438 242.12159729003906 L 729.8208618164062 242.55442810058594 L 715.5545654296875 243.01617431640625 L 701.7518920898438 243.50469970703125 L 688.3756713867188 244.01783752441406 L 675.388916015625 244.55348205566406 L 662.7544555664062 245.10948181152344 L 650.435302734375 245.6836700439453 L 638.3942260742188 246.27392578125 L 626.59423828125 246.87811279296875 L 614.998291015625 247.4940643310547 L 603.5691528320312 248.1196746826172 L 592.2698974609375 248.7527618408203 L 581.0632934570312 249.39122009277344 L 569.912353515625 250.0328826904297 L 558.7799682617188 250.6756134033203 L 547.6290283203125 251.31727600097656 L 536.4224243164062 251.9557342529297 L 525.1231079101562 252.5888214111328 L 513.6940307617188 253.2144317626953 L 502.0980529785156 253.83038330078125 L 490.2980651855469 254.4345703125 L 478.25701904296875 255.0248260498047 L 465.9378356933594 255.59901428222656 L 453.3033752441406 256.15501403808594 L 440.3166198730469 256.6906433105469 L 426.9404296875 257.20379638671875 L 413.1377258300781 257.69232177734375 L 398.8714294433594 258.1540832519531 L 384.1044921875 258.5869140625 L 368.79974365234375 258.9886779785156 L 352.920166015625 259.3572692871094 L 336.4286193847656 259.69049072265625 L 319.2880554199219 259.9862365722656 L 301.4613952636719 260.24237060546875 L 282.9114990234375 260.4567565917969 L 263.601318359375 260.627197265625 L 243.4937744140625 260.7516174316406 L 222.5517578125 260.82781982421875 L 200.73818969726562 260.85369873046875 Z" fill-opacity="0.6" clip-path="url(#JNrutDWBxUzy)" stroke-opacity="1" stroke-linejoin="bevel" stroke-miterlimit="10" stroke-width="0.8" stroke-dasharray=""/><path fill="rgb(152,223,138)" stroke="rgb(152,223,138)" paint-order="fill" d="M 200.73818969726562 173.42457580566406 L 200.73818969726562 187.99609375 L 200.73818969726562 187.99609375 L 222.5517578125 187.94415283203125 L 243.4937744140625 187.79119873046875 L 263.601318359375 187.54150390625 L 282.9114990234375 187.1994171142578 L 301.4613952636719 186.76918029785156 L 319.2880554199219 186.25514221191406 L 336.4286193847656 185.66156005859375 L 352.920166015625 184.99276733398438 L 368.79974365234375 184.25303649902344 L 384.1044921875 183.44668579101562 L 398.8714294433594 182.5780029296875 L 413.1377258300781 181.65127563476562 L 426.9404296875 180.67083740234375 L 440.3166198730469 179.6409454345703 L 453.3033752441406 178.56591796875 L 465.9378356933594 177.45005798339844 L 478.25701904296875 176.29766845703125 L 490.2980651855469 175.11302185058594 L 502.0980529785156 173.90045166015625 L 513.6940307617188 172.6642303466797 L 525.1231079101562 171.40866088867188 L 536.4224243164062 170.1380615234375 L 547.6290283203125 168.85670471191406 L 558.7799682617188 167.5688934326172 L 569.912353515625 166.2789306640625 L 581.0632934570312 164.9911346435547 L 592.2698974609375 163.70977783203125 L 603.5691528320312 162.4391632080078 L 614.998291015625 161.18359375 L 626.59423828125 159.94737243652344 L 638.3942260742188 158.73480224609375 L 650.435302734375 157.5501708984375 L 662.7544555664062 156.39776611328125 L 675.388916015625 155.2819061279297 L 688.3756713867188 154.20689392089844 L 701.7518920898438 153.177001953125 L 715.5545654296875 152.19654846191406 L 729.8208618164062 151.26983642578125 L 744.5878295898438 150.40113830566406 L 759.892578125 149.59478759765625 L 775.7721557617188 148.8550567626953 L 792.263671875 148.18626403808594 L 809.4042358398438 147.5926971435547 L 827.2308959960938 147.07864379882812 L 845.7808227539062 146.64842224121094 L 865.0910034179688 146.3063201904297 L 885.1985473632812 146.056640625 L 906.1405639648438 145.9036865234375 L 927.9541015625 145.8517303466797 L 927.9541015625 145.8517303466797 L 927.9541015625 131.28021240234375 L 927.9541015625 131.28021240234375 L 906.1405639648438 131.3321533203125 L 885.1985473632812 131.48512268066406 L 865.0910034179688 131.73480224609375 L 845.7808227539062 132.076904296875 L 827.2308959960938 132.5071258544922 L 809.4042358398438 133.0211639404297 L 792.263671875 133.61474609375 L 775.7721557617188 134.28353881835938 L 759.892578125 135.0232696533203 L 744.5878295898438 135.82962036132812 L 729.8208618164062 136.69830322265625 L 715.5545654296875 137.62503051757812 L 701.7518920898438 138.60548400878906 L 688.3756713867188 139.63536071777344 L 675.388916015625 140.71038818359375 L 662.7544555664062 141.8262481689453 L 650.435302734375 142.9786376953125 L 638.3942260742188 144.1632843017578 L 626.59423828125 145.3758544921875 L 614.998291015625 146.61207580566406 L 603.5691528320312 147.86764526367188 L 592.2698974609375 149.1382598876953 L 581.0632934570312 150.41961669921875 L 569.912353515625 151.70741271972656 L 558.7799682617188 152.99737548828125 L 547.6290283203125 154.28517150878906 L 536.4224243164062 155.5665283203125 L 525.1231079101562 156.83714294433594 L 513.6940307617188 158.09271240234375 L 502.0980529785156 159.3289337158203 L 490.2980651855469 160.54150390625 L 478.25701904296875 161.7261505126953 L 465.9378356933594 162.8785400390625 L 453.3033752441406 163.99440002441406 L 440.3166198730469 165.06942749023438 L 426.9404296875 166.09930419921875 L 413.1377258300781 167.0797576904297 L 398.8714294433594 168.00648498535156 L 384.1044921875 168.8751678466797 L 368.79974365234375 169.6815185546875 L 352.920166015625 170.42124938964844 L 336.4286193847656 171.0900421142578 L 319.2880554199219 171.68362426757812 L 301.4613952636719 172.19766235351562 L 282.9114990234375 172.6278839111328 L 263.601318359375 172.96998596191406 L 243.4937744140625 173.21966552734375 L 222.5517578125 173.3726348876953 L 200.73818969726562 173.42457580566406 Z" fill-opacity="0.6" clip-path="url(#JNrutDWBxUzy)" stroke-opacity="1" stroke-linejoin="bevel" stroke-miterlimit="10" stroke-width="0.8" stroke-dasharray=""/><path fill="rgb(214,39,40)" stroke="rgb(214,39,40)" paint-order="fill" d="M 200.73818969726562 241.4250030517578 L 200.73818969726562 260.85369873046875 L 200.73818969726562 260.85369873046875 L 222.5517578125 260.8226013183594 L 243.4937744140625 260.7310485839844 L 263.601318359375 260.5815734863281 L 282.9114990234375 260.3768005371094 L 301.4613952636719 260.1192626953125 L 319.2880554199219 259.8115539550781 L 336.4286193847656 259.45623779296875 L 352.920166015625 259.0558776855469 L 368.79974365234375 258.6130676269531 L 384.1044921875 258.13037109375 L 398.8714294433594 257.6103820800781 L 413.1377258300781 257.0556335449219 L 426.9404296875 256.46873474121094 L 440.3166198730469 255.85223388671875 L 453.3033752441406 255.20870971679688 L 465.9378356933594 254.54075622558594 L 478.25701904296875 253.85092163085938 L 490.2980651855469 253.14178466796875 L 502.0980529785156 252.41592407226562 L 513.6940307617188 251.6759033203125 L 525.1231079101562 250.92431640625 L 536.4224243164062 250.16371154785156 L 547.6290283203125 249.3966827392578 L 558.7799682617188 248.62579345703125 L 569.912353515625 247.85360717773438 L 581.0632934570312 247.0827178955078 L 592.2698974609375 246.31568908691406 L 603.5691528320312 245.55508422851562 L 614.998291015625 244.80349731445312 L 626.59423828125 244.06349182128906 L 638.3942260742188 243.33763122558594 L 650.435302734375 242.6284942626953 L 662.7544555664062 241.93865966796875 L 675.388916015625 241.27069091796875 L 688.3756713867188 240.62718200683594 L 701.7518920898438 240.01068115234375 L 715.5545654296875 239.42376708984375 L 729.8208618164062 238.86903381347656 L 744.5878295898438 238.34902954101562 L 759.892578125 237.8663330078125 L 775.7721557617188 237.42352294921875 L 792.263671875 237.02317810058594 L 809.4042358398438 236.66786193847656 L 827.2308959960938 236.36013793945312 L 845.7808227539062 236.1026153564453 L 865.0910034179688 235.8978271484375 L 885.1985473632812 235.7483673095703 L 906.1405639648438 235.65679931640625 L 927.9541015625 235.62570190429688 L 927.9541015625 235.62570190429688 L 927.9541015625 216.19700622558594 L 927.9541015625 216.19700622558594 L 906.1405639648438 216.2281036376953 L 885.1985473632812 216.31967163085938 L 865.0910034179688 216.46913146972656 L 845.7808227539062 216.67391967773438 L 827.2308959960938 216.9314422607422 L 809.4042358398438 217.23916625976562 L 792.263671875 217.594482421875 L 775.7721557617188 217.9948272705078 L 759.892578125 218.43763732910156 L 744.5878295898438 218.9203338623047 L 729.8208618164062 219.44033813476562 L 715.5545654296875 219.9950714111328 L 701.7518920898438 220.5819854736328 L 688.3756713867188 221.198486328125 L 675.388916015625 221.8419952392578 L 662.7544555664062 222.5099639892578 L 650.435302734375 223.19979858398438 L 638.3942260742188 223.908935546875 L 626.59423828125 224.63479614257812 L 614.998291015625 225.3748016357422 L 603.5691528320312 226.12640380859375 L 592.2698974609375 226.88699340820312 L 581.0632934570312 227.65402221679688 L 569.912353515625 228.42491149902344 L 558.7799682617188 229.1970977783203 L 547.6290283203125 229.96798706054688 L 536.4224243164062 230.73501586914062 L 525.1231079101562 231.49562072753906 L 513.6940307617188 232.24720764160156 L 502.0980529785156 232.9872283935547 L 490.2980651855469 233.7130889892578 L 478.25701904296875 234.42222595214844 L 465.9378356933594 235.112060546875 L 453.3033752441406 235.78001403808594 L 440.3166198730469 236.4235382080078 L 426.9404296875 237.0400390625 L 413.1377258300781 237.62693786621094 L 398.8714294433594 238.1816864013672 L 384.1044921875 238.70169067382812 L 368.79974365234375 239.1843719482422 L 352.920166015625 239.62718200683594 L 336.4286193847656 240.0275421142578 L 319.2880554199219 240.3828582763672 L 301.4613952636719 240.69056701660156 L 282.9114990234375 240.94810485839844 L 263.601318359375 241.15289306640625 L 243.4937744140625 241.30235290527344 L 222.5517578125 241.39390563964844 L 200.73818969726562 241.4250030517578 Z" fill-opacity="0.6" clip-path="url(#JNrutDWBxUzy)" stroke-opacity="1" stroke-linejoin="bevel" stroke-miterlimit="10" stroke-width="0.8" stroke-dasharray=""/><path fill="rgb(255,152,150)" stroke="rgb(255,152,150)" paint-order="fill" d="M 200.73818969726562 221.99630737304688 L 200.73818969726562 241.4250030517578 L 200.73818969726562 241.4250030517578 L 222.5517578125 241.38870239257812 L 243.4937744140625 241.2817840576172 L 263.601318359375 241.10726928710938 L 282.9114990234375 240.8681640625 L 301.4613952636719 240.56744384765625 L 319.2880554199219 240.20814514160156 L 336.4286193847656 239.79327392578125 L 352.920166015625 239.3258056640625 L 368.79974365234375 238.80877685546875 L 384.1044921875 238.2451629638672 L 398.8714294433594 237.6379852294922 L 413.1377258300781 236.99024963378906 L 426.9404296875 236.30496215820312 L 440.3166198730469 235.58511352539062 L 453.3033752441406 234.83372497558594 L 465.9378356933594 234.0537872314453 L 478.25701904296875 233.24830627441406 L 490.2980651855469 232.42030334472656 L 502.0980529785156 231.57275390625 L 513.6940307617188 230.7086944580078 L 525.1231079101562 229.83111572265625 L 536.4224243164062 228.94300842285156 L 547.6290283203125 228.04739379882812 L 558.7799682617188 227.14727783203125 L 569.912353515625 226.2456512451172 L 581.0632934570312 225.3455352783203 L 592.2698974609375 224.44992065429688 L 603.5691528320312 223.5618133544922 L 614.998291015625 222.68423461914062 L 626.59423828125 221.82015991210938 L 638.3942260742188 220.97262573242188 L 650.435302734375 220.14462280273438 L 662.7544555664062 219.33914184570312 L 675.388916015625 218.5592041015625 L 688.3756713867188 217.8078155517578 L 701.7518920898438 217.0879669189453 L 715.5545654296875 216.4026641845703 L 729.8208618164062 215.7549285888672 L 744.5878295898438 215.14776611328125 L 759.892578125 214.5841522216797 L 775.7721557617188 214.06710815429688 L 792.263671875 213.5996551513672 L 809.4042358398438 213.1847686767578 L 827.2308959960938 212.82546997070312 L 845.7808227539062 212.52476501464844 L 865.0910034179688 212.28565979003906 L 885.1985473632812 212.11114501953125 L 906.1405639648438 212.0042266845703 L 927.9541015625 211.96792602539062 L 927.9541015625 211.96792602539062 L 927.9541015625 192.5392303466797 L 927.9541015625 192.5392303466797 L 906.1405639648438 192.57553100585938 L 885.1985473632812 192.6824493408203 L 865.0910034179688 192.85696411132812 L 845.7808227539062 193.0960693359375 L 827.2308959960938 193.3967742919922 L 809.4042358398438 193.75607299804688 L 792.263671875 194.17095947265625 L 775.7721557617188 194.638427734375 L 759.892578125 195.15545654296875 L 744.5878295898438 195.7190704345703 L 729.8208618164062 196.32623291015625 L 715.5545654296875 196.97396850585938 L 701.7518920898438 197.65927124023438 L 688.3756713867188 198.37911987304688 L 675.388916015625 199.13050842285156 L 662.7544555664062 199.9104461669922 L 650.435302734375 200.71592712402344 L 638.3942260742188 201.54393005371094 L 626.59423828125 202.39146423339844 L 614.998291015625 203.2555389404297 L 603.5691528320312 204.13311767578125 L 592.2698974609375 205.02122497558594 L 581.0632934570312 205.91683959960938 L 569.912353515625 206.81695556640625 L 558.7799682617188 207.7185821533203 L 547.6290283203125 208.6186981201172 L 536.4224243164062 209.51431274414062 L 525.1231079101562 210.4024200439453 L 513.6940307617188 211.27999877929688 L 502.0980529785156 212.14405822753906 L 490.2980651855469 212.99160766601562 L 478.25701904296875 213.81961059570312 L 465.9378356933594 214.62509155273438 L 453.3033752441406 215.405029296875 L 440.3166198730469 216.1564178466797 L 426.9404296875 216.8762664794922 L 413.1377258300781 217.56155395507812 L 398.8714294433594 218.20928955078125 L 384.1044921875 218.81646728515625 L 368.79974365234375 219.3800811767578 L 352.920166015625 219.89710998535156 L 336.4286193847656 220.3645782470703 L 319.2880554199219 220.7794647216797 L 301.4613952636719 221.1387481689453 L 282.9114990234375 221.43946838378906 L 263.601318359375 221.67857360839844 L 243.4937744140625 221.85308837890625 L 222.5517578125 221.9600067138672 L 200.73818969726562 221.99630737304688 Z" fill-opacity="0.6" clip-path="url(#JNrutDWBxUzy)" stroke-opacity="1" stroke-linejoin="bevel" stroke-miterlimit="10" stroke-width="0.8" stroke-dasharray=""/><path fill="rgb(148,103,189)" stroke="rgb(148,103,189)" paint-order="fill" d="M 200.73818969726562 153.99588012695312 L 200.73818969726562 173.42457580566406 L 200.73818969726562 173.42457580566406 L 222.5517578125 173.36741638183594 L 243.4937744140625 173.19911193847656 L 263.601318359375 172.92437744140625 L 282.9114990234375 172.54794311523438 L 301.4613952636719 172.07455444335938 L 319.2880554199219 171.5089111328125 L 336.4286193847656 170.85577392578125 L 352.920166015625 170.119873046875 L 368.79974365234375 169.305908203125 L 384.1044921875 168.41864013671875 L 398.8714294433594 167.46278381347656 L 413.1377258300781 166.4430694580078 L 426.9404296875 165.36424255371094 L 440.3166198730469 164.2310028076172 L 453.3033752441406 163.04811096191406 L 465.9378356933594 161.8202667236328 L 478.25701904296875 160.55223083496094 L 490.2980651855469 159.24871826171875 L 502.0980529785156 157.91445922851562 L 513.6940307617188 156.55418395996094 L 525.1231079101562 155.17263793945312 L 536.4224243164062 153.77452087402344 L 547.6290283203125 152.3645782470703 L 558.7799682617188 150.94754028320312 L 569.912353515625 149.5281524658203 L 581.0632934570312 148.11111450195312 L 592.2698974609375 146.701171875 L 603.5691528320312 145.30307006835938 L 614.998291015625 143.9215087890625 L 626.59423828125 142.5612335205078 L 638.3942260742188 141.2269744873047 L 650.435302734375 139.9234619140625 L 662.7544555664062 138.65542602539062 L 675.388916015625 137.42759704589844 L 688.3756713867188 136.24468994140625 L 701.7518920898438 135.11146545410156 L 715.5545654296875 134.03262329101562 L 729.8208618164062 133.01290893554688 L 744.5878295898438 132.0570526123047 L 759.892578125 131.16978454589844 L 775.7721557617188 130.3558349609375 L 792.263671875 129.6199188232422 L 809.4042358398438 128.96678161621094 L 827.2308959960938 128.40115356445312 L 845.7808227539062 127.9277572631836 L 865.0910034179688 127.55132293701172 L 885.1985473632812 127.2765884399414 L 906.1405639648438 127.1082763671875 L 927.9541015625 127.0511245727539 L 927.9541015625 127.0511245727539 L 927.9541015625 107.62242889404297 L 927.9541015625 107.62242889404297 L 906.1405639648438 107.6795883178711 L 885.1985473632812 107.84789276123047 L 865.0910034179688 108.12262725830078 L 845.7808227539062 108.49906158447266 L 827.2308959960938 108.97245788574219 L 809.4042358398438 109.5380859375 L 792.263671875 110.19122314453125 L 775.7721557617188 110.92713165283203 L 759.892578125 111.7410888671875 L 744.5878295898438 112.62836456298828 L 729.8208618164062 113.58422088623047 L 715.5545654296875 114.60392761230469 L 701.7518920898438 115.68276977539062 L 688.3756713867188 116.81600189208984 L 675.388916015625 117.99889373779297 L 662.7544555664062 119.22673034667969 L 650.435302734375 120.49476623535156 L 638.3942260742188 121.79827880859375 L 626.59423828125 123.13253784179688 L 614.998291015625 124.49281311035156 L 603.5691528320312 125.8743667602539 L 592.2698974609375 127.2724838256836 L 581.0632934570312 128.6824188232422 L 569.912353515625 130.09945678710938 L 558.7799682617188 131.51885986328125 L 547.6290283203125 132.93588256835938 L 536.4224243164062 134.3458251953125 L 525.1231079101562 135.7439422607422 L 513.6940307617188 137.12548828125 L 502.0980529785156 138.4857635498047 L 490.2980651855469 139.8200225830078 L 478.25701904296875 141.12353515625 L 465.9378356933594 142.39157104492188 L 453.3033752441406 143.61941528320312 L 440.3166198730469 144.80230712890625 L 426.9404296875 145.935546875 L 413.1377258300781 147.01437377929688 L 398.8714294433594 148.03408813476562 L 384.1044921875 148.9899444580078 L 368.79974365234375 149.87721252441406 L 352.920166015625 150.69117736816406 L 336.4286193847656 151.42709350585938 L 319.2880554199219 152.08021545410156 L 301.4613952636719 152.64585876464844 L 282.9114990234375 153.11924743652344 L 263.601318359375 153.4956817626953 L 243.4937744140625 153.77041625976562 L 222.5517578125 153.938720703125 L 200.73818969726562 153.99588012695312 Z" fill-opacity="0.6" clip-path="url(#JNrutDWBxUzy)" stroke-opacity="1" stroke-linejoin="bevel" stroke-miterlimit="10" stroke-width="0.8" stroke-dasharray=""/><path fill="rgb(197,176,213)" stroke="rgb(197,176,213)" paint-order="fill" d="M 200.73818969726562 144.28152465820312 L 200.73818969726562 149.13870239257812 L 200.73818969726562 149.13870239257812 L 222.5517578125 149.0711212158203 L 243.4937744140625 148.8721160888672 L 263.601318359375 148.54727172851562 L 282.9114990234375 148.10218811035156 L 301.4613952636719 147.54244995117188 L 319.2880554199219 146.87364196777344 L 336.4286193847656 146.10137939453125 L 352.920166015625 145.2312469482422 L 368.79974365234375 144.26882934570312 L 384.1044921875 143.2197265625 L 398.8714294433594 142.0895233154297 L 413.1377258300781 140.8838348388672 L 426.9404296875 139.60821533203125 L 440.3166198730469 138.26829528808594 L 453.3033752441406 136.86964416503906 L 465.9378356933594 135.41786193847656 L 478.25701904296875 133.91854858398438 L 490.2980651855469 132.3772735595703 L 502.0980529785156 130.79966735839844 L 513.6940307617188 129.1912841796875 L 525.1231079101562 127.5577392578125 L 536.4224243164062 125.90462493896484 L 547.6290283203125 124.2375259399414 L 558.7799682617188 122.5620346069336 L 569.912353515625 120.88374328613281 L 581.0632934570312 119.20825958251953 L 592.2698974609375 117.54115295410156 L 603.5691528320312 115.8880386352539 L 614.998291015625 114.2544937133789 L 626.59423828125 112.6461181640625 L 638.3942260742188 111.06849670410156 L 650.435302734375 109.52723693847656 L 662.7544555664062 108.02791595458984 L 675.388916015625 106.57613372802734 L 688.3756713867188 105.17748260498047 L 701.7518920898438 103.83756256103516 L 715.5545654296875 102.56195068359375 L 729.8208618164062 101.35624694824219 L 744.5878295898438 100.2260513305664 L 759.892578125 99.17694854736328 L 775.7721557617188 98.21453094482422 L 792.263671875 97.34439849853516 L 809.4042358398438 96.57212829589844 L 827.2308959960938 95.90333557128906 L 845.7808227539062 95.34359741210938 L 865.0910034179688 94.89850616455078 L 885.1985473632812 94.57366180419922 L 906.1405639648438 94.3746566772461 L 927.9541015625 94.30707550048828 L 927.9541015625 94.30707550048828 L 927.9541015625 89.44989776611328 L 927.9541015625 89.44989776611328 L 906.1405639648438 89.5174789428711 L 885.1985473632812 89.71649169921875 L 865.0910034179688 90.04133605957031 L 845.7808227539062 90.48641967773438 L 827.2308959960938 91.04615783691406 L 809.4042358398438 91.71495819091797 L 792.263671875 92.48722076416016 L 775.7721557617188 93.35736083984375 L 759.892578125 94.31977081298828 L 744.5878295898438 95.36888122558594 L 729.8208618164062 96.49907684326172 L 715.5545654296875 97.70477294921875 L 701.7518920898438 98.98038482666016 L 688.3756713867188 100.3203125 L 675.388916015625 101.71896362304688 L 662.7544555664062 103.17073822021484 L 650.435302734375 104.67005920410156 L 638.3942260742188 106.2113265991211 L 626.59423828125 107.7889404296875 L 614.998291015625 109.3973159790039 L 603.5691528320312 111.0308609008789 L 592.2698974609375 112.6839828491211 L 581.0632934570312 114.35108184814453 L 569.912353515625 116.02657318115234 L 558.7799682617188 117.7048568725586 L 547.6290283203125 119.3803482055664 L 536.4224243164062 121.04744720458984 L 525.1231079101562 122.70056915283203 L 513.6940307617188 124.33411407470703 L 502.0980529785156 125.94248962402344 L 490.2980651855469 127.52010345458984 L 478.25701904296875 129.06137084960938 L 465.9378356933594 130.56068420410156 L 453.3033752441406 132.01246643066406 L 440.3166198730469 133.41111755371094 L 426.9404296875 134.7510528564453 L 413.1377258300781 136.0266571044922 L 398.8714294433594 137.23236083984375 L 384.1044921875 138.362548828125 L 368.79974365234375 139.41165161132812 L 352.920166015625 140.3740692138672 L 336.4286193847656 141.2442169189453 L 319.2880554199219 142.0164794921875 L 301.4613952636719 142.68527221679688 L 282.9114990234375 143.24501037597656 L 263.601318359375 143.69009399414062 L 243.4937744140625 144.0149383544922 L 222.5517578125 144.21395874023438 L 200.73818969726562 144.28152465820312 Z" fill-opacity="0.6" clip-path="url(#JNrutDWBxUzy)" stroke-opacity="1" stroke-linejoin="bevel" stroke-miterlimit="10" stroke-width="0.8" stroke-dasharray=""/><path fill="rgb(140,86,75)" stroke="rgb(140,86,75)" paint-order="fill" d="M 200.73818969726562 197.71043395996094 L 200.73818969726562 221.99630737304688 L 200.73818969726562 221.99630737304688 L 222.5517578125 221.9547882080078 L 243.4937744140625 221.83253479003906 L 263.601318359375 221.63296508789062 L 282.9114990234375 221.35951232910156 L 301.4613952636719 221.01564025878906 L 319.2880554199219 220.60475158691406 L 336.4286193847656 220.13031005859375 L 352.920166015625 219.59573364257812 L 368.79974365234375 219.0044708251953 L 384.1044921875 218.3599395751953 L 398.8714294433594 217.6656036376953 L 413.1377258300781 216.92486572265625 L 426.9404296875 216.1411895751953 L 440.3166198730469 215.31800842285156 L 453.3033752441406 214.45872497558594 L 465.9378356933594 213.5668182373047 L 478.25701904296875 212.6457061767578 L 490.2980651855469 211.69882202148438 L 502.0980529785156 210.72959899902344 L 513.6940307617188 209.74148559570312 L 525.1231079101562 208.73789978027344 L 536.4224243164062 207.72230529785156 L 547.6290283203125 206.69810485839844 L 558.7799682617188 205.66876220703125 L 569.912353515625 204.6376953125 L 581.0632934570312 203.60833740234375 L 592.2698974609375 202.5841522216797 L 603.5691528320312 201.56854248046875 L 614.998291015625 200.56495666503906 L 626.59423828125 199.57684326171875 L 638.3942260742188 198.6076202392578 L 650.435302734375 197.66073608398438 L 662.7544555664062 196.7396240234375 L 675.388916015625 195.84771728515625 L 688.3756713867188 194.9884490966797 L 701.7518920898438 194.16525268554688 L 715.5545654296875 193.38157653808594 L 729.8208618164062 192.64083862304688 L 744.5878295898438 191.94650268554688 L 759.892578125 191.30197143554688 L 775.7721557617188 190.71070861816406 L 792.263671875 190.17613220214844 L 809.4042358398438 189.70169067382812 L 827.2308959960938 189.29080200195312 L 845.7808227539062 188.94692993164062 L 865.0910034179688 188.67349243164062 L 885.1985473632812 188.47390747070312 L 906.1405639648438 188.35165405273438 L 927.9541015625 188.3101348876953 L 927.9541015625 188.3101348876953 L 927.9541015625 164.02426147460938 L 927.9541015625 164.02426147460938 L 906.1405639648438 164.06578063964844 L 885.1985473632812 164.18804931640625 L 865.0910034179688 164.3876190185547 L 845.7808227539062 164.6610565185547 L 827.2308959960938 165.00494384765625 L 809.4042358398438 165.4158172607422 L 792.263671875 165.8902587890625 L 775.7721557617188 166.42483520507812 L 759.892578125 167.01609802246094 L 744.5878295898438 167.66062927246094 L 729.8208618164062 168.35498046875 L 715.5545654296875 169.095703125 L 701.7518920898438 169.87937927246094 L 688.3756713867188 170.70257568359375 L 675.388916015625 171.5618438720703 L 662.7544555664062 172.45375061035156 L 650.435302734375 173.3748779296875 L 638.3942260742188 174.32176208496094 L 626.59423828125 175.2909698486328 L 614.998291015625 176.2790985107422 L 603.5691528320312 177.2826690673828 L 592.2698974609375 178.29827880859375 L 581.0632934570312 179.32247924804688 L 569.912353515625 180.35182189941406 L 558.7799682617188 181.3828887939453 L 547.6290283203125 182.4122314453125 L 536.4224243164062 183.43643188476562 L 525.1231079101562 184.45204162597656 L 513.6940307617188 185.4556121826172 L 502.0980529785156 186.4437255859375 L 490.2980651855469 187.41294860839844 L 478.25701904296875 188.35983276367188 L 465.9378356933594 189.28094482421875 L 453.3033752441406 190.17286682128906 L 440.3166198730469 191.03213500976562 L 426.9404296875 191.85533142089844 L 413.1377258300781 192.63900756835938 L 398.8714294433594 193.37973022460938 L 384.1044921875 194.07408142089844 L 368.79974365234375 194.71859741210938 L 352.920166015625 195.30987548828125 L 336.4286193847656 195.8444366455078 L 319.2880554199219 196.3188934326172 L 301.4613952636719 196.72976684570312 L 282.9114990234375 197.0736541748047 L 263.601318359375 197.3470916748047 L 243.4937744140625 197.54666137695312 L 222.5517578125 197.66893005371094 L 200.73818969726562 197.71043395996094 Z" fill-opacity="0.6" clip-path="url(#JNrutDWBxUzy)" stroke-opacity="1" stroke-linejoin="bevel" stroke-miterlimit="10" stroke-width="0.8" stroke-dasharray=""/><path fill="rgb(196,156,148)" stroke="rgb(196,156,148)" paint-order="fill" d="M 200.73818969726562 309.4254455566406 L 200.73818969726562 353.1400146484375 L 200.73818969726562 353.1400146484375 L 222.5517578125 353.1245422363281 L 243.4937744140625 353.07904052734375 L 263.601318359375 353.0047302246094 L 282.9114990234375 352.9029235839844 L 301.4613952636719 352.77490234375 L 319.2880554199219 352.6219482421875 L 336.4286193847656 352.4453125 L 352.920166015625 352.2463073730469 L 368.79974365234375 352.02618408203125 L 384.1044921875 351.7862548828125 L 398.8714294433594 351.52777099609375 L 413.1377258300781 351.25201416015625 L 426.9404296875 350.96026611328125 L 440.3166198730469 350.6537780761719 L 453.3033752441406 350.3338928222656 L 465.9378356933594 350.0018615722656 L 478.25701904296875 349.658935546875 L 490.2980651855469 349.3064270019531 L 502.0980529785156 348.94561767578125 L 513.6940307617188 348.5777587890625 L 525.1231079101562 348.20416259765625 L 536.4224243164062 347.8260498046875 L 547.6290283203125 347.44476318359375 L 558.7799682617188 347.0615539550781 L 569.912353515625 346.6777038574219 L 581.0632934570312 346.2945251464844 L 592.2698974609375 345.9132080078125 L 603.5691528320312 345.5351257324219 L 614.998291015625 345.1615295410156 L 626.59423828125 344.7936706542969 L 638.3942260742188 344.4328308105469 L 650.435302734375 344.080322265625 L 662.7544555664062 343.7374267578125 L 675.388916015625 343.4053649902344 L 688.3756713867188 343.0854797363281 L 701.7518920898438 342.7790222167969 L 715.5545654296875 342.4872741699219 L 729.8208618164062 342.2115173339844 L 744.5878295898438 341.9530334472656 L 759.892578125 341.71307373046875 L 775.7721557617188 341.49298095703125 L 792.263671875 341.2939453125 L 809.4042358398438 341.1173400878906 L 827.2308959960938 340.96435546875 L 845.7808227539062 340.8363342285156 L 865.0910034179688 340.73455810546875 L 885.1985473632812 340.6602478027344 L 906.1405639648438 340.61474609375 L 927.9541015625 340.5992736816406 L 927.9541015625 340.5992736816406 L 927.9541015625 296.88470458984375 L 927.9541015625 296.88470458984375 L 906.1405639648438 296.9001770019531 L 885.1985473632812 296.9456787109375 L 865.0910034179688 297.0199890136719 L 845.7808227539062 297.1217956542969 L 827.2308959960938 297.24981689453125 L 809.4042358398438 297.40277099609375 L 792.263671875 297.57940673828125 L 775.7721557617188 297.7784118652344 L 759.892578125 297.99853515625 L 744.5878295898438 298.23846435546875 L 729.8208618164062 298.4969482421875 L 715.5545654296875 298.772705078125 L 701.7518920898438 299.064453125 L 688.3756713867188 299.37091064453125 L 675.388916015625 299.6908264160156 L 662.7544555664062 300.0228576660156 L 650.435302734375 300.36578369140625 L 638.3942260742188 300.71826171875 L 626.59423828125 301.0791015625 L 614.998291015625 301.44696044921875 L 603.5691528320312 301.820556640625 L 592.2698974609375 302.19866943359375 L 581.0632934570312 302.5799560546875 L 569.912353515625 302.9631652832031 L 558.7799682617188 303.34698486328125 L 547.6290283203125 303.7301940917969 L 536.4224243164062 304.1114807128906 L 525.1231079101562 304.4895935058594 L 513.6940307617188 304.8631896972656 L 502.0980529785156 305.2310485839844 L 490.2980651855469 305.5918884277344 L 478.25701904296875 305.94439697265625 L 465.9378356933594 306.28729248046875 L 453.3033752441406 306.6193542480469 L 440.3166198730469 306.9392395019531 L 426.9404296875 307.2456970214844 L 413.1377258300781 307.5374450683594 L 398.8714294433594 307.8132019042969 L 384.1044921875 308.0716857910156 L 368.79974365234375 308.3116455078125 L 352.920166015625 308.53173828125 L 336.4286193847656 308.73077392578125 L 319.2880554199219 308.9073791503906 L 301.4613952636719 309.06036376953125 L 282.9114990234375 309.1883850097656 L 263.601318359375 309.2901611328125 L 243.4937744140625 309.3644714355469 L 222.5517578125 309.40997314453125 L 200.73818969726562 309.4254455566406 Z" fill-opacity="0.6" clip-path="url(#JNrutDWBxUzy)" stroke-opacity="1" stroke-linejoin="bevel" stroke-miterlimit="10" stroke-width="0.8" stroke-dasharray=""/><path fill="rgb(227,119,194)" stroke="rgb(227,119,194)" paint-order="fill" d="M 200.73818969726562 353.1400146484375 L 200.73818969726562 416.28326416015625 L 200.73818969726562 416.28326416015625 L 222.5517578125 416.27301025390625 L 243.4937744140625 416.24285888671875 L 263.601318359375 416.193603515625 L 282.9114990234375 416.1261291503906 L 301.4613952636719 416.0412902832031 L 319.2880554199219 415.9399108886719 L 336.4286193847656 415.8228454589844 L 352.920166015625 415.6909484863281 L 368.79974365234375 415.5450744628906 L 384.1044921875 415.38604736328125 L 398.8714294433594 415.2147216796875 L 413.1377258300781 415.0319519042969 L 426.9404296875 414.8385925292969 L 440.3166198730469 414.6354675292969 L 453.3033752441406 414.4234619140625 L 465.9378356933594 414.2033996582031 L 478.25701904296875 413.9761047363281 L 490.2980651855469 413.74249267578125 L 502.0980529785156 413.50335693359375 L 513.6940307617188 413.2595520019531 L 525.1231079101562 413.0119323730469 L 536.4224243164062 412.7613220214844 L 547.6290283203125 412.5086364746094 L 558.7799682617188 412.254638671875 L 569.912353515625 412.000244140625 L 581.0632934570312 411.74627685546875 L 592.2698974609375 411.4935607910156 L 603.5691528320312 411.24298095703125 L 614.998291015625 410.995361328125 L 626.59423828125 410.7515563964844 L 638.3942260742188 410.51239013671875 L 650.435302734375 410.2787780761719 L 662.7544555664062 410.0514831542969 L 675.388916015625 409.8314208984375 L 688.3756713867188 409.6194152832031 L 701.7518920898438 409.4162902832031 L 715.5545654296875 409.2229309082031 L 729.8208618164062 409.0401611328125 L 744.5878295898438 408.8688659667969 L 759.892578125 408.7098388671875 L 775.7721557617188 408.5639343261719 L 792.263671875 408.4320373535156 L 809.4042358398438 408.3149719238281 L 827.2308959960938 408.2135925292969 L 845.7808227539062 408.1287536621094 L 865.0910034179688 408.061279296875 L 885.1985473632812 408.0120544433594 L 906.1405639648438 407.98187255859375 L 927.9541015625 407.97161865234375 L 927.9541015625 407.97161865234375 L 927.9541015625 344.828369140625 L 927.9541015625 344.828369140625 L 906.1405639648438 344.838623046875 L 885.1985473632812 344.8687744140625 L 865.0910034179688 344.91802978515625 L 845.7808227539062 344.9855041503906 L 827.2308959960938 345.0703430175781 L 809.4042358398438 345.1717224121094 L 792.263671875 345.2887878417969 L 775.7721557617188 345.4206848144531 L 759.892578125 345.5665588378906 L 744.5878295898438 345.7255859375 L 729.8208618164062 345.89691162109375 L 715.5545654296875 346.0796813964844 L 701.7518920898438 346.2730407714844 L 688.3756713867188 346.4761657714844 L 675.388916015625 346.68817138671875 L 662.7544555664062 346.9082336425781 L 650.435302734375 347.135498046875 L 638.3942260742188 347.369140625 L 626.59423828125 347.6082763671875 L 614.998291015625 347.8520812988281 L 603.5691528320312 348.0997009277344 L 592.2698974609375 348.3503112792969 L 581.0632934570312 348.6029968261719 L 569.912353515625 348.85699462890625 L 558.7799682617188 349.11138916015625 L 547.6290283203125 349.3653564453125 L 536.4224243164062 349.6180725097656 L 525.1231079101562 349.86865234375 L 513.6940307617188 350.11627197265625 L 502.0980529785156 350.3600769042969 L 490.2980651855469 350.5992126464844 L 478.25701904296875 350.8328552246094 L 465.9378356933594 351.06011962890625 L 453.3033752441406 351.28021240234375 L 440.3166198730469 351.4922180175781 L 426.9404296875 351.6953125 L 413.1377258300781 351.8887023925781 L 398.8714294433594 352.0714416503906 L 384.1044921875 352.2427673339844 L 368.79974365234375 352.40179443359375 L 352.920166015625 352.5476989746094 L 336.4286193847656 352.6795959472656 L 319.2880554199219 352.7966613769531 L 301.4613952636719 352.8980407714844 L 282.9114990234375 352.9828796386719 L 263.601318359375 353.05035400390625 L 243.4937744140625 353.0995788574219 L 222.5517578125 353.1297607421875 L 200.73818969726562 353.1400146484375 Z" fill-opacity="0.6" clip-path="url(#JNrutDWBxUzy)" stroke-opacity="1" stroke-linejoin="bevel" stroke-miterlimit="10" stroke-width="0.8" stroke-dasharray=""/><path fill="rgb(247,182,210)" stroke="rgb(247,182,210)" paint-order="fill" d="M 200.73818969726562 416.28326416015625 L 200.73818969726562 493.998046875 L 200.73818969726562 493.998046875 L 222.5517578125 493.9930114746094 L 243.4937744140625 493.9781799316406 L 263.601318359375 493.9540100097656 L 282.9114990234375 493.9208679199219 L 301.4613952636719 493.8791809082031 L 319.2880554199219 493.8293762207031 L 336.4286193847656 493.7718811035156 L 352.920166015625 493.70709228515625 L 368.79974365234375 493.63543701171875 L 384.1044921875 493.5573425292969 L 398.8714294433594 493.4731750488281 L 413.1377258300781 493.3834228515625 L 426.9404296875 493.2884521484375 L 440.3166198730469 493.18865966796875 L 453.3033752441406 493.08453369140625 L 465.9378356933594 492.9764404296875 L 478.25701904296875 492.86480712890625 L 490.2980651855469 492.75006103515625 L 502.0980529785156 492.6325988769531 L 513.6940307617188 492.5128479003906 L 525.1231079101562 492.3912048339844 L 536.4224243164062 492.26812744140625 L 547.6290283203125 492.1440124511719 L 558.7799682617188 492.0192565917969 L 569.912353515625 491.894287109375 L 581.0632934570312 491.76953125 L 592.2698974609375 491.6454162597656 L 603.5691528320312 491.5223388671875 L 614.998291015625 491.40069580078125 L 626.59423828125 491.28094482421875 L 638.3942260742188 491.1634826660156 L 650.435302734375 491.0487365722656 L 662.7544555664062 490.9371032714844 L 675.388916015625 490.8290100097656 L 688.3756713867188 490.724853515625 L 701.7518920898438 490.6250915527344 L 715.5545654296875 490.5301208496094 L 729.8208618164062 490.4403381347656 L 744.5878295898438 490.356201171875 L 759.892578125 490.278076171875 L 775.7721557617188 490.2064208984375 L 792.263671875 490.1416320800781 L 809.4042358398438 490.0841369628906 L 827.2308959960938 490.03436279296875 L 845.7808227539062 489.99267578125 L 865.0910034179688 489.95953369140625 L 885.1985473632812 489.93536376953125 L 906.1405639648438 489.9205322265625 L 927.9541015625 489.9154968261719 L 927.9541015625 489.9154968261719 L 927.9541015625 412.2007141113281 L 927.9541015625 412.2007141113281 L 906.1405639648438 412.20574951171875 L 885.1985473632812 412.2205810546875 L 865.0910034179688 412.2447509765625 L 845.7808227539062 412.27789306640625 L 827.2308959960938 412.319580078125 L 809.4042358398438 412.3693542480469 L 792.263671875 412.4268798828125 L 775.7721557617188 412.49163818359375 L 759.892578125 412.5633239746094 L 744.5878295898438 412.64141845703125 L 729.8208618164062 412.7255859375 L 715.5545654296875 412.8153381347656 L 701.7518920898438 412.9103088378906 L 688.3756713867188 413.0101013183594 L 675.388916015625 413.1142272949219 L 662.7544555664062 413.2223205566406 L 650.435302734375 413.3339538574219 L 638.3942260742188 413.4486999511719 L 626.59423828125 413.566162109375 L 614.998291015625 413.6859130859375 L 603.5691528320312 413.80755615234375 L 592.2698974609375 413.9306335449219 L 581.0632934570312 414.05474853515625 L 569.912353515625 414.17950439453125 L 558.7799682617188 414.3044738769531 L 547.6290283203125 414.4292297363281 L 536.4224243164062 414.5533447265625 L 525.1231079101562 414.6764221191406 L 513.6940307617188 414.7980651855469 L 502.0980529785156 414.9178161621094 L 490.2980651855469 415.0352783203125 L 478.25701904296875 415.1500244140625 L 465.9378356933594 415.26165771484375 L 453.3033752441406 415.3697509765625 L 440.3166198730469 415.473876953125 L 426.9404296875 415.57366943359375 L 413.1377258300781 415.66864013671875 L 398.8714294433594 415.7583923339844 L 384.1044921875 415.8425598144531 L 368.79974365234375 415.920654296875 L 352.920166015625 415.9923400878906 L 336.4286193847656 416.0570983886719 L 319.2880554199219 416.1146240234375 L 301.4613952636719 416.1643981933594 L 282.9114990234375 416.2060852050781 L 263.601318359375 416.2392272949219 L 243.4937744140625 416.2633972167969 L 222.5517578125 416.2782287597656 L 200.73818969726562 416.28326416015625 Z" fill-opacity="0.6" clip-path="url(#JNrutDWBxUzy)" stroke-opacity="1" stroke-linejoin="bevel" stroke-miterlimit="10" stroke-width="0.8" stroke-dasharray=""/><path fill="rgb(127,127,127)" stroke="rgb(127,127,127)" paint-order="fill" d="M 200.73818969726562 581.4271850585938 L 200.73818969726562 668.8562622070312 L 200.73818969726562 668.8562622070312 L 222.5517578125 668.8616943359375 L 243.4937744140625 668.8775634765625 L 263.601318359375 668.9035034179688 L 282.9114990234375 668.9390258789062 L 301.4613952636719 668.9837036132812 L 319.2880554199219 669.0370483398438 L 336.4286193847656 669.0986938476562 L 352.920166015625 669.1680908203125 L 368.79974365234375 669.2449340820312 L 384.1044921875 669.32861328125 L 398.8714294433594 669.4188232421875 L 413.1377258300781 669.5150146484375 L 426.9404296875 669.6168212890625 L 440.3166198730469 669.7237548828125 L 453.3033752441406 669.8353881835938 L 465.9378356933594 669.9512329101562 L 478.25701904296875 670.0708618164062 L 490.2980651855469 670.19384765625 L 502.0980529785156 670.3197631835938 L 513.6940307617188 670.4481201171875 L 525.1231079101562 670.5784912109375 L 536.4224243164062 670.7103881835938 L 547.6290283203125 670.8434448242188 L 558.7799682617188 670.9771728515625 L 569.912353515625 671.111083984375 L 581.0632934570312 671.2448120117188 L 592.2698974609375 671.3778076171875 L 603.5691528320312 671.509765625 L 614.998291015625 671.6400756835938 L 626.59423828125 671.7684326171875 L 638.3942260742188 671.8943481445312 L 650.435302734375 672.017333984375 L 662.7544555664062 672.136962890625 L 675.388916015625 672.2528686523438 L 688.3756713867188 672.3644409179688 L 701.7518920898438 672.4713745117188 L 715.5545654296875 672.5731811523438 L 729.8208618164062 672.6693725585938 L 744.5878295898438 672.7595825195312 L 759.892578125 672.8433227539062 L 775.7721557617188 672.9201049804688 L 792.263671875 672.9895629882812 L 809.4042358398438 673.0512084960938 L 827.2308959960938 673.1045532226562 L 845.7808227539062 673.1492309570312 L 865.0910034179688 673.1847534179688 L 885.1985473632812 673.2106323242188 L 906.1405639648438 673.2265625 L 927.9541015625 673.23193359375 L 927.9541015625 673.23193359375 L 927.9541015625 585.8027954101562 L 927.9541015625 585.8027954101562 L 906.1405639648438 585.7974243164062 L 885.1985473632812 585.7815551757812 L 865.0910034179688 585.755615234375 L 845.7808227539062 585.7200927734375 L 827.2308959960938 585.6754150390625 L 809.4042358398438 585.6220703125 L 792.263671875 585.5604248046875 L 775.7721557617188 585.490966796875 L 759.892578125 585.4141845703125 L 744.5878295898438 585.3304443359375 L 729.8208618164062 585.2402954101562 L 715.5545654296875 585.14404296875 L 701.7518920898438 585.042236328125 L 688.3756713867188 584.9353637695312 L 675.388916015625 584.82373046875 L 662.7544555664062 584.7078857421875 L 650.435302734375 584.5881958007812 L 638.3942260742188 584.4652099609375 L 626.59423828125 584.33935546875 L 614.998291015625 584.2109985351562 L 603.5691528320312 584.0806274414062 L 592.2698974609375 583.9486694335938 L 581.0632934570312 583.815673828125 L 569.912353515625 583.6819458007812 L 558.7799682617188 583.5480346679688 L 547.6290283203125 583.414306640625 L 536.4224243164062 583.28125 L 525.1231079101562 583.1493530273438 L 513.6940307617188 583.0189819335938 L 502.0980529785156 582.890625 L 490.2980651855469 582.7647705078125 L 478.25701904296875 582.6417846679688 L 465.9378356933594 582.5220947265625 L 453.3033752441406 582.40625 L 440.3166198730469 582.2946166992188 L 426.9404296875 582.1876831054688 L 413.1377258300781 582.0859375 L 398.8714294433594 581.9896850585938 L 384.1044921875 581.8995361328125 L 368.79974365234375 581.8157958984375 L 352.920166015625 581.739013671875 L 336.4286193847656 581.6695556640625 L 319.2880554199219 581.60791015625 L 301.4613952636719 581.5545654296875 L 282.9114990234375 581.5098876953125 L 263.601318359375 581.474365234375 L 243.4937744140625 581.4484252929688 L 222.5517578125 581.4325561523438 L 200.73818969726562 581.4271850585938 Z" fill-opacity="0.6" clip-path="url(#JNrutDWBxUzy)" stroke-opacity="1" stroke-linejoin="bevel" stroke-miterlimit="10" stroke-width="0.8" stroke-dasharray=""/><path fill="rgb(199,199,199)" stroke="rgb(199,199,199)" paint-order="fill" d="M 200.73818969726562 493.998046875 L 200.73818969726562 581.4271850585938 L 200.73818969726562 581.4271850585938 L 222.5517578125 581.4273681640625 L 243.4937744140625 581.4278564453125 L 263.601318359375 581.4287719726562 L 282.9114990234375 581.429931640625 L 301.4613952636719 581.4314575195312 L 319.2880554199219 581.4332275390625 L 336.4286193847656 581.435302734375 L 352.920166015625 581.4376220703125 L 368.79974365234375 581.440185546875 L 384.1044921875 581.4429931640625 L 398.8714294433594 581.4459838867188 L 413.1377258300781 581.44921875 L 426.9404296875 581.45263671875 L 440.3166198730469 581.4562377929688 L 453.3033752441406 581.4599609375 L 465.9378356933594 581.4638671875 L 478.25701904296875 581.4678344726562 L 490.2980651855469 581.4719848632812 L 502.0980529785156 581.4761962890625 L 513.6940307617188 581.48046875 L 525.1231079101562 581.48486328125 L 536.4224243164062 581.4892578125 L 547.6290283203125 581.4937133789062 L 558.7799682617188 581.4981689453125 L 569.912353515625 581.502685546875 L 581.0632934570312 581.5071411132812 L 592.2698974609375 581.5115966796875 L 603.5691528320312 581.5160522460938 L 614.998291015625 581.5203857421875 L 626.59423828125 581.5247192382812 L 638.3942260742188 581.5289306640625 L 650.435302734375 581.5330200195312 L 662.7544555664062 581.5370483398438 L 675.388916015625 581.5409545898438 L 688.3756713867188 581.544677734375 L 701.7518920898438 581.5482177734375 L 715.5545654296875 581.5516357421875 L 729.8208618164062 581.5548706054688 L 744.5878295898438 581.5579223632812 L 759.892578125 581.5607299804688 L 775.7721557617188 581.5632934570312 L 792.263671875 581.5656127929688 L 809.4042358398438 581.5676879882812 L 827.2308959960938 581.5694580078125 L 845.7808227539062 581.5709228515625 L 865.0910034179688 581.5721435546875 L 885.1985473632812 581.572998046875 L 906.1405639648438 581.5735473632812 L 927.9541015625 581.57373046875 L 927.9541015625 581.57373046875 L 927.9541015625 494.14459228515625 L 927.9541015625 494.14459228515625 L 906.1405639648438 494.1444091796875 L 885.1985473632812 494.1438903808594 L 865.0910034179688 494.14300537109375 L 845.7808227539062 494.1418151855469 L 827.2308959960938 494.14031982421875 L 809.4042358398438 494.1385498046875 L 792.263671875 494.136474609375 L 775.7721557617188 494.1341552734375 L 759.892578125 494.1315612792969 L 744.5878295898438 494.1287841796875 L 729.8208618164062 494.1257629394531 L 715.5545654296875 494.1225280761719 L 701.7518920898438 494.1191101074219 L 688.3756713867188 494.11553955078125 L 675.388916015625 494.1117858886719 L 662.7544555664062 494.10791015625 L 650.435302734375 494.1039123535156 L 638.3942260742188 494.09979248046875 L 626.59423828125 494.0955810546875 L 614.998291015625 494.0912780761719 L 603.5691528320312 494.0869140625 L 592.2698974609375 494.0824890136719 L 581.0632934570312 494.0780334472656 L 569.912353515625 494.07354736328125 L 558.7799682617188 494.0690612792969 L 547.6290283203125 494.0646057128906 L 536.4224243164062 494.0601501464844 L 525.1231079101562 494.05572509765625 L 513.6940307617188 494.0513610839844 L 502.0980529785156 494.04705810546875 L 490.2980651855469 494.0428466796875 L 478.25701904296875 494.0387268066406 L 465.9378356933594 494.0346984863281 L 453.3033752441406 494.03082275390625 L 440.3166198730469 494.027099609375 L 426.9404296875 494.02349853515625 L 413.1377258300781 494.0201110839844 L 398.8714294433594 494.0168762207031 L 384.1044921875 494.01385498046875 L 368.79974365234375 494.01104736328125 L 352.920166015625 494.00848388671875 L 336.4286193847656 494.00616455078125 L 319.2880554199219 494.00408935546875 L 301.4613952636719 494.0023193359375 L 282.9114990234375 494.00079345703125 L 263.601318359375 493.9996337890625 L 243.4937744140625 493.9987487792969 L 222.5517578125 493.99822998046875 L 200.73818969726562 493.998046875 Z" fill-opacity="0.6" clip-path="url(#JNrutDWBxUzy)" stroke-opacity="1" stroke-linejoin="bevel" stroke-miterlimit="10" stroke-width="0.8" stroke-dasharray=""/><path fill="rgb(188,189,34)" stroke="rgb(188,189,34)" paint-order="fill" d="M 200.73818969726562 668.8562622070312 L 200.73818969726562 765.999755859375 L 200.73818969726562 765.999755859375 L 222.5517578125 766.0103759765625 L 243.4937744140625 766.0416259765625 L 263.601318359375 766.0925903320312 L 282.9114990234375 766.1624145507812 L 301.4613952636719 766.250244140625 L 319.2880554199219 766.355224609375 L 336.4286193847656 766.4764404296875 L 352.920166015625 766.6129760742188 L 368.79974365234375 766.7639770507812 L 384.1044921875 766.9286499023438 L 398.8714294433594 767.1060180664062 L 413.1377258300781 767.2952270507812 L 426.9404296875 767.495361328125 L 440.3166198730469 767.7056884765625 L 453.3033752441406 767.9251708984375 L 465.9378356933594 768.1529541015625 L 478.25701904296875 768.3882446289062 L 490.2980651855469 768.630126953125 L 502.0980529785156 768.877685546875 L 513.6940307617188 769.130126953125 L 525.1231079101562 769.386474609375 L 536.4224243164062 769.6458740234375 L 547.6290283203125 769.9075317382812 L 558.7799682617188 770.1704711914062 L 569.912353515625 770.433837890625 L 581.0632934570312 770.69677734375 L 592.2698974609375 770.9583740234375 L 603.5691528320312 771.2177734375 L 614.998291015625 771.47412109375 L 626.59423828125 771.7265625 L 638.3942260742188 771.97412109375 L 650.435302734375 772.2160034179688 L 662.7544555664062 772.4512939453125 L 675.388916015625 772.6791381835938 L 688.3756713867188 772.8986206054688 L 701.7518920898438 773.10888671875 L 715.5545654296875 773.30908203125 L 729.8208618164062 773.498291015625 L 744.5878295898438 773.6756591796875 L 759.892578125 773.8402709960938 L 775.7721557617188 773.9913330078125 L 792.263671875 774.1278686523438 L 809.4042358398438 774.2490234375 L 827.2308959960938 774.35400390625 L 845.7808227539062 774.4418334960938 L 865.0910034179688 774.5116577148438 L 885.1985473632812 774.5626831054688 L 906.1405639648438 774.5938720703125 L 927.9541015625 774.6044921875 L 927.9541015625 774.6044921875 L 927.9541015625 677.4609985351562 L 927.9541015625 677.4609985351562 L 906.1405639648438 677.450439453125 L 885.1985473632812 677.419189453125 L 865.0910034179688 677.3682250976562 L 845.7808227539062 677.29833984375 L 827.2308959960938 677.2105102539062 L 809.4042358398438 677.1055908203125 L 792.263671875 676.984375 L 775.7721557617188 676.8478393554688 L 759.892578125 676.69677734375 L 744.5878295898438 676.5321655273438 L 729.8208618164062 676.3547973632812 L 715.5545654296875 676.1655883789062 L 701.7518920898438 675.9653930664062 L 688.3756713867188 675.755126953125 L 675.388916015625 675.53564453125 L 662.7544555664062 675.3078002929688 L 650.435302734375 675.072509765625 L 638.3942260742188 674.8306274414062 L 626.59423828125 674.5830688476562 L 614.998291015625 674.3306884765625 L 603.5691528320312 674.0743408203125 L 592.2698974609375 673.8148803710938 L 581.0632934570312 673.5532836914062 L 569.912353515625 673.2903442382812 L 558.7799682617188 673.0269775390625 L 547.6290283203125 672.7640380859375 L 536.4224243164062 672.50244140625 L 525.1231079101562 672.2429809570312 L 513.6940307617188 671.9866333007812 L 502.0980529785156 671.7342529296875 L 490.2980651855469 671.4866943359375 L 478.25701904296875 671.2448120117188 L 465.9378356933594 671.009521484375 L 453.3033752441406 670.7816772460938 L 440.3166198730469 670.5621948242188 L 426.9404296875 670.3519287109375 L 413.1377258300781 670.1517333984375 L 398.8714294433594 669.9625244140625 L 384.1044921875 669.78515625 L 368.79974365234375 669.6205444335938 L 352.920166015625 669.469482421875 L 336.4286193847656 669.3329467773438 L 319.2880554199219 669.2117309570312 L 301.4613952636719 669.1068115234375 L 282.9114990234375 669.0189819335938 L 263.601318359375 668.9490966796875 L 243.4937744140625 668.8981323242188 L 222.5517578125 668.8668823242188 L 200.73818969726562 668.8562622070312 Z" fill-opacity="0.6" clip-path="url(#JNrutDWBxUzy)" stroke-opacity="1" stroke-linejoin="bevel" stroke-miterlimit="10" stroke-width="0.8" stroke-dasharray=""/><path fill="rgb(219,219,141)" stroke="rgb(219,219,141)" paint-order="fill" d="M 200.73818969726562 765.999755859375 L 200.73818969726562 872.8576049804688 L 200.73818969726562 872.8576049804688 L 222.5517578125 872.8734130859375 L 243.4937744140625 872.9199829101562 L 263.601318359375 872.9960327148438 L 282.9114990234375 873.1002197265625 L 301.4613952636719 873.231201171875 L 319.2880554199219 873.3877563476562 L 336.4286193847656 873.5684814453125 L 352.920166015625 873.7721557617188 L 368.79974365234375 873.9974365234375 L 384.1044921875 874.2429809570312 L 398.8714294433594 874.5075073242188 L 413.1377258300781 874.7897338867188 L 426.9404296875 875.0882568359375 L 440.3166198730469 875.4019165039062 L 453.3033752441406 875.729248046875 L 465.9378356933594 876.069091796875 L 478.25701904296875 876.4199829101562 L 490.2980651855469 876.78076171875 L 502.0980529785156 877.1500244140625 L 513.6940307617188 877.5264282226562 L 525.1231079101562 877.9088134765625 L 536.4224243164062 878.2957153320312 L 547.6290283203125 878.6859130859375 L 558.7799682617188 879.0780639648438 L 569.912353515625 879.4708862304688 L 581.0632934570312 879.8630981445312 L 592.2698974609375 880.2532958984375 L 603.5691528320312 880.6401977539062 L 614.998291015625 881.0225219726562 L 626.59423828125 881.3989868164062 L 638.3942260742188 881.7682495117188 L 650.435302734375 882.1290283203125 L 662.7544555664062 882.4799194335938 L 675.388916015625 882.8197021484375 L 688.3756713867188 883.1470947265625 L 701.7518920898438 883.460693359375 L 715.5545654296875 883.75927734375 L 729.8208618164062 884.04150390625 L 744.5878295898438 884.3060302734375 L 759.892578125 884.5515747070312 L 775.7721557617188 884.77685546875 L 792.263671875 884.9805297851562 L 809.4042358398438 885.1612548828125 L 827.2308959960938 885.3178100585938 L 845.7808227539062 885.4487915039062 L 865.0910034179688 885.552978515625 L 885.1985473632812 885.6290283203125 L 906.1405639648438 885.6755981445312 L 927.9541015625 885.69140625 L 927.9541015625 885.69140625 L 927.9541015625 778.8336181640625 L 927.9541015625 778.8336181640625 L 906.1405639648438 778.8177490234375 L 885.1985473632812 778.7711791992188 L 865.0910034179688 778.6951904296875 L 845.7808227539062 778.5910034179688 L 827.2308959960938 778.4599609375 L 809.4042358398438 778.3034057617188 L 792.263671875 778.1226806640625 L 775.7721557617188 777.9190063476562 L 759.892578125 777.6937255859375 L 744.5878295898438 777.4481811523438 L 729.8208618164062 777.1836547851562 L 715.5545654296875 776.9014892578125 L 701.7518920898438 776.6029052734375 L 688.3756713867188 776.2892456054688 L 675.388916015625 775.9619140625 L 662.7544555664062 775.6221313476562 L 650.435302734375 775.2711791992188 L 638.3942260742188 774.9104614257812 L 626.59423828125 774.5411987304688 L 614.998291015625 774.1647338867188 L 603.5691528320312 773.7823486328125 L 592.2698974609375 773.3954467773438 L 581.0632934570312 773.0052490234375 L 569.912353515625 772.6130981445312 L 558.7799682617188 772.2202758789062 L 547.6290283203125 771.828125 L 536.4224243164062 771.4379272460938 L 525.1231079101562 771.0509643554688 L 513.6940307617188 770.6686401367188 L 502.0980529785156 770.2921752929688 L 490.2980651855469 769.9229125976562 L 478.25701904296875 769.5621948242188 L 465.9378356933594 769.2112426757812 L 453.3033752441406 768.8714599609375 L 440.3166198730469 768.5440673828125 L 426.9404296875 768.23046875 L 413.1377258300781 767.931884765625 L 398.8714294433594 767.649658203125 L 384.1044921875 767.3851318359375 L 368.79974365234375 767.1395874023438 L 352.920166015625 766.9143676757812 L 336.4286193847656 766.710693359375 L 319.2880554199219 766.5299072265625 L 301.4613952636719 766.3734130859375 L 282.9114990234375 766.2423706054688 L 263.601318359375 766.13818359375 L 243.4937744140625 766.0621337890625 L 222.5517578125 766.0155639648438 L 200.73818969726562 765.999755859375 Z" fill-opacity="0.6" clip-path="url(#JNrutDWBxUzy)" stroke-opacity="1" stroke-linejoin="bevel" stroke-miterlimit="10" stroke-width="0.8" stroke-dasharray=""/><path fill="rgb(23,190,207)" stroke="rgb(23,190,207)" paint-order="fill" d="M 200.73818969726562 275.42523193359375 L 200.73818969726562 309.4254455566406 L 200.73818969726562 309.4254455566406 L 222.5517578125 309.4047546386719 L 243.4937744140625 309.3439025878906 L 263.601318359375 309.2445373535156 L 282.9114990234375 309.1084289550781 L 301.4613952636719 308.9372253417969 L 319.2880554199219 308.7326965332031 L 336.4286193847656 308.4964904785156 L 352.920166015625 308.2303771972656 L 368.79974365234375 307.93603515625 L 384.1044921875 307.61517333984375 L 398.8714294433594 307.2695007324219 L 413.1377258300781 306.9007568359375 L 426.9404296875 306.5106201171875 L 440.3166198730469 306.1007995605469 L 453.3033752441406 305.67303466796875 L 465.9378356933594 305.2290344238281 L 478.25701904296875 304.7704772949219 L 490.2980651855469 304.2991027832031 L 502.0980529785156 303.81658935546875 L 513.6940307617188 303.3246765136719 L 525.1231079101562 302.8250732421875 L 536.4224243164062 302.3194885253906 L 547.6290283203125 301.8096008300781 L 558.7799682617188 301.29718017578125 L 569.912353515625 300.78387451171875 L 581.0632934570312 300.2714538574219 L 592.2698974609375 299.7615966796875 L 603.5691528320312 299.2559814453125 L 614.998291015625 298.7563781738281 L 626.59423828125 298.26446533203125 L 638.3942260742188 297.781982421875 L 650.435302734375 297.3105773925781 L 662.7544555664062 296.8520202636719 L 675.388916015625 296.40802001953125 L 688.3756713867188 295.9802551269531 L 701.7518920898438 295.5704345703125 L 715.5545654296875 295.1802978515625 L 729.8208618164062 294.8115539550781 L 744.5878295898438 294.4659118652344 L 759.892578125 294.1450500488281 L 775.7721557617188 293.8506774902344 L 792.263671875 293.5845642089844 L 809.4042358398438 293.348388671875 L 827.2308959960938 293.1438293457031 L 845.7808227539062 292.9726257324219 L 865.0910034179688 292.8365173339844 L 885.1985473632812 292.7371520996094 L 906.1405639648438 292.6763000488281 L 927.9541015625 292.6556396484375 L 927.9541015625 292.6556396484375 L 927.9541015625 258.6553955078125 L 927.9541015625 258.6553955078125 L 906.1405639648438 258.67608642578125 L 885.1985473632812 258.7369384765625 L 865.0910034179688 258.8363037109375 L 845.7808227539062 258.972412109375 L 827.2308959960938 259.14361572265625 L 809.4042358398438 259.34814453125 L 792.263671875 259.5843505859375 L 775.7721557617188 259.8504638671875 L 759.892578125 260.1448059082031 L 744.5878295898438 260.4656677246094 L 729.8208618164062 260.81134033203125 L 715.5545654296875 261.1800842285156 L 701.7518920898438 261.5702209472656 L 688.3756713867188 261.98004150390625 L 675.388916015625 262.4078063964844 L 662.7544555664062 262.851806640625 L 650.435302734375 263.31036376953125 L 638.3942260742188 263.7817687988281 L 626.59423828125 264.2642517089844 L 614.998291015625 264.75616455078125 L 603.5691528320312 265.2557678222656 L 592.2698974609375 265.7613525390625 L 581.0632934570312 266.271240234375 L 569.912353515625 266.7836608886719 L 558.7799682617188 267.2969665527344 L 547.6290283203125 267.80938720703125 L 536.4224243164062 268.31927490234375 L 525.1231079101562 268.8248596191406 L 513.6940307617188 269.324462890625 L 502.0980529785156 269.8163757324219 L 490.2980651855469 270.29888916015625 L 478.25701904296875 270.770263671875 L 465.9378356933594 271.22882080078125 L 453.3033752441406 271.6728210449219 L 440.3166198730469 272.1005859375 L 426.9404296875 272.5104064941406 L 413.1377258300781 272.9005432128906 L 398.8714294433594 273.269287109375 L 384.1044921875 273.6149597167969 L 368.79974365234375 273.9358215332031 L 352.920166015625 274.23016357421875 L 336.4286193847656 274.49627685546875 L 319.2880554199219 274.73248291015625 L 301.4613952636719 274.93701171875 L 282.9114990234375 275.10821533203125 L 263.601318359375 275.24432373046875 L 243.4937744140625 275.34368896484375 L 222.5517578125 275.404541015625 L 200.73818969726562 275.42523193359375 Z" fill-opacity="0.6" clip-path="url(#JNrutDWBxUzy)" stroke-opacity="1" stroke-linejoin="bevel" stroke-miterlimit="10" stroke-width="0.8" stroke-dasharray=""/><path fill="rgb(158,218,229)" stroke="rgb(158,218,229)" paint-order="fill" d="M 200.73818969726562 139.4243621826172 L 200.73818969726562 144.28152465820312 L 200.73818969726562 144.28152465820312 L 222.5517578125 144.208740234375 L 243.4937744140625 143.994384765625 L 263.601318359375 143.6444854736328 L 282.9114990234375 143.16506958007812 L 301.4613952636719 142.56214904785156 L 319.2880554199219 141.84176635742188 L 336.4286193847656 141.00994873046875 L 352.920166015625 140.07269287109375 L 368.79974365234375 139.0360565185547 L 384.1044921875 137.90603637695312 L 398.8714294433594 136.68865966796875 L 413.1377258300781 135.3899688720703 L 426.9404296875 134.01597595214844 L 440.3166198730469 132.57269287109375 L 453.3033752441406 131.06617736816406 L 465.9378356933594 129.50242614746094 L 478.25701904296875 127.88745880126953 L 490.2980651855469 126.2273178100586 L 502.0980529785156 124.52802276611328 L 513.6940307617188 122.79559326171875 L 525.1231079101562 121.03605651855469 L 536.4224243164062 119.25543212890625 L 547.6290283203125 117.45975494384766 L 558.7799682617188 115.65503692626953 L 569.912353515625 113.84730529785156 L 581.0632934570312 112.04258728027344 L 592.2698974609375 110.24690246582031 L 603.5691528320312 108.4662857055664 L 614.998291015625 106.70674896240234 L 626.59423828125 104.97431945800781 L 638.3942260742188 103.27501678466797 L 650.435302734375 101.61488342285156 L 662.7544555664062 99.99992370605469 L 675.388916015625 98.43616485595703 L 688.3756713867188 96.92964172363281 L 701.7518920898438 95.48636627197266 L 715.5545654296875 94.11237335205078 L 729.8208618164062 92.81367492675781 L 744.5878295898438 91.59630584716797 L 759.892578125 90.46629333496094 L 775.7721557617188 89.42964172363281 L 792.263671875 88.49239349365234 L 809.4042358398438 87.66056823730469 L 827.2308959960938 86.940185546875 L 845.7808227539062 86.33727264404297 L 865.0910034179688 85.85785675048828 L 885.1985473632812 85.5079574584961 L 906.1405639648438 85.2936019897461 L 927.9541015625 85.22080993652344 L 927.9541015625 85.22080993652344 L 927.9541015625 80.36363983154297 L 927.9541015625 80.36363983154297 L 906.1405639648438 80.4364242553711 L 885.1985473632812 80.65078735351562 L 865.0910034179688 81.00068664550781 L 845.7808227539062 81.4801025390625 L 827.2308959960938 82.08301544189453 L 809.4042358398438 82.80339813232422 L 792.263671875 83.63522338867188 L 775.7721557617188 84.57247161865234 L 759.892578125 85.60911560058594 L 744.5878295898438 86.7391357421875 L 729.8208618164062 87.95650482177734 L 715.5545654296875 89.25519561767578 L 701.7518920898438 90.62919616699219 L 688.3756713867188 92.07246398925781 L 675.388916015625 93.57899475097656 L 662.7544555664062 95.14274597167969 L 650.435302734375 96.75770568847656 L 638.3942260742188 98.4178466796875 L 626.59423828125 100.11714172363281 L 614.998291015625 101.84957122802734 L 603.5691528320312 103.6091079711914 L 592.2698974609375 105.38973236083984 L 581.0632934570312 107.18540954589844 L 569.912353515625 108.99012756347656 L 558.7799682617188 110.79785919189453 L 547.6290283203125 112.60257720947266 L 536.4224243164062 114.39826202392578 L 525.1231079101562 116.17888641357422 L 513.6940307617188 117.93842315673828 L 502.0980529785156 119.67085266113281 L 490.2980651855469 121.37014770507812 L 478.25701904296875 123.03028869628906 L 465.9378356933594 124.64524841308594 L 453.3033752441406 126.20899963378906 L 440.3166198730469 127.71552276611328 L 426.9404296875 129.15879821777344 L 413.1377258300781 130.5327911376953 L 398.8714294433594 131.83148193359375 L 384.1044921875 133.04885864257812 L 368.79974365234375 134.1788787841797 L 352.920166015625 135.21551513671875 L 336.4286193847656 136.15277099609375 L 319.2880554199219 136.98460388183594 L 301.4613952636719 137.70498657226562 L 282.9114990234375 138.30789184570312 L 263.601318359375 138.7873077392578 L 243.4937744140625 139.13720703125 L 222.5517578125 139.3515625 L 200.73818969726562 139.4243621826172 Z" fill-opacity="0.6" clip-path="url(#JNrutDWBxUzy)" stroke-opacity="1" stroke-linejoin="bevel" stroke-miterlimit="10" stroke-width="0.8" stroke-dasharray=""/><path fill="rgb(31,119,180)" stroke="rgb(0,0,0)" paint-order="fill" d="M 189.49258422851562 139.4243621826172 L 200.73818969726562 139.4243621826172 L 200.73818969726562 1120.573486328125 L 189.49258422851562 1120.573486328125 L 189.49258422851562 139.4243621826172" fill-opacity="0.9019607843137255" clip-path="url(#mMGNBnOFqArp)" stroke-opacity="0.2" stroke-linejoin="bevel" stroke-miterlimit="10" stroke-width="0.5" stroke-dasharray=""/><path fill="rgb(174,199,232)" stroke="rgb(0,0,0)" paint-order="fill" d="M 927.9541015625 889.9205322265625 L 939.19970703125 889.9205322265625 L 939.19970703125 1137.6363525390625 L 927.9541015625 1137.6363525390625 L 927.9541015625 889.9205322265625" fill-opacity="0.9019607843137255" clip-path="url(#mMGNBnOFqArp)" stroke-opacity="0.2" stroke-linejoin="bevel" stroke-miterlimit="10" stroke-width="0.5" stroke-dasharray=""/><path fill="rgb(255,127,14)" stroke="rgb(0,0,0)" paint-order="fill" d="M 927.9541015625 98.53616333007812 L 939.19970703125 98.53616333007812 L 939.19970703125 103.39334106445312 L 927.9541015625 103.39334106445312 L 927.9541015625 98.53616333007812" fill-opacity="0.9019607843137255" clip-path="url(#mMGNBnOFqArp)" stroke-opacity="0.2" stroke-linejoin="bevel" stroke-miterlimit="10" stroke-width="0.5" stroke-dasharray=""/><path fill="rgb(255,187,120)" stroke="rgb(0,0,0)" paint-order="fill" d="M 927.9541015625 150.08082580566406 L 939.19970703125 150.08082580566406 L 939.19970703125 159.79518127441406 L 927.9541015625 159.79518127441406 L 927.9541015625 150.08082580566406" fill-opacity="0.9019607843137255" clip-path="url(#mMGNBnOFqArp)" stroke-opacity="0.2" stroke-linejoin="bevel" stroke-miterlimit="10" stroke-width="0.5" stroke-dasharray=""/><path fill="rgb(44,160,44)" stroke="rgb(0,0,0)" paint-order="fill" d="M 927.9541015625 239.85479736328125 L 939.19970703125 239.85479736328125 L 939.19970703125 254.4263153076172 L 927.9541015625 254.4263153076172 L 927.9541015625 239.85479736328125" fill-opacity="0.9019607843137255" clip-path="url(#mMGNBnOFqArp)" stroke-opacity="0.2" stroke-linejoin="bevel" stroke-miterlimit="10" stroke-width="0.5" stroke-dasharray=""/><path fill="rgb(152,223,138)" stroke="rgb(0,0,0)" paint-order="fill" d="M 927.9541015625 131.28021240234375 L 939.19970703125 131.28021240234375 L 939.19970703125 145.8517303466797 L 927.9541015625 145.8517303466797 L 927.9541015625 131.28021240234375" fill-opacity="0.9019607843137255" clip-path="url(#mMGNBnOFqArp)" stroke-opacity="0.2" stroke-linejoin="bevel" stroke-miterlimit="10" stroke-width="0.5" stroke-dasharray=""/><path fill="rgb(214,39,40)" stroke="rgb(0,0,0)" paint-order="fill" d="M 927.9541015625 216.19700622558594 L 939.19970703125 216.19700622558594 L 939.19970703125 235.62570190429688 L 927.9541015625 235.62570190429688 L 927.9541015625 216.19700622558594" fill-opacity="0.9019607843137255" clip-path="url(#mMGNBnOFqArp)" stroke-opacity="0.2" stroke-linejoin="bevel" stroke-miterlimit="10" stroke-width="0.5" stroke-dasharray=""/><path fill="rgb(255,152,150)" stroke="rgb(0,0,0)" paint-order="fill" d="M 927.9541015625 192.5392303466797 L 939.19970703125 192.5392303466797 L 939.19970703125 211.96792602539062 L 927.9541015625 211.96792602539062 L 927.9541015625 192.5392303466797" fill-opacity="0.9019607843137255" clip-path="url(#mMGNBnOFqArp)" stroke-opacity="0.2" stroke-linejoin="bevel" stroke-miterlimit="10" stroke-width="0.5" stroke-dasharray=""/><path fill="rgb(148,103,189)" stroke="rgb(0,0,0)" paint-order="fill" d="M 927.9541015625 107.62242889404297 L 939.19970703125 107.62242889404297 L 939.19970703125 127.0511245727539 L 927.9541015625 127.0511245727539 L 927.9541015625 107.62242889404297" fill-opacity="0.9019607843137255" clip-path="url(#mMGNBnOFqArp)" stroke-opacity="0.2" stroke-linejoin="bevel" stroke-miterlimit="10" stroke-width="0.5" stroke-dasharray=""/><path fill="rgb(197,176,213)" stroke="rgb(0,0,0)" paint-order="fill" d="M 927.9541015625 89.44989776611328 L 939.19970703125 89.44989776611328 L 939.19970703125 94.30707550048828 L 927.9541015625 94.30707550048828 L 927.9541015625 89.44989776611328" fill-opacity="0.9019607843137255" clip-path="url(#mMGNBnOFqArp)" stroke-opacity="0.2" stroke-linejoin="bevel" stroke-miterlimit="10" stroke-width="0.5" stroke-dasharray=""/><path fill="rgb(140,86,75)" stroke="rgb(0,0,0)" paint-order="fill" d="M 927.9541015625 164.02426147460938 L 939.19970703125 164.02426147460938 L 939.19970703125 188.3101348876953 L 927.9541015625 188.3101348876953 L 927.9541015625 164.02426147460938" fill-opacity="0.9019607843137255" clip-path="url(#mMGNBnOFqArp)" stroke-opacity="0.2" stroke-linejoin="bevel" stroke-miterlimit="10" stroke-width="0.5" stroke-dasharray=""/><path fill="rgb(196,156,148)" stroke="rgb(0,0,0)" paint-order="fill" d="M 927.9541015625 296.88470458984375 L 939.19970703125 296.88470458984375 L 939.19970703125 340.5992736816406 L 927.9541015625 340.5992736816406 L 927.9541015625 296.88470458984375" fill-opacity="0.9019607843137255" clip-path="url(#mMGNBnOFqArp)" stroke-opacity="0.2" stroke-linejoin="bevel" stroke-miterlimit="10" stroke-width="0.5" stroke-dasharray=""/><path fill="rgb(227,119,194)" stroke="rgb(0,0,0)" paint-order="fill" d="M 927.9541015625 344.828369140625 L 939.19970703125 344.828369140625 L 939.19970703125 407.97161865234375 L 927.9541015625 407.97161865234375 L 927.9541015625 344.828369140625" fill-opacity="0.9019607843137255" clip-path="url(#mMGNBnOFqArp)" stroke-opacity="0.2" stroke-linejoin="bevel" stroke-miterlimit="10" stroke-width="0.5" stroke-dasharray=""/><path fill="rgb(247,182,210)" stroke="rgb(0,0,0)" paint-order="fill" d="M 927.9541015625 412.2007141113281 L 939.19970703125 412.2007141113281 L 939.19970703125 489.9154968261719 L 927.9541015625 489.9154968261719 L 927.9541015625 412.2007141113281" fill-opacity="0.9019607843137255" clip-path="url(#mMGNBnOFqArp)" stroke-opacity="0.2" stroke-linejoin="bevel" stroke-miterlimit="10" stroke-width="0.5" stroke-dasharray=""/><path fill="rgb(127,127,127)" stroke="rgb(0,0,0)" paint-order="fill" d="M 927.9541015625 585.8027954101562 L 939.19970703125 585.8027954101562 L 939.19970703125 673.23193359375 L 927.9541015625 673.23193359375 L 927.9541015625 585.8027954101562" fill-opacity="0.9019607843137255" clip-path="url(#mMGNBnOFqArp)" stroke-opacity="0.2" stroke-linejoin="bevel" stroke-miterlimit="10" stroke-width="0.5" stroke-dasharray=""/><path fill="rgb(199,199,199)" stroke="rgb(0,0,0)" paint-order="fill" d="M 927.9541015625 494.14459228515625 L 939.19970703125 494.14459228515625 L 939.19970703125 581.57373046875 L 927.9541015625 581.57373046875 L 927.9541015625 494.14459228515625" fill-opacity="0.9019607843137255" clip-path="url(#mMGNBnOFqArp)" stroke-opacity="0.2" stroke-linejoin="bevel" stroke-miterlimit="10" stroke-width="0.5" stroke-dasharray=""/><path fill="rgb(188,189,34)" stroke="rgb(0,0,0)" paint-order="fill" d="M 927.9541015625 677.4609985351562 L 939.19970703125 677.4609985351562 L 939.19970703125 774.6044921875 L 927.9541015625 774.6044921875 L 927.9541015625 677.4609985351562" fill-opacity="0.9019607843137255" clip-path="url(#mMGNBnOFqArp)" stroke-opacity="0.2" stroke-linejoin="bevel" stroke-miterlimit="10" stroke-width="0.5" stroke-dasharray=""/><path fill="rgb(219,219,141)" stroke="rgb(0,0,0)" paint-order="fill" d="M 927.9541015625 778.8336181640625 L 939.19970703125 778.8336181640625 L 939.19970703125 885.69140625 L 927.9541015625 885.69140625 L 927.9541015625 778.8336181640625" fill-opacity="0.9019607843137255" clip-path="url(#mMGNBnOFqArp)" stroke-opacity="0.2" stroke-linejoin="bevel" stroke-miterlimit="10" stroke-width="0.5" stroke-dasharray=""/><path fill="rgb(23,190,207)" stroke="rgb(0,0,0)" paint-order="fill" d="M 927.9541015625 258.6553955078125 L 939.19970703125 258.6553955078125 L 939.19970703125 292.6556396484375 L 927.9541015625 292.6556396484375 L 927.9541015625 258.6553955078125" fill-opacity="0.9019607843137255" clip-path="url(#mMGNBnOFqArp)" stroke-opacity="0.2" stroke-linejoin="bevel" stroke-miterlimit="10" stroke-width="0.5" stroke-dasharray=""/><path fill="rgb(158,218,229)" stroke="rgb(0,0,0)" paint-order="fill" d="M 927.9541015625 80.36363983154297 L 939.19970703125 80.36363983154297 L 939.19970703125 85.22080993652344 L 927.9541015625 85.22080993652344 L 927.9541015625 80.36363983154297" fill-opacity="0.9019607843137255" clip-path="url(#mMGNBnOFqArp)" stroke-opacity="0.2" stroke-linejoin="bevel" stroke-miterlimit="10" stroke-width="0.5" stroke-dasharray=""/><g clip-path="url(#MTnTSsnTNmDN)"><text fill="rgb(0,0,0)" stroke="none" font-family="helvetica" font-size="8pt" font-style="normal" font-weight="normal" text-decoration="normal" x="0" y="0" text-anchor="end" dominant-baseline="central" transform="matrix(1, 0, 0, 1, 186.68118286132812, 629.9989013671875)" fill-opacity="1">VKS RF - 202</text></g><g clip-path="url(#MTnTSsnTNmDN)"><text fill="rgb(0,0,0)" stroke="none" font-family="helvetica" font-size="8pt" font-style="normal" font-weight="normal" text-decoration="normal" x="0" y="0" text-anchor="end" dominant-baseline="central" transform="matrix(1, 0, 0, 1, 925.1427001953125, 1013.7784423828125)" fill-opacity="1">Cosmos-3M (11K65M) - 51</text></g><g clip-path="url(#MTnTSsnTNmDN)"><text fill="rgb(0,0,0)" stroke="none" font-family="helvetica" font-size="8pt" font-style="normal" font-weight="normal" text-decoration="normal" x="0" y="0" text-anchor="end" dominant-baseline="central" transform="matrix(1, 0, 0, 1, 925.1427001953125, 100.96475219726562)" fill-opacity="1">Angara A5/Briz-M - 1</text></g><g clip-path="url(#MTnTSsnTNmDN)"><text fill="rgb(0,0,0)" stroke="none" font-family="helvetica" font-size="8pt" font-style="normal" font-weight="normal" text-decoration="normal" x="0" y="0" text-anchor="end" dominant-baseline="central" transform="matrix(1, 0, 0, 1, 925.1427001953125, 154.93800354003906)" fill-opacity="1">Angara 1.2 - 2</text></g><g clip-path="url(#MTnTSsnTNmDN)"><text fill="rgb(0,0,0)" stroke="none" font-family="helvetica" font-size="8pt" font-style="normal" font-weight="normal" text-decoration="normal" x="0" y="0" text-anchor="end" dominant-baseline="central" transform="matrix(1, 0, 0, 1, 925.1427001953125, 247.14056396484375)" fill-opacity="1">Soyuz 2.1a - 3</text></g><g clip-path="url(#MTnTSsnTNmDN)"><text fill="rgb(0,0,0)" stroke="none" font-family="helvetica" font-size="8pt" font-style="normal" font-weight="normal" text-decoration="normal" x="0" y="0" text-anchor="end" dominant-baseline="central" transform="matrix(1, 0, 0, 1, 925.1427001953125, 138.56597900390625)" fill-opacity="1">Strela - 3</text></g><g clip-path="url(#MTnTSsnTNmDN)"><text fill="rgb(0,0,0)" stroke="none" font-family="helvetica" font-size="8pt" font-style="normal" font-weight="normal" text-decoration="normal" x="0" y="0" text-anchor="end" dominant-baseline="central" transform="matrix(1, 0, 0, 1, 925.1427001953125, 225.91136169433594)" fill-opacity="1">Soyuz 2.1b - 4</text></g><g clip-path="url(#MTnTSsnTNmDN)"><text fill="rgb(0,0,0)" stroke="none" font-family="helvetica" font-size="8pt" font-style="normal" font-weight="normal" text-decoration="normal" x="0" y="0" text-anchor="end" dominant-baseline="central" transform="matrix(1, 0, 0, 1, 925.1427001953125, 202.25357055664062)" fill-opacity="1">Soyuz 2.1a/Fregat-M - 4</text></g><g clip-path="url(#MTnTSsnTNmDN)"><text fill="rgb(0,0,0)" stroke="none" font-family="helvetica" font-size="8pt" font-style="normal" font-weight="normal" text-decoration="normal" x="0" y="0" text-anchor="end" dominant-baseline="central" transform="matrix(1, 0, 0, 1, 925.1427001953125, 117.33677673339844)" fill-opacity="1">Proton-M/Briz-M - 4</text></g><g clip-path="url(#MTnTSsnTNmDN)"><text fill="rgb(0,0,0)" stroke="none" font-family="helvetica" font-size="8pt" font-style="normal" font-weight="normal" text-decoration="normal" x="0" y="0" text-anchor="end" dominant-baseline="central" transform="matrix(1, 0, 0, 1, 925.1427001953125, 91.87848663330078)" fill-opacity="1">Rokot/Briz K - 1</text></g><g clip-path="url(#MTnTSsnTNmDN)"><text fill="rgb(0,0,0)" stroke="none" font-family="helvetica" font-size="8pt" font-style="normal" font-weight="normal" text-decoration="normal" x="0" y="0" text-anchor="end" dominant-baseline="central" transform="matrix(1, 0, 0, 1, 925.1427001953125, 176.16720581054688)" fill-opacity="1">Soyuz 2.1v/Volga - 5</text></g><g clip-path="url(#MTnTSsnTNmDN)"><text fill="rgb(0,0,0)" stroke="none" font-family="helvetica" font-size="8pt" font-style="normal" font-weight="normal" text-decoration="normal" x="0" y="0" text-anchor="end" dominant-baseline="central" transform="matrix(1, 0, 0, 1, 925.1427001953125, 318.74200439453125)" fill-opacity="1">Soyuz 2.1b/Fregat-M - 9</text></g><g clip-path="url(#MTnTSsnTNmDN)"><text fill="rgb(0,0,0)" stroke="none" font-family="helvetica" font-size="8pt" font-style="normal" font-weight="normal" text-decoration="normal" x="0" y="0" text-anchor="end" dominant-baseline="central" transform="matrix(1, 0, 0, 1, 925.1427001953125, 376.3999938964844)" fill-opacity="1">Tsyklon-2 - 13</text></g><g clip-path="url(#MTnTSsnTNmDN)"><text fill="rgb(0,0,0)" stroke="none" font-family="helvetica" font-size="8pt" font-style="normal" font-weight="normal" text-decoration="normal" x="0" y="0" text-anchor="end" dominant-baseline="central" transform="matrix(1, 0, 0, 1, 925.1427001953125, 451.05810546875)" fill-opacity="1">Rokot/Briz KM - 16</text></g><g clip-path="url(#MTnTSsnTNmDN)"><text fill="rgb(0,0,0)" stroke="none" font-family="helvetica" font-size="8pt" font-style="normal" font-weight="normal" text-decoration="normal" x="0" y="0" text-anchor="end" dominant-baseline="central" transform="matrix(1, 0, 0, 1, 925.1427001953125, 629.5173950195312)" fill-opacity="1">Molniya-M /Block 2BL - 18</text></g><g clip-path="url(#MTnTSsnTNmDN)"><text fill="rgb(0,0,0)" stroke="none" font-family="helvetica" font-size="8pt" font-style="normal" font-weight="normal" text-decoration="normal" x="0" y="0" text-anchor="end" dominant-baseline="central" transform="matrix(1, 0, 0, 1, 925.1427001953125, 537.859130859375)" fill-opacity="1">Zenit-2 - 18</text></g><g clip-path="url(#MTnTSsnTNmDN)"><text fill="rgb(0,0,0)" stroke="none" font-family="helvetica" font-size="8pt" font-style="normal" font-weight="normal" text-decoration="normal" x="0" y="0" text-anchor="end" dominant-baseline="central" transform="matrix(1, 0, 0, 1, 925.1427001953125, 726.0327758789062)" fill-opacity="1">Tsyklon-3 - 20</text></g><g clip-path="url(#MTnTSsnTNmDN)"><text fill="rgb(0,0,0)" stroke="none" font-family="helvetica" font-size="8pt" font-style="normal" font-weight="normal" text-decoration="normal" x="0" y="0" text-anchor="end" dominant-baseline="central" transform="matrix(1, 0, 0, 1, 925.1427001953125, 832.2625122070312)" fill-opacity="1">Molniya-M /Block ML - 22</text></g><g clip-path="url(#MTnTSsnTNmDN)"><text fill="rgb(0,0,0)" stroke="none" font-family="helvetica" font-size="8pt" font-style="normal" font-weight="normal" text-decoration="normal" x="0" y="0" text-anchor="end" dominant-baseline="central" transform="matrix(1, 0, 0, 1, 925.1427001953125, 275.655517578125)" fill-opacity="1">Soyuz 2.1b/Fregat - 7</text></g><g clip-path="url(#MTnTSsnTNmDN)"><text fill="rgb(0,0,0)" stroke="none" font-family="helvetica" font-size="8pt" font-style="normal" font-weight="normal" text-decoration="normal" x="0" y="0" text-anchor="end" dominant-baseline="central" transform="matrix(1, 0, 0, 1, 925.1427001953125, 82.79222106933594)" fill-opacity="1">Molniya-M /Block NVL - 1</text></g><text fill="rgb(68,68,68)" stroke="none" font-family="helvetica" font-size="13px" font-style="normal" font-weight="bold" text-decoration="normal" x="10" y="19.1689453125" text-anchor="start" dominant-baseline="alphabetic" transform="matrix(1, 0, 0, 1, 0.5, 0.5)" fill-opacity="1">VKS RF Rocket Successes</text></svg>